<?xml version="1.0" standalone="no"?>
<!DOCTYPE svg PUBLIC "-//W3C//DTD SVG 1.1//EN" "http://www.w3.org/Graphics/SVG/1.1/DTD/svg11.dtd" >
<svg xmlns="http://www.w3.org/2000/svg" xmlns:xlink="http://www.w3.org/1999/xlink" version="1.1">
<metadata>
Created by FontForge 20170731 at Fri Nov  5 19:17:32 2021
 By Aleksey,,,
Copyright (c) 2019, wep, Wahyu Eka Prasetya
</metadata>
<defs>
<font id="aAutoSignature" horiz-adv-x="956" vert-adv-y="2048" >
  <font-face 
    font-family="a Auto Signature"
    font-weight="400"
    font-stretch="normal"
    units-per-em="2048"
    panose-1="2 0 5 3 0 0 0 0 0 0"
    ascent="1126"
    descent="-922"
    x-height="350"
    cap-height="1079"
    bbox="-1040 -918 2222 1159"
    underline-thickness="102"
    underline-position="-307"
    unicode-range="U+0020-007E"
  />
<missing-glyph horiz-adv-x="1024" 
d="M102 0v750h820v-750h-820zM205 102h614v545h-614v-545z" />
    <glyph glyph-name=".notdef" horiz-adv-x="1024" 
d="M102 0v750h820v-750h-820zM205 102h614v545h-614v-545z" />
    <glyph glyph-name=".null" horiz-adv-x="0" vert-adv-y="0" 
 />
    <glyph glyph-name="nonmarkingreturn" horiz-adv-x="682" 
 />
    <glyph glyph-name="space" unicode=" " horiz-adv-x="1185" vert-adv-y="0" 
 />
    <glyph glyph-name="exclam" unicode="!" horiz-adv-x="858" vert-adv-y="0" 
d="M289 295q0 42 99 236.5t209 372t136 177.5q29 0 45.5 -26t16.5 -49q0 -4 -31.5 -37t-84.5 -95.5t-113 -144t-126 -202t-114 -248.5q-6 -17 -19 -17q-6 0 -12 10.5t-6 22.5zM176 100q0 27 15.5 44.5t37.5 17.5t32.5 -15.5t10.5 -37.5q0 -35 -16.5 -62t-40.5 -27
q-4 0 -13 9t-17.5 28.5t-8.5 42.5z" />
    <glyph glyph-name="quotedbl" unicode="&#x22;" horiz-adv-x="931" vert-adv-y="0" 
d="M270 1014q0 18 19 30.5t39 12.5t30.5 -15t10.5 -36q0 -39 -18 -89.5t-37.5 -83t-26.5 -32.5q-8 0 -8 24q0 5 11 38t11 44q0 19 -15.5 55t-15.5 52zM530 1014q0 18 19 30.5t39 12.5t30.5 -15t10.5 -36q0 -39 -18 -89.5t-37.5 -83t-26.5 -32.5q-8 0 -8 24q0 5 11 38t11 44
q0 19 -15.5 55t-15.5 52z" />
    <glyph glyph-name="numbersign" unicode="#" horiz-adv-x="1384" vert-adv-y="0" 
d="M805 262q0 -7 -5.5 -12.5t-15.5 -5.5q-5 0 -33.5 2.5t-78 5.5t-103.5 4q-128 -166 -168 -195q-17 -12 -32 -12q-9 0 -9 6q0 7 27 31q35 26 135 170h-174q-117 -149 -160 -182q-18 -13 -32 -13q-9 0 -9 7q0 6 27 30q37 29 125 156q-130 -3 -174 -14h-4q-12 0 -12 4
q0 15 62.5 29.5t158.5 23.5l82 123q-128 -3 -172 -14h-4q-13 0 -13 4q0 15 61 29.5t156 23.5q171 256 178 256q21 0 32.5 -23t11.5 -43q0 -2 -18 -21.5t-56 -61.5t-68 -76q-6 -11 -16 -25q110 8 168 8q151 230 159 230q21 0 32 -23t11 -43q0 -1 -28.5 -32.5t-64 -71
t-48.5 -58.5h21q166 0 166 -51q0 -7 -5.5 -12.5t-15.5 -5.5q-4 0 -32 2.5t-76 5.5t-99 4q-56 -78 -80 -109h27q166 0 166 -51zM471 422q-5 -6 -37.5 -51t-50.5 -68q114 8 178 8l74 111h-164z" />
    <glyph glyph-name="dollar" unicode="$" horiz-adv-x="1339" vert-adv-y="0" 
d="M-113 -225q40 30 66 30q10 0 10 -8q0 -17 -33 -53q-28 -31 -28 -61q0 -50 139 -50q31 0 45 2q64 251 281 799q-73 32 -112.5 73.5t-39.5 110.5q0 59 65 144t162.5 161.5t190.5 118.5q59 117 80 117q29 0 45 -26.5t16 -49.5q0 -4 -2 -6q45 -2 70.5 -32t25.5 -89
q0 -33 -20.5 -89t-52.5 -56q-16 0 -27.5 11t-11.5 28q0 7 21.5 52.5t21.5 78.5q0 54 -41 57q-1 -3 -97 -202.5t-174 -376.5q40 -16 60 -24.5t57 -27.5t57 -34.5t46.5 -42t40.5 -54t24 -65.5t10 -82q0 -74 -45.5 -155t-126 -154.5t-205 -131t-268.5 -79.5q-4 -13 -13 -36.5
t-13 -35.5q-5 -16 -19 -16q-7 0 -12.5 10.5t-5.5 22.5q0 17 6 47q-68 -7 -121 -7q-74 0 -110.5 17.5t-36.5 46.5q0 58 75 117zM150 -356q113 20 215.5 79t170.5 135t108 158t40 152q0 49 -17.5 86.5t-53.5 64.5t-68 42.5t-84 35.5q-170 -390 -311 -753zM594 965
q-108 -76 -199.5 -182t-91.5 -165q0 -69 90 -118q119 291 201 465z" />
    <glyph glyph-name="percent" unicode="%" horiz-adv-x="1179" vert-adv-y="0" 
d="M-274 -326q-17 -12 -33 -12q-8 0 -8 6q0 11 26 31q71 52 248.5 278t349 465.5t315 433t158.5 193.5q29 0 45.5 -26.5t16.5 -49.5q0 -2 -38.5 -41t-102.5 -106.5t-111 -124.5q-676 -909 -866 -1047zM338 -4q-76 -148 -76 -227q0 -70 41 -70q50 0 108 74t95 165.5t37 147.5
q0 45 -19 45q-26 0 -41 -17.5t-19 -39t-12.5 -39t-21.5 -17.5q-22 0 -22 33v4q-20 -26 -70 -59zM414 90q9 32 34 53t58 21q28 0 46.5 -26.5t18.5 -76.5q0 -67 -39 -160.5t-101 -165t-116 -71.5q-108 0 -108 135q0 50 15.5 98t39 82.5t50 61t50.5 40t39 13.5q5 0 13 -4z
M109 903q-76 -148 -76 -227q0 -70 41 -70q50 0 107.5 74t94.5 165.5t37 147.5q0 45 -18 45q-26 0 -41 -17.5t-19 -38.5t-12.5 -38.5t-21.5 -17.5q-23 0 -23 32v5q-23 -29 -69 -60zM184 997q9 32 34 53t58 21q28 0 47 -26t19 -76q0 -67 -39 -160.5t-101 -165.5t-116 -72
q-109 0 -109 136q0 62 23.5 119.5t56 94t64 58.5t51.5 22q4 0 12 -4z" />
    <glyph glyph-name="ampersand" unicode="&#x26;" horiz-adv-x="1374" vert-adv-y="0" 
d="M365 469q-95 -89 -160.5 -167t-112.5 -175t-47 -186q0 -101 111 -101q189 0 448 150q-165 222 -239 479zM424 524q30 -128 94 -259t146 -238q56 35 194.5 127t208.5 131q12 6 18 6q11 0 11 -6q0 -9 -17 -19q-80 -45 -217 -139t-180 -121q141 -179 260 -199q19 -6 19 -14
q0 -9 -17.5 -19t-34.5 -10q-64 0 -138.5 54.5t-149.5 150.5q-129 -77 -258 -119.5t-279 -42.5q-73 0 -108 28.5t-35 76.5q0 69 23 139t60 130t92.5 123.5t110 114t123.5 107.5q-20 92 -20 156q0 68 30 129.5t77.5 104.5t105 74.5t113.5 47t102 15.5q106 0 106 -80
q0 -28 -23 -64t-71.5 -82.5t-95.5 -87.5t-123.5 -105.5t-126.5 -109.5zM414 580q26 21 83 65.5t83 65.5t69.5 57.5t64 58t44.5 49.5t33.5 50.5t9.5 42.5q0 47 -56 47q-41 0 -96 -20t-111.5 -57.5t-95.5 -103t-39 -143.5q0 -58 11 -112z" />
    <glyph glyph-name="quotesingle" unicode="'" horiz-adv-x="737" vert-adv-y="0" 
d="M270 1014q0 18 19 30.5t39 12.5t30.5 -15t10.5 -36q0 -39 -18 -89.5t-37.5 -83t-26.5 -32.5q-8 0 -8 24q0 5 11 38t11 44q0 19 -15.5 55t-15.5 52z" />
    <glyph glyph-name="parenleft" unicode="(" horiz-adv-x="1077" vert-adv-y="0" 
d="M893 1079q35 0 35 -14q0 -9 -12 -17t-33 -8q-114 0 -231 -60.5t-215 -160.5t-185 -231.5t-147 -271.5t-95 -282t-35 -261q0 -244 140 -330q30 -18 30 -39q0 -20 -45 -20h-4q-41 0 -61 10q-146 80 -146 323q0 124 40 275t108.5 301.5t166 293t206 251.5t235.5 175t248 66z
" />
    <glyph glyph-name="parenright" unicode=")" horiz-adv-x="1175" vert-adv-y="0" 
d="M-346 -616q-35 0 -35 14q0 8 11.5 15t31.5 7q115 0 232 60.5t215 161t185 232.5t147.5 272t95 282t34.5 262q0 245 -139 330q-31 19 -31 39t45 20h5q41 0 59 -10q147 -79 147 -324q0 -124 -40 -275t-108 -301t-165.5 -292.5t-206 -251.5t-235.5 -175t-248 -66z" />
    <glyph glyph-name="asterisk" unicode="*" horiz-adv-x="1159" vert-adv-y="0" 
d="M698 477q0 -12 -6.5 -21.5t-17.5 -9.5q-8 0 -15 7q-2 3 -17 29t-42 69t-61 88q-3 5 -10.5 15.5t-10.5 15.5q-71 -112 -117 -238q-6 -12 -14 -12q-4 0 -8 7t-4 15q0 39 108 242q-199 -17 -256 -39h-6q-8 0 -8 4q0 37 260 84q-115 153 -154 185q-6 6 -6 12q0 4 6 4
q43 0 201 -184q55 101 105 175t63 74q21 0 32 -18.5t11 -34.5q0 -3 -21 -25.5t-63 -71t-80 -101.5q70 8 101 10q18 2 49 2q100 0 100 -41q0 -21 -26 -21q-3 0 -20.5 1t-31.5 1q-44 0 -170 -8q64 -84 72 -96q57 -73 57 -119z" />
    <glyph glyph-name="plus" unicode="+" horiz-adv-x="1282" vert-adv-y="0" 
d="M760 352q0 -7 -5.5 -12.5t-13.5 -5.5q-4 0 -33.5 3t-80.5 6t-107 3h-59q-72 -113 -125 -252q-6 -12 -14 -12q-5 0 -9 7.5t-4 16.5q0 35 109 240q-197 0 -252 -16h-4q-10 0 -10 4q0 40 294 63q61 108 112.5 186.5t64.5 78.5q21 0 33 -19t12 -35q0 -3 -23 -26.5
t-66.5 -74.5t-82.5 -108q82 4 118 4q146 0 146 -51z" />
    <glyph glyph-name="comma" unicode="," vert-adv-y="0" 
d="M172 119q0 18 18.5 30.5t38.5 12.5t30.5 -15t10.5 -36q0 -39 -18 -89.5t-37.5 -83t-26.5 -32.5q-8 0 -8 24q0 5 11.5 38t11.5 44q0 19 -15.5 55t-15.5 52z" />
    <glyph glyph-name="hyphen" unicode="-" horiz-adv-x="1282" vert-adv-y="0" 
d="M760 352q0 -7 -5.5 -12.5t-13.5 -5.5q-4 0 -33.5 3t-80.5 6t-107 3q-301 0 -354 -16h-4q-10 0 -10 4q0 28 151 48.5t311 20.5q146 0 146 -51z" />
    <glyph glyph-name="period" unicode="." vert-adv-y="0" 
d="M176 100q0 27 15.5 44.5t37.5 17.5t32.5 -15.5t10.5 -37.5q0 -35 -16.5 -62t-40.5 -27q-4 0 -13 9t-17.5 28.5t-8.5 42.5z" />
    <glyph glyph-name="slash" unicode="/" horiz-adv-x="1179" vert-adv-y="0" 
d="M-274 -326q-17 -12 -33 -12q-8 0 -8 6q0 11 26 31q71 52 248.5 278t349 465.5t315 433t158.5 193.5q29 0 45.5 -26.5t16.5 -49.5q0 -2 -38.5 -41t-102.5 -106.5t-111 -124.5q-676 -909 -866 -1047z" />
    <glyph glyph-name="zero" unicode="0" horiz-adv-x="1335" vert-adv-y="0" 
d="M168 225q0 -91 39.5 -144.5t122.5 -53.5q70 0 163.5 92.5t171.5 222t132.5 275t54.5 245.5q0 146 -117 146q-70 0 -113 -72.5t-51 -181.5q-3 -41 -12 -41t-19 26t-10 47q0 66 21 121q-52 -48 -90 -86.5t-98 -111.5t-98.5 -141t-67.5 -160t-29 -183zM598 993q62 72 135 72
q86 0 126 -51t40 -140q0 -113 -58 -269t-140.5 -290.5t-181 -229.5t-173.5 -95q-125 0 -183.5 63t-58.5 170q0 111 59.5 250t140 249.5t163.5 188t131 82.5z" />
    <glyph glyph-name="one" unicode="1" horiz-adv-x="858" vert-adv-y="0" 
d="M342 948q52 23 98.5 55t67.5 53l20 21q13 0 23 -8t10 -22q0 -30 -120.5 -297.5t-255 -526t-165.5 -258.5q-24 0 -31 9t-7 26q0 8 86.5 159.5t211.5 385.5t197 405q-95 -45 -170 -45q-16 0 -16 6q0 18 51 37z" />
    <glyph glyph-name="two" unicode="2" horiz-adv-x="1554" vert-adv-y="0" 
d="M932 2q39 0 39 -10q0 -9 -30.5 -20t-55.5 -11q-65 0 -125.5 10.5t-98.5 21t-89 37.5t-69 38.5t-66 44.5q-14 9 -21 14q-125 -69 -224 -113.5t-122 -44.5q-59 0 -87 21t-28 55q0 69 84 145t174 76q103 0 223 -76q88 53 168 107.5t163 121t143 128t98.5 127t38.5 119.5
q0 101 -77.5 161t-183.5 60q-55 0 -106 -18.5t-93.5 -54t-67.5 -95.5t-25 -135q0 -22 -9.5 -33.5t-19.5 -11.5q-9 0 -17 14t-8 35q0 81 33.5 146.5t88 105.5t121 61t136.5 21q82 0 150.5 -26t112.5 -81.5t44 -130.5q0 -77 -58 -166t-156 -175t-205.5 -161t-229.5 -145
q56 -39 89 -59t92.5 -48.5t127 -41.5t146.5 -13zM377 154q-100 65 -193 65q-72 0 -133 -48t-61 -95q0 -28 29 -46t90 -18q4 0 39 16.5t98.5 51t130.5 74.5z" />
    <glyph glyph-name="three" unicode="3" horiz-adv-x="1275" vert-adv-y="0" 
d="M496 449q-19 0 -19 16q0 8 7 14t18 6q33 0 63 -6q72 33 146.5 158t74.5 221q0 80 -30.5 119t-79.5 39q-90 0 -178 -94.5t-88 -210.5q0 -22 -9.5 -33.5t-19.5 -11.5q-9 0 -17 14t-8 35q0 86 58.5 165t141.5 124t159 45q69 0 110 -41.5t41 -128.5q0 -98 -81 -229t-169 -185
q77 -26 117.5 -84.5t40.5 -122.5q0 -86 -35 -177.5t-105.5 -178.5t-166.5 -155.5t-228.5 -110.5t-279.5 -42q-74 0 -110.5 17.5t-36.5 46.5q0 58 75 117q40 30 66 30q10 0 10 -8q0 -17 -33 -53q-28 -31 -28 -61q0 -50 139 -50q107 0 210 41t182 108t140.5 149t94 169
t32.5 164q0 75 -50.5 125t-153.5 60z" />
    <glyph glyph-name="four" unicode="4" horiz-adv-x="1404" vert-adv-y="0" 
d="M989 813q0 -29 -114 -286.5t-241.5 -506.5t-156.5 -249q-25 0 -32 8.5t-7 25.5q0 5 24 46t74.5 127.5t94.5 166.5q-391 -69 -529 -69q-82 0 -82 78q0 21 75.5 108.5t184 203.5t217 236t186 226t79.5 153q0 7 6.5 12t11.5 5q14 0 26.5 -15.5t12.5 -33.5q0 -51 -113.5 -195
t-249 -289.5t-249 -274t-113.5 -151.5q0 -18 15 -18q105 0 565 102q184 348 276 604q6 15 19 15q8 0 14 -8t6 -21z" />
    <glyph glyph-name="five" unicode="5" horiz-adv-x="1339" vert-adv-y="0" 
d="M934 1014q0 -7 -5.5 -13t-13.5 -6q-4 0 -33.5 3.5t-80.5 6.5t-107 3q-65 0 -161.5 -3.5t-124.5 -3.5q12 -11 19 -29.5t7 -31.5q0 -5 -20 -53t-63.5 -153.5t-84.5 -211.5q88 31 172 31q166 0 251 -82.5t85 -212.5q0 -86 -35 -177.5t-105.5 -178.5t-166.5 -155.5
t-228.5 -110.5t-279.5 -42q-74 0 -110.5 17.5t-36.5 46.5q0 58 75 117q40 30 66 30q10 0 10 -8q0 -17 -33 -53q-28 -31 -28 -61q0 -50 139 -50q107 0 210 41t182 108t140.5 149t94 169t32.5 164q0 114 -65 183t-197 69q-88 0 -200 -65q-5 -18 -15 -41q-6 -17 -18 -17
q-7 0 -13 10.5t-6 22.5q0 43 68.5 269t103.5 300q-6 0 -18 -4h-4q-10 0 -10 4q0 28 151.5 49t310.5 21q146 0 146 -51z" />
    <glyph glyph-name="six" unicode="6" horiz-adv-x="1349" vert-adv-y="0" 
d="M123 197q111 162 255.5 277.5t250.5 115.5q75 0 111 -42t36 -116q0 -69 -29 -160.5t-76.5 -183.5t-111 -182.5t-129 -160t-133 -112.5t-121.5 -43q-166 0 -192 158q-17 55 -17 133q0 99 31 226.5t85 261t133 261.5t169.5 228t201 161.5t220.5 61.5q135 0 135 -125
q0 -33 -22 -89t-54 -56q-15 0 -26 11t-11 28q0 7 20.5 52.5t20.5 78.5q0 61 -73 61q-89 0 -177.5 -50t-161.5 -133.5t-138.5 -194t-114 -228t-82.5 -239.5zM90 61q-29 -145 -29 -241q0 -129 91 -174q32 -8 55 -8q55 0 140.5 88.5t161 210.5t130.5 258.5t55 224.5
q0 121 -67 121q-114 0 -279.5 -151t-257.5 -329z" />
    <glyph glyph-name="seven" unicode="7" horiz-adv-x="1525" vert-adv-y="0" 
d="M1167 911q-307 -348 -458 -510q29 2 84 2q145 0 145 -51q0 -7 -5 -12.5t-13 -5.5q-4 0 -33.5 3t-81 6t-107.5 3h-43q-223 -237 -376 -375q-28 -26 -82 -26q-25 0 -25 12q0 7 43 41q152 132 352 348q-183 -4 -223 -16h-4q-10 0 -10 4q0 19 82 36t202 27q225 242 451 516
l12 15l-22 6q-76 17 -237.5 43.5t-213.5 26.5q-61 0 -108 -14t-86.5 -47t-60.5 -94t-21 -149q0 -23 -10.5 -35t-20.5 -12q-9 0 -17 15.5t-8 36.5q0 95 27.5 161.5t78.5 101.5t110.5 49.5t136.5 14.5q103 0 288 -31.5t236 -31.5q53 0 53 -13q0 -3 -1.5 -6.5t-5.5 -8
t-7.5 -8.5t-10 -11t-10.5 -11z" />
    <glyph glyph-name="eight" unicode="8" horiz-adv-x="1374" vert-adv-y="0" 
d="M469 391q26 36 83 114t81.5 112.5t64.5 95.5t57 97t31.5 80t14.5 79q0 47 -56 47q-41 0 -96 -20t-111.5 -57.5t-95.5 -103t-39 -143.5q0 -109 66 -301zM487 344q24 -69 36.5 -107t24 -92t11.5 -94q0 -54 -78 -112t-188 -95t-201 -37q-160 0 -160 111q0 62 49.5 155
t121.5 183t138 161.5t115 114.5q-26 86 -26 150q0 68 30 129.5t77.5 104.5t105 74.5t113.5 47t102 15.5q106 0 106 -80q0 -49 -37 -124.5t-78.5 -136t-129.5 -182t-132 -186.5zM373 477q-41 -41 -93 -105.5t-109 -143.5t-95.5 -160t-38.5 -134q0 -94 121 -94q64 0 140.5 33
t130.5 85.5t54 102.5q0 42 -12 99t-25 98t-38 114.5t-35 104.5z" />
    <glyph glyph-name="nine" unicode="9" horiz-adv-x="1308" vert-adv-y="0" 
d="M729 475q-111 -162 -255.5 -277.5t-250.5 -115.5q-75 0 -111 42t-36 116q0 103 63 250.5t153 277t197 221.5t187 92q166 0 192 -157q17 -55 17 -133q0 -99 -31 -227t-85 -261t-133 -261.5t-169.5 -228.5t-201 -161.5t-220.5 -61.5q-135 0 -135 125q0 33 22 89.5t54 56.5
q15 0 26 -11t11 -28q0 -7 -20.5 -52.5t-20.5 -78.5q0 -62 73 -62q89 0 177.5 50.5t161.5 133.5t138.5 193.5t114 228.5t82.5 240zM762 610q29 145 29 242q0 129 -91 174q-32 8 -55 8q-55 0 -140.5 -88.5t-161 -210.5t-130.5 -258.5t-55 -224.5q0 -121 67 -121
q114 0 279.5 150.5t257.5 328.5z" />
    <glyph glyph-name="colon" unicode=":" vert-adv-y="0" 
d="M176 100q0 27 15.5 44.5t37.5 17.5t32.5 -15.5t10.5 -37.5q0 -35 -16.5 -62t-40.5 -27q-4 0 -13 9t-17.5 28.5t-8.5 42.5zM291 672q0 26 16 43.5t39 17.5q21 0 32 -16t11 -37q0 -35 -16.5 -61.5t-40.5 -26.5q-4 0 -13 8.5t-18.5 28t-9.5 43.5z" />
    <glyph glyph-name="semicolon" unicode=";" vert-adv-y="0" 
d="M172 119q0 18 18.5 30.5t38.5 12.5t30.5 -15t10.5 -36q0 -39 -18 -89.5t-37.5 -83t-26.5 -32.5q-8 0 -8 24q0 5 11.5 38t11.5 44q0 19 -15.5 55t-15.5 52zM291 672q0 26 16 43.5t39 17.5q21 0 32 -16t11 -37q0 -35 -16.5 -61.5t-40.5 -26.5q-4 0 -13 8.5t-18.5 28
t-9.5 43.5z" />
    <glyph glyph-name="less" unicode="&#x3c;" horiz-adv-x="1046" vert-adv-y="0" 
d="M520 424q0 -4 -12 -7.5t-36.5 -7t-35.5 -6.5q-125 -35 -218 -67.5t-93 -42.5q0 -13 31 -25q48 -17 110 -35t105.5 -29t50.5 -14q16 -6 24.5 -20t8.5 -29q0 -13 -6.5 -21.5t-18.5 -8.5h-8q-37 14 -145.5 59.5t-163.5 65.5q-23 7 -23 30q0 19 6 31q6 18 109 56.5t225 70.5
q56 18 72 18q8 0 13 -6t5 -12z" />
    <glyph glyph-name="equal" unicode="=" horiz-adv-x="1282" vert-adv-y="0" 
d="M719 262q0 -7 -5.5 -12.5t-13.5 -5.5q-4 0 -33.5 3t-80.5 6t-107 3q-301 0 -354 -16h-4q-10 0 -10 4q0 28 151 48.5t311 20.5q146 0 146 -51zM819 428q0 -7 -5 -12.5t-13 -5.5q-4 0 -33.5 3t-80.5 6t-107 3q-302 0 -355 -16h-4q-10 0 -10 4q0 28 151.5 48.5t311.5 20.5
q145 0 145 -51z" />
    <glyph glyph-name="greater" unicode="&#x3e;" horiz-adv-x="1046" vert-adv-y="0" 
d="M90 127q0 4 12 7t35 6.5t35 6.5q126 35 218.5 68t92.5 45q0 11 -28 23q-49 17 -110.5 34.5t-109 29.5t-49.5 13q-14 6 -23 21t-9 29q0 12 7 22t17 10q2 0 4.5 -1t3.5 -1q30 -11 141 -56.5t169 -66.5q24 -10 24 -32q0 -13 -6 -31q-7 -18 -110.5 -56.5t-225.5 -70.5
q-50 -16 -72 -16q-7 0 -11.5 5.5t-4.5 10.5z" />
    <glyph glyph-name="question" unicode="?" horiz-adv-x="1327" vert-adv-y="0" 
d="M524 440q-20 -22 -38 -63.5t-30 -69.5t-22 -28q-26 0 -26 20q0 28 27 91t48 87q25 28 74.5 67.5t95 75.5t90.5 79.5t72 95.5t27 108q0 46 -31 69t-84 23q-44 0 -93.5 -16t-99 -49.5t-89 -78.5t-64.5 -109t-25 -136q0 -30 -12.5 -45.5t-24.5 -15.5t-22 19t-10 46
q0 99 46.5 182.5t118.5 134t152 78t154 27.5t121 -28.5t47 -83.5q0 -56 -31 -113.5t-81.5 -108.5t-102 -94.5t-107 -89.5t-80.5 -74zM332 100q0 27 15.5 44.5t37.5 17.5t32.5 -15.5t10.5 -37.5q0 -35 -16.5 -62t-40.5 -27q-4 0 -13 9t-17.5 28.5t-8.5 42.5z" />
    <glyph glyph-name="at" unicode="@" horiz-adv-x="1605" vert-adv-y="0" 
d="M1219 70q-52 -80 -189 -153.5t-308.5 -118t-322.5 -44.5q-83 0 -151 18t-121 56t-82 102.5t-29 151.5q0 119 48 230t127.5 194t178.5 146t204.5 95.5t201.5 32.5q144 0 233 -76.5t89 -228.5q0 -98 -43 -209t-107.5 -185.5t-122.5 -74.5q-90 0 -90 217q0 21 -14 21
q-42 0 -206 -67.5t-189 -67.5q-41 0 -69 17.5t-28 41.5q0 44 45.5 79.5t114 56t139.5 31.5t131 11q17 0 37.5 -8t20.5 -14q0 -7 -23 -7q-79 0 -143.5 -10t-104 -25t-66.5 -33.5t-37.5 -35t-10.5 -29.5q0 -18 22 -18q42 0 197.5 58.5t175.5 58.5q11 0 54.5 -32.5t43.5 -55.5
q0 -144 43 -144q28 0 67 68t68 169.5t29 186.5q0 135 -75 204t-195 69q-82 0 -170 -28.5t-171.5 -85.5t-150 -132.5t-107 -179t-40.5 -216.5q0 -160 99.5 -236.5t262.5 -76.5q197 0 414.5 89t304.5 208q8 14 17 14q6 0 6 -10q0 -13 -8 -24z" />
    <glyph glyph-name="A" unicode="A" horiz-adv-x="1548" vert-adv-y="0" 
d="M135 43q5 7 43 60t60 83h-23h-4q-76 0 -113 -16.5t-37 -42.5q0 -41 74 -84zM199 14q88 -30 188 -30q91 0 182 12q-122 139 -260 176q-19 -27 -55.5 -80t-54.5 -78zM344 221q173 -41 303 -215q84 13 193 41q76 262 154.5 584.5t78.5 367.5q0 50 -35 50q-25 0 -67.5 -34
t-100 -99t-117.5 -139t-135.5 -176.5t-136 -186.5t-137.5 -193zM764 -219q24 87 65 229q-97 -26 -159 -35q63 -93 94 -194zM88 -27q5 7 14.5 21.5t14.5 21.5q-76 54 -76 115q0 45 52 73.5t155 28.5q3 0 8.5 -1.5t9.5 -1.5t6 3q89 123 172 232.5t178.5 226t173 199.5
t146 136.5t107.5 53.5q88 0 88 -114q0 -68 -73 -364t-151 -537q192 52 369 118.5t266 110.5q8 4 15 4q10 0 10 -12q0 -11 -14 -17q-313 -144 -654 -241q-21 -69 -62 -235t-67 -232q-7 -17 -16 -17q-14 0 -27.5 16t-13.5 33q0 16 16 82q-9 63 -45.5 139t-91.5 146
q-114 -18 -219 -18q-113 0 -203 41q-173 -250 -190 -250q-29 0 -45.5 26.5t-16.5 49.5q0 2 25.5 21.5t66.5 59t72 82.5z" />
    <glyph glyph-name="B" unicode="B" horiz-adv-x="1560" vert-adv-y="0" 
d="M868 37q-112 -33 -190 -57.5t-172 -56.5t-156 -59.5t-117.5 -58t-82.5 -61.5t-27 -61q0 -50 139 -50q129 0 305 120t301 284zM-61 -109q65 127 152 283t145 258.5t127 245.5t122 287l21 55l-43 -31q-48 -34 -76.5 -55t-73.5 -56.5t-72.5 -63t-60 -66t-51 -73.5t-31 -77.5
t-12.5 -85.5q0 -30 -12.5 -46.5t-24.5 -16.5t-22.5 20t-10.5 47q0 212 418 506q81 57 115 57q31 0 31 -51q0 -53 -101 -285l-41 -92l56 74q131 176 271 275.5t232 99.5q133 0 133 -82q0 -50 -52.5 -127t-126 -148.5t-146.5 -130.5t-119 -84l-27 -14h66q170 0 248 -57
t78 -154q0 -99 -62 -213q145 43 226.5 69t183 64t162.5 72q8 4 14 4q10 0 10 -12q0 -11 -14 -17q-61 -34 -171.5 -75t-188.5 -66t-244 -76q-117 -187 -337.5 -323t-449.5 -136q-74 0 -110.5 17.5t-36.5 46.5t18 58t57 57t83 53.5t112.5 53t128 49.5t147.5 50t153.5 47.5
t162.5 47.5q78 156 78 250q0 157 -238 157q-158 0 -260 -51q-8 -4 -20 -4q-19 0 -34 9.5t-15 21.5q0 14 28 22q106 36 242 109q101 54 233.5 197t132.5 216q0 50 -69 50q-48 0 -145 -76.5t-173 -155t-125 -137.5q-95 -116 -180 -252.5t-177.5 -292t-182.5 -280.5
q-6 -9 -21 -9q-13 0 -24 8.5t-11 20.5q0 9 5 14z" />
    <glyph glyph-name="C" unicode="C" horiz-adv-x="1591" vert-adv-y="0" 
d="M147 141q0 -245 338 -245q65 0 145 14.5t155 35.5t166.5 55.5t159.5 63t155.5 69.5t133 64t114 57.5t77.5 39.5q8 4 15 4q10 0 10 -12q0 -11 -14 -17l-64 -32q-63 -32 -100 -50t-120 -57.5t-146 -65.5t-152.5 -62.5t-165.5 -60t-159 -46.5t-160 -34.5t-142 -11.5
q-319 0 -319 287q0 68 20.5 151t61.5 173t98 178.5t135.5 168.5t167.5 140.5t200 96.5t228 36q135 0 135 -125q0 -33 -22 -89t-54 -56q-15 0 -25.5 11t-10.5 28q0 7 20.5 52.5t20.5 78.5q0 61 -74 61q-131 0 -250 -46t-207.5 -122t-160.5 -171.5t-117 -197t-69 -195
t-24 -169.5z" />
    <glyph glyph-name="D" unicode="D" horiz-adv-x="1474" vert-adv-y="0" 
d="M750 27q-290 -71 -471 -179t-181 -178q0 -43 82 -43q90 0 255 112t315 288zM530 682q-95 -116 -180 -252.5t-177.5 -292t-182.5 -280.5q-6 -9 -21 -9q-13 0 -24 8.5t-11 20.5q0 9 5 14q65 127 152 283t145 258.5t127 245.5t122 287l21 55l-43 -31q-48 -34 -76.5 -55
t-73.5 -56.5t-72.5 -63t-60 -66t-51 -73.5t-31 -77.5t-12.5 -85.5q0 -30 -12.5 -46.5t-24.5 -16.5t-22.5 20t-10.5 47q0 212 418 506q81 57 115 57q31 0 31 -51q0 -53 -101 -285l-41 -92l56 74q113 155 252.5 269t242.5 114q77 0 121.5 -75.5t44.5 -237.5q0 -371 -278 -713
q165 50 240.5 73.5t185 64t172.5 75.5q8 4 14 4q10 0 10 -12q0 -11 -14 -17q-65 -35 -185 -79.5t-196.5 -68.5t-261.5 -81q-175 -198 -387.5 -324.5t-335.5 -126.5q-101 0 -101 54q0 38 53 92t147 112.5t243 117.5t321 100q308 368 308 755q0 226 -111 226
q-39 0 -92.5 -29.5t-102 -70t-102.5 -95.5t-87.5 -93.5t-64.5 -76.5z" />
    <glyph glyph-name="E" unicode="E" horiz-adv-x="1314" vert-adv-y="0" 
d="M1325 270q-31 -16 -106 -50.5t-216.5 -92t-281 -106t-294 -85t-261.5 -36.5q-195 0 -195 157q0 71 41.5 136t116.5 119t168 98t207 82q-91 29 -145 91.5t-54 153.5q0 75 69.5 155.5t172 132.5t192.5 52q48 0 76.5 -29.5t28.5 -91.5q0 -33 -22 -89t-54 -56q-15 0 -26 11
t-11 28q0 7 20.5 52.5t20.5 78.5q0 57 -43 57q-64 0 -148.5 -48.5t-146 -119t-61.5 -125.5q0 -95 79 -160t224 -65q16 0 16 -8q0 -10 -20.5 -25.5t-34.5 -15.5q-2 0 -16.5 5t-22.5 3q-120 -32 -217.5 -73t-175.5 -92.5t-121 -117t-43 -137.5q0 -106 221 -106q95 0 232.5 33
t259 75.5t254.5 97.5t197.5 84.5t109.5 51.5q8 4 14 4q10 0 10 -12q0 -11 -14 -17z" />
    <glyph glyph-name="F" unicode="F" horiz-adv-x="1509" vert-adv-y="0" 
d="M344 250q44 80 100 178q-59 4 -88 10q-3 -86 -12 -188zM279 -63q-168 -390 -168 -543q0 -51 28 -51q26 0 66 174.5t74 419.5zM332 489v19q0 45 -17 45q-14 0 -14 -14q0 -31 31 -50zM1061 451q0 -7 -5.5 -13t-13.5 -6q-4 0 -33.5 3t-80.5 6t-107 3q-68 0 -169.5 -3
t-129.5 -3q-111 -217 -200 -407q-39 -305 -96 -525.5t-113 -220.5q-62 0 -62 107q0 276 258 790q19 181 21 262q-57 14 -87 40t-30 53q0 24 23 40.5t61 16.5q24 0 42.5 -22t18.5 -58v-37q34 -13 105 -16q122 206 231 348.5t142 142.5q24 0 24 -14q0 -47 -101.5 -199
t-209.5 -268q162 31 366 31q146 0 146 -51zM1397 1061q-296 -66 -721 -66q-100 0 -180 -8.5t-162 -33.5t-136.5 -66.5t-89 -113t-34.5 -167.5q0 -30 -12.5 -45.5t-24.5 -15.5t-22.5 19t-10.5 46q0 76 21 138t57 106t90 77t113 52.5t134 31.5t145 16.5t153 4.5q394 0 637 60
q16 4 47 4q22 0 37.5 -4.5t15.5 -10.5q0 -13 -57 -24z" />
    <glyph glyph-name="G" unicode="G" horiz-adv-x="1576" vert-adv-y="0" 
d="M442 -270q-186 -141 -310 -307.5t-124 -280.5q0 -19 15 -19q43 0 162.5 177t256.5 430zM686 240q66 161 66 229q0 30 16 51t35 21q13 0 23 -15.5t10 -44.5q0 -97 -66.5 -266.5t-175.5 -370.5q218 109 595.5 277.5t387.5 173.5q8 4 14 4q11 0 11 -12q0 -11 -15 -17
q-75 -36 -267.5 -118.5t-390.5 -173t-360 -179.5q-155 -281 -316 -494.5t-226 -213.5q-43 0 -43 51q0 309 491 649q109 210 168 342q-148 -170 -346 -170q-117 0 -175.5 72t-58.5 192q0 83 27 178.5t75.5 190.5t121 182.5t157 155t190 107.5t214.5 40q135 0 135 -125
q0 -33 -22 -89t-54 -56q-15 0 -26 11t-11 28q0 7 20.5 52.5t20.5 78.5q0 61 -73 61q-101 0 -196 -37t-168 -100t-134 -144t-101 -170t-61.5 -178.5t-21.5 -168.5q0 -110 56 -176t167 -66q67 0 151 64t156 174z" />
    <glyph glyph-name="H" unicode="H" horiz-adv-x="1828" vert-adv-y="0" 
d="M961 518q86 53 150.5 96t139 100.5t122.5 107.5t80 106.5t32 107.5q0 17 -12 17q-74 0 -223 -160t-289 -375zM219 213q116 171 215.5 394.5t155.5 416.5q-160 -115 -205 -153q-189 -156 -214 -306q-5 -26 -5 -53q0 -30 -12.5 -46.5t-24.5 -16.5t-22.5 20t-10.5 47
q0 55 28 116t73 114.5t100 105t109 92.5t100 72t74 48t30 17q16 0 32.5 -17.5t16.5 -35.5q0 -105 -101.5 -347.5t-246.5 -449.5q357 137 500 213q93 157 208 300.5t239 243t210 99.5q43 0 43 -51q0 -44 -20 -91t-49 -87.5t-80 -88t-95 -83t-113 -83t-114 -76.5t-118 -74
q-114 -171 -184 -315.5t-70 -223.5q0 -41 65 -41q38 0 96.5 13t129.5 36.5t146 51.5t159 64t154.5 66.5t147 66t121.5 57t93 44.5l49 23q8 4 14 4q10 0 10 -12q0 -11 -14 -17q-9 -4 -190.5 -87.5t-330.5 -147.5t-339.5 -124.5t-296.5 -60.5q-90 0 -90 109q0 143 190 434
q-49 -24 -118.5 -53.5t-108.5 -44.5t-146 -56t-128 -49q-112 -166 -226 -286.5t-245.5 -196.5t-255.5 -76q-74 0 -111 17.5t-37 46.5q0 30 11 59.5t36 58t52 54.5t72.5 54t84 51t99 51t105 48t116 49t116.5 46.5t121 46.5zM190 174q-103 -42 -176.5 -73.5t-160.5 -72.5
t-145 -76.5t-109.5 -75t-77 -79t-25.5 -78.5q0 -30 109 -30q273 0 585 485z" />
    <glyph glyph-name="I" unicode="I" horiz-adv-x="968" vert-adv-y="0" 
d="M-10 -143q-6 -9 -21 -9q-13 0 -24 8.5t-11 20.5q0 9 5 14q74 145 191 352.5t201 373t154 348.5l21 55l-43 -31q-48 -34 -76.5 -55t-73.5 -56.5t-72.5 -63t-60 -66t-51 -73.5t-31 -77.5t-12.5 -85.5q0 -30 -12.5 -46.5t-24.5 -16.5t-22.5 20t-10.5 47q0 69 42.5 145.5
t113.5 146t132.5 119t129.5 95.5q81 57 115 57q31 0 31 -51q0 -53 -101 -285q-211 -472 -489 -886z" />
    <glyph glyph-name="J" unicode="J" horiz-adv-x="925" vert-adv-y="0" 
d="M-950 -635q0 -70 143 -70q150 0 297 57.5t278 162t244.5 232t220.5 286.5q-1183 -432 -1183 -668zM260 72q153 226 296.5 514.5t143.5 421.5q0 12 -8 12q-74 0 -227 -94t-278.5 -217.5t-125.5 -196.5q0 -30 -12 -46.5t-24 -16.5t-22.5 20t-10.5 47q0 66 88 162
t206.5 178.5t245 141.5t199.5 59q47 0 47 -66q0 -127 -136 -408t-284 -491q141 42 225 68.5t183 64t160 70.5q8 4 14 4q10 0 10 -12q0 -11 -12 -17q-140 -76 -608 -219q-119 -164 -250.5 -300t-286 -250.5t-330 -179t-352.5 -64.5q-151 0 -151 81q0 52 36.5 107t110.5 109.5
t152 103t197 102t207.5 92t220.5 87t198.5 72t177.5 61.5z" />
    <glyph glyph-name="K" unicode="K" horiz-adv-x="1701" vert-adv-y="0" 
d="M-10 -143q-6 -9 -21 -9q-13 0 -24 8.5t-11 20.5q0 2 1 4t2 5t2 5q65 127 152 283t145 258.5t127 245.5t122 287l21 55l-43 -31q-48 -34 -76.5 -55t-73.5 -56.5t-72.5 -63t-60 -66t-51 -73.5t-31 -77.5t-12.5 -85.5q0 -30 -12.5 -46.5t-24.5 -16.5t-22.5 20t-10.5 47
q0 212 418 506q81 57 115 57q31 0 31 -51q0 -53 -101 -285q-39 -89 -110 -235q32 -4 53 -4q91 0 203 50.5t216.5 131.5t197.5 173.5t161 184.5q20 27 66 27q41 0 41 -22q0 -14 -21 -35q-68 -67 -106 -103.5t-104.5 -96.5t-113.5 -95.5t-115 -82t-128 -75.5t-134.5 -56.5
t-150.5 -43.5q51 -14 82.5 -49.5t43.5 -81.5t18 -98t11.5 -101.5t18 -90t44 -65t83.5 -24.5q101 0 234.5 35t285.5 100t237.5 105.5t209.5 103.5q8 4 14 4q10 0 10 -12q0 -11 -14 -17q-84 -42 -129 -64t-159.5 -76t-200.5 -87t-195.5 -72t-205.5 -58t-173 -19
q-55 0 -87.5 30t-43 77.5t-13.5 105.5l-6 116t-13.5 105.5t-43 77.5t-88.5 30q-2 0 -7.5 1.5t-9 1t-5.5 -4.5q-150 -293 -342 -577z" />
    <glyph glyph-name="L" unicode="L" horiz-adv-x="2197" vert-adv-y="0" 
d="M373 176q-79 37 -168 37q-95 0 -175.5 -62.5t-80.5 -123.5q0 -84 157 -84q119 0 267 233zM55 -115q-78 0 -114.5 27.5t-36.5 73.5q0 57 49.5 125t130 116.5t158.5 48.5q90 0 172 -32q37 56 87.5 143t92 158t93 154t101 145.5t104.5 116t115.5 82t122.5 28.5
q48 0 76.5 -29.5t28.5 -91.5q0 -33 -22 -90t-54 -57q-15 0 -26 12t-11 29q0 7 20.5 52.5t20.5 78.5q0 57 -43 57q-63 0 -127.5 -53t-128 -147t-120.5 -192.5t-130.5 -222.5t-132.5 -204q44 -22 117 -66t133.5 -76.5t144 -67t190.5 -53t232 -18.5q70 0 190 39t275.5 111
t234.5 111.5t200 101.5q8 4 14 4q10 0 10 -12q0 -11 -14 -17q-408 -222 -649.5 -315.5t-417.5 -93.5q-79 0 -154.5 17t-157.5 53.5t-158 78t-188 106.5q-32 19 -49 29q-194 -260 -379 -260z" />
    <glyph glyph-name="M" unicode="M" horiz-adv-x="1933" vert-adv-y="0" 
d="M975 797q-84 -81 -191 -225.5t-161 -198.5q-11 -11 -25 -11q-12 0 -20.5 7t-8.5 20q0 14 13 37q17 30 54.5 94t54.5 96t39.5 80.5t32 89t9.5 80.5q0 45 -35 45q-112 0 -319 -301q-184 -385 -428 -753q-6 -9 -21 -9q-13 0 -24 8.5t-11 20.5q0 2 1 4t2 5t2 5
q65 127 152 283t145 258.5t127 245.5t122 287l21 55l-43 -31q-48 -34 -76.5 -55t-73.5 -56.5t-72.5 -63t-60 -66t-51 -73.5t-31 -77.5t-12.5 -85.5q0 -30 -12.5 -46.5t-24.5 -16.5t-22.5 20t-10.5 47q0 212 418 506q81 57 115 57q31 0 31 -51t-68 -211l-29 -67l47 53
q125 139 215 139q84 0 84 -96q0 -58 -30 -137l-31 -74l47 55q117 136 287 268t260 132q70 0 70 -89q0 -74 -49 -187t-119.5 -226.5t-141 -222t-119.5 -198t-49 -128.5t62 -39q73 0 388.5 98t528.5 197q8 4 15 4q10 0 10 -12q0 -11 -14 -17q-226 -105 -552 -205t-407 -100
q-127 0 -127 70q0 23 78.5 152t172.5 275t172.5 298.5t78.5 218.5q0 49 -45 49q-36 0 -76.5 -18t-90.5 -58t-83 -70t-90 -85z" />
    <glyph glyph-name="N" unicode="N" horiz-adv-x="1654" vert-adv-y="0" 
d="M418 610q-92 -143 -219.5 -387.5t-208.5 -365.5q-6 -9 -21 -9q-13 0 -24 8.5t-11 20.5q0 2 1 4t2 5t2 5q65 127 152 283t145 258.5t127 245.5t122 287l21 55l-43 -31q-48 -34 -76.5 -55t-73.5 -56.5t-72.5 -63t-60 -66t-51 -73.5t-31 -77.5t-12.5 -85.5
q0 -30 -12.5 -46.5t-24.5 -16.5t-22.5 20t-10.5 47q0 212 418 506q81 57 115 57q31 0 31 -51t-68 -211l-29 -67l47 53q79 89 250.5 184.5t284.5 95.5q92 0 92 -90q0 -74 -49.5 -186.5t-120.5 -225.5t-141.5 -220t-120 -195t-49.5 -127t61 -39q73 0 389 98t529 197q8 4 14 4
q10 0 10 -12q0 -11 -14 -17q-226 -105 -552 -205t-406 -100q-127 0 -127 70q0 26 78 153.5t171.5 271.5t171.5 293t78 212q0 47 -45 47q-126 0 -320 -122t-296 -280z" />
    <glyph glyph-name="O" unicode="O" horiz-adv-x="1613" vert-adv-y="0" 
d="M850 123q-178 131 -178 551q0 26 4 76q-26 -70 -275 -230q-90 -116 -146 -269.5t-56 -283.5q0 -119 52 -189.5t161 -70.5q91 0 209 117t229 299zM883 178q94 168 152.5 335t58.5 286q0 192 -154 192q-69 0 -118.5 -56.5t-73 -143.5t-23.5 -193q0 -122 41 -236t117 -184z
M432 -340q-164 0 -240.5 82t-76.5 221q0 97 34.5 213t93 221.5t128 194t146 141.5t140.5 53q20 0 23 -16q21 128 90.5 211.5t167.5 83.5q112 0 164.5 -66.5t52.5 -183.5q0 -135 -62.5 -316t-164.5 -358q76 -47 164 -47q64 0 153 29.5t155 61.5t178 91q24 13 36 19q8 4 14 4
q10 0 10 -12q0 -11 -14 -17q-84 -44 -141 -71.5t-140.5 -62.5t-159 -52.5t-141.5 -17.5q-80 0 -143 28q-116 -191 -242 -312.5t-225 -121.5z" />
    <glyph glyph-name="P" unicode="P" horiz-adv-x="1468" vert-adv-y="0" 
d="M467 424q-61 0 -61 33q0 5 42 10.5t139 29.5t199 68q101 44 178 99t118 108t61 98t20 80q0 121 -84 121q-57 0 -149 -54t-177 -127t-144.5 -129.5t-78.5 -78.5q-95 -116 -180 -252.5t-177.5 -292t-182.5 -280.5q-6 -9 -21 -9q-13 0 -24 8.5t-11 20.5q0 9 5 14
q74 145 191 352.5t201 373t154 348.5l21 55l-43 -31q-48 -34 -76.5 -55t-73.5 -56.5t-72.5 -63t-60 -66t-51 -73.5t-31 -77.5t-12.5 -85.5q0 -30 -12.5 -46.5t-24.5 -16.5t-22.5 20t-10.5 47q0 69 42.5 145.5t113.5 146t132.5 119t129.5 95.5q81 57 115 57q31 0 31 -51
q0 -53 -101 -285l-41 -92l56 74q94 128 286.5 261.5t319.5 133.5q137 0 137 -174q0 -109 -121 -228.5t-297 -201.5q-37 -16 -86.5 -33.5t-130 -38t-135.5 -20.5z" />
    <glyph glyph-name="Q" unicode="Q" horiz-adv-x="1556" vert-adv-y="0" 
d="M242 -180q28 -46 76.5 -72.5t107.5 -26.5q103 0 252 152q-80 86 -166 86q-82 0 -157 -41.5t-113 -97.5zM885 1008q-77 0 -170.5 -75t-178.5 -196.5t-157 -262.5t-115 -286t-43 -254q0 -41 10 -86q56 67 139 113.5t165 46.5q94 0 184 -90q160 182 277.5 428.5t117.5 423.5
q0 111 -55.5 174.5t-173.5 63.5zM879 1073q150 0 220 -79.5t70 -219.5q0 -195 -120.5 -450t-292.5 -445q33 -35 82 -96.5t86.5 -108.5t95 -102.5t113.5 -92t135 -61t166 -24.5q17 0 50 8.5t57 17t64.5 23.5t43.5 16q8 4 14 4q10 0 10 -12q0 -10 -14 -16q-8 -3 -37.5 -14
t-47 -17.5t-48 -17.5t-52 -17.5t-47 -13.5t-45.5 -10.5t-34 -3.5q-84 0 -159.5 25t-128.5 61.5t-108 94t-88.5 104t-79.5 111.5t-73 99q-176 -176 -324 -176q-135 0 -198.5 76t-63.5 209q0 121 49 275.5t130.5 301.5t178.5 272.5t203 202t193 76.5z" />
    <glyph glyph-name="R" unicode="R" horiz-adv-x="1701" vert-adv-y="0" 
d="M530 682q-97 -119 -181 -248.5t-182 -293.5t-177 -283q-6 -9 -21 -9q-13 0 -24 8.5t-11 20.5q0 2 1 4t2 5t2 5q65 127 152 283t145 258.5t127 245.5t122 287l21 55l-43 -31q-48 -34 -76.5 -55t-73.5 -56.5t-72.5 -63t-60 -66t-51 -73.5t-31 -77.5t-12.5 -85.5
q0 -30 -12.5 -46.5t-24.5 -16.5t-22.5 20t-10.5 47q0 212 418 506q81 57 115 57q31 0 31 -51q0 -53 -101 -285l-41 -92l56 74q94 128 286.5 261.5t319.5 133.5q137 0 137 -174q0 -112 -121.5 -234t-296.5 -196q-47 -19 -133.5 -46.5t-157.5 -39.5q-4 -90 -4 -135
q0 -163 63 -229t199 -66q127 0 316 55t331.5 115.5t268.5 124.5q8 4 14 4q10 0 10 -12q0 -11 -14 -17q-91 -46 -198.5 -94.5t-264.5 -112t-311.5 -103.5t-263.5 -40q-119 0 -171 51.5t-52 180.5q0 114 24 272h-8q-61 0 -61 33q0 5 42 10.5t139 29.5t199 68q101 44 178 99
t118 108t61 98t20 80q0 121 -84 121q-57 0 -149 -54t-177 -127t-144.5 -129.5t-78.5 -78.5z" />
    <glyph glyph-name="S" unicode="S" horiz-adv-x="1339" vert-adv-y="0" 
d="M653 37q-114 -34 -189.5 -57.5t-172.5 -56t-158.5 -59.5t-118.5 -58t-84.5 -62t-27.5 -61q0 -50 139 -50q108 0 210 36t179 95t134.5 129.5t88.5 143.5zM799 981q0 57 -45 57q-59 0 -168.5 -79.5t-196 -181.5t-86.5 -159q0 -40 26.5 -70.5t68.5 -51t93 -40t102.5 -45.5
t93.5 -60t68.5 -91t26.5 -131q0 -25 -2 -35q415 123 559 201q8 4 15 4q10 0 10 -12q0 -11 -14 -17q-134 -74 -576 -209q-21 -82 -87 -163t-167.5 -150t-248.5 -111.5t-312 -42.5q-74 0 -110.5 17.5t-36.5 46.5t17.5 58t58 57t81.5 52t113.5 52.5t126.5 48.5t147.5 49t150 46
t159.5 47q18 52 18 100q0 57 -26 99.5t-67 68t-91 45.5t-100.5 39.5t-91.5 43t-67 62.5t-26 92q0 56 60.5 137t145.5 151.5t182 120.5t163 50q102 0 102 -121q0 -33 -20.5 -89t-52.5 -56q-16 0 -27.5 11t-11.5 28q0 7 21.5 52.5t21.5 78.5z" />
    <glyph glyph-name="T" unicode="T" horiz-adv-x="1472" vert-adv-y="0" 
d="M737 995h-55q-100 0 -180 -8.5t-162 -33.5t-136.5 -66.5t-89 -113t-34.5 -167.5q0 -30 -12.5 -45.5t-24.5 -15.5t-22.5 19t-10.5 46q0 76 21 138t57 106t90 77t113 52.5t134 31.5t145 16.5t153 4.5q394 0 637 60q16 4 47 4q22 0 37.5 -4.5t15.5 -10.5q0 -13 -57 -24
q-257 -58 -588 -64q-26 -100 -96 -254q-203 -454 -490 -886q-6 -9 -20 -9q-13 0 -24 8.5t-11 20.5q0 2 4 14q74 146 192 352.5t202.5 372t152.5 349.5z" />
    <glyph glyph-name="U" unicode="U" horiz-adv-x="1527" vert-adv-y="0" 
d="M752 233q-24 -46 -49 -113t-25 -108t29 -41q67 0 279 84.5t350 148.5t192 91q8 4 14 4q10 0 10 -12q0 -11 -14 -17q-700 -338 -907 -338q-43 0 -43 54t35.5 139.5t68.5 144.5l51 95l-65 -80q-143 -174 -283.5 -286t-247.5 -112q-98 0 -98 107q0 104 81.5 291t210 422
t146.5 274l19 39l-35 -25l-75 -54t-71 -54t-71.5 -60.5t-59.5 -62t-53 -70t-34 -72.5t-19 -81q0 -5 -1 -15l-1.5 -15t-1.5 -13.5t-2 -13.5t-3 -11.5t-4 -10t-5.5 -7t-7.5 -5t-9 -1.5q-18 0 -27.5 22.5t-9.5 54.5q0 59 27.5 120t67 109.5t101.5 102t111 88.5t115 78
q87 57 92 57q16 0 33 -17.5t17 -35.5q0 -5 -5.5 -20t-16 -39t-15.5 -35q-32 -75 -148.5 -295.5t-200 -402.5t-83.5 -261q0 -57 45 -57q23 0 48.5 7t55 24.5t54.5 33t60.5 47.5t58.5 52.5t63.5 63.5t60.5 64t63.5 71.5t59.5 69t61 71.5q62 73 140 194t127 202t55 81
q22 0 34.5 -18.5t12.5 -34.5q0 -7 -51.5 -88.5t-142.5 -233.5t-164 -291z" />
    <glyph glyph-name="V" unicode="V" horiz-adv-x="1634" vert-adv-y="0" 
d="M514 1026q-161 -115 -209 -154q-189 -157 -215 -308q-4 -26 -4 -52q0 -30 -12.5 -46.5t-24.5 -16.5t-22.5 20t-10.5 47q0 55 28 116t73 114.5t100 105t109 92.5t100 72t74 48t30 17q16 0 33 -17.5t17 -35.5q0 -33 -79.5 -306.5t-159 -576t-79.5 -405.5q0 -51 33 -51
q49 0 176 142t275.5 345t291 406t244.5 345t115 142q29 0 45 -26.5t16 -49.5q0 -2 -28.5 -31.5t-81 -83.5t-93.5 -100q-90 -130 -178.5 -252.5t-216 -289.5t-230 -287t-198.5 -205.5t-145 -85.5q-101 0 -101 117q0 114 39.5 286t89.5 323t111 340.5t88 301.5z" />
    <glyph glyph-name="W" unicode="W" horiz-adv-x="2293" vert-adv-y="0" 
d="M848 -225q0 35 20 198.5t50 325.5q-176 -207 -345 -357.5t-258 -150.5q-100 0 -100 117q0 130 54.5 329t135.5 437.5t109 351.5q-161 -115 -209 -154q-189 -157 -215 -308q-4 -26 -4 -52q0 -30 -12.5 -46.5t-24.5 -16.5t-22.5 20t-10.5 47q0 55 28 116t73 114.5t100 105
t109 92.5t100 72t74 48t30 17q16 0 33 -17.5t17 -35.5q0 -30 -72 -275t-144.5 -516.5t-72.5 -363.5q0 -51 33 -51t98.5 53.5t158 154t177 199t194.5 232.5q82 358 183 358q25 0 42 -14t17 -43q0 -39 -109 -209q-159 -656 -159 -813q0 -51 32 -51q49 0 176 142t275.5 345
t291 406t244.5 345t115 142q29 0 45.5 -26.5t16.5 -49.5q0 -2 -28.5 -31.5t-81 -83.5t-93.5 -100q-90 -129 -178.5 -252.5t-216 -289.5t-230.5 -286.5t-199 -206t-145 -85.5q-102 0 -102 117z" />
    <glyph glyph-name="X" unicode="X" horiz-adv-x="2121" vert-adv-y="0" 
d="M131 -184q-18 -13 -33 -13q-8 0 -8 7q0 9 27 30q98 69 481 596q-28 142 -49 357t-25 239q-13 -9 -56.5 -39.5t-61 -43t-57.5 -43t-59.5 -48t-53 -48.5t-50.5 -53.5t-39.5 -54.5t-33.5 -60t-19 -62t-8 -68q0 -30 -12.5 -46.5t-24.5 -16.5t-22.5 20t-10.5 47q0 55 28 116
t73 114.5t100 105t109 92.5t100 72t74 48t30 17q28 0 57 -22.5t29 -42.5q0 -17 3 -79t13 -191t25 -250q316 434 372 504q55 68 65 69q29 0 45 -26.5t16 -49.5q0 -2 -40 -40t-103.5 -105t-108.5 -127q-197 -260 -237 -313q56 -506 174 -506q127 0 329 50t397.5 121t339 129
t216.5 93q8 4 14 4q10 0 10 -12q0 -11 -14 -17q-71 -35 -228 -99.5t-364.5 -142t-419 -133t-334.5 -55.5q-132 0 -180 514q-355 -451 -475 -538z" />
    <glyph glyph-name="Y" unicode="Y" horiz-adv-x="1527" vert-adv-y="0" 
d="M438 1024q87 57 92 57q16 0 33 -17.5t17 -35.5q0 -5 -5.5 -20t-16 -39t-15.5 -35q-32 -75 -148.5 -295.5t-200 -402.5t-83.5 -261q0 -57 45 -57q23 0 48.5 7t55 24.5t54.5 33t60.5 47.5t58.5 52.5t63.5 63.5t60.5 64t63.5 71.5t59.5 69t61 71.5q62 73 140 194t127 202
t55 81q22 0 34.5 -18.5t12.5 -34.5q0 -8 -76.5 -134.5t-198.5 -341t-208 -393.5q-25 -53 -68 -131q213 106 567.5 266.5t401.5 182.5q8 4 14 4q10 0 10 -12q0 -11 -14 -17q-41 -20 -413.5 -185t-587.5 -282q-94 -170 -206.5 -334t-211 -271t-142.5 -107q-43 0 -43 51
q0 313 515 665q37 70 119 228t124 235l51 95l-65 -80q-143 -174 -283.5 -286t-247.5 -112q-98 0 -98 107q0 104 81.5 291t210 422t146.5 274l19 39l-35 -25l-75 -54t-71 -54t-71.5 -60.5t-59.5 -62t-53 -70t-34 -72.5t-19 -81q0 -5 -1 -15l-1.5 -15t-1.5 -13.5t-2 -13.5
t-3 -11.5t-4 -10t-5.5 -7t-7.5 -5t-9 -1.5q-18 0 -27.5 22.5t-9.5 54.5q0 59 27.5 120t67 109.5t101.5 102t111 88.5t115 78zM418 -252q-195 -141 -327 -314t-132 -292q0 -19 14 -19q45 0 119.5 91t150.5 219t175 315z" />
    <glyph glyph-name="Z" unicode="Z" horiz-adv-x="2119" vert-adv-y="0" 
d="M545 137q-69 44 -131 67t-135 23q-95 0 -175.5 -62.5t-80.5 -123.5q0 -84 157 -84q122 0 365 180zM1470 872q-94 -96 -199.5 -197.5t-283 -257t-319.5 -257.5q258 -164 520 -164q75 0 156 13.5t146 31t158 52.5t149 59.5t163 72t160 70.5q8 4 14 4q10 0 10 -12
q0 -11 -14 -17q-42 -20 -129.5 -61t-132 -61.5t-123 -55t-128 -53t-120 -42t-125.5 -35t-119.5 -20t-124.5 -8.5q-276 0 -536 172q-305 -206 -463 -206q-78 0 -115 27t-37 73q0 57 49.5 125.5t130 117t158.5 48.5q83 0 153 -26t150 -75q92 72 202.5 171t202.5 189.5
t170.5 170.5t123.5 128l45 48q0 8 -21 8q-56 0 -263.5 45t-321.5 45q-78 0 -139 -18t-112 -60t-78.5 -120.5t-27.5 -190.5q0 -30 -12.5 -45.5t-24.5 -15.5t-22 19t-10 46q0 99 24 174t64 121.5t99 75.5t122 40t141 11q132 0 370.5 -41t303.5 -41q68 0 68 -16q0 -2 -1 -4.5
t-2.5 -5t-3.5 -5.5t-5.5 -6.5t-6 -6.5t-7 -8t-8 -8t-9 -8.5z" />
    <glyph glyph-name="bracketleft" unicode="[" horiz-adv-x="1079" vert-adv-y="0" 
d="M-242 -553q0 105 174 508t370.5 764.5t250.5 361.5q18 0 31 -10q88 -10 192 -10q301 0 354 16h5q10 0 10 -4q0 -29 -149 -54.5t-302 -25.5q-49 0 -80 8q-4 -12 -50 -73.5t-124.5 -180t-174.5 -283.5t-221.5 -434t-242.5 -581q54 20 183.5 33.5t251.5 13.5q145 0 145 -51
q0 -7 -5.5 -12.5t-13.5 -5.5q-4 0 -33.5 3t-80.5 6t-107 3q-93 0 -213.5 -7t-136.5 -7q-5 -11 -14 -11q-7 0 -13 10.5t-6 22.5z" />
    <glyph glyph-name="backslash" unicode="\" horiz-adv-x="1187" vert-adv-y="0" 
d="M647 -246q4 -6 4 -18q0 -17 -9.5 -31t-20.5 -14q-18 0 -31 16q-54 78 -130.5 371t-130 588t-53.5 405q0 8 9 10q33 0 53 -23.5t20 -53.5q0 -21 52.5 -282.5t124.5 -567.5t112 -400z" />
    <glyph glyph-name="bracketright" unicode="]" horiz-adv-x="1312" vert-adv-y="0" 
d="M920 1049q0 -78 -108.5 -347t-246 -553t-269 -509.5t-171.5 -225.5q-16 0 -31 11q-92 10 -192 10q-299 0 -355 -17h-4q-10 0 -10 4q0 29 149 54.5t302 25.5q46 0 79 -8q3 10 28 44.5t68 95t99 144t127.5 209t147.5 273.5t166 353.5t175 433.5q-55 -20 -183.5 -34
t-248.5 -14q-145 0 -145 52q0 7 5 12.5t13 5.5q4 0 33.5 -3t81 -6t107.5 -3q92 0 212.5 7t135.5 7q5 10 16 10q6 0 12.5 -10t6.5 -22z" />
    <glyph glyph-name="asciicircum" unicode="^" horiz-adv-x="983" vert-adv-y="0" 
d="M291 805q73 105 143.5 188.5t89.5 83.5q54 0 54 -37q0 -61 5 -178t5 -153q0 -25 -25 -25q-18 0 -33.5 14t-15.5 35q0 7 4 53t8 110.5t4 115.5q0 37 -14 37q-5 0 -35.5 -34.5t-78.5 -96t-93 -125.5q-8 -12 -19 -30.5t-17.5 -30t-8.5 -11.5q-5 0 -9.5 5.5t-4.5 12.5
q0 4 6 14.5t18 27t17 24.5z" />
    <glyph glyph-name="underscore" unicode="_" horiz-adv-x="1998" vert-adv-y="0" 
d="M92 -16q576 71 1096 71q84 0 84 -28q0 -19 -25 -19q-5 0 -73.5 3t-102.5 3q-121 0 -356.5 -13t-423.5 -26.5t-193 -13.5q-6 0 -11 4.5t-5 9.5q0 9 10 9z" />
    <glyph glyph-name="grave" unicode="`" horiz-adv-x="737" vert-adv-y="0" 
d="M369 1014q0 -35 22.5 -104.5t22.5 -78.5q0 -24 -8 -24q-11 0 -43.5 31.5t-62.5 80.5t-30 87q0 21 10.5 36t30.5 15t39 -12.5t19 -30.5z" />
    <glyph glyph-name="a" unicode="a" horiz-adv-x="1347" vert-adv-y="0" 
d="M1358 270q-3 -2 -36 -18t-54 -26t-64.5 -30.5t-77.5 -35t-83.5 -35t-90.5 -34.5t-91 -29.5t-93 -25.5t-88 -16t-84 -6q-113 0 -174.5 46t-61.5 163q0 21 -14 21q-42 0 -206 -67.5t-189 -67.5q-40 0 -68 17.5t-28 41.5q0 44 45.5 79.5t114 56t139.5 31.5t131 11
q17 0 37 -8t20 -14q0 -7 -23 -7q-79 0 -143.5 -10t-104 -25t-66.5 -33.5t-37.5 -35t-10.5 -29.5q0 -18 23 -18q42 0 197 58.5t175 58.5q11 0 55 -32.5t44 -55.5q0 -92 32 -128t101 -36q88 0 216 37.5t221.5 77.5t204.5 92t122 57q8 4 14 4q10 0 10 -12q0 -11 -14 -17z" />
    <glyph glyph-name="b" unicode="b" horiz-adv-x="1142" vert-adv-y="0" 
d="M109 360q103 72 176.5 127.5t162.5 132t144 140t93 137.5t38 139q0 17 -12 17q-61 0 -170.5 -107t-222.5 -263t-209 -323zM227 150q27 76 27 120q0 45 -18 45q-17 0 -27 -20t-10 -51q0 -58 28 -94zM215 20q-44 -84 -109 -147t-118 -63q-50 0 -80.5 45.5t-30.5 117.5
q0 78 58 217t153 291t203 289.5t221.5 227t194.5 89.5q41 0 41 -51q0 -49 -15.5 -99.5t-48.5 -101t-68.5 -95.5t-92.5 -97t-102.5 -91t-116.5 -91.5t-116 -84.5t-118 -83q-138 -252 -138 -354q0 -95 43 -95q48 0 104.5 59.5t100.5 139.5q15 27 27 51q-88 43 -88 142
q0 46 27 79t69 33q30 0 49 -26t19 -76q0 -57 -25 -125q56 -33 152 -33q250 0 733 207q8 4 14 4q10 0 10 -12q0 -11 -14 -17q-30 -16 -147.5 -59t-312.5 -93t-328 -50q-72 0 -121 14q-8 -20 -29 -62z" />
    <glyph glyph-name="c" unicode="c" horiz-adv-x="1087" vert-adv-y="0" 
d="M1098 270q-27 -13 -74.5 -33.5t-182.5 -74t-258 -94t-270.5 -74t-249.5 -33.5q-106 0 -158 44t-52 114q0 82 103 155.5t251 73.5q78 0 78 -37q0 -45 -88 -45q-7 0 -7 6q0 3 7.5 13.5t7.5 13.5q0 16 -17 16q-108 0 -176.5 -54.5t-68.5 -119.5q0 -67 42 -111t124 -44
q97 0 234 32t262 77.5t236.5 90.5t178.5 77l67 32q8 4 15 4q10 0 10 -12q0 -11 -14 -17z" />
    <glyph glyph-name="d" unicode="d" horiz-adv-x="1347" vert-adv-y="0" 
d="M322 338q13 13 33.5 37.5t25.5 30.5q56 139 139 293t151.5 252t90.5 98q29 0 29 -58q0 -12 -12 -37t-40 -68t-56 -85t-78 -115.5t-89 -132.5q-139 -301 -139 -401q0 -119 190 -119q68 0 162 22.5t194.5 60t178 70t158 69.5t88.5 40q8 4 14 4q10 0 10 -12q0 -11 -14 -17
q-589 -266 -844 -266q-211 0 -211 113q0 74 43 198q-189 -209 -395 -209q-96 0 -96 62q0 44 45.5 79.5t114 56t139.5 31.5t131 11q13 0 37 -8zM301 317q-75 -1 -136 -11.5t-98.5 -25t-63.5 -33t-36 -34.5t-10 -29q0 -22 41 -22q148 0 303 155z" />
    <glyph glyph-name="e" unicode="e" horiz-adv-x="1136" vert-adv-y="0" 
d="M-6 236q-12 -21 -12 -39q0 -31 49 -31q78 0 134 48.5t56 92.5q0 35 -47 35q-53 0 -103 -28.5t-77 -77.5zM225 397q36 0 55 -16t19 -43q0 -65 -81.5 -134t-199.5 -69q-41 0 -65 15q-4 -24 -4 -37q0 -63 51.5 -102.5t161.5 -39.5q107 0 243.5 33t284 92t229 95.5
t187.5 88.5q22 11 31 15q8 4 14 4q10 0 10 -12q0 -11 -14 -17q-85 -46 -195 -96t-251 -104.5t-289 -89.5t-262 -35q-146 0 -215.5 43.5t-69.5 113.5q0 65 51.5 133.5t136.5 115t172 46.5z" />
    <glyph glyph-name="f" unicode="f" horiz-adv-x="1318" vert-adv-y="0" 
d="M291 111q2 12 2 32q0 45 -17 45q-14 0 -14 -14q0 -37 29 -63zM313 74q-23 -139 -104.5 -327t-177 -325t-152.5 -137q-61 0 -61 107q0 179 101 439t255 534q-76 -52 -164 -95q-8 -4 -14 -4q-10 0 -10 13q0 10 14 16q100 54 223 156q123 209 234.5 355t144.5 146
q25 0 25 -14q0 -49 -109.5 -209.5t-220.5 -275.5q-58 -109 -116 -227t-134 -285t-123 -314.5t-47 -232.5q0 -51 29 -51q55 0 139.5 130.5t154 305.5t87.5 301q-56 17 -84.5 41.5t-28.5 50.5q0 24 23 40.5t61 16.5q24 0 42.5 -21.5t18.5 -57.5q0 -14 -4 -54q46 -16 107 -16
q193 0 505.5 85.5t391.5 129.5q8 4 14 4q10 0 10 -12q0 -11 -14 -17q-85 -46 -390.5 -126.5t-508.5 -80.5q-56 0 -117 11z" />
    <glyph glyph-name="g" unicode="g" horiz-adv-x="911" vert-adv-y="0" 
d="M-18 162q15 -15 45 -15q66 0 148.5 56t82.5 106q0 29 -41 29q-60 0 -147.5 -62t-87.5 -108v-6zM129 -211q-393 -312 -393 -582q0 -48 17.5 -73t47.5 -25q46 0 98.5 21.5t104.5 66.5t94 106t68.5 148.5t26.5 186.5q0 63 -64 151zM-94 166q0 94 77.5 152.5t223.5 58.5
q92 0 92 -66q0 -37 -47.5 -81t-113.5 -74.5t-118 -30.5q-14 0 -34 4q7 -34 29 -71.5t42 -61.5t59.5 -68t55.5 -63q302 214 739 430q8 4 15 4q10 0 10 -12q0 -11 -14 -17q-15 -8 -85.5 -45t-112.5 -59.5t-120.5 -66.5t-138 -80t-134 -85t-138.5 -96q69 -89 69 -176
q0 -108 -29 -203.5t-76 -161.5t-104.5 -115t-115.5 -72t-109 -23q-72 0 -116 41.5t-44 121.5q0 243 441 568q-14 18 -52.5 64t-57.5 71.5t-44.5 65t-37 75.5t-11.5 72z" />
    <glyph glyph-name="h" unicode="h" horiz-adv-x="1425" vert-adv-y="0" 
d="M113 348q487 354 598 586q34 69 34 102q0 17 -14 17q-29 0 -141.5 -110t-252 -280.5t-224.5 -314.5zM729 1087q41 0 41 -51q0 -50 -35 -121q-117 -248 -661 -634q-62 -111 -62 -185q0 -45 15 -45q7 0 30.5 26.5t59 64t78 75t98.5 64t110 26.5q25 0 41 -25t23.5 -62
t18.5 -81t23.5 -81t40.5 -62t68 -25q79 0 186.5 31t210.5 78.5t188.5 92t151.5 82.5t70 40q8 4 15 4q10 0 10 -12q0 -11 -14 -17q-2 -1 -39.5 -22t-77 -42.5t-104 -53.5t-126 -60.5t-137.5 -58t-144.5 -51t-140 -35t-130.5 -13.5q-44 0 -75.5 52t-45 114t-30 114t-34.5 52
q-50 0 -111 -41t-105 -90t-79.5 -90t-40.5 -41q-79 0 -79 55q0 93 48 211.5t123 229.5t167.5 219t180 188.5t161.5 130t112 49.5z" />
    <glyph glyph-name="i" unicode="i" horiz-adv-x="1157" vert-adv-y="0" 
d="M291 672q0 26 16 43.5t39 17.5q21 0 32 -16t11 -37q0 -35 -16.5 -61.5t-40.5 -26.5q-4 0 -13 8.5t-18.5 28t-9.5 43.5zM1167 270q-13 -6 -76 -30t-176.5 -64t-229 -75.5t-237.5 -62t-198 -26.5q-123 0 -123 88q0 34 36 109t36 90q0 27 -29 27q-26 0 -54 -9.5t-64 -26.5
t-42 -20q-8 -4 -14 -4q-10 0 -10 13q0 10 14 16q2 1 34.5 15.5t48 20t43.5 12.5t50 7q100 0 100 -65q0 -29 -35.5 -105t-35.5 -104q0 -47 43 -47q87 0 211 27t236.5 63.5t221.5 77.5t167.5 66t72.5 32q8 4 14 4q11 0 11 -12q0 -11 -15 -17z" />
    <glyph glyph-name="j" unicode="j" horiz-adv-x="1079" vert-adv-y="0" 
d="M1090 270q-36 -17 -395.5 -174t-567.5 -268q-154 -272 -340.5 -504.5t-257.5 -232.5q-43 0 -43 51q0 323 541 682h4q88 156 142 282t54 181q0 37 -43 37q-45 0 -174 -54q-8 -4 -14 -4q-10 0 -10 13q0 10 14 16q16 6 52.5 21t51.5 20.5t39 14t40 11.5t30 3q98 0 98 -66
q0 -136 -161 -428q154 76 333 157.5t355.5 159.5t240.5 107q8 4 15 4q10 0 10 -12q0 -11 -14 -17zM291 672q0 26 16 43.5t39 17.5q21 0 32 -16t11 -37q0 -35 -16.5 -61.5t-40.5 -26.5q-4 0 -13 8.5t-18.5 28t-9.5 43.5zM2 -229q-206 -142 -348.5 -323.5t-142.5 -305.5
q0 -19 14 -19q48 0 190 197t287 451z" />
    <glyph glyph-name="k" unicode="k" horiz-adv-x="1425" vert-adv-y="0" 
d="M182 180q6 0 19 -1t22 -1q50 0 90 11.5t58 25.5t18 25q0 26 -37 26q-73 0 -170 -86zM74 281q-62 -118 -62 -187q0 -43 15 -43q7 0 30.5 26.5t59 64t78 75t98.5 64t110 26.5q84 0 84 -51q0 -42 -61 -84.5t-145 -42.5q-15 0 -43 4q100 -164 321 -164q113 0 259 45.5t250 96
t221 113t136 71.5q8 4 15 4q10 0 10 -12q0 -11 -14 -17q-2 -1 -50 -27.5t-102 -54t-133 -66.5t-161.5 -72t-169 -63t-172.5 -47.5t-156 -17.5q-59 0 -109.5 14.5t-83.5 33.5t-65 52.5t-49 58t-40 62.5q-28 -28 -59.5 -64.5t-48.5 -55.5t-21 -19q-79 0 -79 55q0 93 48 211.5
t123 229.5t167.5 219t180 188.5t161.5 130t112 49.5q41 0 41 -51q0 -50 -35 -121q-117 -248 -661 -634zM111 348q224 161 383 312.5t217 273.5q34 69 34 102q0 17 -14 17q-30 0 -142.5 -110t-252 -280.5t-225.5 -314.5z" />
    <glyph glyph-name="l" unicode="l" horiz-adv-x="1073" vert-adv-y="0" 
d="M141 381q449 333 555 553q33 67 33 102q0 17 -12 17q-57 0 -160 -102t-212.5 -253.5t-203.5 -316.5zM102 313q-143 -266 -143 -385q0 -67 100 -67q64 0 168 33t230 91.5t229 110t227 116.5t160 83q8 4 14 4q11 0 11 -12q0 -11 -15 -17q-29 -14 -150.5 -76t-191.5 -97
t-191.5 -91t-203.5 -87.5t-170.5 -56t-144.5 -24.5q-148 0 -148 135q0 65 42 175t110 232.5t157.5 249t179.5 228t181.5 165.5t159.5 64q43 0 43 -51q0 -50 -35 -121q-120 -245 -619 -602z" />
    <glyph glyph-name="m" unicode="m" horiz-adv-x="2029" vert-adv-y="0" 
d="M1001 305q38 0 59 -30t29.5 -72.5t20 -84.5t43.5 -72t88 -30q88 0 219.5 39.5t230.5 83t212.5 97.5t126.5 59q8 4 14 4q10 0 10 -12q0 -11 -14 -17q-3 -2 -41.5 -21t-65 -31.5t-78.5 -37t-94.5 -42t-99 -40.5t-107 -38.5t-103.5 -30t-103 -22t-93 -7.5q-66 0 -114.5 14.5
t-74 37.5t-41.5 50.5t-23 55t-13.5 50.5t-17 37.5t-29.5 14.5q-59 0 -120.5 -32.5t-103 -72t-78.5 -72t-52 -32.5q-19 0 -24 27t-3.5 60t-12.5 60t-48 27q-49 0 -104 -29.5t-92 -64.5t-67.5 -64.5t-35.5 -29.5q-72 0 -72 59q0 35 35 112t35 101q0 19 -25 19q-16 0 -43 -8
t-48.5 -17.5t-45.5 -20.5t-27 -12q-8 -4 -14 -4q-10 0 -10 13q0 10 14 16q142 57 211 57q68 0 68 -41q0 -3 -18 -44.5t-36 -91t-18 -71.5q0 -18 12 -18q7 0 27.5 20.5t51.5 50t69 58.5t90.5 49.5t105.5 20.5q33 0 51.5 -15.5t22.5 -37.5t4 -44t3 -37.5t13 -15.5
q11 0 44.5 26.5t73.5 58.5t102.5 58.5t123.5 26.5z" />
    <glyph glyph-name="n" unicode="n" horiz-adv-x="1615" vert-adv-y="0" 
d="M201 37q-72 0 -72 59q0 35 35 112t35 101q0 19 -25 19q-22 0 -63 -14.5t-71 -29.5l-30 -14q-8 -4 -14 -4q-10 0 -10 13q0 10 14 16q31 15 93 36t108 21q71 0 71 -43q0 -3 -16 -43.5t-32.5 -89t-16.5 -70.5q0 -20 12 -20q7 0 42.5 34t80.5 75.5t113.5 75.5t132.5 34
q38 0 58 -30t29 -72.5t20.5 -84.5t43.5 -72t88 -30q88 0 219.5 39.5t230.5 83t212.5 97.5t126.5 59q8 4 14 4q10 0 10 -12q0 -11 -14 -17q-4 -2 -41.5 -21t-65 -32t-78.5 -37t-94 -41.5t-99.5 -40t-107 -38.5t-104 -30.5t-103.5 -22t-93 -7.5q-73 0 -124 19t-74 48t-38 62
t-20.5 62t-18 48t-33.5 19q-50 0 -110.5 -34.5t-103 -76t-77.5 -76t-40 -34.5z" />
    <glyph glyph-name="o" unicode="o" horiz-adv-x="1142" vert-adv-y="0" 
d="M178 152q-65 62 -65 180v4q-22 -28 -70 -60q-76 -148 -76 -227q0 -69 41 -69t86.5 49t83.5 123zM213 225q35 93 35 142q0 45 -19 45q-17 0 -26.5 -20t-9.5 -52q0 -71 20 -115zM20 -55q-108 0 -108 135q0 50 15.5 98t39 82.5t50 61t50.5 40t39 13.5q5 0 13 -4
q9 32 34 52.5t58 20.5q28 0 46.5 -26t18.5 -76q0 -76 -40 -160q67 -90 229 -90q89 0 201 25.5t212 64t162.5 66t102.5 47.5q8 4 14 4q10 0 10 -12q0 -11 -14 -17q-54 -28 -160.5 -69.5t-274 -84t-292.5 -42.5q-138 0 -217 51q-41 -78 -91.5 -129t-97.5 -51z" />
    <glyph glyph-name="p" unicode="p" horiz-adv-x="1323" vert-adv-y="0" 
d="M-61 -336q69 180 149.5 417.5t99.5 287.5q-68 -43 -178 -99q-8 -4 -14 -4q-10 0 -10 13q0 10 14 16q103 49 205 115q31 74 55.5 107.5t52.5 33.5q27 0 27 -35t-59 -94q-45 -92 -129 -338q100 132 227 230t213 98q32 0 44.5 -37t14 -90t5.5 -106.5t29 -90.5t75 -37
q58 0 149.5 34t164.5 73t154 84.5t95 52.5q8 4 14 4q11 0 11 -12q0 -11 -15 -17q-1 0 -49.5 -27t-92 -50.5t-114.5 -57t-130.5 -57t-125.5 -41t-114 -17.5q-52 0 -84 23t-41.5 58t-14.5 75t-6 75t-13.5 58t-39.5 23q-80 0 -188.5 -101t-200.5 -243q-163 -467 -221 -590
q-63 -131 -88 -131q-39 0 -39 39q0 23 14 56t37.5 75.5t25.5 46.5q6 13 23.5 43t35 64.5t32.5 72.5z" />
    <glyph glyph-name="q" unicode="q" horiz-adv-x="1560" vert-adv-y="0" 
d="M403 168q-37 -68 -114.5 -200t-131.5 -228t-112.5 -209.5t-89.5 -203.5t-31 -150q0 -49 27 -49q62 0 161.5 138t178 319.5t86.5 297.5q-29 14 -29 35q0 35 27 35q20 0 26 -62q31 -14 105 -14q88 0 229 43t279.5 104.5t264.5 123t204 104.5l78 43q8 4 14 4q10 0 10 -12
q0 -11 -14 -17q-28 -17 -77.5 -44.5t-189 -98.5t-265.5 -125t-276 -98.5t-251 -44.5q-61 0 -111 12v-8q0 -74 -53.5 -208t-126 -260t-150.5 -219.5t-122 -93.5q-62 0 -62 107q0 270 451 1008l22 36q1 2 -0.5 4.5t-5.5 4.5t-10 2q-37 0 -192.5 -67.5t-204.5 -67.5
q-39 0 -66.5 17.5t-27.5 41.5q0 44 45.5 79.5t114 56t139.5 31.5t131 11q17 0 37 -8t20 -14q0 -7 -23 -7q-79 0 -143 -10t-103.5 -25t-66 -33.5t-37 -34.5t-10.5 -30q0 -18 23 -18q42 0 195.5 58.5t172.5 58.5q10 0 44 -27.5t34 -46.5z" />
    <glyph glyph-name="r" unicode="r" horiz-adv-x="1247" vert-adv-y="0" 
d="M217 102q0 27 36 99.5t36 95.5q0 16 -16.5 27t-52.5 24t-48 19q-68 -51 -162 -97q-8 -4 -14 -4q-10 0 -10 13q0 10 14 16q90 42 145 90q-12 12 -12 27q0 33 48.5 85t80.5 52q27 0 27 -19q0 -61 -82 -135q11 -15 39.5 -29t55 -23.5t47 -26t20.5 -35.5q0 -22 -35 -97.5
t-35 -101.5q0 -51 39 -51q87 0 211 26.5t237 63t221.5 77.5t167.5 65.5t72 31.5q8 4 15 4q10 0 10 -12q0 -11 -15 -17q-13 -6 -76 -30t-176.5 -63.5t-229.5 -75t-237.5 -61.5t-197.5 -26q-123 0 -123 88z" />
    <glyph glyph-name="s" unicode="s" horiz-adv-x="1132" vert-adv-y="0" 
d="M201 -61q-228 -30 -228 -70q0 -33 72 -33q59 0 107.5 23t48.5 69v11zM1143 270q-243 -132 -445 -212t-387 -103l-59 -8v-13q0 -61 -61 -94t-136 -33q-59 0 -87.5 22.5t-28.5 57.5q0 39 258 70q-10 36 -43.5 83.5t-68 85t-62 80.5t-27.5 73q0 49 54.5 90t109.5 41
q45 0 45 -15q0 -8 -21.5 -18t-51 -28t-44.5 -42q-8 -13 -8 -28q0 -30 24 -69t53.5 -73t57.5 -81.5t35 -90.5l49 6q370 66 834 324q8 4 14 4q10 0 10 -12q0 -11 -14 -17z" />
    <glyph glyph-name="t" unicode="t" horiz-adv-x="1400" vert-adv-y="0" 
d="M0 295q158 72 303 184q44 70 148 209q-78 -5 -166.5 -11t-134.5 -9.5t-52 -3.5t-11 4.5t-5 9.5q0 8 10 8q243 30 389 41q110 134 206 228t122 94q27 0 27 -58q0 -34 -205 -252q282 19 557 19q84 0 84 -29q0 -18 -25 -18q-5 0 -73.5 3t-102.5 3q-103 0 -481 -21
q-39 -43 -133 -137q-264 -358 -264 -559q0 -80 122 -80q105 0 285 53t372.5 134t281.5 120.5t147 67.5q8 4 14 4q10 0 10 -12q0 -11 -14 -17q-23 -11 -90.5 -42.5t-210 -92t-280 -111t-286.5 -89.5t-243 -39q-88 0 -131 25t-43 95q0 162 139 404q-135 -95 -256 -150
q-8 -4 -14 -4q-10 0 -10 13q0 10 14 16z" />
    <glyph glyph-name="u" unicode="u" horiz-adv-x="1636" vert-adv-y="0" 
d="M602 246q0 12 16.5 24.5t30.5 12.5t24.5 -7t10.5 -18q0 -5 -4.5 -14t-5.5 -15q-4 -20 -25.5 -67.5t-21.5 -69.5q0 -44 31.5 -68t109.5 -24q121 0 401 102t467 193q8 4 15 4q10 0 10 -12q0 -11 -14 -17q-220 -100 -494.5 -194t-427.5 -94q-87 0 -120.5 33t-33.5 94
q0 24 9 45q-83 -44 -190 -77.5t-157 -33.5q-79 0 -79 84q0 27 19.5 87t19.5 77q0 37 -19 37q-23 0 -64 -14.5t-70 -29.5l-30 -14q-8 -4 -14 -4q-10 0 -10 13q0 10 14 16q114 55 188 55q82 0 82 -63q0 -20 -21.5 -75t-21.5 -77q0 -55 25 -55q55 0 165.5 33.5t172.5 74.5
q12 40 12 58z" />
    <glyph glyph-name="v" unicode="v" horiz-adv-x="1384" vert-adv-y="0" 
d="M455 227q37 82 37 135q0 48 -29 48q-15 0 -26 -12t-11 -33q0 -78 29 -138zM0 295q118 55 176 55q47 0 65.5 -20.5t18.5 -59.5q0 -2 -25.5 -128t-25.5 -175q0 -37 14 -37q29 0 96.5 82t116.5 178q-41 38 -63.5 84t-22.5 86q0 42 23 66.5t71 24.5q72 0 72 -95
q0 -73 -41 -163q70 -91 242 -91q115 0 271 43.5t247 81.5t149 68q8 4 15 4q10 0 10 -12q0 -11 -14 -17q-113 -60 -309 -124t-361 -64q-151 0 -262 86q-52 -104 -128 -185t-120 -81q-70 0 -70 131q0 54 19.5 149.5t19.5 118.5q0 25 -14 25q-26 0 -54 -9.5t-64 -26.5t-42 -20
q-8 -4 -14 -4q-10 0 -10 13q0 10 14 16z" />
    <glyph glyph-name="w" unicode="w" horiz-adv-x="1636" vert-adv-y="0" 
d="M223 -80q-80 0 -80 84q0 48 25 152.5t25 134.5q0 37 -19 37q-23 0 -64 -14.5t-70 -29.5l-30 -14q-8 -4 -14 -4q-10 0 -10 13q0 10 14 16q114 55 188 55q82 0 82 -63q0 -38 -26.5 -137t-26.5 -138q0 -55 25 -55q24 0 78.5 56t97.5 124q3 23 8 55.5t7.5 51t2.5 26.5
q0 12 16.5 24.5t30.5 12.5q19 0 19 -18q0 -13 -2.5 -26.5t-8.5 -34.5t-8 -29q-32 -139 -32 -211q0 -58 24 -58q29 0 91 75t114 169q-38 38 -59 85.5t-21 88.5q0 46 24 74.5t72 28.5q72 0 72 -95q0 -69 -39 -159q72 -101 219 -101q91 0 206 25.5t216.5 63.5t165.5 65t100 45
q8 4 15 4q10 0 10 -12q0 -11 -14 -17q-57 -29 -161 -69.5t-270 -82.5t-290 -42q-128 0 -219 74q-53 -98 -126.5 -173t-113.5 -75q-59 0 -59 112q0 10 1 30t1 30q-49 -64 -104 -109t-83 -45zM707 231q36 77 36 131q0 48 -28 48q-15 0 -26 -12t-11 -33q0 -74 29 -134z" />
    <glyph glyph-name="x" unicode="x" horiz-adv-x="1388" vert-adv-y="0" 
d="M1399 270q-35 -18 -116.5 -53.5t-216 -88.5t-281.5 -90.5t-250 -37.5q-203 0 -281 109q-19 -12 -53.5 -36.5t-63.5 -43.5t-57 -33q-8 -4 -12 -4q-9 0 -17 4t-8 8q0 5 6 8q24 19 54.5 39.5t70 46t62.5 41.5q-29 63 -29 146q0 41 -39 41q-26 0 -54 -9.5t-62.5 -26.5
t-41.5 -20q-8 -4 -14 -4q-10 0 -10 13q0 10 14 16q113 55 172 55q96 0 96 -63q0 -62 19 -111q99 80 141 141q6 9 14 9q9 0 18 -12t9 -23q0 -9 -6 -15q-61 -68 -160 -135q67 -114 262 -114q88 0 205 27.5t204.5 58t198.5 80t140 64t76 38.5q8 4 14 4q10 0 10 -12
q0 -11 -14 -17z" />
    <glyph glyph-name="y" unicode="y" horiz-adv-x="1372" vert-adv-y="0" 
d="M281 -203l41 27q41 74 133 258q7 14 15.5 35t10.5 26q-59 -43 -135.5 -70.5t-134.5 -27.5q-76 0 -76 43q0 26 27.5 95.5t27.5 103.5q0 39 -26 39q-18 0 -44 -8t-45 -16.5t-41.5 -19.5t-23.5 -12q-8 -4 -14 -4q-10 0 -10 13q0 10 14 16q122 55 195 55q71 0 71 -49
q0 -10 -23.5 -80t-23.5 -102q0 -39 33 -39q42 0 103.5 27t110.5 66t56 71q10 45 23 45q59 0 59 -49q0 -13 -14.5 -47t-33.5 -73t-24 -52q-41 -101 -96 -199q207 102 556 257t380 169q8 4 14 4q11 0 11 -12q0 -11 -15 -17q-73 -35 -254.5 -112.5t-370 -163.5t-343.5 -170
q-97 -172 -217 -341.5t-224.5 -280.5t-150.5 -111q-41 0 -41 51q0 172 135.5 339t364.5 316zM291 -231q-204 -142 -345 -323.5t-141 -303.5q0 -19 13 -19q48 0 188.5 196t284.5 450z" />
    <glyph glyph-name="z" unicode="z" horiz-adv-x="1206" vert-adv-y="0" 
d="M496 -139q-330 -256 -330 -514q0 -54 43 -54q88 0 160 64t109.5 161.5t37.5 202.5q0 79 -20 140zM487 -117q-36 91 -113.5 145t-195.5 54q-12 0 -24.5 11.5t-12.5 17.5q0 12 68.5 50t137.5 81.5t69 68.5q0 49 -70 49q-103 0 -336 -90q-8 -4 -14 -4q-10 0 -10 13
q0 10 14 16q44 23 95.5 46t146 54t155.5 31q109 0 109 -94q0 -51 -55.5 -110t-126.5 -89q170 -35 229 -203q71 50 149 98.5t160 92.5t132 70t128 63.5t84 40.5q8 4 15 4q10 0 10 -12q0 -11 -14 -17q-19 -9 -114.5 -55t-168.5 -82.5t-181 -99t-194 -123.5q16 -66 16 -129
q0 -125 -47 -247t-134 -204t-189 -82q-80 0 -80 90q0 268 362 545z" />
    <glyph glyph-name="braceleft" unicode="{" horiz-adv-x="1042" vert-adv-y="0" 
d="M164 -365q0 -13 -18.5 -16t-24.5 8q-80 163 -80 271q0 54 24.5 108t53.5 89t53.5 75.5t24.5 71.5q0 34 -60 84q-4 4 -4 12q0 26 21 33q110 48 122 86q25 63 38.5 137t37.5 139q15 39 44 79t67 75t68 59.5t66.5 51.5t43.5 32q29 23 49 23q15 0 15 -13q0 -18 -35 -43
q-42 -30 -67 -49t-67 -54.5t-70 -69.5t-40 -66q-12 -33 -22.5 -105.5t-36.5 -142.5q-8 -22 -29 -46t-63.5 -62.5t-59.5 -55.5q2 -7 10 -28.5t12.5 -38.5t4.5 -31q0 -50 -16 -93.5t-38.5 -76t-45 -64.5t-38.5 -73.5t-16 -87.5q0 -68 74 -207q2 -4 2 -11z" />
    <glyph glyph-name="bar" unicode="|" horiz-adv-x="858" vert-adv-y="0" 
d="M-201 -864q0 78 130 395.5t293.5 659.5t316.5 616t194 274q29 0 45.5 -26t16.5 -49q0 -10 -57 -98.5t-158 -255t-218.5 -378t-261 -522t-264.5 -633.5q-5 -16 -18 -16q-7 0 -13 10.5t-6 22.5z" />
    <glyph glyph-name="braceright" unicode="}" horiz-adv-x="1196" vert-adv-y="0" 
d="M500 1036q0 13 18 16t23 -8q82 -156 82 -270q0 -54 -24.5 -108t-53.5 -89t-53.5 -75.5t-24.5 -71.5q0 -38 59 -84q4 -4 4 -12q0 -26 -20 -33q-111 -51 -125 -86q-23 -62 -36 -136t-38 -140q-18 -48 -62.5 -100.5t-81 -83.5t-88 -70t-56.5 -43q-29 -23 -50 -23
q-14 0 -14 12q0 18 35 43q40 29 66.5 49t68 55t69.5 69.5t40 66.5q12 33 22.5 105.5t36.5 142.5q8 22 29 46t63.5 62.5t59.5 55.5q-2 7 -10 28.5t-12.5 38.5t-4.5 31q0 50 16 93.5t38.5 76t44.5 64.5t38 73.5t16 87.5q0 70 -73 207q-2 4 -2 10z" />
    <glyph glyph-name="asciitilde" unicode="~" horiz-adv-x="1460" vert-adv-y="0" 
d="M434 481q37 0 67.5 -21t52.5 -50.5t43.5 -59t51 -50.5t64.5 -21q41 0 99 37.5t153 123.5q6 6 12 6q8 0 8 -10t-4 -12q-227 -197 -336 -197q-35 0 -67 22t-56 53.5t-46 63.5t-45 54t-44 22q-37 0 -83.5 -27.5t-81 -60.5t-65 -60.5t-40.5 -27.5q-4 0 -4 6q0 11 28.5 43.5
t72 70t104.5 66.5t116 29z" />
  </font>
</defs>
</svg>
