<?xml version="1.0" standalone="no"?>
<!DOCTYPE svg PUBLIC "-//W3C//DTD SVG 1.1//EN" "http://www.w3.org/Graphics/SVG/1.1/DTD/svg11.dtd" >
<svg xmlns="http://www.w3.org/2000/svg" xmlns:xlink="http://www.w3.org/1999/xlink" version="1.1">
<metadata>
Created by FontForge 20170731 at Wed Dec  1 09:41:04 2021
 By Aleksey,,,
Copyright (c) 2021 by Octotype. All rights reserved.
</metadata>
<defs>
<font id="AstralSisters" horiz-adv-x="300" >
  <font-face 
    font-family="Astral Sisters"
    font-weight="400"
    font-stretch="normal"
    units-per-em="750"
    panose-1="0 0 0 0 0 0 0 0 0 0"
    ascent="562"
    descent="-188"
    x-height="289"
    cap-height="584"
    bbox="-355 -354 957 746.68"
    underline-thickness="50"
    underline-position="-150"
    unicode-range="U+0020-FB02"
  />
<missing-glyph horiz-adv-x="147" 
 />
    <glyph glyph-name=".notdef" horiz-adv-x="147" 
 />
    <glyph glyph-name=".null" horiz-adv-x="0" 
 />
    <glyph glyph-name="nonmarkingreturn" horiz-adv-x="250" 
 />
    <glyph glyph-name="space" unicode=" " horiz-adv-x="147" 
 />
    <glyph glyph-name="exclam" unicode="!" horiz-adv-x="96" 
d="M59 -15q-5 -6 -20 -6.5t-22 4.5q-5 4 -5.5 10t1.5 27q2 27 5.5 34.5t17.5 7.5t19 -9t7 -33q2 -19 1.5 -25.5t-4.5 -9.5zM31 96q-8 3 -10 15v31.5t1 70.5t1.5 91.5t1.5 93.5t2 77t2 42q1 11 3 21t10 11q10 1 21.5 -6.5t16.5 -19.5q4 -8 4.5 -21.5t0.5 -47.5
q0 -14 -1 -42.5t-3 -64.5t-4 -74.5t-4.5 -72t-4.5 -57t-3 -28.5q-2 -8 -14 -14.5t-20 -4.5z" />
    <glyph glyph-name="numbersign" unicode="#" horiz-adv-x="434" 
d="M377 220h33.5t9.5 -11q0 -4 -1 -6t-6.5 -3.5t-18.5 -3t-37 -3.5l-27 -2l2 -52q1 -24 3.5 -47t5.5 -39q5 -25 5.5 -30t-4.5 -9q-11 -8 -27 3q-5 2 -10 7t-7 9q-5 10 -10 39t-10 71l-4 46h-41q-17 0 -31 -1t-16 -3q-3 -2 -3 -18t2 -36.5t5 -41.5t8 -33q6 -21 4.5 -26.5
t-13.5 -5.5q-25 0 -39.5 30.5t-21.5 96.5q-2 13 -2.5 22.5t-1.5 10.5q-1 0 -11.5 -0.5t-24.5 -2t-28.5 -2.5t-23.5 -2q-13 -2 -16 -1t-6 8q-5 8 1 13q5 5 29 8.5t48 3.5q13 0 19.5 0.5t9.5 5.5t3.5 17t0.5 35v53l-23 -2q-27 -3 -41 -4t-20 -1t-7 1.5t-2 4.5q-5 9 0.5 13.5
t29.5 8.5q12 2 26 4.5t21 3.5l18 2l2 33q10 135 23 143q5 3 18 1t20 -9q9 -9 7 -24.5t-4 -38.5t-3.5 -45.5t-2.5 -31.5l-1 -22h28q12 0 25.5 0.5t20.5 1.5l18 3l3 22q5 55 9.5 94.5t7.5 54.5q3 14 6.5 19.5t11.5 5.5q5 0 13 -3q17 -5 20.5 -18t-1.5 -54q-2 -11 -3 -32
t-3 -41l-2 -50l38 2q11 1 24 2t16 -8q4 -10 -3 -13t-37 -5q-14 -1 -24.5 -2t-12.5 -3q-1 -1 -3 -17.5t-3.5 -37t-2 -37.5t0.5 -19q0 -1 13.5 -1.5t30.5 -0.5zM276 332l-32 -1q-14 -1 -27 -2t-19 -3l-13 -1l-1 -55l-1 -55l46 1q18 2 31.5 2.5t14.5 0.5q0 1 0.5 17.5t0.5 39.5
v56z" />
    <glyph glyph-name="dollar" unicode="$" horiz-adv-x="323" 
d="M236 586q8 3 19.5 2.5t22 -3t19.5 -7t12 -10.5q3 -7 0 -11t-15 -11q-8 -5 -11.5 -5t-7.5 3q-5 4 -3 9q1 4 -6.5 1.5t-18 -8.5t-21.5 -13.5t-16 -13.5q-3 -3 -4.5 -7t-3 -13t-2.5 -25t-3 -42q-6 -88 -9.5 -141.5t-1.5 -56.5q1 -1 11 -5q8 -2 19 -6.5t21.5 -10t19.5 -12
t14 -10.5q14 -14 15 -29.5t-9 -30t-31 -27t-50 -20.5l-15 -4v-29v-17q0 -8 -2.5 -10t-7.5 -2t-8.5 1.5t-3.5 2.5q0 2 -1 9t-2 15q-1 9 -1.5 15t-1.5 7q-1 2 -8 1t-16 -3q-38 -6 -67 -1t-40 19q-9 10 -9.5 18.5t7.5 8.5q15 0 18 -14q2 -3 3.5 -7t2.5 -6q4 -5 28.5 -4t50.5 8
l30 7v61v61l-16 6q-35 14 -62.5 34t-37.5 41q-7 14 -7.5 38t7.5 44q7 21 19.5 44t28 44.5t33 40t34.5 30.5q8 6 13.5 11.5t6.5 7.5t2.5 12.5t2.5 22.5q4 20 6 28t7 9q1 0 7 -2q8 -2 9 -6t2 -22l1 -25l9 3q4 0 9 1.5t9 3.5zM160 404q2 27 2.5 47t-0.5 20q-1 1 -7.5 -7
t-15 -20t-16.5 -26t-13 -24q-48 -100 23 -138q6 -3 12 -5t8 -3q2 0 3 10t1 35q1 19 1.5 51.5t1.5 59.5zM186 206q-1 -1 -2 -15.5t-1.5 -31.5t-0.5 -31t1 -14t6 3t11 8q19 13 28.5 28.5t4.5 26.5q-1 3 -7.5 7.5t-14 9t-14.5 7.5t-10 3z" />
    <glyph glyph-name="percent" unicode="%" horiz-adv-x="429" 
d="M344 244q13 -6 25 -17.5t17 -25.5q4 -12 4.5 -28.5t-2.5 -33t-10 -32t-16 -26.5q-15 -18 -41.5 -25.5t-48.5 0.5q-40 15 -50 64q-3 17 0 35.5t11 35.5t21 30.5t28 20.5q7 2 15 4t16 2t16.5 -1t14.5 -3zM366 161q1 15 -3 34.5t-21 30.5h-4q-14 1 -29.5 -13.5t-26.5 -38.5
q-6 -14 -8.5 -29t-1 -28.5t6.5 -24.5t13 -17q7 -5 14 -3.5t19 11.5q38 27 41 78zM67 397q-14 5 -23 12t-17 19q-12 19 -10.5 45.5t10.5 50.5q3 8 10 18t12 15q14 17 33.5 24.5t39.5 7.5q19 -1 35.5 -9.5t26.5 -25.5q8 -14 10 -30.5t-1.5 -33.5t-11 -34t-18.5 -31
q-17 -23 -44 -30t-52 2zM107 554q-14 -13 -22.5 -31.5t-11.5 -37.5t0.5 -36t13.5 -27q7 -8 14 -7.5t21 9.5q15 9 26.5 26t17 35.5t4 37t-10.5 32.5q-10 16 -22 16q-11 0 -30 -17zM398 594q11 -2 13 -9q2 -3 2 -5.5t-7 -13t-23 -32.5t-47 -63q-24 -31 -42 -56t-36.5 -51
t-39.5 -58t-51 -77q-33 -51 -56 -85.5t-38 -55.5t-22.5 -30t-9.5 -9q-8 0 -13 5q-5 4 -4.5 6.5t7.5 16.5q21 38 49 83.5t59 93.5t64 96.5t64 91.5t58.5 78t47.5 58q15 16 20 17q2 0 3 -0.5t2 -0.5z" />
    <glyph glyph-name="ampersand" unicode="&#x26;" horiz-adv-x="410" 
d="M312 -6q-16 8 -33 22.5t-31 31.5l-14 16l-15 -10q-9 -6 -22 -12.5t-27.5 -13.5t-28.5 -12t-24 -8q-32 -8 -58.5 -1.5t-35.5 26.5q-5 10 -4.5 25t5 33t13 37t20.5 38q5 9 18.5 26t26.5 34l31 38l-12 33q-63 192 51 245q9 5 21 7t24 3q12 0 23 -1.5t17 -5.5q17 -9 26.5 -30
t10.5 -50q0 -17 -2.5 -26t-11.5 -28q-5 -11 -14 -25.5t-20 -30t-22.5 -31t-22.5 -27.5l-14 -17l14 -35q6 -14 14 -30.5t15.5 -30.5t13.5 -24t8 -12q4 -2 10.5 6.5t17.5 28.5q6 12 8 19.5t1 18.5q-1 12 0 15t6 4q3 0 8 -1t8 -5q11 -16 10 -34.5t-9 -38.5q-4 -9 -10 -19.5
t-11 -17.5l-11 -15l11 -16q23 -32 49 -52.5t45 -20.5q22 0 4 -16q-33 -30 -77 -10zM163 503q-3 -6 -5 -10.5t-2.5 -11t-1 -16t-0.5 -25.5q0 -28 1.5 -44t6.5 -35q6 -24 8.5 -31t4.5 -7q3 5 7 11q3 5 7.5 11.5t9.5 14.5q10 15 21 35t17 34q14 28 16 46.5t-6 39.5
q-5 13 -11.5 17t-20.5 4q-17 0 -31 -9t-21 -24zM205 93q2 2 2.5 4t-1.5 7t-6.5 14.5t-12.5 25.5q-10 20 -19 39.5t-13 27.5l-9 21l-23 -31q-29 -40 -42.5 -73.5t-8.5 -59.5q3 -29 16 -36q12 -3 44 12q6 3 15 8.5t19 12.5t20.5 14.5t18.5 13.5z" />
    <glyph glyph-name="quotesingle" unicode="'" horiz-adv-x="80" 
d="M111 554q9 -1 15 -3t9 -7t4 -15t1 -26q0 -23 -1.5 -32t-5.5 -17q-8 -13 -19 -13q-9 -2 -10.5 0t-1.5 10v31q0 26 -1 36t-5 17q-6 11 -2.5 15t17.5 4z" />
    <glyph glyph-name="parenleft" unicode="(" horiz-adv-x="237" 
d="M200 -74q-16 -12 -51 7q-48 26 -78.5 78.5t-41.5 130.5q-14 90 1 178.5t56 157.5q14 24 31.5 44t35 33t33.5 18.5t28 0.5q19 -9 -1 -20q-47 -23 -80 -89.5t-44 -162.5q-8 -66 -3.5 -128t19.5 -111.5t39 -81.5t54 -38q17 -5 2 -17z" />
    <glyph glyph-name="parenright" unicode=")" horiz-adv-x="242" 
d="M209 352q9 -56 6 -112.5t-16.5 -108t-36 -95t-52.5 -74.5q-27 -26 -50.5 -37t-38.5 -3q-18 8 4 18q46 23 79 90t45 162q8 66 3.5 128t-19.5 111.5t-39 81.5t-54 39q-9 1 -9.5 6t7.5 11q9 5 19.5 4t28.5 -10q48 -24 80 -78.5t43 -132.5z" />
    <glyph glyph-name="asterisk" unicode="*" horiz-adv-x="186" 
d="M31 440q-16 0 -11 10.5t29 30.5l20 16l-21 11q-18 9 -26 17t-3 10q5 4 15.5 2.5t20.5 -8.5q5 -4 9.5 -7t5.5 -3q2 0 3 9t1 22q1 21 2 26t8 8q6 4 19 2q7 -2 8 -6t1 -24v-25l17 12q11 8 22 10.5t11 -2.5q0 -2 -7.5 -9t-18.5 -16q-10 -8 -17.5 -15.5t-7.5 -9.5t6 -5
t14.5 -7.5t18.5 -8.5t18 -7q8 -2 8 -5q0 -11 -40 2q-10 4 -18 6t-9 2t-1.5 -10t0.5 -24t0.5 -24t-1.5 -11q-6 -2 -10.5 -0.5t-9.5 3.5q-4 3 -5 11.5t-3 23.5l-3 29l-18 -18q-10 -9 -16 -13.5t-11 -4.5z" />
    <glyph glyph-name="plus" unicode="+" horiz-adv-x="257" 
d="M146 222q-1 -15 -1.5 -31t0.5 -24q2 -11 1 -15.5t-5 -6.5q-11 -7 -21 0q-8 5 -21 81l-4 27l-39 3q-21 0 -30.5 2t-11.5 5q-3 4 -1.5 12t6.5 13q4 4 22 7.5t35 3.5h16l3 33q2 26 6 48.5t9 27.5q2 2 8 3t12.5 0t12.5 -2.5t9 -4.5q4 -5 5 -9t-1 -18q-2 -8 -3.5 -23t-2.5 -26
l-2 -29l50 2q19 1 29 1.5t14.5 0t5.5 -1.5t1 -4q0 -10 -6.5 -19.5t-15.5 -12.5q-5 -2 -17.5 -3t-26.5 -3l-33 -2z" />
    <glyph glyph-name="comma" unicode="," horiz-adv-x="92" 
d="M30 10q-5 2 -5 3.5t8 15.5t8.5 20t-7.5 6q-10 0 -17 6.5t-7 15.5q0 16 14.5 26t33.5 7q13 -3 18 -12t3 -28q-2 -26 -17 -44.5t-32 -15.5z" />
    <glyph glyph-name="hyphen" unicode="-" horiz-adv-x="326" 
d="M72 101q-6 4 -5 18.5t8 20.5q6 5 34 7t92 3q19 1 29 0.5t14.5 -1.5t5.5 -3.5t1 -5.5q0 -25 -22 -31q-5 -2 -22 -3t-37 -3q-20 -1 -40.5 -2t-30.5 -1q-9 -1 -17 -0.5t-10 1.5z" />
    <glyph glyph-name="period" unicode="." horiz-adv-x="102" 
d="M34 54q-17 7 -17 26.5t17 30.5q8 5 20.5 6.5t21.5 -1.5q5 -2 10 -12t5 -18q0 -9 -6.5 -18.5t-15.5 -13.5q-11 -5 -17.5 -5t-17.5 5z" />
    <glyph glyph-name="slash" unicode="/" horiz-adv-x="306" 
d="M35 -65q-3 -8 -11 -12t-13 -1q-1 1 -2 3.5t1 3.5q1 5 9 32t19 61t22.5 67.5t18.5 52.5q3 11 8.5 27.5t11.5 35t12.5 37.5t12.5 36q29 88 53 158.5t41.5 120t28 77t13.5 29.5q15 12 29 6q7 -3 7 -8t-2 -13q-2 -6 -5.5 -18t-12 -35.5t-22.5 -61.5t-36 -98
q-6 -16 -14.5 -40.5t-19 -53t-21 -59.5t-20.5 -59q-15 -43 -31 -87.5t-30.5 -84t-27 -70.5t-19.5 -46z" />
    <glyph glyph-name="zero" unicode="0" horiz-adv-x="322" 
d="M241 25q-22 -27 -55 -41.5t-61 -9.5q-35 7 -60 40.5t-38.5 83.5t-14 111.5t14.5 124.5q16 65 48.5 111.5t72.5 60.5q8 2 15.5 4t16.5 2q23 2 44 -8t35 -29q26 -32 39 -83.5t14 -110t-11 -116.5t-37 -104q-5 -9 -11.5 -20t-11.5 -16zM187 10q27 18 51 66t35 109
q4 16 6 39.5t2.5 48t-0.5 46.5t-4 37q-12 60 -36.5 98.5t-53.5 38.5q-15 0 -35.5 -22.5t-37.5 -57.5q-20 -44 -30.5 -94t-10.5 -106q0 -63 12.5 -111t37.5 -75q32 -38 64 -17z" />
    <glyph glyph-name="one" unicode="1" horiz-adv-x="150" 
d="M139 507q5 -11 2 -52t-13 -110q-16 -117 -22.5 -199.5t-1.5 -125.5q2 -15 3.5 -27.5t3.5 -15.5q5 -8 2.5 -10.5t-14.5 -2.5q-8 0 -14.5 2t-14.5 8q-6 5 -11.5 10.5t-7.5 9.5q-9 17 -11 59.5t2 100t13.5 126.5t24.5 138q4 20 7.5 34.5t3.5 15.5q0 2 -3.5 -2t-8.5 -10
q-5 -8 -12 -20t-13.5 -24.5t-11.5 -23.5t-6 -17q-3 -20 -21 -5q-6 5 -6.5 8t3.5 17q5 17 19 42.5t33 51.5q17 25 26 34t17 9q10 0 19 -6t13 -15z" />
    <glyph glyph-name="two" unicode="2" horiz-adv-x="343" 
d="M302 5q-2 -3 -21 -3q-20 0 -50.5 -2t-63 -6t-62 -8.5t-48.5 -8.5q-14 -4 -19 -4t-12 4q-11 5 -15 12q-3 5 2 10.5t29 19.5q25 15 55.5 43t60.5 61t55 68.5t39 66.5q10 24 19.5 50t14.5 52.5t4 52t-13 46.5q-4 7 -9.5 14t-12.5 9q-23 10 -47.5 6.5t-47 -14.5t-41.5 -27.5
t-31 -31.5q-22 -30 -30.5 -51.5t-8.5 -44.5q0 -20 -3 -23.5t-11 4.5q-11 10 -9 37.5t13 54.5q14 30 34 54.5t43 41.5t48.5 25.5t51.5 6.5q21 -2 40 -12t35 -27t26.5 -39t14.5 -47q9 -56 -7.5 -114t-56.5 -115q-9 -13 -25.5 -31.5t-35.5 -38t-37.5 -37t-31.5 -26.5l-24 -19
l14 3q5 1 30 2t56 2q26 1 41 1t22.5 -0.5t11 -2t6.5 -4.5q11 -6 7 -10z" />
    <glyph glyph-name="three" unicode="3" horiz-adv-x="348" 
d="M306 227q29 -38 33 -81t-13 -77q-14 -29 -39.5 -51.5t-57 -36.5t-65 -18t-64.5 4q-25 8 -47 18t-32 20q-14 13 -11 19t17 -5q6 -4 16.5 -8t23 -7t24.5 -4t21 0q20 2 48 11.5t48 21.5q21 12 38.5 30t29.5 38t18 40.5t3 38.5q-6 41 -38.5 58t-96.5 8q-12 -2 -18.5 -3.5
t-10.5 -1.5t-7.5 2t-7.5 8q-8 8 -5.5 12.5t22.5 14.5q48 26 87 65t62 81q5 9 8.5 18.5t3.5 14.5q0 8 -2.5 10.5t-11.5 6.5q-14 5 -36 5t-42 -5t-40 -14.5t-37 -20t-27.5 -21.5t-10.5 -19q0 -5 -3.5 -5t-8.5 5q-16 16 3 41t64 48q29 14 56 20.5t51 4.5q26 -2 41.5 -12
t29.5 -35q13 -23 10 -47.5t-12 -43.5q-6 -11 -15.5 -24t-21 -25t-24 -21.5t-23.5 -15.5l-20 -11l20 -4q41 -8 70 -47z" />
    <glyph glyph-name="four" unicode="4" horiz-adv-x="306" 
d="M291 503q3 -3 5 -8t2 -17t-2 -33.5t-5 -56.5q-7 -71 -11 -137.5t-5.5 -120.5t-0.5 -91t5 -49q5 -16 3 -21t-13.5 -4.5t-21.5 6.5q-5 2 -9.5 7t-6.5 9q-8 14 -12.5 44.5t-5.5 68.5l-3 50l-14 -2q-5 -1 -32 -6.5t-59 -12.5q-25 -6 -40.5 -9t-24.5 -4.5t-13.5 -1.5t-7.5 2
q-10 3 -10 6q0 2 5 13t11 26q8 14 15 33.5t9 30.5q4 19 9.5 46.5t10 59t9 64t7.5 61.5q3 40 9 48t23 -3q7 -4 11 -9t5.5 -14t2 -23t-0.5 -35q-2 -62 -17.5 -123.5t-41.5 -112.5q-8 -17 -14.5 -30.5t-7.5 -14.5q0 -2 9 0t23 5q14 4 37.5 8.5t42.5 8.5l46 7v26q0 32 4 80
t10 95t12.5 85t11.5 49t17.5 11t23.5 -11z" />
    <glyph glyph-name="five" unicode="5" horiz-adv-x="328" 
d="M269 48q-30 -44 -79 -65t-97 -11q-23 5 -46.5 16.5t-29.5 20.5q-5 7 -4.5 11.5t5 5t11.5 -2t15 -9.5q13 -11 30.5 -17.5t36.5 -6.5q22 0 46.5 12.5t38.5 30.5q25 32 35.5 64t7.5 70q-2 36 -12 56.5t-30 28.5q-10 3 -15 3t-20 -3q-21 -6 -42 -17.5t-37 -25.5
q-14 -13 -23 -14.5t-19 6.5q-6 4 -8 11.5t-3 37.5q-1 18 -1 49t0.5 65t1.5 64.5t2 45.5t3.5 23.5t9 11t20.5 0.5t38 -6q39 -8 79 -6t77 12q17 5 27 7.5t15.5 2.5t7.5 -2.5t4 -6.5q7 -18 -6 -27t-54 -16q-53 -9 -104 -1q-11 2 -22.5 3t-18.5 3l-17 1v-111v-113l6 3q3 2 7 3.5
t9 3.5q23 11 44 14t43 -2q78 -15 97 -91q17 -67 -29 -132z" />
    <glyph glyph-name="six" unicode="6" 
d="M70 17q-18 19 -31.5 48t-21.5 63q-9 42 -5 88.5t17.5 91.5t36 85t52.5 68q26 24 50.5 36t57.5 17q5 1 10 1h10q31 0 42 -12q6 -6 4 -8.5t-10 2.5q-7 5 -22 2.5t-29 -9.5q-8 -4 -19.5 -13.5t-24 -22t-24.5 -25.5t-20 -25q-17 -25 -34 -61t-25 -63q-8 -25 -10 -65l-2 -40
l13 24q12 23 25 36.5t33 23.5q20 11 43.5 12t46.5 -12q42 -23 52.5 -69.5t-10.5 -112.5q-11 -34 -29.5 -60.5t-38.5 -37.5q-14 -6 -36.5 -6.5t-39.5 4.5q-20 7 -32.5 15t-28.5 25zM95 154q-6 -17 -7.5 -26.5t0.5 -25.5q1 -16 6.5 -32t13.5 -30t18.5 -24.5t22.5 -16.5
q11 -6 21 -4.5t25 10.5q11 7 23 23.5t20 33.5q7 18 11.5 40t5.5 44t-1.5 42t-9.5 34q-8 18 -18 25t-27 7q-32 0 -59.5 -26t-44.5 -74z" />
    <glyph glyph-name="seven" unicode="7" horiz-adv-x="316" 
d="M290 519q9 -4 12.5 -9t-0.5 -17t-15.5 -34.5t-33.5 -61.5q-31 -54 -59 -106t-51.5 -98t-41.5 -84.5t-29 -65.5q-8 -20 -10.5 -31.5t-3.5 -25.5q0 -14 0.5 -18.5t-13.5 -6.5q-6 -1 -12 0.5t-9 3.5q-8 6 -13 17t-5 23q0 10 5 30t13.5 45.5t20 54t25.5 55.5q14 30 34.5 69
t42.5 77t43.5 72.5t37.5 55.5q8 11 13 19t4 9t-8 -0.5t-18 -3.5q-29 -6 -60.5 -8.5t-60 -1.5t-50 5t-30.5 11q-4 2 -6.5 5t-0.5 4q1 2 16.5 2.5t37.5 -0.5q45 -2 92.5 1.5t88.5 11.5q24 5 30.5 5t13.5 -4z" />
    <glyph glyph-name="eight" unicode="8" horiz-adv-x="332" 
d="M308 74q-7 -17 -21.5 -33.5t-33 -29.5t-39 -22.5t-40.5 -13.5q-20 -5 -43 -4t-39 6q-64 23 -79 92q-11 51 5.5 97t63.5 94l25 26l-13 11q-63 53 -25 129q20 38 54 58.5t69 21.5q28 0 50.5 -12.5t34.5 -38.5q7 -17 7 -39.5t-5.5 -47t-16 -47.5t-25.5 -39q-12 -14 -12 -17
q2 -2 6 -4q3 -2 6 -4.5t8 -4.5q20 -13 37.5 -31.5t26.5 -36.5q14 -25 13 -53.5t-14 -56.5zM157 461q-20 -18 -31 -41t-11 -45q0 -23 5 -35t22 -26q6 -5 14.5 -11.5t17 -12t15.5 -9.5t9 -4q3 0 9 11q18 28 28 57.5t13 55.5t-2.5 46.5t-18.5 31.5q-11 8 -23 6q-22 0 -47 -24z
M247 82q11 23 11.5 49.5t-11.5 52.5q-9 21 -28 36t-55 33l-42 22l-19 -21q-56 -60 -60 -126q-5 -69 36 -110q21 -20 43.5 -22t51.5 13q22 12 43 33t30 40z" />
    <glyph glyph-name="nine" unicode="9" horiz-adv-x="293" 
d="M283 249q-5 -50 -15 -94t-25.5 -78.5t-35 -59t-41.5 -34.5q-22 -11 -48 -15t-61 8q-12 4 -13.5 9.5t7.5 10.5q10 3 19 -2q5 -3 10.5 -4.5t10.5 -1.5q11 0 29.5 9t26.5 20q9 10 18 29t17.5 43t15.5 51.5t12 55.5q3 19 6 43t4.5 47t2 43t-0.5 30l-2 22l-9 -29
q-15 -57 -37 -97t-45 -53q-12 -7 -31.5 -8t-33.5 5q-17 7 -28.5 26t-16 44.5t-2.5 55.5t13 59q9 26 25 49t35 40.5t40.5 27.5t41.5 10q7 0 18 -2t22 -5t20 -6.5t13 -6.5q9 -8 17.5 -34t13.5 -61.5t7.5 -74.5t-0.5 -72zM179 356q3 10 8 29t9.5 38t7.5 35t3 21q0 8 -10 10
q-6 0 -13 -3q-18 -7 -36 -24.5t-32.5 -41.5t-25 -51.5t-13.5 -54.5q-1 -13 0.5 -28.5t5 -29t7.5 -22.5t9 -9q4 0 13 11q17 17 35 50.5t32 69.5z" />
    <glyph glyph-name="colon" unicode=":" horiz-adv-x="103" 
d="M76 325q5 -2 10 -11.5t5 -17.5q0 -9 -6.5 -18.5t-15.5 -14.5q-11 -5 -17.5 -5t-16.5 5q-17 8 -17.5 27.5t17.5 30.5q5 3 14 5t17 1q4 0 10 -2zM76 119q5 -2 10 -11.5t5 -17.5q0 -9 -6.5 -19t-15.5 -14q-11 -5 -17.5 -5t-16.5 5q-17 8 -17.5 27.5t17.5 30.5q5 3 14 5t17 1
q4 0 10 -2z" />
    <glyph glyph-name="semicolon" unicode=";" horiz-adv-x="101" 
d="M74 325q5 -2 10.5 -11.5t5.5 -17.5q0 -9 -7 -18.5t-16 -14.5q-10 -5 -16.5 -5t-17.5 5q-17 8 -17 27.5t17 30.5q6 3 15 5t17 1q5 0 9 -2zM58 112q24 -3 21 -39q-2 -26 -17 -44.5t-32 -15.5q-5 2 -5 3.5t8 15.5q16 27 1 27q-10 0 -16.5 6t-6.5 15q0 14 11 23.5t26 9.5
q3 1 10 -1z" />
    <glyph glyph-name="less" unicode="&#x3c;" horiz-adv-x="196" 
d="M16 159q-5 8 -2 20.5t12 21.5q4 4 13 10.5t18.5 12.5t17.5 11t11 5q10 1 15 -12t-4 -23q-1 -2 -10.5 -9t-19.5 -13l-26 -19l14 -7q5 -5 14.5 -10t17.5 -10q11 -6 15 -10t4 -9q4 -10 -2 -14q-2 -2 -15 4.5t-28.5 16t-28.5 19.5t-16 15z" />
    <glyph glyph-name="equal" unicode="=" horiz-adv-x="292" 
d="M227 324q20 0 31 -0.5t15.5 -3t5 -6t0.5 -9.5q0 -11 -13 -15.5t-52 -9.5q-15 -2 -40 -3t-50.5 -2t-46.5 -0.5t-27 1.5q-33 9 -33 31q0 4 4 6.5t18 4.5t40.5 3t71.5 2q25 1 43.5 1h32.5zM255 225q5 0 7 -1.5t4 -4.5q6 -8 6 -18q-2 -8 -4.5 -10t-12.5 -7q-8 -2 -22.5 -4.5
t-29.5 -4.5q-18 -2 -43.5 -2.5t-49.5 -0.5t-43.5 1t-25.5 3q-10 3 -18 16q-5 8 -5.5 12.5t7.5 7t26 3.5t51 2q16 0 33.5 0.5t33.5 1.5t29.5 2t21.5 2q15 2 22.5 2.5t12.5 -0.5z" />
    <glyph glyph-name="greater" unicode="&#x3e;" horiz-adv-x="199" 
d="M188 182q5 -8 2 -20.5t-12 -21.5q-4 -4 -13 -10.5t-18.5 -12.5t-17.5 -11t-11 -5q-10 -1 -15 12t4 23q1 2 10.5 9t19.5 13l26 19l-14 7q-5 5 -14.5 10t-17.5 10q-11 6 -15 10t-4 9q-4 10 2 14q2 1 15 -5t28.5 -15.5t28.5 -19.5t16 -15z" />
    <glyph glyph-name="question" unicode="?" horiz-adv-x="366" 
d="M170 -31q-7 -4 -16.5 -3.5t-17.5 4.5q-17 8 -12 40q4 31 21 31q21 0 27 -28q11 -38 -2 -44zM337 516q10 -15 14 -35.5t1 -37.5q-8 -44 -81 -146q-47 -64 -71 -114t-32 -95q-2 -9 -3.5 -11t-11.5 -2q-5 0 -11 1.5t-9 4.5q-4 2 -5 9t-3 29q-1 28 3.5 48t15.5 42q4 7 15 25
t25.5 39l29 42t25.5 35q10 14 17.5 25t13 20t9.5 18.5t8 20.5q10 25 12 46t-10 35q-12 15 -29.5 18.5t-36 -0.5t-37 -12.5t-32.5 -16.5q-12 -6 -24.5 -16t-23.5 -21.5t-20 -23.5t-14 -22q-4 -7 -6 -12t-3 -10t-1 -12v-17q0 -25 -3.5 -29t-19.5 4q-19 10 -21.5 35.5
t11.5 54.5q5 10 14.5 22.5t21 24.5t24 22.5t23.5 16.5q32 19 66.5 29t65.5 10q19 0 37 -5q15 -5 31.5 -16t24.5 -23z" />
    <glyph glyph-name="at" unicode="@" horiz-adv-x="531" 
d="M448 506q44 -43 53.5 -116t-18.5 -155q-24 -72 -59 -89q-10 -6 -29.5 -5.5t-31.5 7.5q-23 12 -36.5 37.5t-18.5 68.5q-2 15 -3 25.5t-2 11.5l-5 -10q-2 -5 -6 -11t-8 -13q-14 -27 -24.5 -44t-19.5 -26.5t-17.5 -13t-20.5 -3.5q-37 0 -51.5 27.5t-1.5 74.5q9 37 35.5 71
t57.5 50q14 7 23.5 9t26.5 2q12 1 22 1t12 2q6 3 18.5 -3t14.5 -13q2 -4 3 -25t2 -48q2 -27 3 -54.5t3 -38.5q3 -23 11 -43.5t14 -20.5q7 0 16 10t18.5 26t18 37t14.5 42q11 43 12 84.5t-12 85.5q-14 46 -46 67.5t-81 25.5q-43 2 -78 -11t-68 -44q-41 -39 -71 -96.5
t-42 -120.5q-8 -39 -4.5 -83t16.5 -79q6 -16 16.5 -32.5t23 -31.5t26.5 -27t27 -19q7 -3 17.5 -5.5t22.5 -3t23.5 0t21.5 2.5q16 4 33.5 11.5t34.5 17.5t31.5 22t25.5 24q13 16 17 12q3 -3 0 -12t-11 -21t-18.5 -25t-22.5 -23q-26 -21 -45 -28t-51 -8q-15 0 -32 1.5t-26 3.5
q-78 16 -131 78q-31 38 -45 77.5t-14 91.5q-1 47 9.5 88t33.5 87q56 112 142 153q14 7 25.5 11.5t23 7t24 3.5t28.5 1q94 -2 150 -56zM246 252q7 12 18 33l22 42t18.5 36.5t6.5 16.5q-1 0 -6 -1.5t-10 -4.5q-26 -13 -50.5 -46t-37.5 -71q-3 -10 -5.5 -20.5t-3 -19.5t0 -15
t2.5 -6t6 4.5t9 9.5q5 6 13.5 18.5t16.5 23.5z" />
    <glyph glyph-name="A" unicode="A" horiz-adv-x="507" 
d="M474 206q11 -4 12 -15q1 -8 -0.5 -9.5t-11.5 -1.5h-13l-1 -24q-4 -142 -7 -212t-5 -76q-4 -14 -14.5 -22t-24.5 -10q-17 -1 -25 5q-5 5 -5.5 9t1.5 18q1 4 1.5 19.5t1.5 38.5t1.5 52t0.5 60l2 149l-79 -2q-33 -1 -65.5 -3t-44.5 -3q-11 -2 -17.5 -3t-9.5 -2.5t-4 -3.5
t-2 -6q-1 -6 -1.5 -26t0 -44.5t1.5 -48t2 -36.5q3 -29 7 -49t9 -30t2.5 -13t-16.5 -3q-17 0 -30 6t-17 15q-5 15 -8 51t-2 95q1 33 1 57t-2 24q-3 0 -10.5 -2.5t-16.5 -6t-17.5 -7t-12.5 -5.5q-11 -6 -15 -17q-6 -18 -16 1q-5 9 -4 21t6 22q8 13 32 24t52 16l12 2l14 56
q6 25 12.5 46.5t13.5 41t15 39t19 40.5q37 75 73 115t67 40q6 0 15.5 -3t19 -8t17.5 -10.5t13 -11.5q28 -33 43 -99.5t18 -173.5l3 -71zM388 254q1 19 1.5 55t-0.5 74t-3 70.5t-4 46.5q-5 29 -12.5 45.5t-16.5 18.5h-8q-15 -2 -31.5 -17.5t-40.5 -48.5q-12 -17 -24.5 -39.5
t-24 -47.5t-21 -51t-15.5 -49q-2 -9 -5 -23l-6 -28t-5 -25.5t-2 -14.5q0 -1 8.5 -1.5t23.5 -0.5t34.5 0.5t41.5 0.5l107 2z" />
    <glyph glyph-name="B" unicode="B" horiz-adv-x="569" 
d="M350 319q76 -5 122.5 -38t57.5 -89q8 -42 -14 -94t-67 -100q-48 -51 -95 -83.5t-107 -44.5q-13 -2 -28.5 -4t-32.5 -3t-33.5 0t-31.5 4q-25 6 -42.5 17t-9.5 16q8 7 27 -7q10 -6 32 -8q9 -1 24 -0.5t29.5 2t25 3.5t10.5 4q0 3 -4 3q-2 0 -4.5 4.5t-5.5 9.5
q-3 6 -7.5 22.5t-10 37t-10 40.5t-6.5 33t-4 36t-3 49t-1 52t1 46q2 35 6 74t9.5 75t11 65.5t10.5 44.5q4 13 7 15.5t11 3.5q12 1 23 -1t17 -8q4 -4 5 -12t-0.5 -17.5t-3.5 -19t-3 -17.5q-8 -54 -14.5 -89.5t-4.5 -37.5q1 -1 7.5 4t15 12t17.5 15.5t15 14.5q19 22 34 46
t25 46.5t15 42.5t3 35q-2 14 -9 19t-24 5q-37 0 -83.5 -16.5t-88 -41.5t-71 -54t-32.5 -53q-3 -14 -10 -14q-19 1 -24 23t7 49q14 29 46.5 56.5t81.5 52.5q83 41 148 39q66 0 106 -46q23 -24 24 -50t-18 -62q-11 -20 -33 -44t-48 -43l-23 -18zM445 124q18 54 7.5 94
t-48.5 60q-29 15 -65 13t-73 -10q-10 -2 -18 -4t-11 -2q-2 0 -3.5 -2t-3 -10.5t-3 -25t-3.5 -45.5q-2 -27 -1.5 -66.5t3 -80t6.5 -75.5t9 -53q4 -14 -1 -17q-8 -5 0 -2.5t22 10.5q24 12 45 27t43 36q32 31 55 67.5t40 85.5z" />
    <glyph glyph-name="C" unicode="C" horiz-adv-x="493" 
d="M84 -90q-15 18 -27 37t-20.5 44t-13.5 57t-5 74q0 23 1 40.5t3 34t5 33.5t8 39q14 64 44.5 122.5t70.5 103t86.5 71t91.5 26.5q22 0 43.5 -8t39 -21.5t28 -31.5t10.5 -39q0 -35 -9.5 -64.5t-23.5 -51t-30 -34t-29 -12.5q-4 0 -10.5 2t-12.5 5t-10 7t-4 7q0 7 17 16
q26 17 43.5 56t17.5 86q0 48 -34 48q-30 0 -66 -21t-70 -55.5t-63 -80t-46 -94.5t-25 -96t-8 -96q0 -51 9 -95t25.5 -76.5t39 -51t48.5 -18.5q47 0 88.5 23.5t72.5 57.5t49 72.5t18 69.5q0 11 -4 17t-4 8q0 4 9 4q14 0 21.5 -13t7.5 -32q0 -56 -23 -99.5t-58.5 -74.5
t-77.5 -47t-79 -16q-35 0 -72.5 14.5t-71.5 52.5z" />
    <glyph glyph-name="D" unicode="D" horiz-adv-x="554" 
d="M45 404q-11 5 -19 14t-8 15q0 4 3.5 13t9.5 18.5t13 19.5t14 18q16 17 39 33.5t48 28.5q27 13 57.5 19t62.5 5t63 -8t59 -21q54 -27 86.5 -64.5t49.5 -90.5q4 -12 6.5 -30.5t3 -39.5t-0.5 -41.5t-4 -37.5q-25 -150 -135 -258q-127 -127 -236 -133q-20 -2 -27.5 -1
t-15.5 5q-29 16 12 19q7 1 18 3.5t21 5.5t17.5 5.5t7.5 3.5q-1 2 -2 5q-1 2 -2.5 5.5t-2.5 7.5q-13 34 -30 154q-3 22 -5 37.5t-2.5 29t-0.5 28.5t1 38q1 35 5.5 76.5t10.5 82t13.5 76t15.5 59.5q3 11 5 18t0 7q-4 0 -15.5 -5.5t-25.5 -14t-27.5 -18t-21.5 -16.5
q-17 -16 -30 -37t-13 -32q0 -6 -3.5 -6.5t-14.5 4.5zM219 175q-6 -71 -5 -134t9 -102q1 -11 6.5 -9.5t31.5 19.5q13 9 28 21.5t30 27t28 28.5t22 26q22 30 39.5 66t30 76t19.5 81.5t7 81.5q0 66 -19.5 105.5t-64.5 60.5q-12 5 -26 10t-22 7q-11 2 -25 3t-28 1q-22 0 -35 -2
t0 -7q17 -6 14 -37q-11 -72 -17.5 -116t-10.5 -77t-6.5 -61.5t-5.5 -68.5z" />
    <glyph glyph-name="E" unicode="E" horiz-adv-x="453" 
d="M31 480q-5 2 -7.5 15.5t-0.5 21.5q2 14 10.5 22.5t27.5 16.5q22 10 44 16t60 12q29 4 66.5 4.5t73 -2.5t64.5 -8.5t41 -12.5q17 -9 24 -26t0 -30q-5 -8 -8 -4q-9 7 -37.5 13t-64.5 9.5t-74.5 4t-67.5 -2.5l-23 -3v-15q0 -5 -2.5 -27t-4.5 -47q-3 -22 -6.5 -56.5t-6.5 -68
t-5.5 -59.5t-2.5 -30q0 -2 1.5 -3.5t9 -1.5h22t40.5 1q38 2 59 1t29 -3q9 -2 16 -8t10 -12.5t1.5 -12t-8.5 -7.5q-4 -1 -32 -2t-64 -2l-86 -3v-74q-1 -61 3 -101.5t13 -68.5q11 -31 26.5 -39t50.5 1q25 6 53.5 21t52 32t38.5 34t13 27q-1 5 0.5 6.5t8.5 1.5q18 0 27.5 -18
t2.5 -35q-8 -16 -29.5 -32.5t-50 -30t-60.5 -23t-61 -10.5q-12 -1 -26 -0.5t-21 1.5q-8 2 -16 4.5t-13 4.5q-9 5 -21.5 19t-18.5 27q-8 16 -16 40.5t-14 54.5t-10.5 63.5t-6.5 66.5l-3 37h-10q-10 0 -15 8q-5 9 -2.5 12.5t14.5 3.5t14.5 5.5t2.5 28.5q0 35 6.5 89.5
t19.5 128.5q4 21 6.5 36t1.5 16t-6 -0.5t-12 -4.5t-14 -7t-11 -8q-11 -9 -15 -7z" />
    <glyph glyph-name="F" unicode="F" horiz-adv-x="340" 
d="M37 448q2 -11 -2 -11.5t-10 9.5q-5 8 -6 25.5t4 32.5q9 33 71 63q93 47 231 41q70 -4 99.5 -16.5t29.5 -41.5q0 -9 -3.5 -9.5t-25.5 5.5q-7 2 -14.5 3t-19.5 2t-30.5 1h-46.5q-33 0 -54 -0.5t-31.5 -1.5t-13 -3t0.5 -5q5 -4 4 -17t-7 -46q-4 -24 -9 -64.5t-9 -80
t-6.5 -69t-1.5 -30.5t14.5 0t33.5 4q48 7 64.5 1.5t16.5 -27.5q0 -14 -4 -16.5t-23 0.5q-10 2 -28.5 2h-35.5l-41 -1l-1 -73q-2 -83 7 -144t26 -94q8 -14 9 -18.5t-2 -6.5q-7 -5 -18 -3t-19 9q-5 4 -12 13t-13.5 20t-12.5 22.5t-9 19.5q-8 25 -14 73.5t-7 101.5
q-1 29 -2.5 48.5t-3.5 21.5q-1 1 -9.5 -0.5t-20 -3.5t-22 -4t-14.5 -3q-5 -2 -7.5 7t2.5 14q2 2 14 5.5t26 7.5l34 8l1 16q2 34 6.5 75.5t9.5 80.5t10 70.5t9 46.5q3 11 5 18.5t2 8.5t-7.5 -1.5t-18 -6.5t-22.5 -9.5t-22 -10.5q-30 -14 -42 -28t-9 -31z" />
    <glyph glyph-name="G" unicode="G" horiz-adv-x="498" 
d="M137 -111q-61 40 -88 125.5t-13 194.5q12 94 47 167.5t95 132.5q42 40 81.5 61t75.5 22q70 3 89 -56q10 -29 7.5 -59.5t-11.5 -58.5q-6 -20 -18 -42t-23 -32q-8 -8 -13 -10t-17 -1q-12 0 -17 1t-10 6l-8 8l7 5q7 6 15.5 17t16.5 24t15 27.5t12 28.5q3 10 5 26t2 31.5
t-2 29t-5 18.5q-5 8 -8.5 9t-17.5 -1q-8 -2 -21 -6t-25 -10q-46 -22 -85.5 -67.5t-66.5 -110.5q-23 -56 -33.5 -107t-10.5 -114q1 -77 19 -131.5t55 -92.5q14 -14 30.5 -24.5t30.5 -13.5q11 -3 33.5 9.5t40.5 30.5q13 12 26 29t24.5 36t21 38.5t15.5 37.5q4 12 7.5 29.5
t5.5 34.5t2 30.5t-2 17.5q-3 5 -29 1.5t-53 -12.5q-31 -12 -51.5 -21.5t-22.5 -14.5q0 -2 -2.5 -4.5t-4.5 -3.5q-6 -3 -12.5 1t-11 11.5t-6 17t1.5 16.5q4 9 17.5 17.5t33 15.5t42.5 11t46 4q25 0 34.5 -1.5t20.5 -5.5q10 -5 16 -10t9 -12.5t3.5 -19.5t-0.5 -30
q-2 -57 -23.5 -113t-56.5 -102q-29 -37 -70.5 -54t-89.5 -11q-20 2 -37.5 9t-37.5 21z" />
    <glyph glyph-name="H" unicode="H" horiz-adv-x="500" 
d="M35 129q-11 6 -14 14t4 15q5 5 24 12.5t43 12.5l20 3l2 53q4 77 12.5 141.5t24.5 126.5q6 26 11.5 42t10.5 24t11.5 9.5t15.5 -1.5q25 -7 28 -31q2 -5 -0.5 -22t-6.5 -36q-8 -41 -14.5 -82.5t-11.5 -78.5t-7.5 -67t-2.5 -48v-17l20 2q7 1 29.5 3t47.5 4t46 3.5t25 1.5
q2 0 3 8t1 28q0 50 6 109.5t15.5 113t20.5 91.5t21 45q6 4 10.5 4t13.5 -4q11 -3 17 -6.5t8 -12.5t0 -25.5t-7 -45.5q-6 -31 -11.5 -73t-10.5 -83.5t-8 -76.5t-3 -50v-15h27q15 0 23 -1.5t14 -5.5q5 -2 8.5 -5t2.5 -5t-12 -3t-26 -1q-16 -1 -27 -2t-13 -2q-1 -1 -2.5 -26
t-2 -59.5t-1 -70.5t-0.5 -58q2 -57 5.5 -92t9.5 -53q3 -12 3 -16t-2 -6q-6 -3 -15 -2.5t-15 4.5q-16 11 -26 73.5t-16 191.5q-2 29 -3.5 56t-2.5 34l-2 19l-14 -3q-44 -6 -74.5 -10t-49.5 -7t-27.5 -4.5t-8.5 -2.5q-1 -1 -1.5 -32t-0.5 -73q0 -87 3.5 -129.5t11.5 -53.5
q13 -16 -12 -16q-9 0 -15 3.5t-10.5 12.5t-9 25.5t-8.5 42.5q-3 19 -7 45l-8 52t-7 48.5t-4 34.5q-1 11 -1.5 18t-1.5 7t-7.5 -2.5t-15 -5.5t-16.5 -6t-12 -5q-10 -5 -13 -5t-12 5z" />
    <glyph glyph-name="I" unicode="I" horiz-adv-x="236" 
d="M43 510q-8 -5 -10 -4.5t-7 6.5q-8 9 -7 22t9 19q20 16 67 24.5t106 6.5q20 -1 39 -2.5t24 -3.5q11 -4 17.5 -12t4.5 -15q-2 -4 -7.5 -5t-31.5 1h-30t-21 -2l-14 -2l-3 -18q-15 -118 -22 -230t-8 -231l-1 -124l29 -2q76 -4 76 -29q0 -2 -12 -4t-33 -4q-26 -2 -52 -6
t-49 -9t-41.5 -11t-29.5 -12q-1 -1 -3.5 1.5t-4.5 5.5q-6 9 -7.5 18.5t2.5 15.5q4 7 15.5 12.5t35.5 11.5q12 2 20.5 4.5t9.5 3.5q-1 9 -2 19q-1 8 -2.5 19t-3.5 24q-4 34 -7 76.5t-5 85.5t-2 83.5t2 72.5q2 27 4.5 55.5t5.5 54.5t6.5 47.5t6.5 33.5q2 8 3 15t0 7
q-1 1 -10 -1t-20.5 -5.5t-22.5 -7t-14 -5.5z" />
    <glyph glyph-name="J" unicode="J" horiz-adv-x="473" 
d="M132 -240q-26 9 -47 33t-34.5 56t-18.5 69.5t3 73.5q6 30 16 58.5t25.5 53.5t37.5 44t51 29q11 3 16.5 3.5t12.5 -1.5q11 -4 11.5 -8.5t-9.5 -6.5q-14 -3 -29 -16t-29.5 -33t-27 -44.5t-20.5 -51.5q-16 -53 -7 -110.5t39 -99.5q23 -29 48 -22q16 4 33.5 18.5t35 36
t33 48.5t27.5 57q8 21 13.5 40t10 40.5t8.5 49t9 66.5q5 45 8 86.5t3.5 82t-1 80.5t-5.5 83q-3 23 -4 41.5t-1 21.5q0 7 -2 8t-13 -1q-10 -2 -25.5 -5.5t-31.5 -7.5t-30 -8.5t-21 -7.5q-17 -7 -19 -15q-3 -18 -18 3q-10 13 -11.5 26.5t6.5 21.5q9 9 33 17t55.5 13.5t65.5 7
t63 -1.5q28 -3 39.5 -9t11.5 -17q0 -6 -3 -7.5t-20 -1.5t-20 -1t-1 -6q10 -40 16 -91.5t7 -109t-2.5 -118t-12.5 -119.5q-17 -105 -48 -177.5t-81 -123.5q-19 -19 -35.5 -31.5t-34 -18.5t-36 -5.5t-40.5 8.5z" />
    <glyph glyph-name="K" unicode="K" horiz-adv-x="362" 
d="M76 -139q-6 5 -11.5 21.5t-14.5 59.5q-10 47 -16.5 87t-10 77.5t-4.5 75t1 81.5q1 33 3 58.5t4 49t5.5 46.5t8.5 52q5 32 9 53t7.5 33t7 18t8.5 8q6 2 11 2t16 -4q18 -7 23 -16q2 -4 2.5 -7t-1 -17t-5.5 -44.5t-11 -87.5q-3 -24 -6 -52.5t-6 -59t-5 -61t-4 -58.5l-2 -38
h10q6 0 15.5 5t21.5 14t24 20t23 23q20 23 49.5 67.5t60.5 96.5q18 31 31 55t23 45t17 40.5t13 42.5q5 18 10.5 20t17.5 -8q20 -17 17 -59.5t-26 -92.5q-16 -32 -41.5 -69.5t-55 -73t-60 -65.5t-56.5 -48l-28 -20l15 -5q14 -5 28 -13.5t29.5 -23t33 -35t39.5 -49.5
q21 -28 37 -46t28.5 -27.5t22.5 -12t20 1.5q9 4 10.5 3.5t1.5 -7.5q0 -5 -13 -13.5t-29 -13.5q-23 -6 -48 5.5t-50 37.5q-8 7 -24.5 28t-32.5 43q-37 50 -57.5 73t-34.5 28q-9 3 -13.5 3t-14.5 -4l-14 -6l2 -43q2 -30 5 -60.5t6 -56t6.5 -44t6.5 -24.5q3 -7 -1 -11
q-6 -4 -16.5 -3t-17.5 5z" />
    <glyph glyph-name="L" unicode="L" horiz-adv-x="214" 
d="M62 -146q-11 -5 -17 -4.5t-14 8.5q-11 12 -11.5 19t8.5 15q11 9 28 16q18 7 15 13q-1 3 -3 16.5t-4.5 33t-5 43t-5 45t-4.5 39.5t-2 27q-1 19 0 51t2.5 67.5t4 70.5t5.5 59q7 50 17.5 92t23.5 70q6 12 10 19.5t8.5 12t9.5 7.5t12 5q23 8 43 -7q8 -7 8.5 -15t-7.5 -10
q-9 -1 -19 -31t-19 -81t-16.5 -118t-11.5 -143q-1 -13 -2 -36t-1.5 -49.5t-0.5 -54v-49.5v-36.5t1 -15.5q0 -1 10.5 1.5t24.5 7.5q42 13 80.5 18.5t71.5 5.5q25 -2 33.5 -3.5t19.5 -7.5q8 -5 16 -13.5t14 -17.5t9 -17t0 -11q-5 -4 -11 2q-10 8 -24.5 11t-43.5 3
q-34 -1 -63.5 -4.5t-68.5 -14.5q-15 -4 -33.5 -9.5t-35.5 -11t-31.5 -10.5t-20.5 -8z" />
    <glyph glyph-name="M" unicode="M" horiz-adv-x="465" 
d="M443 -130q14 -12 15.5 -15.5t-3.5 -5.5q-9 -5 -18 -3t-24 13q-16 12 -33 34t-23 39q-3 9 -6.5 24t-7.5 33t-7 36t-4 33q-2 20 -3 47.5t-1 58.5t1.5 63.5t3.5 62.5q2 23 3.5 40t3.5 33.5t4.5 34.5t6.5 44q1 10 -0.5 8t-8.5 -19q-6 -13 -17.5 -45t-24 -69.5t-24 -75
t-17.5 -61.5q-17 -64 -26.5 -93.5t-14.5 -34.5q-8 -8 -24.5 -8t-25.5 8q-4 4 -9.5 16t-11 28t-11 35t-8.5 37q-2 15 -7 41t-9 47q-5 21 -8 37t-3 17q0 3 -3 3q-2 0 -3 -29.5t-1 -74.5q0 -51 -0.5 -85.5t-2.5 -60t-5 -46.5t-8 -45q-6 -29 -14 -41t-25 -15q-12 -2 -18 3
q-2 2 -3 3.5t-0.5 7t2.5 16t7 29.5q9 39 16 76.5t11.5 85t8.5 110.5t7 152q2 41 4 71.5t3 33.5q3 8 9 8t14 -9t10 -20q1 -11 6.5 -33l12 -48t13.5 -51.5t13 -42.5q15 -50 25 -81.5t15.5 -49.5t7.5 -26.5t3 -12.5q2 -8 5 -0.5t16 48.5q32 106 60.5 183.5t59.5 141.5
q12 24 18.5 37.5t10.5 20t7 8t6 1.5q9 0 21 -7.5t17 -17.5q4 -8 4 -36.5t-5 -72.5q-16 -149 -22.5 -246t-4.5 -162q1 -37 3.5 -63.5t8 -45.5t13 -32.5t19.5 -24.5z" />
    <glyph glyph-name="N" unicode="N" horiz-adv-x="364" 
d="M359 -113q16 -7 4 -17q-13 -10 -37 -2q-23 7 -36 29.5t-22 68.5q-5 25 -8 48t-4.5 47t-1 51t2.5 62q1 29 3.5 63t5.5 66.5t6 61.5t6 49q6 42 7.5 75t-0.5 48q-2 8 -3 15t-2 7q-2 2 -6.5 -1t-11 -9t-13 -14t-12.5 -17q-23 -33 -44.5 -78.5t-38.5 -99t-30 -113t-20 -119.5
q-7 -65 -11.5 -101.5t-8.5 -54.5t-8.5 -23t-12.5 -9q-5 -2 -10.5 -3.5t-8.5 -0.5t-4 2.5t-2 7.5t-1 17v31q0 11 0.5 27.5t1 34.5t1 37t1.5 35q2 39 3 87t1 92.5t-1 78.5t-3 45t-6 30.5t-9 38.5q-4 16 -6 25t-2.5 13.5t0.5 6.5t4 4q7 5 19.5 4.5t23.5 -6.5q20 -11 34 -52
t17 -100l2 -50l8 24q25 75 55 133.5t57 84.5q14 14 34.5 15.5t40.5 -10.5q13 -7 20.5 -22.5t11 -43t2 -67.5t-6.5 -97q-14 -150 -17 -247t4 -139q5 -28 14 -46.5t18 -22.5z" />
    <glyph glyph-name="O" unicode="O" horiz-adv-x="487" 
d="M375 547q33 -23 55 -73t28 -114q5 -51 -2.5 -108.5t-24.5 -111.5t-42 -100t-55 -75q-18 -17 -36.5 -27.5t-41.5 -16.5q-15 -5 -24.5 -5t-27.5 3q-42 8 -80.5 53t-60.5 112q-18 57 -21.5 121t5.5 124.5t29.5 112t51.5 83.5q49 48 97 32q11 -4 16 -3.5t17 5.5q19 9 44 9
q38 2 73 -21zM334 5q23 31 42 72.5t32.5 86t20 89.5t4.5 85q-1 16 -1.5 27.5t-2 21.5t-4 19t-5.5 21q-9 36 -28 66.5t-41 45.5q-13 9 -24 9h-11q-16 -2 -32 -9t-28.5 -17t-20 -22.5t-7.5 -24.5q0 -9 -6 -9q-8 0 -16.5 7.5t-8.5 14.5q0 9 4.5 21t10.5 18q11 12 3 7.5
t-21 -17.5q-23 -25 -43.5 -73.5t-31.5 -107.5q-3 -18 -4.5 -45.5t-1.5 -57.5t2 -57.5t5 -45.5q7 -33 13.5 -51t17.5 -41q26 -54 60 -77t67 -8q15 7 27.5 18.5t28.5 33.5z" />
    <glyph glyph-name="P" unicode="P" horiz-adv-x="420" 
d="M55 77l-9 4q-11 5 -16.5 10.5t-5.5 10.5q0 6 8 6q4 0 10.5 -2.5t10.5 -2.5q-6 33 -6.5 83.5t3 107t10.5 113.5t16.5 102.5t21 74t23.5 28.5q20 0 30 -9.5t10 -23.5q0 -9 -2 -23.5t-6 -37.5q0 -1 -0.5 -1.5t-0.5 -1.5q27 38 57 52.5t53 14.5q28 0 54.5 -16.5t46.5 -44.5
t32.5 -66t12.5 -81q0 -65 -18 -115.5t-49.5 -87t-75 -59t-94.5 -32.5l-61 -11v-64q0 -89 9.5 -133t9.5 -53q0 -5 -4.5 -6.5t-9.5 -1.5q-13 0 -22.5 12t-16.5 42t-12 82.5t-9 133.5v-4zM135 394q-7 -45 -12.5 -80t-9 -68t-4 -69t1.5 -83l3 1q2 1 10 2.5t17 3.5t17.5 4t11.5 4
q43 15 75.5 44t54 67t32 83t10.5 93q0 34 -4.5 64t-13 52t-21.5 34.5t-29 12.5q-25 0 -48.5 -17t-42 -42t-31.5 -53.5t-17 -52.5z" />
    <glyph glyph-name="Q" unicode="Q" horiz-adv-x="467" 
d="M144 -105q-62 31 -95.5 102.5t-33.5 176.5q-1 84 21.5 159.5t64.5 138.5q51 72 104 59q12 -2 16 -1.5t11 7.5q17 14 30.5 18.5t35.5 4.5q18 1 26 -1t20 -9q64 -35 85 -158q3 -17 5 -42t2.5 -51.5t0 -52t-1.5 -41.5q-4 -36 -12 -72t-19 -68.5t-24 -60t-27 -45.5
q-5 -7 -8.5 -12.5t-3.5 -7.5t8.5 -12.5t20.5 -24.5q27 -31 51.5 -48.5t43.5 -19.5q26 -1 9 -13q-5 -3 -14 -5t-19.5 -2.5t-21 1t-19.5 4.5q-45 16 -91 73l-8 11l-19 -8q-31 -15 -67.5 -16t-70.5 16zM195 509q-12 -8 -26 -30t-28 -51.5t-25.5 -63.5t-18.5 -66
q-12 -62 -12 -121.5t11.5 -109.5t33.5 -87.5t52 -55.5q26 -16 45.5 -18t38.5 8q6 3 12 7q3 2 5 4q0 2 -5 12.5t-12 24.5q-15 29 -16.5 38t7.5 11q20 4 46 -26l18 -19l6 8q4 5 10.5 17t13.5 26t13 29t10 26q8 28 16.5 65t12.5 64q2 14 3 37.5t1 49.5t-1 50t-3 39
q-8 63 -31 107t-53 58q-5 2 -9 3t-9 1q-20 0 -39 -16.5t-33 -47.5q-7 -15 -11 -34t-3 -38.5t6.5 -38.5t16.5 -34q5 -6 5.5 -9.5t-7.5 -6.5q-10 -5 -21.5 1.5t-19.5 23.5q-8 15 -11.5 33.5t-3.5 38t4.5 38.5t12.5 35q5 8 7.5 14.5t0.5 7.5q0 1 -3 -0.5z" />
    <glyph glyph-name="R" unicode="R" horiz-adv-x="440" 
d="M19 477q6 16 22 31.5t40 29.5t54.5 26t65.5 21q34 8 67 10.5t62.5 -2.5t55 -18t44.5 -36q19 -24 27 -51t7.5 -55t-7.5 -54.5t-17 -49.5q-18 -40 -54 -76.5t-98 -80.5q-7 -5 -13 -9.5t-11 -7.5q-5 -4 -10 -7q0 -1 4.5 -3.5t10.5 -5.5q17 -9 36.5 -31t48.5 -66
q37 -55 56 -79.5t31 -33.5q13 -9 25.5 -12.5t18.5 -0.5t8.5 0t-1.5 -10q-7 -13 -31 -17.5t-45 0.5q-18 5 -33.5 15t-31 27t-33 44t-39.5 66q-46 80 -71 86q-8 3 -11 0q-1 0 -2 -24.5t-2 -59.5q-1 -50 0 -69t4 -30q5 -18 2 -23t-19 -5q-31 0 -44 18q-5 7 -7.5 34t-3.5 66
t0.5 87.5t5.5 98.5q3 36 8.5 81t12.5 86t14 74t13 45q6 13 12.5 16t21.5 -1q27 -7 23 -37q-5 -32 -9.5 -68t-8.5 -72t-7.5 -69.5t-6 -59t-3.5 -41t0 -16.5q1 -2 8.5 2.5t19 12.5t25.5 19.5t28 23.5q40 35 63.5 70.5t39.5 84.5q22 70 19.5 116.5t-29.5 61.5q-6 4 -16.5 6
t-23.5 3t-28 0t-28 -3q-19 -3 -42.5 -10t-47.5 -16t-45 -19t-36 -20q-20 -13 -34.5 -28.5t-14.5 -22.5q0 -15 -22 -6q-13 4 -19 17q-4 8 -4 12t5 15z" />
    <glyph glyph-name="S" unicode="S" horiz-adv-x="439" 
d="M58 342q2 27 18.5 59t42.5 62t58.5 55.5t67.5 40.5q37 15 72.5 11.5t55.5 -26.5q10 -11 13 -24.5t-2 -34.5q-5 -28 -15 -41.5t-24 -9.5q-11 3 -12.5 7.5t3.5 20.5q9 31 9 53t-10 28q-7 4 -23.5 -1t-36.5 -16q-17 -10 -36.5 -28t-38.5 -40t-35 -45t-26 -43
q-11 -22 -12.5 -42.5t6.5 -31.5q3 -6 7.5 -10t13 -8t22.5 -8t37 -10q31 -8 55 -16.5t43.5 -18t35 -21t29.5 -26.5q45 -45 35.5 -96t-74.5 -115q-100 -102 -218 -108q-20 -1 -30.5 0t-18.5 4q-14 5 -22.5 14t-16.5 24q-14 28 -6 58t34 56q17 17 27 21.5t21 2.5q8 -2 8 -5
t-10 -9q-6 -3 -12 -12t-11.5 -20.5t-9 -24t-4.5 -22.5q-1 -20 5 -34.5t19 -20.5q12 -7 32.5 -5.5t41.5 9.5q30 12 62 36t58 52.5t44.5 59t21.5 54.5q5 45 -51 93q-20 17 -44.5 27t-67.5 21q-27 6 -46 11.5t-32 11t-22 12.5t-17 16q-11 11 -13.5 21t-0.5 32z" />
    <glyph glyph-name="T" unicode="T" horiz-adv-x="377" 
d="M20 450q-3 12 3 26.5t19.5 29.5t32 28.5t41.5 24.5q25 12 60.5 21t76 16t84.5 10.5t88 3.5q52 0 79 -6.5t35 -21.5q5 -8 5.5 -22.5t-3.5 -16.5q-5 -2 -18 5q-17 8 -56.5 11.5t-93.5 1.5q-26 -1 -45 -2t-21 -2q-4 -3 2 -9q2 -3 3.5 -8t2 -21t0.5 -46v-83q0 -78 -2 -148
t-6 -127t-8.5 -98.5t-10.5 -61.5q-11 -37 -45 -52q-14 -6 -31 -7.5t-20 3.5q-2 2 1 5.5t8 8.5q13 12 18 29q8 23 12.5 85t8.5 180q2 64 4 119t4 97t3.5 70t2.5 38l1 18l-13 -2q-8 -2 -21.5 -5.5t-28.5 -8.5t-30 -10.5t-26 -10.5q-26 -12 -48 -28t-32 -31q-9 -14 -9 -23.5
t11 -23.5q6 -8 8 -15t-2 -7t-10.5 7t-13 17t-12.5 21.5t-8 20.5z" />
    <glyph glyph-name="U" unicode="U" horiz-adv-x="417" 
d="M156 -54q6 0 19 14.5t22 32.5q13 25 26 66t24 88.5t19.5 97t11.5 91.5q5 66 12.5 120.5t16.5 92.5q5 21 9 33.5t9.5 18.5t12 7t17.5 -2q12 -3 18 -6.5t8.5 -12.5t0.5 -25t-6 -43q-5 -32 -12 -81t-12 -102q-3 -23 -4 -61.5t-1 -79.5t1.5 -78.5t4.5 -56.5q9 -60 22 -98.5
t27 -49.5q6 -5 7 -7t-2 -4q-5 -4 -15.5 -3.5t-18.5 4.5q-3 2 -9.5 7.5t-12.5 11.5q-20 20 -38 71t-28 120q-3 16 -5 28t-2 11q-1 0 -3.5 -10t-4.5 -24q-11 -55 -28 -98.5t-35 -63.5q-22 -26 -53.5 -27t-57.5 22q-29 26 -49 82t-29 138q-2 19 -2.5 51t0.5 67t2.5 67.5
t4.5 52.5q4 30 10 57.5t13 49.5t14 38t14 23q8 8 19.5 9.5t22.5 -4.5q8 -5 9 -10t-4 -22q-3 -9 -6.5 -26t-7.5 -36.5t-7 -39l-5 -32.5q-10 -67 -13 -132t-0.5 -122t11 -102.5t22.5 -72.5q9 -17 21 -28.5t20 -11.5z" />
    <glyph glyph-name="V" unicode="V" horiz-adv-x="334" 
d="M70 600q28 1 25 -21q-2 -9 -3.5 -33.5t-3 -56t-2 -67.5t-0.5 -69q0 -149 10 -239.5t31 -135.5q17 -38 35.5 -29.5t44.5 65.5q33 71 55 162.5t38 219.5q4 31 6 64.5t2 63t-1.5 51t-4.5 27.5q-7 11 -15 11t-8.5 5t6.5 9q8 3 21 3t21 -4q4 -2 8.5 -7.5t6.5 -10.5t3.5 -9.5
t2 -12t1 -20t0.5 -32.5q0 -65 -8.5 -136t-23.5 -140t-35.5 -132t-44.5 -113q-22 -46 -43.5 -65.5t-52.5 -21.5q-12 -1 -17.5 0t-13.5 6q-35 23 -58.5 104.5t-34.5 213.5q-2 25 -2.5 62t-0.5 75t1.5 72t4.5 53q3 26 6.5 43t9.5 26.5t14 13.5t20 5z" />
    <glyph glyph-name="W" unicode="W" horiz-adv-x="545" 
d="M20 133q-3 27 -3.5 66.5t1.5 83t5.5 85.5t8.5 72q10 58 25.5 99.5t29.5 51.5q6 4 15.5 4t18.5 -2.5t15.5 -7t6.5 -10.5q0 -2 -2.5 -14t-7.5 -26q-10 -34 -20 -85t-14 -120q-3 -41 -7 -80t-5.5 -77t0.5 -75.5t11 -74.5q5 -23 12.5 -38t12.5 -15q10 0 25 41t33 114
q12 49 20 83.5t13 60t7.5 45.5t4.5 41q5 63 13 114.5t17 73.5q6 14 21 17t31 -8q3 -2 4.5 -3.5t2 -6.5t0.5 -14.5t-1 -26.5q-1 -18 -3 -43.5t-4 -43.5q-5 -45 -8.5 -102.5t-4.5 -113t0.5 -103t5.5 -72.5q11 -80 42 -94q8 -3 12.5 -1t15.5 16q43 54 69 171.5t34 289.5
q5 86 -1.5 138.5t-23.5 67.5q-18 16 4 16q45 0 60.5 -82t0.5 -240q-6 -56 -16.5 -111t-25 -103t-32 -86.5t-36.5 -62.5q-20 -26 -47.5 -34.5t-50.5 4.5q-13 6 -26 21.5t-21 32.5q-6 14 -12 36.5t-10.5 48.5t-7 53t-2.5 49q0 21 -3 18q-2 -2 -6.5 -20.5t-9.5 -42.5
q-11 -49 -20.5 -81t-21 -50.5t-26 -26t-34.5 -7.5q-13 0 -17 2t-15 12q-17 19 -31.5 65.5t-21.5 110.5z" />
    <glyph glyph-name="X" unicode="X" horiz-adv-x="453" 
d="M142 609q4 -1 8 -5t9 -14.5t11 -29t15 -48.5q8 -29 18.5 -62.5t20 -62.5t17 -50.5t9.5 -25.5q1 -3 2 -3.5t3.5 2.5t6.5 11t10 22q10 23 23.5 50t26.5 52t25 46t20 33q57 88 116 100q36 8 44 -3q5 -5 1.5 -8.5t-13.5 -2.5q-7 2 -13 -0.5t-19 -13.5q-9 -7 -21.5 -19
t-20.5 -22q-12 -15 -30 -43.5t-39 -64.5t-42.5 -75t-38.5 -73l-20 -40l6 -18q4 -11 13 -31.5t20 -43.5l22 -46t19 -38q19 -35 36.5 -61.5t34.5 -46t34 -33t36 -22.5q13 -6 26.5 -11t21.5 -7q15 -4 17.5 -8t-8.5 -12q-10 -8 -30.5 -7.5t-43.5 8.5q-17 5 -38.5 17t-44.5 29
q-13 9 -30.5 28.5t-37 46t-39 57t-37.5 61.5q-9 16 -15 27t-7 10l-10 -20q-5 -10 -10 -22.5t-11 -26.5q-21 -46 -38 -77.5t-33.5 -52.5t-34 -32.5t-38.5 -17.5q-17 -5 -28.5 -3.5t-11.5 7.5q0 1 8 5.5t19 9.5q23 11 39 25.5t34 43.5q7 10 17 28t21 39.5t22.5 46t21.5 47.5
l17 39l-13 28q-15 36 -30 78.5t-28 86t-23.5 85.5t-16.5 77q-4 18 -4 24t4 11q5 8 19.5 15.5t23.5 6.5z" />
    <glyph glyph-name="Y" unicode="Y" horiz-adv-x="410" 
d="M97 66q2 0 8 5t13.5 12.5t14.5 15.5t12 15q55 81 122 310q9 30 15 52.5t10.5 40.5t7.5 34.5t5 34.5q2 16 4.5 28.5t4.5 14.5q5 5 16 4.5t19 -6.5q4 -3 7 -8.5t5 -15t4 -25.5t4 -41q3 -31 2.5 -73t-2.5 -87t-7 -90.5t-11 -82.5q-7 -44 -18 -91.5t-25 -98.5
q-11 -41 -22 -69.5t-23.5 -49t-28.5 -34t-37 -23.5q-32 -16 -60 -21t-50 3q-10 3 -21 12.5t-9 13.5q4 5 16.5 3.5t20.5 -8.5q9 -8 16 -8t21 5q38 13 62.5 48t42.5 103q6 23 13 53t13.5 62t12 62.5t8.5 54.5q4 31 7 68t5.5 68.5t3 52t-1.5 18.5q-2 -1 -6 -15.5t-10 -33.5
q-9 -33 -20.5 -69t-23 -69t-22 -60.5t-18.5 -43.5q-25 -51 -48 -72.5t-54 -20.5q-25 1 -40.5 13t-26.5 40q-6 16 -9 33.5t-3 45t3 70.5t9 109q10 96 10 153t-8 84q-2 5 -0.5 6t9.5 1q12 0 24 -8t19 -21q17 -31 20 -105.5t-9 -172.5q-5 -41 -8.5 -68.5t-5 -46.5t-1.5 -32
t2 -24q2 -19 7.5 -37t9.5 -18z" />
    <glyph glyph-name="Z" unicode="Z" horiz-adv-x="474" 
d="M482 560q0 -36 -35.5 -105t-99.5 -153l-33 -45l29 -3q23 -3 31.5 -7.5t8.5 -12.5q0 -5 -4 -5.5t-21 -0.5q-11 1 -24.5 1t-21.5 -1h-20l-49 -63q-91 -121 -134 -170q-5 -5 -8.5 -10t-6.5 -8q-4 -4 -6 -7q3 0 22 7q34 12 74 21t78 15t70 8t50 -2q71 -13 75 -58
q3 -20 -2 -29t-10 5q-10 25 -49 35.5t-102 4.5q-23 -2 -40.5 -4t-35.5 -6t-39 -10.5t-51 -16.5q-28 -9 -51.5 -15t-28.5 -6q-11 0 -23 7q-11 8 -13 16q-1 7 28.5 50t97.5 135q28 37 46 63t16 27q-4 2 -23 -3t-38 -13q-8 -3 -15.5 -5t-8.5 -1q-5 3 -9.5 14.5t-2.5 16.5
q4 9 26.5 14.5t70.5 9.5l31 3l29 39q6 9 15.5 22t20.5 29t23.5 32.5t23.5 32.5q28 38 48 66t32.5 48.5t19.5 35t10 25.5q2 6 0 7.5t-10 3.5q-14 3 -43 -0.5t-70 -12.5t-77 -20t-62 -23t-41 -23.5t-15 -20.5q0 -8 -5 -12t-11 -1q-4 1 -9.5 5.5t-10.5 10t-8.5 11.5t-3.5 10
q-1 11 1.5 16t11.5 13q15 13 58 28t94.5 27.5t101 19t76.5 3.5q24 -3 38 -21t14 -44z" />
    <glyph glyph-name="underscore" unicode="_" horiz-adv-x="405" 
d="M383 -75q8 -5 7 -13t-10 -12q-5 -2 -36.5 -3.5t-85.5 -1.5q-37 -1 -79.5 -1t-79 0.5t-60.5 1t-25 2.5q-2 3 -2 16q2 6 4.5 8t13.5 4q6 1 34 1.5t66.5 0.5h82t81 -0.5t62.5 -1t27 -1.5z" />
    <glyph glyph-name="grave" unicode="`" horiz-adv-x="109" 
d="M38 410q8 0 17.5 -11t26.5 -40q11 -20 13.5 -26.5t-2.5 -11.5q-7 -6 -15.5 -3t-21.5 17q-7 8 -15 18t-15 19.5t-11.5 16.5t-4.5 9q0 4 9.5 8t18.5 4z" />
    <glyph glyph-name="a" unicode="a" 
d="M224 242q4 -4 6 -6.5t2 -8t-1.5 -15.5t-4.5 -28q-8 -48 -13 -81.5t-7.5 -56t-2.5 -36t2 -21.5q3 -13 6.5 -8t12.5 21q3 5 8.5 16t13 25t16.5 30t17 32q21 43 31 60t13 17q7 0 8.5 -6.5t-2.5 -16.5q-11 -32 -24.5 -65.5t-26.5 -62t-24 -49t-17 -24.5q-19 -16 -45 -6
q-22 8 -30.5 30.5t-10.5 74.5l-2 50l-18 -27q-18 -27 -36 -48t-30 -28q-24 -15 -55 3q-54 27 -23 119q10 29 25.5 53.5t37.5 47.5q50 49 93 49h10t10 -1q19 -4 36 -13t25 -20zM158 178q20 27 20 55q0 10 -3 10q-2 0 -2.5 -0.5t-2.5 -0.5q-16 -5 -35 -21t-37 -38.5t-33 -49.5
t-24 -53q-5 -17 -7 -33t2 -16q2 0 9.5 7t17.5 18q8 9 20 23.5t25.5 31.5t26.5 34.5t23 32.5z" />
    <glyph glyph-name="b" unicode="b" 
d="M240 221q16 -34 12 -70t-13 -71q-13 -42 -35.5 -69.5t-49.5 -39.5q-19 -8 -41.5 -8t-44.5 3q-5 1 -6 -0.5t-2 -14.5q-4 -30 -28 -30q-5 0 -8 1.5t-5 6.5q-5 13 -9 36t-6.5 51.5t-3.5 60t0 62.5q2 70 7.5 131.5t13.5 110.5t17.5 82t20.5 45q6 7 10.5 9t12.5 2
q6 0 12.5 -1.5t9.5 -3.5q4 -3 6 -8t1.5 -15.5t-3.5 -27.5t-8 -44q-8 -42 -14.5 -83.5t-11.5 -78.5t-7.5 -68t-2.5 -52v-26l13 37q14 36 28 62.5t30 42.5q12 13 17 15.5t18 2.5q47 0 70 -50zM183 168q1 35 0.5 48.5t-4.5 21.5q-4 11 -8 11q0 -1 -1 -1h-2q-12 -6 -24.5 -25
t-25 -47t-24 -64t-20.5 -76l-7 -30l13 -12q11 -11 26.5 -11.5t29.5 13.5q42 45 47 172z" />
    <glyph glyph-name="c" unicode="c" horiz-adv-x="226" 
d="M126 267q-5 0 -13.5 -11t-17.5 -27.5t-17.5 -36t-12.5 -35.5q-11 -45 -11.5 -77t9.5 -63q9 -27 21 -34.5t30 1.5q29 17 60 61.5t61 113.5q5 14 10.5 25.5t7.5 13.5q4 5 10 4t6 -6t-8.5 -25.5t-20 -46t-24 -50t-21.5 -37.5q-15 -24 -36 -45t-35 -27q-17 -8 -37.5 -9
t-37.5 5q-18 6 -33.5 21t-22.5 37q-21 76 3 149q9 27 20.5 50.5t24.5 40.5q16 20 36 28.5t39.5 6t35 -15.5t23.5 -36q10 -38 -12 -39q-9 -2 -12.5 3t-8.5 25q-9 36 -16 36z" />
    <glyph glyph-name="d" unicode="d" horiz-adv-x="294" 
d="M283 490q0 -5 -4.5 -32t-11.5 -60q-12 -62 -19.5 -108.5t-12 -85.5t-6 -73.5t-1.5 -72.5q0 -74 7 -113.5t24 -57.5q6 -6 6 -8t-5 -5q-6 -5 -11.5 -5t-16.5 5q-26 12 -42.5 45t-24.5 91q-2 14 -3 43.5t0 68.5q2 42 1.5 59.5t-2.5 10.5q-5 -17 -11.5 -37.5t-14 -41.5
t-15 -39t-12.5 -29q-21 -43 -44 -61.5t-53 -13.5q-24 3 -39 25q-5 5 -7 16.5t-2.5 25.5t1.5 29t6 27q8 27 20.5 50t29.5 42q29 32 55.5 47t54.5 16l19 1l17 53q7 22 14.5 51.5t11.5 48.5q10 44 17.5 69.5t14.5 36.5q4 6 6.5 8.5t8.5 2.5q5 0 9 -1q35 -3 35 -28zM69 56
q9 14 20 37t21.5 46.5t17.5 42.5t7 25l-1 1q-2 1 -8 -5t-14 -15t-17 -20.5t-16 -21.5q-38 -59 -43 -112q-2 -15 -1 -20.5t10 6.5q4 5 11.5 15.5t12.5 20.5z" />
    <glyph glyph-name="e" unicode="e" horiz-adv-x="227" 
d="M72 110q-10 0 -12.5 -6t-2.5 -29t5 -42t13 -32q15 -23 33 -22.5t44 25.5q19 18 34 47t36 83q6 16 11 29t7 15q2 4 8.5 4.5t9.5 -4.5q1 -1 -3.5 -16.5t-12.5 -37.5q-26 -75 -52.5 -112.5t-63.5 -50.5q-14 -5 -35.5 -5.5t-36.5 4.5q-25 9 -43.5 36.5t-22.5 59.5q-3 27 1 56
t14.5 55.5t26 48.5t34.5 36q14 11 25.5 15.5t27.5 3.5q2 0 4.5 -0.5t4.5 -0.5q11 -1 16 -3t11 -9q9 -10 10 -20.5t-7 -34.5q-7 -21 -18 -40.5t-25 -33.5q-13 -11 -21 -15t-20 -4zM87 194q-3 -5 -6.5 -15.5t-7.5 -21t-6.5 -19t-2.5 -10.5q0 -3 8.5 4t19.5 19q8 7 15 18t10 19
q4 8 6.5 18t4 19t1 15.5t-2.5 6.5t-7 -5.5t-11 -13.5t-11.5 -17t-9.5 -17z" />
    <glyph glyph-name="f" unicode="f" horiz-adv-x="157" 
d="M88 311q-2 -14 -4 -27t-3 -17l-2 -10l39 1q22 1 31.5 0t12.5 -3q10 -8 3 -11.5t-41 -6.5q-19 -2 -32.5 -3.5t-14.5 -3.5t-2.5 -23t-3.5 -50q-1 -16 -1 -42.5v-57t1 -62.5t1.5 -59.5t2 -48t2.5 -27.5q2 -8 0.5 -10t-8.5 -4q-10 -5 -18 -2q-8 2 -13.5 17t-13.5 57
q-6 31 -10.5 55t-7 47t-3.5 48.5t-2 60.5l-3 86l-14 -1q-8 -1 -12.5 0.5t-11.5 6.5q-12 12 -6 18t32 10l16 2l4 35q5 38 13 73t17.5 64t21 50t23.5 32q18 16 38.5 16.5t38.5 -14.5q8 -8 9.5 -12t-2.5 -11q-3 -4 -10 0q-5 3 -7.5 1t-10.5 -13q-14 -23 -27.5 -66t-21.5 -95z
" />
    <glyph glyph-name="g" unicode="g" horiz-adv-x="307" 
d="M22 -334q22 6 46.5 41.5t46.5 88t39 116t24 126.5q6 50 7.5 78.5t-2.5 20.5q-2 -3 -7.5 -16t-12.5 -28q-22 -47 -49 -82t-49 -47q-12 -6 -25.5 -7.5t-26 0t-23.5 6.5t-18 13q-9 11 -12 29.5t-0.5 40.5t10 46t20.5 47q28 53 70 79.5t96 26.5q20 0 25.5 1t7.5 6q5 9 15 8
q3 0 6 -1t7 -3q9 -5 15 -19.5t11 -46.5q7 -35 8 -66.5t-2 -68.5q-8 -89 -35 -174t-70 -150q-24 -38 -46.5 -56.5t-53.5 -24.5q-10 -2 -22.5 -3t-25 -1t-23 1.5t-14.5 3.5q-14 6 -17 9t0 8q5 5 14.5 5t19.5 -5q20 -10 46 -2zM182 215q3 8 -2 7q-5 0 -7 -1q-63 -12 -106 -86
q-11 -18 -19 -38t-13.5 -39t-7 -35.5t1.5 -26.5q3 -13 9 -10.5t26 23.5q8 8 19.5 23t19.5 27q6 10 18.5 33t25 48t23 46.5t12.5 28.5z" />
    <glyph glyph-name="h" unicode="h" horiz-adv-x="284" 
d="M102 429q-8 -35 -14 -69.5t-10 -71t-7 -77t-4 -88.5l-2 -63l17 41q11 27 25.5 57.5t29 58t26.5 47t18 24.5t20 4.5t23 -5.5q4 -2 7.5 -6.5t4.5 -8.5q1 -3 1 -22t-1 -42q-5 -128 -3.5 -195.5t6.5 -83.5q6 -22 12 -23q17 -5 14.5 -12t-20.5 -7q-15 0 -25.5 10t-23.5 37
q-8 16 -13.5 42t-9 56t-5 61t-1.5 57v60l-8 -14q-19 -30 -34.5 -58t-26 -57t-17 -60.5t-7.5 -68.5q-1 -12 -3 -13.5t-13 -2.5h-12.5t-7.5 1q-5 2 -8.5 16.5t-9.5 50.5q-16 97 -18 184.5t15 172.5q14 68 31 107.5t34 39.5q9 0 20.5 -7t11.5 -12q0 -2 -3.5 -19.5t-8.5 -40.5z
" />
    <glyph glyph-name="i" unicode="i" horiz-adv-x="128" 
d="M46 288q-11 0 -14 8q-2 6 -3.5 19t-2 27t-0.5 26.5t2 16.5q4 8 13.5 12.5t21.5 3.5q5 0 7 -1q15 -2 18 -6t0 -17q-2 -6 -5.5 -19.5t-6.5 -27.5t-7 -24.5t-6 -12.5t-7 -3.5t-10 -1.5zM9 -5q-8 30 -10 71t0.5 79t9 67.5t17.5 36.5q3 2 10.5 3.5t15.5 1.5t16 -0.5t12 -2.5
q3 -2 4.5 -6.5t1 -14.5t-2.5 -28t-6 -47q-8 -64 -9.5 -115t6.5 -70q7 -16 12 -21q4 -3 4 -4.5t-5 -4.5q-15 -12 -42 2q-12 7 -20 18.5t-14 34.5z" />
    <glyph glyph-name="j" unicode="j" horiz-adv-x="126" 
d="M-314 -297q18 -13 36.5 -17t36.5 -2t35 8.5t32 13.5q57 28 97 86.5t58 138.5q6 24 9.5 44t5.5 42.5t3.5 50t1.5 64.5q1 40 2 71.5t2 36.5q2 11 10 11v1q5 0 8 -1q8 0 14.5 -1t9.5 -3q9 -5 14 -26t7 -50.5t1.5 -65t-2 -69t-4 -61.5t-4.5 -44q-5 -35 -15.5 -62.5
t-21.5 -50.5q-28 -54 -67 -91t-85 -54q-21 -7 -43 -12t-45.5 -5t-48.5 6t-51 21q-12 8 -24.5 18t-12.5 15q0 8 14 2.5t27 -15.5zM38 381q6 -2 7.5 -8t2.5 -34q1 -27 0.5 -34t-5.5 -11q-14 -12 -30 4q-9 9 -15 34q-5 24 -5 33.5t6 11.5q5 3 14 4.5t17 1.5q4 0 8 -2z" />
    <glyph glyph-name="k" unicode="k" horiz-adv-x="271" 
d="M247 -8q-1 -7 -13 -14t-25 -9q-29 -5 -55.5 20.5t-56.5 87.5l-22 47l-2 -73q-1 -19 -2 -35.5t-1 -25.5q1 -10 -2 -12l-9 -6q-10 -5 -18.5 -5.5t-12.5 4.5q-1 2 -5 17.5t-6 35.5q-8 62 -12.5 109.5t-5 91.5t3.5 90t12 106q6 41 11.5 65t13.5 46q8 23 17.5 30.5t25.5 4.5
q15 -2 22 -9q3 -2 4 -4t1 -7.5t-2 -16t-6 -29.5q-4 -21 -7 -44t-5 -34q-5 -35 -8.5 -81.5t-6 -87.5t-2.5 -69.5t2 -28.5q3 0 8.5 3.5t12.5 8.5t14.5 11t12.5 12q15 17 27 34.5t23 42.5q5 11 11 20t8 11q7 2 19 1.5t16 -4.5q9 -9 2.5 -27t-23 -39t-39.5 -41t-47 -31
q-13 -5 -13 -9l3 -3q3 -4 8 -5q11 -8 26.5 -29t30.5 -53q8 -15 17.5 -30t15.5 -21q10 -9 14 -11t13 -1q9 2 11 1t1 -5z" />
    <glyph glyph-name="l" unicode="l" horiz-adv-x="152" 
d="M139 365q-6 -31 -14.5 -63t-17 -59.5t-17 -49t-14.5 -31.5q-2 -2 -3 -7t-1.5 -14t-0.5 -23.5v-36.5q0 -30 1 -59t3 -53t5 -41.5t7 -24.5q4 -8 7 -10t14 -1q5 1 9.5 0t4.5 -2q0 -24 -44 -24q-13 0 -17.5 1.5t-13.5 10.5q-8 8 -13 17t-11 29q-16 52 -21 105.5t-3 109
t8.5 112.5t14.5 115q4 25 11.5 52t17 50t18.5 40t16 24q10 10 27 12q8 0 16 -3q14 -6 18.5 -21t4.5 -56q0 -15 -0.5 -26t-2 -21.5t-3.5 -23t-6 -28.5zM77 232l7 20q3 9 7.5 24.5t8.5 29.5q6 25 11.5 53t9 53t4.5 45t-1 30q-3 9 -4 9h-1l-1 -2q-4 -8 -10 -35t-12 -61.5
t-11 -70.5t-6 -61z" />
    <glyph glyph-name="m" unicode="m" horiz-adv-x="355" 
d="M231 29q-1 21 -1 37t1.5 30.5t4 29.5t6.5 35q2 8 -4.5 -1.5t-16 -27t-19.5 -37.5t-14 -33q-6 -17 -10 -21t-17 -4q-15 0 -19.5 10.5t-6.5 45.5q-2 20 -0.5 44t4.5 53q2 23 3.5 40.5t0.5 18.5t-6 -9t-12 -26t-14 -35t-12 -36q-6 -19 -11.5 -40t-9.5 -41t-6.5 -37.5
t-2.5 -27.5q0 -20 -5 -25q-5 -3 -16.5 -4t-16.5 2q-2 1 -5.5 9.5t-7 21.5t-7.5 27.5t-6 27.5q-4 18 -5 37t1 55q0 32 2 52t6.5 30.5t11.5 13.5t19 1q17 -2 25.5 -8.5t7.5 -15.5q0 -5 -0.5 -18t-2.5 -28l-2 -36l15 42q7 18 15.5 39t17.5 40t17 34t13 21q5 7 9 9t12 2
q12 0 22.5 -5.5t15.5 -15.5t6 -44t-3 -74l-3 -31l29 45q12 19 19 30t11.5 17t7.5 8t6 2q6 2 19 -2.5t16 -9.5q4 -5 2 -24.5t-11 -73.5q-11 -66 -15.5 -109.5t-3.5 -70.5q2 -25 7.5 -35.5t16.5 -12.5q10 -2 10.5 -7t-10.5 -8q-24 -8 -39.5 6.5t-23.5 37t-11.5 46t-3.5 34.5z
" />
    <glyph glyph-name="n" unicode="n" 
d="M180 22q-1 41 3.5 82t15.5 99q4 20 6 34.5t1 15.5q-2 2 -9.5 -4.5t-17 -17.5t-19.5 -24t-17 -23q-14 -20 -27 -45t-24 -52t-20 -54.5t-15 -51.5q-3 -11 -5.5 -15.5t-7.5 -6.5q-20 -11 -30 4q-8 12 -13 48t-5 80q0 21 1 37.5t3 31t6 27.5t9 27q5 12 8.5 17t10.5 8
q16 6 28 -0.5t12 -22.5q0 -5 -2.5 -23.5t-4.5 -38.5q-4 -28 -6 -42.5t-2.5 -21.5t-0.5 -7.5t0 0.5q1 1 6 11t11 24q23 50 51.5 92t50.5 59q10 7 21.5 10t22.5 2t20 -6t14 -14t4 -32.5t-6 -67.5q-7 -48 -11 -89.5t-5.5 -73t-0.5 -52.5t5 -28q10 -18 24 -18q9 0 8 -5t-11 -9
q-8 -2 -15 -2.5t-19 1.5q-25 5 -36.5 37.5t-11.5 99.5z" />
    <glyph glyph-name="o" unicode="o" horiz-adv-x="259" 
d="M122 -6q-11 -6 -26.5 -5.5t-30.5 5.5t-28 14t-20 21q-6 11 -10.5 28t-6 36.5t-0.5 39t6 36.5q2 10 7 25t10 26q14 36 36 55.5t48 19.5q20 0 36 -8q9 -6 16 -6t18 -10.5t19 -24.5q4 -8 7 -13.5t6 -6.5q12 -6 26.5 -9.5t34.5 -2.5q8 1 14.5 1.5t12.5 2.5q5 2 8.5 -5.5
t-8.5 -9.5q-7 -2 -16 -4t-20 -3q-16 -1 -25 -0.5t-30 7.5q-2 -36 -7 -68.5t-15 -60t-25 -48t-37 -32.5zM169 253q-3 0 -1 -6t4 -6t2 6t-5 6zM80 160q-3 -11 -5 -31t-2.5 -41t0.5 -38.5t4 -23.5q5 -11 12.5 -9.5t23.5 15.5q25 22 42 61.5t21 87.5l2 23l-32 29l-28 16
q-5 3 -10.5 -5t-10 -22t-9 -31t-8.5 -31z" />
    <glyph glyph-name="p" unicode="p" horiz-adv-x="324" 
d="M74 -15q-4 4 -7 6.5t-4 0.5q-2 -2 -3 -13t-2 -26t-1.5 -32t-0.5 -30q1 -15 2 -49.5t2 -67.5q1 -27 1 -43v-24.5t-1.5 -12t-3.5 -5.5q-12 -9 -30 -7q-2 1 -4.5 4t-4.5 8q-2 7 -5 24.5t-6 40.5t-6 49t-4 49q-2 27 -2.5 68.5t0 85t2.5 84t5 66.5q2 21 6 45t7.5 46t7 38
t5.5 20q3 6 13.5 6t21.5 -5q8 -3 12.5 -6t6 -10.5t0 -22.5t-4.5 -43q-3 -27 -6 -53t-3 -37l-2 -24l14 43q23 63 39.5 96t36.5 51q17 15 32 17q12 0 21 -4q47 -16 56 -95q2 -13 2 -29.5t-1 -34t-3.5 -34.5t-5.5 -31q-2 -5 -2.5 -8.5t-1.5 -6.5q-1 -4 -1 -6q2 0 15 -5
q16 -5 16 -9.5t-17 -2.5l-17 3l-11 -23q-9 -20 -25.5 -38.5t-31.5 -26.5q-11 -5 -25.5 -6.5t-29.5 0t-28.5 7t-22.5 13.5zM143 -9q4 3 11 12.5t12.5 20t9 19.5t1.5 11h-3q-3 0 -9.5 -2t-14.5 -4q-14 -4 -22 -9t-16 -12q-11 -11 -12 -18t7 -15q11 -10 18.5 -10.5t17.5 7.5z
M75 44l15 8q5 4 13.5 7.5t14.5 5.5t18 4t23 4l28 4l8 45q3 21 5 44.5t3 45t0.5 39.5t-1.5 28q-1 11 -2.5 15t-11.5 -1q-8 -5 -21 -21t-24 -35q-6 -11 -15.5 -33.5t-19 -49.5t-18 -54t-13.5 -46z" />
    <glyph glyph-name="q" unicode="q" horiz-adv-x="279" 
d="M131 -35v123l-16 -35q-5 -15 -13 -29.5t-13 -20.5q-8 -8 -12.5 -11t-12.5 -3q-67 0 -67 114q0 24 1 36t6 27q14 41 36 71.5t48 43.5q14 8 37.5 9t38.5 -6q9 -4 11 -3.5t6 6.5q7 12 19 11q13 0 27 -11q6 -5 7.5 -10.5t1.5 -19.5q0 -4 -1 -14.5t-3 -24.5t-4.5 -31t-5.5 -34
q-12 -76 -20 -134t-11 -105q-2 -24 -2.5 -37.5t0 -20t1.5 -7.5t4 -1q16 2 16.5 -5t-1.5 -9q-1 -2 -4.5 -1.5t-5.5 -1.5l-9 -6l2 -33q2 -16 4 -32.5t4 -24.5t2.5 -14t-0.5 -8q-2 -2 -13 -1.5t-16 2.5q-9 6 -19.5 33.5t-15.5 56.5q-1 6 -2 8t-3.5 2.5t-8 -0.5t-14.5 -2
q-16 -4 -23 -2q-8 4 -14 11.5t-4 9.5q2 1 11 3t22 4l29 4v123zM102 96q27 58 44 99.5t19 50.5q2 8 1.5 9.5t-5.5 1.5q-8 0 -19 -7.5t-21.5 -19.5t-20.5 -28t-17 -32q-7 -17 -11.5 -32.5t-7 -30.5t-3.5 -31t-1 -35q0 -13 1.5 -16t7.5 7q3 5 13 23.5t20 40.5z" />
    <glyph glyph-name="r" unicode="r" horiz-adv-x="228" 
d="M161 292q-4 0 -11.5 -9t-15.5 -23t-16.5 -32t-15.5 -37q-11 -32 -19 -62.5t-15 -74.5q-6 -35 -10 -44.5t-12 -9.5q-4 0 -8 -2q-5 -2 -11 2q-7 2 -11 15t-10 48q-3 21 -4 52t0.5 62t5.5 57.5t9 39.5q8 20 41 11q8 -2 12.5 -4t6.5 -7t2 -13t-1 -22l-2 -31l18 35
q24 45 42.5 62t39.5 13q26 -4 38 -18.5t9 -36.5q-2 -14 -12 -26.5t-19 -13.5q-14 -2 -16.5 1t-2.5 20q0 20 -3.5 34t-8.5 14z" />
    <glyph glyph-name="s" unicode="s" horiz-adv-x="236" 
d="M301 214q1 -3 -14 -13q-7 -4 -24.5 -16t-37.5 -27t-39.5 -30t-30.5 -24l-22 -19l21 -19q50 -45 33 -85q-8 -18 -24 -34t-37 -27.5t-43.5 -16.5t-41.5 -2q-15 2 -24 6t-20 14q-16 16 -13.5 35.5t22.5 51.5q8 11 21.5 26.5t25.5 26.5t20.5 19.5t8.5 9.5t-5.5 5t-13.5 9
t-17.5 13.5t-14.5 14.5q-12 14 -16 34t-2 31q2 13 10 29t19.5 31.5t24.5 28t26 18.5q18 8 34 8q8 0 15.5 -1t14.5 -6q35 -17 19 -43q-4 -5 -11.5 -1.5t-7.5 8.5q0 9 -12.5 1t-32.5 -30q-23 -24 -31.5 -42t-8.5 -39q0 -14 1.5 -20t9.5 -14q7 -8 11.5 -12t10.5 -3t16.5 8
t28.5 20q18 14 41.5 30t37.5 26q24 16 33 20t20 4q17 0 19 -4zM130 8q14 31 -6 51l-9 9l-22 -21q-59 -57 -68 -98q-3 -18 6 -18q2 0 9.5 3.5t17.5 8.5q23 12 44 31t28 34z" />
    <glyph glyph-name="t" unicode="t" horiz-adv-x="113" 
d="M-247 352q-8 9 -8 22t8 20q17 17 65 26.5t139 17.5l54 3l5 21q3 13 7.5 27.5t9.5 28t9 24t7 13.5q5 5 9 6t13 -1q10 -3 15.5 -6.5t7.5 -11t0.5 -20.5t-5.5 -36q-3 -17 -5 -28.5t-1 -13.5q1 -1 23.5 -1.5t53.5 -1.5q31 0 50.5 -1t30.5 -3t15.5 -6t5.5 -10q3 -9 1 -11
q-1 -1 -8.5 -0.5t-17.5 2.5q-13 2 -37 2.5t-55 -0.5q-24 -1 -37.5 -2t-20 -1.5t-8 -2t-2.5 -4.5q-1 -4 -3 -23t-4.5 -46.5t-5 -60.5t-4.5 -66q-4 -53 -4.5 -107.5t2.5 -99t8.5 -74t12.5 -31.5q4 -2 1 -6q-2 -4 -11 -4t-17 4q-8 5 -14.5 16t-12 33t-10.5 56t-10 85
q-3 32 -5 74.5t-2.5 85t0.5 78.5t4 56q2 13 2.5 21.5t0.5 9.5q-1 1 -21.5 -1.5t-47 -5.5t-52 -7t-36.5 -6q-29 -7 -49.5 -15t-24.5 -16q-8 -19 -21 -2z" />
    <glyph glyph-name="u" unicode="u" horiz-adv-x="277" 
d="M86 5q-20 -8 -38.5 -2.5t-27.5 23.5q-5 10 -8.5 20.5t-6 23.5t-4 29t-1.5 38q-2 45 2 78.5t12 53.5q4 9 7 10.5t16 1.5q28 0 40 -14q2 -3 2 -14t-5 -37q-5 -35 -7.5 -68t-3.5 -59t0.5 -43.5t5.5 -21.5t17 16t33 61l15 30t9 21t4.5 16t2.5 16q6 48 13.5 74.5t16.5 30.5
q8 3 23 -0.5t21 -10.5q2 -2 3 -5t1 -9.5t-2 -18.5t-5 -33q-5 -32 -8 -54t-4.5 -38.5t-2.5 -29.5t-1 -25q0 -60 28 -90q12 -12 12 -17q-3 -5 -17 -3t-25 8q-14 7 -22 14.5t-15 20.5q-3 6 -5.5 15t-5 19.5t-4 21t-1.5 18.5q0 21 -4 19t-18 -30q-8 -16 -13.5 -26t-10 -16
t-8.5 -9t-10 -5z" />
    <glyph glyph-name="v" unicode="v" horiz-adv-x="244" 
d="M93 0q2 0 6 8t9.5 21t12 30t12.5 35q11 34 19.5 69.5t14 67.5t6.5 56.5t-3 35.5q-5 11 2 13t15.5 -2.5t13.5 -14.5q8 -17 4 -56t-22 -111q-8 -31 -18.5 -61t-21 -54.5t-21 -42t-18.5 -23.5q-9 -6 -21.5 -7.5t-20.5 3.5q-14 7 -28 42t-23 82q-6 31 -9 64.5t-3.5 61.5t2 48
t7.5 26q6 6 23 5t29 -7q11 -5 11 -12.5t1 -18.5l2 -64q0 -34 2 -68.5t5 -62.5t6 -45.5t6 -17.5z" />
    <glyph glyph-name="w" unicode="w" horiz-adv-x="369" 
d="M68 3q-32 -10 -50 23.5t-17 107.5q0 38 5.5 74t13.5 59q6 16 14 19.5t25 -3.5q9 -3 14 -6.5t6.5 -11.5t0 -23t-5.5 -42q-3 -26 -5 -54t-3 -51.5t-1 -38.5t2 -15q1 0 13 23t27 53.5t28.5 60t18.5 43.5q8 26 16 32q6 5 18 3.5t25 -6.5t13 -11.5t-1 -19.5q-1 -11 -3 -31.5
t-5 -40.5q-5 -37 -4 -74.5t6 -60.5q4 -17 7.5 -22t8.5 0q6 4 13 20t14.5 37t14.5 45.5t11 47.5q4 25 6.5 54.5t2.5 57t-2 49.5t-6 33q-2 6 5.5 6t12.5 -6q6 -6 10 -23t5.5 -41t0 -53t-5.5 -59q-21 -166 -65 -188q-11 -5 -30 -6.5t-29 3.5q-11 4 -18 14q-6 8 -12 22.5
t-10.5 32.5t-7 37t-2.5 37q0 11 -0.5 17.5t-1.5 4.5q-2 -2 -8.5 -17t-15.5 -35q-9 -23 -15.5 -37t-11.5 -22.5t-10 -12t-12 -5.5z" />
    <glyph glyph-name="x" unicode="x" horiz-adv-x="256" 
d="M101 54q-8 14 -11.5 17t-6.5 0t-7 -11.5t-9 -20t-9.5 -24.5t-7.5 -24t-6 -20.5t-5 -11.5q-3 -4 -12 -4t-17 3q-6 3 -7 6t0 14q1 6 6 19t12.5 29.5t16.5 34t18 31.5l9 17l-17 35q-15 29 -26.5 63t-13.5 54q-2 11 -1 14.5t6 5.5q4 2 11 3t14.5 0t15 -2.5t11.5 -4.5
q5 -2 10.5 -13.5t14.5 -37.5q7 -20 12.5 -34t6.5 -14t8 9.5t16 22.5q10 14 22.5 29t24 27.5t20.5 20.5t12 8q7 0 11 -4q2 -2 2.5 -4t-2 -6.5t-9 -13t-17.5 -22.5q-14 -17 -30 -38t-25 -33l-13.5 -21t-3 -15t8 -20.5t20.5 -36.5t21.5 -35.5t19.5 -21.5q8 -6 14 -11t6 -7
q2 -5 -10.5 -7t-25.5 1q-28 6 -45 18t-33 36z" />
    <glyph glyph-name="y" unicode="y" horiz-adv-x="313" 
d="M252 180q-3 -89 -15.5 -169t-31.5 -137q-13 -36 -24.5 -61.5t-25 -44t-30.5 -31.5t-39 -25q-52 -26 -82 -14q-14 5 -7.5 12t22.5 2q10 -2 27.5 7t34.5 26q15 14 27 38t26 62q9 25 15 48t10.5 49.5t8 60.5t7.5 81q2 27 4 51t3 31q2 11 -1.5 4.5t-14.5 -38.5
q-16 -45 -28.5 -70.5t-29.5 -42.5q-10 -11 -15.5 -14t-16.5 -5q-51 -4 -70 64q-3 11 -4.5 32t-1.5 45t1.5 46.5t4.5 35.5q6 26 13 37t19 13q11 2 23 -1.5t18 -10.5q2 -2 3 -4.5t1 -8t-1.5 -15.5t-4.5 -28q-3 -23 -5.5 -47.5t-3 -46.5t0 -40t2.5 -29q3 -18 5.5 -18t13.5 15
q6 8 15.5 23t16.5 29t18 44.5t22.5 63.5t20 61.5t10.5 38.5q4 29 31 15q9 -5 15 -13.5t9 -23.5t4 -39t0 -58z" />
    <glyph glyph-name="z" unicode="z" horiz-adv-x="278" 
d="M206 165q-8 -12 -20 -27t-26 -30t-28 -29t-25 -23l-25 -20l67 -2q22 -1 35.5 -1.5t21.5 -1.5t11.5 -2t6.5 -3q6 -8 5 -9q-1 -2 -12 -3t-25 -1t-34 -1l-40 -2t-38 -2.5t-28 -2.5q-9 -2 -15.5 -0.5t-15.5 6.5q-16 7 -16 13q-1 3 2 8.5t10.5 15t21 24t33.5 35.5
q17 19 35.5 40.5t27.5 33.5q9 13 17.5 26.5t15.5 25.5t11 21.5t4 14.5q0 6 -2 7.5t-10 1.5q-7 0 -18 -1.5t-24 -4.5t-26 -7t-24 -8q-18 -6 -25 -7t-12 1q-11 5 -8 11t21 15q23 11 54.5 19t54.5 8q20 0 37.5 -7.5t26.5 -19.5q13 -17 7 -46.5t-29 -65.5z" />
    <glyph glyph-name="braceleft" unicode="{" horiz-adv-x="234" 
d="M214 581q14 -11 -9 -11q-14 0 -26.5 -7.5t-22.5 -20t-16 -29t-6 -33.5q0 -32 22 -94q14 -43 7 -73.5t-36 -43.5l-16 -6l15 -17q6 -6 13.5 -16t10.5 -18q9 -24 9 -47.5t-5 -44.5t-12 -39t-12 -32q-4 -10 -7 -20t-3 -15q0 -13 6 -29.5t13 -22.5t10.5 -7t13.5 2q29 8 32 -1
q3 -7 -3.5 -12.5t-18.5 -9.5t-27 -4.5t-29 2.5q-20 5 -34.5 12.5t-22.5 19.5t-9.5 25.5t0 26.5t6 25t8.5 22q7 18 12 33t8 29t3.5 28t0.5 30q0 22 -2 31t-8 20q-3 6 -5 9.5t-5 6t-7.5 4t-12.5 3.5q-29 8 -29 16.5t30 9.5q20 0 29 6t16 21q10 20 7 42.5t-19 60.5
q-15 38 -20 63.5t0 44.5q9 45 59 68q22 11 49.5 8.5t42.5 -16.5z" />
    <glyph glyph-name="braceright" unicode="}" horiz-adv-x="232" 
d="M182 274q30 -8 30 -16.5t-31 -9.5q-20 0 -29.5 -5.5t-15.5 -20.5q-9 -20 -6.5 -43t18.5 -61q24 -61 22 -96t-32 -61q-30 -27 -69 -27q-9 0 -19.5 1.5t-15.5 3.5q-10 5 -17 10.5t-7 8.5q0 4 16 4q13 0 26 7.5t22.5 20t15.5 29t6 33.5q0 31 -21 93q-14 43 -7 73.5t36 43.5
l16 7l-15 16q-6 7 -13 16.5t-11 17.5q-7 13 -8.5 21.5t-1.5 28.5q0 12 0.5 19.5t3 18t8.5 27.5t18 49q4 9 6.5 19t2.5 15q0 13 -6 29.5t-13 22.5q-6 6 -9.5 7t-17.5 -2q-32 -8 -29 5q2 7 12 13t24 8q13 3 28 1.5t29 -5.5t25.5 -11.5t17.5 -16.5q8 -12 9.5 -25.5t0 -27
t-6 -25.5t-8.5 -22q-8 -18 -12.5 -33t-7.5 -28.5t-4 -27.5t0 -30q1 -22 2.5 -31.5t6.5 -20.5q7 -12 11 -15.5t20 -7.5z" />
    <glyph glyph-name="exclamdown" unicode="&#xa1;" horiz-adv-x="97" 
d="M69 405q5 -3 7 -12v-31.5t-0.5 -70.5t-2 -91t-2.5 -93.5t-2 -78t-1 -44.5q-1 -20 -2 -26t-10 -6q-5 0 -11.5 1.5t-11.5 4.5q-7 5 -11 10.5t-6.5 15t-3.5 24t-1 38.5q0 15 1.5 45.5t3.5 67.5t4.5 77t5 73t4.5 55.5t3 25.5q2 6 12.5 10.5t18.5 4.5h5zM84 481q-2 -20 -3 -27
t-5 -10q-7 -5 -16.5 -4t-15.5 6q-5 4 -6.5 10.5t-3.5 24.5q-2 26 2.5 33.5t21.5 7.5q19 0 23.5 -6.5t2.5 -34.5z" />
    <glyph glyph-name="cent" unicode="&#xa2;" horiz-adv-x="274" 
d="M191 526q11 0 29 -7t26 -15q9 -9 13 -20.5t0 -19.5q-2 -6 -7 -6q-13 0 -13 12q0 7 -7 18t-17 11q-9 0 -21 -4.5t-15 -8.5q-1 -2 -2.5 -23t-4 -57.5t-5.5 -85.5t-6 -107q-2 -44 1 -44q2 0 9 6t15 15t16 19t13 18t10.5 17.5t7.5 14.5q6 22 15 3q5 -8 3 -19t-12 -30
q-5 -8 -13.5 -20t-18.5 -23t-19.5 -20t-15.5 -12q-11 -6 -13 -9q-1 -1 -1.5 -12t-1.5 -25q0 -11 -0.5 -22t-8.5 -11q-9 0 -12 3q-2 3 -4 20.5t-2 32.5q0 10 -2 11.5t-13 1.5q-31 0 -58.5 27.5t-38.5 70.5q-3 10 -4 25t-0.5 31.5t2 32.5t4.5 29q11 51 41 96.5t68 69.5l14 9
l3 37q2 24 5.5 34.5t9.5 11.5q4 0 9 -3q3 -2 5 -4t3 -5.5t1.5 -10.5t0.5 -19l2 -34h10zM135 422q2 15 -2 15q-2 0 -7.5 -8.5t-12 -21t-13 -27.5t-10.5 -28q-5 -15 -9.5 -34t-6.5 -33q-5 -40 4.5 -77.5t29.5 -54.5q13 -11 16.5 -7t4.5 32q1 7 1.5 21t1 32t0.5 38.5v40.5
t0.5 39t1 34.5t1 25.5t0.5 13z" />
    <glyph glyph-name="currency" unicode="&#xa4;" horiz-adv-x="320" 
d="M309 489q0 -2 -5.5 -10t-13.5 -16q-14 -16 -15.5 -19.5t3.5 -7.5q8 -8 16.5 -29.5t9.5 -40.5q3 -31 -8 -62t-32 -54l-15 -16l10 -14l8 -10t6 -7q5 -5 4 -10.5t-7 -10.5q-6 -6 -10 -6q-1 0 -6 6t-11 14l-10 15t-6 6q-4 0 -18 -7q-18 -9 -45 -13t-46 -1q-9 2 -19 4.5
t-15 4.5q-12 5 -14 5q-2 -2 -4 -5q-2 -2 -4 -5.5t-4 -6.5q-8 -12 -14.5 -15.5t-15.5 0.5q-11 4 10 30l14 16l-10 11q-27 33 -28 70q-2 31 7 59t28 49l12 13l-15 23q-13 19 -15 27t6 13q10 5 16 2.5t11 -15.5l8 -14t6 -10l5 -7l21 9q69 35 131 10q3 -2 6.5 -2.5t5.5 -1.5
q3 -1 5 -2q2 4 7.5 11t11.5 14.5t11 13t6 5.5q6 0 13.5 -4.5t7.5 -8.5zM271 327q5 20 2 39.5t-12 36.5t-23.5 29.5t-33.5 18.5q-12 3 -22 2q-19 -1 -37.5 -12.5t-33.5 -29.5t-24.5 -41.5t-9.5 -47.5q0 -29 10 -51t27 -35t39 -15t45 10q27 14 46 39t27 57z" />
    <glyph glyph-name="yen" unicode="&#xa5;" horiz-adv-x="304" 
d="M236 221q-3 -19 -1.5 -22t12.5 -3q13 0 22 -3t9 -8q0 -4 -23 -7l-24 -2l-2 -22q-2 -9 -3 -26t-3 -33q-2 -19 -3 -29.5t-2.5 -16t-4.5 -7.5t-7 -3q-11 -4 -14 -4t-6 4q-1 1 -3 16t-3.5 34.5l-3 39t-1.5 30.5q0 4 -4 5t-17 2q-11 1 -17 3t-11 6q-7 7 -4 10q0 2 8 3t19 1
l25 1l3 19v23q-1 1 -8 1.5t-16 0.5q-14 0 -19.5 2t-10.5 7q-7 9 -5 11q1 1 10.5 2t20.5 2l19.5 1.5t9.5 4t3.5 12.5l1.5 27q2 11 4.5 35.5t7.5 48.5q2 12 3 22.5t2 18.5q1 10 2 18q-3 -5 -6 -11q-3 -5 -6 -12.5t-7 -15.5q-27 -60 -49 -89t-45 -36q-22 -5 -40 4.5t-24 37.5
q-11 52 -9 107.5t19 106.5q7 23 14.5 32t21.5 11q15 2 25.5 -2.5t8.5 -11.5l-3.5 -14t-4.5 -21q-10 -39 -16 -79.5t-7.5 -73t1.5 -53.5t11 -21t26.5 27t38.5 69q38 79 57 119t24 54q5 17 13 22t23 0q10 -3 11.5 -5.5t1.5 -16.5q0 -8 -1.5 -24.5t-4.5 -32.5q-4 -23 -9.5 -58
t-10.5 -70t-8.5 -64t-4.5 -40l-3 -27h21q19 0 25 -4q6 -7 1.5 -10t-23.5 -5l-25 -1z" />
    <glyph glyph-name="dieresis" unicode="&#xa8;" horiz-adv-x="154" 
d="M53 404q20 -7 21 -16t-13 -34q-3 -5 -9 -6.5t-12.5 -1t-13.5 4t-11 8.5q-3 5 -3.5 10t3.5 16q6 18 13 21.5t25 -2.5zM124 382q14 -6 17.5 -11t-0.5 -21q-2 -11 -5 -15.5t-8 -7.5q-8 -4 -21 -2t-21 8q-5 4 -4.5 8.5t5.5 19.5q7 20 13 23.5t24 -2.5z" />
    <glyph glyph-name="copyright" unicode="&#xa9;" horiz-adv-x="322" 
d="M203 398q5 13 12 13.5t9 -10.5q0 -3 -3.5 -11t-8.5 -17t-11.5 -17t-10.5 -11q-10 -6 -28.5 -5.5t-29.5 8.5q-13 8 -22.5 27t-11.5 39q-1 18 3 36t12 33.5t19 26.5t23 14q6 2 12 2q10 -1 19.5 -4.5t14.5 -8.5q7 -7 9 -11t0 -14q0 -17 -7 -17q-7 -2 -11.5 4.5t-4.5 15.5
q0 4 -1 7.5t-3 4.5q-4 2 -13 -9t-17 -27q-6 -12 -9.5 -28t-3 -32t5.5 -30t17 -23q3 -2 8.5 2t11.5 11t11.5 15.5t8.5 15.5zM194 567q45 -9 71.5 -37t34.5 -73q4 -23 0 -47t-14.5 -45.5t-27 -40t-35.5 -28.5q-26 -14 -55 -17.5t-54 4.5q-36 11 -59.5 40.5t-30.5 71.5
q-5 34 5 65.5t30 55.5t48.5 38.5t60.5 14.5h13t13 -2zM256 364q13 25 16 53t-3 53t-20.5 45t-35.5 31q-5 4 -11.5 5t-13.5 2q-23 1 -45.5 -13.5t-39.5 -38.5t-26 -54t-4 -60q5 -29 21.5 -51.5t38.5 -32.5q12 -5 31 -4.5t32 6.5q17 7 34 24.5t26 34.5z" />
    <glyph glyph-name="registered" unicode="&#xae;" horiz-adv-x="322" 
d="M235 361q6 -4 3 -6.5t-11 -2.5q-11 1 -31 9.5t-33 19.5l-13 11l-3 -21q-2 -17 -4.5 -18.5t-13.5 -1.5q-7 0 -7.5 4.5t-0.5 12.5l2 43q2 23 3 41.5t1 20.5q2 4 1.5 4t-4.5 -3q-6 -6 -4 -9q2 -5 -5.5 -5t-12.5 4q-13 11 11 32q12 12 31 20t35 8h8q12 -3 24.5 -11t18.5 -19
q7 -12 6 -25.5t-7.5 -26.5t-18 -23.5t-26.5 -14.5l-13 -3l13 -11q8 -8 20 -14.5t31 -14.5zM159 456q-4 -34 -1.5 -37t18.5 15q24 27 26 53q0 9 -1.5 11t-12.5 3h-6q-5 0 -9.5 -1t-7.5 -2q-9 -4 -6 -9q3 -8 0 -33zM225 557q19 -9 36 -25t27 -36q17 -34 11 -76t-31 -80
q-11 -17 -32.5 -32t-37.5 -20q-17 -5 -42.5 -5t-40.5 5q-53 18 -76 74q-11 28 -10 56.5t11.5 54.5t30 47t46.5 34q23 11 52 13.5t56 -10.5zM259 373q11 23 13.5 53t-5.5 59q-9 29 -31.5 48.5t-44.5 19.5q-16 0 -32.5 -8.5t-31.5 -22.5t-26.5 -32.5t-17.5 -39.5
q-5 -17 -6 -41.5t4 -39.5q6 -23 23 -42t37 -26q11 -3 27.5 -1t30.5 8q17 9 33 26t27 39z" />
    <glyph glyph-name="acute" unicode="&#xb4;" horiz-adv-x="133" 
d="M81 407q3 2 10 2t14 -2t12.5 -5t5.5 -6q0 -2 -11.5 -13t-25.5 -24t-26.5 -24t-15.5 -12q-9 -2 -15 0q-14 2 -11 10t27 36q13 14 23.5 25.5t12.5 12.5z" />
    <glyph glyph-name="cedilla" unicode="&#xb8;" horiz-adv-x="144" 
d="M78 -36q13 0 26.5 -6.5t18.5 -14.5q4 -8 3 -16.5t-6 -17t-13.5 -14.5t-18.5 -7q-36 -6 -54 -3q-11 2 -17.5 6t-6.5 9q0 3 9 2.5t15 -3.5q5 -5 20 -1q8 2 11.5 5.5t8.5 13.5q10 19 7 24t-25 7q-24 1 -29 6q-4 10 24 43q26 26 40 13q3 -4 1 -7.5t-16 -22.5l-11 -15l13 -1v0
z" />
    <glyph glyph-name="questiondown" unicode="&#xbf;" horiz-adv-x="359" 
d="M204 470q-6 5 -10 20.5t-4 29.5q0 19 21 19h7q16 -3 20.5 -9.5t3.5 -26.5q-1 -39 -22 -39q-10 0 -16 6zM327 160q22 -12 22 -48q0 -20 -11 -41.5t-29 -41.5t-42.5 -37.5t-52.5 -28.5q-16 -6 -34 -10.5t-35.5 -6t-33 -1t-27.5 4.5q-14 5 -30.5 16.5t-23.5 22.5
q-11 14 -15 35t-1 38q7 44 81 146q92 127 101 202q2 13 5 15.5t14 2.5q17 -1 21.5 -9t4.5 -39q0 -26 -4.5 -45.5t-14.5 -39.5q-3 -7 -14.5 -25t-26 -39t-29 -42.5t-24.5 -34.5q-11 -14 -18.5 -24.5t-13 -19.5t-9.5 -18.5t-8 -20.5q-18 -50 -2 -82q7 -13 23.5 -16t36.5 1
t40 11.5t35 15.5q12 6 24.5 16t23.5 21.5t20 23.5t14 22q7 13 9 22t2 29q0 25 3 29t19 -4z" />
    <glyph glyph-name="Agrave" unicode="&#xc0;" horiz-adv-x="507" 
d="M474 206q11 -4 12 -15q1 -8 -0.5 -9.5t-11.5 -1.5h-13l-1 -24q-4 -142 -7 -212t-5 -76q-4 -14 -14.5 -22t-24.5 -10q-17 -1 -25 5q-5 5 -5.5 9t1.5 18q1 4 1.5 19.5t1.5 38.5t1.5 52t0.5 60l2 149l-79 -2q-33 -1 -65.5 -3t-44.5 -3q-11 -2 -17.5 -3t-9.5 -2.5t-4 -3.5
t-2 -6q-1 -6 -1.5 -26t0 -44.5t1.5 -48t2 -36.5q3 -29 7 -49t9 -30t2.5 -13t-16.5 -3q-17 0 -30 6t-17 15q-5 15 -8 51t-2 95q1 33 1 57t-2 24q-3 0 -10.5 -2.5t-16.5 -6t-17.5 -7t-12.5 -5.5q-11 -6 -15 -17q-6 -18 -16 1q-5 9 -4 21t6 22q8 13 32 24t52 16l12 2l14 56
q6 25 12.5 46.5t13.5 41t15 39t19 40.5q37 75 73 115t67 40q6 0 15.5 -3t19 -8t17.5 -10.5t13 -11.5q28 -33 43 -99.5t18 -173.5l3 -71zM388 254q1 19 1.5 55t-0.5 74t-3 70.5t-4 46.5q-5 29 -12.5 45.5t-16.5 18.5h-8q-15 -2 -31.5 -17.5t-40.5 -48.5q-12 -17 -24.5 -39.5
t-24 -47.5t-21 -51t-15.5 -49q-2 -9 -5 -23l-6 -28t-5 -25.5t-2 -14.5q0 -1 8.5 -1.5t23.5 -0.5t34.5 0.5t41.5 0.5l107 2zM327 719q8 0 17.5 -11t26.5 -40q11 -20 13.5 -26.5t-2.5 -11.5q-7 -6 -15.5 -3t-21.5 17q-7 8 -15 18t-15 19.5t-11.5 16.5t-4.5 9q0 4 9.5 8t18.5 4
z" />
    <glyph glyph-name="Aacute" unicode="&#xc1;" horiz-adv-x="507" 
d="M474 206q11 -4 12 -15q1 -8 -0.5 -9.5t-11.5 -1.5h-13l-1 -24q-4 -142 -7 -212t-5 -76q-4 -14 -14.5 -22t-24.5 -10q-17 -1 -25 5q-5 5 -5.5 9t1.5 18q1 4 1.5 19.5t1.5 38.5t1.5 52t0.5 60l2 149l-79 -2q-33 -1 -65.5 -3t-44.5 -3q-11 -2 -17.5 -3t-9.5 -2.5t-4 -3.5
t-2 -6q-1 -6 -1.5 -26t0 -44.5t1.5 -48t2 -36.5q3 -29 7 -49t9 -30t2.5 -13t-16.5 -3q-17 0 -30 6t-17 15q-5 15 -8 51t-2 95q1 33 1 57t-2 24q-3 0 -10.5 -2.5t-16.5 -6t-17.5 -7t-12.5 -5.5q-11 -6 -15 -17q-6 -18 -16 1q-5 9 -4 21t6 22q8 13 32 24t52 16l12 2l14 56
q6 25 12.5 46.5t13.5 41t15 39t19 40.5q37 75 73 115t67 40q6 0 15.5 -3t19 -8t17.5 -10.5t13 -11.5q28 -33 43 -99.5t18 -173.5l3 -71zM388 254q1 19 1.5 55t-0.5 74t-3 70.5t-4 46.5q-5 29 -12.5 45.5t-16.5 18.5h-8q-15 -2 -31.5 -17.5t-40.5 -48.5q-12 -17 -24.5 -39.5
t-24 -47.5t-21 -51t-15.5 -49q-2 -9 -5 -23l-6 -28t-5 -25.5t-2 -14.5q0 -1 8.5 -1.5t23.5 -0.5t34.5 0.5t41.5 0.5l107 2zM356 694q3 2 10 2t14 -2t12.5 -5t5.5 -6q0 -2 -11.5 -13t-25.5 -24t-26.5 -24t-15.5 -12q-9 -2 -15 0q-14 2 -11 10t27 36q13 14 23.5 25.5
t12.5 12.5z" />
    <glyph glyph-name="Acircumflex" unicode="&#xc2;" horiz-adv-x="507" 
d="M474 206q11 -4 12 -15q1 -8 -0.5 -9.5t-11.5 -1.5h-13l-1 -24q-4 -142 -7 -212t-5 -76q-4 -14 -14.5 -22t-24.5 -10q-17 -1 -25 5q-5 5 -5.5 9t1.5 18q1 4 1.5 19.5t1.5 38.5t1.5 52t0.5 60l2 149l-79 -2q-33 -1 -65.5 -3t-44.5 -3q-11 -2 -17.5 -3t-9.5 -2.5t-4 -3.5
t-2 -6q-1 -6 -1.5 -26t0 -44.5t1.5 -48t2 -36.5q3 -29 7 -49t9 -30t2.5 -13t-16.5 -3q-17 0 -30 6t-17 15q-5 15 -8 51t-2 95q1 33 1 57t-2 24q-3 0 -10.5 -2.5t-16.5 -6t-17.5 -7t-12.5 -5.5q-11 -6 -15 -17q-6 -18 -16 1q-5 9 -4 21t6 22q8 13 32 24t52 16l12 2l14 56
q6 25 12.5 46.5t13.5 41t15 39t19 40.5q37 75 73 115t67 40q6 0 15.5 -3t19 -8t17.5 -10.5t13 -11.5q28 -33 43 -99.5t18 -173.5l3 -71zM388 254q1 19 1.5 55t-0.5 74t-3 70.5t-4 46.5q-5 29 -12.5 45.5t-16.5 18.5h-8q-15 -2 -31.5 -17.5t-40.5 -48.5q-12 -17 -24.5 -39.5
t-24 -47.5t-21 -51t-15.5 -49q-2 -9 -5 -23l-6 -28t-5 -25.5t-2 -14.5q0 -1 8.5 -1.5t23.5 -0.5t34.5 0.5t41.5 0.5l107 2zM347 687q10 2 21 -4t17 -17q3 -5 7 -15t7.5 -21t6 -20t1.5 -12q-2 -10 -15.5 -11.5t-20.5 9.5q-2 2 -6 13l-8 22l-11 30l-11 -11q-5 -4 -12.5 -11.5
l-14.5 -14.5q-9 -10 -14 -13t-10 -1q-4 0 -7.5 1.5t-4.5 4.5t8.5 13.5t22.5 23t25.5 22.5t18.5 12z" />
    <glyph glyph-name="Atilde" unicode="&#xc3;" horiz-adv-x="507" 
d="M474 206q11 -4 12 -15q1 -8 -0.5 -9.5t-11.5 -1.5h-13l-1 -24q-4 -142 -7 -212t-5 -76q-4 -14 -14.5 -22t-24.5 -10q-17 -1 -25 5q-5 5 -5.5 9t1.5 18q1 4 1.5 19.5t1.5 38.5t1.5 52t0.5 60l2 149l-79 -2q-33 -1 -65.5 -3t-44.5 -3q-11 -2 -17.5 -3t-9.5 -2.5t-4 -3.5
t-2 -6q-1 -6 -1.5 -26t0 -44.5t1.5 -48t2 -36.5q3 -29 7 -49t9 -30t2.5 -13t-16.5 -3q-17 0 -30 6t-17 15q-5 15 -8 51t-2 95q1 33 1 57t-2 24q-3 0 -10.5 -2.5t-16.5 -6t-17.5 -7t-12.5 -5.5q-11 -6 -15 -17q-6 -18 -16 1q-5 9 -4 21t6 22q8 13 32 24t52 16l12 2l14 56
q6 25 12.5 46.5t13.5 41t15 39t19 40.5q37 75 73 115t67 40q6 0 15.5 -3t19 -8t17.5 -10.5t13 -11.5q28 -33 43 -99.5t18 -173.5l3 -71zM388 254q1 19 1.5 55t-0.5 74t-3 70.5t-4 46.5q-5 29 -12.5 45.5t-16.5 18.5h-8q-15 -2 -31.5 -17.5t-40.5 -48.5q-12 -17 -24.5 -39.5
t-24 -47.5t-21 -51t-15.5 -49q-2 -9 -5 -23l-6 -28t-5 -25.5t-2 -14.5q0 -1 8.5 -1.5t23.5 -0.5t34.5 0.5t41.5 0.5l107 2zM408 672q10 -1 9 -13q-2 -14 -10.5 -26.5t-17.5 -17.5q-12 -6 -28.5 -0.5t-26.5 18.5q-10 14 -12 31q-2 14 -3 16t-6 -3q-2 -3 -5.5 -8.5t-5.5 -10.5
q-9 -23 -20 -12q-6 6 -1.5 20t13.5 25q13 13 31 11.5t30 -15.5q2 -3 6 -11.5t8 -17.5q6 -20 11 -20t12 19q5 12 7.5 14t8.5 1z" />
    <glyph glyph-name="Adieresis" unicode="&#xc4;" horiz-adv-x="507" 
d="M474 206q11 -4 12 -15q1 -8 -0.5 -9.5t-11.5 -1.5h-13l-1 -24q-4 -142 -7 -212t-5 -76q-4 -14 -14.5 -22t-24.5 -10q-17 -1 -25 5q-5 5 -5.5 9t1.5 18q1 4 1.5 19.5t1.5 38.5t1.5 52t0.5 60l2 149l-79 -2q-33 -1 -65.5 -3t-44.5 -3q-11 -2 -17.5 -3t-9.5 -2.5t-4 -3.5
t-2 -6q-1 -6 -1.5 -26t0 -44.5t1.5 -48t2 -36.5q3 -29 7 -49t9 -30t2.5 -13t-16.5 -3q-17 0 -30 6t-17 15q-5 15 -8 51t-2 95q1 33 1 57t-2 24q-3 0 -10.5 -2.5t-16.5 -6t-17.5 -7t-12.5 -5.5q-11 -6 -15 -17q-6 -18 -16 1q-5 9 -4 21t6 22q8 13 32 24t52 16l12 2l14 56
q6 25 12.5 46.5t13.5 41t15 39t19 40.5q37 75 73 115t67 40q6 0 15.5 -3t19 -8t17.5 -10.5t13 -11.5q28 -33 43 -99.5t18 -173.5l3 -71zM388 254q1 19 1.5 55t-0.5 74t-3 70.5t-4 46.5q-5 29 -12.5 45.5t-16.5 18.5h-8q-15 -2 -31.5 -17.5t-40.5 -48.5q-12 -17 -24.5 -39.5
t-24 -47.5t-21 -51t-15.5 -49q-2 -9 -5 -23l-6 -28t-5 -25.5t-2 -14.5q0 -1 8.5 -1.5t23.5 -0.5t34.5 0.5t41.5 0.5l107 2zM325 693q20 -7 21 -16t-13 -34q-3 -5 -9 -6.5t-12.5 -1t-13.5 4t-11 8.5q-3 5 -3.5 10t3.5 16q6 18 13 21.5t25 -2.5zM396 671q14 -6 17.5 -11
t-0.5 -21q-2 -11 -5 -15.5t-8 -7.5q-8 -4 -21 -2t-21 8q-5 4 -4.5 8.5t5.5 19.5q7 20 13 23.5t24 -2.5z" />
    <glyph glyph-name="Aring" unicode="&#xc5;" horiz-adv-x="507" 
d="M474 206q11 -4 12 -15q1 -8 -0.5 -9.5t-11.5 -1.5h-13l-1 -24q-4 -142 -7 -212t-5 -76q-4 -14 -14.5 -22t-24.5 -10q-17 -1 -25 5q-5 5 -5.5 9t1.5 18q1 4 1.5 19.5t1.5 38.5t1.5 52t0.5 60l2 149l-79 -2q-33 -1 -65.5 -3t-44.5 -3q-11 -2 -17.5 -3t-9.5 -2.5t-4 -3.5
t-2 -6q-1 -6 -1.5 -26t0 -44.5t1.5 -48t2 -36.5q3 -29 7 -49t9 -30t2.5 -13t-16.5 -3q-17 0 -30 6t-17 15q-5 15 -8 51t-2 95q1 33 1 57t-2 24q-3 0 -10.5 -2.5t-16.5 -6t-17.5 -7t-12.5 -5.5q-11 -6 -15 -17q-6 -18 -16 1q-5 9 -4 21t6 22q8 13 32 24t52 16l12 2l14 56
q6 25 12.5 46.5t13.5 41t15 39t19 40.5q37 75 73 115t67 40q6 0 15.5 -3t19 -8t17.5 -10.5t13 -11.5q28 -33 43 -99.5t18 -173.5l3 -71zM388 254q1 19 1.5 55t-0.5 74t-3 70.5t-4 46.5q-5 29 -12.5 45.5t-16.5 18.5h-8q-15 -2 -31.5 -17.5t-40.5 -48.5q-12 -17 -24.5 -39.5
t-24 -47.5t-21 -51t-15.5 -49q-2 -9 -5 -23l-6 -28t-5 -25.5t-2 -14.5q0 -1 8.5 -1.5t23.5 -0.5t34.5 0.5t41.5 0.5l107 2zM347 727q19 -1 33 -12t14 -31q0 -41 -42 -55q-14 -4 -20.5 -4t-18.5 3q-5 2 -10 5.5t-10 8.5q-11 11 -11 28t11 31q10 14 25 20.5t29 5.5zM350 644
q16 8 21.5 24.5t-3.5 31.5q-7 15 -21 13q-14 -1 -25 -17q-11 -17 -5.5 -35.5t21.5 -22.5q3 0 12 6z" />
    <glyph glyph-name="AE" unicode="&#xc6;" horiz-adv-x="770" 
d="M474 206q11 -4 12 -15q1 -8 -0.5 -9.5t-11.5 -1.5h-13l-1 -24q-4 -142 -7 -212t-5 -76q-4 -14 -14.5 -22t-24.5 -10q-17 -1 -25 5q-5 5 -5.5 9t1.5 18q1 4 1.5 19.5t1.5 38.5t1.5 52t0.5 60l2 149l-79 -2q-33 -1 -65.5 -3t-44.5 -3q-11 -2 -17.5 -3t-9.5 -2.5t-4 -3.5
t-2 -6q-1 -6 -1.5 -26t0 -44.5t1.5 -48t2 -36.5q3 -29 7 -49t9 -30t2.5 -13t-16.5 -3q-17 0 -30 6t-17 15q-5 15 -8 51t-2 95q1 33 1 57t-2 24q-3 0 -10.5 -2.5t-16.5 -6t-17.5 -7t-12.5 -5.5q-11 -6 -15 -17q-6 -18 -16 1q-5 9 -4 21t6 22q8 13 32 24t52 16l12 2l14 56
q6 25 12.5 46.5t13.5 41t15 39t19 40.5q37 75 73 115t67 40q6 0 15.5 -3t19 -8t17.5 -10.5t13 -11.5q28 -33 43 -99.5t18 -173.5l3 -71zM388 254q1 19 1.5 55t-0.5 74t-3 70.5t-4 46.5q-5 29 -12.5 45.5t-16.5 18.5h-8q-15 -2 -31.5 -17.5t-40.5 -48.5q-12 -17 -24.5 -39.5
t-24 -47.5t-21 -51t-15.5 -49q-2 -9 -5 -23l-6 -28t-5 -25.5t-2 -14.5q0 -1 8.5 -1.5t23.5 -0.5t34.5 0.5t41.5 0.5l107 2zM364 490q-5 2 -7.5 15.5t-0.5 21.5q2 14 10.5 22.5t27.5 16.5q22 10 44 16t60 12q29 4 66.5 4.5t73 -2.5t64.5 -8.5t41 -12.5q17 -9 24 -26t0 -30
q-5 -8 -8 -4q-9 7 -37.5 13t-64.5 9.5t-74.5 4t-67.5 -2.5l-23 -3v-15q0 -5 -2.5 -27t-4.5 -47q-3 -22 -6.5 -56.5t-6.5 -68t-5.5 -59.5t-2.5 -30q0 -2 1.5 -3.5t9 -1.5h22t40.5 1q38 2 59 1t29 -3q9 -2 16 -8t10 -12.5t1.5 -12t-8.5 -7.5q-4 -1 -32 -2t-64 -2l-86 -3v-74
q-1 -61 3 -101.5t13 -68.5q11 -31 26.5 -39t50.5 1q25 6 53.5 21t52 32t38.5 34t13 27q-1 5 0.5 6.5t8.5 1.5q18 0 27.5 -18t2.5 -35q-8 -16 -29.5 -32.5t-50 -30t-60.5 -23t-61 -10.5q-12 -1 -26 -0.5t-21 1.5q-8 2 -16 4.5t-13 4.5q-9 5 -21.5 19t-18.5 27q-8 16 -16 40.5
t-14 54.5t-10.5 63.5t-6.5 66.5l-3 37h-10q-10 0 -15 8q-5 9 -2.5 12.5t14.5 3.5t14.5 5.5t2.5 28.5q0 35 6.5 89.5t19.5 128.5q4 21 6.5 36t1.5 16t-6 -0.5t-12 -4.5t-14 -7t-11 -8q-11 -9 -15 -7z" />
    <glyph glyph-name="Ccedilla" unicode="&#xc7;" horiz-adv-x="493" 
d="M84 -90q-15 18 -27 37t-20.5 44t-13.5 57t-5 74q0 23 1 40.5t3 34t5 33.5t8 39q14 64 44.5 122.5t70.5 103t86.5 71t91.5 26.5q22 0 43.5 -8t39 -21.5t28 -31.5t10.5 -39q0 -35 -9.5 -64.5t-23.5 -51t-30 -34t-29 -12.5q-4 0 -10.5 2t-12.5 5t-10 7t-4 7q0 7 17 16
q26 17 43.5 56t17.5 86q0 48 -34 48q-30 0 -66 -21t-70 -55.5t-63 -80t-46 -94.5t-25 -96t-8 -96q0 -51 9 -95t25.5 -76.5t39 -51t48.5 -18.5q47 0 88.5 23.5t72.5 57.5t49 72.5t18 69.5q0 11 -4 17t-4 8q0 4 9 4q14 0 21.5 -13t7.5 -32q0 -56 -23 -99.5t-58.5 -74.5
t-77.5 -47t-79 -16q-35 0 -72.5 14.5t-71.5 52.5zM163 -174q13 0 26.5 -6.5t18.5 -14.5q4 -8 3 -16.5t-6 -17t-13.5 -14.5t-18.5 -7q-36 -6 -54 -3q-11 2 -17.5 6t-6.5 9q0 3 9 2.5t15 -3.5q5 -5 20 -1q8 2 11.5 5.5t8.5 13.5q10 19 7 24t-25 7q-24 1 -29 6q-4 10 24 43
q26 26 40 13q3 -4 1 -7.5t-16 -22.5l-11 -15l13 -1v0z" />
    <glyph glyph-name="Egrave" unicode="&#xc8;" horiz-adv-x="453" 
d="M31 480q-5 2 -7.5 15.5t-0.5 21.5q2 14 10.5 22.5t27.5 16.5q22 10 44 16t60 12q29 4 66.5 4.5t73 -2.5t64.5 -8.5t41 -12.5q17 -9 24 -26t0 -30q-5 -8 -8 -4q-9 7 -37.5 13t-64.5 9.5t-74.5 4t-67.5 -2.5l-23 -3v-15q0 -5 -2.5 -27t-4.5 -47q-3 -22 -6.5 -56.5t-6.5 -68
t-5.5 -59.5t-2.5 -30q0 -2 1.5 -3.5t9 -1.5h22t40.5 1q38 2 59 1t29 -3q9 -2 16 -8t10 -12.5t1.5 -12t-8.5 -7.5q-4 -1 -32 -2t-64 -2l-86 -3v-74q-1 -61 3 -101.5t13 -68.5q11 -31 26.5 -39t50.5 1q25 6 53.5 21t52 32t38.5 34t13 27q-1 5 0.5 6.5t8.5 1.5q18 0 27.5 -18
t2.5 -35q-8 -16 -29.5 -32.5t-50 -30t-60.5 -23t-61 -10.5q-12 -1 -26 -0.5t-21 1.5q-8 2 -16 4.5t-13 4.5q-9 5 -21.5 19t-18.5 27q-8 16 -16 40.5t-14 54.5t-10.5 63.5t-6.5 66.5l-3 37h-10q-10 0 -15 8q-5 9 -2.5 12.5t14.5 3.5t14.5 5.5t2.5 28.5q0 35 6.5 89.5
t19.5 128.5q4 21 6.5 36t1.5 16t-6 -0.5t-12 -4.5t-14 -7t-11 -8q-11 -9 -15 -7zM210 704q8 0 17.5 -11t26.5 -40q11 -20 13.5 -26.5t-2.5 -11.5q-7 -6 -15.5 -3t-21.5 17q-7 8 -15 18t-15 19.5t-11.5 16.5t-4.5 9q0 4 9.5 8t18.5 4z" />
    <glyph glyph-name="Eacute" unicode="&#xc9;" horiz-adv-x="453" 
d="M31 480q-5 2 -7.5 15.5t-0.5 21.5q2 14 10.5 22.5t27.5 16.5q22 10 44 16t60 12q29 4 66.5 4.5t73 -2.5t64.5 -8.5t41 -12.5q17 -9 24 -26t0 -30q-5 -8 -8 -4q-9 7 -37.5 13t-64.5 9.5t-74.5 4t-67.5 -2.5l-23 -3v-15q0 -5 -2.5 -27t-4.5 -47q-3 -22 -6.5 -56.5t-6.5 -68
t-5.5 -59.5t-2.5 -30q0 -2 1.5 -3.5t9 -1.5h22t40.5 1q38 2 59 1t29 -3q9 -2 16 -8t10 -12.5t1.5 -12t-8.5 -7.5q-4 -1 -32 -2t-64 -2l-86 -3v-74q-1 -61 3 -101.5t13 -68.5q11 -31 26.5 -39t50.5 1q25 6 53.5 21t52 32t38.5 34t13 27q-1 5 0.5 6.5t8.5 1.5q18 0 27.5 -18
t2.5 -35q-8 -16 -29.5 -32.5t-50 -30t-60.5 -23t-61 -10.5q-12 -1 -26 -0.5t-21 1.5q-8 2 -16 4.5t-13 4.5q-9 5 -21.5 19t-18.5 27q-8 16 -16 40.5t-14 54.5t-10.5 63.5t-6.5 66.5l-3 37h-10q-10 0 -15 8q-5 9 -2.5 12.5t14.5 3.5t14.5 5.5t2.5 28.5q0 35 6.5 89.5
t19.5 128.5q4 21 6.5 36t1.5 16t-6 -0.5t-12 -4.5t-14 -7t-11 -8q-11 -9 -15 -7zM241 693q3 2 10 2t14 -2t12.5 -5t5.5 -6q0 -2 -11.5 -13t-25.5 -24t-26.5 -24t-15.5 -12q-9 -2 -15 0q-14 2 -11 10t27 36q13 14 23.5 25.5t12.5 12.5z" />
    <glyph glyph-name="Ecircumflex" unicode="&#xca;" horiz-adv-x="453" 
d="M31 480q-5 2 -7.5 15.5t-0.5 21.5q2 14 10.5 22.5t27.5 16.5q22 10 44 16t60 12q29 4 66.5 4.5t73 -2.5t64.5 -8.5t41 -12.5q17 -9 24 -26t0 -30q-5 -8 -8 -4q-9 7 -37.5 13t-64.5 9.5t-74.5 4t-67.5 -2.5l-23 -3v-15q0 -5 -2.5 -27t-4.5 -47q-3 -22 -6.5 -56.5t-6.5 -68
t-5.5 -59.5t-2.5 -30q0 -2 1.5 -3.5t9 -1.5h22t40.5 1q38 2 59 1t29 -3q9 -2 16 -8t10 -12.5t1.5 -12t-8.5 -7.5q-4 -1 -32 -2t-64 -2l-86 -3v-74q-1 -61 3 -101.5t13 -68.5q11 -31 26.5 -39t50.5 1q25 6 53.5 21t52 32t38.5 34t13 27q-1 5 0.5 6.5t8.5 1.5q18 0 27.5 -18
t2.5 -35q-8 -16 -29.5 -32.5t-50 -30t-60.5 -23t-61 -10.5q-12 -1 -26 -0.5t-21 1.5q-8 2 -16 4.5t-13 4.5q-9 5 -21.5 19t-18.5 27q-8 16 -16 40.5t-14 54.5t-10.5 63.5t-6.5 66.5l-3 37h-10q-10 0 -15 8q-5 9 -2.5 12.5t14.5 3.5t14.5 5.5t2.5 28.5q0 35 6.5 89.5
t19.5 128.5q4 21 6.5 36t1.5 16t-6 -0.5t-12 -4.5t-14 -7t-11 -8q-11 -9 -15 -7zM231 704q10 2 21 -4t17 -17q3 -5 7 -15t7.5 -21t6 -20t1.5 -12q-2 -10 -15.5 -11.5t-20.5 9.5q-2 2 -6 13l-8 22l-11 30l-11 -11q-5 -4 -12.5 -11.5l-14.5 -14.5q-9 -10 -14 -13t-10 -1
q-4 0 -7.5 1.5t-4.5 4.5t8.5 13.5t22.5 23t25.5 22.5t18.5 12z" />
    <glyph glyph-name="Edieresis" unicode="&#xcb;" horiz-adv-x="453" 
d="M31 480q-5 2 -7.5 15.5t-0.5 21.5q2 14 10.5 22.5t27.5 16.5q22 10 44 16t60 12q29 4 66.5 4.5t73 -2.5t64.5 -8.5t41 -12.5q17 -9 24 -26t0 -30q-5 -8 -8 -4q-9 7 -37.5 13t-64.5 9.5t-74.5 4t-67.5 -2.5l-23 -3v-15q0 -5 -2.5 -27t-4.5 -47q-3 -22 -6.5 -56.5t-6.5 -68
t-5.5 -59.5t-2.5 -30q0 -2 1.5 -3.5t9 -1.5h22t40.5 1q38 2 59 1t29 -3q9 -2 16 -8t10 -12.5t1.5 -12t-8.5 -7.5q-4 -1 -32 -2t-64 -2l-86 -3v-74q-1 -61 3 -101.5t13 -68.5q11 -31 26.5 -39t50.5 1q25 6 53.5 21t52 32t38.5 34t13 27q-1 5 0.5 6.5t8.5 1.5q18 0 27.5 -18
t2.5 -35q-8 -16 -29.5 -32.5t-50 -30t-60.5 -23t-61 -10.5q-12 -1 -26 -0.5t-21 1.5q-8 2 -16 4.5t-13 4.5q-9 5 -21.5 19t-18.5 27q-8 16 -16 40.5t-14 54.5t-10.5 63.5t-6.5 66.5l-3 37h-10q-10 0 -15 8q-5 9 -2.5 12.5t14.5 3.5t14.5 5.5t2.5 28.5q0 35 6.5 89.5
t19.5 128.5q4 21 6.5 36t1.5 16t-6 -0.5t-12 -4.5t-14 -7t-11 -8q-11 -9 -15 -7zM202 704q20 -7 21 -16t-13 -34q-3 -5 -9 -6.5t-12.5 -1t-13.5 4t-11 8.5q-3 5 -3.5 10t3.5 16q6 18 13 21.5t25 -2.5zM273 682q14 -6 17.5 -11t-0.5 -21q-2 -11 -5 -15.5t-8 -7.5
q-8 -4 -21 -2t-21 8q-5 4 -4.5 8.5t5.5 19.5q7 20 13 23.5t24 -2.5z" />
    <glyph glyph-name="Igrave" unicode="&#xcc;" horiz-adv-x="236" 
d="M43 510q-8 -5 -10 -4.5t-7 6.5q-8 9 -7 22t9 19q20 16 67 24.5t106 6.5q20 -1 39 -2.5t24 -3.5q11 -4 17.5 -12t4.5 -15q-2 -4 -7.5 -5t-31.5 1h-30t-21 -2l-14 -2l-3 -18q-15 -118 -22 -230t-8 -231l-1 -124l29 -2q76 -4 76 -29q0 -2 -12 -4t-33 -4q-26 -2 -52 -6
t-49 -9t-41.5 -11t-29.5 -12q-1 -1 -3.5 1.5t-4.5 5.5q-6 9 -7.5 18.5t2.5 15.5q4 7 15.5 12.5t35.5 11.5q12 2 20.5 4.5t9.5 3.5q-1 9 -2 19q-1 8 -2.5 19t-3.5 24q-4 34 -7 76.5t-5 85.5t-2 83.5t2 72.5q2 27 4.5 55.5t5.5 54.5t6.5 47.5t6.5 33.5q2 8 3 15t0 7
q-1 1 -10 -1t-20.5 -5.5t-22.5 -7t-14 -5.5zM135 701q8 0 17.5 -11t26.5 -40q11 -20 13.5 -26.5t-2.5 -11.5q-7 -6 -15.5 -3t-21.5 17q-7 8 -15 18t-15 19.5t-11.5 16.5t-4.5 9q0 4 9.5 8t18.5 4z" />
    <glyph glyph-name="Iacute" unicode="&#xcd;" horiz-adv-x="236" 
d="M43 510q-8 -5 -10 -4.5t-7 6.5q-8 9 -7 22t9 19q20 16 67 24.5t106 6.5q20 -1 39 -2.5t24 -3.5q11 -4 17.5 -12t4.5 -15q-2 -4 -7.5 -5t-31.5 1h-30t-21 -2l-14 -2l-3 -18q-15 -118 -22 -230t-8 -231l-1 -124l29 -2q76 -4 76 -29q0 -2 -12 -4t-33 -4q-26 -2 -52 -6
t-49 -9t-41.5 -11t-29.5 -12q-1 -1 -3.5 1.5t-4.5 5.5q-6 9 -7.5 18.5t2.5 15.5q4 7 15.5 12.5t35.5 11.5q12 2 20.5 4.5t9.5 3.5q-1 9 -2 19q-1 8 -2.5 19t-3.5 24q-4 34 -7 76.5t-5 85.5t-2 83.5t2 72.5q2 27 4.5 55.5t5.5 54.5t6.5 47.5t6.5 33.5q2 8 3 15t0 7
q-1 1 -10 -1t-20.5 -5.5t-22.5 -7t-14 -5.5zM156 697q3 2 10 2t14 -2t12.5 -5t5.5 -6q0 -2 -11.5 -13t-25.5 -24t-26.5 -24t-15.5 -12q-9 -2 -15 0q-14 2 -11 10t27 36q13 14 23.5 25.5t12.5 12.5z" />
    <glyph glyph-name="Icircumflex" unicode="&#xce;" horiz-adv-x="236" 
d="M43 510q-8 -5 -10 -4.5t-7 6.5q-8 9 -7 22t9 19q20 16 67 24.5t106 6.5q20 -1 39 -2.5t24 -3.5q11 -4 17.5 -12t4.5 -15q-2 -4 -7.5 -5t-31.5 1h-30t-21 -2l-14 -2l-3 -18q-15 -118 -22 -230t-8 -231l-1 -124l29 -2q76 -4 76 -29q0 -2 -12 -4t-33 -4q-26 -2 -52 -6
t-49 -9t-41.5 -11t-29.5 -12q-1 -1 -3.5 1.5t-4.5 5.5q-6 9 -7.5 18.5t2.5 15.5q4 7 15.5 12.5t35.5 11.5q12 2 20.5 4.5t9.5 3.5q-1 9 -2 19q-1 8 -2.5 19t-3.5 24q-4 34 -7 76.5t-5 85.5t-2 83.5t2 72.5q2 27 4.5 55.5t5.5 54.5t6.5 47.5t6.5 33.5q2 8 3 15t0 7
q-1 1 -10 -1t-20.5 -5.5t-22.5 -7t-14 -5.5zM150 698q10 2 21 -4t17 -17q3 -5 7 -15t7.5 -21t6 -20t1.5 -12q-2 -10 -15.5 -11.5t-20.5 9.5q-2 2 -6 13l-8 22l-11 30l-11 -11q-5 -4 -12.5 -11.5l-14.5 -14.5q-9 -10 -14 -13t-10 -1q-4 0 -7.5 1.5t-4.5 4.5t8.5 13.5t22.5 23
t25.5 22.5t18.5 12z" />
    <glyph glyph-name="Idieresis" unicode="&#xcf;" horiz-adv-x="236" 
d="M43 510q-8 -5 -10 -4.5t-7 6.5q-8 9 -7 22t9 19q20 16 67 24.5t106 6.5q20 -1 39 -2.5t24 -3.5q11 -4 17.5 -12t4.5 -15q-2 -4 -7.5 -5t-31.5 1h-30t-21 -2l-14 -2l-3 -18q-15 -118 -22 -230t-8 -231l-1 -124l29 -2q76 -4 76 -29q0 -2 -12 -4t-33 -4q-26 -2 -52 -6
t-49 -9t-41.5 -11t-29.5 -12q-1 -1 -3.5 1.5t-4.5 5.5q-6 9 -7.5 18.5t2.5 15.5q4 7 15.5 12.5t35.5 11.5q12 2 20.5 4.5t9.5 3.5q-1 9 -2 19q-1 8 -2.5 19t-3.5 24q-4 34 -7 76.5t-5 85.5t-2 83.5t2 72.5q2 27 4.5 55.5t5.5 54.5t6.5 47.5t6.5 33.5q2 8 3 15t0 7
q-1 1 -10 -1t-20.5 -5.5t-22.5 -7t-14 -5.5zM134 700q20 -7 21 -16t-13 -34q-3 -5 -9 -6.5t-12.5 -1t-13.5 4t-11 8.5q-3 5 -3.5 10t3.5 16q6 18 13 21.5t25 -2.5zM205 678q14 -6 17.5 -11t-0.5 -21q-2 -11 -5 -15.5t-8 -7.5q-8 -4 -21 -2t-21 8q-5 4 -4.5 8.5t5.5 19.5
q7 20 13 23.5t24 -2.5z" />
    <glyph glyph-name="Eth" unicode="&#xd0;" horiz-adv-x="554" 
d="M45 404q-11 5 -19 14t-8 15q0 4 3.5 13t9.5 18.5t13 19.5t14 18q16 17 39 33.5t48 28.5q27 13 57.5 19t62.5 5t63 -8t59 -21q54 -27 86.5 -64.5t49.5 -90.5q4 -12 6.5 -30.5t3 -39.5t-0.5 -41.5t-4 -37.5q-25 -150 -135 -258q-127 -127 -236 -133q-20 -2 -27.5 -1
t-15.5 5q-29 16 12 19q7 1 18 3.5t21 5.5t17.5 5.5t7.5 3.5q-1 2 -2 5q-1 2 -2.5 5.5t-2.5 7.5q-13 34 -30 154q-3 22 -5 37.5t-2.5 29t-0.5 28.5t1 38q1 35 5.5 76.5t10.5 82t13.5 76t15.5 59.5q3 11 5 18t0 7q-4 0 -15.5 -5.5t-25.5 -14t-27.5 -18t-21.5 -16.5
q-17 -16 -30 -37t-13 -32q0 -6 -3.5 -6.5t-14.5 4.5zM219 175q-6 -71 -5 -134t9 -102q1 -11 6.5 -9.5t31.5 19.5q13 9 28 21.5t30 27t28 28.5t22 26q22 30 39.5 66t30 76t19.5 81.5t7 81.5q0 66 -19.5 105.5t-64.5 60.5q-12 5 -26 10t-22 7q-11 2 -25 3t-28 1q-22 0 -35 -2
t0 -7q17 -6 14 -37q-11 -72 -17.5 -116t-10.5 -77t-6.5 -61.5t-5.5 -68.5zM99 101q-6 4 -5 18.5t8 20.5q6 5 34 7t92 3q19 1 29 0.5t14.5 -1.5t5.5 -3.5t1 -5.5q0 -25 -22 -31q-5 -2 -22 -3t-37 -3q-20 -1 -40.5 -2t-30.5 -1q-9 -1 -17 -0.5t-10 1.5z" />
    <glyph glyph-name="Ntilde" unicode="&#xd1;" horiz-adv-x="364" 
d="M359 -113q16 -7 4 -17q-13 -10 -37 -2q-23 7 -36 29.5t-22 68.5q-5 25 -8 48t-4.5 47t-1 51t2.5 62q1 29 3.5 63t5.5 66.5t6 61.5t6 49q6 42 7.5 75t-0.5 48q-2 8 -3 15t-2 7q-2 2 -6.5 -1t-11 -9t-13 -14t-12.5 -17q-23 -33 -44.5 -78.5t-38.5 -99t-30 -113t-20 -119.5
q-7 -65 -11.5 -101.5t-8.5 -54.5t-8.5 -23t-12.5 -9q-5 -2 -10.5 -3.5t-8.5 -0.5t-4 2.5t-2 7.5t-1 17v31q0 11 0.5 27.5t1 34.5t1 37t1.5 35q2 39 3 87t1 92.5t-1 78.5t-3 45t-6 30.5t-9 38.5q-4 16 -6 25t-2.5 13.5t0.5 6.5t4 4q7 5 19.5 4.5t23.5 -6.5q20 -11 34 -52
t17 -100l2 -50l8 24q25 75 55 133.5t57 84.5q14 14 34.5 15.5t40.5 -10.5q13 -7 20.5 -22.5t11 -43t2 -67.5t-6.5 -97q-14 -150 -17 -247t4 -139q5 -28 14 -46.5t18 -22.5zM278 676q10 -1 9 -13q-2 -14 -10.5 -26.5t-17.5 -17.5q-12 -6 -28.5 -0.5t-26.5 18.5q-10 14 -12 31
q-2 14 -3 16t-6 -3q-2 -3 -5.5 -8.5t-5.5 -10.5q-9 -23 -20 -12q-6 6 -1.5 20t13.5 25q13 13 31 11.5t30 -15.5q2 -3 6 -11.5t8 -17.5q6 -20 11 -20t12 19q5 12 7.5 14t8.5 1z" />
    <glyph glyph-name="Ograve" unicode="&#xd2;" horiz-adv-x="487" 
d="M375 547q33 -23 55 -73t28 -114q5 -51 -2.5 -108.5t-24.5 -111.5t-42 -100t-55 -75q-18 -17 -36.5 -27.5t-41.5 -16.5q-15 -5 -24.5 -5t-27.5 3q-42 8 -80.5 53t-60.5 112q-18 57 -21.5 121t5.5 124.5t29.5 112t51.5 83.5q49 48 97 32q11 -4 16 -3.5t17 5.5q19 9 44 9
q38 2 73 -21zM334 5q23 31 42 72.5t32.5 86t20 89.5t4.5 85q-1 16 -1.5 27.5t-2 21.5t-4 19t-5.5 21q-9 36 -28 66.5t-41 45.5q-13 9 -24 9h-11q-16 -2 -32 -9t-28.5 -17t-20 -22.5t-7.5 -24.5q0 -9 -6 -9q-8 0 -16.5 7.5t-8.5 14.5q0 9 4.5 21t10.5 18q11 12 3 7.5
t-21 -17.5q-23 -25 -43.5 -73.5t-31.5 -107.5q-3 -18 -4.5 -45.5t-1.5 -57.5t2 -57.5t5 -45.5q7 -33 13.5 -51t17.5 -41q26 -54 60 -77t67 -8q15 7 27.5 18.5t28.5 33.5zM227 706q8 0 17.5 -11t26.5 -40q11 -20 13.5 -26.5t-2.5 -11.5q-7 -6 -15.5 -3t-21.5 17q-7 8 -15 18
t-15 19.5t-11.5 16.5t-4.5 9q0 4 9.5 8t18.5 4z" />
    <glyph glyph-name="Oacute" unicode="&#xd3;" horiz-adv-x="487" 
d="M375 547q33 -23 55 -73t28 -114q5 -51 -2.5 -108.5t-24.5 -111.5t-42 -100t-55 -75q-18 -17 -36.5 -27.5t-41.5 -16.5q-15 -5 -24.5 -5t-27.5 3q-42 8 -80.5 53t-60.5 112q-18 57 -21.5 121t5.5 124.5t29.5 112t51.5 83.5q49 48 97 32q11 -4 16 -3.5t17 5.5q19 9 44 9
q38 2 73 -21zM334 5q23 31 42 72.5t32.5 86t20 89.5t4.5 85q-1 16 -1.5 27.5t-2 21.5t-4 19t-5.5 21q-9 36 -28 66.5t-41 45.5q-13 9 -24 9h-11q-16 -2 -32 -9t-28.5 -17t-20 -22.5t-7.5 -24.5q0 -9 -6 -9q-8 0 -16.5 7.5t-8.5 14.5q0 9 4.5 21t10.5 18q11 12 3 7.5
t-21 -17.5q-23 -25 -43.5 -73.5t-31.5 -107.5q-3 -18 -4.5 -45.5t-1.5 -57.5t2 -57.5t5 -45.5q7 -33 13.5 -51t17.5 -41q26 -54 60 -77t67 -8q15 7 27.5 18.5t28.5 33.5zM258 696q3 2 10 2t14 -2t12.5 -5t5.5 -6q0 -2 -11.5 -13t-25.5 -24t-26.5 -24t-15.5 -12q-9 -2 -15 0
q-14 2 -11 10t27 36q13 14 23.5 25.5t12.5 12.5z" />
    <glyph glyph-name="Ocircumflex" unicode="&#xd4;" horiz-adv-x="487" 
d="M375 547q33 -23 55 -73t28 -114q5 -51 -2.5 -108.5t-24.5 -111.5t-42 -100t-55 -75q-18 -17 -36.5 -27.5t-41.5 -16.5q-15 -5 -24.5 -5t-27.5 3q-42 8 -80.5 53t-60.5 112q-18 57 -21.5 121t5.5 124.5t29.5 112t51.5 83.5q49 48 97 32q11 -4 16 -3.5t17 5.5q19 9 44 9
q38 2 73 -21zM334 5q23 31 42 72.5t32.5 86t20 89.5t4.5 85q-1 16 -1.5 27.5t-2 21.5t-4 19t-5.5 21q-9 36 -28 66.5t-41 45.5q-13 9 -24 9h-11q-16 -2 -32 -9t-28.5 -17t-20 -22.5t-7.5 -24.5q0 -9 -6 -9q-8 0 -16.5 7.5t-8.5 14.5q0 9 4.5 21t10.5 18q11 12 3 7.5
t-21 -17.5q-23 -25 -43.5 -73.5t-31.5 -107.5q-3 -18 -4.5 -45.5t-1.5 -57.5t2 -57.5t5 -45.5q7 -33 13.5 -51t17.5 -41q26 -54 60 -77t67 -8q15 7 27.5 18.5t28.5 33.5zM248 696q10 2 21 -4t17 -17q3 -5 7 -15t7.5 -21t6 -20t1.5 -12q-2 -10 -15.5 -11.5t-20.5 9.5
q-2 2 -6 13l-8 22l-11 30l-11 -11q-5 -4 -12.5 -11.5l-14.5 -14.5q-9 -10 -14 -13t-10 -1q-4 0 -7.5 1.5t-4.5 4.5t8.5 13.5t22.5 23t25.5 22.5t18.5 12z" />
    <glyph glyph-name="Otilde" unicode="&#xd5;" horiz-adv-x="487" 
d="M375 547q33 -23 55 -73t28 -114q5 -51 -2.5 -108.5t-24.5 -111.5t-42 -100t-55 -75q-18 -17 -36.5 -27.5t-41.5 -16.5q-15 -5 -24.5 -5t-27.5 3q-42 8 -80.5 53t-60.5 112q-18 57 -21.5 121t5.5 124.5t29.5 112t51.5 83.5q49 48 97 32q11 -4 16 -3.5t17 5.5q19 9 44 9
q38 2 73 -21zM334 5q23 31 42 72.5t32.5 86t20 89.5t4.5 85q-1 16 -1.5 27.5t-2 21.5t-4 19t-5.5 21q-9 36 -28 66.5t-41 45.5q-13 9 -24 9h-11q-16 -2 -32 -9t-28.5 -17t-20 -22.5t-7.5 -24.5q0 -9 -6 -9q-8 0 -16.5 7.5t-8.5 14.5q0 9 4.5 21t10.5 18q11 12 3 7.5
t-21 -17.5q-23 -25 -43.5 -73.5t-31.5 -107.5q-3 -18 -4.5 -45.5t-1.5 -57.5t2 -57.5t5 -45.5q7 -33 13.5 -51t17.5 -41q26 -54 60 -77t67 -8q15 7 27.5 18.5t28.5 33.5zM304 675q10 -1 9 -13q-2 -14 -10.5 -26.5t-17.5 -17.5q-12 -6 -28.5 -0.5t-26.5 18.5q-10 14 -12 31
q-2 14 -3 16t-6 -3q-2 -3 -5.5 -8.5t-5.5 -10.5q-9 -23 -20 -12q-6 6 -1.5 20t13.5 25q13 13 31 11.5t30 -15.5q2 -3 6 -11.5t8 -17.5q6 -20 11 -20t12 19q5 12 7.5 14t8.5 1z" />
    <glyph glyph-name="Odieresis" unicode="&#xd6;" horiz-adv-x="487" 
d="M375 547q33 -23 55 -73t28 -114q5 -51 -2.5 -108.5t-24.5 -111.5t-42 -100t-55 -75q-18 -17 -36.5 -27.5t-41.5 -16.5q-15 -5 -24.5 -5t-27.5 3q-42 8 -80.5 53t-60.5 112q-18 57 -21.5 121t5.5 124.5t29.5 112t51.5 83.5q49 48 97 32q11 -4 16 -3.5t17 5.5q19 9 44 9
q38 2 73 -21zM334 5q23 31 42 72.5t32.5 86t20 89.5t4.5 85q-1 16 -1.5 27.5t-2 21.5t-4 19t-5.5 21q-9 36 -28 66.5t-41 45.5q-13 9 -24 9h-11q-16 -2 -32 -9t-28.5 -17t-20 -22.5t-7.5 -24.5q0 -9 -6 -9q-8 0 -16.5 7.5t-8.5 14.5q0 9 4.5 21t10.5 18q11 12 3 7.5
t-21 -17.5q-23 -25 -43.5 -73.5t-31.5 -107.5q-3 -18 -4.5 -45.5t-1.5 -57.5t2 -57.5t5 -45.5q7 -33 13.5 -51t17.5 -41q26 -54 60 -77t67 -8q15 7 27.5 18.5t28.5 33.5zM219 709q20 -7 21 -16t-13 -34q-3 -5 -9 -6.5t-12.5 -1t-13.5 4t-11 8.5q-3 5 -3.5 10t3.5 16
q6 18 13 21.5t25 -2.5zM290 687q14 -6 17.5 -11t-0.5 -21q-2 -11 -5 -15.5t-8 -7.5q-8 -4 -21 -2t-21 8q-5 4 -4.5 8.5t5.5 19.5q7 20 13 23.5t24 -2.5z" />
    <glyph glyph-name="multiply" unicode="&#xd7;" horiz-adv-x="230" 
d="M142 275q10 -11 21 -22.5t17 -16.5q16 -12 13 -19q-3 -12 -15 -15q-3 0 -4.5 -2t-5.5 -1.5t-12.5 4.5t-24.5 16l-22 16l-30 -26q-28 -27 -34 -24q-5 0 -10 7t-5 14q0 5 10.5 20.5t22.5 27.5l11 11l-21 26q-18 20 -30.5 39t-12.5 25q0 7 12 16.5t20 10.5q6 -1 10 -3
t12 -13q5 -7 14 -19t17 -20l19 -22l34 37q12 14 19 21.5t10.5 10.5t5 2.5t3.5 -2.5q7 -7 9 -18t-2 -20q-2 -4 -10.5 -14t-16.5 -21l-22 -25z" />
    <glyph glyph-name="Oslash" unicode="&#xd8;" horiz-adv-x="487" 
d="M375 547q33 -23 55 -73t28 -114q5 -51 -2.5 -108.5t-24.5 -111.5t-42 -100t-55 -75q-18 -17 -36.5 -27.5t-41.5 -16.5q-15 -5 -24.5 -5t-27.5 3q-42 8 -80.5 53t-60.5 112q-18 57 -21.5 121t5.5 124.5t29.5 112t51.5 83.5q49 48 97 32q11 -4 16 -3.5t17 5.5q19 9 44 9
q38 2 73 -21zM334 5q23 31 42 72.5t32.5 86t20 89.5t4.5 85q-1 16 -1.5 27.5t-2 21.5t-4 19t-5.5 21q-9 36 -28 66.5t-41 45.5q-13 9 -24 9h-11q-16 -2 -32 -9t-28.5 -17t-20 -22.5t-7.5 -24.5q0 -9 -6 -9q-8 0 -16.5 7.5t-8.5 14.5q0 9 4.5 21t10.5 18q11 12 3 7.5
t-21 -17.5q-23 -25 -43.5 -73.5t-31.5 -107.5q-3 -18 -4.5 -45.5t-1.5 -57.5t2 -57.5t5 -45.5q7 -33 13.5 -51t17.5 -41q26 -54 60 -77t67 -8q15 7 27.5 18.5t28.5 33.5zM139 -110q-3 -8 -11 -12t-13 -1q-1 1 -2 3.5t1 3.5q1 5 9 32t19 61t22.5 67.5t18.5 52.5
q3 11 8.5 27.5t11.5 35t12.5 37.5t12.5 36q29 88 53 158.5t41.5 120t28 77t13.5 29.5q15 12 29 6q7 -3 7 -8t-2 -13q-2 -6 -5.5 -18t-12 -35.5t-22.5 -61.5t-36 -98q-6 -16 -14.5 -40.5t-19 -53t-21 -59.5t-20.5 -59q-15 -43 -31 -87.5t-30.5 -84t-27 -70.5t-19.5 -46z" />
    <glyph glyph-name="Ugrave" unicode="&#xd9;" horiz-adv-x="417" 
d="M156 -54q6 0 19 14.5t22 32.5q13 25 26 66t24 88.5t19.5 97t11.5 91.5q5 66 12.5 120.5t16.5 92.5q5 21 9 33.5t9.5 18.5t12 7t17.5 -2q12 -3 18 -6.5t8.5 -12.5t0.5 -25t-6 -43q-5 -32 -12 -81t-12 -102q-3 -23 -4 -61.5t-1 -79.5t1.5 -78.5t4.5 -56.5q9 -60 22 -98.5
t27 -49.5q6 -5 7 -7t-2 -4q-5 -4 -15.5 -3.5t-18.5 4.5q-3 2 -9.5 7.5t-12.5 11.5q-20 20 -38 71t-28 120q-3 16 -5 28t-2 11q-1 0 -3.5 -10t-4.5 -24q-11 -55 -28 -98.5t-35 -63.5q-22 -26 -53.5 -27t-57.5 22q-29 26 -49 82t-29 138q-2 19 -2.5 51t0.5 67t2.5 67.5
t4.5 52.5q4 30 10 57.5t13 49.5t14 38t14 23q8 8 19.5 9.5t22.5 -4.5q8 -5 9 -10t-4 -22q-3 -9 -6.5 -26t-7.5 -36.5t-7 -39l-5 -32.5q-10 -67 -13 -132t-0.5 -122t11 -102.5t22.5 -72.5q9 -17 21 -28.5t20 -11.5zM192 702q8 0 17.5 -11t26.5 -40q11 -20 13.5 -26.5
t-2.5 -11.5q-7 -6 -15.5 -3t-21.5 17q-7 8 -15 18t-15 19.5t-11.5 16.5t-4.5 9q0 4 9.5 8t18.5 4z" />
    <glyph glyph-name="Uacute" unicode="&#xda;" horiz-adv-x="417" 
d="M156 -54q6 0 19 14.5t22 32.5q13 25 26 66t24 88.5t19.5 97t11.5 91.5q5 66 12.5 120.5t16.5 92.5q5 21 9 33.5t9.5 18.5t12 7t17.5 -2q12 -3 18 -6.5t8.5 -12.5t0.5 -25t-6 -43q-5 -32 -12 -81t-12 -102q-3 -23 -4 -61.5t-1 -79.5t1.5 -78.5t4.5 -56.5q9 -60 22 -98.5
t27 -49.5q6 -5 7 -7t-2 -4q-5 -4 -15.5 -3.5t-18.5 4.5q-3 2 -9.5 7.5t-12.5 11.5q-20 20 -38 71t-28 120q-3 16 -5 28t-2 11q-1 0 -3.5 -10t-4.5 -24q-11 -55 -28 -98.5t-35 -63.5q-22 -26 -53.5 -27t-57.5 22q-29 26 -49 82t-29 138q-2 19 -2.5 51t0.5 67t2.5 67.5
t4.5 52.5q4 30 10 57.5t13 49.5t14 38t14 23q8 8 19.5 9.5t22.5 -4.5q8 -5 9 -10t-4 -22q-3 -9 -6.5 -26t-7.5 -36.5t-7 -39l-5 -32.5q-10 -67 -13 -132t-0.5 -122t11 -102.5t22.5 -72.5q9 -17 21 -28.5t20 -11.5zM223 700q3 2 10 2t14 -2t12.5 -5t5.5 -6q0 -2 -11.5 -13
t-25.5 -24t-26.5 -24t-15.5 -12q-9 -2 -15 0q-14 2 -11 10t27 36q13 14 23.5 25.5t12.5 12.5z" />
    <glyph glyph-name="Ucircumflex" unicode="&#xdb;" horiz-adv-x="417" 
d="M156 -54q6 0 19 14.5t22 32.5q13 25 26 66t24 88.5t19.5 97t11.5 91.5q5 66 12.5 120.5t16.5 92.5q5 21 9 33.5t9.5 18.5t12 7t17.5 -2q12 -3 18 -6.5t8.5 -12.5t0.5 -25t-6 -43q-5 -32 -12 -81t-12 -102q-3 -23 -4 -61.5t-1 -79.5t1.5 -78.5t4.5 -56.5q9 -60 22 -98.5
t27 -49.5q6 -5 7 -7t-2 -4q-5 -4 -15.5 -3.5t-18.5 4.5q-3 2 -9.5 7.5t-12.5 11.5q-20 20 -38 71t-28 120q-3 16 -5 28t-2 11q-1 0 -3.5 -10t-4.5 -24q-11 -55 -28 -98.5t-35 -63.5q-22 -26 -53.5 -27t-57.5 22q-29 26 -49 82t-29 138q-2 19 -2.5 51t0.5 67t2.5 67.5
t4.5 52.5q4 30 10 57.5t13 49.5t14 38t14 23q8 8 19.5 9.5t22.5 -4.5q8 -5 9 -10t-4 -22q-3 -9 -6.5 -26t-7.5 -36.5t-7 -39l-5 -32.5q-10 -67 -13 -132t-0.5 -122t11 -102.5t22.5 -72.5q9 -17 21 -28.5t20 -11.5zM213 707q10 2 21 -4t17 -17q3 -5 7 -15t7.5 -21t6 -20
t1.5 -12q-2 -10 -15.5 -11.5t-20.5 9.5q-2 2 -6 13l-8 22l-11 30l-11 -11q-5 -4 -12.5 -11.5l-14.5 -14.5q-9 -10 -14 -13t-10 -1q-4 0 -7.5 1.5t-4.5 4.5t8.5 13.5t22.5 23t25.5 22.5t18.5 12z" />
    <glyph glyph-name="Udieresis" unicode="&#xdc;" horiz-adv-x="417" 
d="M156 -54q6 0 19 14.5t22 32.5q13 25 26 66t24 88.5t19.5 97t11.5 91.5q5 66 12.5 120.5t16.5 92.5q5 21 9 33.5t9.5 18.5t12 7t17.5 -2q12 -3 18 -6.5t8.5 -12.5t0.5 -25t-6 -43q-5 -32 -12 -81t-12 -102q-3 -23 -4 -61.5t-1 -79.5t1.5 -78.5t4.5 -56.5q9 -60 22 -98.5
t27 -49.5q6 -5 7 -7t-2 -4q-5 -4 -15.5 -3.5t-18.5 4.5q-3 2 -9.5 7.5t-12.5 11.5q-20 20 -38 71t-28 120q-3 16 -5 28t-2 11q-1 0 -3.5 -10t-4.5 -24q-11 -55 -28 -98.5t-35 -63.5q-22 -26 -53.5 -27t-57.5 22q-29 26 -49 82t-29 138q-2 19 -2.5 51t0.5 67t2.5 67.5
t4.5 52.5q4 30 10 57.5t13 49.5t14 38t14 23q8 8 19.5 9.5t22.5 -4.5q8 -5 9 -10t-4 -22q-3 -9 -6.5 -26t-7.5 -36.5t-7 -39l-5 -32.5q-10 -67 -13 -132t-0.5 -122t11 -102.5t22.5 -72.5q9 -17 21 -28.5t20 -11.5zM184 711q20 -7 21 -16t-13 -34q-3 -5 -9 -6.5t-12.5 -1
t-13.5 4t-11 8.5q-3 5 -3.5 10t3.5 16q6 18 13 21.5t25 -2.5zM255 689q14 -6 17.5 -11t-0.5 -21q-2 -11 -5 -15.5t-8 -7.5q-8 -4 -21 -2t-21 8q-5 4 -4.5 8.5t5.5 19.5q7 20 13 23.5t24 -2.5z" />
    <glyph glyph-name="Yacute" unicode="&#xdd;" horiz-adv-x="410" 
d="M97 66q2 0 8 5t13.5 12.5t14.5 15.5t12 15q55 81 122 310q9 30 15 52.5t10.5 40.5t7.5 34.5t5 34.5q2 16 4.5 28.5t4.5 14.5q5 5 16 4.5t19 -6.5q4 -3 7 -8.5t5 -15t4 -25.5t4 -41q3 -31 2.5 -73t-2.5 -87t-7 -90.5t-11 -82.5q-7 -44 -18 -91.5t-25 -98.5
q-11 -41 -22 -69.5t-23.5 -49t-28.5 -34t-37 -23.5q-32 -16 -60 -21t-50 3q-10 3 -21 12.5t-9 13.5q4 5 16.5 3.5t20.5 -8.5q9 -8 16 -8t21 5q38 13 62.5 48t42.5 103q6 23 13 53t13.5 62t12 62.5t8.5 54.5q4 31 7 68t5.5 68.5t3 52t-1.5 18.5q-2 -1 -6 -15.5t-10 -33.5
q-9 -33 -20.5 -69t-23 -69t-22 -60.5t-18.5 -43.5q-25 -51 -48 -72.5t-54 -20.5q-25 1 -40.5 13t-26.5 40q-6 16 -9 33.5t-3 45t3 70.5t9 109q10 96 10 153t-8 84q-2 5 -0.5 6t9.5 1q12 0 24 -8t19 -21q17 -31 20 -105.5t-9 -172.5q-5 -41 -8.5 -68.5t-5 -46.5t-1.5 -32
t2 -24q2 -19 7.5 -37t9.5 -18zM219 702q3 2 10 2t14 -2t12.5 -5t5.5 -6q0 -2 -11.5 -13t-25.5 -24t-26.5 -24t-15.5 -12q-9 -2 -15 0q-14 2 -11 10t27 36q13 14 23.5 25.5t12.5 12.5z" />
    <glyph glyph-name="agrave" unicode="&#xe0;" 
d="M224 242q4 -4 6 -6.5t2 -8t-1.5 -15.5t-4.5 -28q-8 -48 -13 -81.5t-7.5 -56t-2.5 -36t2 -21.5q3 -13 6.5 -8t12.5 21q3 5 8.5 16t13 25t16.5 30t17 32q21 43 31 60t13 17q7 0 8.5 -6.5t-2.5 -16.5q-11 -32 -24.5 -65.5t-26.5 -62t-24 -49t-17 -24.5q-19 -16 -45 -6
q-22 8 -30.5 30.5t-10.5 74.5l-2 50l-18 -27q-18 -27 -36 -48t-30 -28q-24 -15 -55 3q-54 27 -23 119q10 29 25.5 53.5t37.5 47.5q50 49 93 49h10t10 -1q19 -4 36 -13t25 -20zM158 178q20 27 20 55q0 10 -3 10q-2 0 -2.5 -0.5t-2.5 -0.5q-16 -5 -35 -21t-37 -38.5t-33 -49.5
t-24 -53q-5 -17 -7 -33t2 -16q2 0 9.5 7t17.5 18q8 9 20 23.5t25.5 31.5t26.5 34.5t23 32.5zM178 410q8 0 17.5 -11t26.5 -40q11 -20 13.5 -26.5t-2.5 -11.5q-7 -6 -15.5 -3t-21.5 17q-7 8 -15 18t-15 19.5t-11.5 16.5t-4.5 9q0 4 9.5 8t18.5 4z" />
    <glyph glyph-name="aacute" unicode="&#xe1;" 
d="M224 242q4 -4 6 -6.5t2 -8t-1.5 -15.5t-4.5 -28q-8 -48 -13 -81.5t-7.5 -56t-2.5 -36t2 -21.5q3 -13 6.5 -8t12.5 21q3 5 8.5 16t13 25t16.5 30t17 32q21 43 31 60t13 17q7 0 8.5 -6.5t-2.5 -16.5q-11 -32 -24.5 -65.5t-26.5 -62t-24 -49t-17 -24.5q-19 -16 -45 -6
q-22 8 -30.5 30.5t-10.5 74.5l-2 50l-18 -27q-18 -27 -36 -48t-30 -28q-24 -15 -55 3q-54 27 -23 119q10 29 25.5 53.5t37.5 47.5q50 49 93 49h10t10 -1q19 -4 36 -13t25 -20zM158 178q20 27 20 55q0 10 -3 10q-2 0 -2.5 -0.5t-2.5 -0.5q-16 -5 -35 -21t-37 -38.5t-33 -49.5
t-24 -53q-5 -17 -7 -33t2 -16q2 0 9.5 7t17.5 18q8 9 20 23.5t25.5 31.5t26.5 34.5t23 32.5zM220 407q3 2 10 2t14 -2t12.5 -5t5.5 -6q0 -2 -11.5 -13t-25.5 -24t-26.5 -24t-15.5 -12q-9 -2 -15 0q-14 2 -11 10t27 36q13 14 23.5 25.5t12.5 12.5z" />
    <glyph glyph-name="acircumflex" unicode="&#xe2;" 
d="M224 242q4 -4 6 -6.5t2 -8t-1.5 -15.5t-4.5 -28q-8 -48 -13 -81.5t-7.5 -56t-2.5 -36t2 -21.5q3 -13 6.5 -8t12.5 21q3 5 8.5 16t13 25t16.5 30t17 32q21 43 31 60t13 17q7 0 8.5 -6.5t-2.5 -16.5q-11 -32 -24.5 -65.5t-26.5 -62t-24 -49t-17 -24.5q-19 -16 -45 -6
q-22 8 -30.5 30.5t-10.5 74.5l-2 50l-18 -27q-18 -27 -36 -48t-30 -28q-24 -15 -55 3q-54 27 -23 119q10 29 25.5 53.5t37.5 47.5q50 49 93 49h10t10 -1q19 -4 36 -13t25 -20zM158 178q20 27 20 55q0 10 -3 10q-2 0 -2.5 -0.5t-2.5 -0.5q-16 -5 -35 -21t-37 -38.5t-33 -49.5
t-24 -53q-5 -17 -7 -33t2 -16q2 0 9.5 7t17.5 18q8 9 20 23.5t25.5 31.5t26.5 34.5t23 32.5zM199 413q10 2 21 -4t17 -17q3 -5 7 -15t7.5 -21t6 -20t1.5 -12q-2 -10 -15.5 -11.5t-20.5 9.5q-2 2 -6 13l-8 22l-11 30l-11 -11q-5 -4 -12.5 -11.5l-14.5 -14.5q-9 -10 -14 -13
t-10 -1q-4 0 -7.5 1.5t-4.5 4.5t8.5 13.5t22.5 23t25.5 22.5t18.5 12z" />
    <glyph glyph-name="atilde" unicode="&#xe3;" 
d="M224 242q4 -4 6 -6.5t2 -8t-1.5 -15.5t-4.5 -28q-8 -48 -13 -81.5t-7.5 -56t-2.5 -36t2 -21.5q3 -13 6.5 -8t12.5 21q3 5 8.5 16t13 25t16.5 30t17 32q21 43 31 60t13 17q7 0 8.5 -6.5t-2.5 -16.5q-11 -32 -24.5 -65.5t-26.5 -62t-24 -49t-17 -24.5q-19 -16 -45 -6
q-22 8 -30.5 30.5t-10.5 74.5l-2 50l-18 -27q-18 -27 -36 -48t-30 -28q-24 -15 -55 3q-54 27 -23 119q10 29 25.5 53.5t37.5 47.5q50 49 93 49h10t10 -1q19 -4 36 -13t25 -20zM158 178q20 27 20 55q0 10 -3 10q-2 0 -2.5 -0.5t-2.5 -0.5q-16 -5 -35 -21t-37 -38.5t-33 -49.5
t-24 -53q-5 -17 -7 -33t2 -16q2 0 9.5 7t17.5 18q8 9 20 23.5t25.5 31.5t26.5 34.5t23 32.5zM268 378q10 -1 9 -13q-2 -14 -10.5 -26.5t-17.5 -17.5q-12 -6 -28.5 -0.5t-26.5 18.5q-10 14 -12 31q-2 14 -3 16t-6 -3q-2 -3 -5.5 -8.5t-5.5 -10.5q-9 -23 -20 -12q-6 6 -1.5 20
t13.5 25q13 13 31 11.5t30 -15.5q2 -3 6 -11.5t8 -17.5q6 -20 11 -20t12 19q5 12 7.5 14t8.5 1z" />
    <glyph glyph-name="adieresis" unicode="&#xe4;" 
d="M224 242q4 -4 6 -6.5t2 -8t-1.5 -15.5t-4.5 -28q-8 -48 -13 -81.5t-7.5 -56t-2.5 -36t2 -21.5q3 -13 6.5 -8t12.5 21q3 5 8.5 16t13 25t16.5 30t17 32q21 43 31 60t13 17q7 0 8.5 -6.5t-2.5 -16.5q-11 -32 -24.5 -65.5t-26.5 -62t-24 -49t-17 -24.5q-19 -16 -45 -6
q-22 8 -30.5 30.5t-10.5 74.5l-2 50l-18 -27q-18 -27 -36 -48t-30 -28q-24 -15 -55 3q-54 27 -23 119q10 29 25.5 53.5t37.5 47.5q50 49 93 49h10t10 -1q19 -4 36 -13t25 -20zM158 178q20 27 20 55q0 10 -3 10q-2 0 -2.5 -0.5t-2.5 -0.5q-16 -5 -35 -21t-37 -38.5t-33 -49.5
t-24 -53q-5 -17 -7 -33t2 -16q2 0 9.5 7t17.5 18q8 9 20 23.5t25.5 31.5t26.5 34.5t23 32.5zM188 404q20 -7 21 -16t-13 -34q-3 -5 -9 -6.5t-12.5 -1t-13.5 4t-11 8.5q-3 5 -3.5 10t3.5 16q6 18 13 21.5t25 -2.5zM259 382q14 -6 17.5 -11t-0.5 -21q-2 -11 -5 -15.5t-8 -7.5
q-8 -4 -21 -2t-21 8q-5 4 -4.5 8.5t5.5 19.5q7 20 13 23.5t24 -2.5z" />
    <glyph glyph-name="aring" unicode="&#xe5;" 
d="M224 242q4 -4 6 -6.5t2 -8t-1.5 -15.5t-4.5 -28q-8 -48 -13 -81.5t-7.5 -56t-2.5 -36t2 -21.5q3 -13 6.5 -8t12.5 21q3 5 8.5 16t13 25t16.5 30t17 32q21 43 31 60t13 17q7 0 8.5 -6.5t-2.5 -16.5q-11 -32 -24.5 -65.5t-26.5 -62t-24 -49t-17 -24.5q-19 -16 -45 -6
q-22 8 -30.5 30.5t-10.5 74.5l-2 50l-18 -27q-18 -27 -36 -48t-30 -28q-24 -15 -55 3q-54 27 -23 119q10 29 25.5 53.5t37.5 47.5q50 49 93 49h10t10 -1q19 -4 36 -13t25 -20zM158 178q20 27 20 55q0 10 -3 10q-2 0 -2.5 -0.5t-2.5 -0.5q-16 -5 -35 -21t-37 -38.5t-33 -49.5
t-24 -53q-5 -17 -7 -33t2 -16q2 0 9.5 7t17.5 18q8 9 20 23.5t25.5 31.5t26.5 34.5t23 32.5zM220 416q19 -1 33 -12t14 -31q0 -41 -42 -55q-14 -4 -20.5 -4t-18.5 3q-5 2 -10 5.5t-10 8.5q-11 11 -11 28t11 31q10 14 25 20.5t29 5.5zM223 333q16 8 21.5 24.5t-3.5 31.5
q-7 15 -21 13q-14 -1 -25 -17q-11 -17 -5.5 -35.5t21.5 -22.5q3 0 12 6z" />
    <glyph glyph-name="ae" unicode="&#xe6;" horiz-adv-x="389" 
d="M224 242q4 -4 6 -6.5t2 -8t-1.5 -15.5t-4.5 -28q-11 -65 -15 -110.5t-5.5 -73.5t-4 -39.5t-9.5 -8.5q-22 8 -30.5 30.5t-10.5 74.5l-2 50l-18 -27q-18 -27 -36 -48t-30 -28q-24 -15 -55 3q-54 27 -23 119q10 29 25.5 53.5t37.5 47.5q50 49 93 49h10t10 -1q19 -4 36 -13
t25 -20zM158 178q20 27 20 55q0 10 -3 10q-2 0 -2.5 -0.5t-2.5 -0.5q-16 -5 -35 -21t-37 -38.5t-33 -49.5t-24 -53q-5 -17 -7 -33t2 -16q2 0 9.5 7t17.5 18q8 9 20 23.5t25.5 31.5t26.5 34.5t23 32.5zM230 110q-10 0 -12.5 -6t-2.5 -29t5 -42t13 -32q15 -23 33 -22.5
t44 25.5q19 18 34 47t36 83q6 16 11 29t7 15q2 4 8.5 4.5t9.5 -4.5q1 -1 -3.5 -16.5t-12.5 -37.5q-26 -75 -52.5 -112.5t-63.5 -50.5q-14 -5 -35.5 -5.5t-36.5 4.5q-25 9 -43.5 36.5t-22.5 59.5q-3 27 1 56t14.5 55.5t26 48.5t34.5 36q14 11 25.5 15.5t27.5 3.5
q2 0 4.5 -0.5t4.5 -0.5q11 -1 16 -3t11 -9q9 -10 10 -20.5t-7 -34.5q-7 -21 -18 -40.5t-25 -33.5q-13 -11 -21 -15t-20 -4zM245 194q-3 -5 -6.5 -15.5t-7.5 -21t-6.5 -19t-2.5 -10.5q0 -3 8.5 4t19.5 19q8 7 15 18t10 19q4 8 6.5 18t4 19t1 15.5t-2.5 6.5t-7 -5.5t-11 -13.5
t-11.5 -17t-9.5 -17z" />
    <glyph glyph-name="ccedilla" unicode="&#xe7;" horiz-adv-x="226" 
d="M126 267q-5 0 -13.5 -11t-17.5 -27.5t-17.5 -36t-12.5 -35.5q-11 -45 -11.5 -77t9.5 -63q9 -27 21 -34.5t30 1.5q29 17 60 61.5t61 113.5q5 14 10.5 25.5t7.5 13.5q4 5 10 4t6 -6t-8.5 -25.5t-20 -46t-24 -50t-21.5 -37.5q-15 -24 -36 -45t-35 -27q-17 -8 -37.5 -9
t-37.5 5q-18 6 -33.5 21t-22.5 37q-21 76 3 149q9 27 20.5 50.5t24.5 40.5q16 20 36 28.5t39.5 6t35 -15.5t23.5 -36q10 -38 -12 -39q-9 -2 -12.5 3t-8.5 25q-9 36 -16 36zM70 -64q13 0 26.5 -6.5t18.5 -14.5q4 -8 3 -16.5t-6 -17t-13.5 -14.5t-18.5 -7q-36 -6 -54 -3
q-11 2 -17.5 6t-6.5 9q0 3 9 2.5t15 -3.5q5 -5 20 -1q8 2 11.5 5.5t8.5 13.5q10 19 7 24t-25 7q-24 1 -29 6q-4 10 24 43q26 26 40 13q3 -4 1 -7.5t-16 -22.5l-11 -15l13 -1v0z" />
    <glyph glyph-name="egrave" unicode="&#xe8;" horiz-adv-x="227" 
d="M72 110q-10 0 -12.5 -6t-2.5 -29t5 -42t13 -32q15 -23 33 -22.5t44 25.5q19 18 34 47t36 83q6 16 11 29t7 15q2 4 8.5 4.5t9.5 -4.5q1 -1 -3.5 -16.5t-12.5 -37.5q-26 -75 -52.5 -112.5t-63.5 -50.5q-14 -5 -35.5 -5.5t-36.5 4.5q-25 9 -43.5 36.5t-22.5 59.5q-3 27 1 56
t14.5 55.5t26 48.5t34.5 36q14 11 25.5 15.5t27.5 3.5q2 0 4.5 -0.5t4.5 -0.5q11 -1 16 -3t11 -9q9 -10 10 -20.5t-7 -34.5q-7 -21 -18 -40.5t-25 -33.5q-13 -11 -21 -15t-20 -4zM87 194q-3 -5 -6.5 -15.5t-7.5 -21t-6.5 -19t-2.5 -10.5q0 -3 8.5 4t19.5 19q8 7 15 18t10 19
q4 8 6.5 18t4 19t1 15.5t-2.5 6.5t-7 -5.5t-11 -13.5t-11.5 -17t-9.5 -17zM97 410q8 0 17.5 -11t26.5 -40q11 -20 13.5 -26.5t-2.5 -11.5q-7 -6 -15.5 -3t-21.5 17q-7 8 -15 18t-15 19.5t-11.5 16.5t-4.5 9q0 4 9.5 8t18.5 4z" />
    <glyph glyph-name="eacute" unicode="&#xe9;" horiz-adv-x="227" 
d="M72 110q-10 0 -12.5 -6t-2.5 -29t5 -42t13 -32q15 -23 33 -22.5t44 25.5q19 18 34 47t36 83q6 16 11 29t7 15q2 4 8.5 4.5t9.5 -4.5q1 -1 -3.5 -16.5t-12.5 -37.5q-26 -75 -52.5 -112.5t-63.5 -50.5q-14 -5 -35.5 -5.5t-36.5 4.5q-25 9 -43.5 36.5t-22.5 59.5q-3 27 1 56
t14.5 55.5t26 48.5t34.5 36q14 11 25.5 15.5t27.5 3.5q2 0 4.5 -0.5t4.5 -0.5q11 -1 16 -3t11 -9q9 -10 10 -20.5t-7 -34.5q-7 -21 -18 -40.5t-25 -33.5q-13 -11 -21 -15t-20 -4zM87 194q-3 -5 -6.5 -15.5t-7.5 -21t-6.5 -19t-2.5 -10.5q0 -3 8.5 4t19.5 19q8 7 15 18t10 19
q4 8 6.5 18t4 19t1 15.5t-2.5 6.5t-7 -5.5t-11 -13.5t-11.5 -17t-9.5 -17zM128 407q3 2 10 2t14 -2t12.5 -5t5.5 -6q0 -2 -11.5 -13t-25.5 -24t-26.5 -24t-15.5 -12q-9 -2 -15 0q-14 2 -11 10t27 36q13 14 23.5 25.5t12.5 12.5z" />
    <glyph glyph-name="ecircumflex" unicode="&#xea;" horiz-adv-x="227" 
d="M72 110q-10 0 -12.5 -6t-2.5 -29t5 -42t13 -32q15 -23 33 -22.5t44 25.5q19 18 34 47t36 83q6 16 11 29t7 15q2 4 8.5 4.5t9.5 -4.5q1 -1 -3.5 -16.5t-12.5 -37.5q-26 -75 -52.5 -112.5t-63.5 -50.5q-14 -5 -35.5 -5.5t-36.5 4.5q-25 9 -43.5 36.5t-22.5 59.5q-3 27 1 56
t14.5 55.5t26 48.5t34.5 36q14 11 25.5 15.5t27.5 3.5q2 0 4.5 -0.5t4.5 -0.5q11 -1 16 -3t11 -9q9 -10 10 -20.5t-7 -34.5q-7 -21 -18 -40.5t-25 -33.5q-13 -11 -21 -15t-20 -4zM87 194q-3 -5 -6.5 -15.5t-7.5 -21t-6.5 -19t-2.5 -10.5q0 -3 8.5 4t19.5 19q8 7 15 18t10 19
q4 8 6.5 18t4 19t1 15.5t-2.5 6.5t-7 -5.5t-11 -13.5t-11.5 -17t-9.5 -17zM152 413q10 2 21 -4t17 -17q3 -5 7 -15t7.5 -21t6 -20t1.5 -12q-2 -10 -15.5 -11.5t-20.5 9.5q-2 2 -6 13l-8 22l-11 30l-11 -11q-5 -4 -12.5 -11.5l-14.5 -14.5q-9 -10 -14 -13t-10 -1
q-4 0 -7.5 1.5t-4.5 4.5t8.5 13.5t22.5 23t25.5 22.5t18.5 12z" />
    <glyph glyph-name="edieresis" unicode="&#xeb;" horiz-adv-x="227" 
d="M72 110q-10 0 -12.5 -6t-2.5 -29t5 -42t13 -32q15 -23 33 -22.5t44 25.5q19 18 34 47t36 83q6 16 11 29t7 15q2 4 8.5 4.5t9.5 -4.5q1 -1 -3.5 -16.5t-12.5 -37.5q-26 -75 -52.5 -112.5t-63.5 -50.5q-14 -5 -35.5 -5.5t-36.5 4.5q-25 9 -43.5 36.5t-22.5 59.5q-3 27 1 56
t14.5 55.5t26 48.5t34.5 36q14 11 25.5 15.5t27.5 3.5q2 0 4.5 -0.5t4.5 -0.5q11 -1 16 -3t11 -9q9 -10 10 -20.5t-7 -34.5q-7 -21 -18 -40.5t-25 -33.5q-13 -11 -21 -15t-20 -4zM87 194q-3 -5 -6.5 -15.5t-7.5 -21t-6.5 -19t-2.5 -10.5q0 -3 8.5 4t19.5 19q8 7 15 18t10 19
q4 8 6.5 18t4 19t1 15.5t-2.5 6.5t-7 -5.5t-11 -13.5t-11.5 -17t-9.5 -17zM121 404q20 -7 21 -16t-13 -34q-3 -5 -9 -6.5t-12.5 -1t-13.5 4t-11 8.5q-3 5 -3.5 10t3.5 16q6 18 13 21.5t25 -2.5zM192 382q14 -6 17.5 -11t-0.5 -21q-2 -11 -5 -15.5t-8 -7.5q-8 -4 -21 -2
t-21 8q-5 4 -4.5 8.5t5.5 19.5q7 20 13 23.5t24 -2.5z" />
    <glyph glyph-name="igrave" unicode="&#xec;" horiz-adv-x="128" 
d="M9 -5q-8 30 -10 71t0.5 79t9 67.5t17.5 36.5q3 2 10.5 3.5t15.5 1.5t16 -0.5t12 -2.5q3 -2 4.5 -6.5t1 -14.5t-2.5 -28t-6 -47q-8 -64 -9.5 -115t6.5 -70q7 -16 12 -21q4 -3 4 -4.5t-5 -4.5q-15 -12 -42 2q-12 7 -20 18.5t-14 34.5zM47 410q8 0 17.5 -11t26.5 -40
q11 -20 13.5 -26.5t-2.5 -11.5q-7 -6 -15.5 -3t-21.5 17q-7 8 -15 18t-15 19.5t-11.5 16.5t-4.5 9q0 4 9.5 8t18.5 4z" />
    <glyph glyph-name="iacute" unicode="&#xed;" horiz-adv-x="128" 
d="M9 -5q-8 30 -10 71t0.5 79t9 67.5t17.5 36.5q3 2 10.5 3.5t15.5 1.5t16 -0.5t12 -2.5q3 -2 4.5 -6.5t1 -14.5t-2.5 -28t-6 -47q-8 -64 -9.5 -115t6.5 -70q7 -16 12 -21q4 -3 4 -4.5t-5 -4.5q-15 -12 -42 2q-12 7 -20 18.5t-14 34.5zM79 407q3 2 10 2t14 -2t12.5 -5
t5.5 -6q0 -2 -11.5 -13t-25.5 -24t-26.5 -24t-15.5 -12q-9 -2 -15 0q-14 2 -11 10t27 36q13 14 23.5 25.5t12.5 12.5z" />
    <glyph glyph-name="icircumflex" unicode="&#xee;" horiz-adv-x="128" 
d="M9 -5q-8 30 -10 71t0.5 79t9 67.5t17.5 36.5q3 2 10.5 3.5t15.5 1.5t16 -0.5t12 -2.5q3 -2 4.5 -6.5t1 -14.5t-2.5 -28t-6 -47q-8 -64 -9.5 -115t6.5 -70q7 -16 12 -21q4 -3 4 -4.5t-5 -4.5q-15 -12 -42 2q-12 7 -20 18.5t-14 34.5zM69 413q10 2 21 -4t17 -17q3 -5 7 -15
t7.5 -21t6 -20t1.5 -12q-2 -10 -15.5 -11.5t-20.5 9.5q-2 2 -6 13l-8 22l-11 30l-11 -11q-5 -4 -12.5 -11.5l-14.5 -14.5q-9 -10 -14 -13t-10 -1q-4 0 -7.5 1.5t-4.5 4.5t8.5 13.5t22.5 23t25.5 22.5t18.5 12z" />
    <glyph glyph-name="idieresis" unicode="&#xef;" horiz-adv-x="128" 
d="M9 -5q-8 30 -10 71t0.5 79t9 67.5t17.5 36.5q3 2 10.5 3.5t15.5 1.5t16 -0.5t12 -2.5q3 -2 4.5 -6.5t1 -14.5t-2.5 -28t-6 -47q-8 -64 -9.5 -115t6.5 -70q7 -16 12 -21q4 -3 4 -4.5t-5 -4.5q-15 -12 -42 2q-12 7 -20 18.5t-14 34.5zM40 404q20 -7 21 -16t-13 -34
q-3 -5 -9 -6.5t-12.5 -1t-13.5 4t-11 8.5q-3 5 -3.5 10t3.5 16q6 18 13 21.5t25 -2.5zM111 382q14 -6 17.5 -11t-0.5 -21q-2 -11 -5 -15.5t-8 -7.5q-8 -4 -21 -2t-21 8q-5 4 -4.5 8.5t5.5 19.5q7 20 13 23.5t24 -2.5z" />
    <glyph glyph-name="ntilde" unicode="&#xf1;" 
d="M180 22q-1 41 3.5 82t15.5 99q4 20 6 34.5t1 15.5q-2 2 -9.5 -4.5t-17 -17.5t-19.5 -24t-17 -23q-14 -20 -27 -45t-24 -52t-20 -54.5t-15 -51.5q-3 -11 -5.5 -15.5t-7.5 -6.5q-20 -11 -30 4q-8 12 -13 48t-5 80q0 21 1 37.5t3 31t6 27.5t9 27q5 12 8.5 17t10.5 8
q16 6 28 -0.5t12 -22.5q0 -5 -2.5 -23.5t-4.5 -38.5q-4 -28 -6 -42.5t-2.5 -21.5t-0.5 -7.5t0 0.5q1 1 6 11t11 24q23 50 51.5 92t50.5 59q10 7 21.5 10t22.5 2t20 -6t14 -14t4 -32.5t-6 -67.5q-7 -48 -11 -89.5t-5.5 -73t-0.5 -52.5t5 -28q10 -18 24 -18q9 0 8 -5t-11 -9
q-8 -2 -15 -2.5t-19 1.5q-25 5 -36.5 37.5t-11.5 99.5zM210 378q10 -1 9 -13q-2 -14 -10.5 -26.5t-17.5 -17.5q-12 -6 -28.5 -0.5t-26.5 18.5q-10 14 -12 31q-2 14 -3 16t-6 -3q-2 -3 -5.5 -8.5t-5.5 -10.5q-9 -23 -20 -12q-6 6 -1.5 20t13.5 25q13 13 31 11.5t30 -15.5
q2 -3 6 -11.5t8 -17.5q6 -20 11 -20t12 19q5 12 7.5 14t8.5 1z" />
    <glyph glyph-name="ograve" unicode="&#xf2;" horiz-adv-x="259" 
d="M122 -6q-11 -6 -26.5 -5.5t-30.5 5.5t-28 14t-20 21q-6 11 -10.5 28t-6 36.5t-0.5 39t6 36.5q2 10 7 25t10 26q14 36 36 55.5t48 19.5q20 0 36 -8q9 -6 16 -6t18 -10.5t19 -24.5q4 -8 7 -13.5t6 -6.5q12 -6 26.5 -9.5t34.5 -2.5q8 1 14.5 1.5t12.5 2.5q5 2 8.5 -5.5
t-8.5 -9.5q-7 -2 -16 -4t-20 -3q-16 -1 -25 -0.5t-30 7.5q-2 -36 -7 -68.5t-15 -60t-25 -48t-37 -32.5zM169 253q-3 0 -1 -6t4 -6t2 6t-5 6zM80 160q-3 -11 -5 -31t-2.5 -41t0.5 -38.5t4 -23.5q5 -11 12.5 -9.5t23.5 15.5q25 22 42 61.5t21 87.5l2 23l-32 29l-28 16
q-5 3 -10.5 -5t-10 -22t-9 -31t-8.5 -31zM128 410q8 0 17.5 -11t26.5 -40q11 -20 13.5 -26.5t-2.5 -11.5q-7 -6 -15.5 -3t-21.5 17q-7 8 -15 18t-15 19.5t-11.5 16.5t-4.5 9q0 4 9.5 8t18.5 4z" />
    <glyph glyph-name="oacute" unicode="&#xf3;" horiz-adv-x="259" 
d="M122 -6q-11 -6 -26.5 -5.5t-30.5 5.5t-28 14t-20 21q-6 11 -10.5 28t-6 36.5t-0.5 39t6 36.5q2 10 7 25t10 26q14 36 36 55.5t48 19.5q20 0 36 -8q9 -6 16 -6t18 -10.5t19 -24.5q4 -8 7 -13.5t6 -6.5q12 -6 26.5 -9.5t34.5 -2.5q8 1 14.5 1.5t12.5 2.5q5 2 8.5 -5.5
t-8.5 -9.5q-7 -2 -16 -4t-20 -3q-16 -1 -25 -0.5t-30 7.5q-2 -36 -7 -68.5t-15 -60t-25 -48t-37 -32.5zM169 253q-3 0 -1 -6t4 -6t2 6t-5 6zM80 160q-3 -11 -5 -31t-2.5 -41t0.5 -38.5t4 -23.5q5 -11 12.5 -9.5t23.5 15.5q25 22 42 61.5t21 87.5l2 23l-32 29l-28 16
q-5 3 -10.5 -5t-10 -22t-9 -31t-8.5 -31zM144 407q3 2 10 2t14 -2t12.5 -5t5.5 -6q0 -2 -11.5 -13t-25.5 -24t-26.5 -24t-15.5 -12q-9 -2 -15 0q-14 2 -11 10t27 36q13 14 23.5 25.5t12.5 12.5z" />
    <glyph glyph-name="ocircumflex" unicode="&#xf4;" horiz-adv-x="259" 
d="M122 -6q-11 -6 -26.5 -5.5t-30.5 5.5t-28 14t-20 21q-6 11 -10.5 28t-6 36.5t-0.5 39t6 36.5q2 10 7 25t10 26q14 36 36 55.5t48 19.5q20 0 36 -8q9 -6 16 -6t18 -10.5t19 -24.5q4 -8 7 -13.5t6 -6.5q12 -6 26.5 -9.5t34.5 -2.5q8 1 14.5 1.5t12.5 2.5q5 2 8.5 -5.5
t-8.5 -9.5q-7 -2 -16 -4t-20 -3q-16 -1 -25 -0.5t-30 7.5q-2 -36 -7 -68.5t-15 -60t-25 -48t-37 -32.5zM169 253q-3 0 -1 -6t4 -6t2 6t-5 6zM80 160q-3 -11 -5 -31t-2.5 -41t0.5 -38.5t4 -23.5q5 -11 12.5 -9.5t23.5 15.5q25 22 42 61.5t21 87.5l2 23l-32 29l-28 16
q-5 3 -10.5 -5t-10 -22t-9 -31t-8.5 -31zM155 413q10 2 21 -4t17 -17q3 -5 7 -15t7.5 -21t6 -20t1.5 -12q-2 -10 -15.5 -11.5t-20.5 9.5q-2 2 -6 13l-8 22l-11 30l-11 -11q-5 -4 -12.5 -11.5l-14.5 -14.5q-9 -10 -14 -13t-10 -1q-4 0 -7.5 1.5t-4.5 4.5t8.5 13.5t22.5 23
t25.5 22.5t18.5 12z" />
    <glyph glyph-name="otilde" unicode="&#xf5;" horiz-adv-x="259" 
d="M122 -6q-11 -6 -26.5 -5.5t-30.5 5.5t-28 14t-20 21q-6 11 -10.5 28t-6 36.5t-0.5 39t6 36.5q2 10 7 25t10 26q14 36 36 55.5t48 19.5q20 0 36 -8q9 -6 16 -6t18 -10.5t19 -24.5q4 -8 7 -13.5t6 -6.5q12 -6 26.5 -9.5t34.5 -2.5q8 1 14.5 1.5t12.5 2.5q5 2 8.5 -5.5
t-8.5 -9.5q-7 -2 -16 -4t-20 -3q-16 -1 -25 -0.5t-30 7.5q-2 -36 -7 -68.5t-15 -60t-25 -48t-37 -32.5zM169 253q-3 0 -1 -6t4 -6t2 6t-5 6zM80 160q-3 -11 -5 -31t-2.5 -41t0.5 -38.5t4 -23.5q5 -11 12.5 -9.5t23.5 15.5q25 22 42 61.5t21 87.5l2 23l-32 29l-28 16
q-5 3 -10.5 -5t-10 -22t-9 -31t-8.5 -31zM208 378q10 -1 9 -13q-2 -14 -10.5 -26.5t-17.5 -17.5q-12 -6 -28.5 -0.5t-26.5 18.5q-10 14 -12 31q-2 14 -3 16t-6 -3q-2 -3 -5.5 -8.5t-5.5 -10.5q-9 -23 -20 -12q-6 6 -1.5 20t13.5 25q13 13 31 11.5t30 -15.5q2 -3 6 -11.5
t8 -17.5q6 -20 11 -20t12 19q5 12 7.5 14t8.5 1z" />
    <glyph glyph-name="odieresis" unicode="&#xf6;" horiz-adv-x="259" 
d="M122 -6q-11 -6 -26.5 -5.5t-30.5 5.5t-28 14t-20 21q-6 11 -10.5 28t-6 36.5t-0.5 39t6 36.5q2 10 7 25t10 26q14 36 36 55.5t48 19.5q20 0 36 -8q9 -6 16 -6t18 -10.5t19 -24.5q4 -8 7 -13.5t6 -6.5q12 -6 26.5 -9.5t34.5 -2.5q8 1 14.5 1.5t12.5 2.5q5 2 8.5 -5.5
t-8.5 -9.5q-7 -2 -16 -4t-20 -3q-16 -1 -25 -0.5t-30 7.5q-2 -36 -7 -68.5t-15 -60t-25 -48t-37 -32.5zM169 253q-3 0 -1 -6t4 -6t2 6t-5 6zM80 160q-3 -11 -5 -31t-2.5 -41t0.5 -38.5t4 -23.5q5 -11 12.5 -9.5t23.5 15.5q25 22 42 61.5t21 87.5l2 23l-32 29l-28 16
q-5 3 -10.5 -5t-10 -22t-9 -31t-8.5 -31zM145 404q20 -7 21 -16t-13 -34q-3 -5 -9 -6.5t-12.5 -1t-13.5 4t-11 8.5q-3 5 -3.5 10t3.5 16q6 18 13 21.5t25 -2.5zM216 382q14 -6 17.5 -11t-0.5 -21q-2 -11 -5 -15.5t-8 -7.5q-8 -4 -21 -2t-21 8q-5 4 -4.5 8.5t5.5 19.5
q7 20 13 23.5t24 -2.5z" />
    <glyph glyph-name="divide" unicode="&#xf7;" horiz-adv-x="173" 
d="M141 208q17 -17 4 -24.5t-60 -8.5q-17 -1 -32 -0.5t-19 1.5q-10 1 -18 13q-5 9 -5 11t5 5q4 4 62 7q10 1 18 1.5t13 0.5q18 0 23.5 -1t8.5 -5zM124 93q0 -9 -6.5 -18.5t-15.5 -13.5q-11 -5 -17.5 -5t-17.5 5q-17 7 -17 26.5t17 30.5q6 3 15 5t17 1q5 0 9 -2
q5 -2 10.5 -11.5t5.5 -17.5zM102 267q-11 -5 -17.5 -5t-17.5 5q-17 7 -17 27t17 30q6 4 15 5.5t17 0.5q7 0 9 -1q5 -2 10.5 -12t5.5 -18q0 -9 -6.5 -18.5t-15.5 -13.5z" />
    <glyph glyph-name="oslash" unicode="&#xf8;" horiz-adv-x="259" 
d="M122 -6q-11 -6 -26.5 -5.5t-30.5 5.5t-28 14t-20 21q-6 11 -10.5 28t-6 36.5t-0.5 39t6 36.5q2 10 7 25t10 26q14 36 36 55.5t48 19.5q20 0 36 -8q9 -6 16 -6t18 -10.5t19 -24.5q4 -8 7 -13.5t6 -6.5q12 -6 26.5 -9.5t34.5 -2.5q8 1 14.5 1.5t12.5 2.5q5 2 8.5 -5.5
t-8.5 -9.5q-7 -2 -16 -4t-20 -3q-16 -1 -25 -0.5t-30 7.5q-2 -36 -7 -68.5t-15 -60t-25 -48t-37 -32.5zM169 253q-3 0 -1 -6t4 -6t2 6t-5 6zM80 160q-3 -11 -5 -31t-2.5 -41t0.5 -38.5t4 -23.5q5 -11 12.5 -9.5t23.5 15.5q25 22 42 61.5t21 87.5l2 23l-32 29l-28 16
q-5 3 -10.5 -5t-10 -22t-9 -31t-8.5 -31zM50.2402 -51.7812q-1.82031 -4.28027 -6.67578 -6.4209q-4.85449 -2.14062 -7.88867 -0.535156q-0.607422 0.535156 -1.21387 1.87305q-0.606445 1.33691 0.606445 1.87207q0.607422 2.67578 5.46191 17.123
q4.85547 14.4482 11.5312 32.6416q6.6748 18.1924 13.6543 36.1182t11.2275 28.0928q1.82031 5.88574 5.1582 14.7148t6.97852 18.7285q3.6416 9.89941 7.58594 20.0664q3.94531 10.167 7.58594 19.2637q17.5996 47.0879 32.1641 84.8125q14.5654 37.7236 25.1855 64.2109
t16.9922 41.2021q6.37207 14.7158 8.19336 15.7861q9.10254 6.4209 17.5986 3.20996q4.24902 -1.60547 4.24902 -4.28027q0 -2.67578 -1.21387 -6.95605q-1.21387 -3.21094 -3.33789 -9.63184q-2.12402 -6.42188 -7.2832 -18.9961q-5.1582 -12.5752 -13.6543 -32.9082
q-8.49609 -20.334 -21.8477 -52.4395q-3.64062 -8.56152 -8.79883 -21.6719q-5.15918 -13.1094 -11.5312 -28.3594q-6.37207 -15.251 -12.7441 -31.8389t-12.4404 -31.5703q-9.10352 -23.0088 -18.8135 -46.8203q-9.70996 -23.8125 -18.5098 -44.9482
q-8.7998 -21.1367 -16.3857 -37.7246t-11.834 -24.6143z" />
    <glyph glyph-name="ugrave" unicode="&#xf9;" horiz-adv-x="277" 
d="M86 5q-20 -8 -38.5 -2.5t-27.5 23.5q-5 10 -8.5 20.5t-6 23.5t-4 29t-1.5 38q-2 45 2 78.5t12 53.5q4 9 7 10.5t16 1.5q28 0 40 -14q2 -3 2 -14t-5 -37q-5 -35 -7.5 -68t-3.5 -59t0.5 -43.5t5.5 -21.5t17 16t33 61l15 30t9 21t4.5 16t2.5 16q6 48 13.5 74.5t16.5 30.5
q8 3 23 -0.5t21 -10.5q2 -2 3 -5t1 -9.5t-2 -18.5t-5 -33q-5 -32 -8 -54t-4.5 -38.5t-2.5 -29.5t-1 -25q0 -60 28 -90q12 -12 12 -17q-3 -5 -17 -3t-25 8q-14 7 -22 14.5t-15 20.5q-3 6 -5.5 15t-5 19.5t-4 21t-1.5 18.5q0 21 -4 19t-18 -30q-8 -16 -13.5 -26t-10 -16
t-8.5 -9t-10 -5zM122 410q8 0 17.5 -11t26.5 -40q11 -20 13.5 -26.5t-2.5 -11.5q-7 -6 -15.5 -3t-21.5 17q-7 8 -15 18t-15 19.5t-11.5 16.5t-4.5 9q0 4 9.5 8t18.5 4z" />
    <glyph glyph-name="uacute" unicode="&#xfa;" horiz-adv-x="277" 
d="M86 5q-20 -8 -38.5 -2.5t-27.5 23.5q-5 10 -8.5 20.5t-6 23.5t-4 29t-1.5 38q-2 45 2 78.5t12 53.5q4 9 7 10.5t16 1.5q28 0 40 -14q2 -3 2 -14t-5 -37q-5 -35 -7.5 -68t-3.5 -59t0.5 -43.5t5.5 -21.5t17 16t33 61l15 30t9 21t4.5 16t2.5 16q6 48 13.5 74.5t16.5 30.5
q8 3 23 -0.5t21 -10.5q2 -2 3 -5t1 -9.5t-2 -18.5t-5 -33q-5 -32 -8 -54t-4.5 -38.5t-2.5 -29.5t-1 -25q0 -60 28 -90q12 -12 12 -17q-3 -5 -17 -3t-25 8q-14 7 -22 14.5t-15 20.5q-3 6 -5.5 15t-5 19.5t-4 21t-1.5 18.5q0 21 -4 19t-18 -30q-8 -16 -13.5 -26t-10 -16
t-8.5 -9t-10 -5zM153 407q3 2 10 2t14 -2t12.5 -5t5.5 -6q0 -2 -11.5 -13t-25.5 -24t-26.5 -24t-15.5 -12q-9 -2 -15 0q-14 2 -11 10t27 36q13 14 23.5 25.5t12.5 12.5z" />
    <glyph glyph-name="ucircumflex" unicode="&#xfb;" horiz-adv-x="277" 
d="M86 5q-20 -8 -38.5 -2.5t-27.5 23.5q-5 10 -8.5 20.5t-6 23.5t-4 29t-1.5 38q-2 45 2 78.5t12 53.5q4 9 7 10.5t16 1.5q28 0 40 -14q2 -3 2 -14t-5 -37q-5 -35 -7.5 -68t-3.5 -59t0.5 -43.5t5.5 -21.5t17 16t33 61l15 30t9 21t4.5 16t2.5 16q6 48 13.5 74.5t16.5 30.5
q8 3 23 -0.5t21 -10.5q2 -2 3 -5t1 -9.5t-2 -18.5t-5 -33q-5 -32 -8 -54t-4.5 -38.5t-2.5 -29.5t-1 -25q0 -60 28 -90q12 -12 12 -17q-3 -5 -17 -3t-25 8q-14 7 -22 14.5t-15 20.5q-3 6 -5.5 15t-5 19.5t-4 21t-1.5 18.5q0 21 -4 19t-18 -30q-8 -16 -13.5 -26t-10 -16
t-8.5 -9t-10 -5zM143 413q10 2 21 -4t17 -17q3 -5 7 -15t7.5 -21t6 -20t1.5 -12q-2 -10 -15.5 -11.5t-20.5 9.5q-2 2 -6 13l-8 22l-11 30l-11 -11q-5 -4 -12.5 -11.5l-14.5 -14.5q-9 -10 -14 -13t-10 -1q-4 0 -7.5 1.5t-4.5 4.5t8.5 13.5t22.5 23t25.5 22.5t18.5 12z" />
    <glyph glyph-name="udieresis" unicode="&#xfc;" horiz-adv-x="277" 
d="M86 5q-20 -8 -38.5 -2.5t-27.5 23.5q-5 10 -8.5 20.5t-6 23.5t-4 29t-1.5 38q-2 45 2 78.5t12 53.5q4 9 7 10.5t16 1.5q28 0 40 -14q2 -3 2 -14t-5 -37q-5 -35 -7.5 -68t-3.5 -59t0.5 -43.5t5.5 -21.5t17 16t33 61l15 30t9 21t4.5 16t2.5 16q6 48 13.5 74.5t16.5 30.5
q8 3 23 -0.5t21 -10.5q2 -2 3 -5t1 -9.5t-2 -18.5t-5 -33q-5 -32 -8 -54t-4.5 -38.5t-2.5 -29.5t-1 -25q0 -60 28 -90q12 -12 12 -17q-3 -5 -17 -3t-25 8q-14 7 -22 14.5t-15 20.5q-3 6 -5.5 15t-5 19.5t-4 21t-1.5 18.5q0 21 -4 19t-18 -30q-8 -16 -13.5 -26t-10 -16
t-8.5 -9t-10 -5zM114 404q20 -7 21 -16t-13 -34q-3 -5 -9 -6.5t-12.5 -1t-13.5 4t-11 8.5q-3 5 -3.5 10t3.5 16q6 18 13 21.5t25 -2.5zM185 382q14 -6 17.5 -11t-0.5 -21q-2 -11 -5 -15.5t-8 -7.5q-8 -4 -21 -2t-21 8q-5 4 -4.5 8.5t5.5 19.5q7 20 13 23.5t24 -2.5z" />
    <glyph glyph-name="yacute" unicode="&#xfd;" horiz-adv-x="313" 
d="M252 180q-3 -89 -15.5 -169t-31.5 -137q-13 -36 -24.5 -61.5t-25 -44t-30.5 -31.5t-39 -25q-52 -26 -82 -14q-14 5 -7.5 12t22.5 2q10 -2 27.5 7t34.5 26q15 14 27 38t26 62q9 25 15 48t10.5 49.5t8 60.5t7.5 81q2 27 4 51t3 31q2 11 -1.5 4.5t-14.5 -38.5
q-16 -45 -28.5 -70.5t-29.5 -42.5q-10 -11 -15.5 -14t-16.5 -5q-51 -4 -70 64q-3 11 -4.5 32t-1.5 45t1.5 46.5t4.5 35.5q6 26 13 37t19 13q11 2 23 -1.5t18 -10.5q2 -2 3 -4.5t1 -8t-1.5 -15.5t-4.5 -28q-3 -23 -5.5 -47.5t-3 -46.5t0 -40t2.5 -29q3 -18 5.5 -18t13.5 15
q6 8 15.5 23t16.5 29t18 44.5t22.5 63.5t20 61.5t10.5 38.5q4 29 31 15q9 -5 15 -13.5t9 -23.5t4 -39t0 -58zM131 407q3 2 10 2t14 -2t12.5 -5t5.5 -6q0 -2 -11.5 -13t-25.5 -24t-26.5 -24t-15.5 -12q-9 -2 -15 0q-14 2 -11 10t27 36q13 14 23.5 25.5t12.5 12.5z" />
    <glyph glyph-name="ydieresis" unicode="&#xff;" horiz-adv-x="313" 
d="M83 388q21 4 26.5 -3.5t3.5 -36.5q0 -11 -15.5 -17t-27.5 0q-5 2 -7.5 6.5t-4.5 16.5q-3 19 1.5 25t23.5 9zM156 402q15 1 20 -2t10 -19q3 -11 2.5 -16t-3.5 -10q-5 -7 -18 -11.5t-22 -2.5q-6 1 -8 5t-4 20q-4 21 0 27t23 9zM252 180q-3 -89 -15.5 -169t-31.5 -137
q-13 -36 -24.5 -61.5t-25 -44t-30.5 -31.5t-39 -25q-52 -26 -82 -14q-14 5 -7.5 12t22.5 2q10 -2 27.5 7t34.5 26q15 14 27 38t26 62q9 25 15 48t10.5 49.5t8 60.5t7.5 81q2 27 4 51t3 31q2 11 -1.5 4.5t-14.5 -38.5q-16 -45 -28.5 -70.5t-29.5 -42.5q-10 -11 -15.5 -14
t-16.5 -5q-51 -4 -70 64q-3 11 -4.5 32t-1.5 45t1.5 46.5t4.5 35.5q6 26 13 37t19 13q11 2 23 -1.5t18 -10.5q2 -2 3 -4.5t1 -8t-1.5 -15.5t-4.5 -28q-3 -23 -5.5 -47.5t-3 -46.5t0 -40t2.5 -29q3 -18 5.5 -18t13.5 15q6 8 15.5 23t16.5 29t18 44.5t22.5 63.5t20 61.5
t10.5 38.5q4 29 31 15q9 -5 15 -13.5t9 -23.5t4 -39t0 -58z" />
    <glyph glyph-name="Lslash" unicode="&#x141;" horiz-adv-x="214" 
d="M62 -146q-11 -5 -17 -4.5t-14 8.5q-11 12 -11.5 19t8.5 15q11 9 28 16q18 7 15 13q-1 3 -3 16.5t-4.5 33t-5 43t-5 45t-4.5 39.5t-2 27q-1 19 0 51t2.5 67.5t4 70.5t5.5 59q7 50 17.5 92t23.5 70q6 12 10 19.5t8.5 12t9.5 7.5t12 5q23 8 43 -7q8 -7 8.5 -15t-7.5 -10
q-9 -1 -19 -31t-19 -81t-16.5 -118t-11.5 -143q-1 -13 -2 -36t-1.5 -49.5t-0.5 -54v-49.5v-36.5t1 -15.5q0 -1 10.5 1.5t24.5 7.5q42 13 80.5 18.5t71.5 5.5q25 -2 33.5 -3.5t19.5 -7.5q8 -5 16 -13.5t14 -17.5t9 -17t0 -11q-5 -4 -11 2q-10 8 -24.5 11t-43.5 3
q-34 -1 -63.5 -4.5t-68.5 -14.5q-15 -4 -33.5 -9.5t-35.5 -11t-31.5 -10.5t-20.5 -8zM3 101q-6 4 -5 18.5t8 20.5q6 5 34 7t92 3q19 1 29 0.5t14.5 -1.5t5.5 -3.5t1 -5.5q0 -25 -22 -31q-5 -2 -22 -3t-37 -3q-20 -1 -40.5 -2t-30.5 -1q-9 -1 -17 -0.5t-10 1.5z" />
    <glyph glyph-name="lslash" unicode="&#x142;" horiz-adv-x="152" 
d="M139 365q-6 -31 -14.5 -63t-17 -59.5t-17 -49t-14.5 -31.5q-2 -2 -3 -7t-1.5 -14t-0.5 -23.5v-36.5q0 -30 1 -59t3 -53t5 -41.5t7 -24.5q4 -8 7 -10t14 -1q5 1 9.5 0t4.5 -2q0 -24 -44 -24q-13 0 -17.5 1.5t-13.5 10.5q-8 8 -13 17t-11 29q-16 52 -21 105.5t-3 109
t8.5 112.5t14.5 115q4 25 11.5 52t17 50t18.5 40t16 24q10 10 27 12q8 0 16 -3q14 -6 18.5 -21t4.5 -56q0 -15 -0.5 -26t-2 -21.5t-3.5 -23t-6 -28.5zM77 232l7 20q3 9 7.5 24.5t8.5 29.5q6 25 11.5 53t9 53t4.5 45t-1 30q-3 9 -4 9h-1l-1 -2q-4 -8 -10 -35t-12 -61.5
t-11 -70.5t-6 -61zM-29.6289 100.374q-4.78125 3.69824 -3.98438 17.1035t6.37402 18.9521q4.78125 4.62305 27.0918 6.47168t73.3066 2.77344q15.1396 0.924805 23.1084 0.461914q7.96777 -0.461914 11.5537 -1.38672q3.58496 -0.923828 4.38184 -3.23535
t0.796875 -5.08496q0 -23.1123 -17.5293 -28.6592q-3.98438 -1.84863 -17.5303 -2.77344t-29.4824 -2.77344q-15.9355 -0.924805 -32.2705 -1.84961q-16.335 -0.923828 -24.3027 -0.923828q-7.17188 -0.924805 -13.5459 -0.462891q-6.375 0.462891 -7.96777 1.38672z" />
    <glyph glyph-name="OE" unicode="&#x152;" horiz-adv-x="803" 
d="M375 547q33 -23 55 -73t28 -114q5 -51 -2.5 -108.5t-24.5 -111.5t-42 -100t-55 -75q-18 -17 -36.5 -27.5t-41.5 -16.5q-15 -5 -24.5 -5t-27.5 3q-42 8 -80.5 53t-60.5 112q-18 57 -21.5 121t5.5 124.5t29.5 112t51.5 83.5q49 48 97 32q11 -4 16 -3.5t17 5.5q19 9 44 9
q38 2 73 -21zM334 5q23 31 42 72.5t32.5 86t20 89.5t4.5 85q-1 16 -1.5 27.5t-2 21.5t-4 19t-5.5 21q-9 36 -28 66.5t-41 45.5q-13 9 -24 9h-11q-16 -2 -32 -9t-28.5 -17t-20 -22.5t-7.5 -24.5q0 -9 -6 -9q-8 0 -16.5 7.5t-8.5 14.5q0 9 4.5 21t10.5 18q11 12 3 7.5
t-21 -17.5q-23 -25 -43.5 -73.5t-31.5 -107.5q-3 -18 -4.5 -45.5t-1.5 -57.5t2 -57.5t5 -45.5q7 -33 13.5 -51t17.5 -41q26 -54 60 -77t67 -8q15 7 27.5 18.5t28.5 33.5zM404 480q-5 2 -7.5 15.5t-0.5 21.5q2 14 10.5 22.5t27.5 16.5q22 10 44 16t60 12q29 4 66.5 4.5
t73 -2.5t64.5 -8.5t41 -12.5q17 -9 24 -26t0 -30q-5 -8 -8 -4q-9 7 -37.5 13t-64.5 9.5t-74.5 4t-67.5 -2.5l-23 -3v-15q0 -5 -2.5 -27t-4.5 -47q-3 -22 -6.5 -56.5t-6.5 -68t-5.5 -59.5t-2.5 -30q0 -2 1.5 -3.5t9 -1.5h22t40.5 1q38 2 59 1t29 -3q9 -2 16 -8t10 -12.5
t1.5 -12t-8.5 -7.5q-4 -1 -32 -2t-64 -2l-86 -3v-74q-1 -61 3 -101.5t13 -68.5q11 -31 26.5 -39t50.5 1q25 6 53.5 21t52 32t38.5 34t13 27q-1 5 0.5 6.5t8.5 1.5q18 0 27.5 -18t2.5 -35q-8 -16 -29.5 -32.5t-50 -30t-60.5 -23t-61 -10.5q-12 -1 -26 -0.5t-21 1.5
q-8 2 -16 4.5t-13 4.5q-9 5 -21.5 19t-18.5 27q-8 16 -16 40.5t-14 54.5t-10.5 63.5t-6.5 66.5l-3 37h-10q-10 0 -15 8q-5 9 -2.5 12.5t14.5 3.5t14.5 5.5t2.5 28.5q0 35 6.5 89.5t19.5 128.5q4 21 6.5 36t1.5 16t-6 -0.5t-12 -4.5t-14 -7t-11 -8q-11 -9 -15 -7z" />
    <glyph glyph-name="oe" unicode="&#x153;" horiz-adv-x="406" 
d="M122 -6q-11 -6 -26.5 -5.5t-30.5 5.5t-28 14t-20 21q-6 11 -10.5 28t-6 36.5t-0.5 39t6 36.5q2 10 7 25t10 26q14 36 36 55.5t48 19.5q20 0 36 -8q9 -6 16 -6t18 -10.5t19 -24.5q4 -8 7 -13.5t6 -6.5q25 -10 40.5 -12.5t17.5 -3t-12 -1t-49 -6.5q-2 -36 -7 -68.5t-15 -60
t-25 -48t-37 -32.5zM169 253q-3 0 -1 -6t4 -6t2 6t-5 6zM80 160q-3 -11 -5 -31t-2.5 -41t0.5 -38.5t4 -23.5q5 -11 12.5 -9.5t23.5 15.5q25 22 42 61.5t21 87.5l2 23l-32 29l-28 16q-5 3 -10.5 -5t-10 -22t-9 -31t-8.5 -31zM262 130q-10 0 -12.5 -6t-2.5 -29t5 -42t13 -32
q15 -23 33 -22.5t44 25.5q19 18 34 47t36 83q6 16 11 29t7 15q2 4 8.5 4.5t9.5 -4.5q1 -1 -3.5 -16.5t-12.5 -37.5q-26 -75 -52.5 -112.5t-63.5 -50.5q-14 -5 -35.5 -5.5t-36.5 4.5q-25 9 -43.5 36.5t-22.5 59.5q-3 27 1 56t14.5 55.5t26 48.5t34.5 36q14 11 25.5 15.5
t27.5 3.5q2 0 4.5 -0.5t4.5 -0.5q11 -1 16 -3t11 -9q9 -10 10 -20.5t-7 -34.5q-7 -21 -18 -40.5t-25 -33.5q-13 -11 -21 -15t-20 -4zM277 214q-3 -5 -6.5 -15.5t-7.5 -21t-6.5 -19t-2.5 -10.5q0 -3 8.5 4t19.5 19q8 7 15 18t10 19q4 8 6.5 18t4 19t1 15.5t-2.5 6.5t-7 -5.5
t-11 -13.5t-11.5 -17t-9.5 -17z" />
    <glyph glyph-name="Scaron" unicode="&#x160;" horiz-adv-x="439" 
d="M58 342q2 27 18.5 59t42.5 62t58.5 55.5t67.5 40.5q37 15 72.5 11.5t55.5 -26.5q10 -11 13 -24.5t-2 -34.5q-5 -28 -15 -41.5t-24 -9.5q-11 3 -12.5 7.5t3.5 20.5q9 31 9 53t-10 28q-7 4 -23.5 -1t-36.5 -16q-17 -10 -36.5 -28t-38.5 -40t-35 -45t-26 -43
q-11 -22 -12.5 -42.5t6.5 -31.5q3 -6 7.5 -10t13 -8t22.5 -8t37 -10q31 -8 55 -16.5t43.5 -18t35 -21t29.5 -26.5q45 -45 35.5 -96t-74.5 -115q-100 -102 -218 -108q-20 -1 -30.5 0t-18.5 4q-14 5 -22.5 14t-16.5 24q-14 28 -6 58t34 56q17 17 27 21.5t21 2.5q8 -2 8 -5
t-10 -9q-6 -3 -12 -12t-11.5 -20.5t-9 -24t-4.5 -22.5q-1 -20 5 -34.5t19 -20.5q12 -7 32.5 -5.5t41.5 9.5q30 12 62 36t58 52.5t44.5 59t21.5 54.5q5 45 -51 93q-20 17 -44.5 27t-67.5 21q-27 6 -46 11.5t-32 11t-22 12.5t-17 16q-11 11 -13.5 21t-0.5 32zM289 596
q-10 -2 -21 4t-17 17q-3 5 -7 15t-7.5 21t-6 20t-1.5 12q2 10 15.5 11.5t20.5 -9.5q2 -2 6 -13l8 -22l11 -30l11 11q5 4 12.5 11.5l14.5 14.5q9 10 14 13t10 1q10 0 12 -6q1 -3 -8.5 -13.5t-22.5 -23t-25.5 -23t-18.5 -11.5z" />
    <glyph glyph-name="scaron" unicode="&#x161;" horiz-adv-x="236" 
d="M301 214q1 -3 -14 -13q-7 -4 -24.5 -16t-37.5 -27t-39.5 -30t-30.5 -24l-22 -19l21 -19q50 -45 33 -85q-8 -18 -24 -34t-37 -27.5t-43.5 -16.5t-41.5 -2q-15 2 -24 6t-20 14q-16 16 -13.5 35.5t22.5 51.5q8 11 21.5 26.5t25.5 26.5t20.5 19.5t8.5 9.5t-5.5 5t-13.5 9
t-17.5 13.5t-14.5 14.5q-12 14 -16 34t-2 31q2 13 10 29t19.5 31.5t24.5 28t26 18.5q18 8 34 8q8 0 15.5 -1t14.5 -6q35 -17 19 -43q-4 -5 -11.5 -1.5t-7.5 8.5q0 9 -12.5 1t-32.5 -30q-23 -24 -31.5 -42t-8.5 -39q0 -14 1.5 -20t9.5 -14q7 -8 11.5 -12t10.5 -3t16.5 8
t28.5 20q18 14 41.5 30t37.5 26q24 16 33 20t20 4q17 0 19 -4zM130 8q14 31 -6 51l-9 9l-22 -21q-59 -57 -68 -98q-3 -18 6 -18q2 0 9.5 3.5t17.5 8.5q23 12 44 31t28 34zM132 328q-10 -2 -21 4t-17 17q-3 5 -7 15t-7.5 21t-6 20t-1.5 12q2 10 15.5 11.5t20.5 -9.5
q2 -2 6 -13l8 -22l11 -30l11 11q5 4 12.5 11.5l14.5 14.5q9 10 14 13t10 1q10 0 12 -6q1 -3 -8.5 -13.5t-22.5 -23t-25.5 -23t-18.5 -11.5z" />
    <glyph glyph-name="Ydieresis" unicode="&#x178;" horiz-adv-x="410" 
d="M97 66q2 0 8 5t13.5 12.5t14.5 15.5t12 15q55 81 122 310q9 30 15 52.5t10.5 40.5t7.5 34.5t5 34.5q2 16 4.5 28.5t4.5 14.5q5 5 16 4.5t19 -6.5q4 -3 7 -8.5t5 -15t4 -25.5t4 -41q3 -31 2.5 -73t-2.5 -87t-7 -90.5t-11 -82.5q-7 -44 -18 -91.5t-25 -98.5
q-11 -41 -22 -69.5t-23.5 -49t-28.5 -34t-37 -23.5q-32 -16 -60 -21t-50 3q-10 3 -21 12.5t-9 13.5q4 5 16.5 3.5t20.5 -8.5q9 -8 16 -8t21 5q38 13 62.5 48t42.5 103q6 23 13 53t13.5 62t12 62.5t8.5 54.5q4 31 7 68t5.5 68.5t3 52t-1.5 18.5q-2 -1 -6 -15.5t-10 -33.5
q-9 -33 -20.5 -69t-23 -69t-22 -60.5t-18.5 -43.5q-25 -51 -48 -72.5t-54 -20.5q-25 1 -40.5 13t-26.5 40q-6 16 -9 33.5t-3 45t3 70.5t9 109q10 96 10 153t-8 84q-2 5 -0.5 6t9.5 1q12 0 24 -8t19 -21q17 -31 20 -105.5t-9 -172.5q-5 -41 -8.5 -68.5t-5 -46.5t-1.5 -32
t2 -24q2 -19 7.5 -37t9.5 -18zM180 711q20 -7 21 -16t-13 -34q-3 -5 -9 -6.5t-12.5 -1t-13.5 4t-11 8.5q-3 5 -3.5 10t3.5 16q6 18 13 21.5t25 -2.5zM251 689q14 -6 17.5 -11t-0.5 -21q-2 -11 -5 -15.5t-8 -7.5q-8 -4 -21 -2t-21 8q-5 4 -4.5 8.5t5.5 19.5q7 20 13 23.5
t24 -2.5z" />
    <glyph glyph-name="Zcaron" unicode="&#x17d;" horiz-adv-x="474" 
d="M482 560q0 -36 -35.5 -105t-99.5 -153l-33 -45l29 -3q23 -3 31.5 -7.5t8.5 -12.5q0 -5 -4 -5.5t-21 -0.5q-11 1 -24.5 1t-21.5 -1h-20l-49 -63q-91 -121 -134 -170q-5 -5 -8.5 -10t-6.5 -8q-4 -4 -6 -7q3 0 22 7q34 12 74 21t78 15t70 8t50 -2q71 -13 75 -58
q3 -20 -2 -29t-10 5q-10 25 -49 35.5t-102 4.5q-23 -2 -40.5 -4t-35.5 -6t-39 -10.5t-51 -16.5q-28 -9 -51.5 -15t-28.5 -6q-11 0 -23 7q-11 8 -13 16q-1 7 28.5 50t97.5 135q28 37 46 63t16 27q-4 2 -23 -3t-38 -13q-8 -3 -15.5 -5t-8.5 -1q-5 3 -9.5 14.5t-2.5 16.5
q4 9 26.5 14.5t70.5 9.5l31 3l29 39q6 9 15.5 22t20.5 29t23.5 32.5t23.5 32.5q28 38 48 66t32.5 48.5t19.5 35t10 25.5q2 6 0 7.5t-10 3.5q-14 3 -43 -0.5t-70 -12.5t-77 -20t-62 -23t-41 -23.5t-15 -20.5q0 -8 -5 -12t-11 -1q-4 1 -9.5 5.5t-10.5 10t-8.5 11.5t-3.5 10
q-1 11 1.5 16t11.5 13q15 13 58 28t94.5 27.5t101 19t76.5 3.5q24 -3 38 -21t14 -44zM321 646q-10 -2 -21 4t-17 17q-3 5 -7 15t-7.5 21t-6 20t-1.5 12q2 10 15.5 11.5t20.5 -9.5q2 -2 6 -13l8 -22l11 -30l11 11q5 4 12.5 11.5l14.5 14.5q9 10 14 13t10 1q10 0 12 -6
q1 -3 -8.5 -13.5t-22.5 -23t-25.5 -23t-18.5 -11.5z" />
    <glyph glyph-name="zcaron" unicode="&#x17e;" horiz-adv-x="278" 
d="M206 165q-8 -12 -20 -27t-26 -30t-28 -29t-25 -23l-25 -20l67 -2q22 -1 35.5 -1.5t21.5 -1.5t11.5 -2t6.5 -3q6 -8 5 -9q-1 -2 -12 -3t-25 -1t-34 -1l-40 -2t-38 -2.5t-28 -2.5q-9 -2 -15.5 -0.5t-15.5 6.5q-16 7 -16 13q-1 3 2 8.5t10.5 15t21 24t33.5 35.5
q17 19 35.5 40.5t27.5 33.5q9 13 17.5 26.5t15.5 25.5t11 21.5t4 14.5q0 6 -2 7.5t-10 1.5q-7 0 -18 -1.5t-24 -4.5t-26 -7t-24 -8q-18 -6 -25 -7t-12 1q-11 5 -8 11t21 15q23 11 54.5 19t54.5 8q20 0 37.5 -7.5t26.5 -19.5q13 -17 7 -46.5t-29 -65.5zM153 311q-10 -2 -21 4
t-17 17q-3 5 -7 15t-7.5 21t-6 20t-1.5 12q2 10 15.5 11.5t20.5 -9.5q2 -2 6 -13l8 -22l11 -30l11 11q5 4 12.5 11.5l14.5 14.5q9 10 14 13t10 1q10 0 12 -6q1 -3 -8.5 -13.5t-22.5 -23t-25.5 -23t-18.5 -11.5z" />
    <glyph glyph-name="florin" unicode="&#x192;" horiz-adv-x="280" 
d="M251 577q8 -8 13 -18t2 -13q-5 -3 -18 11q-10 11 -15 12t-15 -5q-20 -12 -36 -48t-25 -86q-2 -12 -4.5 -34t-4 -43.5t-2 -38.5t0.5 -19q1 -1 9 -1.5t19 1.5q17 2 22.5 1t8.5 -4q5 -6 2.5 -7.5t-21.5 -3.5q-8 -1 -16.5 -2t-13.5 -2l-12 -2l-1 -57q-2 -57 -9.5 -86
t-23.5 -46l-8 -9l70 2q23 0 37 0.5t21.5 0t11 -1.5t5.5 -3q2 -4 1.5 -5t-6.5 -3q-4 0 -7 -0.5t-4 0.5q-2 1 -16.5 0t-36.5 -3t-47.5 -5t-47.5 -6q-21 -3 -33 -5t-18 -2t-8.5 1t-5.5 3q-13 9 14 16q16 4 27 13.5t17 26.5t7.5 43t-0.5 64l-2 56h-15q-11 0 -21.5 5.5t-6.5 9.5
q1 1 7.5 2t15.5 2l21 2v43q0 76 17.5 138t47.5 94q25 27 52.5 30t50.5 -18z" />
    <glyph glyph-name="circumflex" unicode="&#x2c6;" horiz-adv-x="162" 
d="M85 413q10 2 21 -4t17 -17q3 -5 7 -15t7.5 -21t6 -20t1.5 -12q-2 -10 -15.5 -11.5t-20.5 9.5q-2 2 -6 13l-8 22l-11 30l-11 -11q-5 -4 -12.5 -11.5l-14.5 -14.5q-9 -10 -14 -13t-10 -1q-4 0 -7.5 1.5t-4.5 4.5t8.5 13.5t22.5 23t25.5 22.5t18.5 12z" />
    <glyph glyph-name="caron" unicode="&#x2c7;" horiz-adv-x="159" 
d="M72 311q-10 -2 -21 4t-17 17q-3 5 -7 15t-7.5 21t-6 20t-1.5 12q2 10 15.5 11.5t20.5 -9.5q2 -2 6 -13l8 -22l11 -30l11 11q5 4 12.5 11.5l14.5 14.5q9 10 14 13t10 1q10 0 12 -6q1 -3 -8.5 -13.5t-22.5 -23t-25.5 -23t-18.5 -11.5z" />
    <glyph glyph-name="ring" unicode="&#x2da;" horiz-adv-x="137" 
d="M79 416q19 -1 33 -12t14 -31q0 -41 -42 -55q-14 -4 -20.5 -4t-18.5 3q-5 2 -10 5.5t-10 8.5q-11 11 -11 28t11 31q10 14 25 20.5t29 5.5zM82 333q16 8 21.5 24.5t-3.5 31.5q-7 15 -21 13q-14 -1 -25 -17q-11 -17 -5.5 -35.5t21.5 -22.5q3 0 12 6z" />
    <glyph glyph-name="tilde" unicode="&#x2dc;" horiz-adv-x="159" 
d="M140 378q10 -1 9 -13q-2 -14 -10.5 -26.5t-17.5 -17.5q-12 -6 -28.5 -0.5t-26.5 18.5q-10 14 -12 31q-2 14 -3 16t-6 -3q-2 -3 -5.5 -8.5t-5.5 -10.5q-9 -23 -20 -12q-6 6 -1.5 20t13.5 25q13 13 31 11.5t30 -15.5q2 -3 6 -11.5t8 -17.5q6 -20 11 -20t12 19q5 12 7.5 14
t8.5 1z" />
    <glyph glyph-name="quoteright" unicode="&#x2019;" horiz-adv-x="79" 
d="M111 554q9 -1 15 -3t9 -7t4 -15t1 -26q0 -23 -1.5 -32t-5.5 -17q-8 -13 -19 -13q-9 -2 -10.5 0t-1.5 10v31q0 26 -1 36t-5 17q-6 11 -2.5 15t17.5 4z" />
    <glyph glyph-name="quotedblright" unicode="&#x201d;" horiz-adv-x="136" 
d="M95 554q19 -2 24 -10.5t5 -40.5q0 -23 -1 -32t-6 -17t-8 -10.5t-11 -2.5q-8 -1 -10 0t-2 7v34q0 26 -1 36t-5 17q-10 18 9 19h6zM33 554q19 -2 24 -10.5t5 -40.5q0 -23 -1 -32t-5 -17q-8 -13 -20 -13q-8 -2 -10 0t-2 13l1 28q0 26 -1.5 36t-5.5 17q-10 18 9 19h6z" />
    <glyph glyph-name="perthousand" unicode="&#x2030;" horiz-adv-x="606" 
d="M344 247q14 -6 26 -17.5t17 -24.5q4 -13 4.5 -29t-3 -32.5t-10 -32t-15.5 -26.5q-16 -18 -42 -25.5t-49 0.5q-39 14 -50 63q-3 17 0 35.5t11.5 35.5t21 30.5t28.5 20.5q12 6 31 6t30 -4zM366 165q2 14 -2.5 33.5t-21.5 30.5q-1 1 -4 1q-14 1 -29.5 -14t-25.5 -39
q-7 -14 -9.5 -29t-1 -28.5t6.5 -24.5t13 -16t14.5 -4t19.5 11q37 27 40 79zM394 599q5 0 13 -6.5t8 -10.5q0 -1 -9 -13.5t-22 -30.5q-38 -49 -64 -84t-48.5 -67t-46.5 -68l-58 -87q-33 -51 -56 -85.5t-38 -55.5t-22.5 -30t-9.5 -9t-6 1.5t-7 3.5q-5 4 -4.5 6.5t8.5 16.5
q7 14 20 36t29 48t34 54.5t35 55.5q36 57 76.5 114.5t76 104.5t60.5 76.5t31 29.5zM540 250q14 -5 26 -17t17 -25q4 -12 4.5 -28.5t-3 -33t-10.5 -32t-16 -26.5q-15 -18 -41.5 -25.5t-48.5 0.5q-40 15 -50 64q-3 17 0 35.5t11.5 35.5t21 30.5t28.5 20.5q6 2 14 4t17 2
q8 0 16 -1t14 -4zM562 168q2 15 -2.5 34t-21.5 30q-1 1 -4 1q-14 1 -29.5 -13.5t-25.5 -38.5q-7 -14 -9.5 -29t-1 -28.5t6.5 -24.5t13 -17q7 -5 14 -3.5t20 11.5q37 28 40 78zM67 401q-14 5 -23 12t-17 18q-12 20 -10.5 46t10.5 50q4 8 10.5 18t11.5 16q15 16 34 24t39 8
q19 -1 35.5 -9.5t27.5 -26.5q16 -28 8 -64t-30 -65q-17 -23 -44 -29.5t-52 2.5zM107 557q-14 -13 -22.5 -31.5t-11.5 -37.5t0.5 -36t14.5 -27q6 -7 13 -6.5t21 9.5q15 9 26.5 25.5t17 35.5t4.5 37.5t-10 31.5q-12 16 -23 16t-30 -17z" />
    <glyph glyph-name="fraction" unicode="&#x2044;" horiz-adv-x="247" 
d="M40 37q-2 -6 -12 -11t-15 -5q-2 0 -3.5 1t0.5 2q0 3 6 21t14 40.5l16 45t14 35.5q4 15 14 41.5t18 49.5q42 118 69.5 187t32.5 74q17 12 34 12q8 2 9 -1t0 -8q-1 -4 -3.5 -12t-9 -24t-17 -42t-27.5 -67q-5 -11 -11.5 -27t-14 -35.5t-15.5 -40.5t-15 -40
q-11 -29 -23.5 -59t-24 -57t-21 -48.5t-15.5 -31.5z" />
    <glyph glyph-name="Euro" unicode="&#x20ac;" horiz-adv-x="349" 
d="M299 104q0 -5 -9.5 -12.5t-20.5 -12.5q-6 -3 -17 -6t-22.5 -5t-22 -3.5t-17.5 -1.5q-4 0 -11.5 1t-12.5 3q-38 7 -66 46t-38 96l-4 25h-14q-12 0 -23 5.5t-11 10.5q0 3 4.5 4t17.5 1h16q4 0 7 1q1 0 1 9t1 22l2 30h-16q-30 0 -30 13q0 5 5 6t19 3l24 3l9 36q17 65 53 118
t83 75q27 12 55 14.5t53 -11.5q14 -7 18 -13.5t-6 -6.5q-4 1 -8.5 2t-8.5 3q-10 6 -28 5.5t-32 -7.5q-12 -5 -31 -24t-33 -38q-9 -14 -18 -32t-16.5 -37.5t-13.5 -37.5t-8 -32l-3 -16l43 2q29 2 37 1.5t12 -4.5q12 -12 -11 -12q-7 0 -22 -1t-29 -2l-34 -2l-1 -32l-1 -33
l40 3q26 2 33 1.5t9 -5.5v-7q-2 -1 -14 -2.5t-28 -2.5l-40 -4v-10q0 -13 4 -30t10 -34.5t14 -33.5t16 -27q9 -11 22.5 -17.5t28.5 -7t30 3.5t27 14q8 7 17.5 9t9.5 -3z" />
    <glyph glyph-name="trademark" unicode="&#x2122;" horiz-adv-x="440" 
d="M169 383q2 -12 4 -21.5t2 -11.5q1 -5 -10 -7q-8 0 -12.5 2.5t-12.5 11.5q-15 17 -20.5 42.5t-5.5 78.5v54q-3 0 -11.5 -2t-18.5 -4.5t-19.5 -5t-12.5 -3.5q-8 -4 -9.5 -5.5t0.5 -5.5q6 -7 1.5 -7.5t-17.5 4.5q-11 5 -13.5 7.5t-2.5 9.5q0 5 2 8.5t10 7.5q33 18 123 24
q39 3 62 3q20 0 31 -2.5t16 -7.5q6 -6 -0.5 -6.5t-22.5 -1.5q-9 0 -21.5 -1t-23.5 -2t-19 -2t-9 -2q-1 -2 0 -23t2.5 -47.5t3.5 -51.5t4 -33zM421 557q3 -3 4 -6t2 -13.5t0.5 -31t-0.5 -57.5l-1 -80q0 -11 -1.5 -16t-11.5 -6q-8 -1 -11 1t-8 13q-6 14 -9.5 39.5t-4.5 56.5
v29l-11 -27q-5 -11 -10.5 -22.5t-9.5 -17.5q-5 -10 -8.5 -12t-14.5 -2q-24 0 -35 29q-4 12 -6 11q-1 -1 -2 -9.5t-2 -19.5q-7 -54 -23 -58q-7 -2 -17 1t-9 7q0 1 3 8.5t6 18.5q3 10 7.5 31t8.5 41q4 33 7.5 51.5t6.5 26t7.5 7t11.5 -5.5t12 -15t16 -41q5 -14 9.5 -24.5
t6.5 -11.5q2 0 10.5 16t20.5 39q10 19 15.5 30t9.5 16.5t6.5 7.5t6.5 2q9 0 18 -6z" />
    <glyph glyph-name="minus" unicode="&#x2212;" horiz-adv-x="298" 
d="M60 101q-6 4 -5 18.5t8 20.5q6 5 34 7t92 3q19 1 29 0.5t14.5 -1.5t5.5 -3.5t1 -5.5q0 -25 -22 -31q-5 -2 -22 -3t-37 -3q-20 -1 -40.5 -2t-30.5 -1q-9 -1 -17 -0.5t-10 1.5z" />
    <glyph glyph-name="fi" unicode="&#xfb01;" horiz-adv-x="285" 
d="M88 311q-2 -14 -4 -27t-3 -17l-2 -10l105 6q22 1 31.5 0t12.5 -3q10 -8 3 -11.5t-41 -6.5q-9 -1 -28 -3t-37.5 -3.5t-33 -3t-14.5 -2.5q-1 -2 -2.5 -23t-3.5 -50q-1 -16 -1 -42.5v-57t1 -62.5t1.5 -59.5t2 -48t2.5 -27.5q2 -8 0.5 -10t-8.5 -4q-10 -5 -18 -2
q-8 2 -13.5 17t-13.5 57q-6 31 -10.5 55t-7 47t-3.5 48.5t-2 60.5l-3 86l-14 -1q-8 -1 -12.5 0.5t-11.5 6.5q-12 12 -6 18t32 10l16 2l4 35q5 38 13 73t17.5 64t21 50t23.5 32q18 16 38.5 16.5t38.5 -14.5q8 -8 9.5 -12t-2.5 -11q-3 -4 -10 0q-5 3 -7.5 1t-10.5 -13
q-14 -23 -27.5 -66t-21.5 -95zM203 299q-11 0 -14 8q-2 6 -3.5 19t-2 27t-0.5 26.5t2 16.5q4 8 13.5 12.5t21.5 3.5q5 0 7 -1q15 -2 18 -6t0 -17q-2 -6 -5.5 -19.5t-6.5 -27.5t-7 -24.5t-6 -12.5t-7 -3.5t-10 -1.5zM166 6q-8 30 -10 71t0.5 79t9 67.5t17.5 36.5
q3 2 10.5 3.5t15.5 1.5t16 -0.5t12 -2.5q3 -2 4.5 -6.5t1 -14.5t-2.5 -28t-6 -47q-8 -64 -9.5 -115t6.5 -70q7 -16 12 -21q4 -3 4 -4.5t-5 -4.5q-15 -12 -42 2q-12 7 -20 18.5t-14 34.5z" />
    <glyph glyph-name="fl" unicode="&#xfb02;" horiz-adv-x="309" 
d="M88 311q-2 -14 -4 -27t-3 -17l-2 -10l39 1q22 1 31.5 0t12.5 -3q10 -8 3 -11.5t-41 -6.5q-19 -2 -32.5 -3.5t-14.5 -3.5t-2.5 -23t-3.5 -50q-1 -16 -1 -42.5v-57t1 -62.5t1.5 -59.5t2 -48t2.5 -27.5q2 -8 0.5 -10t-8.5 -4q-10 -5 -18 -2q-8 2 -13.5 17t-13.5 57
q-6 31 -10.5 55t-7 47t-3.5 48.5t-2 60.5l-3 86l-14 -1q-8 -1 -12.5 0.5t-11.5 6.5q-12 12 -6 18t32 10l16 2l4 35q5 38 13 73t17.5 64t21 50t23.5 32q18 16 38.5 16.5t38.5 -14.5q8 -8 9.5 -12t-2.5 -11q-3 -4 -10 0q-5 3 -7.5 1t-10.5 -13q-14 -23 -27.5 -66t-21.5 -95z
M296 365q-6 -31 -14.5 -63t-17 -59.5t-17 -49t-14.5 -31.5q-2 -2 -3 -7t-1.5 -14t-0.5 -23.5v-36.5q0 -30 1 -59t3 -53t5 -41.5t7 -24.5q4 -8 7 -10t14 -1q5 1 9.5 0t4.5 -2q0 -24 -44 -24q-13 0 -17.5 1.5t-13.5 10.5q-8 8 -13 17t-11 29q-16 52 -21 105.5t-3 109
t8.5 112.5t14.5 115q4 25 11.5 52t17 50t18.5 40t16 24q10 10 27 12q8 0 16 -3q14 -6 18.5 -21t4.5 -56q0 -15 -0.5 -26t-2 -21.5t-3.5 -23t-6 -28.5zM234 232l7 20q3 9 7.5 24.5t8.5 29.5q6 25 11.5 53t9 53t4.5 45t-1 30q-3 9 -4 9h-1l-1 -2q-4 -8 -10 -35t-12 -61.5
t-11 -70.5t-6 -61z" />
    <glyph glyph-name="_0014" horiz-adv-x="977" 
d="M593 415q-4 1 -28 1.5t-53 0.5h-73l-2 -12q-1 -5 -4.5 -25.5t-8.5 -46.5q-10 -58 -17.5 -113.5t-12 -104t-5.5 -87.5t1 -64q4 -42 7.5 -56t10.5 -16q9 -2 8.5 -6t-11.5 -9t-16.5 -5t-10.5 5q-7 5 -14 27.5t-13 54t-9.5 69t-3.5 72.5q0 31 1.5 71.5t4 81t6 76.5t7.5 57
q2 12 3 20.5t0 8.5q0 1 -15 -0.5t-32.5 -3.5t-33 -4t-16.5 -3q-2 -2 -6.5 -30.5t-10.5 -68t-11.5 -83t-8.5 -75.5q-1 -12 -2 -27.5t-2 -32.5t-1.5 -34t-0.5 -31v-36.5t0.5 -22t1.5 -13t3 -8.5q6 -11 4 -14.5t-16 -3.5q-9 0 -14 2t-10 8q-6 7 -10 16t-5.5 30t-2 58t-0.5 102
q0 55 0.5 95t2 68.5t3.5 48t5 34.5l2 10l-17 -3q-10 -1 -25 -4t-30.5 -7t-29 -8t-19.5 -7q-7 -2 -13.5 -7t-9.5 -9q-5 -7 -7.5 -7t-7.5 6q-11 14 -10 27.5t15 21.5q12 7 42 13.5t68 11.5q19 3 32.5 5t14.5 3q1 2 3.5 13t4.5 25t5.5 29.5t6.5 23.5q4 11 6.5 15t9.5 6
q11 3 25 -1t24 -11q6 -5 7 -8t0 -11l-5 -32q-4 -17 -5.5 -30t-0.5 -14h15q7 0 15.5 0.5t18.5 1.5l49 2l12 45q5 19 10 35.5t8 21.5q5 9 7.5 10.5t16.5 1.5q37 0 38 -31q0 -11 -3 -31.5t-9 -43.5l-2 -9l74 -1q30 0 47 -1t25.5 -3t10.5 -5t2 -9t-1.5 -7t-8.5 1zM895 214v-80
q0 -36 1.5 -70.5t3.5 -54.5q3 -30 10.5 -58.5t12.5 -35.5q8 -8 -6 -14q-8 -4 -12.5 -4t-14.5 5q-17 7 -29.5 33t-22.5 76q-5 30 -7.5 32.5t-12.5 -11.5q-20 -32 -36 -45t-39 -17q-28 -4 -49.5 14.5t-26.5 64.5t-7 87.5t0 82t8 83t17 89.5q14 60 27.5 92t28.5 49q7 7 12 9
t14 2q25 0 32.5 -21.5t2.5 -78.5q-3 -33 -10 -71t-15.5 -72.5t-18.5 -61t-19 -37.5q-3 -4 -4 -7.5t-2 -11.5t-1 -22.5v-39.5v-36.5t1 -25t2 -18t3 -14.5q3 -10 6 -16.5t5 -6.5q3 0 11.5 8.5t18 22t20 30t18.5 31.5q3 6 5 10.5t2.5 11.5t1 16.5t0.5 26.5q0 60 8 121t25 137
q9 39 17 66t16.5 43t17.5 23t20 6q4 0 6 -1q11 -2 16 -10q5 -7 5 -24t-4.5 -47.5t-14.5 -77t-26 -111.5zM757 422q-2 -11 -5.5 -35.5t-6.5 -50.5t-5.5 -47.5t-2.5 -25.5q1 -11 9 14.5t18 70.5q9 42 13 77t1 59l-2 23l-7 -33q-4 -14 -7 -29t-5 -23z" />
    </font>
</defs>
</svg>
