<?xml version="1.0" standalone="no"?>
<!DOCTYPE svg PUBLIC "-//W3C//DTD SVG 1.1//EN" "http://www.w3.org/Graphics/SVG/1.1/DTD/svg11.dtd" >
<svg xmlns="http://www.w3.org/2000/svg" xmlns:xlink="http://www.w3.org/1999/xlink" version="1.1">
<metadata>
Created by FontForge 20170731 at Thu Apr 19 07:33:03 2018
 By Aleksey,,,
Copyright (c) 2018 by Aqr Typeface. All rights reserved.
</metadata>
<defs>
<font id="AurelliaScript" horiz-adv-x="316" >
  <font-face 
    font-family="Aurellia Script"
    font-weight="400"
    font-stretch="normal"
    units-per-em="1000"
    panose-1="0 0 0 0 0 0 0 0 0 0"
    ascent="800"
    descent="-200"
    x-height="212"
    cap-height="941"
    bbox="-677 -892 3443.95 1093.45"
    underline-thickness="50"
    underline-position="-150"
    unicode-range="U+000D-FB00"
  />
<missing-glyph horiz-adv-x="296" 
 />
    <glyph glyph-name="b_b" unicode="bb" horiz-adv-x="789" 
d="M392 25q-3 -2 -9.5 -5t-13.5 -4.5t-11 -0.5t-2 7q12 31 26 63.5t28 61.5q-84 -75 -185.5 -123.5t-218.5 -68.5q-22 -20 -50 -37.5t-51 -17.5q-11 0 -18.5 5t-7.5 12q0 11 19.5 24t70.5 21q11 11 21 21.5t15 16.5q5 5 11.5 12.5t12.5 16t10.5 17t4.5 16.5q0 11 -10 11
q-7 0 -15.5 -6t-17.5 -14t-16.5 -16t-11.5 -13q-21 -22 -36 -47h-1q-1 -3 -6 -5t-11 -2t-10.5 2t-4.5 7q0 7 12.5 37.5t32.5 73.5t43.5 93t45 95t38.5 79.5t24 47.5q18 35 39 74.5t44 78.5t48 76t51 67q45 53 85.5 77.5t71.5 24.5q29 0 45.5 -20.5t16.5 -58.5t-14 -78
t-37.5 -80t-54 -78t-63 -72t-65 -63t-60.5 -51q-41 -32 -84.5 -59.5t-91.5 -52.5q-26 -55 -45 -97t-30 -70q21 30 56 57q20 13 36 7t16 -33q0 -20 -11 -40t-23 -35l-8 -8q111 22 215.5 75.5t189.5 136.5q17 37 39.5 83.5t46.5 94.5t49 93t47 80q55 85 103.5 122.5t81.5 37.5
q25 0 39 -17.5t14 -49.5q0 -38 -24 -93.5t-79 -120.5q-68 -78 -134.5 -128.5t-142.5 -90.5l-55 -121q39 40 60 40q10 0 15 -7.5t5 -19.5q0 -14 -7 -32t-22 -35q82 16 159 55q97 48 172 125q5 5 10.5 -0.5t0.5 -10.5q-77 -78 -176 -127q-43 -21 -88 -35.5t-93 -22.5
q-27 -26 -49 -36t-36 -10q-24 0 -24 16q0 14 25 26q11 5 23 7t23 4q35 34 49 54.5t14 28.5q0 10 -16.5 0.5t-39.5 -35.5q-12 -13 -25 -33zM129 390q-26 -49 -47.5 -93.5t-40.5 -84.5q42 23 81 48t76 54q40 31 90 78t94 102t74 114t30 114q0 64 -44 64q-25 0 -60 -24t-79 -79
q-48 -62 -89 -135t-85 -158zM635 517q-42 -69 -82.5 -148.5t-74.5 -151.5q68 37 129.5 85.5t124.5 120.5q53 63 76.5 117t23.5 89q0 47 -34 47q-26 0 -67.5 -36.5t-95.5 -122.5zM-99 -83q9 0 22 8t27 20q-29 -7 -42 -14t-13 -11q0 -3 6 -3zM371 -14q-11 -5 -14 -8.5
t0.5 -4.5t12.5 3.5t23 16.5q-14 -2 -22 -7z" />
    <glyph glyph-name="d_d" unicode="dd" horiz-adv-x="802" 
d="M669 553q60 84 105.5 119t73.5 35q17 0 26.5 -12.5t9.5 -34.5q0 -19 -7 -43t-22 -52q-28 -48 -66.5 -95t-82 -93t-90 -90.5t-89.5 -87.5q-14 -38 -24.5 -67.5t-18.5 -57.5q-10 -35 -17 -67.5t-7 -56.5q0 -19 6 -30t21 -11q17 0 49 18q36 20 73 52.5t73 69.5t68 75t57 71
q5 6 11 1t1 -11q4 6 -6.5 -7t-31 -37.5t-49 -56t-60.5 -63.5t-65.5 -60.5t-63.5 -46.5q-36 -21 -59 -21q-26 0 -37 21t-11 56q0 24 5 52.5t13 60.5q5 16 9.5 31.5t9.5 30.5q-8 -10 -15.5 -19.5t-15.5 -18.5q-20 -25 -35 -35.5t-26 -10.5q-10 0 -14.5 8t-4.5 21v8
q-28 -32 -58 -65t-61 -62.5t-62 -55t-59 -42.5q-45 -26 -74 -26q-23 0 -36.5 21t-13.5 56q0 41 14 99t35 123q-8 -10 -15.5 -19.5t-15.5 -19.5q-20 -25 -35.5 -35.5t-25.5 -10.5t-14.5 8t-4.5 21q0 20 9.5 41.5t24.5 39.5t35 30t41 12q15 0 23 -7q14 38 29 75.5t30.5 72
t30.5 65t28 54.5q47 84 89 142t78 94t65 52.5t49 16.5t30.5 -14t10.5 -39q0 -21 -8 -48t-25 -59q-32 -56 -76 -110.5t-95 -107t-104.5 -104t-103.5 -101.5q0 -2 -0.5 -2.5t-0.5 -2.5q-13 -36 -26 -74.5t-24 -75t-18 -69t-7 -56.5q0 -23 8 -36.5t27 -13.5q29 0 69 26t83 65
t85 84t75 84q6 17 17 33t24.5 28.5t29.5 20t33 7.5q14 0 22 -6q38 103 81.5 187.5t93.5 158.5zM468 763q-28 0 -60.5 -28.5t-67 -74.5t-68.5 -104t-64.5 -117t-55.5 -114.5t-41 -95.5q47 47 98.5 97t99.5 100.5t88.5 100.5t66.5 98q16 30 23.5 55.5t7.5 43.5t-6.5 28.5
t-20.5 10.5zM-39 76q8 0 23 15t30.5 34t29.5 37.5t19 26.5v2q-3 4 -10 4q-13 0 -29.5 -13.5t-31.5 -32.5t-25 -38t-10 -30q0 -5 4 -5zM387 76q7 0 23.5 15.5t33 36t30 39t15.5 24.5q-9 10 -26.5 -0.5t-35 -30.5t-31 -43t-13.5 -36q0 -5 4 -5zM842 571q14 27 21 49.5t7 38.5
q0 31 -23 31q-22 0 -61.5 -35.5t-91.5 -118.5q-45 -69 -84 -145.5t-70 -157.5q40 39 84 81.5t85 86t76 86.5t57 84z" />
    <glyph glyph-name="h_h" unicode="hh" horiz-adv-x="828" 
d="M469 189q-16 -35 -32.5 -71t-31.5 -71q12 14 27.5 31t31.5 28.5t29.5 13t21.5 -14.5q8 -18 -1.5 -45.5t-24 -55.5t-28 -52.5t-13.5 -34.5q0 -7 8.5 -6t28.5 12q32 18 73 49.5t102 82.5q43 35 85 70.5t85 70.5q6 5 11 -1t-1 -11q-43 -35 -85.5 -70t-84.5 -70
q-23 -18 -54.5 -44t-63.5 -49.5t-59.5 -40.5t-42.5 -17q-14 -1 -19.5 6.5t-5.5 19.5q0 15 7 36t16.5 42t19 40t14.5 30q3 8 6.5 17.5t4 15.5t-3 6t-15.5 -9q-11 -8 -23 -20.5t-23.5 -26.5t-22.5 -27t-18 -21q-2 -4 -8.5 -7t-13.5 -3.5t-11.5 2t-1.5 10.5q15 38 33 79t35 77
q-100 -81 -191.5 -158t-170.5 -128q-33 -20 -53 -20q-25 0 -25 30q0 9 2.5 21t7.5 26q13 29 27 57t26 55q8 19 10.5 29.5t0.5 14t-7.5 2t-12.5 -7.5q-11 -7 -23.5 -20.5t-26 -28.5t-26 -30.5t-21.5 -25.5q-2 -2 -7 -4t-10.5 -2t-10 2t-4.5 7q0 7 12.5 37.5t32.5 73.5
t43.5 93t45 95t38.5 79.5t24 47.5q18 35 39 74.5t44 78.5t48 76t51 67q45 53 85.5 77.5t71.5 24.5q29 0 45.5 -20.5t16.5 -58.5t-14 -78t-37.5 -80t-54 -78t-63 -72t-65 -63t-60.5 -51q-41 -32 -84.5 -59.5t-91.5 -52.5q-26 -55 -45 -97.5t-31 -70.5q16 19 34 38.5t36 31.5
q8 6 16 8.5t14 2.5q25 0 25 -35q0 -17 -7 -37q-11 -31 -27 -58t-29 -54q-15 -29 -15 -41q0 -10 10.5 -8t36.5 16q64 37 159 118.5t226 186.5q1 4 5 12q18 40 41.5 88t49 97.5t51 96.5t49.5 84q60 94 113 135t90 41q27 0 42 -19t15 -54q0 -42 -26 -102t-87 -132
q-38 -43 -74.5 -78t-74 -64t-76.5 -54t-81 -47zM129 390q-25 -49 -46.5 -93.5t-40.5 -84.5q42 23 81 48t76 54q40 31 90 78t94 102t74 114t30 114q0 64 -44 64q-25 0 -60 -24t-79 -79q-48 -62 -89 -135t-86 -158zM658 553q-23 -38 -46 -80t-45.5 -85.5t-43.5 -86.5t-40 -83
q76 42 144.5 95.5t139.5 134.5q59 69 84.5 128.5t25.5 97.5q0 25 -10 39t-28 14q-29 0 -76 -40.5t-105 -133.5z" />
    <glyph glyph-name="j_j" unicode="jj" horiz-adv-x="531" 
d="M533 196q6 5 10.5 -1t-0.5 -11q-78 -62 -158 -99t-165 -64q-14 -31 -33.5 -73t-43 -88.5t-48.5 -95t-50.5 -94t-50 -85t-45.5 -66.5q-56 -72 -113 -103.5t-106 -31.5q-36 0 -65 15.5t-48 43.5q-29 -27 -57.5 -42.5t-55.5 -15.5q-29 0 -46.5 21t-17.5 59q0 48 32 118
t105 154q45 51 88 90t84.5 70.5t82.5 56.5t83 47q31 69 54.5 124t34.5 84q5 8 13 12t16 4t12 -4q-12 -29 -33 -80t-49 -115q66 35 137.5 71t153.5 88l10 24q5 8 13 12t16 4t12 -4q-11 -28 -31 -75t-46 -107q83 28 157.5 64t147.5 93zM-76 -463q19 25 42 62.5t47 81t48 90
t46 90.5t40 82t30 64q-67 -21 -135 -42t-131 -51q-30 -64 -64.5 -130t-71 -127t-74 -113.5t-74.5 -89.5q0 -1 1 -1q14 -23 38 -37t56 -14q41 0 93 30.5t109 104.5zM-499 -598q23 0 49 17t54 47q-15 34 -15 73q0 51 23 103.5t62 102t90.5 92.5t107.5 74l31 64
q-39 -21 -78 -45.5t-78 -54t-78.5 -65.5t-80.5 -82q-71 -79 -102 -148t-31 -115q0 -29 12 -46t34 -17zM-139 -112q-53 -30 -99.5 -71t-81.5 -86.5t-55.5 -94.5t-20.5 -95q0 -17 2.5 -32.5t8.5 -30.5q31 35 62.5 82t63 101t62 112t58.5 115zM245 161q-80 -51 -152.5 -87.5
t-141.5 -72.5l-30 -66q63 29 129 49t135 41q18 40 33 74.5t27 61.5zM320 265q-5 -5 -11.5 -5.5t-12 2.5t-7.5 9.5t4 16.5q5 10 13 13t15 0.5t9.5 -10t-3.5 -17.5zM60 265q-5 -5 -11.5 -5.5t-12 2.5t-7.5 9.5t4 16.5q5 10 13 13t15 0.5t9.5 -10t-3.5 -17.5z" />
    <glyph glyph-name="k_k" unicode="kk" horiz-adv-x="809" 
d="M459 187q-5 -11 -12 -25t-14 -29.5t-13.5 -31t-12.5 -28.5q26 21 45.5 29.5t32.5 8.5q14 0 20 -7t6 -18q0 -13 -9.5 -27t-28.5 -22q-26 -9 -51 -6q5 -11 6.5 -24t1.5 -27t-1 -27.5t0 -23.5q0 -22 19 -22q12 0 28 7.5t33.5 18.5t34 23.5t29.5 22.5q33 27 68.5 58t68 61
t59 55t41.5 39q5 5 10 -0.5t0 -10.5q-8 -8 -33.5 -32.5t-59.5 -55.5t-73 -64.5t-73 -60.5q-17 -13 -35.5 -26.5t-37 -25t-36 -19t-31.5 -7.5t-23.5 8t-14.5 26q-4 14 -4.5 25t-0.5 24t-1 29t-4 40l-18 -44q-1 -2 -7.5 -4t-13 -2t-10.5 3t-1 10q17 41 30 71.5t28 62.5
q-33 -32 -71 -66.5t-77.5 -68.5t-79 -65.5t-76.5 -55.5q-29 -19 -50.5 -27t-35.5 -8q-18 0 -27.5 11.5t-14 30t-5 42t-0.5 47.5q0 14 -2.5 28t-3.5 17q-5 -12 -9.5 -21.5t-6.5 -15.5q-4 -8 -5 -13q-1 -3 -6.5 -5t-11.5 -2t-10.5 2t-4.5 7q0 7 12.5 37.5t32.5 73.5t43.5 93
t45 95t38.5 79t24 47q18 35 39 74.5t44 79t48 76.5t51 67q45 53 86 77.5t71 24.5q29 0 45.5 -20.5t16.5 -58.5t-14 -78t-37.5 -80t-54 -78t-63 -72t-65 -63t-60.5 -51q-41 -32 -84.5 -59.5t-91.5 -52.5q-19 -40 -34 -73t-26 -59q15 11 30.5 21.5t32.5 17.5q18 7 30.5 5
t19 -9.5t6 -19t-7.5 -24.5q-14 -23 -41.5 -31t-53.5 -5q3 -8 4.5 -15t3.5 -14q2 -20 1 -39.5t-1 -36.5q0 -18 4.5 -29t18.5 -11q11 0 28 7t43 23q34 21 77.5 56t88.5 74.5t87.5 79t75.5 70.5q19 40 42.5 90t49.5 101.5t53 99.5t51 86q59 92 111.5 132t87.5 40q26 0 40.5 -19
t14.5 -52q0 -42 -25.5 -100.5t-85.5 -128.5q-37 -42 -72.5 -76t-72 -62.5t-74.5 -52.5t-79 -46zM129 387q-25 -50 -46.5 -94t-40.5 -84q41 23 80 48t76 54q40 31 90 78t94 102t74 114t30 114q0 30 -11.5 47t-32.5 17q-24 0 -59 -24t-79 -79q-48 -62 -89.5 -135t-85.5 -158z
M640 536q-23 -37 -45 -78t-44 -83t-42.5 -84t-38.5 -81q37 21 71.5 43.5t68.5 49.5t67.5 59.5t68.5 71.5q57 67 82.5 125t25.5 96q0 24 -10 37.5t-27 13.5q-28 0 -73.5 -39t-103.5 -131zM-35 32q8 3 18.5 3.5t22.5 3t25.5 7.5t27.5 17q16 14 8 19.5t-29 -1.5
q-20 -7 -38.5 -20.5t-34.5 -28.5zM460 67q30 14 30 25q0 8 -25 2t-61 -40q15 2 29.5 5t26.5 8z" />
    <glyph glyph-name="p_p" unicode="pp" horiz-adv-x="719" 
d="M722 197q6 5 11 -0.5t-1 -10.5q-47 -41 -98 -67.5t-114 -40.5q-26 -5 -51.5 -9t-51.5 -8q-32 -29 -57 -40.5t-42 -11.5q-26 0 -26 17q0 9 11.5 20t37.5 18q19 4 40 6q39 38 57.5 64t18.5 37q0 12 -20.5 6t-59.5 -34l-36 -28l-36 -28q-19 -41 -42 -91.5t-48.5 -104
t-53 -108.5t-55.5 -105.5t-55.5 -94.5t-53.5 -76q-49 -60 -99.5 -86.5t-94.5 -26.5q-51 0 -85.5 31.5t-41.5 87.5q-55 -70 -99 -100.5t-75 -30.5q-29 0 -44 22.5t-15 60.5q0 26 7.5 56t23.5 64q23 47 59.5 95.5t80 96t90.5 92.5t91.5 84t83 70t64.5 51l59 128q3 6 10.5 11
t14.5 7t11.5 -0.5t1.5 -10.5l-42 -93q19 14 43 32t46 32q25 15 42 15q14 0 20 -8t6 -22q0 -20 -10 -40q-7 -13 -14.5 -24.5t-17.5 -21.5q41 8 71.5 19.5t53.5 25t41 29t35 32.5l7 17q2 3 8.5 5.5t13 3t11.5 -1t3 -7.5v-1l-40 -86q23 17 51 37.5t52 34.5q19 9 31 9
q13 0 19 -8t6 -21q0 -18 -11.5 -42.5t-31.5 -47.5q42 6 84 15q63 14 110.5 39t94.5 66zM-26 -474q22 27 47 68t51.5 89t52.5 100t49.5 101t43.5 92t34 74q-41 -26 -87 -48t-96 -47.5t-103.5 -58.5t-108.5 -80q-32 -66 -73 -140t-95 -146q2 -52 31 -84.5t75 -32.5q38 0 84 26
t95 87zM-513 -421q-30 -65 -30 -114q0 -29 10.5 -46.5t31.5 -17.5q28 0 73 37t105 124q4 33 16.5 64t30 60t39.5 55t45 49q62 125 121 254q-29 -23 -67.5 -55t-81 -69.5t-86 -79.5t-83 -86t-72 -88.5t-52.5 -86.5zM297 148q-45 -39 -91.5 -57.5t-108.5 -27.5
q-32 -30 -58 -42t-43 -12q-19 0 -24 11t9 25q17 15 39 19t40 6q14 14 32 33t29 35q6 8 10 17t4 15q0 8 -9 9.5t-32 -11.5q-15 -9 -31 -20.5t-30.5 -22.5t-27 -21.5t-20.5 -16.5l-56 -120t-57 -120q53 43 106.5 74t103.5 56t96.5 48t85.5 50zM-214 -253q-3 -3 -5.5 -6
t-4.5 -6q-26 -31 -47 -66.5t-32 -74.5q21 32 43 70t46 83zM344 50q-19 -5 -27.5 -12t-8.5 -11q0 -5 14.5 0t41.5 28l-10 -2t-10 -3zM42 55q-13 -2 -27 -7t-24 -14q-8 -7 -4.5 -8t12.5 2.5t21 10.5t22 16z" />
    <glyph glyph-name="q_q" unicode="qq" horiz-adv-x="666" 
d="M666 195q5 5 10 -0.5t0 -10.5q-5 -4 -20.5 -18t-38.5 -34t-53.5 -43t-65 -44t-72.5 -36.5t-77 -21.5q-2 -3 -4 -9q62 -52 76 -132q2 -12 3 -24t1 -25q0 -40 -9.5 -80t-25 -78t-36.5 -72.5t-43.5 -62t-45.5 -47.5t-43 -29q-17 -7 -29 -5.5t-19 10t-10 22t-3 30.5
q0 21 3.5 46t9.5 51t13 51.5t14 46.5q24 78 52.5 154t58.5 150q-5 4 -9.5 7.5t-1.5 8.5t8 4l10 -2q14 31 27.5 62t27.5 62q-5 -5 -8.5 -9.5t-7.5 -9.5q-20 -25 -35.5 -35.5t-25.5 -10.5t-15 8t-5 21q0 8 2 17t5 18q-82 -68 -155 -105t-124 -44q-2 -4 -4 -10q46 -39 65.5 -89
t19.5 -104q0 -63 -21.5 -126t-53.5 -117t-69.5 -93t-70.5 -53q-36 -14 -50 4.5t-14 55.5q0 22 4 48.5t10.5 54t14 54t14.5 49.5q20 69 50 151t67 172l-9 6q-6 4 -3.5 10t9.5 4q6 -2 11 -2q14 34 29 68t31 69q-5 -5 -9 -10.5t-8 -10.5q-21 -25 -36 -35.5t-25 -10.5t-15 8
t-5 21q0 20 9.5 41.5t25 39.5t35.5 30t41 12q12 0 23 -7l7 14q2 4 10 7.5t15.5 4.5t11.5 -2t-1 -12q-27 -54 -52.5 -111t-49.5 -114q48 8 124 47.5t167 120.5q16 22 38.5 37t46.5 15q8 0 13 -2t10 -5l4 8q1 2 7.5 4.5t13.5 3t11 -2t1 -9.5q-13 -26 -28 -59q-26 -58 -65 -147
q40 7 82.5 27.5t83.5 47t78 57t67 59.5zM-134 -602q31 13 66.5 50.5t66.5 89t51.5 112.5t20.5 121q0 51 -17.5 97.5t-59.5 83.5q-35 -85 -64 -165t-50 -146q-27 -90 -39 -141.5t-12 -76.5q0 -24 10 -28t27 3zM406 -157q-13 73 -67 121q-29 -72 -56 -144t-51 -149
q-26 -85 -37 -134t-11 -72t9 -26t24 3q31 13 65 49.5t62.5 86t47 107t18.5 112.5q0 26 -4 46zM303 76q7 0 22.5 15.5t32 35.5t30 39t16.5 26q-9 10 -26.5 -1t-35 -31t-30.5 -43t-13 -36q0 -5 4 -5zM-38 76q7 0 21 13t29 31t28.5 36.5t20.5 28.5l3 6q-3 4 -9 4
q-13 0 -29.5 -13.5t-31.5 -32.5t-25 -38t-10 -30q0 -5 3 -5z" />
    <glyph glyph-name="s_s" unicode="ss" horiz-adv-x="617" 
d="M621 195q7 4 10.5 -2.5t-3.5 -10.5q-74 -43 -145 -76t-116 -55q4 -38 -7 -71.5t-30 -58.5t-43 -40.5t-46 -16.5t-37 11.5t-15 32.5q0 18 13 38q10 16 26 31t34 28.5t37 24.5t36 20q-4 36 -13 65t-4 58q-77 -43 -144.5 -72.5t-124.5 -55.5q2 -23 -1.5 -49t-18.5 -54
q-28 -53 -61.5 -75t-60.5 -22q-23 0 -37 12.5t-14 33.5q0 23 20 53t69 62q31 20 73 40q-2 30 -10 57.5t-11 53.5q-3 23 3 41.5t16 31t22 19.5t22 7q11 0 17 -7.5t4 -23.5q-1 -4 -3.5 -5.5t-5.5 -1t-5 2.5t-1 5q1 13 -7 14t-17.5 -8.5t-16.5 -28t-3 -43.5q4 -20 12.5 -45
t13.5 -55q61 29 131.5 60t144.5 73q9 22 23.5 32.5t26.5 10.5q10 0 16 -7t4 -21q-1 -8 -8.5 -7t-6.5 8q1 8 -1.5 10.5t-7 1t-10 -6t-9.5 -10.5q-6 -9 -8 -18t-2 -18q0 -23 9 -48t14 -55q55 28 123 60t134 70zM2 -44q9 20 12.5 38.5t3.5 36.5q-18 -9 -34.5 -18t-30.5 -19
q-45 -29 -63 -55t-18 -45q0 -14 8 -22t22 -8q20 0 47.5 21t52.5 71zM239 -116q18 3 36 18t31.5 37t21.5 47.5t8 48.5q-74 -39 -102 -72t-28 -53q0 -14 9.5 -21t23.5 -5z" />
    <glyph glyph-name="y_y" unicode="yy" horiz-adv-x="737" 
d="M739 196q6 5 10.5 -1t-1.5 -11q-79 -62 -159.5 -99t-164.5 -65q-19 -42 -41.5 -89t-46.5 -96t-49 -96.5t-49 -89.5q-43 -74 -84.5 -124.5t-80 -82t-74 -45.5t-66.5 -14q-29 0 -52.5 10.5t-41 28t-28.5 41t-14 50.5q-14 -18 -27.5 -33.5t-27.5 -29.5q-35 -35 -66.5 -50.5
t-56.5 -15.5q-29 0 -46.5 21t-17.5 59q0 32 14 75t45 94q25 40 59 81t72.5 79t79.5 72t81 61q29 20 56.5 37.5t56.5 34.5q11 23 21 46.5t20 46.5q-5 -7 -9.5 -13t-9.5 -11q-36 -39 -61 -39q-20 0 -20 28q0 14 4.5 32.5t11 38t13.5 38.5t13 34q2 5 10.5 9t16.5 4t8 -5
q-3 -12 -11 -33t-16.5 -43t-14.5 -42t-6 -31q0 -10 6 -10q9 0 35 28q13 15 32 42.5t39 62.5q4 8 5 12q2 5 9 8t14 4t11.5 -1.5t1.5 -8.5l-70 -167q64 37 133.5 76.5t153.5 94.5q2 5 11 9t16 4q8 0 8 -5q-3 -12 -11 -33t-16.5 -43t-14.5 -42t-6 -31q0 -13 9.5 -9.5t25 20
t36 45.5t41.5 67l6 12q2 5 8.5 8t13.5 4t11.5 -1.5t1.5 -8.5q-11 -27 -20 -48t-16.5 -39t-14.5 -34.5t-15 -34.5q82 27 157 63t149 94zM210 -335q24 43 51.5 96t51.5 102.5t42 88.5t25 54q-55 -17 -107.5 -33t-102 -35.5t-97 -45.5t-92.5 -63q-44 -91 -86.5 -166t-84.5 -133
q1 -26 9.5 -49t23 -40.5t35 -28t46.5 -10.5q27 0 59 13.5t68.5 44.5t76.5 81t82 124zM-278 -531q19 20 37.5 45t37.5 54q4 32 16 63t29 59.5t37.5 55t43.5 49.5l1 1q22 44 43 88.5t41 89.5q-23 -14 -46.5 -28.5t-47.5 -31.5q-39 -26 -79.5 -59.5t-78.5 -71t-71.5 -78
t-58.5 -80.5q-29 -48 -42.5 -89.5t-13.5 -71.5q0 -29 11.5 -45.5t32.5 -16.5q20 0 47 16t61 51zM350 176q-84 -55 -154 -94.5t-134 -76.5q-17 -38 -33.5 -75t-33.5 -72q45 34 91.5 58t95.5 42.5t100 33.5t106 32l29 67q-7 -9 -16 -20t-19.5 -20.5t-21.5 -16t-23 -6.5
q-19 0 -19 28q0 23 10.5 57t21.5 63zM-98 -249q-29 -33 -50.5 -70.5t-32.5 -79.5q20 35 41 72t42 78z" />
    <glyph glyph-name="z_z" unicode="zz" horiz-adv-x="886" 
d="M884 195q5 5 11 0.5t1 -10.5q-22 -25 -46 -47t-57 -43.5t-80 -43t-116 -44.5q12 -26 12 -57q0 -40 -16.5 -87.5t-45 -98.5t-67 -102t-81.5 -97q-94 -98 -178 -139.5t-150 -41.5q-72 0 -115.5 40.5t-45.5 106.5q-47 -42 -99 -77.5t-108 -53.5q-32 -9 -58 -9
q-32 0 -50 13.5t-18 41.5q0 30 24.5 75.5t81.5 106.5q70 74 155.5 144t167.5 129q8 6 42 32.5t85 63.5q-6 19 -18.5 30.5t-26.5 17t-29 6.5t-26 -2q-7 -2 -9.5 4.5t7.5 21.5q5 6 13 13t20.5 17.5t31.5 25.5t47 38q23 20 23 34q0 11 -12 15.5t-31 4.5q-9 0 -19 -1t-20 -3
q-23 -6 -47 -17.5t-36 -28.5q-5 -6 -11 -1.5t-1 10.5q14 20 40.5 32.5t50.5 18.5q23 5 40 5q26 0 44 -9.5t18 -27.5q0 -20 -24 -47q-10 -12 -25 -24t-31 -23.5t-30 -21.5t-23 -18q32 0 58 -15t41 -45q93 67 164.5 111t124 70.5t88.5 37.5t58 11q23 0 33 -9.5t10 -23.5
q0 -12 -6 -25.5t-16 -24.5q-10 -12 -25 -24t-30.5 -23t-30 -21.5t-23.5 -18.5q29 -3 53 -12.5t41 -33.5q41 13 82 29t79.5 37t72.5 47t61 61zM375 -413q18 19 40.5 46t46 59t46.5 67t40.5 70.5t28.5 69t11 62.5q0 22 -8 41q-60 -20 -119 -37t-118 -37q-54 -19 -106.5 -41.5
t-100.5 -52.5q-16 -38 -39.5 -77t-51.5 -76.5t-59 -72t-62 -63.5q-2 -63 34.5 -102.5t101.5 -39.5q61 0 142 42.5t173 141.5zM-305 -578q58 23 114.5 66.5t103.5 90.5q7 37 25 72t43 66.5t55 59t62 49.5l17 37q16 37 20.5 65t1.5 49l-122 -88q-41 -29 -83.5 -61.5t-84 -67
t-81 -70.5t-72.5 -72q-56 -60 -79.5 -102t-23.5 -68q0 -20 12 -29.5t33 -9.5q12 0 27 3t32 10zM589 169q20 17 20 34q0 8 -6.5 14t-22.5 6q-19 0 -52.5 -11t-85 -37.5t-122.5 -71.5t-165 -113q6 -21 6 -46q0 -40 -16 -88q46 27 94.5 48t98.5 38q59 20 117.5 37t116.5 36
q-16 23 -42.5 31.5t-50.5 2.5q-7 -2 -9.5 4.5t7.5 21.5q5 6 13 13t20.5 17.5t31.5 25.5t47 38zM81 -204q-49 -38 -90 -86.5t-58 -110.5q45 48 82.5 98.5t65.5 98.5z" />
    <glyph glyph-name="t_t" unicode="tt" horiz-adv-x="620" 
d="M1097 522q-2 -17 -45 -27t-113.5 -16t-162.5 -8.5t-192 -3.5q-29 -45 -56.5 -86.5t-52 -76t-45 -61.5t-35.5 -44q-16 -36 -33.5 -77.5t-34 -85t-31.5 -86.5t-25 -81q-7 -27 -12 -54t-5 -47q0 -18 5.5 -29.5t20.5 -11.5q13 0 37 12h1q7 3 10 -3.5t-3 -9.5q-26 -15 -48 -15
q-21 0 -35 17t-14 56q0 18 3.5 40.5t10.5 51.5q19 73 44 138.5t50 125.5q-53 -59 -114 -120t-120 -105q-72 -54 -112 -54q-26 0 -38.5 21.5t-12.5 60.5q0 67 32 175q9 31 24.5 72t36 86.5t44 93.5t49.5 95q-62 -1 -114 -3t-89 -6t-57.5 -9.5t-18.5 -13.5q2 -11 -5.5 -12.5
t-9.5 9.5q-3 14 19 24t63 16.5t99 11t126 6.5q35 62 70.5 113t67.5 82q23 20 37 20q10 0 14 -8.5t1 -22.5q-6 -27 -32 -75.5t-61 -105.5q65 1 132 1h136q34 60 62 101t49.5 66t37 36t25.5 11q14 0 16 -17.5t-9 -42.5q-10 -23 -22 -45.5t-23.5 -43t-22 -37t-17.5 -28.5
q97 0 184.5 0.5t154 3.5t106 9.5t39.5 17.5q1 10 8 9.5t6 -10.5zM94 -75q32 24 66.5 55.5t68.5 66t66 70t59 66.5q31 72 64 143t71 140h-269q-23 -37 -48 -74.5t-49 -71.5t-46 -63t-39 -50q-11 -27 -20 -51.5t-15 -46.5q-16 -55 -26 -100t-10 -76q0 -52 34 -52q15 0 38 10.5
t55 33.5zM288 671q-18 -19 -49 -67.5t-66 -114.5q11 1 22.5 1h22.5q36 58 62.5 108t33.5 77q4 16 -5.5 12t-20.5 -16zM583 492q49 78 71.5 126.5t22.5 62.5q0 20 -36.5 -25t-101.5 -164h44zM420 254q38 50 77 107.5t70 105.5h-42q-56 -105 -105 -213zM203 466
q-11 0 -21.5 -0.5t-20.5 -0.5q-26 -49 -52 -102t-49 -104q32 42 70 96.5t73 110.5z" />
    <glyph glyph-name="g_g" unicode="gg" horiz-adv-x="671" 
d="M678 200q6 5 10.5 -1t-1.5 -11q-78 -62 -158.5 -99t-166.5 -65q-50 -112 -98.5 -207.5t-86.5 -163.5q-20 -33 -40 -65.5t-44 -64.5q-56 -72 -112.5 -103.5t-105.5 -31.5q-52 0 -89 30.5t-48 83.5q-43 -54 -85 -85.5t-81 -31.5q-30 0 -47 21t-17 59q0 48 31.5 118
t105.5 154q45 51 88 90t84.5 70.5t82 56.5t82.5 47q18 39 33 73.5t27 63.5q-12 -17 -25 -31q-20 -25 -35 -35.5t-26 -10.5q-10 0 -14.5 8t-4.5 21q0 20 9.5 41.5t25 39.5t35.5 30t41 12q12 0 23 -7q0 2 1 3q4 8 12 12t16 4q9 0 13 -4q-12 -29 -33 -80t-50 -115
q65 33 133.5 68t147.5 84q15 16 33 25.5t38 9.5q12 0 23 -7q0 2 1 3q4 8 12 12t16 4q9 0 13 -4q-11 -28 -30.5 -74t-45.5 -104q82 27 157.5 63t149.5 94zM149 -331q21 38 44 81.5t45.5 88t43.5 88.5t39 84q-37 -11 -82 -24.5t-93.5 -31.5t-98.5 -42t-96 -56
q-45 -92 -96 -181t-104 -158q7 -51 37.5 -81.5t76.5 -30.5q44 0 96 32t108 104q23 29 41.5 62t38.5 65zM-432 -598q36 0 78.5 39.5t87.5 102.5q1 29 9 62.5t27 68.5q27 52 61.5 92.5t73.5 72.5q17 35 33.5 69t31.5 66q-39 -21 -78 -45.5t-78 -54t-78.5 -65.5t-80.5 -82
q-70 -79 -101 -148t-31 -115q0 -29 12 -46t33 -17zM376 138q-12 -17 -25 -31q-20 -25 -35 -35.5t-26 -10.5q-10 0 -14.5 8t-4.5 21q0 26 16 55q-72 -45 -138.5 -78t-129.5 -66q-13 -28 -26.5 -57.5t-28.5 -59.5q46 30 95 52t96.5 39t91.5 29.5t82 24.5zM-112 -193
q-31 -29 -58 -62.5t-48 -75.5q-26 -53 -31 -101q35 52 70 113.5t67 125.5zM-38 76q8 0 23 15t30.5 34t29.5 37.5t19 26.5q0 1 1 2q-4 4 -10 4q-13 0 -30 -13.5t-32 -32.5t-25 -38t-10 -30q0 -5 4 -5zM389 195q-13 0 -30 -13.5t-32 -32.5t-25 -38t-10 -30q0 -5 4 -5
q8 0 23 15t30.5 34t29.5 37.5t19 26.5v2q-3 4 -9 4z" />
    <glyph glyph-name="l_l" unicode="ll" horiz-adv-x="695" 
d="M724 538q-33 -49 -74 -99.5t-86.5 -98t-93 -91t-92.5 -79.5q-23 -60 -36 -106.5t-13 -76.5q0 -47 35 -47q18 0 47 13.5t71 42.5q27 19 55.5 43.5t57 51t55 53.5t49.5 51q5 5 10.5 0t0.5 -10q-63 -67 -114.5 -114.5t-105.5 -85.5q-45 -31 -79 -45t-57 -14q-52 0 -52 70
q0 52 29 139q-33 -32 -74 -68.5t-84 -68t-84 -52.5t-72 -21h-8t-8 1q-25 5 -35.5 25.5t-10.5 49.5q0 33 10 75.5t24.5 87t30.5 85.5t29 71q24 57 58 127.5t76.5 138t91.5 124.5t103 87q44 24 74 16q18 -5 27 -24t4 -51q-7 -36 -31 -81.5t-60 -95t-80 -100.5t-91.5 -99.5
t-95 -91.5t-89.5 -76q-10 -27 -20 -55.5t-17.5 -56t-12.5 -52t-5 -42.5q0 -38 29 -45h9q34 0 77.5 24t88 58.5t86.5 74t72 70.5q15 43 36 94t46 104t54 106t62 99t69 82.5t75 58.5q28 15 51 15q20 0 32.5 -12t12.5 -37q0 -24 -13.5 -59t-43.5 -83zM467 741q6 46 -20 54
q-21 5 -56 -17q-48 -31 -94.5 -88.5t-87 -124.5t-73.5 -135.5t-55 -122.5q-6 -14 -14.5 -35.5t-18.5 -47.5q37 30 80.5 70.5t88 86t87 94t77 96t57.5 91t29 79.5zM696 695q-33 -22 -65 -57t-61 -77.5t-55.5 -90.5t-49.5 -96t-42.5 -93.5t-33.5 -82.5q40 33 85 75.5t88.5 88
t82 93t67.5 91.5q29 45 41.5 78t12.5 53q0 33 -27 33q-18 0 -43 -15z" />
    <glyph glyph-name="f_f" unicode="ff" horiz-adv-x="563" 
d="M563 196q6 5 11 -1t-1 -11q-17 -11 -54.5 -43t-108.5 -70q-35 -19 -79 -36t-84 -18q42 -34 59.5 -78t17.5 -95q0 -14 -1.5 -28.5t-3.5 -29.5q-12 -69 -41 -132.5t-70 -120.5q-34 -47 -68.5 -77t-58.5 -30q-15 0 -24 14.5t-9 46.5q0 11 1 23t3 26q8 54 26.5 118t42 130
t48.5 128t46 111q-4 3 -2 8t8 4q3 8 7 17t9.5 21.5t13.5 29t19 40.5q-30 -21 -64 -41t-69 -35t-71 -24t-71 -9q-8 0 -15 0.5t-15 1.5q44 -36 63 -85t19 -106q0 -47 -11 -94.5t-29 -93t-42.5 -88t-51.5 -79.5q-42 -55 -77 -85.5t-59 -30.5q-35 0 -35 68q0 43 15 110
t40.5 147.5t59 169.5t71.5 176q-3 1 -3 6q0 3 2.5 5.5t6.5 1.5q34 78 70.5 151t71 133t66 103.5t56.5 63.5q17 13 34 13q11 0 18.5 -7.5t7.5 -22.5q0 -19 -13.5 -47t-35 -61t-48 -67t-53.5 -64t-51 -53.5t-40 -33.5q-13 -28 -25.5 -57t-25.5 -59q7 -1 14 -1.5t14 -0.5
q36 0 74.5 10.5t76 28t73 39.5t66.5 45q17 35 34.5 69t37.5 67q49 80 83 112t52 32q19 0 19 -25q0 -11 -4.5 -26t-14.5 -31q-18 -29 -42.5 -58.5t-49 -55.5t-45.5 -46t-33 -29q-18 -37 -34.5 -73.5t-33.5 -74.5q37 2 77.5 18.5t72.5 33.5q43 23 82.5 51.5t77.5 60.5z
M34 -156q0 54 -18.5 100.5t-60.5 81.5q-38 -91 -73 -182t-61 -171.5t-41.5 -143.5t-15.5 -98q0 -41 21 -41q18 0 48 29t68 80q26 35 50 76.5t42.5 86t29.5 91t11 91.5zM305 -212q2 14 3.5 28.5t1.5 28.5q0 46 -15.5 87t-53.5 72q-34 -82 -61.5 -155t-48.5 -134t-34.5 -108
t-20.5 -76q-7 -32 -7 -55q0 -35 19 -35q17 0 46.5 27.5t62.5 72.5q39 56 68 118t40 129zM231 507q-14 0 -35.5 -24t-47.5 -65.5t-56 -98.5t-61 -123q27 23 63.5 63.5t69.5 84.5t56 84.5t23 63.5q0 15 -12 15zM379 293q-11 -20 -21 -40l-20 -40q17 15 36 35t38 41.5t36 44
t30 42.5q18 30 18 49q0 10 -7.5 10.5t-22 -14t-36.5 -45.5t-51 -83z" />
    <glyph glyph-name=".notdef" horiz-adv-x="296" 
 />
    <glyph glyph-name=".null" horiz-adv-x="0" 
 />
    <glyph glyph-name="nonmarkingreturn" unicode="&#xd;" horiz-adv-x="296" 
 />
    <glyph glyph-name="NULL" horiz-adv-x="0" 
 />
    <glyph glyph-name="NULL" horiz-adv-x="0" 
 />
    <glyph glyph-name="space" unicode=" " horiz-adv-x="296" 
 />
    <glyph glyph-name="exclam" unicode="!" horiz-adv-x="562" 
d="M382 588q5 3 8.5 -0.5t-0.5 -7.5q-21 -24 -43 -70t-45.5 -103.5t-48 -121t-50 -122t-51.5 -106.5t-53 -74q-4 -4 -8 -0.5t0 8.5q17 20 36.5 65t42 102.5t47 122.5t51.5 124.5t55.5 108t58.5 74.5zM51 -65q3 8 9.5 12.5t13 5t10.5 -3t1 -11.5t-9.5 -12.5t-13 -5t-10.5 3
t-1 11.5z" />
    <glyph glyph-name="quotedbl" unicode="&#x22;" horiz-adv-x="346" 
d="M150 519q1 2 6 3t10 0.5t8 -3.5t-1 -9q-11 -19 -25 -33.5t-26 -23.5h-1q-3 -2 -10.5 -1t-3.5 9q3 5 10 14.5t14 18.5t12.5 16.5t6.5 8.5zM94 519q1 2 6.5 3t10.5 0.5t7.5 -3.5t-1.5 -9q-11 -19 -25 -33.5t-26 -23.5q-4 -2 -11 -1t-3 9q3 5 9.5 14.5t13.5 18.5t12.5 16.5
t6.5 8.5z" />
    <glyph glyph-name="numbersign" unicode="#" horiz-adv-x="753" 
d="M578 550q3 1 4.5 -2t-2.5 -5q-19 -9 -38 -27.5t-37.5 -43.5t-36.5 -55t-36 -62q9 -1 19.5 -2.5t20.5 -4.5t17.5 -8t10.5 -13q2 -3 -1.5 -4.5t-5.5 1.5q-4 6 -13 9t-19.5 4t-21 0.5t-17.5 -0.5q-11 -20 -16 -28.5t-7 -12.5t-3 -5t-3 -5t-7 -13t-16 -28q10 0 23.5 -1t26 -4
t22.5 -8.5t13 -14.5q2 -3 -1.5 -4.5t-5.5 1.5q-5 7 -16 10t-24.5 4t-27 0t-21.5 -2q-14 -24 -32.5 -54t-40 -58.5t-45 -51.5t-47.5 -32q-4 -1 -5 2t2 5q19 10 37 29t36 44.5t35.5 54.5t34.5 59q-30 -2 -53 -4t-53 -3q-14 -25 -33.5 -57t-42 -63t-47 -55.5t-49.5 -33.5
q-4 -2 -5.5 1.5t2.5 5.5q19 10 38.5 30.5t38.5 48t37.5 59.5t36.5 64q-11 0 -25 1t-27.5 4t-23.5 9t-12 17q0 3 3 4t5 -2q4 -8 15 -11.5t25 -4t28 0t23 1.5q7 12 12 21.5t10.5 19t12.5 21.5t17 29h-28.5t-34 3t-29 9.5t-14.5 18.5q-1 3 2 4t5 -2q4 -9 17.5 -12t30.5 -3.5
t34 0.5t28 2q13 22 31 50.5t39 55t44.5 47t47.5 28.5q3 1 4.5 -2.5t-2.5 -5.5q-19 -9 -37.5 -27t-36 -41.5t-34 -50t-31.5 -52.5q23 2 52.5 4t52.5 2q16 27 35.5 58t41.5 59t45.5 49t47.5 29zM346 245l20 36t7 13.5t6 11t18 29.5q-28 -2 -40 -3t-19.5 -1.5t-16.5 -1.5
t-30 -2q-10 -18 -15 -26.5t-9 -16t-9.5 -17t-17.5 -29.5q20 2 43.5 3.5t62.5 3.5z" />
    <glyph glyph-name="dollar" unicode="$" horiz-adv-x="642" 
d="M466 545q3 2 4.5 -1t-0.5 -5q-11 -8 -20 -16.5t-17 -19.5q19 -10 25.5 -25.5t3.5 -34t-13 -38t-22 -37.5q-3 -5 -7.5 -1.5t-0.5 8.5q21 25 29.5 45t8 35t-9 25t-20.5 14q-13 -17 -26.5 -38.5t-30 -51t-37 -70t-48.5 -96.5q10 -61 6 -107.5t-17.5 -80.5t-34 -56t-44 -35
t-46 -17.5t-40.5 -2.5q-11 -14 -23.5 -26t-29.5 -20q-3 -2 -5 1.5t2 5.5q12 8 22.5 18.5t19.5 22.5q-28 8 -34.5 27t0.5 41.5t25 44t40 34.5q3 2 4.5 -1t-0.5 -5q-24 -15 -41 -36.5t-22 -41.5t3 -34.5t35 -16.5q22 31 45 71.5t43.5 80.5t36.5 72.5t24 47.5q-5 32 -10 64.5
t-2 64.5t18 62.5t48 57.5q23 20 54 30.5t60 2.5q9 11 19.5 20.5t24.5 17.5zM122 -46q25 4 52 20.5t48 45.5t32.5 71.5t5.5 97.5q-12 -23 -28 -53.5t-34 -63t-37.5 -63.5t-38.5 -55zM279 273q13 26 29 55.5t33 59.5t35 58t37 51q-26 2 -48.5 -9.5t-42.5 -29.5
q-21 -19 -32 -39.5t-15 -43.5t-2.5 -48.5t6.5 -53.5z" />
    <glyph glyph-name="percent" unicode="%" horiz-adv-x="914" 
d="M319 277q-12 6 -16.5 20t-2 32t10.5 38.5t21 40.5q-2 14 4.5 30.5t13.5 28.5q15 23 38.5 38.5t45 18t36.5 -12.5t12 -53q-4 -41 -22.5 -79t-43 -64.5t-51 -38t-46.5 0.5zM334 401q-24 -40 -26.5 -74t15.5 -43q21 -10 44.5 8t44.5 48t36 63.5t20 56.5q7 32 -4.5 45
t-30.5 11.5t-41 -16t-37 -37.5q-6 -10 -10.5 -22t-5.5 -24q9 14 19.5 25.5t24.5 20.5q2 2 4 -1t-1 -5q-14 -9 -25.5 -21.5t-21.5 -26.5q3 -17 20 -20q3 -1 2.5 -4.5t-4.5 -2.5q-17 3 -23 19zM338 23q14 22 37.5 38t45 18.5t36.5 -12t12 -53.5q-4 -42 -22 -79.5t-43 -64
t-51.5 -37.5t-46.5 0q-14 7 -17 22.5t0.5 34.5t12 38.5t18.5 35.5q-2 14 4 31t14 28zM456 16q6 32 -5 45t-30.5 11.5t-41 -16t-36.5 -37.5q-6 -9 -11 -21.5t-6 -23.5q9 13 20 24.5t24 20.5q3 2 4.5 -0.5t-0.5 -4.5q-28 -19 -47 -49q3 -17 19 -20q4 -1 3 -4.5t-4 -2.5
q-5 0 -12.5 5t-10.5 14q-8 -13 -15 -30.5t-10.5 -34.5t-1 -31t14.5 -20q21 -10 44.5 8t44.5 47.5t36.5 63t20.5 56.5zM735 518q5 2 8 -2.5t-2 -7.5q-44 -29 -99 -83t-115.5 -119.5t-124 -137.5t-124.5 -136.5t-117 -116.5t-102 -78q-5 -2 -8 2.5t2 7.5q28 21 64 56.5t78 81
t88 97.5t94 105t96.5 104.5t94.5 95.5t88.5 78.5t78.5 52.5z" />
    <glyph glyph-name="ampersand" unicode="&#x26;" horiz-adv-x="672" 
d="M481 418q-20 -36 -51.5 -67.5t-60.5 -56.5q0 -1 2 -9t4 -19l7 -28q49 14 77 -7t31.5 -61t-17.5 -89.5t-70 -92.5q-10 -45 -32 -83.5t-50.5 -69t-61 -52t-65.5 -31.5q-32 -10 -60 -9t-47.5 11.5t-29 29.5t-6.5 46q1 5 6.5 4.5t4.5 -5.5q-5 -21 3 -38.5t25.5 -28
t43.5 -12.5t58 9q72 23 119.5 81t67.5 129q-42 -30 -90.5 -45t-90.5 -12t-71 25.5t-33 67.5q-4 48 20.5 90.5t63.5 79.5t85 69t85 61q-5 30 -7 60t5 61q7 36 26 60.5t40.5 36t43 11t34 -13.5t12 -38.5t-20.5 -63.5zM406 4q42 40 61 85.5t15.5 81t-28.5 54t-70 5.5
q8 -32 15 -65.5t10 -68.5q25 40 30 89q0 5 5.5 4.5t5.5 -5.5q0 -8 -2.5 -20t-7.5 -26t-12.5 -29t-17.5 -28q1 -20 0.5 -38t-4.5 -39zM392 72q-2 38 -9.5 75.5t-16.5 75.5q-29 -14 -49.5 -37t-34.5 -51q-20 -41 -16.5 -70t21.5 -39.5t46.5 0t58.5 46.5zM364 230q0 1 -1.5 8
t-3.5 15.5t-3.5 16t-2.5 10.5q-48 -41 -91.5 -75.5t-75.5 -66.5t-51.5 -64t-19.5 -68q0 -40 26.5 -60t66.5 -22t87 13.5t88 47.5q6 23 7.5 39.5t1.5 33.5q-33 -35 -63 -43t-48.5 5t-22 43.5t16.5 74.5q15 29 37 53.5t52 38.5zM365 317q29 23 57.5 49.5t46.5 58.5
q18 31 19 52t-8.5 31t-26 10t-34.5 -10.5t-33.5 -32t-21.5 -53.5q-6 -26 -5 -52t6 -53z" />
    <glyph glyph-name="quotesingle" unicode="'" horiz-adv-x="290" 
d="M94 519q1 2 6.5 3t10.5 0.5t7.5 -3.5t-1.5 -9q-11 -19 -25 -33.5t-26 -23.5q-2 -1 -5 -1.5t-6 0.5t-4 3t1 6q3 5 9.5 14.5t13.5 18.5t12.5 16.5t6.5 8.5z" />
    <glyph glyph-name="parenleft" unicode="(" horiz-adv-x="614" 
d="M440 636q-34 -20 -72.5 -59t-77 -90.5t-75 -112t-65.5 -123t-49.5 -124.5t-27 -116t2.5 -96.5t39 -67.5q5 -4 1.5 -8t-8.5 -1q-42 33 -52.5 95t4 139t50 162t86 164t112 144t127.5 103q5 3 7.5 -2t-2.5 -7z" />
    <glyph glyph-name="parenright" unicode=")" horiz-adv-x="600" 
d="M386 644q31 -34 39.5 -97t-3.5 -141.5t-43 -164.5t-77.5 -164.5t-108 -142t-134.5 -97.5q-5 -2 -7.5 3t2.5 8q45 22 87.5 62.5t80 93t69.5 113.5t56.5 123.5t40 123.5t20.5 113.5t-2 94t-28 64.5q-4 5 0 9t8 -1z" />
    <glyph glyph-name="asterisk" unicode="*" horiz-adv-x="443" 
d="M269 496q3 0 3 -3t-5 -4q-6 -1 -11 -3t-14 -6.5l-23 -11.5l-38 -19q6 -5 13.5 -11t14 -13.5t11 -15t3.5 -14.5q0 -3 -2.5 -3.5t-4.5 2.5q-2 5 -8.5 10.5t-14 11t-15.5 10.5t-12 8q-10 -23 -23 -48t-30 -36q-3 -2 -5 0.5t0 4.5q10 12 17.5 32.5t16.5 42.5q-8 -3 -20 -8
t-24.5 -9t-24.5 -6t-20 0q-3 1 -3 3.5t3 3.5q5 0 17.5 5.5t26.5 12t26 12.5t17 8q-6 5 -13.5 11.5t-14.5 14t-11 15t-3 15.5q1 3 3.5 3t3.5 -2q2 -5 8.5 -11t14 -12t15.5 -11t13 -8q9 22 22.5 47.5t30.5 38.5q2 2 4.5 -0.5t0.5 -4.5q-8 -11 -15 -29t-18 -47q24 11 46.5 18.5
t41.5 5.5z" />
    <glyph glyph-name="plus" unicode="+" horiz-adv-x="444" 
d="M175 141q11 1 27 1.5t31.5 -1.5t27 -7.5t13.5 -16.5q0 -4 -3 -5q-3 0 -4 3q-4 6 -15.5 8t-26 1.5t-30 -2.5t-27.5 -3q-10 -31 -25 -62.5t-41 -43.5q-3 -1 -5 1q0 4 2 5q16 14 26 40t20 58q-11 -1 -27 -1t-31 2t-26 8t-11 18q0 4 3 4q2 0 4 -2q3 -7 14 -9.5t25 -2.5
t29.5 2t26.5 3q5 15 11.5 32t14.5 32t19 27t25 18q3 2 5 -2q0 -3 -2 -5q-17 -11 -27 -36t-23 -64z" />
    <glyph glyph-name="comma" unicode="," horiz-adv-x="266" 
d="M95 -64q-1 -12 -13.5 -24t-20.5 -19q-7 -5 -10 -1.5t4 8.5q9 8 17 17q-10 2 -6 12q2 6 7 10t10 5t8.5 -1t3.5 -7z" />
    <glyph glyph-name="hyphen" unicode="-" horiz-adv-x="454" 
d="M62 228q5 -8 22.5 -8.5t40.5 2t48.5 6t48.5 3t39.5 -7t21.5 -23.5q1 -5 -3 -7t-7 2q-6 7 -24.5 7t-42 -2.5t-50 -5.5t-49 -2t-38.5 8t-18 25q-1 5 3.5 6.5t7.5 -3.5z" />
    <glyph glyph-name="period" unicode="." horiz-adv-x="256" 
d="M85 -67q-3 -8 -9.5 -12.5t-13 -5t-10.5 3t-1 11.5t9.5 12.5t13 5t10.5 -3t1 -11.5z" />
    <glyph glyph-name="slash" unicode="/" horiz-adv-x="762" 
d="M583 560q5 2 8 -2t-2 -8q-22 -15 -51 -51t-63 -84.5t-71 -106t-75.5 -117t-76.5 -116.5t-72.5 -105t-65.5 -83t-55 -49q-5 -3 -8 1.5t2 7.5q19 15 45 50.5t58 83.5t68 105t74 116t76.5 116.5t75.5 106t70.5 84t62.5 51.5z" />
    <glyph glyph-name="zero" unicode="0" horiz-adv-x="512" 
d="M278 474q36 31 72 39t63 -8.5t40.5 -59t5.5 -111.5q-7 -50 -23 -101.5t-39 -100.5t-52.5 -93.5t-63.5 -79.5q-49 -50 -97.5 -65t-82 5t-46.5 74t9 142q13 51 33.5 98.5t48.5 92.5q5 7 12.5 2t2.5 -12q-23 -35 -44 -83t-35 -102q-19 -77 -11.5 -126t34 -67t67 -3t87.5 66
q30 34 57.5 76.5t49.5 89.5t38 96t23 96q11 69 1 105.5t-32 48t-51 1.5t-56 -33q-32 -28 -54.5 -66.5t-37 -77t-22 -72.5t-8.5 -52q-2 -9 -10.5 -8.5t-7.5 9.5q2 24 10.5 60t24.5 76t39 78.5t55 65.5z" />
    <glyph glyph-name="one" unicode="1" horiz-adv-x="450" 
d="M281 454q29 8 49.5 21t34.5 36q4 5 11 8.5t13 4t9 -2.5t0 -10q-6 -16 -27 -71t-53.5 -136.5t-73.5 -183.5t-86 -212q18 -2 34 -2t27 6q6 4 10 -3q4 -8 -3 -10q-15 -8 -38 -8q-14 0 -31 2.5t-34.5 4.5t-34 3t-28.5 -3q-7 -2 -9 5t5 9q5 2 17 3t24 1h29l32.5 84.5t42.5 108
t59.5 148.5t84.5 207q-8 -5 -13.5 -8t-11.5 -6t-14 -6t-21 -6q-4 -1 -6.5 1t-3 5t0.5 6t5 4z" />
    <glyph glyph-name="two" unicode="2" horiz-adv-x="557" 
d="M487 344q-29 -66 -76 -120.5t-101 -103.5t-110.5 -96t-103.5 -97q24 -1 66.5 -5.5t85 -7t76 -1t41.5 12.5q5 7 12 2t2 -12q-11 -15 -47 -17t-82.5 0.5t-96 4.5t-86.5 -4q-9 -2 -14 5.5t0 15.5q39 52 96.5 103t117.5 103.5t114 108t85 117.5q24 48 22 83t-21 55t-49.5 25
t-63.5 -5t-63.5 -36.5t-48.5 -68.5q-7 -16 -11.5 -34.5t-6 -37t1 -36t10.5 -30.5q5 -8 -2.5 -12.5t-11.5 3.5q-17 42 -14.5 79.5t18.5 74.5q20 46 54 74.5t71 39t72 4.5t57 -29t26.5 -62.5t-19.5 -95.5z" />
    <glyph glyph-name="three" unicode="3" horiz-adv-x="539" 
d="M388 527q32 -2 56.5 -19t36 -44.5t6.5 -63t-32 -72.5q-17 -22 -39.5 -37t-48.5 -24q36 -15 55 -46.5t19.5 -72t-18 -85t-55.5 -83.5q-24 -25 -52.5 -44t-59 -30t-62 -12.5t-61.5 9.5q-36 12 -56.5 37.5t-25.5 58.5q-3 29 7 60.5t28.5 58.5t45 47t58.5 27q4 1 6.5 -1.5
t3 -5.5t-1 -5.5t-5.5 -3.5q-29 -5 -53.5 -23t-41.5 -42.5t-25.5 -53.5t-5.5 -56q4 -35 31.5 -57.5t67.5 -25.5t87.5 16.5t91.5 67.5q44 46 59.5 93.5t8 85t-35 59t-67.5 16.5q-11 0 -11 8.5t8 9.5t21 2t29 7t35 20t39 43q25 37 29 66.5t-5 50t-28 32t-40 12.5q-28 2 -55 -8
t-48 -29t-34.5 -44t-14.5 -53q0 -8 -8 -7.5t-8 8.5q2 34 18 62.5t40.5 49t53.5 31.5t57 10z" />
    <glyph glyph-name="four" unicode="4" horiz-adv-x="482" 
d="M418 486q4 5 9.5 2.5t3.5 -8.5q-4 -13 -13 -43t-20.5 -69.5t-25 -84.5t-27 -89t-25.5 -82.5t-20 -64.5q-13 -36 -26.5 -71.5t-31.5 -69.5q-3 -5 -9 -3t-4 8l70 249q-29 0 -63.5 -0.5t-67.5 -0.5t-60.5 0.5t-41.5 2.5t-15.5 10.5t5.5 13.5q11 8 35 29.5t54.5 50.5
t64.5 63.5t65.5 70.5t57.5 71t41 65q2 5 6 6t8 -1t5.5 -6t-0.5 -8q-15 -28 -39.5 -61t-54 -66.5t-60.5 -66t-58.5 -60.5t-49.5 -49t-32 -32q54 1 106 2t103 -1q9 30 20.5 70t26 80.5t30.5 78t33 64.5z" />
    <glyph glyph-name="five" unicode="5" horiz-adv-x="577" 
d="M508 529q5 3 9.5 1.5t7 -5.5t2 -8.5t-5.5 -7.5v-1q-19 -11 -51.5 -15t-68.5 -4t-70 2t-55 4q-20 -50 -37 -101t-42 -110q44 16 80 16t63 -12.5t44 -35.5t24 -53q13 -54 -2.5 -104t-47 -90.5t-74 -67.5t-85 -36t-79.5 3.5t-57 52.5q-15 31 -11.5 66.5t21.5 66.5t47 53
t64 26q8 1 9 -7t-7 -9q-32 -3 -58.5 -22.5t-42.5 -48t-19.5 -60t11.5 -58.5q18 -33 49.5 -42t68 0t72.5 34.5t63.5 62t42 81.5t7.5 94q-6 36 -25.5 56.5t-47 28t-60 2.5t-63.5 -20q-8 -4 -18 3.5t-5 18.5q15 36 26.5 65t22 55.5t21.5 52.5t25 57h1q3 9 12 7q18 -2 51.5 -5
t70 -3t69 3.5t48.5 13.5z" />
    <glyph glyph-name="six" unicode="6" horiz-adv-x="524" 
d="M145 322q36 67 75 109t76.5 62.5t71 22t58 -12.5t37.5 -40.5t10 -62.5q0 -4 -3 -6t-6 -1.5t-5.5 2.5t-1.5 7q3 28 -6.5 51t-29.5 35t-47.5 10.5t-60 -21.5t-68.5 -61.5t-71 -109.5q-66 -125 -84 -209t-4.5 -131t50.5 -58.5t80 8t84.5 68.5t64.5 124q13 44 10.5 74.5
t-15.5 49t-34 26t-45 5.5t-49 -13t-45 -28q-19 -16 -35 -39.5t-27.5 -50.5t-18 -56t-6.5 -56q0 -8 -8 -8t-8 8q0 25 6.5 53.5t18.5 57t29 55t39 46.5q42 37 88.5 45.5t81 -9.5t50.5 -60.5t-2 -107.5q-15 -55 -45.5 -98t-68 -70.5t-77 -38.5t-72.5 -2.5t-55.5 37.5t-25 81.5
t18.5 130t75 182.5z" />
    <glyph glyph-name="seven" unicode="7" horiz-adv-x="535" 
d="M473 523q7 0 10.5 -6t-0.5 -12q-7 -13 -29.5 -42.5t-54.5 -72t-72 -96.5t-81.5 -115.5t-82.5 -129t-76 -137.5q-2 -3 -8 -5t-13 -2t-11.5 1.5t-3.5 5.5l1 1q28 57 64 118.5t74.5 121t77.5 115.5t73 102.5t61 80.5t42 51q-20 4 -48 4.5t-58.5 -1t-61 -2.5t-55 -0.5
t-41 4.5t-19.5 14q-2 8 5.5 10.5t9.5 -5.5q2 -3 17 -6q13 -2 41.5 -3t82.5 1q24 1 51 2t49.5 2t38 1h17.5z" />
    <glyph glyph-name="eight" unicode="8" horiz-adv-x="550" 
d="M350 236q13 -21 26 -45t20.5 -51.5t6.5 -58t-16 -63.5q-19 -43 -55 -70t-78.5 -38t-84 -8t-72 20t-42.5 46.5t5 71.5q13 31 41 58.5t63.5 52t74.5 45.5t74 38q-16 24 -28.5 50t-18.5 52.5t-4 53.5t16 55q16 33 42 53t54.5 28t56 3.5t45.5 -21.5t22.5 -46.5t-11.5 -70.5
q-18 -48 -56 -87t-81 -68zM300 434q-12 -28 -10 -56t10.5 -52.5t20.5 -44.5t20 -32q43 27 78.5 63.5t53.5 83.5q14 37 10 62t-19.5 39t-38.5 16t-47 -6t-45.5 -26.5t-32.5 -46.5zM363 28q13 32 11 61.5t-11 54.5t-21 44.5t-20 31.5q-30 -14 -68 -33t-73.5 -43t-64.5 -51.5
t-42 -58.5q-15 -36 -3.5 -61.5t38.5 -39t64.5 -15t74.5 10t68.5 36t46.5 63.5z" />
    <glyph glyph-name="nine" unicode="9" horiz-adv-x="522" 
d="M210 425q26 35 60 58.5t67 32.5t63 2t48.5 -33.5t22.5 -74t-13 -118.5q-14 -50 -35.5 -107.5t-52 -111t-69 -97t-85.5 -65.5q-33 -16 -64.5 -16t-55 13.5t-36.5 39.5t-9 63q1 8 9 7t7 -9q-5 -29 5 -51.5t30 -34.5t47.5 -11.5t57.5 17.5q39 22 74 66t63 97.5t49.5 108.5
t33.5 99q18 65 17 108t-15.5 66.5t-38.5 28.5t-51.5 -4.5t-55 -33t-48.5 -57.5q-10 -15 -22.5 -40t-23 -53.5t-16.5 -57t-3 -50.5q3 -29 20 -43t40.5 -14.5t50.5 11.5t52 34q40 38 62.5 89.5t27.5 106.5q1 8 9.5 7.5t7.5 -8.5q-3 -27 -11 -55.5t-20.5 -55.5t-29.5 -51
t-37 -43q-31 -29 -63 -41.5t-59 -10t-47 20t-26 49.5q-6 27 -2.5 57.5t13 60.5t23.5 57t29 47z" />
    <glyph glyph-name="colon" unicode=":" horiz-adv-x="326" 
d="M51 -73q3 8 9.5 12.5t12.5 5t10 -2.5t1 -11t-9.5 -12.5t-12.5 -5.5t-10 2.5t-1 11.5zM122 75q3 8 9.5 12.5t12.5 5t10 -3t1 -11.5t-9.5 -12.5t-12.5 -5t-10 3t-1 11.5z" />
    <glyph glyph-name="semicolon" unicode=";" horiz-adv-x="338" 
d="M133 75q3 8 9.5 12.5t12.5 5t10 -3t1 -11.5t-9.5 -12.5t-12.5 -5t-10 3t-1 11.5zM64 -72q2 6 7 10t10 5t9 -0.5t4 -6.5q-1 -12 -13 -24.5t-20 -19.5q-7 -5 -10 -2t4 9q5 4 8.5 8t7.5 9q-10 0 -7 12z" />
    <glyph glyph-name="less" unicode="&#x3c;" horiz-adv-x="544" 
d="M104 247q29 -16 53.5 -36t45 -40t37 -38.5t29.5 -32.5q3 -4 0 -7.5t-7 -0.5q-22 15 -41.5 31.5t-42 34t-51 36.5t-67.5 39q-11 5 -10 15.5t11 14.5q82 32 155 64t149 74q5 2 8 -3q2 -3 -2 -7q-60 -40 -130.5 -77t-136.5 -67z" />
    <glyph glyph-name="equal" unicode="=" horiz-adv-x="482" 
d="M95 198q4 -9 21 -10t40 0.5t49.5 4t49.5 2.5t39 -5.5t18 -19.5q0 -4 -3 -5q-3 0 -4 3q-4 7 -21.5 8t-41.5 -1t-50.5 -4.5t-49.5 -1.5t-38 7t-16 21q0 4 3 4q2 0 4 -3zM57 103q4 -8 21 -9.5t40.5 0t50 4.5t49 2.5t38.5 -6t18 -19.5q1 -3 -3 -5q-2 0 -4 2q-4 7 -21.5 8
t-41.5 -0.5t-50.5 -4t-49.5 -1.5t-38 7t-16 21q0 4 3 4q4 0 4 -3z" />
    <glyph glyph-name="greater" unicode="&#x3e;" horiz-adv-x="566" 
d="M387 262q13 -8 6 -22q-3 -5 -9 -7q-57 -21 -101.5 -40t-82 -36.5t-71.5 -34t-71 -31.5q-5 -2 -7 3q-2 3 2 7q71 42 140 82t151 70q-40 29 -80 64t-70 76q-3 3 1 7q4 3 8 -1q40 -42 87 -75t97 -62z" />
    <glyph glyph-name="question" unicode="?" horiz-adv-x="674" 
d="M299 579q45 20 84 19t66.5 -18t42 -47.5t12 -69t-23.5 -83t-65 -89.5q-41 -42 -94 -79t-101.5 -73.5t-86 -75.5t-46.5 -85q-1 -6 -7 -4.5t-5 6.5q0 29 19 60.5t49 63.5t67 62.5t72 57.5t65 49.5t47 38.5q41 39 62.5 78t26 73.5t-7 61.5t-35.5 42.5t-58.5 16.5t-77.5 -17
q-48 -21 -81 -54t-50.5 -66.5t-18.5 -63.5t14 -46q5 -5 0.5 -9t-8.5 1q-17 20 -17 53t17.5 69t52.5 70.5t86 57.5zM51 -73q3 8 9.5 12.5t13 5t10.5 -2.5t1 -11t-9.5 -12.5t-13 -5.5t-10.5 2.5t-1 11.5z" />
    <glyph glyph-name="at" unicode="@" horiz-adv-x="775" 
d="M358 423q72 23 128.5 11t87 -48.5t31.5 -92.5t-38 -121q-24 -39 -54.5 -70t-61.5 -52.5t-57.5 -33t-41.5 -11.5q-28 0 -34.5 23.5t-1 57t19 70t24.5 62.5l-17 -22q-21 -25 -36 -35.5t-26 -10.5q-9 0 -14 8t-5 21q0 20 9.5 41.5t25 39.5t35.5 30t41 12q14 0 24 -8
q5 10 13 13.5t16 3.5q12 0 12 -4q-18 -45 -40.5 -94.5t-37 -91t-16.5 -69t21 -27.5q14 0 39 13t52 34.5t52.5 48.5t42.5 55q39 66 38.5 120t-29 88t-81.5 44t-119 -13q-58 -20 -108.5 -58t-89 -87t-63.5 -104.5t-32 -108.5q-8 -67 19 -108.5t75 -52.5q26 -6 57 -3t58.5 14.5
t49 31.5t28.5 47q1 5 6 5t3 -5q-8 -29 -29.5 -50.5t-51 -34.5t-62.5 -17t-63 2q-51 11 -81.5 54t-23.5 116q6 57 32 114t66.5 107t94 88.5t113.5 57.5zM287 165q8 0 23 14.5t30.5 34t29.5 38t19 26.5q0 2 1 2q-5 5 -10 5q-13 0 -29.5 -14t-31.5 -32.5t-25 -38t-10 -30.5
q0 -5 3 -5z" />
    <glyph glyph-name="A" unicode="A" horiz-adv-x="1778" 
d="M1423 -317q-6 -28 -12 -64t-6 -70q0 -35 10 -62t38 -34q16 -5 35 -1.5t38 12t36.5 20t31.5 23.5q6 5 11 -1t-1 -11q-16 -12 -35 -24.5t-39 -21.5t-40.5 -13t-40.5 -1q-24 4 -39.5 17.5t-24 33.5t-12 44t-3.5 48q0 37 4.5 69t6.5 44q17 101 43.5 199t56.5 195
q-21 31 -49 56.5t-60 45.5t-67 35.5t-71 26.5q-99 -150 -179 -269.5t-152.5 -212.5t-143 -161.5t-150.5 -116.5q-66 -40 -127 -57.5t-115 -17.5q-62 0 -112.5 21.5t-86 59.5t-55 89t-19.5 111q0 83 42 177t135 183q67 65 148 111.5t169 76.5t180.5 44t181.5 14
q141 0 260 -32q30 46 66.5 100.5t77.5 112t85 115t90 110t92 96t91 72.5q-44 -10 -92.5 -18t-98 -14.5t-98 -11t-93.5 -8.5q-124 -11 -246 -20.5t-245 -23.5q-57 -7 -129 -16.5t-149 -24.5t-154.5 -36.5t-146 -50.5t-123 -67t-85.5 -87q-13 -20 -22 -43t-13 -47q11 4 19 -5
t8 -21q0 -11 -6.5 -19t-15.5 -8q-12 0 -17 8.5t-5 22.5q0 13 4 30t10 33.5t13 31.5t13 25q32 50 87 89t124 69t147 51.5t156 37t151 25.5t132 17q124 14 246 23.5t246 20.5q109 10 183.5 19.5t124 18t78.5 16t48.5 14l33 11t32.5 7.5q5 1 7.5 -3t0.5 -8q-26 -65 -60.5 -151
t-73 -185.5t-78.5 -210t-77.5 -225.5t-69.5 -231t-55 -227zM600 -497q50 31 93.5 68.5t86 84t86.5 105t94.5 132t109.5 163.5t133 201q-119 32 -254 32q-89 0 -180.5 -14.5t-178.5 -44.5t-166.5 -76t-143.5 -109q-91 -88 -131.5 -178t-40.5 -171q0 -57 19 -106t53 -85
t82 -56.5t106 -20.5q52 0 110.5 18t121.5 57zM1241 260q71 -22 136 -59.5t109 -97.5q30 96 67.5 201t80 209t88.5 204.5t94 187.5q-64 -16 -134.5 -77t-144 -150t-148.5 -197.5t-148 -220.5z" />
    <glyph glyph-name="B" unicode="B" horiz-adv-x="2128" 
d="M1874 818q67 46 119 66.5t87 20.5q33 0 50.5 -16.5t17.5 -46.5q0 -34 -23 -82t-72 -108q-68 -81 -150.5 -145.5t-172.5 -129.5q35 11 62 11q63 0 99.5 -46t36.5 -126q0 -36 -8.5 -78t-25.5 -89q-29 -77 -73 -145t-97.5 -125.5t-115 -103.5t-124.5 -78t-126 -49t-120 -17
q-63 0 -114.5 21.5t-86.5 68.5q-22 29 -33 65.5t-11 75.5q0 55 21.5 114t65 112t107.5 96t150 68q14 35 28.5 68t28.5 68q28 66 65 142.5t78 152.5t83.5 146t83.5 123q-79 -39 -172.5 -63.5t-193 -40t-201 -25.5t-195.5 -19q-136 -14 -271 -30.5t-266 -51.5q-44 -12 -94 -30
t-97.5 -42.5t-88.5 -55t-67 -67.5q-16 -23 -27 -48.5t-15 -52.5q11 3 18.5 -5.5t7.5 -20.5q0 -11 -6 -19t-15 -8q-11 0 -16 9t-5 23t4 31t10.5 35t15 34.5t17.5 29.5q27 38 69 69t90.5 55t99.5 42t96 30q66 18 133.5 30.5t135 21.5t135 16t135.5 14q102 10 208.5 21
t208.5 29t195.5 45.5t170.5 69.5q16 21 40.5 50.5t52 58.5t56 52.5t52.5 33.5q6 3 10.5 -2t1.5 -11q-23 -44 -65 -88.5t-101 -82.5q-27 -39 -56.5 -84.5t-63.5 -103.5t-73.5 -131t-85.5 -166q37 58 80.5 115.5t91.5 111t101 101t109 86.5zM1052 -368q32 -41 76.5 -59.5
t97.5 -18.5q54 0 114 18.5t120.5 51.5t119.5 80t111 103.5t94.5 121.5t70.5 135v2q-5 27 -32.5 45.5t-68 30t-91 16.5t-101.5 5q-56 0 -107 -5t-88 -14q-1 -1 -2 -1q-18 -38 -35 -77.5t-34 -79.5q-3 -10 -14 -6q-9 4 -6 14l3 5q12 34 24.5 67t25.5 67q-81 -25 -141.5 -66.5
t-100 -92t-59 -105t-19.5 -105.5q0 -38 10.5 -72t31.5 -60zM2021 679q54 61 77 102.5t23 66.5q0 38 -46 38q-34 0 -84.5 -21t-107.5 -60q-80 -55 -153 -129t-137.5 -158.5t-119.5 -175.5t-98 -180q35 8 87.5 13.5t111.5 5.5q46 0 93 -4.5t87 -14.5t70 -26.5t44 -41.5
q27 75 27 139q0 56 -25 90.5t-82 34.5q-26 0 -59.5 -8.5t-75.5 -27.5q-8 -4 -13 4.5t3 13.5q50 35 101.5 77t100.5 86.5t94 89.5t82 86zM1898 1032q-26 -20 -52 -49t-46 -55q57 45 98 104z" />
    <glyph glyph-name="C" unicode="C" horiz-adv-x="1859" 
d="M1875 207q5 4 10 -2t-1 -10l-1 -1q-51 -38 -105.5 -94t-110 -119.5t-110.5 -129t-107 -123t-99.5 -101.5t-88.5 -64q-49 -23 -90 -23q-69 0 -114 60.5t-45 180.5q0 89 29 208t96 271q57 123 124.5 227t143.5 189q-69 -14 -142.5 -23.5t-148.5 -17.5t-151 -15t-150 -15
q-119 -13 -237 -31.5t-232 -55.5q-39 -13 -82 -31t-82.5 -41t-73.5 -52t-56 -63q-13 -20 -21.5 -42.5t-11.5 -45.5q11 3 18.5 -5.5t7.5 -20.5q0 -11 -6.5 -19t-15.5 -8q-12 0 -17 8.5t-5 22.5q0 13 4 29.5t9.5 32.5t12.5 30.5t13 24.5q22 36 57 65.5t75.5 53.5t84 42.5
t84.5 32.5q116 37 234.5 55.5t238.5 32.5q158 16 312.5 30.5t297.5 43.5q30 32 65.5 65.5t74.5 63.5t80 55t82 40q44 16 82 16q48 0 75 -24.5t27 -65.5q0 -38 -27 -87.5t-88 -101.5q-42 -35 -76 -50.5t-59 -15.5q-26 0 -40 14t-14 37t15.5 52t49.5 60q-51 -22 -102.5 -37.5
t-104.5 -26.5q-87 -99 -157.5 -212.5t-126.5 -234.5q-72 -153 -104 -275.5t-32 -211.5q0 -97 34 -148.5t94 -51.5q40 0 85 22q41 19 89 63t101 101.5t108.5 124t111 130t108.5 119.5t101 93zM1732 900q-33 -13 -67 -35t-66.5 -48t-62.5 -54.5t-55 -55.5q67 16 136 40t127 59
q7 4 10.5 -2.5t-2.5 -10.5q-73 -42 -105 -83t-32 -70q0 -18 12 -29t33 -11q23 0 55.5 15t71.5 48q57 51 83 97.5t26 81.5t-22.5 55t-62.5 20q-17 0 -36.5 -4t-42.5 -13z" />
    <glyph glyph-name="D" unicode="D" horiz-adv-x="2164" 
d="M2092 785q12 -57 12 -121q0 -116 -36 -246t-98.5 -256.5t-146 -242t-178.5 -203.5t-197 -140t-201 -52q-56 0 -104 17.5t-84 49t-56.5 76.5t-20.5 101q0 46 14.5 94t43 93t72 85t100.5 70q61 31 129 48q13 32 26.5 63.5t27.5 63.5q27 62 63 138t77.5 152.5t85 148.5
t84.5 126q-54 -26 -109.5 -44t-112.5 -32q-134 -31 -269 -44.5t-271 -27.5t-271 -30.5t-267 -51.5q-44 -12 -93.5 -30t-97 -42.5t-88.5 -55t-67 -67.5q-17 -23 -27.5 -48.5t-14.5 -52.5q11 3 18.5 -6t7.5 -20t-6.5 -19t-15.5 -8q-21 0 -21 31q0 13 4 30.5t10.5 35.5t15.5 35
t18 30q27 38 69 68.5t90.5 55t99.5 42.5t96 30q132 35 267.5 51.5t271.5 30.5t270.5 29t267.5 46q64 16 125.5 37t118.5 53q16 21 40.5 50.5t52 58t56 52.5t53.5 34q6 2 10.5 -3t0.5 -11q-29 -49 -68.5 -91t-96.5 -79q-21 -31 -48 -72t-61.5 -99t-76.5 -135t-94 -180
q49 79 102.5 154.5t116.5 146.5q34 38 71 73t74 61.5t72 42t65 15.5q35 0 61 -25t38 -84zM1237 -447q60 0 120 21.5t118.5 58.5t113 86t103.5 103.5t91 112.5t75 112q-3 1 -5 6v1q-6 28 -39 48t-80.5 32.5t-104.5 18.5t-112 6q-42 0 -79.5 -3.5t-66.5 -8.5
q-20 -41 -39 -81.5t-38 -82.5q-2 -5 -6 -6t-7.5 0.5t-5.5 5.5t0 9q6 12 10.5 22.5t10.5 25.5t14.5 38t22.5 60q-29 -8 -58 -18t-56 -24q-55 -29 -96 -66.5t-68.5 -80t-41 -87t-13.5 -87.5q0 -48 18 -90t50 -72.5t75.5 -46.5t93.5 -13zM1871 69q37 64 73.5 141.5t65 160
t46 165.5t17.5 158q0 23 -1.5 44.5t-5.5 41.5q-8 50 -30 71.5t-52 21.5q-27 0 -60 -15.5t-67.5 -41t-68.5 -58t-65 -67.5q-50 -56 -97 -119.5t-90 -131t-82 -137.5t-73 -137q26 5 63 7.5t80 2.5q53 0 109 -5t105 -17.5t85 -33t48 -51.5zM1898 1030q-26 -20 -51.5 -49
t-45.5 -55q58 45 97 104z" />
    <glyph glyph-name="E" unicode="E" horiz-adv-x="1856" 
d="M1874 200q6 5 10.5 -1t-1.5 -11q-55 -42 -105 -94.5t-94 -101.5l-183 -212q-32 -37 -70 -81t-80 -81t-88 -61.5t-95 -22.5q-38 2 -66.5 21t-48.5 52t-30 77.5t-10 98.5q0 83 24.5 181.5t75.5 202.5q29 60 71 120t94.5 109.5t114.5 84t130 43.5q-32 53 -32 109q0 27 8 57
q-79 -20 -161.5 -33t-168 -23t-174.5 -18t-181 -18q-120 -13 -237.5 -31.5t-232.5 -55.5q-39 -13 -81.5 -30.5t-82.5 -41t-73.5 -52t-55.5 -63.5q-27 -42 -34 -88q11 4 18.5 -5t7.5 -21q0 -11 -6 -18.5t-15 -7.5q-12 0 -17 8.5t-5 22.5q0 13 3.5 29.5t9.5 32.5t12.5 30.5
t12.5 24.5q23 36 58 65.5t75.5 53.5t84 42.5t84.5 31.5q115 38 233.5 56.5t238.5 31.5q93 10 183 18.5t176.5 18t169.5 23t162 33.5q13 38 36.5 70t52.5 58q51 45 107.5 67.5t104.5 22.5q45 0 73.5 -20t28.5 -62q0 -29 -16 -67q-18 -39 -47 -73.5t-61 -63.5
q-36 -32 -67 -45.5t-54 -13.5q-26 0 -41.5 14.5t-15.5 39.5q0 23 15 52.5t49 59.5q-35 -15 -71.5 -27t-73.5 -22q-12 -35 -12 -67q0 -29 8.5 -56t22.5 -51q2 -3 0.5 -6.5t-5.5 -4.5q-67 -14 -123 -49.5t-103.5 -85t-86.5 -109t-71 -120.5q-60 -116 -86.5 -214.5
t-26.5 -174.5q0 -95 35 -149t94 -59q45 -3 89.5 20.5t86.5 60.5t79.5 79.5t68.5 77.5l183 212q47 53 94 104t104 96zM1608 816q-25 -21 -45 -47.5t-33 -55.5q55 15 107.5 35t102.5 49q11 6 14 0.5t-3 -11.5q-72 -45 -103 -85.5t-31 -68.5q0 -18 12 -28.5t32 -10.5
q21 0 50 13t62 43q30 27 58 60t45 71q15 36 15 61q0 34 -22 50t-57 16q-43 0 -97.5 -23t-106.5 -68z" />
    <glyph glyph-name="F" unicode="F" horiz-adv-x="1796" 
d="M1557 841q-30 -36 -62.5 -91.5t-63.5 -118.5t-59 -126t-49 -112q54 0 116 2t123 11t116.5 27.5t96.5 51.5v1q6 5 10.5 -1t-0.5 -11q-44 -36 -103 -55t-122.5 -28t-127 -11t-115.5 -2q-32 -74 -63.5 -154t-67 -163t-75 -167t-87.5 -165q-75 -126 -145.5 -180.5
t-129.5 -54.5q-54 0 -96.5 38.5t-68.5 103.5q-19 45 -27.5 95t-8.5 101q0 40 5 79t14 76q21 85 64.5 156.5t109 125t153.5 85t198 37.5q28 2 56 2h56h75q20 46 50 107t64 123.5t69.5 120t68.5 95.5q-126 -11 -250.5 -16.5t-250.5 -13.5q-146 -8 -291 -19.5t-289 -39.5
q-71 -14 -140.5 -34t-133.5 -55q-60 -33 -104 -82.5t-54 -116.5q11 4 19 -5t8 -21q0 -11 -6.5 -18.5t-15.5 -7.5q-11 0 -17 10.5t-6 27.5q0 21 9 49t29.5 59t52.5 61.5t78 56.5q66 35 136 56.5t142 36.5q145 29 290.5 41t291.5 21q131 8 260 13.5t259 15.5q42 44 70.5 61.5
t45.5 17.5q14 0 18 -9t-2 -23q-3 -8 -10 -4.5t-4 10.5q6 11 -0.5 12.5t-20 -5.5t-32 -21.5t-38.5 -35.5q81 7 163 17t161 29q33 8 69 19.5t69 28t60.5 38.5t44.5 51q4 6 10 3t3 -10q-17 -31 -45.5 -54t-63 -40.5t-72 -30t-71.5 -21.5q-85 -21 -172 -32t-174 -18zM999 -256
q40 75 75 154.5t67.5 160t64 161t66.5 158.5h-72h-54t-54 -2q-108 -5 -193.5 -36t-149 -83t-106 -121.5t-63.5 -151.5q-10 -39 -14 -76.5t-4 -73.5q0 -54 9 -103t26 -90q26 -64 64 -97.5t84 -33.5q58 0 123 56.5t131 177.5z" />
    <glyph glyph-name="G" unicode="G" horiz-adv-x="1996" 
d="M1894 422q3 4 7.5 4t7.5 -2.5t4 -6.5t-2 -8q-35 -47 -60.5 -116t-50.5 -152.5t-52.5 -177.5t-64.5 -191q-32 -81 -74 -157t-100 -143q-83 -94 -175.5 -137.5t-175.5 -43.5q-42 0 -80 10.5t-68 31t-51.5 50.5t-31.5 69q-5 17 -6.5 33.5t-1.5 34.5q0 62 25.5 127.5t77 120
t130.5 92.5t186 44q36 1 82 -1.5t90.5 -12t82 -28t56.5 -49.5q27 71 51 144.5t46.5 143.5t46 133t50.5 113q-16 -17 -33.5 -35.5t-44.5 -48.5t-69 -76.5t-107 -119.5q-54 -60 -102 -88.5t-87 -28.5q-51 0 -81 44.5t-30 128.5q0 64 20.5 149t65.5 188q63 136 158 254
q-76 -18 -159.5 -31.5t-171 -24.5t-179 -20.5t-184.5 -21.5q-83 -11 -177.5 -25.5t-188 -37t-181 -55.5t-155.5 -80q-47 -31 -79.5 -76.5t-40.5 -99.5q11 4 19 -4.5t8 -20.5q0 -11 -6.5 -19t-15.5 -8q-11 0 -16.5 10t-5.5 27q0 19 7.5 44.5t23 53.5t40 55t57.5 50
q70 48 158 81.5t183 56.5t190 37t178 25q96 12 190 22.5t184 21.5t175 25t162 33q23 27 51.5 55.5t61 54.5t66.5 47t67 33q17 6 31.5 8.5t27.5 2.5q35 0 54 -17.5t19 -46.5q0 -34 -28 -77q-9 -13 -23.5 -28.5t-31 -30t-34 -26t-32.5 -16.5q-31 -10 -50 1.5t-19 34.5
q0 11 5 25t17 28q-33 -17 -68 -29t-70 -22q-53 -66 -96 -137.5t-80 -149.5q-51 -111 -74 -198t-23 -148q0 -65 23 -98.5t62 -33.5q35 0 79.5 27.5t96.5 84.5q45 48 88 96t81.5 90.5t71.5 79t59 62.5zM1477 -500q54 63 92 136t70 151q-2 0 -2 3h-1q-12 32 -47 51.5t-79 29.5
t-90.5 13t-80.5 2q-100 -5 -175.5 -39t-126.5 -85t-76.5 -112.5t-25.5 -121.5q0 -18 2.5 -36t7.5 -35q20 -66 74.5 -102t127.5 -36q77 0 164 43.5t166 137.5zM1800 904q-25 -10 -51 -27.5t-51 -38.5t-48 -44.5t-41 -44.5q47 14 79.5 28t55 26.5t37.5 22.5t26 17q6 4 10 -2
t-2 -11q-53 -32 -74.5 -59.5t-21.5 -45.5q0 -17 15.5 -24t38.5 1q15 4 31 15t31.5 25t29 29t22.5 28q25 38 25 68q0 23 -15 36.5t-41 13.5q-24 0 -56 -13z" />
    <glyph glyph-name="H" unicode="H" horiz-adv-x="2023" 
d="M2168 883q-21 -10 -51 -52t-66.5 -106.5t-77 -148t-82.5 -176.5t-83.5 -191t-80 -192.5t-72 -181t-58.5 -155.5t-40.5 -117t-18.5 -66q-4 -21 -1.5 -35.5t9.5 -23.5t17.5 -13t22.5 -4q20 0 43 8t42 19q7 4 10.5 -3t-3.5 -10v-1q-62 -28 -102 -28q-42 0 -59 26.5t-13 68.5
q2 26 16 75.5t34.5 110.5t46 129.5t50 133t47 121t38.5 93.5l-3 2q-23 36 -66 59.5t-95.5 37.5t-109.5 19.5t-108 5.5q-17 0 -32 -0.5t-29 -1.5q-18 -44 -42.5 -106.5t-55 -134t-65.5 -147t-74 -147.5t-81.5 -135t-87.5 -108t-92.5 -68.5t-95.5 -16.5q-32 4 -58.5 25
t-45.5 54t-29 76.5t-10 93.5q0 77 25 158q33 105 104.5 195t183.5 156q87 51 185 78.5t199 38.5q15 35 34.5 78.5t42.5 90t48.5 95t52 93t53 83.5t51.5 67q-41 -6 -97.5 -10.5t-122 -9t-136.5 -8.5l-142 -8t-138.5 -8.5t-124.5 -9.5q-75 -6 -163.5 -16t-177.5 -28.5
t-170.5 -47.5t-141.5 -73q-40 -30 -68.5 -72.5t-36.5 -92.5q11 4 18.5 -5t7.5 -20t-6 -19t-15 -8q-11 0 -16 10t-5 27q0 18 6.5 42t20 50t35 52t50.5 48q61 45 143.5 75t172 49t179 30t166.5 18q136 12 254.5 18.5t217.5 12t176.5 10.5t130.5 13q18 18 37.5 34t43.5 30
q20 13 34 8.5t14 -18.5q0 -8 -6 -17.5t-20 -19t-36.5 -17.5t-55.5 -14q-23 -26 -48 -65t-49.5 -84.5t-48.5 -95t-45.5 -97t-39.5 -91t-32 -76.5q13 1 27 1.5t29 0.5q51 0 108.5 -6t111 -20t98 -38.5t69.5 -60.5q10 24 28 65.5t41.5 93.5t52 111.5t59 118.5t62.5 115
t63 100.5t60 75t53 39.5q7 2 10 -4.5t-4 -9.5zM702 -562q44 -7 86 15.5t82 65.5t78 103t73 129t67 142.5t60.5 144t53 133.5t44.5 111q-97 -11 -190.5 -38t-178.5 -76q-99 -57 -173.5 -145t-109.5 -198q-13 -40 -18.5 -78.5t-5.5 -74.5q0 -47 9.5 -88t27 -72.5t41.5 -50.5
t54 -23zM1640 875q-20 -11 -32.5 -21.5t-26.5 -24.5q38 8 58 20t25.5 21.5t-1.5 12t-23 -7.5z" />
    <glyph glyph-name="I" unicode="I" horiz-adv-x="798" 
d="M766 596q-31 -64 -63 -140t-66 -158t-70 -167t-74.5 -167.5t-79.5 -159t-85 -141.5q-24 -35 -52.5 -68t-61 -59.5t-67.5 -42.5t-71 -16q-35 0 -71 18q-7 3 -3.5 10t10.5 3q6 -4 16 -8q8 -3 19.5 -5.5t25.5 -2.5q20 0 45.5 7.5t55.5 28t63 56.5t68 94q30 50 62.5 115.5
t66 140.5t67 156t66.5 161.5t65 157.5t62 144q-56 -34 -108 -67t-97 -69.5t-83 -78t-67 -92.5q-20 -35 -33 -74t-16 -81q12 5 19.5 -4t7.5 -21q0 -14 -7 -20.5t-15 -6.5t-14.5 6.5t-6.5 20.5q2 50 16.5 97t39.5 89q33 56 75.5 100.5t91.5 82t101 69.5l104 64
q47 102 94.5 173t90 115.5t78 64.5t58.5 20q35 0 35 -37q0 -21 -15 -52.5t-48 -70t-85.5 -83.5t-128.5 -93zM775 614q73 47 124 91.5t83.5 82t47 67t14.5 46.5q0 22 -19 22q-15 0 -40.5 -17t-58.5 -54t-71.5 -96t-80.5 -143q1 0 1 1z" />
    <glyph glyph-name="J" unicode="J" horiz-adv-x="888" 
d="M966 804q-37 -51 -76.5 -133t-81 -181t-86 -210t-92 -220.5t-98.5 -211t-106 -183.5q-79 -116 -151.5 -166.5t-129.5 -50.5q-33 0 -60 15t-45.5 41t-29 62.5t-10.5 79.5q0 41 9.5 86t31.5 93q40 89 106 158.5t148.5 122t176.5 88.5t190 57q45 106 78.5 186.5t63 143.5
t58.5 114t65 99q-90 -23 -186 -46t-192 -58q-62 -23 -120 -54.5t-100 -83.5q-38 -46 -56 -103t-21 -117q11 5 19.5 -4t8.5 -21q0 -11 -6.5 -19t-15.5 -8q-11 0 -17 13.5t-6 36.5t5.5 52.5t16.5 61t27 62t36 54.5q44 53 102.5 84.5t122.5 54.5q46 17 98.5 32t105 29
t101.5 26.5t90 23.5q53 66 97 91.5t70 25.5q31 0 31 -23q0 -15 -18.5 -34.5t-60.5 -36.5q-23 -8 -46.5 -15t-46.5 -14zM1054 846q38 15 54 30t16 25q0 9 -12 11.5t-32 -5.5t-46.5 -28.5t-55.5 -57.5q20 5 38.5 11.5t37.5 13.5zM394 -314q43 72 80 145t69 143.5t60 136.5
t52 123q-94 -20 -185.5 -54.5t-171.5 -85.5t-143.5 -119.5t-101.5 -155.5q-20 -45 -29 -88t-9 -82t8.5 -72t25 -57t39 -37.5t51.5 -13.5q51 0 116.5 50t138.5 167z" />
    <glyph glyph-name="K" unicode="K" horiz-adv-x="1889" 
d="M1700 439q-60 -41 -124.5 -74.5t-133.5 -57.5q-32 -11 -64 -19.5t-64 -15.5q67 -17 119.5 -55t93 -90.5t72 -117t57 -135.5t46.5 -145.5t42 -145.5q9 -29 22 -72.5t30.5 -86.5t39.5 -78.5t49 -47.5q7 -3 4 -10t-10 -4q-22 15 -40 34t-35 51.5t-36 82t-44 125.5
q-20 62 -44 134.5t-53 145.5t-64 142t-79 124.5t-97 93.5t-117 48q-7 -1 -13.5 -1.5t-13.5 -0.5q-47 -115 -93 -224t-102 -214q-22 -41 -57 -93.5t-79 -98.5t-95 -77.5t-103 -31.5q-8 0 -8 7.5t8 7.5q48 -2 92 29.5t82 79t69.5 101.5t53.5 96q32 60 60 121t52 117
t42.5 102.5t30.5 76.5q-21 0 -40 3q-7 1 -7 7.5t7 8.5q14 1 22.5 2t26.5 1q29 72 51 123.5t42 94.5t41 84t48 91q32 59 67.5 119.5t80.5 111.5q-32 -5 -70.5 -8.5t-79 -6.5t-80.5 -5.5t-74 -4.5q-115 -8 -228.5 -13t-227.5 -15q-75 -7 -164 -17t-178 -28.5t-170.5 -47
t-141.5 -72.5q-40 -30 -68.5 -73t-36.5 -93q12 4 19.5 -5t7.5 -20t-6.5 -19t-15.5 -8q-11 0 -16 9.5t-5 26.5q0 18 6.5 42t20.5 50.5t35.5 52.5t50.5 48q61 45 143.5 75t172 49.5t179 30t165.5 17.5q115 10 228 17t228 13q64 3 112.5 6t86.5 5.5t68 5.5t57 7q8 8 16 15.5
t17 15.5q26 22 45.5 31t32.5 9q15 0 18 -10.5t-8 -24.5t-38 -28.5t-72 -22.5q-48 -54 -82.5 -119t-66.5 -131q-46 -94 -85.5 -188t-78.5 -191q47 7 95 21.5t86 30.5q66 27 127.5 60.5t121.5 72.5q124 81 219.5 180t163.5 230q3 7 10 3.5t3 -10.5q-61 -121 -156.5 -233.5
t-220.5 -198.5zM1582 932q44 9 64.5 25t20.5 24t-18 2.5t-53 -37.5z" />
    <glyph glyph-name="L" unicode="L" horiz-adv-x="1571" 
d="M2131 -306q4 4 8 0t-1 -8q-64 -57 -136.5 -94t-151 -58.5t-162 -30t-168.5 -8.5q-114 0 -228 7.5t-223 7.5q-63 0 -124 -4.5t-121 -16.5q-17 -11 -38 -20t-39.5 -14t-31 -4.5t-12.5 8.5q0 5 14.5 11.5t33 12.5t35 11t21.5 6q38 27 74.5 72t71.5 101.5t67.5 121.5
t62.5 132.5t57.5 134t51.5 126.5q18 44 41 99.5t50.5 115t57.5 121t62 119t64 107t64 85.5q-41 -6 -97.5 -10.5t-121.5 -9t-136 -8.5t-141 -8t-137 -8t-123 -9q-75 -6 -164 -16t-178 -28.5t-170.5 -47.5t-141.5 -73q-40 -30 -68.5 -73t-36.5 -92q12 3 19.5 -5.5t7.5 -20.5
q0 -11 -6.5 -19t-15.5 -8q-11 0 -16 9.5t-5 26.5q0 18 7 42.5t21 51t35 52.5t50 48q61 45 143.5 75t172 49t179 30t165.5 18q134 11 252 18t216 12t175.5 10t131.5 13q16 16 34 31q26 22 46 31t33 9q15 0 18.5 -10.5t-8 -24.5t-39 -28.5t-72.5 -22.5q-29 -33 -60 -83.5
t-62 -111.5t-61 -127t-56.5 -129.5t-49.5 -119.5t-39 -96q-40 -98 -81 -195.5t-86.5 -184.5t-97 -159.5t-112.5 -121.5q75 16 147.5 21.5t144.5 5.5q107 0 206 -6.5t202 -6.5q77 0 155.5 6.5t152.5 25t142.5 51.5t125.5 86zM1577 858q45 9 66 25.5t21 24.5t-18 2.5
t-53 -37.5z" />
    <glyph glyph-name="M" unicode="M" horiz-adv-x="2400" 
d="M1993 379q60 52 107.5 80t79.5 28q29 0 44.5 -24.5t15.5 -78.5q0 -32 -6 -77q-15 -87 -44 -184.5t-60 -191t-59 -175t-41 -136.5q-2 -6 -5 -20t-4.5 -28t-0.5 -25.5t7 -12.5q4 -1 5.5 -3.5t0.5 -5.5t-3 -5t-6 -1q-14 2 -18.5 14t-4.5 31q0 14 2 29t4 32q16 97 44.5 195
t58.5 188.5t57 169t40 135.5q12 55 12 90q0 69 -44 69q-28 0 -72 -27t-101 -76q-32 -27 -70 -64.5t-76 -78t-72.5 -81.5t-58.5 -76q-4 -6 -10 -2.5t-2 12.5q25 51 60 114t74 134.5t80.5 147.5t81.5 153q45 86 64.5 138t19.5 78q0 31 -25 31q-17 0 -44 -13t-59 -34
q-26 -17 -64 -47.5t-81 -67.5t-88 -78t-85.5 -79t-73.5 -70t-52 -52q-22 -49 -43 -98t-43 -99q-30 -69 -59 -137.5t-61 -137.5q-2 -6 -8.5 -3.5t-4.5 8.5q16 52 32 97t29 82t23 63.5t16 41.5q9 27 25.5 68.5t38 92t47 108t54.5 116.5t59.5 117t62.5 110q-75 -51 -169.5 -82
t-199 -50t-214 -30.5t-213.5 -21.5q-99 -10 -202 -22t-202 -32.5t-188.5 -52.5t-161.5 -81q-51 -35 -85.5 -81.5t-38.5 -108.5q11 3 19 -5.5t9 -20.5q1 -11 -4.5 -19t-14.5 -8q-11 0 -17.5 12t-6.5 32t7 46t23 54t41 56t61 52q74 50 168 82.5t195 52.5t203 32t194 21
q108 11 223.5 24t224.5 35t205 57.5t165 92.5q9 14 23 35.5t30.5 44t33 41.5t30.5 29q6 5 12 0t2 -12q-15 -32 -36.5 -61t-51.5 -58q-30 -52 -63 -118t-63 -130t-53.5 -117t-34.5 -78q21 21 53.5 51.5t70 65.5t78.5 71.5t80.5 70t74.5 61.5t61 46q41 28 69.5 40.5t47.5 12.5
q20 0 29 -13.5t9 -37.5q0 -37 -18.5 -96t-50.5 -133q-22 -51 -49.5 -104t-57.5 -105.5t-61 -103.5t-61 -97q43 48 85.5 90t93.5 87z" />
    <glyph glyph-name="N" unicode="N" horiz-adv-x="2234" 
d="M1850 695q85 66 150 100t109 34q36 0 55.5 -25t19.5 -77q0 -64 -31 -169q-23 -72 -48.5 -140.5t-51.5 -137.5q-38 -98 -69 -179t-55.5 -147.5t-42.5 -122t-30 -102.5q-7 -29 -11.5 -59t-4.5 -56q0 -40 13 -66t45 -26q15 0 37 8q8 2 10.5 -5t-5.5 -10q-6 -3 -12 -5
q-5 -2 -13 -3t-16 -1q-13 0 -27.5 5t-26.5 19.5t-19.5 40t-7.5 66.5q0 39 9 98q12 64 33 137.5t46.5 147.5t53 145t52.5 131q31 76 49.5 121.5t29.5 73t17.5 43.5t12.5 34q41 110 41 171q0 74 -59 74q-40 0 -102.5 -32.5t-143.5 -95.5q-52 -39 -104 -85t-102.5 -95
t-97.5 -100t-90 -100q-39 -91 -63 -146t-39 -89.5t-24.5 -56t-20.5 -45.5q-2 -6 -8.5 -4t-4.5 9q28 88 68.5 201t91 234t108 240.5t119.5 220.5q-63 -42 -133.5 -68.5t-142.5 -44.5q-129 -30 -259 -44t-261 -28q-99 -10 -202 -22t-202 -32.5t-188.5 -52t-161.5 -81.5
q-51 -35 -85.5 -81.5t-38.5 -108.5q11 4 19 -5t9 -20t-4.5 -19t-14.5 -8q-12 0 -18.5 12t-6.5 32t7.5 46t23 54t41 56t61.5 52q74 50 168 82t195 52t203 32t194 21q131 14 260.5 29t257.5 46q78 20 157.5 51.5t142.5 82.5q9 15 23 36.5t30.5 43.5t33 41.5t30.5 29.5
q6 5 12 0t2 -12q-13 -29 -35 -60t-53 -60q-19 -31 -42.5 -76.5t-49 -98t-51.5 -109.5t-50.5 -110.5t-45 -100.5t-34.5 -80q86 94 177.5 182t191.5 167z" />
    <glyph glyph-name="O" unicode="O" horiz-adv-x="2483" 
d="M2413 685q10 -59 4.5 -118t-22.5 -116t-42 -112.5t-54 -106.5q-84 -149 -183.5 -272t-208.5 -219q-38 -33 -89.5 -72t-108 -70.5t-114 -49t-107.5 -8.5q-41 7 -64.5 34t-34 65.5t-10.5 84.5t6.5 92t16.5 87t19 70q19 64 46.5 129.5t59.5 131t69 128.5t76 121
q10 45 26.5 86.5t39.5 80.5q-36 -5 -79 -9t-87.5 -7t-87.5 -5.5t-80 -4.5q-131 -8 -260 -15t-260 -18q-130 -11 -258.5 -28.5t-253.5 -52.5q-46 -14 -92.5 -31.5t-88.5 -41.5t-77.5 -55.5t-59.5 -72.5q-14 -23 -23 -46.5t-13 -49.5q13 5 22.5 -5t9.5 -24q0 -13 -7 -21.5
t-18 -8.5q-19 0 -23 18.5t1 44t16 53.5t22 46q25 42 61.5 74.5t79 57.5t90.5 43.5t96 32.5q127 37 255 55.5t259 30.5q131 11 260.5 18.5t260.5 14.5q118 7 201.5 12t143.5 13q15 24 34 51.5t41 54.5t46 52t49 43q75 56 156 68t151 -14t121 -87t67 -152zM1757 653
q-38 -63 -60 -132q3 4 5.5 7.5t4.5 7.5q23 32 46.5 63.5t49.5 61.5q-9 -2 -18.5 -3.5t-27.5 -4.5zM2281 241q28 49 53 103t42 110t23 113.5t-4 114.5q-10 58 -35.5 103.5t-61.5 77t-81 47.5t-94 16t-99 -17t-97 -52q-23 -17 -45.5 -39.5t-43 -47t-38.5 -50t-33 -49.5
l24.5 3.5t27.5 6.5q22 26 44 50.5t45 47.5q9 9 15.5 -1t3 -28.5t-21.5 -40t-58 -35.5q-93 -122 -169 -250q-5 -63 10.5 -114.5t46.5 -88t75 -57t96 -22.5q38 -2 83.5 7.5t96 35t104 68t107.5 107.5q5 6 10.5 1t0.5 -10q-60 -69 -115.5 -113t-106 -69.5t-96 -34.5t-85.5 -7
q-53 2 -97.5 22t-77 55t-51 84t-18.5 109q-69 -120 -117 -225t-83 -211q-13 -33 -25 -74t-20.5 -83.5t-11 -84t5 -75.5t27 -57.5t54.5 -30.5q48 -10 103.5 7.5t110.5 49t105 70t86 70.5q116 106 211.5 229t173.5 259zM1909 750l-22 -26t-22 -27q17 9 29 22t15 31z" />
    <glyph glyph-name="P" unicode="P" horiz-adv-x="1866" 
d="M1784 849q53 0 82.5 -39.5t29.5 -105.5q0 -36 -14 -86.5t-39.5 -109t-61.5 -122t-81.5 -124t-98 -114.5t-111 -95t-122 -65t-129.5 -24q-30 0 -56 7t-46 21q-21 -47 -43 -93t-46 -91q-23 -44 -58.5 -96.5t-79.5 -98t-94 -76t-102 -30.5q-8 0 -8 7q0 8 8 8q32 -2 62 12
t58 38.5t54 57t48.5 67t41.5 68.5t34 62q26 50 49.5 100t45.5 102q-14 30 -14 62q0 27 8.5 55.5t25 56.5t40 53.5t53.5 46.5q15 38 31 75.5t33 75.5q8 17 23 48.5t35 71.5t43.5 84t49 87t51 81t49.5 65q-63 -9 -136 -14.5t-168 -10.5q-115 -8 -228.5 -13.5t-227.5 -15.5
q-50 -4 -106.5 -10t-116 -14.5t-119 -20.5t-115.5 -28.5t-106 -39.5t-90 -52q-41 -30 -69 -73t-36 -92q11 3 18.5 -5.5t7.5 -20.5q0 -11 -6.5 -18.5t-15.5 -7.5q-11 0 -16 9.5t-5 26.5q0 18 6.5 42t20.5 50.5t35.5 52.5t50.5 48q61 45 143.5 75t172 49t179 30t165.5 18
q115 10 228 17t228 12q64 3 112.5 6t86.5 5.5t68 5.5t57 7l16 16t17 15q26 22 46 31t33 9q15 0 18 -10.5t-8.5 -24.5t-38.5 -28t-72 -22q-22 -24 -43 -54.5t-44.5 -72.5t-51 -100t-63.5 -137q38 52 84 108.5t99 103t113 76.5t126 30zM1690 312q41 54 74 109.5t56 108
t35.5 100t12.5 86.5q0 51 -23.5 82t-76.5 31q-62 0 -126 -39.5t-123 -99.5t-111 -130.5t-91 -133.5l-37 -88q43 20 97 29t108 9q36 0 69.5 -4t61.5 -12t47 -20t27 -28zM1229 -9q66 0 128.5 28t119.5 72t107 97t90 103q-1 1 -1 3q-2 15 -18.5 26.5t-43 20t-61 13t-72.5 4.5
q-54 0 -108 -9.5t-99 -32.5q-20 -50 -36.5 -91t-31 -77t-28.5 -68.5t-28 -65.5q16 -12 37 -17.5t45 -5.5zM1209 275q-45 -36 -71 -83.5t-26 -93.5q0 -24 7 -42zM1596 928q-8 -6 -14 -14q45 9 65.5 25t20.5 24t-18.5 2.5t-53.5 -37.5z" />
    <glyph glyph-name="Q" unicode="Q" horiz-adv-x="2609" 
d="M2519 -379q36 0 71.5 -3.5t70 -11.5t66 -22t59.5 -36q6 -5 1.5 -10.5t-10.5 -0.5q-27 21 -58 34.5t-64 21t-68 10.5t-69 3q-35 1 -70.5 0.5t-71 1t-69.5 5.5t-67 15q-67 22 -105.5 68t-43.5 116q-32 -30 -70.5 -62.5t-81.5 -63.5t-89.5 -58.5t-93.5 -47.5t-93 -31t-89 -8
q-70 4 -108.5 42.5t-51 101.5t-2.5 146t37 175.5t68 189.5t91 190q56 105 123 204t136 184q-35 -7 -83 -12.5t-103.5 -10t-114 -8.5t-112.5 -7q-136 -8 -270 -15t-269 -19q-134 -11 -267 -29t-263 -55q-48 -14 -95.5 -32.5t-91 -43t-80.5 -57.5t-63 -75q-14 -23 -23 -48
t-13 -51q13 5 23 -5.5t10 -24.5t-7.5 -23t-18.5 -9q-20 0 -23.5 19.5t2 46.5t16.5 55.5t22 46.5q26 43 63.5 77t82 59.5t93.5 45t99 34.5q131 38 264.5 57t268.5 31q135 11 269 19.5t269 15.5q89 5 156.5 9t119 8t89 9t66.5 12q23 27 47 54t49 53q10 10 16 -1.5t1.5 -31.5
t-24 -43.5t-61.5 -38.5q-76 -99 -142.5 -204t-124.5 -215q-33 -63 -71 -146t-70 -172t-51.5 -175.5t-16.5 -155.5t35.5 -113.5t104.5 -48.5q65 -4 136 22t140 68t131 93t109 97q2 62 26 125.5t58 109.5q-101 -48 -177.5 -50t-126 33.5t-70.5 104t-11 160.5q8 76 36 158.5
t71 159t99 141.5t120 107t134.5 55t142.5 -14q51 -19 93 -64t60 -116t6.5 -168t-66.5 -221q-66 -142 -161 -277.5t-219 -253.5q1 -71 36.5 -116.5t102.5 -67.5q33 -10 66.5 -14.5t68 -5.5t69.5 -0.5t70 -0.5zM1929 809q20 10 35 26.5t17 36.5q-14 -15 -26.5 -30.5
t-25.5 -32.5zM2212 90q-14 -12 -31 -36.5t-32 -56.5t-27 -70t-15 -76q53 53 104 114.5t97.5 127.5t87 135t72.5 137q37 81 56.5 166t13.5 160t-42 133.5t-109 86.5q-69 27 -137 14t-130 -54.5t-116 -105.5t-95.5 -139t-68.5 -155t-35 -153q-10 -92 11 -158.5t71.5 -98
t130 -24t186.5 64.5q5 4 9 -1.5t-1 -10.5z" />
    <glyph glyph-name="R" unicode="R" horiz-adv-x="1826" 
d="M1589 785q50 35 92 50t75 15q59 0 89.5 -42t30.5 -108q0 -48 -16.5 -104t-50.5 -114t-85.5 -115t-122 -106t-161 -87.5t-200.5 -59.5q15 -22 38.5 -60t53 -83.5t65 -95.5t76.5 -96q25 -30 58 -61t69.5 -58t76.5 -47t81 -29q5 -1 7 -5t1 -8t-4.5 -6.5t-8.5 -1.5
q-42 9 -83.5 29t-79.5 47.5t-71.5 60t-61.5 65.5q-43 49 -80.5 102t-68.5 101t-54 85.5t-37 56.5q-8 -1 -16 -1.5t-17 -0.5q-31 -75 -64.5 -149t-72.5 -146q-21 -42 -56 -94t-79.5 -98.5t-95 -77.5t-103.5 -31q-8 0 -7.5 7.5t8.5 7.5q32 -2 62 12.5t58 39t54 56.5t48 66.5
t41 68.5t34 62q37 69 69 139.5t61 142.5q-15 6 -21.5 14.5t-6.5 17.5q0 14 15 24t38 5l29 72q21 54 43 106.5t46 105.5q9 21 25 54t36.5 73t44 84t48.5 85.5t49.5 77.5t47.5 62q-63 -9 -136 -14t-169 -11q-115 -8 -228 -13t-227 -15q-75 -7 -164 -17t-178 -28t-170.5 -47
t-141.5 -73q-40 -30 -68.5 -73t-36.5 -92q12 3 19.5 -6t7.5 -20t-6.5 -19t-15.5 -8q-11 0 -16 9.5t-5 26.5q0 18 6.5 42t20.5 50.5t35.5 52.5t50.5 48q61 45 143.5 75t171.5 49.5t179 30t166 17.5q115 10 228 17t228 13q64 3 112 6t86 5.5t68 5.5t57 7q16 16 34 31
q26 22 46 31t32 9q15 0 18 -10.5t-8.5 -24.5t-38.5 -28t-71 -22q-22 -25 -43 -55t-43.5 -71t-49 -95.5t-59.5 -128.5q45 66 100 128t120 107zM1227 130q106 25 192.5 66t154.5 92t118.5 108t83.5 113.5t49 110t16 96.5q0 54 -23.5 86t-69.5 32q-29 0 -66.5 -15t-83.5 -47
q-44 -31 -84 -71t-75.5 -85t-67 -93.5t-56.5 -95.5l-80 -196l-31 -76q8 -7 12.5 -12t10.5 -13zM1581 919q45 9 65.5 25t20.5 24t-18 2.5t-53 -37.5zM1159 158q-12 3 -20 0.5t-10 -7.5t2 -11.5t16 -10.5zM1192 125q4 1 12 1q-4 4 -3 3.5t-5 5.5q-2 -4 -4 -10z" />
    <glyph glyph-name="S" unicode="S" horiz-adv-x="1573" 
d="M1763 820q0 -28 -14.5 -49t-38.5 -36t-54 -25.5t-60 -18t-58.5 -13t-48.5 -10.5q-23 -44 -46 -95.5t-44.5 -104.5t-40.5 -104t-35 -93q-30 -79 -65.5 -167t-79 -173t-96.5 -162.5t-118.5 -136.5t-144.5 -93.5t-175 -34.5q-67 0 -123 23t-97 65t-64 101.5t-23 132.5
q0 65 17 132t47.5 130t72 117.5t91.5 95.5t106.5 64.5t115.5 23.5q54 0 103 -18t85.5 -53t58 -86.5t21.5 -118.5q0 -74 -30.5 -163t-102.5 -192q-4 -8 -10 -2q-3 2 -3.5 5t1.5 5q70 102 100 188t30 158q0 63 -20 112t-54 82t-79.5 50.5t-96.5 17.5q-56 0 -110.5 -22.5
t-103.5 -61.5t-90 -92t-71 -113.5t-47 -126.5t-17 -130q0 -69 21.5 -125t59.5 -95.5t90 -60.5t113 -21q93 0 167.5 33t134.5 89.5t108.5 131.5t89 159.5t75.5 174t70 174.5q27 69 48.5 122.5t40 97t36.5 80.5t39 73q-92 -13 -193 -19t-205.5 -10.5t-209.5 -9.5t-205 -16
t-191.5 -29.5t-169.5 -50.5q-84 -34 -147.5 -87.5t-94.5 -137.5q11 -2 14.5 -11.5t0.5 -20.5t-11.5 -16.5t-16.5 -3.5q-9 2 -12.5 11.5t-0.5 20.5q13 46 39 85.5t60.5 72t76 58t86.5 43.5q81 33 175 52t195.5 29.5t208 15t211 8.5t205.5 10t192 19q20 30 44.5 66.5t54 68.5
t64 54t75.5 22q34 0 54 -19t20 -46zM1497 682q17 5 42 10t53 12t56.5 16.5t51 23t36.5 31.5t14 43q0 21 -16.5 35.5t-42.5 14.5q-34 0 -62.5 -20t-52.5 -48.5t-43.5 -60.5t-35.5 -57z" />
    <glyph glyph-name="T" unicode="T" horiz-adv-x="1548" 
d="M2437 962q-19 -33 -61 -59.5t-97.5 -47.5t-119.5 -37t-126 -27.5t-117 -19.5t-93 -13q-150 -18 -300 -30q-50 -62 -91.5 -150t-80.5 -188t-78 -206t-83 -204q-66 -149 -139 -249.5t-147 -161.5t-146.5 -87t-138.5 -26q-80 0 -144.5 31t-105.5 78q-5 5 0.5 10t10.5 0
q37 -45 95 -74.5t130 -29.5q61 0 129.5 26.5t139 88t140.5 162.5t135 250q46 107 85 209.5t77.5 195.5t80 174.5t94.5 147.5q-79 -6 -158 -11l-158 -10q-131 -8 -265.5 -15.5t-260.5 -22t-238.5 -38.5t-199.5 -64q-35 -17 -66.5 -38.5t-57 -48t-42.5 -58.5t-23 -70q1 1 5 1
q9 0 15.5 -8t6.5 -19t-6.5 -18.5t-15.5 -7.5q-11 0 -16.5 10.5t-5.5 27.5q0 22 10.5 52.5t34 63.5t61.5 66t94 60q90 42 205.5 67.5t243 40.5t260.5 23t259 16q85 5 168 10t168 12q20 23 43.5 43.5t49.5 32.5q29 13 55 13q29 0 48 -13t25 -33q3 -8 -5 -10q-7 -2 -9 5
q-5 14 -19 24t-36 10q-25 0 -50 -14q-19 -10 -35 -24t-30 -31q70 6 139.5 12.5t139.5 14.5q36 4 90.5 11.5t116 18.5t124.5 26t118 35t96.5 45.5t58.5 56.5q4 6 10 2.5t3 -9.5z" />
    <glyph glyph-name="U" unicode="U" horiz-adv-x="2030" 
d="M2097 696q8 6 12 -0.5t-7.5 -33.5t-44.5 -77.5t-99 -133.5q-56 -105 -103 -218.5t-81.5 -222t-54 -205t-19.5 -167.5q0 -67 19 -105.5t61 -38.5q28 0 61 16q8 3 11 -4t-5 -10q-35 -13 -63 -13q-60 0 -87.5 53t-27.5 140q0 64 13.5 142t38 163t59.5 174.5t78 175.5
q-28 -34 -56 -67t-57 -66q-78 -91 -129.5 -149t-85.5 -94t-56 -56.5t-43 -35.5q-53 -37 -87 -37q-36 0 -52 36.5t-16 96.5q0 52 10 117.5t26.5 134.5t37 137t42.5 127q35 96 78.5 193t97.5 185q-34 -8 -76.5 -14t-87.5 -10.5t-88 -7.5t-79 -6q-115 -8 -229 -13.5t-229 -15.5
q-75 -6 -164 -16t-178.5 -28.5t-171.5 -47.5t-142 -73q-41 -30 -69.5 -73t-36.5 -93q11 4 18.5 -5t7.5 -20t-6 -19t-15 -8q-11 0 -16.5 9.5t-5.5 26.5q0 18 7 42.5t21 51t35.5 52.5t50.5 48q62 45 145 75t173 49t180 30t166 18q115 10 229 16.5t229 13.5q109 7 198 14.5
t146 21.5q14 21 28.5 41.5t33.5 38.5q17 17 32.5 9.5t15.5 -25.5q0 -17 -19 -37.5t-68 -35.5q-24 -42 -48 -95.5t-46.5 -109t-42 -107t-32.5 -90.5q-20 -60 -42.5 -132t-42 -144.5t-32 -139t-12.5 -114.5q0 -40 10 -63t35 -23q28 0 72 31q20 14 42.5 34t57 56t86 93
t130.5 146q36 42 71.5 84t70.5 84q9 18 24.5 46t34.5 60.5t40.5 66.5t42.5 64t40.5 53t34.5 34zM1654 939q-22 -26 -40 -58q33 12 46.5 26.5t14.5 25t-6 13.5t-15 -7zM1990 510q10 13 25.5 33.5t30.5 43.5t28 45t18 38q-12 -14 -26 -35t-28 -43.5t-26.5 -44t-21.5 -37.5z
" />
    <glyph glyph-name="V" unicode="V" horiz-adv-x="2303" 
d="M2538 953q6 -3 4 -10q-35 -67 -86 -149t-121 -179.5t-160 -210.5t-204 -240q-39 -43 -93 -100.5t-116.5 -120.5t-130.5 -127.5t-135 -122t-129.5 -103t-114.5 -71.5q-5 -2 -8.5 0.5t-2.5 7.5q13 80 40 173.5t61 188t71 184.5t70 165q60 138 128.5 274.5t138.5 261.5
q-68 -66 -156.5 -104t-179.5 -60q-130 -31 -260 -45t-261 -28q-95 -10 -197.5 -21.5t-202 -32t-190.5 -52t-163 -80.5q-52 -35 -86 -81.5t-39 -107.5q11 3 19 -5.5t10 -20.5q1 -11 -5 -19t-15 -8q-11 0 -17.5 12t-6.5 32t7 46t23 54t41 56.5t61 52.5q73 50 165 82.5
t191.5 52.5t203 32t200.5 22q131 14 260.5 28.5t257.5 45.5q121 30 195 67t118 75.5t65.5 74t37.5 61.5q5 8 11 4t2 -10q-29 -62 -74 -158q-38 -82 -97.5 -210.5t-143.5 -309.5q-39 -86 -74.5 -168.5t-68 -165.5t-62 -168t-57.5 -176q49 24 110 69t126.5 101.5t132 120.5
t127.5 126t113.5 118t89.5 97q76 85 154.5 179.5t152.5 193.5t141 201t120 203q3 7 9 3z" />
    <glyph glyph-name="W" unicode="W" horiz-adv-x="2505" 
d="M2519 882q1 7 8.5 7t6.5 -8q-3 -47 -18 -117t-38.5 -152t-55 -169.5t-67.5 -168.5q-64 -146 -145.5 -281.5t-184.5 -257.5q-20 -25 -54.5 -64t-75.5 -75.5t-84 -62.5t-81 -26q-32 0 -53.5 18.5t-35 49t-20 71t-7.5 84.5q-2 81 9 160t28 157q16 72 30.5 120t22.5 75
q-26 -42 -57 -86t-66.5 -86t-74.5 -79.5t-79 -64.5q-28 -19 -50 -27.5t-39 -8.5q-32 0 -46.5 27.5t-13.5 79.5q1 37 9 78t19.5 82.5t25 81t27.5 74.5q40 98 93 194.5t111 179.5q-28 -6 -65 -10.5t-79 -7.5t-87 -5.5t-89 -5.5q-115 -7 -230 -12.5t-230 -15.5q-75 -6 -165 -16
t-180 -28t-172.5 -47t-142.5 -73q-40 -29 -69.5 -72.5t-37.5 -94.5q12 4 19.5 -5t7.5 -20t-6.5 -19t-15.5 -8q-11 0 -16 10t-5 27q0 18 6.5 42.5t20.5 51t35.5 52.5t51.5 48q62 45 145.5 75t174 49t181 29.5t166.5 17.5q116 10 231 17t230 12q121 6 201.5 10.5t133.5 17.5
q8 12 20 28t25.5 32t27 30t25.5 22q19 7 22.5 -6t-6 -33.5t-30.5 -43t-51 -34.5q-62 -97 -116 -203t-92 -202q-13 -33 -29.5 -75t-31.5 -86t-25 -88.5t-10 -83.5q0 -58 39 -58q28 0 75 31q34 23 78 65.5t89.5 98t87.5 120t71 131.5q4 8 11 4.5t3 -11.5q-12 -27 -23.5 -66.5
t-21 -82.5t-17 -84t-12.5 -71q-11 -78 -20.5 -155t-11.5 -155q-1 -39 1.5 -75.5t11.5 -65.5t25.5 -46.5t43.5 -17.5q34 0 74.5 24.5t79 59t72 71.5t54.5 63q64 78 118 159.5t95.5 154.5t69.5 131.5t42 91.5q17 38 36 86.5t38 102t36.5 110t32 110.5t23.5 103.5t12 89.5z
M1678 794q-12 -12 -27.5 -33.5t-24.5 -35.5q25 14 35.5 30.5t16.5 38.5z" />
    <glyph glyph-name="X" unicode="X" horiz-adv-x="2005" 
d="M2273 936q7 4 10.5 -2.5t-3.5 -10.5q-104 -57 -199 -125.5t-186 -145.5q-87 -75 -173 -159t-175 -184q13 -134 57.5 -234.5t115.5 -167.5t167 -100.5t213 -33.5q79 0 166 15q8 1 9.5 -6t-6.5 -9q-96 -15 -182 -15q-119 0 -217.5 29.5t-173 91t-122.5 157.5t-66 230
q-66 -75 -129.5 -151.5t-124.5 -155.5q-60 -77 -104 -135.5t-77 -103.5t-57.5 -79t-44.5 -62q-4 -6 -11 -2q-5 5 -1 11q66 99 133.5 196t140.5 191q66 85 133 167t139 162q-2 23 -3.5 47t-1.5 47q0 35 2.5 69.5t6.5 69.5q11 85 32 164.5t51 155.5q-47 -13 -124 -19.5
t-180 -12t-230.5 -12t-274.5 -19.5q-74 -7 -163.5 -17.5t-179.5 -29t-172.5 -48t-142.5 -73.5q-42 -31 -71 -73.5t-37 -90.5q11 3 18.5 -5.5t7.5 -20.5q0 -11 -6 -18.5t-15 -7.5q-22 0 -22 37q0 19 7 43.5t21 51t35 53t50 47.5q62 45 145.5 74.5t174 48.5t181.5 29t168 16
q176 13 311.5 20t235 12t165.5 11.5t105 20.5q3 7 8.5 21t12.5 29t14 28t12 18q17 16 30.5 7.5t13.5 -28.5q0 -19 -16 -42t-57 -41q-29 -81 -46 -164.5t-25 -168.5q-2 -27 -3 -54t-1 -54v-39t2 -39q79 86 161.5 167t173.5 156q89 73 183 140t211 126zM1657 959q-3 -3 -8 -13
t-10 -22t-9.5 -23t-5.5 -15q26 15 38 31.5t13.5 29t-4 17t-14.5 -4.5z" />
    <glyph glyph-name="Y" unicode="Y" horiz-adv-x="2028" 
d="M2048 708q4 4 9 3.5t8 -6.5t2.5 -16t-7.5 -25q-8 -16 -20.5 -36t-27 -40t-28.5 -39t-25 -33q-31 -70 -62 -155t-64 -177.5t-68.5 -188t-76 -187t-87.5 -174.5t-102 -149q-42 -51 -87.5 -88t-91 -61t-90 -35t-86.5 -11q-52 0 -96.5 16.5t-77 47.5t-50.5 74.5t-16 97.5
q1 64 27 127t75 114.5t119.5 87.5t160.5 47q14 2 33 3.5t42 1.5q37 0 79.5 -4.5t81.5 -15t70.5 -28.5t47.5 -46q37 84 68 162t58.5 152t54 145.5t56.5 142.5q-33 -40 -66.5 -79.5t-68.5 -78.5q-54 -62 -107.5 -121.5t-101.5 -106.5t-89 -76t-70 -29q-27 0 -42 29t-15 97
q0 13 0.5 26.5t1.5 28.5q4 51 17 112.5t31.5 128t42.5 134.5t50 132.5t54 122t55 102.5q-34 -8 -76.5 -13.5t-87.5 -10t-88 -8t-79 -5.5q-115 -8 -229 -13.5t-229 -15.5q-75 -7 -164 -17t-178.5 -28t-172 -47t-142.5 -73q-40 -30 -69 -73t-37 -93q12 4 19.5 -5t7.5 -21
q0 -11 -6.5 -18.5t-15.5 -7.5q-11 0 -16.5 9.5t-5.5 25.5q0 18 7 43t21.5 51t36 52.5t50.5 47.5q61 45 144 75t173 49.5t180 30t166 17.5q115 10 229 16.5t229 13.5q37 3 84.5 6t95.5 7.5t91 10t73 13.5q14 20 30.5 43t33.5 40q18 17 33.5 10t15.5 -26q0 -17 -17 -37.5
t-61 -35.5q-26 -47 -52.5 -105.5t-52 -124t-49.5 -135t-44 -137t-36 -131t-25 -116.5q-5 -29 -7.5 -51.5t-2.5 -40.5q0 -37 10 -53.5t27 -16.5q25 0 64.5 30t86.5 77t98 105.5t100 114.5q42 50 83.5 99t83.5 100q9 21 18.5 41.5t20.5 40.5q21 42 48.5 85t61.5 76zM1466 -488
q51 63 90 133t73 143q-3 1 -3 4q-12 29 -42 48t-68.5 30t-81 15.5t-78.5 4.5q-20 0 -37.5 -1t-30.5 -3q-87 -10 -155.5 -44.5t-115.5 -84t-71.5 -110t-23.5 -121.5q0 -48 16 -86.5t44 -65t66.5 -40.5t83.5 -14q39 0 81.5 11t85.5 34.5t85.5 60t81.5 86.5zM1661 922
q-10 -12 -18.5 -25t-16.5 -27q27 11 38 23.5t12.5 21.5t-4 12t-11.5 -5zM1993 587q13 17 28.5 40.5t24.5 43.5q-15 -20 -28 -40.5t-25 -43.5z" />
    <glyph glyph-name="Z" unicode="Z" horiz-adv-x="1256" 
d="M1158 892q56 20 95.5 29t65.5 9q47 0 47 -30q0 -40 -75 -118q-61 -63 -129 -116t-140 -101q-53 -36 -102 -67.5t-97.5 -60.5t-98.5 -57t-104 -57q88 32 156 47.5t119 15.5q79 0 116.5 -34.5t37.5 -99.5q0 -42 -15.5 -95t-44.5 -117q2 2 5 3t5 3q7 4 11 -2.5t-3 -10.5
l-30 -18q-47 -100 -101.5 -193t-116.5 -183q-98 -139 -196 -239t-187 -165t-164 -96t-126 -31q-41 0 -63.5 19t-22.5 55q0 31 18 72.5t56 95.5q73 100 173.5 189.5t215.5 171t238 156t241 144.5q45 85 64 145.5t19 102.5q0 63 -37.5 88t-95.5 25q-43 0 -93.5 -11t-102 -27
t-99 -35t-86 -35.5t-63 -27.5t-28.5 -11q-7 0 -8 5.5t5 8.5q149 85 294.5 173.5t286.5 186.5q24 17 60.5 43.5t75.5 55.5t75 57.5t59 49.5q38 35 56 57.5t18 35.5q0 16 -30 16q-23 0 -60.5 -9t-88.5 -26q-164 -56 -315 -134t-300 -166q-45 -27 -102 -62t-116.5 -73.5
t-114.5 -76.5t-95 -70q-10 -8 -22 -18.5t-24 -22t-23 -23t-18 -21.5q17 -5 17 -25q0 -14 -7.5 -20.5t-15.5 -6.5t-14 6t-6 17q0 15 11 33q7 11 18.5 24t24.5 25t26 23.5t23 19.5q39 32 95 70.5t116 77.5t118 74.5t102 61.5q149 87 301.5 164t315.5 136zM724 -337
q29 40 57.5 82.5t54.5 84.5t49.5 81.5t42.5 74.5q-103 -61 -221 -133t-233 -153t-217 -171t-172 -187q-35 -51 -52 -89.5t-17 -66.5q0 -29 17 -44t48 -15q43 0 109.5 30.5t150.5 95.5t181.5 166.5t201.5 243.5z" />
    <glyph glyph-name="bracketleft" unicode="[" horiz-adv-x="703" 
d="M457 634q-26 -25 -56 -83.5t-62 -134.5t-65 -161.5t-66 -164.5t-65.5 -143.5t-62.5 -97.5q28 -1 46 -1h36q6 0 6 -5.5t-5 -5.5h-16h-33.5t-63.5 -1q29 30 59 93t61.5 142t65 166.5t68.5 167.5t72 144.5t76 97.5q16 -1 33 -1h42q5 0 5 -5.5t-5 -5.5h-35.5t-34.5 -1z" />
    <glyph glyph-name="backslash" unicode="\" horiz-adv-x="545" 
d="M372 -153q5 -4 1.5 -8t-8.5 -1q-28 17 -55 70.5t-52.5 124.5t-50.5 152t-50.5 153t-51 127.5t-52.5 75.5q-5 4 -2 8t7 2q26 -15 50 -50t46 -83t42.5 -105.5t39.5 -116.5t36.5 -116.5t34.5 -104.5t33 -81t32 -47z" />
    <glyph glyph-name="bracketright" unicode="]" horiz-adv-x="706" 
d="M536 648q-17 -16 -31.5 -32.5t-32.5 -47.5t-41.5 -84t-58.5 -142q-16 -41 -35 -90t-40 -100t-43 -101t-43.5 -92.5t-42 -75t-38.5 -47.5q-21 1 -37.5 0.5t-36.5 0.5q-6 0 -6 5.5t6 5.5q17 1 34 1h34q23 25 49.5 82.5t56 132.5t62 160t66.5 164t69 144t71 101l-75 2
q-6 0 -6 5.5t6 5.5q36 1 54.5 1.5t28 0.5h15h15.5z" />
    <glyph glyph-name="asciicircum" unicode="^" horiz-adv-x="648" 
d="M306 649q8 13 22 6q5 -3 7 -9q21 -57 40 -101.5t36.5 -82t34 -71.5t31.5 -71q2 -5 -3 -7q-3 -2 -7 2q-42 71 -82 140t-70 151q-9 -13 -24.5 -35t-34 -48t-39.5 -54t-40.5 -53t-38 -45t-31.5 -30q-3 -3 -7 1q-3 4 1 8q21 20 50 60t59 85t56 87t40 67z" />
    <glyph glyph-name="underscore" unicode="_" horiz-adv-x="477" 
d="M306 -187q2 -4 -1 -7.5t-8 1.5q-8 6 -27 5.5t-44.5 -3.5t-53.5 -6.5t-52.5 -3t-43.5 7t-25 22.5q-2 4 1.5 7t8.5 -2q7 -7 26 -7.5t43.5 2.5t51.5 6.5t52 3.5t44.5 -5.5t27.5 -20.5z" />
    <glyph glyph-name="grave" unicode="`" horiz-adv-x="70" 
d="M67 633q6 -6 -1 -11q-5 -5 -10 -1q-8 5 -14.5 11t-12.5 12q-7 6 -13.5 11.5t-12.5 12.5q-5 7 1 12q5 3 10 0q8 -5 14 -10.5t13 -11.5t13.5 -12t12.5 -13z" />
    <glyph glyph-name="a" unicode="a" horiz-adv-x="353" 
d="M360 198q8 0 8 -8q0 -1 -2 -5q-17 -17 -42.5 -44t-56 -57t-64 -60t-66 -54t-61.5 -39t-50 -15q-38 0 -38 52q0 32 13 74q8 23 15.5 44.5t16.5 41.5q-5 -6 -8.5 -11t-8.5 -10q-20 -25 -35 -35.5t-26 -10.5q-10 0 -14.5 8t-4.5 21q0 20 9.5 41.5t25 39.5t35.5 30t41 12
q14 0 24 -8q5 10 13 13.5t16 3.5q12 0 12 -4q-18 -45 -40.5 -94.5t-37.5 -92.5q-16 -44 -16 -68q0 -27 21 -27q17 0 43 15t56.5 39t63 53.5t62 58t53.5 53.5t38 40q1 3 5 3zM-39 76q8 0 23 14.5t30.5 34t29.5 38t19 26.5q0 1 1 2q-4 4 -10 4q-13 0 -30 -13.5t-32 -32.5
t-25 -38t-10 -30q0 -5 4 -5z" />
    <glyph glyph-name="b" unicode="b" horiz-adv-x="439" 
d="M446 198q7 0 7 -7q0 -4 -2 -5q-88 -91 -200 -149t-243 -81q-22 -20 -50 -37.5t-51 -17.5q-11 0 -18.5 5t-7.5 12q0 11 19.5 24t70.5 21q11 11 21 21.5t15 16.5q5 5 11.5 12.5t12.5 16t10.5 17t4.5 16.5q0 11 -10 11q-7 0 -15.5 -6t-17.5 -14t-17 -16t-12 -13
q-20 -22 -36 -47q-1 -3 -6 -5t-11 -2t-10.5 2t-4.5 7q0 7 12.5 37.5t32.5 73.5t43.5 93t45 95t38.5 79.5t24 47.5q18 35 39 74.5t44 78.5t48 76t51 67q45 53 85.5 77.5t71.5 24.5q29 0 45.5 -20.5t16.5 -58.5t-14 -78t-37.5 -80t-54 -78t-63 -72t-65 -63t-60.5 -51
q-41 -32 -84.5 -59.5t-91.5 -52.5q-26 -55 -45 -97t-30 -70q21 30 56 57q20 13 35.5 7t15.5 -33q0 -20 -11 -40t-22 -35l-4 -4l-4 -4q115 23 222.5 79.5t193.5 144.5q2 2 6 2zM130 391q-25 -49 -46.5 -93.5t-40.5 -84.5q42 23 81 48t75 54q40 31 90 78t94.5 102t74.5 114
t30 114q0 64 -45 64q-24 0 -59 -24t-79 -79q-48 -62 -89.5 -135t-85.5 -158zM-97 -82q9 0 22 8t27 20q-29 -7 -42 -14t-13 -11q0 -3 6 -3z" />
    <glyph glyph-name="c" unicode="c" 
d="M-42 9q0 -34 28 -34q21 0 51 13.5t63.5 35t67.5 47.5t63.5 50.5t52.5 45t34 29.5q6 6 10.5 0.5t-0.5 -10.5q-8 -7 -29.5 -26.5t-51.5 -44.5t-66 -52.5t-72 -50.5t-70 -38t-59 -15q-51 0 -51 64q0 33 15 73.5t37.5 76t48.5 59.5t49 24q15 0 23 -10t8 -26q0 -25 -19 -47
q-5 -6 -11 -1t-1 11q16 19 16 37q0 8 -3 13t-10 5q-10 0 -23 -12.5t-27 -32.5t-27 -45t-23.5 -50.5t-17 -49t-6.5 -39.5z" />
    <glyph glyph-name="d" unicode="d" horiz-adv-x="428" 
d="M98 195q-1 -2 -1 -2.5t-1 -2.5q-13 -36 -26 -74.5t-23.5 -75t-17.5 -69t-7 -56.5q0 -23 7.5 -36.5t26.5 -13.5q25 0 58 19t69 49.5t73 68t70 74.5t59 68.5t41 50.5q3 3 6 3q8 0 8 -8q-30 -38 -68.5 -83t-80.5 -89t-85.5 -82.5t-83.5 -62.5q-45 -26 -73 -26
q-23 0 -36.5 21t-13.5 56q0 41 13.5 99t35.5 123q-8 -10 -16 -19.5t-16 -19.5q-20 -25 -35 -35.5t-26 -10.5q-9 0 -14 8t-5 21q0 20 9.5 41.5t25 39.5t35.5 30t41 12q14 0 22 -7q14 38 29.5 75.5t30.5 72t30 65t28 54.5q47 84 89 142t78 94t65 52.5t49 16.5t31 -14t11 -39
q0 -44 -33 -107q-32 -56 -76.5 -110.5t-95 -107t-104 -104t-103.5 -101.5zM468 763q-28 0 -60.5 -28.5t-67 -74.5t-68.5 -104t-64.5 -117t-55.5 -114.5t-41 -95.5q48 47 99.5 97t99.5 100.5t88 100.5t66 98q17 30 24.5 55.5t7.5 43.5t-7 28.5t-21 10.5zM-39 76q8 0 23 15
t31 34t29.5 37.5t18.5 26.5q0 1 1 2q-4 4 -10 4q-13 0 -29.5 -13.5t-31.5 -32.5t-25 -38t-10 -30q0 -5 3 -5z" />
    <glyph glyph-name="e" unicode="e" 
d="M317 196q7 6 11.5 0.5t-0.5 -10.5q-27 -24 -65.5 -54.5t-79 -60t-78 -55t-64.5 -39.5q-20 -10 -35 -14t-27 -4q-26 0 -38 17t-12 44q0 23 7.5 49.5t20.5 54.5q13 27 29 53t39 48q17 17 30.5 24t24.5 7q14 0 21 -10t7 -24q0 -15 -7 -29q-14 -26 -40 -36.5t-55 -9.5
q-5 -9 -9.5 -18.5t-8.5 -18.5q-14 -32 -22 -58.5t-8 -44.5q0 -32 27 -32q9 0 21.5 3t28.5 11q25 12 64.5 39t81 58.5t79 61.5t57.5 48zM44 208q-18 -24 -30 -46q19 0 40 6.5t32 31.5q5 10 5 20.5t-5 15t-15.5 -1t-26.5 -26.5z" />
    <glyph glyph-name="f" unicode="f" horiz-adv-x="314" 
d="M328 186q-33 -27 -73 -54t-83 -48.5t-88 -35.5t-88 -14q-8 0 -15 0.5t-15 1.5q44 -36 63 -85t19 -106q0 -47 -11 -94.5t-29 -93t-42.5 -88t-51.5 -79.5q-42 -55 -77 -85.5t-59 -30.5q-35 0 -35 68q0 43 15 110t40.5 147.5t59 169.5t71.5 176q-3 1 -3 6q0 3 2.5 5.5
t6.5 1.5q34 78 70.5 151t71 133t66 103.5t56.5 63.5q17 13 34 13q11 0 18.5 -7.5t7.5 -22.5q0 -19 -13.5 -47t-35 -61t-48 -67t-53.5 -64t-51 -53.5t-40 -33.5q-13 -28 -25.5 -57t-25.5 -59q7 -1 14 -1.5t14 -0.5q41 0 85 13.5t86 35t81 48t71 52.5h1q1 2 4 2q8 0 8 -8
q0 -4 -3 -5zM35 -156q0 54 -18.5 100.5t-60.5 81.5q-38 -91 -73 -182t-61 -171.5t-41.5 -143.5t-15.5 -98q0 -41 21 -41q18 0 48.5 29t67.5 80q26 35 50 76.5t42.5 86t29.5 91t11 91.5zM232 507q-14 0 -35.5 -24t-47.5 -65.5t-56 -98.5t-61 -123q27 23 63.5 63.5t69.5 84.5
t56 84.5t23 63.5q0 15 -12 15z" />
    <glyph glyph-name="g" unicode="g" horiz-adv-x="336" 
d="M346 201q5 0 7.5 -5.5t-2.5 -8.5q-46 -32 -89 -57t-84 -47t-80.5 -42t-78.5 -40q-29 -64 -63.5 -134.5t-72 -139t-77.5 -130.5t-80 -109t-79 -75t-75 -28q-30 0 -47 21t-17 59q0 48 31.5 118t105.5 154q45 51 88 90t84.5 70.5t82 56.5t82.5 47q17 39 32.5 73.5t27.5 63.5
q-12 -17 -25 -31q-20 -25 -35 -35.5t-26 -10.5q-10 0 -14.5 8t-4.5 21q0 20 9.5 41.5t24.5 39.5t35 30t41 12q14 0 23 -7q1 1 1 1.5t1 1.5q4 8 12 12t16 4q7 0 13 -4q-12 -29 -33 -80t-50 -115q71 37 148.5 76.5t167.5 98.5zM-38 76q8 0 23 15t30.5 34t29.5 37.5t19 26.5v2
q-3 4 -9 4q-13 0 -30 -13.5t-32 -32.5t-25 -38t-10 -30q0 -5 4 -5zM-432 -598q29 0 62 25.5t68 69t71.5 100.5t71.5 121t68 130t61 127q-39 -21 -78 -45.5t-78 -54t-78.5 -65.5t-80.5 -82q-70 -79 -101 -148t-31 -115q0 -29 11.5 -46t33.5 -17z" />
    <glyph glyph-name="h" unicode="h" horiz-adv-x="437" 
d="M441 196q6 5 10.5 -1t-1.5 -11q-54 -44 -106 -87.5t-101.5 -84t-95.5 -76t-89 -62.5q-31 -20 -52 -20q-25 0 -25 30q0 9 2.5 21t7.5 26q12 29 26 57t27 55q8 19 10.5 29.5t0.5 14t-8 2t-13 -7.5q-11 -7 -23.5 -20.5t-25.5 -28.5t-25.5 -30.5t-22.5 -25.5q-2 -2 -7 -4
t-10.5 -2t-10 2t-4.5 7q0 7 13 37.5t32.5 73.5t43 93t45.5 95t39 79.5t23 47.5q18 35 39 74.5t44.5 78.5t48 76t50.5 67q45 53 86 77.5t71 24.5q29 0 46 -20.5t17 -58.5t-14 -78t-37.5 -80t-54 -78t-63 -72t-65 -63t-60.5 -51q-42 -32 -85.5 -59.5t-91.5 -52.5
q-26 -55 -44.5 -97.5t-30.5 -70.5q16 19 34 38.5t36 31.5q15 11 29 11q26 0 26 -35q0 -17 -7 -37q-12 -31 -27.5 -58t-28.5 -54q-16 -30 -16 -41q0 -9 11 -7.5t37 15.5q32 18 72 49t88.5 71t106 88.5t123.5 101.5zM130 390q-25 -49 -46.5 -93.5t-40.5 -84.5q41 23 80 48
t76 54q40 31 90 78t94.5 102t74.5 114t30 114q0 64 -45 64q-24 0 -59 -24t-79 -79q-48 -62 -89.5 -135t-85.5 -158z" />
    <glyph glyph-name="i" unicode="i" horiz-adv-x="261" 
d="M261 195q5 5 10.5 0t0.5 -10q-24 -23 -55.5 -50t-66 -53t-68.5 -49.5t-63 -39.5q-39 -21 -62 -21q-32 0 -32 37q0 21 7.5 44.5t18.5 48.5t25 51t27 50q5 7 13 11.5t15.5 5.5t12.5 -0.5t3 -5.5q-9 -18 -24.5 -47t-30.5 -60t-26 -59.5t-11 -46.5q0 -15 14 -13t43 18
q28 16 62 39t68 49t65 52.5t54 48.5zM68 265q-5 -5 -11.5 -5.5t-12 2.5t-7.5 9.5t3 16.5t13.5 13t15 0.5t9.5 -10t-3 -17.5z" />
    <glyph glyph-name="j" unicode="j" horiz-adv-x="267" 
d="M60 265q-5 -5 -12 -5.5t-12 2.5t-7 9.5t3 16.5t13.5 13t15 0.5t9.5 -10t-3 -17.5q-1 -2 -3.5 -4.5t-3.5 -4.5zM278 201q5 0 7.5 -5.5t-2.5 -8.5q-46 -32 -89 -57t-84 -47t-80.5 -42t-78.5 -40q-29 -64 -63.5 -134.5t-72 -139t-77.5 -130.5t-80 -109t-79 -75t-75 -28
q-30 0 -47 21t-17 59q0 48 31.5 118t105.5 154q45 51 88 90t84.5 70.5t82 56.5t82.5 47q32 69 55 124t35 84q4 8 12 12t16 4q9 0 13 -4q-12 -29 -33 -80t-50 -115q71 37 149 76.5t167 98.5zM-500 -598q29 0 62 25.5t68 69t71.5 100.5t71.5 121t68 130t61 127
q-39 -21 -78 -45.5t-78 -54t-78.5 -65.5t-80.5 -82q-70 -79 -101 -148t-31 -115q0 -29 11.5 -46t33.5 -17z" />
    <glyph glyph-name="k" unicode="k" horiz-adv-x="434" 
d="M434 194q6 5 11 -0.5t0 -10.5q-35 -33 -77.5 -72.5t-88 -79.5t-92.5 -78t-90 -66q-29 -19 -50.5 -27.5t-35.5 -8.5q-18 0 -27.5 11.5t-14 30t-5 42t-0.5 47.5q1 14 -2 28t-4 17q-5 -12 -9.5 -21.5t-6.5 -15.5q-4 -8 -5 -13q-1 -3 -6 -5t-11 -2t-11 2t-5 7q0 7 13 37.5
t32.5 73.5t43 93t45.5 95t39 79.5t23 47.5q18 35 39 74.5t44.5 78.5t48 76t50.5 67q45 53 86 77.5t71 24.5q29 0 46 -20.5t17 -58.5t-14 -78t-37.5 -80t-54 -78t-63 -72t-65 -63t-60.5 -51q-42 -32 -85.5 -59.5t-91.5 -52.5q-18 -40 -33 -73t-27 -59q15 11 30.5 21.5
t32.5 17.5q18 7 30.5 5t19 -9.5t6.5 -19t-8 -24.5q-14 -23 -41.5 -31t-53.5 -5q4 -8 5.5 -15t2.5 -14q2 -20 1 -39t-1 -36q0 -18 4.5 -29.5t18.5 -11.5q11 0 28.5 7t43.5 23q36 23 83 61t94.5 80.5t91.5 83.5t75 71zM129 390q-25 -49 -46.5 -93.5t-40.5 -84.5q41 23 80 48
t76 54q40 31 90 78t94.5 102t74.5 114t30 114q0 64 -45 64q-24 0 -59 -24t-79 -79q-48 -62 -89.5 -135t-85.5 -158zM-35 35q8 3 18.5 3.5t23 3t26 7.5t27.5 17q15 14 7 20t-28 -2q-21 -7 -39.5 -20.5t-34.5 -28.5z" />
    <glyph glyph-name="l" unicode="l" horiz-adv-x="363" 
d="M481 738q-7 -36 -30.5 -81.5t-59.5 -95t-80.5 -100.5t-91.5 -99.5t-94.5 -91t-89.5 -75.5q-11 -27 -20.5 -56t-17.5 -56.5t-12.5 -52t-4.5 -42.5q0 -21 9 -33t29 -12q25 0 56 13.5t64 35.5t66 49.5t63.5 55.5t56 54t43.5 44q2 2 5 2q8 0 8 -7q0 -3 -2 -5
q-17 -18 -44 -44.5t-58.5 -55.5t-66.5 -57.5t-69.5 -51.5t-66.5 -37t-57 -14q-33 0 -47 21.5t-14 54.5t10 75.5t24 87t30.5 85.5t28.5 71q24 57 58 127.5t76.5 138t92 124.5t103.5 87q31 18 57 18q22 0 35 -14t13 -41q0 -5 -0.5 -10.5t-1.5 -11.5zM45 223q38 31 84 73t93 90
t91 99.5t78.5 100.5t55.5 93.5t21 79.5q0 37 -30 37q-21 0 -49 -18q-48 -31 -94 -88t-87 -124t-74 -136t-55 -123z" />
    <glyph glyph-name="m" unicode="m" horiz-adv-x="535" 
d="M536 195q5 5 11 0t1 -10q-44 -49 -90 -98q-39 -42 -85 -90t-88 -88q-9 -8 -20 -18.5t-22 -19.5t-21 -14.5t-18 -5.5q-14 0 -20 9.5t-6 24.5q0 23 9 52t17 49q20 51 46 106t49 102q2 2 7 12l10 20q-12 -5 -29.5 -17.5t-36.5 -28t-35.5 -30.5t-25.5 -23q-10 -9 -25 -23
t-30.5 -29.5t-29 -30.5t-20.5 -25q-5 -7 -14 -2q-4 3 -4 10t1.5 15t4 16.5t4.5 13.5t7 21.5t11 34.5q7 21 16 47q-12 -8 -30.5 -25.5t-37.5 -36.5t-34.5 -36t-21.5 -25q-10 -13 -18 -26.5t-15 -27.5q-2 -5 -6 -5t-9 2q-6 3 -7 10t1 16t6.5 19.5t7.5 20.5q3 7 11.5 28.5
t17.5 46t16.5 46t9.5 29.5q4 3 10 6t12 4.5t10 0t3 -5.5q-2 -9 -8.5 -28t-14.5 -41t-15.5 -42.5t-11.5 -31.5q7 8 20 22.5t30 32t37.5 36t43.5 34.5q5 4 11.5 -3t8.5 -14q4 -11 0.5 -26.5t-9.5 -32.5t-13.5 -33t-12.5 -26q38 37 79 73q12 10 30 26.5t38 33.5t38 30.5
t30 17.5q11 3 15.5 -3t4.5 -15.5t-3 -21.5t-7 -22q-20 -51 -44 -99t-50 -108q-17 -38 -24 -61.5t-7 -34.5q0 -19 19.5 -6t54.5 46q24 23 58 58t70 74t71 77t61 67z" />
    <glyph glyph-name="n" unicode="n" horiz-adv-x="353" 
d="M356 197q5 6 11 2.5t1 -9.5q-14 -16 -42.5 -49.5t-62.5 -73.5t-68.5 -79.5t-61.5 -67.5q-66 -69 -97 -69q-21 0 -21 34q0 22 9.5 58.5t29.5 90.5q6 14 11 26t11 25.5t13.5 30t18.5 39.5l6.5 13t6.5 12q-9 -5 -18.5 -13t-17.5 -16q-20 -20 -43.5 -47.5t-44.5 -53.5
q-25 -30 -49 -62q-5 -1 -9 0t-6.5 5t-2.5 13t4 24q1 3 9.5 27t20.5 54.5t23.5 60t18.5 43.5q2 2 7 3.5t10 2t8.5 -1t3.5 -5.5q-2 -15 -17.5 -56.5t-45.5 -115.5q41 48 64 74.5t40 43.5q41 42 59 42q11 0 12 -15.5t-10 -43.5q-16 -35 -27 -61q-5 -11 -9.5 -22.5t-8.5 -19.5
q-4 -11 -8 -19q-23 -52 -36 -88t-13 -53q0 -20 20.5 -9t67.5 59q15 16 31 34t41 46.5t63 73t98 113.5z" />
    <glyph glyph-name="o" unicode="o" horiz-adv-x="319" 
d="M332 194q4 -6 -1 -11q-56 -44 -123 -73q-32 -14 -66 -23t-69 -11q-9 -14 -18.5 -27t-20.5 -25q-16 -17 -31.5 -25t-28.5 -8q-22 0 -33.5 20t-6.5 57q3 18 9 34.5t14 32.5q-2 9 -1 14q1 25 11 45.5t25.5 34t33.5 21t35 7.5q23 0 39 -14.5t16 -45.5q0 -20 -7.5 -46
t-26.5 -59q31 3 61 11.5t59 20.5q32 14 62 31.5t57 39.5q6 4 11 -1zM0 198q10 3 21.5 -4t3.5 -17q-26 -26 -42 -63q8 -10 19 -14q14 -6 30 -8t33 -2q20 35 28 61t8 44q0 25 -12.5 36.5t-29.5 11.5q-12 0 -25.5 -5.5t-25.5 -15.5t-21.5 -25t-13.5 -33q12 20 27 34zM24 33
q17 18 31 42q-15 0 -30 2.5t-29 8.5q-12 5 -20 12l-6 -18t-5 -18q-6 -25 -1.5 -39.5t18.5 -14.5q17 0 42 25z" />
    <glyph glyph-name="p" unicode="p" horiz-adv-x="397" 
d="M401 197q6 5 11 -0.5t-1 -10.5q-47 -41 -98 -67.5t-114 -40.5q-31 -7 -56.5 -10.5t-46.5 -6.5q-12 -11 -25.5 -20.5t-29.5 -17.5q-15 -8 -30 -12q-18 -5 -28.5 0t-10.5 15q0 14 19 26q14 9 30 12.5t39 5.5q15 14 28 28t21 24q11 14 19 27.5t8 21.5q0 11 -17.5 7.5
t-62.5 -35.5l-36 -28t-37 -28q-37 -82 -75 -164.5t-79 -161.5q-54 -105 -102.5 -177.5t-90.5 -117t-76 -64.5t-59 -20q-29 0 -44 22.5t-15 60.5q0 26 7.5 56t23.5 64q23 47 59.5 95.5t80 96t90.5 92.5t91.5 84t83 70t64.5 51q14 32 29 64t29 64q3 6 10.5 11t15 7t12 -0.5
t1.5 -10.5q-11 -23 -21.5 -47t-21.5 -48q13 11 26 20.5t27 19.5q30 21 51 30.5t34 9.5q12 0 18 -7.5t6 -18.5q0 -28 -25 -64q-9 -15 -21 -27q17 2 38 5.5t46 9.5q63 14 110.5 39t94.5 66zM-200 -224q34 66 65.5 133t62.5 135q-29 -23 -67.5 -55t-81 -69.5t-86 -79.5t-83 -86
t-72 -88.5t-52.5 -86.5q-30 -65 -30 -114q0 -29 10.5 -46.5t31.5 -17.5q20 0 49.5 19.5t68 63.5t84.5 116t100 176zM5 28q8 4 17.5 11t20.5 16q-28 -5 -45 -16q-14 -9 -10.5 -12.5t17.5 1.5z" />
    <glyph glyph-name="q" unicode="q" horiz-adv-x="338" 
d="M342 196q5 5 10 -0.5t0 -10.5q-50 -48 -99 -85t-94 -63.5t-84.5 -41.5t-69.5 -19q-1 -2 -2 -4.5t-2 -5.5q46 -39 65.5 -89t19.5 -104q0 -63 -21.5 -126t-53.5 -117t-69.5 -93t-70.5 -53q-36 -14 -50 4.5t-14 54.5q0 22 4 48.5t10.5 54t14 54.5t14.5 50q20 69 50.5 151
t66.5 172l-9 6q-6 4 -3 10t9 4t11 -2q14 34 29 68t31 69l-17 -21q-20 -25 -35.5 -35.5t-25.5 -10.5t-15 8t-5 21q0 20 9.5 41.5t25 39.5t35.5 30t41 12q12 0 23 -7l7 14q2 4 10 7.5t15.5 4.5t11.5 -2t-1 -12q-26 -54 -52 -111t-50 -114q27 5 62.5 19t78 38.5t90.5 60.5
t99 85zM-134 -602q31 13 67 50.5t66.5 89t51 113t20.5 121.5q0 51 -17 97t-59 83q-35 -85 -64.5 -165t-49.5 -146q-27 -91 -39 -142.5t-12 -76.5q0 -24 9.5 -27.5t26.5 3.5zM-38 76q7 0 21 13t29 31t28.5 36.5t20.5 28.5l3 6q-3 4 -9 4q-13 0 -29.5 -13.5t-31.5 -32.5
t-25 -38t-10 -30q0 -5 3 -5z" />
    <glyph glyph-name="r" unicode="r" horiz-adv-x="366" 
d="M365 195q5 5 11 0t1 -11h-1q-68 -72 -137 -145t-128 -127q-42 -37 -69.5 -51t-41 -9t-15 27t7.5 57q11 41 32.5 85t41.5 79q-47 32 -69 74t-26 83.5t7.5 77.5t31.5 57q15 15 32.5 20t32.5 0.5t25 -18t9 -36.5q-1 -22 -9.5 -44t-21 -43.5t-28.5 -41t-32 -35.5
q25 -48 75 -77q12 -9 5 -21q-6 -10 -16.5 -30t-21.5 -44t-21 -49.5t-17 -45.5q-18 -57 1.5 -56t76.5 52q71 63 135.5 132t128.5 140zM26 379q-11 -13 -18 -33.5t-9 -44t1 -48t12 -45.5q45 43 63.5 84t19.5 67q1 18 -6.5 27.5t-18 12t-23 -2.5t-21.5 -17z" />
    <glyph glyph-name="s" unicode="s" horiz-adv-x="324" 
d="M330 196q6 4 10 -2.5t-3 -10.5q-83 -48 -155.5 -79t-132.5 -59q2 -23 -2 -49t-18 -54q-29 -53 -62.5 -75t-60.5 -22q-23 0 -37 12.5t-14 33.5q0 23 20.5 53t69.5 62q16 11 34 20.5t38 19.5q-2 30 -10 57.5t-11 53.5q-3 23 3 41.5t16 31t22 19.5t22 7q11 0 17 -7.5
t4 -23.5q-1 -8 -8.5 -7t-6.5 8q2 13 -6.5 14t-18 -8.5t-16.5 -28t-3 -43.5q4 -20 12.5 -45t13.5 -55q62 29 134.5 60.5t148.5 75.5zM1 -44q17 38 17 75q-18 -9 -34.5 -18t-31.5 -19q-45 -29 -63 -55t-18 -45q0 -14 8 -22t22 -8q20 0 47.5 21t52.5 71z" />
    <glyph glyph-name="t" unicode="t" horiz-adv-x="361" 
d="M38 207q-11 -27 -19.5 -51.5t-15.5 -46.5q-16 -55 -26 -100t-10 -76q0 -52 34 -52q15 0 38.5 10.5t55.5 33.5q33 25 69 58.5t71.5 70t68.5 73t60 68.5q5 5 11 0.5t1 -10.5q-29 -33 -62 -69.5t-68.5 -72.5t-72 -69t-71.5 -59q-72 -54 -112 -54q-26 0 -38 21.5t-12 60.5
q0 33 8 77t23 98q9 31 24.5 72t36 87t44.5 94t50 95q-59 0 -110.5 -1.5t-90 -4.5t-59.5 -9.5t-19 -17.5t-6 -12.5t-10 9.5q-4 18 20 29.5t66.5 18.5t100.5 10t123 4q35 60 69.5 110.5t65.5 80.5q23 20 37 20q10 0 14 -8.5t2 -22.5q-7 -27 -32 -75t-60 -105h113q61 0 115.5 1
t95.5 4t65.5 9t24.5 17q0 10 7.5 9.5t6.5 -10.5q-3 -20 -42.5 -31t-102.5 -16.5t-141.5 -7t-157.5 -1.5q-24 -37 -49 -74t-49 -71t-46 -63.5t-39 -50.5zM288 671q-17 -19 -47.5 -67t-65.5 -112h45q35 58 61.5 107t32.5 76q4 16 -5.5 12t-20.5 -16zM161 466q-26 -49 -52 -102
t-49 -105q32 42 70 96.5t74 110.5h-43z" />
    <glyph glyph-name="u" unicode="u" horiz-adv-x="395" 
d="M401 198q8 0 8 -8q0 -1 -2 -5q-17 -17 -42.5 -44t-56.5 -57t-64.5 -60t-65.5 -54t-61 -39t-50 -15q-39 0 -39 52q0 29 14 74q4 13 8 25t9 23l-10 -12t-10 -11q-36 -39 -61 -39q-19 0 -19 28q0 14 4.5 32.5t11 38t13.5 38.5t12 34q2 5 11 9t17 4t8 -5q-4 -12 -12 -33
t-16 -43t-14 -42t-6 -31q0 -10 5 -10q10 0 36 28q13 15 31.5 42.5t38.5 62.5l11 22q5 11 13.5 15t16.5 4q13 0 13 -4q-19 -45 -41 -94.5t-37 -92.5q-16 -44 -16 -68q0 -27 21 -27q17 0 43 15t56.5 39t63 53.5t62 58t53.5 53.5t38 40q1 3 5 3z" />
    <glyph glyph-name="v" unicode="v" horiz-adv-x="398" 
d="M400 196q6 5 10 -1.5t-2 -10.5q-23 -15 -48.5 -29t-53 -25t-55.5 -18t-55 -7q-15 0 -30 3q-18 3 -29 10q-14 -22 -28 -41t-26 -34q-39 -46 -64.5 -65t-44.5 -19q-15 0 -22 14.5t-7 39.5q0 38 15 89.5t42 101.5q3 6 10.5 9t14.5 3.5t11.5 -2.5t1.5 -10q-31 -64 -47 -117
t-16 -82q0 -26 12 -26q14 0 37.5 22t46.5 51q11 14 25 33t27 40q-10 8 -14 19t-4 22q0 24 15 47q9 14 17.5 20t16.5 6q20 0 20 -28q-2 -18 -10.5 -39t-21.5 -42q5 -2 11 -4t14 -4q28 -5 58.5 0.5t61 16.5t59 26.5t52.5 30.5zM135 205q-5 -9 -9 -19t-4 -20q0 -16 11 -27
q11 20 18.5 38.5t9.5 34.5q0 8 -2.5 10.5t-6.5 1t-8.5 -6.5t-8.5 -12z" />
    <glyph glyph-name="w" unicode="w" horiz-adv-x="515" 
d="M519 196q6 5 10 -1.5t-2 -10.5q-26 -17 -53 -33.5t-56 -30.5q-34 -16 -62 -23t-51 -7q-20 0 -35.5 4.5t-27.5 12.5q-13 -33 -31 -64t-37.5 -56t-39 -40t-36.5 -15q-23 0 -32 23t-9 58q0 45 11 92q-8 -11 -15 -20.5t-15 -17.5q-36 -39 -61 -39q-19 0 -19 28q0 14 4.5 32.5
t10.5 38t13 38.5t13 34q2 5 11 9t16 4q8 0 8 -5q-3 -12 -11 -33t-16.5 -43t-14.5 -42t-6 -31q0 -10 6 -10q9 0 35 28q11 12 26 35t32 50q2 3 8.5 7t13 5.5t10.5 -1.5t1 -13q-14 -43 -20.5 -80.5t-6.5 -65.5q0 -26 5.5 -41t16.5 -15q12 0 27.5 14t32 36.5t32 51t26.5 57.5
q-11 11 -17 25t-6 29q0 7 2 17.5t6.5 20t11 16t16.5 6.5q8 0 14.5 -8.5t6.5 -26.5q0 -17 -5.5 -37t-11.5 -37q21 -16 56 -16q44 0 108 29q28 14 54.5 29.5t52.5 32.5zM237 132q5 14 9.5 30.5t4.5 35.5q0 13 -4.5 15.5t-9.5 -3t-9.5 -16.5t-4.5 -24q0 -21 14 -38z" />
    <glyph glyph-name="x" unicode="x" horiz-adv-x="492" 
d="M494 195q5 5 10.5 0t0.5 -10q-36 -39 -78.5 -83t-88.5 -86.5t-93 -80.5t-93 -65q-26 -15 -46 -21.5t-40 -6.5q-34 0 -52 27t-18 77q0 7 0.5 14.5t1.5 15.5l3 28q-23 -25 -44.5 -50.5t-41.5 -51.5q-38 -49 -66 -89t-50 -78q-5 -6 -11.5 -2.5t-1.5 10.5q23 38 51 78t66 90
q45 57 100 117q6 72 6 104q0 24 -1.5 34.5t-3.5 13.5q-6 1 -6.5 7t1.5 12t7.5 10t11.5 1q13 -5 18.5 -26t5.5 -56q0 -28 -3 -62q38 39 76.5 74t72 61t59.5 40t41 11q12 -3 17 -11q4 -6 -2 -10.5t-11 2.5q-3 2 -7 4q-11 2 -36 -12t-58.5 -40.5t-73 -63t-79.5 -78.5l-7 -70
q-1 -11 -1.5 -20.5t-0.5 -17.5q0 -39 12 -57t38 -18q16 0 31 5.5t35 16.5q41 23 89 62t95 83t90 88.5t75 79.5z" />
    <glyph glyph-name="y" unicode="y" horiz-adv-x="381" 
d="M386 196q6 5 10 -1.5t-2 -10.5q-95 -63 -177.5 -104.5t-158.5 -80.5q-41 -93 -81 -176.5t-79.5 -154t-78.5 -126t-78 -92.5q-35 -35 -66 -50.5t-56 -15.5q-29 0 -47 21t-18 59q0 32 14 75t45 94q25 40 59 81t72.5 79t79.5 72t81 61q28 19 55 35.5t56 31.5l44 98
q-5 -7 -10 -13t-10 -11q-36 -39 -61 -39q-19 0 -19 28q0 14 4.5 32.5t10.5 38t13 38.5t13 34q2 5 11 9t17 4q7 0 7 -5q-3 -12 -11 -33t-16.5 -43t-14.5 -42t-6 -31q0 -10 6 -10q10 0 36 28q13 15 31.5 42.5t38.5 62.5l6 12q2 5 9 8t14 4t11.5 -1.5t1.5 -8.5l-74 -174
q72 37 150.5 76.5t167.5 98.5zM-278 -531q36 39 72 94.5t72 121t71 138.5t69 147q-23 -13 -46 -26.5t-46 -29.5q-39 -26 -79.5 -59.5t-79 -71t-72 -78t-58.5 -80.5q-29 -48 -42.5 -89.5t-13.5 -71.5q0 -29 12 -45.5t33 -16.5q20 0 47 16t61 51z" />
    <glyph glyph-name="z" unicode="z" horiz-adv-x="480" 
d="M483 197q7 3 10 -3.5t-4 -10.5q-75 -36 -163.5 -89t-173.5 -109q5 -20 5 -42q0 -20 -4 -43t-14 -49q-24 -63 -67 -125.5t-88 -114.5q-29 -32 -61.5 -63.5t-69 -60t-75.5 -51.5t-80 -36q-32 -9 -58 -9q-32 0 -50 13.5t-18 41.5q0 30 25 75.5t82 106.5q70 74 155.5 144
t167.5 129q8 6 42.5 30t86.5 58q-6 21 -18 34t-27 20t-30.5 8t-27.5 -2q-7 -2 -9.5 4.5t8.5 21.5q5 6 12.5 13t20 17.5t32 25.5t47.5 38q23 20 23 34q0 11 -12.5 15.5t-31.5 4.5q-15 0 -32.5 -3t-34 -9.5t-31 -16t-23.5 -21.5q-5 -6 -11 -1.5t-1 10.5q10 13 25.5 23.5
t33.5 18t37 11t35 3.5q26 0 43.5 -9.5t17.5 -27.5q0 -20 -23 -47q-11 -12 -26 -24t-30.5 -23.5t-30 -21.5t-23.5 -18q34 0 61.5 -17t41.5 -50q35 23 76 49t84.5 52t88 50.5t87.5 45.5zM111 -137q15 35 19.5 62.5t2.5 47.5q-32 -22 -63 -43t-59 -41q-41 -29 -83.5 -61.5
t-84.5 -67t-81 -70.5t-73 -72q-55 -60 -78.5 -102t-23.5 -68q0 -39 44 -39q12 0 27 3t32 10q37 15 74.5 38.5t72 52t65.5 59.5t57 61q19 22 40.5 49t41.5 57t38 61.5t32 62.5z" />
    <glyph glyph-name="braceleft" unicode="{" horiz-adv-x="626" 
d="M99 241q28 -13 39 -36.5t10.5 -53.5t-9 -63.5t-18.5 -67t-19.5 -64.5t-11.5 -54.5t6 -37.5t33 -15q7 0 6.5 -6.5t-6.5 -6.5q-29 2 -42.5 19.5t-16 43.5t3 57t14 61t17.5 55.5t13 40.5q9 34 7 58t-11 39t-24 21t-32 4q-4 -1 -5.5 1t-1.5 4.5t2 5t5 2.5q17 -2 34.5 4
t31.5 14q34 20 60.5 56t49.5 77.5t44.5 84.5t46 78.5t54.5 59t70 25.5q7 0 7 -6.5t-6 -6.5q-22 0 -41.5 -12.5t-36.5 -32.5t-31.5 -44.5t-26 -48t-20.5 -44t-14 -32.5q-14 -30 -32 -58.5t-40.5 -52.5t-49.5 -41.5t-59 -26.5z" />
    <glyph glyph-name="bar" unicode="|" horiz-adv-x="659" 
d="M480 663q5 4 8 0t-1 -8q-30 -30 -63 -96t-67.5 -150.5t-70.5 -178t-73.5 -177t-76 -148t-76.5 -91.5q-5 -3 -8.5 1t1.5 8q31 27 64 91.5t68 148.5t71 177t73.5 177.5t75 150.5t75.5 95z" />
    <glyph glyph-name="braceright" unicode="}" horiz-adv-x="632" 
d="M455 248q4 1 5.5 -1t1 -5t-2.5 -5t-5 -2q-17 2 -34 -3.5t-32 -14.5q-35 -20 -62 -56t-50 -77.5t-45 -84.5t-47 -78.5t-56 -59t-71 -25.5q-7 0 -7 6.5t6 6.5q33 0 61.5 27t50.5 62.5t37.5 71t23.5 53.5q15 30 33.5 58.5t41 52.5t50 41.5t59.5 26.5q-29 13 -40.5 37
t-11 53.5t9.5 63.5t20 67.5t20.5 64t12 54t-6.5 38t-35 14.5q-7 0 -6.5 7t7.5 6q29 -2 42.5 -19.5t16.5 -43t-3 -56.5t-14.5 -61.5t-18 -56t-13.5 -40.5q-9 -34 -7 -58t11.5 -39t24.5 -21t33 -4z" />
    <glyph glyph-name="asciitilde" unicode="~" horiz-adv-x="469" 
d="M297 179q2 -2 1 -5q-7 -19 -20 -31q-17 -13 -38 -11t-43.5 10.5t-45 18t-41.5 10.5q-30 3 -53 -26q-1 -3 -5 -1q-3 1 -1 5q8 18 23.5 29t35.5 12q22 0 44.5 -8t43.5 -17t39.5 -13.5t32.5 3.5q10 7 22 23q2 2 5 1z" />
    <glyph glyph-name="exclamdown" unicode="&#xa1;" horiz-adv-x="563" 
d="M343 408q4 4 8 0.5t1 -8.5q-17 -21 -37 -66t-42.5 -103t-47 -122t-51.5 -123.5t-55.5 -108t-58.5 -74.5q-4 -3 -7.5 0.5t-0.5 7.5q21 23 43.5 69t45.5 103.5t47.5 121t50 122t51.5 106.5t53 75zM358 456q3 8 9.5 12.5t13 5.5t10.5 -2.5t1 -11.5t-9.5 -12.5t-13 -5.5
t-10.5 2.5t-1 11.5z" />
    <glyph glyph-name="cent" unicode="&#xa2;" horiz-adv-x="570" 
d="M306 41q-15 -11 -37.5 -25t-47.5 -27t-48.5 -22t-40.5 -8q-15 -20 -34 -41t-42 -31q-3 -2 -5 1t1 5q20 12 34.5 31t28.5 39q-22 10 -25.5 35.5t6.5 58t31.5 69t49.5 68t61 54.5t66 29q8 12 18.5 26t22 27.5t24 25t25.5 17.5q3 2 4.5 -1t-0.5 -5q-21 -14 -40 -40t-33 -49
q13 -2 18.5 -10.5t4 -19.5t-10 -22t-22.5 -19q-2 -2 -3.5 0.5t1.5 4.5q11 5 18 15t8.5 19t-3.5 15t-18 5q-50 -83 -89.5 -154.5t-85.5 -135.5q18 -2 39.5 5t43.5 18t42 24t34 24q3 2 5 -1t-1 -5zM290 256q-22 -12 -45.5 -34.5t-45.5 -50.5t-40 -58t-29 -56.5t-12.5 -47
t9.5 -28.5q19 29 39 64t40.5 71.5t41.5 72t42 67.5z" />
    <glyph glyph-name="sterling" unicode="&#xa3;" horiz-adv-x="962" 
d="M783 -23q2 4 6 3t2 -6q-27 -48 -65 -76.5t-84 -42t-97.5 -13t-104.5 10.5q-52 10 -103.5 29.5t-95.5 44.5q-19 -26 -40 -45q-35 -33 -62.5 -42.5t-47 -3t-30.5 24t-11 38t10.5 41t33 32t58 10.5t84.5 -23q26 40 46 83t39 87q-24 -5 -46.5 -7.5t-37.5 1.5t-20.5 15t4.5 34
q2 3 5 1.5t2 -4.5q-9 -29 13.5 -31t89.5 15l37 86q-16 -8 -32 -14.5t-33 -10.5q-28 -7 -49 -1q-6 1 -4 5.5t8 4.5q14 -3 30 -0.5t31.5 8.5t30.5 14t27 16q13 30 24.5 57.5t24.5 57t29 63.5t38 78q31 62 59.5 94.5t51 42t37 -1t17.5 -35.5t-6 -61.5t-34 -78.5
q-19 -32 -43.5 -62.5t-52 -58t-56.5 -51.5t-58 -43l-45 -102q24 5 49 9t44.5 1.5t29.5 -14t4 -35.5q-1 -3 -4.5 -2.5t-2.5 4.5q2 19 -9 25.5t-30 5.5t-43 -7t-48 -11q-22 -49 -44 -95.5t-52 -91.5q45 -21 94 -39t100 -32t100 -18t93 6.5t79.5 37t59.5 73.5zM514 512
q-12 -29 -22 -54t-21 -50.5t-23.5 -53.5t-27.5 -63q56 43 103 93t80 100q26 41 36.5 75t8.5 56.5t-14.5 30.5t-31 -2.5t-42 -42.5t-46.5 -89zM187 -104q9 10 17.5 20.5t16.5 21.5q-42 22 -73 25.5t-50.5 -5t-29.5 -25t-10 -33.5t8.5 -31.5t25 -18.5t40.5 5.5t55 40.5z" />
    <glyph glyph-name="currency" unicode="&#xa4;" horiz-adv-x="596" 
d="M409 576q4 3 8 1.5t6.5 -4.5t2 -7.5t-4.5 -7.5l-44 -32q8 -22 5.5 -45t-12.5 -45t-25.5 -41.5t-33.5 -34.5l22 -30q3 -4 2 -8t-4.5 -6.5t-8 -2.5t-7.5 5l-21 29q-22 -15 -46.5 -25t-49 -12t-47 4t-39.5 24l-45 -31q-5 -3 -9 -2t-6 4t-2 7.5t5 7.5l44 32q-12 22 -11.5 46
t9.5 47.5t25 44.5t36 37l-15 21q-3 4 -2 8t4.5 6.5t8 2t7.5 -4.5l15 -20q22 15 48.5 24.5t52.5 11.5t49 -5.5t39 -27.5q1 -1 1 -2zM296 376q27 22 42 45t20.5 44t2.5 38.5t-13 29.5q-18 21 -44.5 23t-54.5 -10t-54 -34t-43.5 -48.5t-22.5 -53t9 -47.5q10 -14 27.5 -20.5
t39 -4.5t45 11.5t46.5 26.5z" />
    <glyph glyph-name="yen" unicode="&#xa5;" horiz-adv-x="1096" 
d="M630 539q48 63 97 92t90 31t70 -17.5t38 -52.5q2 -4 -2.5 -6t-5.5 2q-9 34 -36.5 50.5t-66 11t-82.5 -34.5t-84 -87q-45 -64 -86 -147.5t-88 -181.5q-17 -36 -35 -72t-38 -72h18.5t22.5 -1.5t20 -5t13 -9.5q2 -3 -0.5 -5t-6.5 1t-14.5 3.5t-23 -0.5t-24 -2.5t-16.5 -1.5
q-7 -11 -12.5 -20t-11.5 -19h21.5t25.5 -1.5t22.5 -6t12.5 -13.5q1 -3 -2 -4.5t-5 1.5q-4 5 -14 6.5t-23.5 0.5t-27.5 -2.5t-26 -2.5q-18 -26 -38 -49.5t-47 -43.5q-47 -35 -94 -44.5t-78.5 6t-40.5 55.5t18 105q2 5 6.5 4t2.5 -6q-26 -62 -17 -99t38.5 -50t72.5 -2.5
t84 43.5q23 18 39.5 37.5t31.5 41.5q-10 -1 -27 -1.5t-34 1t-30 6.5t-14 16q-1 3 2 4t5 -1q4 -6 17 -7.5t30 -1t35 3t31 3.5q6 9 11.5 18.5t10.5 19.5q-10 -1 -28.5 -2t-37 -0.5t-34 5t-18.5 13.5q-1 2 1.5 4t4.5 0q8 -9 37 -5.5t87 7.5q22 42 45 92t47 103q-26 -28 -55 -54
t-55 -48q-45 -37 -74.5 -52t-46.5 -14.5t-24 13t-7 30.5t5 39t12 38q30 77 64 143t54 121q16 48 17.5 77.5t-8.5 44t-29.5 14.5t-45.5 -10q-8 -3 -9.5 3t6.5 9q29 10 53 7.5t38 -19t16 -48.5t-11 -81q-5 -17 -12 -34t-20 -44.5t-34.5 -71.5t-55.5 -116q-19 -44 -22.5 -70.5
t9 -33.5t43 7t78.5 53q29 23 61.5 54t61.5 63q32 68 69.5 139t82.5 131z" />
    <glyph glyph-name="brokenbar" unicode="&#xa6;" horiz-adv-x="658" 
d="M487 662q2 -3 -2 -7q-21 -20 -36 -45.5t-29 -51.5q-13 -26 -25 -52.5t-23 -53.5q-17 -40 -32.5 -79t-31.5 -79h-29q17 42 34 82t36 81q13 27 26.5 54t28.5 53q14 25 33 52q9 13 19 24.5t24 22.5q4 2 7 -1zM170 24q20 48 39 96.5t39 97.5h29q-20 -51 -41 -100.5t-44 -99.5
q-13 -27 -26.5 -54t-28.5 -53q-8 -13 -16.5 -25.5t-17.5 -25.5q-10 -12 -20.5 -24t-24.5 -21q-5 -4 -7 1q-1 3 2 6q22 20 37.5 45t29.5 51t26 52.5t24 53.5z" />
    <glyph glyph-name="section" unicode="&#xa7;" horiz-adv-x="664" 
d="M247 378q10 36 35 62t55 41t61.5 19t55 -4.5t34.5 -30t1 -56.5q-2 -6 -7 -4q-6 2 -4 7q13 34 -1 55t-43 24.5t-65 -12.5t-66 -56q-29 -39 -29 -64.5t15.5 -44.5t40 -35.5t43.5 -36.5t26.5 -47.5t-10.5 -69.5q-6 -14 -14.5 -27t-17 -24t-15 -18.5t-9.5 -8.5
q-12 -39 -38 -68t-58 -46.5t-66 -23t-61.5 2.5t-44.5 30t-14 60q3 29 15.5 54.5t31.5 46.5q3 5 7.5 1.5t0.5 -8.5q-19 -20 -31 -44.5t-14 -50.5q-2 -41 22.5 -59t60.5 -14t75.5 28t66.5 66q21 32 25 55t-2.5 40t-21 30t-31.5 25t-33 24.5t-25 28.5q-14 22 -11 47t13.5 47.5
t24.5 38.5t22 20zM377 130q12 34 5.5 56t-22.5 37t-37.5 26.5t-40.5 26t-30.5 34t-7.5 51.5q-18 -16 -30.5 -36.5t-15.5 -43.5q-4 -30 12 -49t39 -33q17 -11 35 -22t31.5 -25.5t20 -35t1.5 -50.5q28 28 40 64z" />
    <glyph glyph-name="dieresis" unicode="&#xa8;" horiz-adv-x="114" 
d="M0 635q0 9 5.5 14t12 6t12 -3t5.5 -13t-5.5 -14t-12 -5.5t-12 3t-5.5 12.5zM79 635q0 9 5.5 14t12 6t12 -3t5.5 -13t-5.5 -14t-12 -5.5t-12 3t-5.5 12.5z" />
    <glyph glyph-name="copyright" unicode="&#xa9;" horiz-adv-x="588" 
d="M270 565q43 7 75.5 -4t51 -34t21 -57t-13.5 -74q-12 -30 -33 -57t-47.5 -48.5t-56.5 -37t-61 -21.5q-43 -9 -77 1t-54 34t-24.5 59.5t12.5 78.5q28 64 84 106t123 54zM391 401q15 38 11.5 68t-21 49.5t-46 26.5t-62.5 0q-30 -6 -57.5 -20.5t-51 -35t-41.5 -45.5t-30 -52
q-14 -33 -12.5 -61.5t16.5 -48t42 -28.5t63 -3q30 6 59 19.5t53.5 33t44.5 44t32 53.5zM158 399q20 49 51.5 74.5t60.5 31.5t49 -5.5t16 -35.5q-1 -5 -6 -5t-5 5q-2 18 -18.5 21.5t-38 -6.5t-43.5 -33t-35 -58q-14 -35 -4.5 -50.5t28.5 -15.5t42 13t38 33q3 5 7.5 2.5
t2.5 -7.5q-8 -24 -26 -39.5t-38 -22.5t-40 -5t-33 14t-17 34t9 55z" />
    <glyph glyph-name="guillemotleft" unicode="&#xab;" horiz-adv-x="728" 
d="M112 213q57 -26 98.5 -57.5t72.5 -55.5q4 -2 1 -7q-4 -4 -7 -2q-24 12 -43.5 23.5t-42.5 24t-53.5 27t-75.5 32.5q-12 5 -11.5 16t11.5 14q81 25 159 53.5t156 62.5q5 2 7 -3t-3 -7q-37 -20 -75 -38.5t-77 -35.5q-29 -13 -58 -24.5t-59 -22.5zM550 344q5 2 7 -3t-3 -7
q-25 -13 -55.5 -28.5t-64.5 -31t-71 -30.5t-76 -27q44 -24 89 -54t80 -63q5 -4 1 -8t-7 0q-51 35 -104 63.5t-109 51.5q-11 5 -10 16t12 14q70 21 113 36t74.5 26.5t58.5 22t65 22.5z" />
    <glyph glyph-name="logicalnot" unicode="&#xac;" horiz-adv-x="571" 
d="M386 308q6 4 11.5 -0.5t2.5 -11.5q-3 -6 -10.5 -23t-16.5 -37.5t-18 -41.5l-15 -35q-2 -5 -8 -3q-5 2 -3 7q4 10 8 20.5t9 23.5t11.5 30.5t15.5 41.5q-35 -13 -80 -11.5t-89 6.5t-83 8t-61 -8q-5 -2 -8 2t1 7q15 13 40 18t58 5.5t73 -2.5t85 -6q20 -1 40.5 -1t36.5 11z
" />
    <glyph glyph-name="registered" unicode="&#xae;" horiz-adv-x="590" 
d="M271 565q43 7 75.5 -4t51 -34t21.5 -57t-13 -74q-24 -58 -64.5 -95t-85.5 -54.5t-88.5 -16t-73.5 21.5t-40.5 58.5t11.5 94.5q28 64 84 106t122 54zM392 401q15 37 11.5 67t-20.5 49.5t-45 27t-63 0.5q-30 -6 -58 -20.5t-51 -35t-41 -45.5t-30 -52q-20 -47 -12 -78.5
t34 -47.5t64 -15.5t78 17.5t75.5 50t57.5 83zM243 503q32 4 51.5 -1t28.5 -15t9.5 -24t-5.5 -29q-10 -28 -39 -46t-57 -18q1 -8 2 -18.5t3.5 -19.5t6.5 -16t12 -7q6 -1 12 1.5t11 7.5t8 0q3 -3 0.5 -6.5t-8 -7t-12.5 -6t-11 -2.5q-13 0 -20.5 8.5t-12.5 22t-8 29.5l-6 32
q-5 -12 -11 -25.5t-14 -27t-17 -25t-20 -17.5q-4 -2 -6.5 0.5t-0.5 6.5q4 7 11 24.5t15 39.5t18 46.5t20 44.5t20 33.5t20 14.5zM297 446q11 32 -4.5 41.5t-45.5 3.5q-3 -5 -8 -19t-11 -29.5t-11 -30.5t-8 -22q32 -2 53 12.5t35 43.5z" />
    <glyph glyph-name="macron" unicode="&#xaf;" horiz-adv-x="99" 
d="M92 638q7 0 7 -8q0 -6 -7 -8q-11 -1 -21 -1h-21t-21 -0.5t-21 1.5q-3 1 -5.5 3.5t-1.5 5.5q0 7 7 7q11 2 21 2h21h21t21 -2z" />
    <glyph glyph-name="degree" unicode="&#xb0;" horiz-adv-x="340" 
d="M59 498q14 24 37.5 33t42.5 5t28 -20.5t-6 -43.5q-11 -19 -27 -29q-21 -15 -39 -15t-29.5 9.5t-14.5 26t8 34.5zM148 479q9 15 5 25.5t-14.5 12t-25 -6t-26.5 -28.5q-8 -14 -6.5 -22t8 -10.5t17 -0.5t19.5 8q13 7 23 22z" />
    <glyph glyph-name="plusminus" unicode="&#xb1;" horiz-adv-x="512" 
d="M57 35q4 -9 21 -10.5t40.5 0t50 4t49 2.5t38.5 -5.5t18 -19.5q2 -4 -3 -4q-2 -2 -4 2q-4 7 -21.5 8t-41.5 -1t-50.5 -4.5t-49.5 -1.5t-38 7t-16 21q0 4 4 4q3 0 3 -2zM243 195q11 1 27 1.5t31.5 -1.5t27 -7.5t13.5 -16.5q0 -4 -3 -4t-4 2q-4 6 -15.5 8t-26 1.5t-30 -2.5
t-27.5 -3q-5 -15 -11 -31.5t-14 -31t-18 -26t-23 -17.5q-3 -2 -5 2q-2 1 2 5q16 13 25.5 39t20.5 59q-11 -1 -27 -1.5t-31 2t-26 8.5t-11 18q-2 4 3 4q2 0 4 -3q3 -7 14 -9.5t25.5 -2t29.5 2t26 2.5q5 16 11.5 33t14.5 32t19 27t25 18q4 0 4 -3q2 -2 -1 -4q-17 -12 -27 -37
t-23 -64z" />
    <glyph glyph-name="acute" unicode="&#xb4;" horiz-adv-x="70" 
d="M68 678q3 -4 -1 -10q-11 -12 -26 -24q-7 -6 -13.5 -12t-14.5 -11q-6 -4 -11 3q-3 5 1 9q6 7 12.5 13t13.5 12q14 14 27 22q7 5 12 -2z" />
    <glyph glyph-name="mu" unicode="&#xb5;" horiz-adv-x="766" 
d="M594 365q-20 -23 -40.5 -68t-43 -101t-46.5 -117.5t-52 -116.5q-17 -33 -36 -66.5t-51 -58.5q-4 -3 -7.5 1t0.5 8q17 17 28 38.5t22 44.5q-30 -25 -61 -34t-57 -4.5t-44.5 21.5t-22.5 44q-9 -22 -22.5 -50.5t-30 -57t-34.5 -53t-37 -36.5q-4 -3 -7.5 1t0.5 7
q21 20 44.5 67.5t48.5 107.5t51 127t53 127.5t55 108t56 68.5q5 3 8 -1t0 -8q-18 -18 -36 -52.5t-37.5 -81t-41 -102.5t-46.5 -117q-14 -44 2.5 -66t47.5 -24t69.5 16t68.5 54q24 61 47.5 120.5t47 110.5t47 90.5t49.5 60.5q4 3 8 -0.5t0 -7.5z" />
    <glyph glyph-name="paragraph" unicode="&#xb6;" horiz-adv-x="758" 
d="M580 524q7 1 7.5 -5t-5.5 -7q-3 -1 -11.5 -1.5t-18 -0.5h-18h-11.5q-7 -12 -10 -14.5t-7 -7t-11 -16t-20.5 -41.5t-36 -84t-57.5 -144q-14 -33 -32.5 -78t-40 -89t-46 -80.5t-48.5 -52.5q-5 -3 -8 1t1 8q20 19 42.5 64t47 103t49.5 123.5t51.5 125.5t53.5 108.5t55 73.5
q-19 -1 -42 -1q-20 -1 -45 -1t-53 -1q-20 -21 -43 -69t-47.5 -109t-50.5 -128t-53.5 -127t-55.5 -106t-57 -65q-5 -3 -8 1t2 8q18 17 35.5 49.5t37 78t42 103.5t50.5 126q-36 1 -55.5 19.5t-23.5 47t7.5 61t37 60t65.5 45.5t93 17q29 0 60.5 -0.5t63 -0.5t61 1.5t53.5 4.5z
" />
    <glyph glyph-name="periodcentered" unicode="&#xb7;" horiz-adv-x="36" 
d="M36 318q0 -9 -5.5 -14t-12.5 -5.5t-12.5 3t-5.5 12.5t5.5 14t12.5 6t12.5 -3t5.5 -13z" />
    <glyph glyph-name="cedilla" unicode="&#xb8;" horiz-adv-x="70" 
d="M44 -134q13 -3 22 -15q8 -15 0 -28q-8 -15 -31 -15l-26 -1q-9 0 -9 9.5t9 9.5l26 1q14 0 14 10.5t-15 10.5q-9 0 -9 9v24q0 9 9 9.5t10 -9.5v-15v0z" />
    <glyph glyph-name="guillemotright" unicode="&#xbb;" horiz-adv-x="724" 
d="M544 228q14 -7 9 -21q-3 -7 -12 -10q-60 -18 -103 -32t-77 -27t-64 -24t-66 -23q-5 -2 -7 3t3 7q25 13 56 28.5t65 31t71 30.5t75 27q-43 23 -88.5 53.5t-80.5 63.5q-5 3 -1 7t7 1q51 -35 104 -63.5t109 -51.5zM373 237q12 -5 11.5 -16t-11.5 -15q-81 -24 -159 -53
t-156 -62q-5 -2 -7 3q-2 2 -1 3.5t3 3.5q60 32 132 64t137 57q-57 25 -97.5 56.5t-72.5 55.5q-4 3 -1.5 7t6.5 2q24 -12 44 -23.5t43.5 -24t53.5 -27t75 -31.5z" />
    <glyph glyph-name="questiondown" unicode="&#xbf;" horiz-adv-x="681" 
d="M468 419q2 6 8 5t4 -7q-8 -36 -28.5 -69.5t-48.5 -63.5t-60 -56.5t-62 -47.5q-17 -12 -41 -29.5t-48.5 -38.5t-48.5 -45.5t-41.5 -52.5t-26 -58.5t-2.5 -62.5q7 -43 41 -62t79 -15t92.5 31.5t81.5 77.5q10 14 18.5 32t13 37t2.5 36.5t-14 29.5q-5 5 -0.5 9t9.5 0
q13 -16 16 -35.5t-1 -39.5t-13 -40t-20 -36q-30 -43 -69 -70.5t-79 -38.5t-76.5 -6t-62.5 25t-36 55.5t3 86.5q11 41 33.5 75.5t50.5 63.5t59.5 53t60.5 44q27 19 60.5 42.5t63.5 50.5t53 57t29 63zM477 477q3 8 9.5 12.5t12.5 5t10 -2.5t1 -11t-9.5 -12.5t-12.5 -5.5
t-10 2.5t-1 11.5z" />
    <glyph glyph-name="Agrave" unicode="&#xc0;" horiz-adv-x="1778" 
d="M1423 -317q-6 -28 -12 -64t-6 -70q0 -35 10 -62t38 -34q16 -5 35 -1.5t38 12t36.5 20t31.5 23.5q6 5 11 -1t-1 -11q-16 -12 -35 -24.5t-39 -21.5t-40.5 -13t-40.5 -1q-24 4 -39.5 17.5t-24 33.5t-12 44t-3.5 48q0 37 4.5 69t6.5 44q17 101 43.5 199t56.5 195
q-21 31 -49 56.5t-60 45.5t-67 35.5t-71 26.5q-99 -150 -179 -269.5t-152.5 -212.5t-143 -161.5t-150.5 -116.5q-66 -40 -127 -57.5t-115 -17.5q-62 0 -112.5 21.5t-86 59.5t-55 89t-19.5 111q0 83 42 177t135 183q67 65 148 111.5t169 76.5t180.5 44t181.5 14
q141 0 260 -32q30 46 66.5 100.5t77.5 112t85 115t90 110t92 96t91 72.5q-44 -10 -92.5 -18t-98 -14.5t-98 -11t-93.5 -8.5q-124 -11 -246 -20.5t-245 -23.5q-57 -7 -129 -16.5t-149 -24.5t-154.5 -36.5t-146 -50.5t-123 -67t-85.5 -87q-13 -20 -22 -43t-13 -47q11 4 19 -5
t8 -21q0 -11 -6.5 -19t-15.5 -8q-12 0 -17 8.5t-5 22.5q0 13 4 30t10 33.5t13 31.5t13 25q32 50 87 89t124 69t147 51.5t156 37t151 25.5t132 17q124 14 246 23.5t246 20.5q109 10 183.5 19.5t124 18t78.5 16t48.5 14l33 11t32.5 7.5q5 1 7.5 -3t0.5 -8q-26 -65 -60.5 -151
t-73 -185.5t-78.5 -210t-77.5 -225.5t-69.5 -231t-55 -227zM600 -497q50 31 93.5 68.5t86 84t86.5 105t94.5 132t109.5 163.5t133 201q-119 32 -254 32q-89 0 -180.5 -14.5t-178.5 -44.5t-166.5 -76t-143.5 -109q-91 -88 -131.5 -178t-40.5 -171q0 -57 19 -106t53 -85
t82 -56.5t106 -20.5q52 0 110.5 18t121.5 57zM1241 260q71 -22 136 -59.5t109 -97.5q30 96 67.5 201t80 209t88.5 204.5t94 187.5q-64 -16 -134.5 -77t-144 -150t-148.5 -197.5t-148 -220.5zM1823 1014q6 -6 -1 -11q-5 -5 -10 -1q-8 5 -14.5 11t-12.5 12q-7 6 -13.5 11.5
t-12.5 12.5q-5 7 1 12q5 3 10 0q8 -5 14 -10.5t13 -11.5t13.5 -12t12.5 -13z" />
    <glyph glyph-name="Aacute" unicode="&#xc1;" horiz-adv-x="1778" 
d="M1423 -317q-6 -28 -12 -64t-6 -70q0 -35 10 -62t38 -34q16 -5 35 -1.5t38 12t36.5 20t31.5 23.5q6 5 11 -1t-1 -11q-16 -12 -35 -24.5t-39 -21.5t-40.5 -13t-40.5 -1q-24 4 -39.5 17.5t-24 33.5t-12 44t-3.5 48q0 37 4.5 69t6.5 44q17 101 43.5 199t56.5 195
q-21 31 -49 56.5t-60 45.5t-67 35.5t-71 26.5q-99 -150 -179 -269.5t-152.5 -212.5t-143 -161.5t-150.5 -116.5q-66 -40 -127 -57.5t-115 -17.5q-62 0 -112.5 21.5t-86 59.5t-55 89t-19.5 111q0 83 42 177t135 183q67 65 148 111.5t169 76.5t180.5 44t181.5 14
q141 0 260 -32q30 46 66.5 100.5t77.5 112t85 115t90 110t92 96t91 72.5q-44 -10 -92.5 -18t-98 -14.5t-98 -11t-93.5 -8.5q-124 -11 -246 -20.5t-245 -23.5q-57 -7 -129 -16.5t-149 -24.5t-154.5 -36.5t-146 -50.5t-123 -67t-85.5 -87q-13 -20 -22 -43t-13 -47q11 4 19 -5
t8 -21q0 -11 -6.5 -19t-15.5 -8q-12 0 -17 8.5t-5 22.5q0 13 4 30t10 33.5t13 31.5t13 25q32 50 87 89t124 69t147 51.5t156 37t151 25.5t132 17q124 14 246 23.5t246 20.5q109 10 183.5 19.5t124 18t78.5 16t48.5 14l33 11t32.5 7.5q5 1 7.5 -3t0.5 -8q-26 -65 -60.5 -151
t-73 -185.5t-78.5 -210t-77.5 -225.5t-69.5 -231t-55 -227zM600 -497q50 31 93.5 68.5t86 84t86.5 105t94.5 132t109.5 163.5t133 201q-119 32 -254 32q-89 0 -180.5 -14.5t-178.5 -44.5t-166.5 -76t-143.5 -109q-91 -88 -131.5 -178t-40.5 -171q0 -57 19 -106t53 -85
t82 -56.5t106 -20.5q52 0 110.5 18t121.5 57zM1241 260q71 -22 136 -59.5t109 -97.5q30 96 67.5 201t80 209t88.5 204.5t94 187.5q-64 -16 -134.5 -77t-144 -150t-148.5 -197.5t-148 -220.5zM1824 1055q3 -4 -1 -10q-11 -12 -26 -24q-7 -6 -13.5 -12t-14.5 -11q-6 -4 -11 3
q-3 5 1 9q6 7 12.5 13t13.5 12q14 14 27 22q7 5 12 -2z" />
    <glyph glyph-name="Acircumflex" unicode="&#xc2;" horiz-adv-x="1778" 
d="M1423 -317q-6 -28 -12 -64t-6 -70q0 -35 10 -62t38 -34q16 -5 35 -1.5t38 12t36.5 20t31.5 23.5q6 5 11 -1t-1 -11q-16 -12 -35 -24.5t-39 -21.5t-40.5 -13t-40.5 -1q-24 4 -39.5 17.5t-24 33.5t-12 44t-3.5 48q0 37 4.5 69t6.5 44q17 101 43.5 199t56.5 195
q-21 31 -49 56.5t-60 45.5t-67 35.5t-71 26.5q-99 -150 -179 -269.5t-152.5 -212.5t-143 -161.5t-150.5 -116.5q-66 -40 -127 -57.5t-115 -17.5q-62 0 -112.5 21.5t-86 59.5t-55 89t-19.5 111q0 83 42 177t135 183q67 65 148 111.5t169 76.5t180.5 44t181.5 14
q141 0 260 -32q30 46 66.5 100.5t77.5 112t85 115t90 110t92 96t91 72.5q-44 -10 -92.5 -18t-98 -14.5t-98 -11t-93.5 -8.5q-124 -11 -246 -20.5t-245 -23.5q-57 -7 -129 -16.5t-149 -24.5t-154.5 -36.5t-146 -50.5t-123 -67t-85.5 -87q-13 -20 -22 -43t-13 -47q11 4 19 -5
t8 -21q0 -11 -6.5 -19t-15.5 -8q-12 0 -17 8.5t-5 22.5q0 13 4 30t10 33.5t13 31.5t13 25q32 50 87 89t124 69t147 51.5t156 37t151 25.5t132 17q124 14 246 23.5t246 20.5q109 10 183.5 19.5t124 18t78.5 16t48.5 14l33 11t32.5 7.5q5 1 7.5 -3t0.5 -8q-26 -65 -60.5 -151
t-73 -185.5t-78.5 -210t-77.5 -225.5t-69.5 -231t-55 -227zM600 -497q50 31 93.5 68.5t86 84t86.5 105t94.5 132t109.5 163.5t133 201q-119 32 -254 32q-89 0 -180.5 -14.5t-178.5 -44.5t-166.5 -76t-143.5 -109q-91 -88 -131.5 -178t-40.5 -171q0 -57 19 -106t53 -85
t82 -56.5t106 -20.5q52 0 110.5 18t121.5 57zM1241 260q71 -22 136 -59.5t109 -97.5q30 96 67.5 201t80 209t88.5 204.5t94 187.5q-64 -16 -134.5 -77t-144 -150t-148.5 -197.5t-148 -220.5zM1859 1014q7 -5 1 -11q-5 -6 -11 -2q-14 11 -28 22.5t-28 22.5q-12 -11 -23.5 -22
t-24.5 -22q-6 -6 -11 1q-6 5 0 11q13 14 25.5 26t26.5 25q6 7 12 1q16 -13 31.5 -25.5t29.5 -26.5z" />
    <glyph glyph-name="Atilde" unicode="&#xc3;" horiz-adv-x="1778" 
d="M1423 -317q-6 -28 -12 -64t-6 -70q0 -35 10 -62t38 -34q16 -5 35 -1.5t38 12t36.5 20t31.5 23.5q6 5 11 -1t-1 -11q-16 -12 -35 -24.5t-39 -21.5t-40.5 -13t-40.5 -1q-24 4 -39.5 17.5t-24 33.5t-12 44t-3.5 48q0 37 4.5 69t6.5 44q17 101 43.5 199t56.5 195
q-21 31 -49 56.5t-60 45.5t-67 35.5t-71 26.5q-99 -150 -179 -269.5t-152.5 -212.5t-143 -161.5t-150.5 -116.5q-66 -40 -127 -57.5t-115 -17.5q-62 0 -112.5 21.5t-86 59.5t-55 89t-19.5 111q0 83 42 177t135 183q67 65 148 111.5t169 76.5t180.5 44t181.5 14
q141 0 260 -32q30 46 66.5 100.5t77.5 112t85 115t90 110t92 96t91 72.5q-44 -10 -92.5 -18t-98 -14.5t-98 -11t-93.5 -8.5q-124 -11 -246 -20.5t-245 -23.5q-57 -7 -129 -16.5t-149 -24.5t-154.5 -36.5t-146 -50.5t-123 -67t-85.5 -87q-13 -20 -22 -43t-13 -47q11 4 19 -5
t8 -21q0 -11 -6.5 -19t-15.5 -8q-12 0 -17 8.5t-5 22.5q0 13 4 30t10 33.5t13 31.5t13 25q32 50 87 89t124 69t147 51.5t156 37t151 25.5t132 17q124 14 246 23.5t246 20.5q109 10 183.5 19.5t124 18t78.5 16t48.5 14l33 11t32.5 7.5q5 1 7.5 -3t0.5 -8q-26 -65 -60.5 -151
t-73 -185.5t-78.5 -210t-77.5 -225.5t-69.5 -231t-55 -227zM600 -497q50 31 93.5 68.5t86 84t86.5 105t94.5 132t109.5 163.5t133 201q-119 32 -254 32q-89 0 -180.5 -14.5t-178.5 -44.5t-166.5 -76t-143.5 -109q-91 -88 -131.5 -178t-40.5 -171q0 -57 19 -106t53 -85
t82 -56.5t106 -20.5q52 0 110.5 18t121.5 57zM1241 260q71 -22 136 -59.5t109 -97.5q30 96 67.5 201t80 209t88.5 204.5t94 187.5q-64 -16 -134.5 -77t-144 -150t-148.5 -197.5t-148 -220.5zM1841 1029q3 -11 -2 -19.5t-14 -12t-20 -1t-20 13.5q-2 3 -6.5 7.5t-12.5 2.5
q-5 -2 -7.5 -6t-0.5 -8q2 -9 -5.5 -10.5t-9.5 7.5q-3 10 2 19t14 12.5t20.5 1t20.5 -14.5q3 -3 7.5 -7t9.5 -3q7 1 8.5 5.5t-0.5 8.5q-2 9 6 11t10 -7z" />
    <glyph glyph-name="Adieresis" unicode="&#xc4;" horiz-adv-x="1778" 
d="M1423 -317q-6 -28 -12 -64t-6 -70q0 -35 10 -62t38 -34q16 -5 35 -1.5t38 12t36.5 20t31.5 23.5q6 5 11 -1t-1 -11q-16 -12 -35 -24.5t-39 -21.5t-40.5 -13t-40.5 -1q-24 4 -39.5 17.5t-24 33.5t-12 44t-3.5 48q0 37 4.5 69t6.5 44q17 101 43.5 199t56.5 195
q-21 31 -49 56.5t-60 45.5t-67 35.5t-71 26.5q-99 -150 -179 -269.5t-152.5 -212.5t-143 -161.5t-150.5 -116.5q-66 -40 -127 -57.5t-115 -17.5q-62 0 -112.5 21.5t-86 59.5t-55 89t-19.5 111q0 83 42 177t135 183q67 65 148 111.5t169 76.5t180.5 44t181.5 14
q141 0 260 -32q30 46 66.5 100.5t77.5 112t85 115t90 110t92 96t91 72.5q-44 -10 -92.5 -18t-98 -14.5t-98 -11t-93.5 -8.5q-124 -11 -246 -20.5t-245 -23.5q-57 -7 -129 -16.5t-149 -24.5t-154.5 -36.5t-146 -50.5t-123 -67t-85.5 -87q-13 -20 -22 -43t-13 -47q11 4 19 -5
t8 -21q0 -11 -6.5 -19t-15.5 -8q-12 0 -17 8.5t-5 22.5q0 13 4 30t10 33.5t13 31.5t13 25q32 50 87 89t124 69t147 51.5t156 37t151 25.5t132 17q124 14 246 23.5t246 20.5q109 10 183.5 19.5t124 18t78.5 16t48.5 14l33 11t32.5 7.5q5 1 7.5 -3t0.5 -8q-26 -65 -60.5 -151
t-73 -185.5t-78.5 -210t-77.5 -225.5t-69.5 -231t-55 -227zM600 -497q50 31 93.5 68.5t86 84t86.5 105t94.5 132t109.5 163.5t133 201q-119 32 -254 32q-89 0 -180.5 -14.5t-178.5 -44.5t-166.5 -76t-143.5 -109q-91 -88 -131.5 -178t-40.5 -171q0 -57 19 -106t53 -85
t82 -56.5t106 -20.5q52 0 110.5 18t121.5 57zM1241 260q71 -22 136 -59.5t109 -97.5q30 96 67.5 201t80 209t88.5 204.5t94 187.5q-64 -16 -134.5 -77t-144 -150t-148.5 -197.5t-148 -220.5zM1735 1014q0 9 5.5 14t12 6t12 -3t5.5 -13t-5.5 -14t-12 -5.5t-12 3t-5.5 12.5z
M1814 1014q0 9 5.5 14t12 6t12 -3t5.5 -13t-5.5 -14t-12 -5.5t-12 3t-5.5 12.5z" />
    <glyph glyph-name="Aring" unicode="&#xc5;" horiz-adv-x="1778" 
d="M1423 -317q-6 -28 -12 -64t-6 -70q0 -35 10 -62t38 -34q16 -5 35 -1.5t38 12t36.5 20t31.5 23.5q6 5 11 -1t-1 -11q-16 -12 -35 -24.5t-39 -21.5t-40.5 -13t-40.5 -1q-24 4 -39.5 17.5t-24 33.5t-12 44t-3.5 48q0 37 4.5 69t6.5 44q17 101 43.5 199t56.5 195
q-21 31 -49 56.5t-60 45.5t-67 35.5t-71 26.5q-99 -150 -179 -269.5t-152.5 -212.5t-143 -161.5t-150.5 -116.5q-66 -40 -127 -57.5t-115 -17.5q-62 0 -112.5 21.5t-86 59.5t-55 89t-19.5 111q0 83 42 177t135 183q67 65 148 111.5t169 76.5t180.5 44t181.5 14
q141 0 260 -32q30 46 66.5 100.5t77.5 112t85 115t90 110t92 96t91 72.5q-44 -10 -92.5 -18t-98 -14.5t-98 -11t-93.5 -8.5q-124 -11 -246 -20.5t-245 -23.5q-57 -7 -129 -16.5t-149 -24.5t-154.5 -36.5t-146 -50.5t-123 -67t-85.5 -87q-13 -20 -22 -43t-13 -47q11 4 19 -5
t8 -21q0 -11 -6.5 -19t-15.5 -8q-12 0 -17 8.5t-5 22.5q0 13 4 30t10 33.5t13 31.5t13 25q32 50 87 89t124 69t147 51.5t156 37t151 25.5t132 17q124 14 246 23.5t246 20.5q109 10 183.5 19.5t124 18t78.5 16t48.5 14l33 11t32.5 7.5q5 1 7.5 -3t0.5 -8q-26 -65 -60.5 -151
t-73 -185.5t-78.5 -210t-77.5 -225.5t-69.5 -231t-55 -227zM600 -497q50 31 93.5 68.5t86 84t86.5 105t94.5 132t109.5 163.5t133 201q-119 32 -254 32q-89 0 -180.5 -14.5t-178.5 -44.5t-166.5 -76t-143.5 -109q-91 -88 -131.5 -178t-40.5 -171q0 -57 19 -106t53 -85
t82 -56.5t106 -20.5q52 0 110.5 18t121.5 57zM1241 260q71 -22 136 -59.5t109 -97.5q30 96 67.5 201t80 209t88.5 204.5t94 187.5q-64 -16 -134.5 -77t-144 -150t-148.5 -197.5t-148 -220.5zM1817 1068q6 -5 8.5 -12.5t2.5 -13.5q0 -15 -9 -25q-9 -11 -23 -14q-15 -3 -28 6
q-6 5 -9 12.5t-3 14.5q0 15 10 25q10 11 24 13q15 3 27 -6zM1793 1021q8 2 13 7.5t5 13.5t-5 11.5t-13 2.5q-18 -3 -18 -20t18 -15z" />
    <glyph glyph-name="AE" unicode="&#xc6;" horiz-adv-x="2276" 
d="M2296 200q6 5 10.5 -0.5t-1.5 -10.5q-55 -42 -105 -94.5t-94 -101.5l-183 -212q-32 -38 -70 -81.5t-80 -81t-88 -61.5t-95 -22q-52 3 -83.5 30.5t-48 71.5t-19.5 100.5t3.5 116.5t19.5 120t29 111q-21 31 -49 56.5t-60 45.5t-67.5 35.5t-71.5 26.5q-98 -150 -178 -269
t-152.5 -212t-143 -161.5t-150.5 -116.5q-109 -65 -202.5 -73.5t-162.5 24t-109 98.5t-41 150.5t40.5 179.5t136.5 186q62 60 136 104.5t155.5 74.5t166.5 46.5t169 20t163 -4.5t149 -26q30 45 66.5 99.5t77.5 112.5t85 115.5t90 110t92 96t91 72.5q-44 -10 -92.5 -18
t-98 -14.5t-98 -11.5t-93.5 -9q-124 -11 -246 -20t-245 -23q-57 -7 -129 -17t-149.5 -25t-154.5 -36t-145.5 -50t-123 -67t-85.5 -87q-27 -43 -35 -91q11 4 18.5 -5t7.5 -20t-6 -19t-15 -8q-18 0 -20.5 18t2.5 43t16 50t20 40q32 50 87 89t124 68.5t147 51t156 37t151 25.5
t132 17q124 14 246 23.5t246 20.5q109 10 183.5 19.5t124 18t78.5 16.5t48.5 14t33 10.5t32.5 7.5q5 1 7.5 -2.5t0.5 -8.5q-22 -55 -51 -125.5t-61 -151.5t-66.5 -171.5t-68.5 -186.5q31 45 69.5 86.5t82 74.5t92 55.5t101.5 29.5q-24 40 -29.5 82t4.5 82t34 77.5t60 69.5
q37 33 79.5 54.5t82 30t73 4t54 -22.5t24.5 -49.5t-15 -76.5q-18 -39 -47 -73t-61 -63q-42 -38 -78 -50.5t-60 -7t-34.5 26.5t-1 51.5t41 66t90.5 71.5q11 7 14 1.5t-3 -11.5q-57 -35 -87.5 -68t-41 -59.5t-2 -44t30 -21t53 8.5t69.5 46q30 28 58 61t45 71q26 60 8.5 91.5
t-60.5 35t-101.5 -19.5t-114.5 -71q-33 -29 -56.5 -64.5t-33 -74t-4.5 -78t28 -77.5q2 -4 0.5 -7.5t-5.5 -4.5q-67 -13 -123 -49t-103.5 -85.5t-86.5 -109t-71 -119.5q-66 -128 -92 -236t-20 -187t40 -124.5t88 -49.5q45 -3 89.5 20.5t86.5 60t79.5 79t68.5 77.5l183 212
q47 53 94 104.5t104 95.5zM610 -496q50 31 93.5 68t86 84t86.5 105.5t94 132t109.5 163.5t132.5 201q-71 19 -150 26.5t-162 3t-166.5 -21t-162 -46.5t-150.5 -73.5t-131 -101.5q-69 -67 -109 -136t-54 -134.5t-5 -124.5t37 -105t73.5 -76t104 -38t128 8.5t145.5 64.5z
M1251 261q71 -23 135.5 -60.5t109.5 -97.5q30 96 67.5 201t80 209.5t88.5 205t94 187.5q-64 -16 -134.5 -77t-144 -150t-148.5 -197.5t-148 -220.5z" />
    <glyph glyph-name="Ccedilla" unicode="&#xc7;" horiz-adv-x="1859" 
d="M1176 -472q13 -3 22 -15q8 -15 0 -28q-8 -15 -31 -15l-26 -1q-9 0 -9 9.5t9 9.5l26 1q14 0 14 10.5t-15 10.5q-9 0 -9 9v22q-63 6 -103.5 66t-40.5 174q0 89 29 208t96 271q57 123 124.5 227t143.5 189q-69 -14 -142.5 -23.5t-148.5 -17.5t-151 -15t-150 -15
q-119 -13 -237 -31.5t-232 -55.5q-39 -13 -82 -31t-82.5 -41t-73.5 -52t-56 -63q-13 -20 -21.5 -42.5t-11.5 -45.5q11 3 18.5 -5.5t7.5 -20.5q0 -11 -6.5 -19t-15.5 -8q-12 0 -17 8.5t-5 22.5q0 13 4 29.5t9.5 32.5t12.5 30.5t13 24.5q22 36 57 65.5t75.5 53.5t84 42.5
t84.5 32.5q116 37 234.5 55.5t238.5 32.5q158 16 312.5 30.5t297.5 43.5q30 32 65.5 65.5t74.5 63.5t80 55t82 40q44 16 82 16q48 0 75 -24.5t27 -65.5q0 -38 -27 -87.5t-88 -101.5q-42 -35 -76 -50.5t-59 -15.5q-26 0 -40 14t-14 37t15.5 52t49.5 60q-51 -22 -102.5 -37.5
t-104.5 -26.5q-87 -99 -157.5 -212.5t-126.5 -234.5q-72 -153 -104 -275.5t-32 -211.5q0 -97 34 -148.5t94 -51.5q40 0 85 22q41 19 89 63t101 101.5t108.5 124t111 130t108.5 119.5t101 93q5 4 10 -2t-1 -10l-1 -1q-51 -38 -105.5 -94t-110 -119.5t-110.5 -129t-107 -123
t-99.5 -101.5t-88.5 -64q-48 -22 -86 -23v-12zM1732 900q-33 -13 -67 -35t-66.5 -48t-62.5 -54.5t-55 -55.5q67 16 136 40t127 59q7 4 10.5 -2.5t-2.5 -10.5q-73 -42 -105 -83t-32 -70q0 -18 12 -29t33 -11q23 0 55.5 15t71.5 48q57 51 83 97.5t26 81.5t-22.5 55t-62.5 20
q-17 0 -36.5 -4t-42.5 -13z" />
    <glyph glyph-name="Egrave" unicode="&#xc8;" horiz-adv-x="1856" 
d="M1874 200q6 5 10.5 -1t-1.5 -11q-55 -42 -105 -94.5t-94 -101.5l-183 -212q-32 -37 -70 -81t-80 -81t-88 -61.5t-95 -22.5q-38 2 -66.5 21t-48.5 52t-30 77.5t-10 98.5q0 83 24.5 181.5t75.5 202.5q29 60 71 120t94.5 109.5t114.5 84t130 43.5q-32 53 -32 109q0 27 8 57
q-79 -20 -161.5 -33t-168 -23t-174.5 -18t-181 -18q-120 -13 -237.5 -31.5t-232.5 -55.5q-39 -13 -81.5 -30.5t-82.5 -41t-73.5 -52t-55.5 -63.5q-27 -42 -34 -88q11 4 18.5 -5t7.5 -21q0 -11 -6 -18.5t-15 -7.5q-12 0 -17 8.5t-5 22.5q0 13 3.5 29.5t9.5 32.5t12.5 30.5
t12.5 24.5q23 36 58 65.5t75.5 53.5t84 42.5t84.5 31.5q115 38 233.5 56.5t238.5 31.5q93 10 183 18.5t176.5 18t169.5 23t162 33.5q13 38 36.5 70t52.5 58q51 45 107.5 67.5t104.5 22.5q45 0 73.5 -20t28.5 -62q0 -29 -16 -67q-18 -39 -47 -73.5t-61 -63.5
q-36 -32 -67 -45.5t-54 -13.5q-26 0 -41.5 14.5t-15.5 39.5q0 23 15 52.5t49 59.5q-35 -15 -71.5 -27t-73.5 -22q-12 -35 -12 -67q0 -29 8.5 -56t22.5 -51q2 -3 0.5 -6.5t-5.5 -4.5q-67 -14 -123 -49.5t-103.5 -85t-86.5 -109t-71 -120.5q-60 -116 -86.5 -214.5
t-26.5 -174.5q0 -95 35 -149t94 -59q45 -3 89.5 20.5t86.5 60.5t79.5 79.5t68.5 77.5l183 212q47 53 94 104t104 96zM1608 816q-25 -21 -45 -47.5t-33 -55.5q55 15 107.5 35t102.5 49q11 6 14 0.5t-3 -11.5q-72 -45 -103 -85.5t-31 -68.5q0 -18 12 -28.5t32 -10.5
q21 0 50 13t62 43q30 27 58 60t45 71q15 36 15 61q0 34 -22 50t-57 16q-43 0 -97.5 -23t-106.5 -68zM1846 1014q6 -6 -1 -11q-5 -5 -10 -1q-8 5 -14.5 11t-12.5 12q-7 6 -13.5 11.5t-12.5 12.5q-5 7 1 12q5 3 10 0q8 -5 14 -10.5t13 -11.5t13.5 -12t12.5 -13z" />
    <glyph glyph-name="Eacute" unicode="&#xc9;" horiz-adv-x="1856" 
d="M1874 200q6 5 10.5 -1t-1.5 -11q-55 -42 -105 -94.5t-94 -101.5l-183 -212q-32 -37 -70 -81t-80 -81t-88 -61.5t-95 -22.5q-38 2 -66.5 21t-48.5 52t-30 77.5t-10 98.5q0 83 24.5 181.5t75.5 202.5q29 60 71 120t94.5 109.5t114.5 84t130 43.5q-32 53 -32 109q0 27 8 57
q-79 -20 -161.5 -33t-168 -23t-174.5 -18t-181 -18q-120 -13 -237.5 -31.5t-232.5 -55.5q-39 -13 -81.5 -30.5t-82.5 -41t-73.5 -52t-55.5 -63.5q-27 -42 -34 -88q11 4 18.5 -5t7.5 -21q0 -11 -6 -18.5t-15 -7.5q-12 0 -17 8.5t-5 22.5q0 13 3.5 29.5t9.5 32.5t12.5 30.5
t12.5 24.5q23 36 58 65.5t75.5 53.5t84 42.5t84.5 31.5q115 38 233.5 56.5t238.5 31.5q93 10 183 18.5t176.5 18t169.5 23t162 33.5q13 38 36.5 70t52.5 58q51 45 107.5 67.5t104.5 22.5q45 0 73.5 -20t28.5 -62q0 -29 -16 -67q-18 -39 -47 -73.5t-61 -63.5
q-36 -32 -67 -45.5t-54 -13.5q-26 0 -41.5 14.5t-15.5 39.5q0 23 15 52.5t49 59.5q-35 -15 -71.5 -27t-73.5 -22q-12 -35 -12 -67q0 -29 8.5 -56t22.5 -51q2 -3 0.5 -6.5t-5.5 -4.5q-67 -14 -123 -49.5t-103.5 -85t-86.5 -109t-71 -120.5q-60 -116 -86.5 -214.5
t-26.5 -174.5q0 -95 35 -149t94 -59q45 -3 89.5 20.5t86.5 60.5t79.5 79.5t68.5 77.5l183 212q47 53 94 104t104 96zM1608 816q-25 -21 -45 -47.5t-33 -55.5q55 15 107.5 35t102.5 49q11 6 14 0.5t-3 -11.5q-72 -45 -103 -85.5t-31 -68.5q0 -18 12 -28.5t32 -10.5
q21 0 50 13t62 43q30 27 58 60t45 71q15 36 15 61q0 34 -22 50t-57 16q-43 0 -97.5 -23t-106.5 -68zM1847 1055q3 -4 -1 -10q-11 -12 -26 -24q-7 -6 -13.5 -12t-14.5 -11q-6 -4 -11 3q-3 5 1 9q6 7 12.5 13t13.5 12q14 14 27 22q7 5 12 -2z" />
    <glyph glyph-name="Ecircumflex" unicode="&#xca;" horiz-adv-x="1856" 
d="M1874 200q6 5 10.5 -1t-1.5 -11q-55 -42 -105 -94.5t-94 -101.5l-183 -212q-32 -37 -70 -81t-80 -81t-88 -61.5t-95 -22.5q-38 2 -66.5 21t-48.5 52t-30 77.5t-10 98.5q0 83 24.5 181.5t75.5 202.5q29 60 71 120t94.5 109.5t114.5 84t130 43.5q-32 53 -32 109q0 27 8 57
q-79 -20 -161.5 -33t-168 -23t-174.5 -18t-181 -18q-120 -13 -237.5 -31.5t-232.5 -55.5q-39 -13 -81.5 -30.5t-82.5 -41t-73.5 -52t-55.5 -63.5q-27 -42 -34 -88q11 4 18.5 -5t7.5 -21q0 -11 -6 -18.5t-15 -7.5q-12 0 -17 8.5t-5 22.5q0 13 3.5 29.5t9.5 32.5t12.5 30.5
t12.5 24.5q23 36 58 65.5t75.5 53.5t84 42.5t84.5 31.5q115 38 233.5 56.5t238.5 31.5q93 10 183 18.5t176.5 18t169.5 23t162 33.5q13 38 36.5 70t52.5 58q51 45 107.5 67.5t104.5 22.5q45 0 73.5 -20t28.5 -62q0 -29 -16 -67q-18 -39 -47 -73.5t-61 -63.5
q-36 -32 -67 -45.5t-54 -13.5q-26 0 -41.5 14.5t-15.5 39.5q0 23 15 52.5t49 59.5q-35 -15 -71.5 -27t-73.5 -22q-12 -35 -12 -67q0 -29 8.5 -56t22.5 -51q2 -3 0.5 -6.5t-5.5 -4.5q-67 -14 -123 -49.5t-103.5 -85t-86.5 -109t-71 -120.5q-60 -116 -86.5 -214.5
t-26.5 -174.5q0 -95 35 -149t94 -59q45 -3 89.5 20.5t86.5 60.5t79.5 79.5t68.5 77.5l183 212q47 53 94 104t104 96zM1608 816q-25 -21 -45 -47.5t-33 -55.5q55 15 107.5 35t102.5 49q11 6 14 0.5t-3 -11.5q-72 -45 -103 -85.5t-31 -68.5q0 -18 12 -28.5t32 -10.5
q21 0 50 13t62 43q30 27 58 60t45 71q15 36 15 61q0 34 -22 50t-57 16q-43 0 -97.5 -23t-106.5 -68zM1882 1014q7 -5 1 -11q-5 -6 -11 -2q-14 11 -28 22.5t-28 22.5q-12 -11 -23.5 -22t-24.5 -22q-6 -6 -11 1q-6 5 0 11q13 14 25.5 26t26.5 25q6 7 12 1q16 -13 31.5 -25.5
t29.5 -26.5z" />
    <glyph glyph-name="Edieresis" unicode="&#xcb;" horiz-adv-x="1856" 
d="M1874 200q6 5 10.5 -1t-1.5 -11q-55 -42 -105 -94.5t-94 -101.5l-183 -212q-32 -37 -70 -81t-80 -81t-88 -61.5t-95 -22.5q-38 2 -66.5 21t-48.5 52t-30 77.5t-10 98.5q0 83 24.5 181.5t75.5 202.5q29 60 71 120t94.5 109.5t114.5 84t130 43.5q-32 53 -32 109q0 27 8 57
q-79 -20 -161.5 -33t-168 -23t-174.5 -18t-181 -18q-120 -13 -237.5 -31.5t-232.5 -55.5q-39 -13 -81.5 -30.5t-82.5 -41t-73.5 -52t-55.5 -63.5q-27 -42 -34 -88q11 4 18.5 -5t7.5 -21q0 -11 -6 -18.5t-15 -7.5q-12 0 -17 8.5t-5 22.5q0 13 3.5 29.5t9.5 32.5t12.5 30.5
t12.5 24.5q23 36 58 65.5t75.5 53.5t84 42.5t84.5 31.5q115 38 233.5 56.5t238.5 31.5q93 10 183 18.5t176.5 18t169.5 23t162 33.5q13 38 36.5 70t52.5 58q51 45 107.5 67.5t104.5 22.5q45 0 73.5 -20t28.5 -62q0 -29 -16 -67q-18 -39 -47 -73.5t-61 -63.5
q-36 -32 -67 -45.5t-54 -13.5q-26 0 -41.5 14.5t-15.5 39.5q0 23 15 52.5t49 59.5q-35 -15 -71.5 -27t-73.5 -22q-12 -35 -12 -67q0 -29 8.5 -56t22.5 -51q2 -3 0.5 -6.5t-5.5 -4.5q-67 -14 -123 -49.5t-103.5 -85t-86.5 -109t-71 -120.5q-60 -116 -86.5 -214.5
t-26.5 -174.5q0 -95 35 -149t94 -59q45 -3 89.5 20.5t86.5 60.5t79.5 79.5t68.5 77.5l183 212q47 53 94 104t104 96zM1608 816q-25 -21 -45 -47.5t-33 -55.5q55 15 107.5 35t102.5 49q11 6 14 0.5t-3 -11.5q-72 -45 -103 -85.5t-31 -68.5q0 -18 12 -28.5t32 -10.5
q21 0 50 13t62 43q30 27 58 60t45 71q15 36 15 61q0 34 -22 50t-57 16q-43 0 -97.5 -23t-106.5 -68zM1758 1014q0 9 5.5 14t12 6t12 -3t5.5 -13t-5.5 -14t-12 -5.5t-12 3t-5.5 12.5zM1837 1014q0 9 5.5 14t12 6t12 -3t5.5 -13t-5.5 -14t-12 -5.5t-12 3t-5.5 12.5z" />
    <glyph glyph-name="Igrave" unicode="&#xcc;" horiz-adv-x="798" 
d="M766 596q-31 -64 -63 -140t-66 -158t-70 -167t-74.5 -167.5t-79.5 -159t-85 -141.5q-24 -35 -52.5 -68t-61 -59.5t-67.5 -42.5t-71 -16q-35 0 -71 18q-7 3 -3.5 10t10.5 3q6 -4 16 -8q8 -3 19.5 -5.5t25.5 -2.5q20 0 45.5 7.5t55.5 28t63 56.5t68 94q30 50 62.5 115.5
t66 140.5t67 156t66.5 161.5t65 157.5t62 144q-56 -34 -108 -67t-97 -69.5t-83 -78t-67 -92.5q-20 -35 -33 -74t-16 -81q12 5 19.5 -4t7.5 -21q0 -14 -7 -20.5t-15 -6.5t-14.5 6.5t-6.5 20.5q2 50 16.5 97t39.5 89q33 56 75.5 100.5t91.5 82t101 69.5l104 64
q47 102 94.5 173t90 115.5t78 64.5t58.5 20q35 0 35 -37q0 -21 -15 -52.5t-48 -70t-85.5 -83.5t-128.5 -93zM775 614q73 47 124 91.5t83.5 82t47 67t14.5 46.5q0 22 -19 22q-15 0 -40.5 -17t-58.5 -54t-71.5 -96t-80.5 -143q1 0 1 1zM1073 1014q6 -6 -1 -11q-5 -5 -10 -1
q-8 5 -14.5 11t-12.5 12q-7 6 -13.5 11.5t-12.5 12.5q-5 7 1 12q5 3 10 0q8 -5 14 -10.5t13 -11.5t13.5 -12t12.5 -13z" />
    <glyph glyph-name="Iacute" unicode="&#xcd;" horiz-adv-x="798" 
d="M766 596q-31 -64 -63 -140t-66 -158t-70 -167t-74.5 -167.5t-79.5 -159t-85 -141.5q-24 -35 -52.5 -68t-61 -59.5t-67.5 -42.5t-71 -16q-35 0 -71 18q-7 3 -3.5 10t10.5 3q6 -4 16 -8q8 -3 19.5 -5.5t25.5 -2.5q20 0 45.5 7.5t55.5 28t63 56.5t68 94q30 50 62.5 115.5
t66 140.5t67 156t66.5 161.5t65 157.5t62 144q-56 -34 -108 -67t-97 -69.5t-83 -78t-67 -92.5q-20 -35 -33 -74t-16 -81q12 5 19.5 -4t7.5 -21q0 -14 -7 -20.5t-15 -6.5t-14.5 6.5t-6.5 20.5q2 50 16.5 97t39.5 89q33 56 75.5 100.5t91.5 82t101 69.5l104 64
q47 102 94.5 173t90 115.5t78 64.5t58.5 20q35 0 35 -37q0 -21 -15 -52.5t-48 -70t-85.5 -83.5t-128.5 -93zM775 614q73 47 124 91.5t83.5 82t47 67t14.5 46.5q0 22 -19 22q-15 0 -40.5 -17t-58.5 -54t-71.5 -96t-80.5 -143q1 0 1 1zM1074 1055q3 -4 -1 -10q-11 -12 -26 -24
q-7 -6 -13.5 -12t-14.5 -11q-6 -4 -11 3q-3 5 1 9q6 7 12.5 13t13.5 12q14 14 27 22q7 5 12 -2z" />
    <glyph glyph-name="Icircumflex" unicode="&#xce;" horiz-adv-x="798" 
d="M766 596q-31 -64 -63 -140t-66 -158t-70 -167t-74.5 -167.5t-79.5 -159t-85 -141.5q-24 -35 -52.5 -68t-61 -59.5t-67.5 -42.5t-71 -16q-35 0 -71 18q-7 3 -3.5 10t10.5 3q6 -4 16 -8q8 -3 19.5 -5.5t25.5 -2.5q20 0 45.5 7.5t55.5 28t63 56.5t68 94q30 50 62.5 115.5
t66 140.5t67 156t66.5 161.5t65 157.5t62 144q-56 -34 -108 -67t-97 -69.5t-83 -78t-67 -92.5q-20 -35 -33 -74t-16 -81q12 5 19.5 -4t7.5 -21q0 -14 -7 -20.5t-15 -6.5t-14.5 6.5t-6.5 20.5q2 50 16.5 97t39.5 89q33 56 75.5 100.5t91.5 82t101 69.5l104 64
q47 102 94.5 173t90 115.5t78 64.5t58.5 20q35 0 35 -37q0 -21 -15 -52.5t-48 -70t-85.5 -83.5t-128.5 -93zM775 614q73 47 124 91.5t83.5 82t47 67t14.5 46.5q0 22 -19 22q-15 0 -40.5 -17t-58.5 -54t-71.5 -96t-80.5 -143q1 0 1 1zM1109 1014q7 -5 1 -11q-5 -6 -11 -2
q-14 11 -28 22.5t-28 22.5q-12 -11 -23.5 -22t-24.5 -22q-6 -6 -11 1q-6 5 0 11q13 14 25.5 26t26.5 25q6 7 12 1q16 -13 31.5 -25.5t29.5 -26.5z" />
    <glyph glyph-name="Idieresis" unicode="&#xcf;" horiz-adv-x="798" 
d="M766 596q-31 -64 -63 -140t-66 -158t-70 -167t-74.5 -167.5t-79.5 -159t-85 -141.5q-24 -35 -52.5 -68t-61 -59.5t-67.5 -42.5t-71 -16q-35 0 -71 18q-7 3 -3.5 10t10.5 3q6 -4 16 -8q8 -3 19.5 -5.5t25.5 -2.5q20 0 45.5 7.5t55.5 28t63 56.5t68 94q30 50 62.5 115.5
t66 140.5t67 156t66.5 161.5t65 157.5t62 144q-56 -34 -108 -67t-97 -69.5t-83 -78t-67 -92.5q-20 -35 -33 -74t-16 -81q12 5 19.5 -4t7.5 -21q0 -14 -7 -20.5t-15 -6.5t-14.5 6.5t-6.5 20.5q2 50 16.5 97t39.5 89q33 56 75.5 100.5t91.5 82t101 69.5l104 64
q47 102 94.5 173t90 115.5t78 64.5t58.5 20q35 0 35 -37q0 -21 -15 -52.5t-48 -70t-85.5 -83.5t-128.5 -93zM775 614q73 47 124 91.5t83.5 82t47 67t14.5 46.5q0 22 -19 22q-15 0 -40.5 -17t-58.5 -54t-71.5 -96t-80.5 -143q1 0 1 1zM985 1014q0 9 5.5 14t12 6t12 -3
t5.5 -13t-5.5 -14t-12 -5.5t-12 3t-5.5 12.5zM1064 1014q0 9 5.5 14t12 6t12 -3t5.5 -13t-5.5 -14t-12 -5.5t-12 3t-5.5 12.5z" />
    <glyph glyph-name="Ntilde" unicode="&#xd1;" horiz-adv-x="2234" 
d="M1850 695q85 66 150 100t109 34q36 0 55.5 -25t19.5 -77q0 -64 -31 -169q-23 -72 -48.5 -140.5t-51.5 -137.5q-38 -98 -69 -179t-55.5 -147.5t-42.5 -122t-30 -102.5q-7 -29 -11.5 -59t-4.5 -56q0 -40 13 -66t45 -26q15 0 37 8q8 2 10.5 -5t-5.5 -10q-6 -3 -12 -5
q-5 -2 -13 -3t-16 -1q-13 0 -27.5 5t-26.5 19.5t-19.5 40t-7.5 66.5q0 39 9 98q12 64 33 137.5t46.5 147.5t53 145t52.5 131q31 76 49.5 121.5t29.5 73t17.5 43.5t12.5 34q41 110 41 171q0 74 -59 74q-40 0 -102.5 -32.5t-143.5 -95.5q-52 -39 -104 -85t-102.5 -95
t-97.5 -100t-90 -100q-39 -91 -63 -146t-39 -89.5t-24.5 -56t-20.5 -45.5q-2 -6 -8.5 -4t-4.5 9q28 88 68.5 201t91 234t108 240.5t119.5 220.5q-63 -42 -133.5 -68.5t-142.5 -44.5q-129 -30 -259 -44t-261 -28q-99 -10 -202 -22t-202 -32.5t-188.5 -52t-161.5 -81.5
q-51 -35 -85.5 -81.5t-38.5 -108.5q11 4 19 -5t9 -20t-4.5 -19t-14.5 -8q-12 0 -18.5 12t-6.5 32t7.5 46t23 54t41 56t61.5 52q74 50 168 82t195 52t203 32t194 21q131 14 260.5 29t257.5 46q78 20 157.5 51.5t142.5 82.5q9 15 23 36.5t30.5 43.5t33 41.5t30.5 29.5
q6 5 12 0t2 -12q-13 -29 -35 -60t-53 -60q-19 -31 -42.5 -76.5t-49 -98t-51.5 -109.5t-50.5 -110.5t-45 -100.5t-34.5 -80q86 94 177.5 182t191.5 167zM2043 999q3 -11 -2 -19.5t-14 -12t-20 -1t-20 13.5q-2 3 -6.5 7.5t-12.5 2.5q-5 -2 -7.5 -6t-0.5 -8q2 -9 -5.5 -10.5
t-9.5 7.5q-3 10 2 19t14 12.5t20.5 1t20.5 -14.5q3 -3 7.5 -7t9.5 -3q7 1 8.5 5.5t-0.5 8.5q-2 9 6 11t10 -7z" />
    <glyph glyph-name="Ograve" unicode="&#xd2;" horiz-adv-x="2483" 
d="M2413 685q10 -59 4.5 -118t-22.5 -116t-42 -112.5t-54 -106.5q-84 -149 -183.5 -272t-208.5 -219q-38 -33 -89.5 -72t-108 -70.5t-114 -49t-107.5 -8.5q-41 7 -64.5 34t-34 65.5t-10.5 84.5t6.5 92t16.5 87t19 70q19 64 46.5 129.5t59.5 131t69 128.5t76 121
q10 45 26.5 86.5t39.5 80.5q-36 -5 -79 -9t-87.5 -7t-87.5 -5.5t-80 -4.5q-131 -8 -260 -15t-260 -18q-130 -11 -258.5 -28.5t-253.5 -52.5q-46 -14 -92.5 -31.5t-88.5 -41.5t-77.5 -55.5t-59.5 -72.5q-14 -23 -23 -46.5t-13 -49.5q13 5 22.5 -5t9.5 -24q0 -13 -7 -21.5
t-18 -8.5q-19 0 -23 18.5t1 44t16 53.5t22 46q25 42 61.5 74.5t79 57.5t90.5 43.5t96 32.5q127 37 255 55.5t259 30.5q131 11 260.5 18.5t260.5 14.5q118 7 201.5 12t143.5 13q15 24 34 51.5t41 54.5t46 52t49 43q75 56 156 68t151 -14t121 -87t67 -152zM1757 653
q-38 -63 -60 -132q3 4 5.5 7.5t4.5 7.5q23 32 46.5 63.5t49.5 61.5q-9 -2 -18.5 -3.5t-27.5 -4.5zM2281 241q28 49 53 103t42 110t23 113.5t-4 114.5q-10 58 -35.5 103.5t-61.5 77t-81 47.5t-94 16t-99 -17t-97 -52q-23 -17 -45.5 -39.5t-43 -47t-38.5 -50t-33 -49.5
l24.5 3.5t27.5 6.5q22 26 44 50.5t45 47.5q9 9 15.5 -1t3 -28.5t-21.5 -40t-58 -35.5q-93 -122 -169 -250q-5 -63 10.5 -114.5t46.5 -88t75 -57t96 -22.5q38 -2 83.5 7.5t96 35t104 68t107.5 107.5q5 6 10.5 1t0.5 -10q-60 -69 -115.5 -113t-106 -69.5t-96 -34.5t-85.5 -7
q-53 2 -97.5 22t-77 55t-51 84t-18.5 109q-69 -120 -117 -225t-83 -211q-13 -33 -25 -74t-20.5 -83.5t-11 -84t5 -75.5t27 -57.5t54.5 -30.5q48 -10 103.5 7.5t110.5 49t105 70t86 70.5q116 106 211.5 229t173.5 259zM1909 750l-22 -26t-22 -27q17 9 29 22t15 31zM2284 1032
q6 -6 -1 -11q-5 -5 -10 -1q-8 5 -14.5 11t-12.5 12q-7 6 -13.5 11.5t-12.5 12.5q-5 7 1 12q5 3 10 0q8 -5 14 -10.5t13 -11.5t13.5 -12t12.5 -13z" />
    <glyph glyph-name="Oacute" unicode="&#xd3;" horiz-adv-x="2483" 
d="M2413 685q10 -59 4.5 -118t-22.5 -116t-42 -112.5t-54 -106.5q-84 -149 -183.5 -272t-208.5 -219q-38 -33 -89.5 -72t-108 -70.5t-114 -49t-107.5 -8.5q-41 7 -64.5 34t-34 65.5t-10.5 84.5t6.5 92t16.5 87t19 70q19 64 46.5 129.5t59.5 131t69 128.5t76 121
q10 45 26.5 86.5t39.5 80.5q-36 -5 -79 -9t-87.5 -7t-87.5 -5.5t-80 -4.5q-131 -8 -260 -15t-260 -18q-130 -11 -258.5 -28.5t-253.5 -52.5q-46 -14 -92.5 -31.5t-88.5 -41.5t-77.5 -55.5t-59.5 -72.5q-14 -23 -23 -46.5t-13 -49.5q13 5 22.5 -5t9.5 -24q0 -13 -7 -21.5
t-18 -8.5q-19 0 -23 18.5t1 44t16 53.5t22 46q25 42 61.5 74.5t79 57.5t90.5 43.5t96 32.5q127 37 255 55.5t259 30.5q131 11 260.5 18.5t260.5 14.5q118 7 201.5 12t143.5 13q15 24 34 51.5t41 54.5t46 52t49 43q75 56 156 68t151 -14t121 -87t67 -152zM1757 653
q-38 -63 -60 -132q3 4 5.5 7.5t4.5 7.5q23 32 46.5 63.5t49.5 61.5q-9 -2 -18.5 -3.5t-27.5 -4.5zM2281 241q28 49 53 103t42 110t23 113.5t-4 114.5q-10 58 -35.5 103.5t-61.5 77t-81 47.5t-94 16t-99 -17t-97 -52q-23 -17 -45.5 -39.5t-43 -47t-38.5 -50t-33 -49.5
l24.5 3.5t27.5 6.5q22 26 44 50.5t45 47.5q9 9 15.5 -1t3 -28.5t-21.5 -40t-58 -35.5q-93 -122 -169 -250q-5 -63 10.5 -114.5t46.5 -88t75 -57t96 -22.5q38 -2 83.5 7.5t96 35t104 68t107.5 107.5q5 6 10.5 1t0.5 -10q-60 -69 -115.5 -113t-106 -69.5t-96 -34.5t-85.5 -7
q-53 2 -97.5 22t-77 55t-51 84t-18.5 109q-69 -120 -117 -225t-83 -211q-13 -33 -25 -74t-20.5 -83.5t-11 -84t5 -75.5t27 -57.5t54.5 -30.5q48 -10 103.5 7.5t110.5 49t105 70t86 70.5q116 106 211.5 229t173.5 259zM1909 750l-22 -26t-22 -27q17 9 29 22t15 31zM2285 1073
q3 -4 -1 -10q-11 -12 -26 -24q-7 -6 -13.5 -12t-14.5 -11q-6 -4 -11 3q-3 5 1 9q6 7 12.5 13t13.5 12q14 14 27 22q7 5 12 -2z" />
    <glyph glyph-name="Ocircumflex" unicode="&#xd4;" horiz-adv-x="2483" 
d="M2413 685q10 -59 4.5 -118t-22.5 -116t-42 -112.5t-54 -106.5q-84 -149 -183.5 -272t-208.5 -219q-38 -33 -89.5 -72t-108 -70.5t-114 -49t-107.5 -8.5q-41 7 -64.5 34t-34 65.5t-10.5 84.5t6.5 92t16.5 87t19 70q19 64 46.5 129.5t59.5 131t69 128.5t76 121
q10 45 26.5 86.5t39.5 80.5q-36 -5 -79 -9t-87.5 -7t-87.5 -5.5t-80 -4.5q-131 -8 -260 -15t-260 -18q-130 -11 -258.5 -28.5t-253.5 -52.5q-46 -14 -92.5 -31.5t-88.5 -41.5t-77.5 -55.5t-59.5 -72.5q-14 -23 -23 -46.5t-13 -49.5q13 5 22.5 -5t9.5 -24q0 -13 -7 -21.5
t-18 -8.5q-19 0 -23 18.5t1 44t16 53.5t22 46q25 42 61.5 74.5t79 57.5t90.5 43.5t96 32.5q127 37 255 55.5t259 30.5q131 11 260.5 18.5t260.5 14.5q118 7 201.5 12t143.5 13q15 24 34 51.5t41 54.5t46 52t49 43q75 56 156 68t151 -14t121 -87t67 -152zM1757 653
q-38 -63 -60 -132q3 4 5.5 7.5t4.5 7.5q23 32 46.5 63.5t49.5 61.5q-9 -2 -18.5 -3.5t-27.5 -4.5zM2281 241q28 49 53 103t42 110t23 113.5t-4 114.5q-10 58 -35.5 103.5t-61.5 77t-81 47.5t-94 16t-99 -17t-97 -52q-23 -17 -45.5 -39.5t-43 -47t-38.5 -50t-33 -49.5
l24.5 3.5t27.5 6.5q22 26 44 50.5t45 47.5q9 9 15.5 -1t3 -28.5t-21.5 -40t-58 -35.5q-93 -122 -169 -250q-5 -63 10.5 -114.5t46.5 -88t75 -57t96 -22.5q38 -2 83.5 7.5t96 35t104 68t107.5 107.5q5 6 10.5 1t0.5 -10q-60 -69 -115.5 -113t-106 -69.5t-96 -34.5t-85.5 -7
q-53 2 -97.5 22t-77 55t-51 84t-18.5 109q-69 -120 -117 -225t-83 -211q-13 -33 -25 -74t-20.5 -83.5t-11 -84t5 -75.5t27 -57.5t54.5 -30.5q48 -10 103.5 7.5t110.5 49t105 70t86 70.5q116 106 211.5 229t173.5 259zM1909 750l-22 -26t-22 -27q17 9 29 22t15 31zM2320 1032
q7 -5 1 -11q-5 -6 -11 -2q-14 11 -28 22.5t-28 22.5q-12 -11 -23.5 -22t-24.5 -22q-6 -6 -11 1q-6 5 0 11q13 14 25.5 26t26.5 25q6 7 12 1q16 -13 31.5 -25.5t29.5 -26.5z" />
    <glyph glyph-name="Otilde" unicode="&#xd5;" horiz-adv-x="2483" 
d="M2413 685q10 -59 4.5 -118t-22.5 -116t-42 -112.5t-54 -106.5q-84 -149 -183.5 -272t-208.5 -219q-38 -33 -89.5 -72t-108 -70.5t-114 -49t-107.5 -8.5q-41 7 -64.5 34t-34 65.5t-10.5 84.5t6.5 92t16.5 87t19 70q19 64 46.5 129.5t59.5 131t69 128.5t76 121
q10 45 26.5 86.5t39.5 80.5q-36 -5 -79 -9t-87.5 -7t-87.5 -5.5t-80 -4.5q-131 -8 -260 -15t-260 -18q-130 -11 -258.5 -28.5t-253.5 -52.5q-46 -14 -92.5 -31.5t-88.5 -41.5t-77.5 -55.5t-59.5 -72.5q-14 -23 -23 -46.5t-13 -49.5q13 5 22.5 -5t9.5 -24q0 -13 -7 -21.5
t-18 -8.5q-19 0 -23 18.5t1 44t16 53.5t22 46q25 42 61.5 74.5t79 57.5t90.5 43.5t96 32.5q127 37 255 55.5t259 30.5q131 11 260.5 18.5t260.5 14.5q118 7 201.5 12t143.5 13q15 24 34 51.5t41 54.5t46 52t49 43q75 56 156 68t151 -14t121 -87t67 -152zM1757 653
q-38 -63 -60 -132q3 4 5.5 7.5t4.5 7.5q23 32 46.5 63.5t49.5 61.5q-9 -2 -18.5 -3.5t-27.5 -4.5zM2281 241q28 49 53 103t42 110t23 113.5t-4 114.5q-10 58 -35.5 103.5t-61.5 77t-81 47.5t-94 16t-99 -17t-97 -52q-23 -17 -45.5 -39.5t-43 -47t-38.5 -50t-33 -49.5
l24.5 3.5t27.5 6.5q22 26 44 50.5t45 47.5q9 9 15.5 -1t3 -28.5t-21.5 -40t-58 -35.5q-93 -122 -169 -250q-5 -63 10.5 -114.5t46.5 -88t75 -57t96 -22.5q38 -2 83.5 7.5t96 35t104 68t107.5 107.5q5 6 10.5 1t0.5 -10q-60 -69 -115.5 -113t-106 -69.5t-96 -34.5t-85.5 -7
q-53 2 -97.5 22t-77 55t-51 84t-18.5 109q-69 -120 -117 -225t-83 -211q-13 -33 -25 -74t-20.5 -83.5t-11 -84t5 -75.5t27 -57.5t54.5 -30.5q48 -10 103.5 7.5t110.5 49t105 70t86 70.5q116 106 211.5 229t173.5 259zM1909 750l-22 -26t-22 -27q17 9 29 22t15 31zM2302 1047
q3 -11 -2 -19.5t-14 -12t-20 -1t-20 13.5q-2 3 -6.5 7.5t-12.5 2.5q-5 -2 -7.5 -6t-0.5 -8q2 -9 -5.5 -10.5t-9.5 7.5q-3 10 2 19t14 12.5t20.5 1t20.5 -14.5q3 -3 7.5 -7t9.5 -3q7 1 8.5 5.5t-0.5 8.5q-2 9 6 11t10 -7z" />
    <glyph glyph-name="Odieresis" unicode="&#xd6;" horiz-adv-x="2483" 
d="M2413 685q10 -59 4.5 -118t-22.5 -116t-42 -112.5t-54 -106.5q-84 -149 -183.5 -272t-208.5 -219q-38 -33 -89.5 -72t-108 -70.5t-114 -49t-107.5 -8.5q-41 7 -64.5 34t-34 65.5t-10.5 84.5t6.5 92t16.5 87t19 70q19 64 46.5 129.5t59.5 131t69 128.5t76 121
q10 45 26.5 86.5t39.5 80.5q-36 -5 -79 -9t-87.5 -7t-87.5 -5.5t-80 -4.5q-131 -8 -260 -15t-260 -18q-130 -11 -258.5 -28.5t-253.5 -52.5q-46 -14 -92.5 -31.5t-88.5 -41.5t-77.5 -55.5t-59.5 -72.5q-14 -23 -23 -46.5t-13 -49.5q13 5 22.5 -5t9.5 -24q0 -13 -7 -21.5
t-18 -8.5q-19 0 -23 18.5t1 44t16 53.5t22 46q25 42 61.5 74.5t79 57.5t90.5 43.5t96 32.5q127 37 255 55.5t259 30.5q131 11 260.5 18.5t260.5 14.5q118 7 201.5 12t143.5 13q15 24 34 51.5t41 54.5t46 52t49 43q75 56 156 68t151 -14t121 -87t67 -152zM1757 653
q-38 -63 -60 -132q3 4 5.5 7.5t4.5 7.5q23 32 46.5 63.5t49.5 61.5q-9 -2 -18.5 -3.5t-27.5 -4.5zM2281 241q28 49 53 103t42 110t23 113.5t-4 114.5q-10 58 -35.5 103.5t-61.5 77t-81 47.5t-94 16t-99 -17t-97 -52q-23 -17 -45.5 -39.5t-43 -47t-38.5 -50t-33 -49.5
l24.5 3.5t27.5 6.5q22 26 44 50.5t45 47.5q9 9 15.5 -1t3 -28.5t-21.5 -40t-58 -35.5q-93 -122 -169 -250q-5 -63 10.5 -114.5t46.5 -88t75 -57t96 -22.5q38 -2 83.5 7.5t96 35t104 68t107.5 107.5q5 6 10.5 1t0.5 -10q-60 -69 -115.5 -113t-106 -69.5t-96 -34.5t-85.5 -7
q-53 2 -97.5 22t-77 55t-51 84t-18.5 109q-69 -120 -117 -225t-83 -211q-13 -33 -25 -74t-20.5 -83.5t-11 -84t5 -75.5t27 -57.5t54.5 -30.5q48 -10 103.5 7.5t110.5 49t105 70t86 70.5q116 106 211.5 229t173.5 259zM1909 750l-22 -26t-22 -27q17 9 29 22t15 31zM2196 1032
q0 9 5.5 14t12 6t12 -3t5.5 -13t-5.5 -14t-12 -5.5t-12 3t-5.5 12.5zM2275 1032q0 9 5.5 14t12 6t12 -3t5.5 -13t-5.5 -14t-12 -5.5t-12 3t-5.5 12.5z" />
    <glyph glyph-name="multiply" unicode="&#xd7;" horiz-adv-x="468" 
d="M295 206q4 -2 2 -5q0 -3 -4 -3q-17 2 -42.5 -18t-63.5 -52q8 -10 15.5 -21.5t12 -23t4.5 -23.5t-7 -22q-2 -4 -5 -1q-2 1 -2 5q6 16 -5 33t-30 40q-10 -8 -24.5 -19.5t-31 -21.5t-33 -16t-28.5 -3q-4 2 -2 5q0 2 4 2q17 1 42 21t60 49q-19 25 -27.5 46t6.5 45q2 4 5 1
q3 -1 1 -5q-4 -9 -1.5 -19t7.5 -19.5t12.5 -18.5t13.5 -17q10 8 25.5 20t32.5 22.5t34 16.5t29 2z" />
    <glyph glyph-name="Oslash" unicode="&#xd8;" horiz-adv-x="2483" 
d="M2303 881q42 -33 71 -82t40 -113q10 -59 4.5 -118t-22.5 -116.5t-42 -112.5t-54 -107q-84 -149 -183.5 -272t-208.5 -218q-38 -33 -89.5 -72t-108 -70.5t-114 -49.5t-107.5 -9q-23 5 -41 15l-90 -140q-3 -5 -9 -5q-4 0 -6 2q-4 2 -4.5 6.5t1.5 8.5l91 141q-22 20 -34 51
t-15.5 68t-0.5 77t9.5 78.5t15 72t16.5 58.5q19 64 46.5 130t59.5 131t69 128.5t76 121.5q10 45 26.5 86t39.5 80q-36 -5 -79 -8.5t-87.5 -6.5t-87.5 -6t-80 -5q-131 -8 -260 -14.5t-260 -17.5q-130 -12 -258.5 -29t-253.5 -53q-46 -13 -92.5 -31t-88.5 -42t-77.5 -55.5
t-59.5 -72.5q-14 -22 -23 -46t-13 -49q13 5 22.5 -5t9.5 -24q0 -13 -7 -22t-18 -9q-19 0 -23 18.5t1 44.5t16 54t22 46q25 42 61.5 74t79 57t90.5 43.5t96 33.5q127 37 255 55t259 30q131 11 260.5 19t260.5 15q118 6 201.5 11t143.5 13q15 24 34 52t41 55t46 51.5t49 42.5
q46 34 95 52t96.5 20t92 -10.5t82.5 -37.5l60 92q2 4 6.5 5t8.5 -1q8 -6 3 -15zM2282 242q28 49 53 102.5t42 109.5t23 113.5t-4 114.5q-10 61 -37 107.5t-65 77.5l-459 -712q17 -5 34.5 -8.5t37.5 -4.5q38 -2 83.5 7.5t96 35t104 68.5t107.5 108q5 5 10.5 0.5t0.5 -10.5
q-60 -68 -115.5 -112.5t-106 -70t-96 -34.5t-85.5 -7q-21 1 -41 5t-38 11l-369 -573q17 -10 34 -13q48 -10 103.5 7t110.5 48.5t105 70t86 71.5q116 106 211.5 229t173.5 259zM1679 425q-4 -48 4 -89.5t26 -74.5t45 -57.5t60 -39.5l462 716q-36 25 -78.5 36.5t-88 9.5
t-92 -19t-89.5 -49q-23 -17 -45.5 -39.5t-43 -47t-38.5 -50.5t-33 -49l24.5 3.5t27.5 5.5q22 26 44 50.5t45 48.5q9 9 15.5 -1.5t3 -29t-21.5 -40t-58 -35.5q-46 -60 -88.5 -122t-80.5 -127zM1462 -38q-16 -42 -31.5 -96t-22 -107.5t-0.5 -100t33 -74.5l365 567
q-66 30 -105 93.5t-39 152.5q-69 -119 -117 -224.5t-83 -210.5zM1758 654q-38 -63 -60 -132l10 14q23 32 46.5 63.5t49.5 62.5zM1866 698q17 8 29 21.5t15 31.5z" />
    <glyph glyph-name="Ugrave" unicode="&#xd9;" horiz-adv-x="2030" 
d="M2097 696q8 6 12 -0.5t-7.5 -33.5t-44.5 -77.5t-99 -133.5q-56 -105 -103 -218.5t-81.5 -222t-54 -205t-19.5 -167.5q0 -67 19 -105.5t61 -38.5q28 0 61 16q8 3 11 -4t-5 -10q-35 -13 -63 -13q-60 0 -87.5 53t-27.5 140q0 64 13.5 142t38 163t59.5 174.5t78 175.5
q-28 -34 -56 -67t-57 -66q-78 -91 -129.5 -149t-85.5 -94t-56 -56.5t-43 -35.5q-53 -37 -87 -37q-36 0 -52 36.5t-16 96.5q0 52 10 117.5t26.5 134.5t37 137t42.5 127q35 96 78.5 193t97.5 185q-34 -8 -76.5 -14t-87.5 -10.5t-88 -7.5t-79 -6q-115 -8 -229 -13.5t-229 -15.5
q-75 -6 -164 -16t-178.5 -28.5t-171.5 -47.5t-142 -73q-41 -30 -69.5 -73t-36.5 -93q11 4 18.5 -5t7.5 -20t-6 -19t-15 -8q-11 0 -16.5 9.5t-5.5 26.5q0 18 7 42.5t21 51t35.5 52.5t50.5 48q62 45 145 75t173 49t180 30t166 18q115 10 229 16.5t229 13.5q109 7 198 14.5
t146 21.5q14 21 28.5 41.5t33.5 38.5q17 17 32.5 9.5t15.5 -25.5q0 -17 -19 -37.5t-68 -35.5q-24 -42 -48 -95.5t-46.5 -109t-42 -107t-32.5 -90.5q-20 -60 -42.5 -132t-42 -144.5t-32 -139t-12.5 -114.5q0 -40 10 -63t35 -23q28 0 72 31q20 14 42.5 34t57 56t86 93
t130.5 146q36 42 71.5 84t70.5 84q9 18 24.5 46t34.5 60.5t40.5 66.5t42.5 64t40.5 53t34.5 34zM1654 939q-22 -26 -40 -58q33 12 46.5 26.5t14.5 25t-6 13.5t-15 -7zM1990 510q10 13 25.5 33.5t30.5 43.5t28 45t18 38q-12 -14 -26 -35t-28 -43.5t-26.5 -44t-21.5 -37.5z
M1953 904q6 -6 -1 -11q-5 -5 -10 -1q-8 5 -14.5 11t-12.5 12q-7 6 -13.5 11.5t-12.5 12.5q-5 7 1 12q5 3 10 0q8 -5 14 -10.5t13 -11.5t13.5 -12t12.5 -13z" />
    <glyph glyph-name="Uacute" unicode="&#xda;" horiz-adv-x="2030" 
d="M2097 696q8 6 12 -0.5t-7.5 -33.5t-44.5 -77.5t-99 -133.5q-56 -105 -103 -218.5t-81.5 -222t-54 -205t-19.5 -167.5q0 -67 19 -105.5t61 -38.5q28 0 61 16q8 3 11 -4t-5 -10q-35 -13 -63 -13q-60 0 -87.5 53t-27.5 140q0 64 13.5 142t38 163t59.5 174.5t78 175.5
q-28 -34 -56 -67t-57 -66q-78 -91 -129.5 -149t-85.5 -94t-56 -56.5t-43 -35.5q-53 -37 -87 -37q-36 0 -52 36.5t-16 96.5q0 52 10 117.5t26.5 134.5t37 137t42.5 127q35 96 78.5 193t97.5 185q-34 -8 -76.5 -14t-87.5 -10.5t-88 -7.5t-79 -6q-115 -8 -229 -13.5t-229 -15.5
q-75 -6 -164 -16t-178.5 -28.5t-171.5 -47.5t-142 -73q-41 -30 -69.5 -73t-36.5 -93q11 4 18.5 -5t7.5 -20t-6 -19t-15 -8q-11 0 -16.5 9.5t-5.5 26.5q0 18 7 42.5t21 51t35.5 52.5t50.5 48q62 45 145 75t173 49t180 30t166 18q115 10 229 16.5t229 13.5q109 7 198 14.5
t146 21.5q14 21 28.5 41.5t33.5 38.5q17 17 32.5 9.5t15.5 -25.5q0 -17 -19 -37.5t-68 -35.5q-24 -42 -48 -95.5t-46.5 -109t-42 -107t-32.5 -90.5q-20 -60 -42.5 -132t-42 -144.5t-32 -139t-12.5 -114.5q0 -40 10 -63t35 -23q28 0 72 31q20 14 42.5 34t57 56t86 93
t130.5 146q36 42 71.5 84t70.5 84q9 18 24.5 46t34.5 60.5t40.5 66.5t42.5 64t40.5 53t34.5 34zM1654 939q-22 -26 -40 -58q33 12 46.5 26.5t14.5 25t-6 13.5t-15 -7zM1990 510q10 13 25.5 33.5t30.5 43.5t28 45t18 38q-12 -14 -26 -35t-28 -43.5t-26.5 -44t-21.5 -37.5z
M1954 945q3 -4 -1 -10q-11 -12 -26 -24q-7 -6 -13.5 -12t-14.5 -11q-6 -4 -11 3q-3 5 1 9q6 7 12.5 13t13.5 12q14 14 27 22q7 5 12 -2z" />
    <glyph glyph-name="Ucircumflex" unicode="&#xdb;" horiz-adv-x="2030" 
d="M2097 696q8 6 12 -0.5t-7.5 -33.5t-44.5 -77.5t-99 -133.5q-56 -105 -103 -218.5t-81.5 -222t-54 -205t-19.5 -167.5q0 -67 19 -105.5t61 -38.5q28 0 61 16q8 3 11 -4t-5 -10q-35 -13 -63 -13q-60 0 -87.5 53t-27.5 140q0 64 13.5 142t38 163t59.5 174.5t78 175.5
q-28 -34 -56 -67t-57 -66q-78 -91 -129.5 -149t-85.5 -94t-56 -56.5t-43 -35.5q-53 -37 -87 -37q-36 0 -52 36.5t-16 96.5q0 52 10 117.5t26.5 134.5t37 137t42.5 127q35 96 78.5 193t97.5 185q-34 -8 -76.5 -14t-87.5 -10.5t-88 -7.5t-79 -6q-115 -8 -229 -13.5t-229 -15.5
q-75 -6 -164 -16t-178.5 -28.5t-171.5 -47.5t-142 -73q-41 -30 -69.5 -73t-36.5 -93q11 4 18.5 -5t7.5 -20t-6 -19t-15 -8q-11 0 -16.5 9.5t-5.5 26.5q0 18 7 42.5t21 51t35.5 52.5t50.5 48q62 45 145 75t173 49t180 30t166 18q115 10 229 16.5t229 13.5q109 7 198 14.5
t146 21.5q14 21 28.5 41.5t33.5 38.5q17 17 32.5 9.5t15.5 -25.5q0 -17 -19 -37.5t-68 -35.5q-24 -42 -48 -95.5t-46.5 -109t-42 -107t-32.5 -90.5q-20 -60 -42.5 -132t-42 -144.5t-32 -139t-12.5 -114.5q0 -40 10 -63t35 -23q28 0 72 31q20 14 42.5 34t57 56t86 93
t130.5 146q36 42 71.5 84t70.5 84q9 18 24.5 46t34.5 60.5t40.5 66.5t42.5 64t40.5 53t34.5 34zM1654 939q-22 -26 -40 -58q33 12 46.5 26.5t14.5 25t-6 13.5t-15 -7zM1990 510q10 13 25.5 33.5t30.5 43.5t28 45t18 38q-12 -14 -26 -35t-28 -43.5t-26.5 -44t-21.5 -37.5z
M1989 904q7 -5 1 -11q-5 -6 -11 -2q-14 11 -28 22.5t-28 22.5q-12 -11 -23.5 -22t-24.5 -22q-6 -6 -11 1q-6 5 0 11q13 14 25.5 26t26.5 25q6 7 12 1q16 -13 31.5 -25.5t29.5 -26.5z" />
    <glyph glyph-name="Udieresis" unicode="&#xdc;" horiz-adv-x="2030" 
d="M2097 696q8 6 12 -0.5t-7.5 -33.5t-44.5 -77.5t-99 -133.5q-56 -105 -103 -218.5t-81.5 -222t-54 -205t-19.5 -167.5q0 -67 19 -105.5t61 -38.5q28 0 61 16q8 3 11 -4t-5 -10q-35 -13 -63 -13q-60 0 -87.5 53t-27.5 140q0 64 13.5 142t38 163t59.5 174.5t78 175.5
q-28 -34 -56 -67t-57 -66q-78 -91 -129.5 -149t-85.5 -94t-56 -56.5t-43 -35.5q-53 -37 -87 -37q-36 0 -52 36.5t-16 96.5q0 52 10 117.5t26.5 134.5t37 137t42.5 127q35 96 78.5 193t97.5 185q-34 -8 -76.5 -14t-87.5 -10.5t-88 -7.5t-79 -6q-115 -8 -229 -13.5t-229 -15.5
q-75 -6 -164 -16t-178.5 -28.5t-171.5 -47.5t-142 -73q-41 -30 -69.5 -73t-36.5 -93q11 4 18.5 -5t7.5 -20t-6 -19t-15 -8q-11 0 -16.5 9.5t-5.5 26.5q0 18 7 42.5t21 51t35.5 52.5t50.5 48q62 45 145 75t173 49t180 30t166 18q115 10 229 16.5t229 13.5q109 7 198 14.5
t146 21.5q14 21 28.5 41.5t33.5 38.5q17 17 32.5 9.5t15.5 -25.5q0 -17 -19 -37.5t-68 -35.5q-24 -42 -48 -95.5t-46.5 -109t-42 -107t-32.5 -90.5q-20 -60 -42.5 -132t-42 -144.5t-32 -139t-12.5 -114.5q0 -40 10 -63t35 -23q28 0 72 31q20 14 42.5 34t57 56t86 93
t130.5 146q36 42 71.5 84t70.5 84q9 18 24.5 46t34.5 60.5t40.5 66.5t42.5 64t40.5 53t34.5 34zM1654 939q-22 -26 -40 -58q33 12 46.5 26.5t14.5 25t-6 13.5t-15 -7zM1990 510q10 13 25.5 33.5t30.5 43.5t28 45t18 38q-12 -14 -26 -35t-28 -43.5t-26.5 -44t-21.5 -37.5z
M1865 904q0 9 5.5 14t12 6t12 -3t5.5 -13t-5.5 -14t-12 -5.5t-12 3t-5.5 12.5zM1944 904q0 9 5.5 14t12 6t12 -3t5.5 -13t-5.5 -14t-12 -5.5t-12 3t-5.5 12.5z" />
    <glyph glyph-name="Yacute" unicode="&#xdd;" horiz-adv-x="2028" 
d="M2048 708q4 4 9 3.5t8 -6.5t2.5 -16t-7.5 -25q-8 -16 -20.5 -36t-27 -40t-28.5 -39t-25 -33q-31 -70 -62 -155t-64 -177.5t-68.5 -188t-76 -187t-87.5 -174.5t-102 -149q-42 -51 -87.5 -88t-91 -61t-90 -35t-86.5 -11q-52 0 -96.5 16.5t-77 47.5t-50.5 74.5t-16 97.5
q1 64 27 127t75 114.5t119.5 87.5t160.5 47q14 2 33 3.5t42 1.5q37 0 79.5 -4.5t81.5 -15t70.5 -28.5t47.5 -46q37 84 68 162t58.5 152t54 145.5t56.5 142.5q-33 -40 -66.5 -79.5t-68.5 -78.5q-54 -62 -107.5 -121.5t-101.5 -106.5t-89 -76t-70 -29q-27 0 -42 29t-15 97
q0 13 0.5 26.5t1.5 28.5q4 51 17 112.5t31.5 128t42.5 134.5t50 132.5t54 122t55 102.5q-34 -8 -76.5 -13.5t-87.5 -10t-88 -8t-79 -5.5q-115 -8 -229 -13.5t-229 -15.5q-75 -7 -164 -17t-178.5 -28t-172 -47t-142.5 -73q-40 -30 -69 -73t-37 -93q12 4 19.5 -5t7.5 -21
q0 -11 -6.5 -18.5t-15.5 -7.5q-11 0 -16.5 9.5t-5.5 25.5q0 18 7 43t21.5 51t36 52.5t50.5 47.5q61 45 144 75t173 49.5t180 30t166 17.5q115 10 229 16.5t229 13.5q37 3 84.5 6t95.5 7.5t91 10t73 13.5q14 20 30.5 43t33.5 40q18 17 33.5 10t15.5 -26q0 -17 -17 -37.5
t-61 -35.5q-26 -47 -52.5 -105.5t-52 -124t-49.5 -135t-44 -137t-36 -131t-25 -116.5q-5 -29 -7.5 -51.5t-2.5 -40.5q0 -37 10 -53.5t27 -16.5q25 0 64.5 30t86.5 77t98 105.5t100 114.5q42 50 83.5 99t83.5 100q9 21 18.5 41.5t20.5 40.5q21 42 48.5 85t61.5 76zM1466 -488
q51 63 90 133t73 143q-3 1 -3 4q-12 29 -42 48t-68.5 30t-81 15.5t-78.5 4.5q-20 0 -37.5 -1t-30.5 -3q-87 -10 -155.5 -44.5t-115.5 -84t-71.5 -110t-23.5 -121.5q0 -48 16 -86.5t44 -65t66.5 -40.5t83.5 -14q39 0 81.5 11t85.5 34.5t85.5 60t81.5 86.5zM1661 922
q-10 -12 -18.5 -25t-16.5 -27q27 11 38 23.5t12.5 21.5t-4 12t-11.5 -5zM1993 587q13 17 28.5 40.5t24.5 43.5q-15 -20 -28 -40.5t-25 -43.5zM1879 923q3 -4 -1 -10q-11 -12 -26 -24q-7 -6 -13.5 -12t-14.5 -11q-6 -4 -11 3q-3 5 1 9q6 7 12.5 13t13.5 12q14 14 27 22
q7 5 12 -2z" />
    <glyph glyph-name="Thorn" unicode="&#xde;" horiz-adv-x="626" 
d="M379 185q-22 -26 -48 -42.5t-51 -22t-45.5 0.5t-31.5 27q-11 -26 -26.5 -62t-34.5 -72t-40.5 -66.5t-42.5 -44.5q-5 -3 -8 1t1 8q21 19 44.5 66t48 107t50.5 127t53.5 128t55 108.5t56.5 68.5q4 3 7.5 -0.5t-0.5 -7.5q-17 -17 -30 -41.5t-27 -57.5q29 27 57.5 36
t49.5 1.5t32 -31t5 -60.5q-3 -21 -10 -44.5t-17 -46.5t-22.5 -43.5t-25.5 -36.5zM213 170q1 -19 15 -28.5t35 -7t46 18.5t48 49q9 13 19.5 33.5t20.5 42.5t18 44t12 39q7 30 1 46.5t-19.5 22t-32 1t-37 -16.5t-34.5 -30.5t-24 -40.5l-34.5 -87t-17 -43t-8 -21.5t-8.5 -21.5z
" />
    <glyph glyph-name="agrave" unicode="&#xe0;" horiz-adv-x="353" 
d="M360 198q8 0 8 -8q0 -1 -2 -5q-17 -17 -42.5 -44t-56 -57t-64 -60t-66 -54t-61.5 -39t-50 -15q-38 0 -38 52q0 32 13 74q8 23 15.5 44.5t16.5 41.5q-5 -6 -8.5 -11t-8.5 -10q-20 -25 -35 -35.5t-26 -10.5q-10 0 -14.5 8t-4.5 21q0 20 9.5 41.5t25 39.5t35.5 30t41 12
q14 0 24 -8q5 10 13 13.5t16 3.5q12 0 12 -4q-18 -45 -40.5 -94.5t-37.5 -92.5q-16 -44 -16 -68q0 -27 21 -27q17 0 43 15t56.5 39t63 53.5t62 58t53.5 53.5t38 40q1 3 5 3zM-39 76q8 0 23 14.5t30.5 34t29.5 38t19 26.5q0 1 1 2q-4 4 -10 4q-13 0 -30 -13.5t-32 -32.5
t-25 -38t-10 -30q0 -5 4 -5zM101 294q6 -6 -1 -11q-5 -5 -10 -1q-8 5 -14.5 11t-12.5 12q-7 6 -13.5 11.5t-12.5 12.5q-5 7 1 12q5 3 10 0q8 -5 14 -10.5t13 -11.5t13.5 -12t12.5 -13z" />
    <glyph glyph-name="aacute" unicode="&#xe1;" horiz-adv-x="353" 
d="M360 198q8 0 8 -8q0 -1 -2 -5q-17 -17 -42.5 -44t-56 -57t-64 -60t-66 -54t-61.5 -39t-50 -15q-38 0 -38 52q0 32 13 74q8 23 15.5 44.5t16.5 41.5q-5 -6 -8.5 -11t-8.5 -10q-20 -25 -35 -35.5t-26 -10.5q-10 0 -14.5 8t-4.5 21q0 20 9.5 41.5t25 39.5t35.5 30t41 12
q14 0 24 -8q5 10 13 13.5t16 3.5q12 0 12 -4q-18 -45 -40.5 -94.5t-37.5 -92.5q-16 -44 -16 -68q0 -27 21 -27q17 0 43 15t56.5 39t63 53.5t62 58t53.5 53.5t38 40q1 3 5 3zM-39 76q8 0 23 14.5t30.5 34t29.5 38t19 26.5q0 1 1 2q-4 4 -10 4q-13 0 -30 -13.5t-32 -32.5
t-25 -38t-10 -30q0 -5 4 -5zM102 335q3 -4 -1 -10q-11 -12 -26 -24q-7 -6 -13.5 -12t-14.5 -11q-6 -4 -11 3q-3 5 1 9q6 7 12.5 13t13.5 12q14 14 27 22q7 5 12 -2z" />
    <glyph glyph-name="acircumflex" unicode="&#xe2;" horiz-adv-x="353" 
d="M360 198q8 0 8 -8q0 -1 -2 -5q-17 -17 -42.5 -44t-56 -57t-64 -60t-66 -54t-61.5 -39t-50 -15q-38 0 -38 52q0 32 13 74q8 23 15.5 44.5t16.5 41.5q-5 -6 -8.5 -11t-8.5 -10q-20 -25 -35 -35.5t-26 -10.5q-10 0 -14.5 8t-4.5 21q0 20 9.5 41.5t25 39.5t35.5 30t41 12
q14 0 24 -8q5 10 13 13.5t16 3.5q12 0 12 -4q-18 -45 -40.5 -94.5t-37.5 -92.5q-16 -44 -16 -68q0 -27 21 -27q17 0 43 15t56.5 39t63 53.5t62 58t53.5 53.5t38 40q1 3 5 3zM-39 76q8 0 23 14.5t30.5 34t29.5 38t19 26.5q0 1 1 2q-4 4 -10 4q-13 0 -30 -13.5t-32 -32.5
t-25 -38t-10 -30q0 -5 4 -5zM137 294q7 -5 1 -11q-5 -6 -11 -2q-14 11 -28 22.5t-28 22.5q-12 -11 -23.5 -22t-24.5 -22q-6 -6 -11 1q-6 5 0 11q13 14 25.5 26t26.5 25q6 7 12 1q16 -13 31.5 -25.5t29.5 -26.5z" />
    <glyph glyph-name="atilde" unicode="&#xe3;" horiz-adv-x="353" 
d="M360 198q8 0 8 -8q0 -1 -2 -5q-17 -17 -42.5 -44t-56 -57t-64 -60t-66 -54t-61.5 -39t-50 -15q-38 0 -38 52q0 32 13 74q8 23 15.5 44.5t16.5 41.5q-5 -6 -8.5 -11t-8.5 -10q-20 -25 -35 -35.5t-26 -10.5q-10 0 -14.5 8t-4.5 21q0 20 9.5 41.5t25 39.5t35.5 30t41 12
q14 0 24 -8q5 10 13 13.5t16 3.5q12 0 12 -4q-18 -45 -40.5 -94.5t-37.5 -92.5q-16 -44 -16 -68q0 -27 21 -27q17 0 43 15t56.5 39t63 53.5t62 58t53.5 53.5t38 40q1 3 5 3zM-39 76q8 0 23 14.5t30.5 34t29.5 38t19 26.5q0 1 1 2q-4 4 -10 4q-13 0 -30 -13.5t-32 -32.5
t-25 -38t-10 -30q0 -5 4 -5zM119 309q3 -11 -2 -19.5t-14 -12t-20 -1t-20 13.5q-2 3 -6.5 7.5t-12.5 2.5q-5 -2 -7.5 -6t-0.5 -8q2 -9 -5.5 -10.5t-9.5 7.5q-3 10 2 19t14 12.5t20.5 1t20.5 -14.5q3 -3 7.5 -7t9.5 -3q7 1 8.5 5.5t-0.5 8.5q-2 9 6 11t10 -7z" />
    <glyph glyph-name="adieresis" unicode="&#xe4;" horiz-adv-x="353" 
d="M360 198q8 0 8 -8q0 -1 -2 -5q-17 -17 -42.5 -44t-56 -57t-64 -60t-66 -54t-61.5 -39t-50 -15q-38 0 -38 52q0 32 13 74q8 23 15.5 44.5t16.5 41.5q-5 -6 -8.5 -11t-8.5 -10q-20 -25 -35 -35.5t-26 -10.5q-10 0 -14.5 8t-4.5 21q0 20 9.5 41.5t25 39.5t35.5 30t41 12
q14 0 24 -8q5 10 13 13.5t16 3.5q12 0 12 -4q-18 -45 -40.5 -94.5t-37.5 -92.5q-16 -44 -16 -68q0 -27 21 -27q17 0 43 15t56.5 39t63 53.5t62 58t53.5 53.5t38 40q1 3 5 3zM-39 76q8 0 23 14.5t30.5 34t29.5 38t19 26.5q0 1 1 2q-4 4 -10 4q-13 0 -30 -13.5t-32 -32.5
t-25 -38t-10 -30q0 -5 4 -5zM13 294q0 9 5.5 14t12 6t12 -3t5.5 -13t-5.5 -14t-12 -5.5t-12 3t-5.5 12.5zM92 294q0 9 5.5 14t12 6t12 -3t5.5 -13t-5.5 -14t-12 -5.5t-12 3t-5.5 12.5z" />
    <glyph glyph-name="aring" unicode="&#xe5;" horiz-adv-x="353" 
d="M360 198q8 0 8 -8q0 -1 -2 -5q-17 -17 -42.5 -44t-56 -57t-64 -60t-66 -54t-61.5 -39t-50 -15q-38 0 -38 52q0 32 13 74q8 23 15.5 44.5t16.5 41.5q-5 -6 -8.5 -11t-8.5 -10q-20 -25 -35 -35.5t-26 -10.5q-10 0 -14.5 8t-4.5 21q0 20 9.5 41.5t25 39.5t35.5 30t41 12
q14 0 24 -8q5 10 13 13.5t16 3.5q12 0 12 -4q-18 -45 -40.5 -94.5t-37.5 -92.5q-16 -44 -16 -68q0 -27 21 -27q17 0 43 15t56.5 39t63 53.5t62 58t53.5 53.5t38 40q1 3 5 3zM-39 76q8 0 23 14.5t30.5 34t29.5 38t19 26.5q0 1 1 2q-4 4 -10 4q-13 0 -30 -13.5t-32 -32.5
t-25 -38t-10 -30q0 -5 4 -5zM95 348q6 -5 8.5 -12.5t2.5 -13.5q0 -15 -9 -25q-9 -11 -23 -14q-15 -3 -28 6q-6 5 -9 12.5t-3 14.5q0 15 10 25q10 11 24 13q15 3 27 -6zM71 301q8 2 13 7.5t5 13.5t-5 11.5t-13 2.5q-18 -3 -18 -20t18 -15z" />
    <glyph glyph-name="ae" unicode="&#xe6;" horiz-adv-x="388" 
d="M389 197q6 6 11 0.5t0 -10.5q-27 -24 -65.5 -54.5t-79 -60t-78 -55t-64.5 -39.5q-45 -22 -70.5 -17.5t-35 26.5t-4.5 55.5t20 69.5q-14 -17 -32 -34t-34 -17q-19 0 -19 29q0 28 15 54.5t37 44t45 23t40 -9.5q5 7 10.5 12.5t10.5 11.5q25 24 43 28.5t28.5 -3t12 -24
t-7.5 -33.5q-13 -26 -39 -36.5t-55 -9.5q-5 -9 -9.5 -18.5t-8.5 -18.5q-16 -38 -24.5 -67.5t-5 -47t21.5 -20.5t55 14q16 8 39.5 23t50.5 34t55 40.5t54 42t47.5 38t35.5 29.5zM-37 75q7 0 23 15.5t32.5 35.5t30 39t16.5 25q-8 11 -25.5 0.5t-35.5 -30.5t-31.5 -43
t-13.5 -37q0 -5 4 -5zM116 209q-18 -24 -30 -46q19 0 40 6.5t32 31.5q5 10 5 20.5t-5 15t-15.5 -1t-26.5 -26.5z" />
    <glyph glyph-name="ccedilla" unicode="&#xe7;" 
d="M-13 -53q13 -3 22 -15q8 -15 0 -28q-8 -15 -31 -15l-26 -1q-9 0 -9 9.5t9 9.5l26 1q14 0 14 10.5t-15 10.5q-9 0 -9 9v22q-39 8 -39 63q0 33 15 73.5t37.5 76t48.5 59.5t49 24q15 0 23 -10t8 -26q0 -25 -19 -47q-5 -6 -11 -1t-1 11q16 19 16 37q0 8 -3 13t-10 5
q-10 0 -23 -12.5t-27 -32.5t-27 -45t-23.5 -50.5t-17 -49t-6.5 -39.5q0 -34 28 -34q21 0 51 13.5t63.5 35t67.5 47.5t63.5 50.5t52.5 45t34 29.5q6 6 10.5 0.5t-0.5 -10.5q-8 -7 -28.5 -25.5t-50 -43t-64.5 -51.5t-70 -50t-68.5 -38.5t-59.5 -17.5v-13z" />
    <glyph glyph-name="egrave" unicode="&#xe8;" 
d="M317 196q7 6 11.5 0.5t-0.5 -10.5q-27 -24 -65.5 -54.5t-79 -60t-78 -55t-64.5 -39.5q-20 -10 -35 -14t-27 -4q-26 0 -38 17t-12 44q0 23 7.5 49.5t20.5 54.5q13 27 29 53t39 48q17 17 30.5 24t24.5 7q14 0 21 -10t7 -24q0 -15 -7 -29q-14 -26 -40 -36.5t-55 -9.5
q-5 -9 -9.5 -18.5t-8.5 -18.5q-14 -32 -22 -58.5t-8 -44.5q0 -32 27 -32q9 0 21.5 3t28.5 11q25 12 64.5 39t81 58.5t79 61.5t57.5 48zM44 208q-18 -24 -30 -46q19 0 40 6.5t32 31.5q5 10 5 20.5t-5 15t-15.5 -1t-26.5 -26.5zM121 324q6 -6 -1 -11q-5 -5 -10 -1
q-8 5 -14.5 11t-12.5 12q-7 6 -13.5 11.5t-12.5 12.5q-5 7 1 12q5 3 10 0q8 -5 14 -10.5t13 -11.5t13.5 -12t12.5 -13z" />
    <glyph glyph-name="eacute" unicode="&#xe9;" 
d="M317 196q7 6 11.5 0.5t-0.5 -10.5q-27 -24 -65.5 -54.5t-79 -60t-78 -55t-64.5 -39.5q-20 -10 -35 -14t-27 -4q-26 0 -38 17t-12 44q0 23 7.5 49.5t20.5 54.5q13 27 29 53t39 48q17 17 30.5 24t24.5 7q14 0 21 -10t7 -24q0 -15 -7 -29q-14 -26 -40 -36.5t-55 -9.5
q-5 -9 -9.5 -18.5t-8.5 -18.5q-14 -32 -22 -58.5t-8 -44.5q0 -32 27 -32q9 0 21.5 3t28.5 11q25 12 64.5 39t81 58.5t79 61.5t57.5 48zM44 208q-18 -24 -30 -46q19 0 40 6.5t32 31.5q5 10 5 20.5t-5 15t-15.5 -1t-26.5 -26.5zM122 365q3 -4 -1 -10q-11 -12 -26 -24
q-7 -6 -13.5 -12t-14.5 -11q-6 -4 -11 3q-3 5 1 9q6 7 12.5 13t13.5 12q14 14 27 22q7 5 12 -2z" />
    <glyph glyph-name="ecircumflex" unicode="&#xea;" 
d="M317 196q7 6 11.5 0.5t-0.5 -10.5q-27 -24 -65.5 -54.5t-79 -60t-78 -55t-64.5 -39.5q-20 -10 -35 -14t-27 -4q-26 0 -38 17t-12 44q0 23 7.5 49.5t20.5 54.5q13 27 29 53t39 48q17 17 30.5 24t24.5 7q14 0 21 -10t7 -24q0 -15 -7 -29q-14 -26 -40 -36.5t-55 -9.5
q-5 -9 -9.5 -18.5t-8.5 -18.5q-14 -32 -22 -58.5t-8 -44.5q0 -32 27 -32q9 0 21.5 3t28.5 11q25 12 64.5 39t81 58.5t79 61.5t57.5 48zM44 208q-18 -24 -30 -46q19 0 40 6.5t32 31.5q5 10 5 20.5t-5 15t-15.5 -1t-26.5 -26.5zM157 324q7 -5 1 -11q-5 -6 -11 -2
q-14 11 -28 22.5t-28 22.5q-12 -11 -23.5 -22t-24.5 -22q-6 -6 -11 1q-6 5 0 11q13 14 25.5 26t26.5 25q6 7 12 1q16 -13 31.5 -25.5t29.5 -26.5z" />
    <glyph glyph-name="edieresis" unicode="&#xeb;" 
d="M317 196q7 6 11.5 0.5t-0.5 -10.5q-27 -24 -65.5 -54.5t-79 -60t-78 -55t-64.5 -39.5q-20 -10 -35 -14t-27 -4q-26 0 -38 17t-12 44q0 23 7.5 49.5t20.5 54.5q13 27 29 53t39 48q17 17 30.5 24t24.5 7q14 0 21 -10t7 -24q0 -15 -7 -29q-14 -26 -40 -36.5t-55 -9.5
q-5 -9 -9.5 -18.5t-8.5 -18.5q-14 -32 -22 -58.5t-8 -44.5q0 -32 27 -32q9 0 21.5 3t28.5 11q25 12 64.5 39t81 58.5t79 61.5t57.5 48zM44 208q-18 -24 -30 -46q19 0 40 6.5t32 31.5q5 10 5 20.5t-5 15t-15.5 -1t-26.5 -26.5zM33 324q0 9 5.5 14t12 6t12 -3t5.5 -13
t-5.5 -14t-12 -5.5t-12 3t-5.5 12.5zM112 324q0 9 5.5 14t12 6t12 -3t5.5 -13t-5.5 -14t-12 -5.5t-12 3t-5.5 12.5z" />
    <glyph glyph-name="igrave" unicode="&#xec;" horiz-adv-x="261" 
d="M261 195q5 5 10.5 0t0.5 -10q-24 -23 -55.5 -50t-66 -53t-68.5 -49.5t-63 -39.5q-39 -21 -62 -21q-32 0 -32 37q0 21 7.5 44.5t18.5 48.5t25 51t27 50q5 7 13 11.5t15.5 5.5t12.5 -0.5t3 -5.5q-9 -18 -24.5 -47t-30.5 -60t-26 -59.5t-11 -46.5q0 -15 14 -13t43 18
q28 16 62 39t68 49t65 52.5t54 48.5zM82 305q6 -6 -1 -11q-5 -5 -10 -1q-8 5 -14.5 11t-12.5 12q-7 6 -13.5 11.5t-12.5 12.5q-5 7 1 12q5 3 10 0q8 -5 14 -10.5t13 -11.5t13.5 -12t12.5 -13z" />
    <glyph glyph-name="iacute" unicode="&#xed;" horiz-adv-x="261" 
d="M261 195q5 5 10.5 0t0.5 -10q-24 -23 -55.5 -50t-66 -53t-68.5 -49.5t-63 -39.5q-39 -21 -62 -21q-32 0 -32 37q0 21 7.5 44.5t18.5 48.5t25 51t27 50q5 7 13 11.5t15.5 5.5t12.5 -0.5t3 -5.5q-9 -18 -24.5 -47t-30.5 -60t-26 -59.5t-11 -46.5q0 -15 14 -13t43 18
q28 16 62 39t68 49t65 52.5t54 48.5zM83 346q3 -4 -1 -10q-11 -12 -26 -24q-7 -6 -13.5 -12t-14.5 -11q-6 -4 -11 3q-3 5 1 9q6 7 12.5 13t13.5 12q14 14 27 22q7 5 12 -2z" />
    <glyph glyph-name="icircumflex" unicode="&#xee;" horiz-adv-x="261" 
d="M261 195q5 5 10.5 0t0.5 -10q-24 -23 -55.5 -50t-66 -53t-68.5 -49.5t-63 -39.5q-39 -21 -62 -21q-32 0 -32 37q0 21 7.5 44.5t18.5 48.5t25 51t27 50q5 7 13 11.5t15.5 5.5t12.5 -0.5t3 -5.5q-9 -18 -24.5 -47t-30.5 -60t-26 -59.5t-11 -46.5q0 -15 14 -13t43 18
q28 16 62 39t68 49t65 52.5t54 48.5zM118 305q7 -5 1 -11q-5 -6 -11 -2q-14 11 -28 22.5t-28 22.5q-12 -11 -23.5 -22t-24.5 -22q-6 -6 -11 1q-6 5 0 11q13 14 25.5 26t26.5 25q6 7 12 1q16 -13 31.5 -25.5t29.5 -26.5z" />
    <glyph glyph-name="idieresis" unicode="&#xef;" horiz-adv-x="261" 
d="M261 195q5 5 10.5 0t0.5 -10q-24 -23 -55.5 -50t-66 -53t-68.5 -49.5t-63 -39.5q-39 -21 -62 -21q-32 0 -32 37q0 21 7.5 44.5t18.5 48.5t25 51t27 50q5 7 13 11.5t15.5 5.5t12.5 -0.5t3 -5.5q-9 -18 -24.5 -47t-30.5 -60t-26 -59.5t-11 -46.5q0 -15 14 -13t43 18
q28 16 62 39t68 49t65 52.5t54 48.5zM-6 305q0 9 5.5 14t12 6t12 -3t5.5 -13t-5.5 -14t-12 -5.5t-12 3t-5.5 12.5zM73 305q0 9 5.5 14t12 6t12 -3t5.5 -13t-5.5 -14t-12 -5.5t-12 3t-5.5 12.5z" />
    <glyph glyph-name="ntilde" unicode="&#xf1;" horiz-adv-x="353" 
d="M356 197q5 6 11 2.5t1 -9.5q-14 -16 -42.5 -49.5t-62.5 -73.5t-68.5 -79.5t-61.5 -67.5q-66 -69 -97 -69q-21 0 -21 34q0 22 9.5 58.5t29.5 90.5q6 14 11 26t11 25.5t13.5 30t18.5 39.5l6.5 13t6.5 12q-9 -5 -18.5 -13t-17.5 -16q-20 -20 -43.5 -47.5t-44.5 -53.5
q-25 -30 -49 -62q-5 -1 -9 0t-6.5 5t-2.5 13t4 24q1 3 9.5 27t20.5 54.5t23.5 60t18.5 43.5q2 2 7 3.5t10 2t8.5 -1t3.5 -5.5q-2 -15 -17.5 -56.5t-45.5 -115.5q41 48 64 74.5t40 43.5q41 42 59 42q11 0 12 -15.5t-10 -43.5q-16 -35 -27 -61q-5 -11 -9.5 -22.5t-8.5 -19.5
q-4 -11 -8 -19q-23 -52 -36 -88t-13 -53q0 -20 20.5 -9t67.5 59q15 16 31 34t41 46.5t63 73t98 113.5zM143 304q3 -11 -2 -19.5t-14 -12t-20 -1t-20 13.5q-2 3 -6.5 7.5t-12.5 2.5q-5 -2 -7.5 -6t-0.5 -8q2 -9 -5.5 -10.5t-9.5 7.5q-3 10 2 19t14 12.5t20.5 1t20.5 -14.5
q3 -3 7.5 -7t9.5 -3q7 1 8.5 5.5t-0.5 8.5q-2 9 6 11t10 -7z" />
    <glyph glyph-name="ograve" unicode="&#xf2;" horiz-adv-x="319" 
d="M332 194q4 -6 -1 -11q-56 -44 -123 -73q-32 -14 -66 -23t-69 -11q-9 -14 -18.5 -27t-20.5 -25q-16 -17 -31.5 -25t-28.5 -8q-22 0 -33.5 20t-6.5 57q3 18 9 34.5t14 32.5q-2 9 -1 14q1 25 11 45.5t25.5 34t33.5 21t35 7.5q23 0 39 -14.5t16 -45.5q0 -20 -7.5 -46
t-26.5 -59q31 3 61 11.5t59 20.5q32 14 62 31.5t57 39.5q6 4 11 -1zM0 198q10 3 21.5 -4t3.5 -17q-26 -26 -42 -63q8 -10 19 -14q14 -6 30 -8t33 -2q20 35 28 61t8 44q0 25 -12.5 36.5t-29.5 11.5q-12 0 -25.5 -5.5t-25.5 -15.5t-21.5 -25t-13.5 -33q12 20 27 34zM24 33
q17 18 31 42q-15 0 -30 2.5t-29 8.5q-12 5 -20 12l-6 -18t-5 -18q-6 -25 -1.5 -39.5t18.5 -14.5q17 0 42 25zM111 337q6 -6 -1 -11q-5 -5 -10 -1q-8 5 -14.5 11t-12.5 12q-7 6 -13.5 11.5t-12.5 12.5q-5 7 1 12q5 3 10 0q8 -5 14 -10.5t13 -11.5t13.5 -12t12.5 -13z" />
    <glyph glyph-name="oacute" unicode="&#xf3;" horiz-adv-x="319" 
d="M332 194q4 -6 -1 -11q-56 -44 -123 -73q-32 -14 -66 -23t-69 -11q-9 -14 -18.5 -27t-20.5 -25q-16 -17 -31.5 -25t-28.5 -8q-22 0 -33.5 20t-6.5 57q3 18 9 34.5t14 32.5q-2 9 -1 14q1 25 11 45.5t25.5 34t33.5 21t35 7.5q23 0 39 -14.5t16 -45.5q0 -20 -7.5 -46
t-26.5 -59q31 3 61 11.5t59 20.5q32 14 62 31.5t57 39.5q6 4 11 -1zM0 198q10 3 21.5 -4t3.5 -17q-26 -26 -42 -63q8 -10 19 -14q14 -6 30 -8t33 -2q20 35 28 61t8 44q0 25 -12.5 36.5t-29.5 11.5q-12 0 -25.5 -5.5t-25.5 -15.5t-21.5 -25t-13.5 -33q12 20 27 34zM24 33
q17 18 31 42q-15 0 -30 2.5t-29 8.5q-12 5 -20 12l-6 -18t-5 -18q-6 -25 -1.5 -39.5t18.5 -14.5q17 0 42 25zM112 378q3 -4 -1 -10q-11 -12 -26 -24q-7 -6 -13.5 -12t-14.5 -11q-6 -4 -11 3q-3 5 1 9q6 7 12.5 13t13.5 12q14 14 27 22q7 5 12 -2z" />
    <glyph glyph-name="ocircumflex" unicode="&#xf4;" horiz-adv-x="319" 
d="M332 194q4 -6 -1 -11q-56 -44 -123 -73q-32 -14 -66 -23t-69 -11q-9 -14 -18.5 -27t-20.5 -25q-16 -17 -31.5 -25t-28.5 -8q-22 0 -33.5 20t-6.5 57q3 18 9 34.5t14 32.5q-2 9 -1 14q1 25 11 45.5t25.5 34t33.5 21t35 7.5q23 0 39 -14.5t16 -45.5q0 -20 -7.5 -46
t-26.5 -59q31 3 61 11.5t59 20.5q32 14 62 31.5t57 39.5q6 4 11 -1zM0 198q10 3 21.5 -4t3.5 -17q-26 -26 -42 -63q8 -10 19 -14q14 -6 30 -8t33 -2q20 35 28 61t8 44q0 25 -12.5 36.5t-29.5 11.5q-12 0 -25.5 -5.5t-25.5 -15.5t-21.5 -25t-13.5 -33q12 20 27 34zM24 33
q17 18 31 42q-15 0 -30 2.5t-29 8.5q-12 5 -20 12l-6 -18t-5 -18q-6 -25 -1.5 -39.5t18.5 -14.5q17 0 42 25zM147 337q7 -5 1 -11q-5 -6 -11 -2q-14 11 -28 22.5t-28 22.5q-12 -11 -23.5 -22t-24.5 -22q-6 -6 -11 1q-6 5 0 11q13 14 25.5 26t26.5 25q6 7 12 1
q16 -13 31.5 -25.5t29.5 -26.5z" />
    <glyph glyph-name="otilde" unicode="&#xf5;" horiz-adv-x="319" 
d="M332 194q4 -6 -1 -11q-56 -44 -123 -73q-32 -14 -66 -23t-69 -11q-9 -14 -18.5 -27t-20.5 -25q-16 -17 -31.5 -25t-28.5 -8q-22 0 -33.5 20t-6.5 57q3 18 9 34.5t14 32.5q-2 9 -1 14q1 25 11 45.5t25.5 34t33.5 21t35 7.5q23 0 39 -14.5t16 -45.5q0 -20 -7.5 -46
t-26.5 -59q31 3 61 11.5t59 20.5q32 14 62 31.5t57 39.5q6 4 11 -1zM0 198q10 3 21.5 -4t3.5 -17q-26 -26 -42 -63q8 -10 19 -14q14 -6 30 -8t33 -2q20 35 28 61t8 44q0 25 -12.5 36.5t-29.5 11.5q-12 0 -25.5 -5.5t-25.5 -15.5t-21.5 -25t-13.5 -33q12 20 27 34zM24 33
q17 18 31 42q-15 0 -30 2.5t-29 8.5q-12 5 -20 12l-6 -18t-5 -18q-6 -25 -1.5 -39.5t18.5 -14.5q17 0 42 25zM129 352q3 -11 -2 -19.5t-14 -12t-20 -1t-20 13.5q-2 3 -6.5 7.5t-12.5 2.5q-5 -2 -7.5 -6t-0.5 -8q2 -9 -5.5 -10.5t-9.5 7.5q-3 10 2 19t14 12.5t20.5 1
t20.5 -14.5q3 -3 7.5 -7t9.5 -3q7 1 8.5 5.5t-0.5 8.5q-2 9 6 11t10 -7z" />
    <glyph glyph-name="odieresis" unicode="&#xf6;" horiz-adv-x="319" 
d="M332 194q4 -6 -1 -11q-56 -44 -123 -73q-32 -14 -66 -23t-69 -11q-9 -14 -18.5 -27t-20.5 -25q-16 -17 -31.5 -25t-28.5 -8q-22 0 -33.5 20t-6.5 57q3 18 9 34.5t14 32.5q-2 9 -1 14q1 25 11 45.5t25.5 34t33.5 21t35 7.5q23 0 39 -14.5t16 -45.5q0 -20 -7.5 -46
t-26.5 -59q31 3 61 11.5t59 20.5q32 14 62 31.5t57 39.5q6 4 11 -1zM0 198q10 3 21.5 -4t3.5 -17q-26 -26 -42 -63q8 -10 19 -14q14 -6 30 -8t33 -2q20 35 28 61t8 44q0 25 -12.5 36.5t-29.5 11.5q-12 0 -25.5 -5.5t-25.5 -15.5t-21.5 -25t-13.5 -33q12 20 27 34zM24 33
q17 18 31 42q-15 0 -30 2.5t-29 8.5q-12 5 -20 12l-6 -18t-5 -18q-6 -25 -1.5 -39.5t18.5 -14.5q17 0 42 25zM23 337q0 9 5.5 14t12 6t12 -3t5.5 -13t-5.5 -14t-12 -5.5t-12 3t-5.5 12.5zM102 337q0 9 5.5 14t12 6t12 -3t5.5 -13t-5.5 -14t-12 -5.5t-12 3t-5.5 12.5z" />
    <glyph glyph-name="divide" unicode="&#xf7;" horiz-adv-x="445" 
d="M57 146q4 -9 21 -10.5t40 0t49.5 4t49.5 2.5t39 -5.5t18 -19.5q1 -3 -2 -4.5t-5 2.5q-4 7 -21.5 8t-41.5 -1t-50.5 -4.5t-49.5 -1.5t-38 7t-16 21q0 4 3 4q2 0 4 -2zM110 55q3 8 9.5 12.5t12.5 5t10 -3t1 -11.5t-9.5 -12.5t-12.5 -5t-10 3t-1 11.5zM214 206
q-3 -8 -9.5 -12.5t-12.5 -5.5t-10 2.5t-1 11.5t9.5 13t12.5 5.5t10 -3t1 -11.5zM110 -73q3 8 9.5 12.5t12.5 5t10 -2.5t1 -11t-9.5 -12.5t-12.5 -5.5t-10 2.5t-1 11.5zM181 75q3 8 9.5 12.5t12.5 5t10 -3t1 -11.5t-9.5 -12.5t-12.5 -5t-10 3t-1 11.5z" />
    <glyph glyph-name="oslash" unicode="&#xf8;" horiz-adv-x="319" 
d="M333 195q4 -6 -1 -11q-57 -45 -123 -72q-32 -14 -66 -23.5t-69 -11.5q-9 -14 -18.5 -27t-20.5 -25q-21 -23 -41 -30t-34 0l-7 -12q-1 -4 -6 -4q-3 0 -4 1q-6 3 -3 10l8 14q-9 10 -13 26t0 39q3 18 9 34.5t14 32.5q-2 9 -1 14q1 25 11 45.5t25.5 34t33.5 21t35 7.5
q11 0 20 -3l10 20q4 7 10 3q8 -4 4 -11l-11 -18q21 -15 22 -53t-34 -103q31 3 61 11.5t59 20.5q32 14 62 31.5t57 39.5q5 5 11 -1zM66 92q33 60 35 94t-13 48l-73 -137q12 -4 24.5 -5t26.5 0zM60 244q-12 0 -25.5 -5.5t-25.5 -15.5t-21.5 -25t-13.5 -33q12 20 27 34
q10 3 21.5 -4t3.5 -17q-14 -13 -24 -29.5t-18 -33.5q5 -7 16 -12l75 139q-10 2 -15 2zM25 34q9 10 16.5 20.5t14.5 21.5q-12 1 -24.5 2.5t-24.5 5.5l-37 -70q8 -8 21.5 -3.5t33.5 23.5zM-34 63q-2 -9 -2.5 -16.5t-0.5 -13.5l30 56q-4 2 -8 4.5t-8 6.5q-3 -10 -6 -19t-5 -18z
" />
    <glyph glyph-name="ugrave" unicode="&#xf9;" horiz-adv-x="395" 
d="M401 198q8 0 8 -8q0 -1 -2 -5q-17 -17 -42.5 -44t-56.5 -57t-64.5 -60t-65.5 -54t-61 -39t-50 -15q-39 0 -39 52q0 29 14 74q4 13 8 25t9 23l-10 -12t-10 -11q-36 -39 -61 -39q-19 0 -19 28q0 14 4.5 32.5t11 38t13.5 38.5t12 34q2 5 11 9t17 4t8 -5q-4 -12 -12 -33
t-16 -43t-14 -42t-6 -31q0 -10 5 -10q10 0 36 28q13 15 31.5 42.5t38.5 62.5l11 22q5 11 13.5 15t16.5 4q13 0 13 -4q-19 -45 -41 -94.5t-37 -92.5q-16 -44 -16 -68q0 -27 21 -27q17 0 43 15t56.5 39t63 53.5t62 58t53.5 53.5t38 40q1 3 5 3zM116 294q6 -6 -1 -11
q-5 -5 -10 -1q-8 5 -14.5 11t-12.5 12q-7 6 -13.5 11.5t-12.5 12.5q-5 7 1 12q5 3 10 0q8 -5 14 -10.5t13 -11.5t13.5 -12t12.5 -13z" />
    <glyph glyph-name="uacute" unicode="&#xfa;" horiz-adv-x="395" 
d="M401 198q8 0 8 -8q0 -1 -2 -5q-17 -17 -42.5 -44t-56.5 -57t-64.5 -60t-65.5 -54t-61 -39t-50 -15q-39 0 -39 52q0 29 14 74q4 13 8 25t9 23l-10 -12t-10 -11q-36 -39 -61 -39q-19 0 -19 28q0 14 4.5 32.5t11 38t13.5 38.5t12 34q2 5 11 9t17 4t8 -5q-4 -12 -12 -33
t-16 -43t-14 -42t-6 -31q0 -10 5 -10q10 0 36 28q13 15 31.5 42.5t38.5 62.5l11 22q5 11 13.5 15t16.5 4q13 0 13 -4q-19 -45 -41 -94.5t-37 -92.5q-16 -44 -16 -68q0 -27 21 -27q17 0 43 15t56.5 39t63 53.5t62 58t53.5 53.5t38 40q1 3 5 3zM117 335q3 -4 -1 -10
q-11 -12 -26 -24q-7 -6 -13.5 -12t-14.5 -11q-6 -4 -11 3q-3 5 1 9q6 7 12.5 13t13.5 12q14 14 27 22q7 5 12 -2z" />
    <glyph glyph-name="ucircumflex" unicode="&#xfb;" horiz-adv-x="395" 
d="M401 198q8 0 8 -8q0 -1 -2 -5q-17 -17 -42.5 -44t-56.5 -57t-64.5 -60t-65.5 -54t-61 -39t-50 -15q-39 0 -39 52q0 29 14 74q4 13 8 25t9 23l-10 -12t-10 -11q-36 -39 -61 -39q-19 0 -19 28q0 14 4.5 32.5t11 38t13.5 38.5t12 34q2 5 11 9t17 4t8 -5q-4 -12 -12 -33
t-16 -43t-14 -42t-6 -31q0 -10 5 -10q10 0 36 28q13 15 31.5 42.5t38.5 62.5l11 22q5 11 13.5 15t16.5 4q13 0 13 -4q-19 -45 -41 -94.5t-37 -92.5q-16 -44 -16 -68q0 -27 21 -27q17 0 43 15t56.5 39t63 53.5t62 58t53.5 53.5t38 40q1 3 5 3zM152 294q7 -5 1 -11
q-5 -6 -11 -2q-14 11 -28 22.5t-28 22.5q-12 -11 -23.5 -22t-24.5 -22q-6 -6 -11 1q-6 5 0 11q13 14 25.5 26t26.5 25q6 7 12 1q16 -13 31.5 -25.5t29.5 -26.5z" />
    <glyph glyph-name="udieresis" unicode="&#xfc;" horiz-adv-x="395" 
d="M401 198q8 0 8 -8q0 -1 -2 -5q-17 -17 -42.5 -44t-56.5 -57t-64.5 -60t-65.5 -54t-61 -39t-50 -15q-39 0 -39 52q0 29 14 74q4 13 8 25t9 23l-10 -12t-10 -11q-36 -39 -61 -39q-19 0 -19 28q0 14 4.5 32.5t11 38t13.5 38.5t12 34q2 5 11 9t17 4t8 -5q-4 -12 -12 -33
t-16 -43t-14 -42t-6 -31q0 -10 5 -10q10 0 36 28q13 15 31.5 42.5t38.5 62.5l11 22q5 11 13.5 15t16.5 4q13 0 13 -4q-19 -45 -41 -94.5t-37 -92.5q-16 -44 -16 -68q0 -27 21 -27q17 0 43 15t56.5 39t63 53.5t62 58t53.5 53.5t38 40q1 3 5 3zM28 294q0 9 5.5 14t12 6t12 -3
t5.5 -13t-5.5 -14t-12 -5.5t-12 3t-5.5 12.5zM107 294q0 9 5.5 14t12 6t12 -3t5.5 -13t-5.5 -14t-12 -5.5t-12 3t-5.5 12.5z" />
    <glyph glyph-name="yacute" unicode="&#xfd;" horiz-adv-x="381" 
d="M386 196q6 5 10 -1.5t-2 -10.5q-95 -63 -177.5 -104.5t-158.5 -80.5q-41 -93 -81 -176.5t-79.5 -154t-78.5 -126t-78 -92.5q-35 -35 -66 -50.5t-56 -15.5q-29 0 -47 21t-18 59q0 32 14 75t45 94q25 40 59 81t72.5 79t79.5 72t81 61q28 19 55 35.5t56 31.5l44 98
q-5 -7 -10 -13t-10 -11q-36 -39 -61 -39q-19 0 -19 28q0 14 4.5 32.5t10.5 38t13 38.5t13 34q2 5 11 9t17 4q7 0 7 -5q-3 -12 -11 -33t-16.5 -43t-14.5 -42t-6 -31q0 -10 6 -10q10 0 36 28q13 15 31.5 42.5t38.5 62.5l6 12q2 5 9 8t14 4t11.5 -1.5t1.5 -8.5l-74 -174
q72 37 150.5 76.5t167.5 98.5zM-278 -531q36 39 72 94.5t72 121t71 138.5t69 147q-23 -13 -46 -26.5t-46 -29.5q-39 -26 -79.5 -59.5t-79 -71t-72 -78t-58.5 -80.5q-29 -48 -42.5 -89.5t-13.5 -71.5q0 -29 12 -45.5t33 -16.5q20 0 47 16t61 51zM121 331q3 -4 -1 -10
q-11 -12 -26 -24q-7 -6 -13.5 -12t-14.5 -11q-6 -4 -11 3q-3 5 1 9q6 7 12.5 13t13.5 12q14 14 27 22q7 5 12 -2z" />
    <glyph glyph-name="thorn" unicode="&#xfe;" horiz-adv-x="669" 
d="M413 218q-25 -30 -54 -48.5t-57 -24.5t-50.5 1.5t-33.5 30.5q-12 -29 -29 -69t-38 -80.5t-44.5 -74.5t-47.5 -50q-5 -3 -8 1t1 8q27 24 54 80.5t56.5 129t60.5 152.5t66 152q9 19 21 42t25.5 45.5t28.5 42.5t31 32q5 3 8.5 -1t-0.5 -8q-17 -17 -31.5 -42t-34.5 -70
q32 30 63 40t54.5 2t35.5 -33.5t6 -67.5q-3 -23 -11 -49t-19.5 -51.5t-25 -49t-27.5 -40.5zM227 199q3 -21 19 -31.5t39.5 -7.5t51.5 21t54 54q11 16 22.5 38t22 46t19.5 48.5t14 45.5q7 31 1.5 50t-18.5 26.5t-31.5 5t-38 -13t-38 -27.5t-30.5 -39q-19 -45 -30 -73t-19 -49
t-16.5 -42t-21.5 -52z" />
    <glyph glyph-name="ydieresis" unicode="&#xff;" horiz-adv-x="381" 
d="M386 196q6 5 10 -1.5t-2 -10.5q-95 -63 -177.5 -104.5t-158.5 -80.5q-41 -93 -81 -176.5t-79.5 -154t-78.5 -126t-78 -92.5q-35 -35 -66 -50.5t-56 -15.5q-29 0 -47 21t-18 59q0 32 14 75t45 94q25 40 59 81t72.5 79t79.5 72t81 61q28 19 55 35.5t56 31.5l44 98
q-5 -7 -10 -13t-10 -11q-36 -39 -61 -39q-19 0 -19 28q0 14 4.5 32.5t10.5 38t13 38.5t13 34q2 5 11 9t17 4q7 0 7 -5q-3 -12 -11 -33t-16.5 -43t-14.5 -42t-6 -31q0 -10 6 -10q10 0 36 28q13 15 31.5 42.5t38.5 62.5l6 12q2 5 9 8t14 4t11.5 -1.5t1.5 -8.5l-74 -174
q72 37 150.5 76.5t167.5 98.5zM-278 -531q36 39 72 94.5t72 121t71 138.5t69 147q-23 -13 -46 -26.5t-46 -29.5q-39 -26 -79.5 -59.5t-79 -71t-72 -78t-58.5 -80.5q-29 -48 -42.5 -89.5t-13.5 -71.5q0 -29 12 -45.5t33 -16.5q20 0 47 16t61 51zM32 290q0 9 5.5 14t12 6
t12 -3t5.5 -13t-5.5 -14t-12 -5.5t-12 3t-5.5 12.5zM111 290q0 9 5.5 14t12 6t12 -3t5.5 -13t-5.5 -14t-12 -5.5t-12 3t-5.5 12.5z" />
    <glyph glyph-name="Amacron" unicode="&#x100;" horiz-adv-x="1778" 
d="M1423 -317q-6 -28 -12 -64t-6 -70q0 -35 10 -62t38 -34q16 -5 35 -1.5t38 12t36.5 20t31.5 23.5q6 5 11 -1t-1 -11q-16 -12 -35 -24.5t-39 -21.5t-40.5 -13t-40.5 -1q-24 4 -39.5 17.5t-24 33.5t-12 44t-3.5 48q0 37 4.5 69t6.5 44q17 101 43.5 199t56.5 195
q-21 31 -49 56.5t-60 45.5t-67 35.5t-71 26.5q-99 -150 -179 -269.5t-152.5 -212.5t-143 -161.5t-150.5 -116.5q-66 -40 -127 -57.5t-115 -17.5q-62 0 -112.5 21.5t-86 59.5t-55 89t-19.5 111q0 83 42 177t135 183q67 65 148 111.5t169 76.5t180.5 44t181.5 14
q141 0 260 -32q30 46 66.5 100.5t77.5 112t85 115t90 110t92 96t91 72.5q-44 -10 -92.5 -18t-98 -14.5t-98 -11t-93.5 -8.5q-124 -11 -246 -20.5t-245 -23.5q-57 -7 -129 -16.5t-149 -24.5t-154.5 -36.5t-146 -50.5t-123 -67t-85.5 -87q-13 -20 -22 -43t-13 -47q11 4 19 -5
t8 -21q0 -11 -6.5 -19t-15.5 -8q-12 0 -17 8.5t-5 22.5q0 13 4 30t10 33.5t13 31.5t13 25q32 50 87 89t124 69t147 51.5t156 37t151 25.5t132 17q124 14 246 23.5t246 20.5q109 10 183.5 19.5t124 18t78.5 16t48.5 14l33 11t32.5 7.5q5 1 7.5 -3t0.5 -8q-26 -65 -60.5 -151
t-73 -185.5t-78.5 -210t-77.5 -225.5t-69.5 -231t-55 -227zM600 -497q50 31 93.5 68.5t86 84t86.5 105t94.5 132t109.5 163.5t133 201q-119 32 -254 32q-89 0 -180.5 -14.5t-178.5 -44.5t-166.5 -76t-143.5 -109q-91 -88 -131.5 -178t-40.5 -171q0 -57 19 -106t53 -85
t82 -56.5t106 -20.5q52 0 110.5 18t121.5 57zM1241 260q71 -22 136 -59.5t109 -97.5q30 96 67.5 201t80 209t88.5 204.5t94 187.5q-64 -16 -134.5 -77t-144 -150t-148.5 -197.5t-148 -220.5zM1835 1021q7 0 7 -8q0 -6 -7 -8q-11 -1 -21 -1h-21t-21 -0.5t-21 1.5
q-3 1 -5.5 3.5t-1.5 5.5q0 7 7 7q11 2 21 2h21h21t21 -2z" />
    <glyph glyph-name="amacron" unicode="&#x101;" horiz-adv-x="353" 
d="M360 198q8 0 8 -8q0 -1 -2 -5q-17 -17 -42.5 -44t-56 -57t-64 -60t-66 -54t-61.5 -39t-50 -15q-38 0 -38 52q0 32 13 74q8 23 15.5 44.5t16.5 41.5q-5 -6 -8.5 -11t-8.5 -10q-20 -25 -35 -35.5t-26 -10.5q-10 0 -14.5 8t-4.5 21q0 20 9.5 41.5t25 39.5t35.5 30t41 12
q14 0 24 -8q5 10 13 13.5t16 3.5q12 0 12 -4q-18 -45 -40.5 -94.5t-37.5 -92.5q-16 -44 -16 -68q0 -27 21 -27q17 0 43 15t56.5 39t63 53.5t62 58t53.5 53.5t38 40q1 3 5 3zM-39 76q8 0 23 14.5t30.5 34t29.5 38t19 26.5q0 1 1 2q-4 4 -10 4q-13 0 -30 -13.5t-32 -32.5
t-25 -38t-10 -30q0 -5 4 -5zM113 301q7 0 7 -8q0 -6 -7 -8q-11 -1 -21 -1h-21t-21 -0.5t-21 1.5q-3 1 -5.5 3.5t-1.5 5.5q0 7 7 7q11 2 21 2h21h21t21 -2z" />
    <glyph glyph-name="Abreve" unicode="&#x102;" horiz-adv-x="1778" 
d="M1423 -317q-6 -28 -12 -64t-6 -70q0 -35 10 -62t38 -34q16 -5 35 -1.5t38 12t36.5 20t31.5 23.5q6 5 11 -1t-1 -11q-16 -12 -35 -24.5t-39 -21.5t-40.5 -13t-40.5 -1q-24 4 -39.5 17.5t-24 33.5t-12 44t-3.5 48q0 37 4.5 69t6.5 44q17 101 43.5 199t56.5 195
q-21 31 -49 56.5t-60 45.5t-67 35.5t-71 26.5q-99 -150 -179 -269.5t-152.5 -212.5t-143 -161.5t-150.5 -116.5q-66 -40 -127 -57.5t-115 -17.5q-62 0 -112.5 21.5t-86 59.5t-55 89t-19.5 111q0 83 42 177t135 183q67 65 148 111.5t169 76.5t180.5 44t181.5 14
q141 0 260 -32q30 46 66.5 100.5t77.5 112t85 115t90 110t92 96t91 72.5q-44 -10 -92.5 -18t-98 -14.5t-98 -11t-93.5 -8.5q-124 -11 -246 -20.5t-245 -23.5q-57 -7 -129 -16.5t-149 -24.5t-154.5 -36.5t-146 -50.5t-123 -67t-85.5 -87q-13 -20 -22 -43t-13 -47q11 4 19 -5
t8 -21q0 -11 -6.5 -19t-15.5 -8q-12 0 -17 8.5t-5 22.5q0 13 4 30t10 33.5t13 31.5t13 25q32 50 87 89t124 69t147 51.5t156 37t151 25.5t132 17q124 14 246 23.5t246 20.5q109 10 183.5 19.5t124 18t78.5 16t48.5 14l33 11t32.5 7.5q5 1 7.5 -3t0.5 -8q-26 -65 -60.5 -151
t-73 -185.5t-78.5 -210t-77.5 -225.5t-69.5 -231t-55 -227zM600 -497q50 31 93.5 68.5t86 84t86.5 105t94.5 132t109.5 163.5t133 201q-119 32 -254 32q-89 0 -180.5 -14.5t-178.5 -44.5t-166.5 -76t-143.5 -109q-91 -88 -131.5 -178t-40.5 -171q0 -57 19 -106t53 -85
t82 -56.5t106 -20.5q52 0 110.5 18t121.5 57zM1241 260q71 -22 136 -59.5t109 -97.5q30 96 67.5 201t80 209t88.5 204.5t94 187.5q-64 -16 -134.5 -77t-144 -150t-148.5 -197.5t-148 -220.5zM1823 1042q7 0 7 -7q1 -15 -9 -27q-10 -11 -27 -13q-8 0 -15.5 2.5t-12.5 9.5
t-6 14.5t0 14.5q2 8 10 6q6 0 6 -7v-1q1 -5 2 -9t3 -6q3 -5 12 -5q9 2 14 7q5 4 7 14q2 9 9 7z" />
    <glyph glyph-name="abreve" unicode="&#x103;" horiz-adv-x="353" 
d="M360 198q8 0 8 -8q0 -1 -2 -5q-17 -17 -42.5 -44t-56 -57t-64 -60t-66 -54t-61.5 -39t-50 -15q-38 0 -38 52q0 32 13 74q8 23 15.5 44.5t16.5 41.5q-5 -6 -8.5 -11t-8.5 -10q-20 -25 -35 -35.5t-26 -10.5q-10 0 -14.5 8t-4.5 21q0 20 9.5 41.5t25 39.5t35.5 30t41 12
q14 0 24 -8q5 10 13 13.5t16 3.5q12 0 12 -4q-18 -45 -40.5 -94.5t-37.5 -92.5q-16 -44 -16 -68q0 -27 21 -27q17 0 43 15t56.5 39t63 53.5t62 58t53.5 53.5t38 40q1 3 5 3zM-39 76q8 0 23 14.5t30.5 34t29.5 38t19 26.5q0 1 1 2q-4 4 -10 4q-13 0 -30 -13.5t-32 -32.5
t-25 -38t-10 -30q0 -5 4 -5zM101 322q7 0 7 -7q1 -15 -9 -27q-10 -11 -27 -13q-8 0 -15.5 2.5t-12.5 9.5t-6 14.5t0 14.5q2 8 10 6q6 0 6 -7v-1q1 -5 2 -9t3 -6q3 -5 12 -5q9 2 14 7q5 4 7 14q2 9 9 7z" />
    <glyph glyph-name="Aogonek" unicode="&#x104;" horiz-adv-x="1778" 
d="M1456 -606q10 0 9.5 -9t-9.5 -9h-26q-15 0 -24 7.5t-11 18.5t3 23.5t18 22.5q-28 19 -37 55.5t-9 74.5q0 37 4.5 69t6.5 44q17 101 43.5 199t56.5 195q-21 31 -49 56.5t-60 45.5t-67 35.5t-71 26.5q-99 -150 -179 -269.5t-152.5 -212.5t-143 -161.5t-150.5 -116.5
q-66 -40 -127 -57.5t-115 -17.5q-62 0 -112.5 21.5t-86 59.5t-55 89t-19.5 111q0 83 42 177t135 183q67 65 148 111.5t169 76.5t180.5 44t181.5 14q141 0 260 -32q30 46 66.5 100.5t77.5 112t85 115t90 110t92 96t91 72.5q-44 -10 -92.5 -18t-98 -14.5t-98 -11t-93.5 -8.5
q-124 -11 -246 -20.5t-245 -23.5q-57 -7 -129 -16.5t-149 -24.5t-154.5 -36.5t-146 -50.5t-123 -67t-85.5 -87q-13 -20 -22 -43t-13 -47q11 4 19 -5t8 -21q0 -11 -6.5 -19t-15.5 -8q-12 0 -17 8.5t-5 22.5q0 13 4 30t10 33.5t13 31.5t13 25q32 50 87 89t124 69t147 51.5
t156 37t151 25.5t132 17q124 14 246 23.5t246 20.5q109 10 183.5 19.5t124 18t78.5 16t48.5 14l33 11t32.5 7.5q5 1 7.5 -3t0.5 -8q-26 -65 -60.5 -151t-73 -185.5t-78.5 -210t-77.5 -225.5t-69.5 -231t-55 -227q-6 -28 -12 -64t-6 -70q0 -35 10 -62t38 -34q16 -5 35 -1.5
t38 12t36.5 20t31.5 23.5q6 5 11 -1t-1 -11q-16 -12 -35 -24.5t-39 -21.5t-40.5 -13t-40.5 -1l-12 3q-10 -5 -16 -12.5t-7.5 -14t2.5 -11.5t14 -5zM600 -497q50 31 93.5 68.5t86 84t86.5 105t94.5 132t109.5 163.5t133 201q-119 32 -254 32q-89 0 -180.5 -14.5t-178.5 -44.5
t-166.5 -76t-143.5 -109q-91 -88 -131.5 -178t-40.5 -171q0 -57 19 -106t53 -85t82 -56.5t106 -20.5q52 0 110.5 18t121.5 57zM1241 260q71 -22 136 -59.5t109 -97.5q30 96 67.5 201t80 209t88.5 204.5t94 187.5q-64 -16 -134.5 -77t-144 -150t-148.5 -197.5t-148 -220.5z
" />
    <glyph glyph-name="aogonek" unicode="&#x105;" horiz-adv-x="353" 
d="M51 -127q10 0 9.5 -9t-9.5 -9h-26q-14 0 -22.5 6.5t-11.5 16.5t0.5 22t13.5 22q-17 12 -17 46q0 32 13 74q8 23 15.5 44.5t16.5 41.5q-5 -6 -8.5 -11t-8.5 -10q-20 -25 -35 -35.5t-26 -10.5q-10 0 -14.5 8t-4.5 21q0 20 9.5 41.5t25 39.5t35.5 30t41 12q14 0 24 -8
q5 10 13 13.5t16 3.5q12 0 12 -4q-18 -45 -40.5 -94.5t-37.5 -92.5q-16 -44 -16 -68q0 -27 21 -27q17 0 43 15t56.5 39t63 53.5t62 58t53.5 53.5t38 40q1 3 5 3q8 0 8 -8q0 -1 -2 -5q-16 -17 -41.5 -43.5t-55.5 -55.5t-63 -58.5t-65 -53.5t-60.5 -40t-50.5 -17
q-10 -5 -15.5 -12.5t-6.5 -14.5t3 -11.5t14 -4.5zM-39 76q8 0 23 14.5t30.5 34t29.5 38t19 26.5q0 1 1 2q-4 4 -10 4q-13 0 -30 -13.5t-32 -32.5t-25 -38t-10 -30q0 -5 4 -5z" />
    <glyph glyph-name="Cacute" unicode="&#x106;" horiz-adv-x="1859" 
d="M1875 207q5 4 10 -2t-1 -10l-1 -1q-51 -38 -105.5 -94t-110 -119.5t-110.5 -129t-107 -123t-99.5 -101.5t-88.5 -64q-49 -23 -90 -23q-69 0 -114 60.5t-45 180.5q0 89 29 208t96 271q57 123 124.5 227t143.5 189q-69 -14 -142.5 -23.5t-148.5 -17.5t-151 -15t-150 -15
q-119 -13 -237 -31.5t-232 -55.5q-39 -13 -82 -31t-82.5 -41t-73.5 -52t-56 -63q-13 -20 -21.5 -42.5t-11.5 -45.5q11 3 18.5 -5.5t7.5 -20.5q0 -11 -6.5 -19t-15.5 -8q-12 0 -17 8.5t-5 22.5q0 13 4 29.5t9.5 32.5t12.5 30.5t13 24.5q22 36 57 65.5t75.5 53.5t84 42.5
t84.5 32.5q116 37 234.5 55.5t238.5 32.5q158 16 312.5 30.5t297.5 43.5q30 32 65.5 65.5t74.5 63.5t80 55t82 40q44 16 82 16q48 0 75 -24.5t27 -65.5q0 -38 -27 -87.5t-88 -101.5q-42 -35 -76 -50.5t-59 -15.5q-26 0 -40 14t-14 37t15.5 52t49.5 60q-51 -22 -102.5 -37.5
t-104.5 -26.5q-87 -99 -157.5 -212.5t-126.5 -234.5q-72 -153 -104 -275.5t-32 -211.5q0 -97 34 -148.5t94 -51.5q40 0 85 22q41 19 89 63t101 101.5t108.5 124t111 130t108.5 119.5t101 93zM1732 900q-33 -13 -67 -35t-66.5 -48t-62.5 -54.5t-55 -55.5q67 16 136 40t127 59
q7 4 10.5 -2.5t-2.5 -10.5q-73 -42 -105 -83t-32 -70q0 -18 12 -29t33 -11q23 0 55.5 15t71.5 48q57 51 83 97.5t26 81.5t-22.5 55t-62.5 20q-17 0 -36.5 -4t-42.5 -13zM1845 1055q3 -4 -1 -10q-11 -12 -26 -24q-7 -6 -13.5 -12t-14.5 -11q-6 -4 -11 3q-3 5 1 9q6 7 12.5 13
t13.5 12q14 14 27 22q7 5 12 -2z" />
    <glyph glyph-name="cacute" unicode="&#x107;" 
d="M-42 9q0 -34 28 -34q21 0 51 13.5t63.5 35t67.5 47.5t63.5 50.5t52.5 45t34 29.5q6 6 10.5 0.5t-0.5 -10.5q-8 -7 -29.5 -26.5t-51.5 -44.5t-66 -52.5t-72 -50.5t-70 -38t-59 -15q-51 0 -51 64q0 33 15 73.5t37.5 76t48.5 59.5t49 24q15 0 23 -10t8 -26q0 -25 -19 -47
q-5 -6 -11 -1t-1 11q16 19 16 37q0 8 -3 13t-10 5q-10 0 -23 -12.5t-27 -32.5t-27 -45t-23.5 -50.5t-17 -49t-6.5 -39.5zM119 375q3 -4 -1 -10q-11 -12 -26 -24q-7 -6 -13.5 -12t-14.5 -11q-6 -4 -11 3q-3 5 1 9q6 7 12.5 13t13.5 12q14 14 27 22q7 5 12 -2z" />
    <glyph glyph-name="Ccircumflex" unicode="&#x108;" horiz-adv-x="1859" 
d="M1875 207q5 4 10 -2t-1 -10l-1 -1q-51 -38 -105.5 -94t-110 -119.5t-110.5 -129t-107 -123t-99.5 -101.5t-88.5 -64q-49 -23 -90 -23q-69 0 -114 60.5t-45 180.5q0 89 29 208t96 271q57 123 124.5 227t143.5 189q-69 -14 -142.5 -23.5t-148.5 -17.5t-151 -15t-150 -15
q-119 -13 -237 -31.5t-232 -55.5q-39 -13 -82 -31t-82.5 -41t-73.5 -52t-56 -63q-13 -20 -21.5 -42.5t-11.5 -45.5q11 3 18.5 -5.5t7.5 -20.5q0 -11 -6.5 -19t-15.5 -8q-12 0 -17 8.5t-5 22.5q0 13 4 29.5t9.5 32.5t12.5 30.5t13 24.5q22 36 57 65.5t75.5 53.5t84 42.5
t84.5 32.5q116 37 234.5 55.5t238.5 32.5q158 16 312.5 30.5t297.5 43.5q30 32 65.5 65.5t74.5 63.5t80 55t82 40q44 16 82 16q48 0 75 -24.5t27 -65.5q0 -38 -27 -87.5t-88 -101.5q-42 -35 -76 -50.5t-59 -15.5q-26 0 -40 14t-14 37t15.5 52t49.5 60q-51 -22 -102.5 -37.5
t-104.5 -26.5q-87 -99 -157.5 -212.5t-126.5 -234.5q-72 -153 -104 -275.5t-32 -211.5q0 -97 34 -148.5t94 -51.5q40 0 85 22q41 19 89 63t101 101.5t108.5 124t111 130t108.5 119.5t101 93zM1732 900q-33 -13 -67 -35t-66.5 -48t-62.5 -54.5t-55 -55.5q67 16 136 40t127 59
q7 4 10.5 -2.5t-2.5 -10.5q-73 -42 -105 -83t-32 -70q0 -18 12 -29t33 -11q23 0 55.5 15t71.5 48q57 51 83 97.5t26 81.5t-22.5 55t-62.5 20q-17 0 -36.5 -4t-42.5 -13zM1880 1014q7 -5 1 -11q-5 -6 -11 -2q-14 11 -28 22.5t-28 22.5q-12 -11 -23.5 -22t-24.5 -22
q-6 -6 -11 1q-6 5 0 11q13 14 25.5 26t26.5 25q6 7 12 1q16 -13 31.5 -25.5t29.5 -26.5z" />
    <glyph glyph-name="ccircumflex" unicode="&#x109;" 
d="M-42 9q0 -34 28 -34q21 0 51 13.5t63.5 35t67.5 47.5t63.5 50.5t52.5 45t34 29.5q6 6 10.5 0.5t-0.5 -10.5q-8 -7 -29.5 -26.5t-51.5 -44.5t-66 -52.5t-72 -50.5t-70 -38t-59 -15q-51 0 -51 64q0 33 15 73.5t37.5 76t48.5 59.5t49 24q15 0 23 -10t8 -26q0 -25 -19 -47
q-5 -6 -11 -1t-1 11q16 19 16 37q0 8 -3 13t-10 5q-10 0 -23 -12.5t-27 -32.5t-27 -45t-23.5 -50.5t-17 -49t-6.5 -39.5zM154 334q7 -5 1 -11q-5 -6 -11 -2q-14 11 -28 22.5t-28 22.5q-12 -11 -23.5 -22t-24.5 -22q-6 -6 -11 1q-6 5 0 11q13 14 25.5 26t26.5 25q6 7 12 1
q16 -13 31.5 -25.5t29.5 -26.5z" />
    <glyph glyph-name="Cdotaccent" unicode="&#x10a;" horiz-adv-x="1859" 
d="M1875 207q5 4 10 -2t-1 -10l-1 -1q-51 -38 -105.5 -94t-110 -119.5t-110.5 -129t-107 -123t-99.5 -101.5t-88.5 -64q-49 -23 -90 -23q-69 0 -114 60.5t-45 180.5q0 89 29 208t96 271q57 123 124.5 227t143.5 189q-69 -14 -142.5 -23.5t-148.5 -17.5t-151 -15t-150 -15
q-119 -13 -237 -31.5t-232 -55.5q-39 -13 -82 -31t-82.5 -41t-73.5 -52t-56 -63q-13 -20 -21.5 -42.5t-11.5 -45.5q11 3 18.5 -5.5t7.5 -20.5q0 -11 -6.5 -19t-15.5 -8q-12 0 -17 8.5t-5 22.5q0 13 4 29.5t9.5 32.5t12.5 30.5t13 24.5q22 36 57 65.5t75.5 53.5t84 42.5
t84.5 32.5q116 37 234.5 55.5t238.5 32.5q158 16 312.5 30.5t297.5 43.5q30 32 65.5 65.5t74.5 63.5t80 55t82 40q44 16 82 16q48 0 75 -24.5t27 -65.5q0 -38 -27 -87.5t-88 -101.5q-42 -35 -76 -50.5t-59 -15.5q-26 0 -40 14t-14 37t15.5 52t49.5 60q-51 -22 -102.5 -37.5
t-104.5 -26.5q-87 -99 -157.5 -212.5t-126.5 -234.5q-72 -153 -104 -275.5t-32 -211.5q0 -97 34 -148.5t94 -51.5q40 0 85 22q41 19 89 63t101 101.5t108.5 124t111 130t108.5 119.5t101 93zM1732 900q-33 -13 -67 -35t-66.5 -48t-62.5 -54.5t-55 -55.5q67 16 136 40t127 59
q7 4 10.5 -2.5t-2.5 -10.5q-73 -42 -105 -83t-32 -70q0 -18 12 -29t33 -11q23 0 55.5 15t71.5 48q57 51 83 97.5t26 81.5t-22.5 55t-62.5 20q-17 0 -36.5 -4t-42.5 -13zM1831 1016q0 -9 -5.5 -14t-12.5 -5.5t-12.5 3t-5.5 12.5t5.5 14t12.5 6t12.5 -3t5.5 -13z" />
    <glyph glyph-name="cdotaccent" unicode="&#x10b;" 
d="M-42 9q0 -34 28 -34q21 0 51 13.5t63.5 35t67.5 47.5t63.5 50.5t52.5 45t34 29.5q6 6 10.5 0.5t-0.5 -10.5q-8 -7 -29.5 -26.5t-51.5 -44.5t-66 -52.5t-72 -50.5t-70 -38t-59 -15q-51 0 -51 64q0 33 15 73.5t37.5 76t48.5 59.5t49 24q15 0 23 -10t8 -26q0 -25 -19 -47
q-5 -6 -11 -1t-1 11q16 19 16 37q0 8 -3 13t-10 5q-10 0 -23 -12.5t-27 -32.5t-27 -45t-23.5 -50.5t-17 -49t-6.5 -39.5zM105 336q0 -9 -5.5 -14t-12.5 -5.5t-12.5 3t-5.5 12.5t5.5 14t12.5 6t12.5 -3t5.5 -13z" />
    <glyph glyph-name="Ccaron" unicode="&#x10c;" horiz-adv-x="1859" 
d="M1875 207q5 4 10 -2t-1 -10l-1 -1q-51 -38 -105.5 -94t-110 -119.5t-110.5 -129t-107 -123t-99.5 -101.5t-88.5 -64q-49 -23 -90 -23q-69 0 -114 60.5t-45 180.5q0 89 29 208t96 271q57 123 124.5 227t143.5 189q-69 -14 -142.5 -23.5t-148.5 -17.5t-151 -15t-150 -15
q-119 -13 -237 -31.5t-232 -55.5q-39 -13 -82 -31t-82.5 -41t-73.5 -52t-56 -63q-13 -20 -21.5 -42.5t-11.5 -45.5q11 3 18.5 -5.5t7.5 -20.5q0 -11 -6.5 -19t-15.5 -8q-12 0 -17 8.5t-5 22.5q0 13 4 29.5t9.5 32.5t12.5 30.5t13 24.5q22 36 57 65.5t75.5 53.5t84 42.5
t84.5 32.5q116 37 234.5 55.5t238.5 32.5q158 16 312.5 30.5t297.5 43.5q30 32 65.5 65.5t74.5 63.5t80 55t82 40q44 16 82 16q48 0 75 -24.5t27 -65.5q0 -38 -27 -87.5t-88 -101.5q-42 -35 -76 -50.5t-59 -15.5q-26 0 -40 14t-14 37t15.5 52t49.5 60q-51 -22 -102.5 -37.5
t-104.5 -26.5q-87 -99 -157.5 -212.5t-126.5 -234.5q-72 -153 -104 -275.5t-32 -211.5q0 -97 34 -148.5t94 -51.5q40 0 85 22q41 19 89 63t101 101.5t108.5 124t111 130t108.5 119.5t101 93zM1732 900q-33 -13 -67 -35t-66.5 -48t-62.5 -54.5t-55 -55.5q67 16 136 40t127 59
q7 4 10.5 -2.5t-2.5 -10.5q-73 -42 -105 -83t-32 -70q0 -18 12 -29t33 -11q23 0 55.5 15t71.5 48q57 51 83 97.5t26 81.5t-22.5 55t-62.5 20q-17 0 -36.5 -4t-42.5 -13zM1891 1063q4 -6 -2 -10q-17 -14 -35 -26.5t-36 -25.5q-7 -6 -13 2q-11 13 -21.5 25t-19.5 26q-5 6 1 12
q5 3 11 -1q20 -22 38 -44q31 24 66 45q6 4 11 -3z" />
    <glyph glyph-name="ccaron" unicode="&#x10d;" 
d="M-42 9q0 -34 28 -34q21 0 51 13.5t63.5 35t67.5 47.5t63.5 50.5t52.5 45t34 29.5q6 6 10.5 0.5t-0.5 -10.5q-8 -7 -29.5 -26.5t-51.5 -44.5t-66 -52.5t-72 -50.5t-70 -38t-59 -15q-51 0 -51 64q0 33 15 73.5t37.5 76t48.5 59.5t49 24q15 0 23 -10t8 -26q0 -25 -19 -47
q-5 -6 -11 -1t-1 11q16 19 16 37q0 8 -3 13t-10 5q-10 0 -23 -12.5t-27 -32.5t-27 -45t-23.5 -50.5t-17 -49t-6.5 -39.5zM165 383q4 -6 -2 -10q-17 -14 -35 -26.5t-36 -25.5q-7 -6 -13 2q-11 13 -21.5 25t-19.5 26q-5 6 1 12q5 3 11 -1q20 -22 38 -44q31 24 66 45q6 4 11 -3
z" />
    <glyph glyph-name="Dcaron" unicode="&#x10e;" horiz-adv-x="2164" 
d="M2092 785q12 -57 12 -121q0 -116 -36 -246t-98.5 -256.5t-146 -242t-178.5 -203.5t-197 -140t-201 -52q-56 0 -104 17.5t-84 49t-56.5 76.5t-20.5 101q0 46 14.5 94t43 93t72 85t100.5 70q61 31 129 48q13 32 26.5 63.5t27.5 63.5q27 62 63 138t77.5 152.5t85 148.5
t84.5 126q-54 -26 -109.5 -44t-112.5 -32q-134 -31 -269 -44.5t-271 -27.5t-271 -30.5t-267 -51.5q-44 -12 -93.5 -30t-97 -42.5t-88.5 -55t-67 -67.5q-17 -23 -27.5 -48.5t-14.5 -52.5q11 3 18.5 -6t7.5 -20t-6.5 -19t-15.5 -8q-21 0 -21 31q0 13 4 30.5t10.5 35.5t15.5 35
t18 30q27 38 69 68.5t90.5 55t99.5 42.5t96 30q132 35 267.5 51.5t271.5 30.5t270.5 29t267.5 46q64 16 125.5 37t118.5 53q16 21 40.5 50.5t52 58t56 52.5t53.5 34q6 2 10.5 -3t0.5 -11q-29 -49 -68.5 -91t-96.5 -79q-21 -31 -48 -72t-61.5 -99t-76.5 -135t-94 -180
q49 79 102.5 154.5t116.5 146.5q34 38 71 73t74 61.5t72 42t65 15.5q35 0 61 -25t38 -84zM1237 -447q60 0 120 21.5t118.5 58.5t113 86t103.5 103.5t91 112.5t75 112q-3 1 -5 6v1q-6 28 -39 48t-80.5 32.5t-104.5 18.5t-112 6q-42 0 -79.5 -3.5t-66.5 -8.5
q-20 -41 -39 -81.5t-38 -82.5q-2 -5 -6 -6t-7.5 0.5t-5.5 5.5t0 9q6 12 10.5 22.5t10.5 25.5t14.5 38t22.5 60q-29 -8 -58 -18t-56 -24q-55 -29 -96 -66.5t-68.5 -80t-41 -87t-13.5 -87.5q0 -48 18 -90t50 -72.5t75.5 -46.5t93.5 -13zM1871 69q37 64 73.5 141.5t65 160
t46 165.5t17.5 158q0 23 -1.5 44.5t-5.5 41.5q-8 50 -30 71.5t-52 21.5q-27 0 -60 -15.5t-67.5 -41t-68.5 -58t-65 -67.5q-50 -56 -97 -119.5t-90 -131t-82 -137.5t-73 -137q26 5 63 7.5t80 2.5q53 0 109 -5t105 -17.5t85 -33t48 -51.5zM1898 1030q-26 -20 -51.5 -49
t-45.5 -55q58 45 97 104zM2110 1055q4 -6 -2 -10q-17 -14 -35 -26.5t-36 -25.5q-7 -6 -13 2q-11 13 -21.5 25t-19.5 26q-5 6 1 12q5 3 11 -1q20 -22 38 -44q31 24 66 45q6 4 11 -3z" />
    <glyph glyph-name="dcaron" unicode="&#x10f;" horiz-adv-x="428" 
d="M98 195q-1 -2 -1 -2.5t-1 -2.5q-13 -36 -26 -74.5t-23.5 -75t-17.5 -69t-7 -56.5q0 -23 7.5 -36.5t26.5 -13.5q25 0 58 19t69 49.5t73 68t70 74.5t59 68.5t41 50.5q3 3 6 3q8 0 8 -8q-30 -38 -68.5 -83t-80.5 -89t-85.5 -82.5t-83.5 -62.5q-45 -26 -73 -26
q-23 0 -36.5 21t-13.5 56q0 41 13.5 99t35.5 123q-8 -10 -16 -19.5t-16 -19.5q-20 -25 -35 -35.5t-26 -10.5q-9 0 -14 8t-5 21q0 20 9.5 41.5t25 39.5t35.5 30t41 12q14 0 22 -7q14 38 29.5 75.5t30.5 72t30 65t28 54.5q47 84 89 142t78 94t65 52.5t49 16.5t31 -14t11 -39
q0 -44 -33 -107q-32 -56 -76.5 -110.5t-95 -107t-104 -104t-103.5 -101.5zM468 763q-28 0 -60.5 -28.5t-67 -74.5t-68.5 -104t-64.5 -117t-55.5 -114.5t-41 -95.5q48 47 99.5 97t99.5 100.5t88 100.5t66 98q17 30 24.5 55.5t7.5 43.5t-7 28.5t-21 10.5zM-39 76q8 0 23 15
t31 34t29.5 37.5t18.5 26.5q0 1 1 2q-4 4 -10 4q-13 0 -29.5 -13.5t-31.5 -32.5t-25 -38t-10 -30q0 -5 3 -5zM576 761q4 -13 -4.5 -26.5t-14.5 -21.5q-5 -5 -10 -2t0 9q4 5 7 9.5t5 9.5q-5 1 -8.5 4.5t-3.5 9.5q0 13 12.5 16t16.5 -8z" />
    <glyph glyph-name="Dcroat" unicode="&#x110;" horiz-adv-x="2164" 
d="M1714 702q36 40 75.5 76.5t78 63.5t75 41.5t67 10t52.5 -30t33 -78.5q20 -94 7.5 -204.5t-50.5 -225.5t-97.5 -228.5t-134 -214.5t-159.5 -183t-175 -133.5t-180.5 -66.5t-174.5 18q-55 21 -89.5 61t-48 91t-6.5 108t35 112.5t76 105t117 85.5q31 17 63 28.5t66 19.5
q13 32 26.5 64t27.5 64q5 12 10.5 24.5t11.5 25.5h-124q-11 0 -11 11t11 11h134q27 60 60.5 127t70 132.5t74 125.5t73.5 107q-54 -26 -109.5 -43.5t-112.5 -31.5q-134 -31 -269 -45t-271 -28t-271 -30.5t-267 -51.5q-44 -12 -93.5 -30t-97 -42t-88.5 -54.5t-67 -67.5
q-17 -23 -27.5 -49t-14.5 -53q11 4 18.5 -5t7.5 -20t-6.5 -19t-15.5 -8q-17 0 -20 18t3 43t18 52.5t26 47.5q27 38 69 69t90.5 55.5t99.5 42.5t96 30q133 35 267.5 51.5t271.5 29.5q136 14 270.5 29t267.5 47q64 15 125.5 36t118.5 53q16 21 40.5 50.5t52 58.5t56 52.5
t53.5 33.5q6 3 10.5 -2t0.5 -11q-29 -49 -68.5 -91.5t-96.5 -78.5q-21 -31 -48 -72t-61.5 -99t-76.5 -135t-94 -180q49 79 102.5 154.5t116.5 145.5zM1140 -430q67 -24 136 -15.5t136.5 41t132 84t122.5 112.5t107.5 127.5t86.5 128.5q-4 2 -5 6q-6 26 -34 45t-70 32
t-93 19.5t-102.5 8.5t-99.5 -1t-83 -10q-20 -41 -39 -81.5t-38 -82.5q-2 -5 -6 -6t-7.5 0.5t-5.5 5t0 8.5q6 12 10.5 23t10.5 26t14.5 38t22.5 60q-29 -8 -58 -18.5t-56 -24.5q-67 -34 -113 -81.5t-72 -99.5t-32 -105.5t7 -100.5t45 -84t83 -55zM1874 69q29 49 57 106.5
t53 119.5t45 126t32 126.5t14.5 121.5t-6.5 111q-8 47 -27.5 69t-47 24t-61 -12.5t-69 -40t-71 -59t-67.5 -69.5q-66 -74 -125 -159t-113 -175h96q11 0 11 -11t-11 -11h-108q-25 -43 -48 -85.5t-44 -84.5q30 5 75 8t96 2t102.5 -7t96 -18.5t76.5 -32.5t44 -49zM1901 1031
q-26 -21 -51.5 -50t-45.5 -55q59 47 97 105z" />
    <glyph glyph-name="dcroat" unicode="&#x111;" horiz-adv-x="428" 
d="M510 725q0 -44 -33 -107q-6 -11 -13 -21.5t-14 -21.5h29q8 0 8 -8q0 -7 -8 -7h-39q-34 -48 -75.5 -94.5t-86.5 -92.5t-91 -90.5t-89 -87.5l-2 -5q-13 -36 -26 -74.5t-23.5 -75t-17.5 -69t-7 -56.5q0 -23 7.5 -36.5t26.5 -13.5q25 0 58 19t69 49.5t73 68t70 74.5t59 68.5
t41 50.5q3 3 6 3q8 0 8 -8q-30 -38 -68.5 -83t-80.5 -89t-85.5 -82.5t-83.5 -62.5q-45 -26 -73 -26q-23 0 -36.5 21t-13.5 56q0 41 13.5 99t35.5 123q-8 -10 -16 -19.5t-16 -19.5q-20 -25 -35 -35.5t-26 -10.5q-9 0 -14 8t-5 21q0 20 9.5 41.5t25 39.5t35.5 30t41 12
q14 0 22 -7q14 38 29.5 75.5t30.5 72t30 65t28 54.5q14 24 26.5 45.5t25.5 41.5h-48q-8 0 -8 7q0 8 8 8h58q72 109 128.5 156t90.5 47q20 0 31 -14t11 -39zM111 229q39 39 81.5 80.5t84 83.5t79 84t67.5 83h-149q-26 -43 -50 -88.5t-45 -89.5t-38.5 -83.5t-29.5 -69.5z
M433 575q18 26 31 50q17 30 24.5 55.5t7.5 43.5t-7 28.5t-21 10.5q-20 0 -42 -15t-45.5 -40.5t-48.5 -59.5t-49 -73h150zM63 189q0 1 1 2q-4 4 -10 4q-13 0 -29.5 -13.5t-31.5 -32.5t-25 -38t-10 -30q0 -5 3 -5q8 0 23 15t31 34t29.5 37.5t18.5 26.5z" />
    <glyph glyph-name="Emacron" unicode="&#x112;" horiz-adv-x="1856" 
d="M1874 200q6 5 10.5 -1t-1.5 -11q-55 -42 -105 -94.5t-94 -101.5l-183 -212q-32 -37 -70 -81t-80 -81t-88 -61.5t-95 -22.5q-38 2 -66.5 21t-48.5 52t-30 77.5t-10 98.5q0 83 24.5 181.5t75.5 202.5q29 60 71 120t94.5 109.5t114.5 84t130 43.5q-32 53 -32 109q0 27 8 57
q-79 -20 -161.5 -33t-168 -23t-174.5 -18t-181 -18q-120 -13 -237.5 -31.5t-232.5 -55.5q-39 -13 -81.5 -30.5t-82.5 -41t-73.5 -52t-55.5 -63.5q-27 -42 -34 -88q11 4 18.5 -5t7.5 -21q0 -11 -6 -18.5t-15 -7.5q-12 0 -17 8.5t-5 22.5q0 13 3.5 29.5t9.5 32.5t12.5 30.5
t12.5 24.5q23 36 58 65.5t75.5 53.5t84 42.5t84.5 31.5q115 38 233.5 56.5t238.5 31.5q93 10 183 18.5t176.5 18t169.5 23t162 33.5q13 38 36.5 70t52.5 58q51 45 107.5 67.5t104.5 22.5q45 0 73.5 -20t28.5 -62q0 -29 -16 -67q-18 -39 -47 -73.5t-61 -63.5
q-36 -32 -67 -45.5t-54 -13.5q-26 0 -41.5 14.5t-15.5 39.5q0 23 15 52.5t49 59.5q-35 -15 -71.5 -27t-73.5 -22q-12 -35 -12 -67q0 -29 8.5 -56t22.5 -51q2 -3 0.5 -6.5t-5.5 -4.5q-67 -14 -123 -49.5t-103.5 -85t-86.5 -109t-71 -120.5q-60 -116 -86.5 -214.5
t-26.5 -174.5q0 -95 35 -149t94 -59q45 -3 89.5 20.5t86.5 60.5t79.5 79.5t68.5 77.5l183 212q47 53 94 104t104 96zM1608 816q-25 -21 -45 -47.5t-33 -55.5q55 15 107.5 35t102.5 49q11 6 14 0.5t-3 -11.5q-72 -45 -103 -85.5t-31 -68.5q0 -18 12 -28.5t32 -10.5
q21 0 50 13t62 43q30 27 58 60t45 71q15 36 15 61q0 34 -22 50t-57 16q-43 0 -97.5 -23t-106.5 -68zM1858 1021q7 0 7 -8q0 -6 -7 -8q-11 -1 -21 -1h-21t-21 -0.5t-21 1.5q-3 1 -5.5 3.5t-1.5 5.5q0 7 7 7q11 2 21 2h21h21t21 -2z" />
    <glyph glyph-name="emacron" unicode="&#x113;" 
d="M317 196q7 6 11.5 0.5t-0.5 -10.5q-27 -24 -65.5 -54.5t-79 -60t-78 -55t-64.5 -39.5q-20 -10 -35 -14t-27 -4q-26 0 -38 17t-12 44q0 23 7.5 49.5t20.5 54.5q13 27 29 53t39 48q17 17 30.5 24t24.5 7q14 0 21 -10t7 -24q0 -15 -7 -29q-14 -26 -40 -36.5t-55 -9.5
q-5 -9 -9.5 -18.5t-8.5 -18.5q-14 -32 -22 -58.5t-8 -44.5q0 -32 27 -32q9 0 21.5 3t28.5 11q25 12 64.5 39t81 58.5t79 61.5t57.5 48zM44 208q-18 -24 -30 -46q19 0 40 6.5t32 31.5q5 10 5 20.5t-5 15t-15.5 -1t-26.5 -26.5zM133 331q7 0 7 -8q0 -6 -7 -8q-11 -1 -21 -1
h-21t-21 -0.5t-21 1.5q-3 1 -5.5 3.5t-1.5 5.5q0 7 7 7q11 2 21 2h21h21t21 -2z" />
    <glyph glyph-name="Ebreve" unicode="&#x114;" horiz-adv-x="1856" 
d="M1874 200q6 5 10.5 -1t-1.5 -11q-55 -42 -105 -94.5t-94 -101.5l-183 -212q-32 -37 -70 -81t-80 -81t-88 -61.5t-95 -22.5q-38 2 -66.5 21t-48.5 52t-30 77.5t-10 98.5q0 83 24.5 181.5t75.5 202.5q29 60 71 120t94.5 109.5t114.5 84t130 43.5q-32 53 -32 109q0 27 8 57
q-79 -20 -161.5 -33t-168 -23t-174.5 -18t-181 -18q-120 -13 -237.5 -31.5t-232.5 -55.5q-39 -13 -81.5 -30.5t-82.5 -41t-73.5 -52t-55.5 -63.5q-27 -42 -34 -88q11 4 18.5 -5t7.5 -21q0 -11 -6 -18.5t-15 -7.5q-12 0 -17 8.5t-5 22.5q0 13 3.5 29.5t9.5 32.5t12.5 30.5
t12.5 24.5q23 36 58 65.5t75.5 53.5t84 42.5t84.5 31.5q115 38 233.5 56.5t238.5 31.5q93 10 183 18.5t176.5 18t169.5 23t162 33.5q13 38 36.5 70t52.5 58q51 45 107.5 67.5t104.5 22.5q45 0 73.5 -20t28.5 -62q0 -29 -16 -67q-18 -39 -47 -73.5t-61 -63.5
q-36 -32 -67 -45.5t-54 -13.5q-26 0 -41.5 14.5t-15.5 39.5q0 23 15 52.5t49 59.5q-35 -15 -71.5 -27t-73.5 -22q-12 -35 -12 -67q0 -29 8.5 -56t22.5 -51q2 -3 0.5 -6.5t-5.5 -4.5q-67 -14 -123 -49.5t-103.5 -85t-86.5 -109t-71 -120.5q-60 -116 -86.5 -214.5
t-26.5 -174.5q0 -95 35 -149t94 -59q45 -3 89.5 20.5t86.5 60.5t79.5 79.5t68.5 77.5l183 212q47 53 94 104t104 96zM1608 816q-25 -21 -45 -47.5t-33 -55.5q55 15 107.5 35t102.5 49q11 6 14 0.5t-3 -11.5q-72 -45 -103 -85.5t-31 -68.5q0 -18 12 -28.5t32 -10.5
q21 0 50 13t62 43q30 27 58 60t45 71q15 36 15 61q0 34 -22 50t-57 16q-43 0 -97.5 -23t-106.5 -68zM1846 1042q7 0 7 -7q1 -15 -9 -27q-10 -11 -27 -13q-8 0 -15.5 2.5t-12.5 9.5t-6 14.5t0 14.5q2 8 10 6q6 0 6 -7v-1q1 -5 2 -9t3 -6q3 -5 12 -5q9 2 14 7q5 4 7 14
q2 9 9 7z" />
    <glyph glyph-name="ebreve" unicode="&#x115;" 
d="M317 196q7 6 11.5 0.5t-0.5 -10.5q-27 -24 -65.5 -54.5t-79 -60t-78 -55t-64.5 -39.5q-20 -10 -35 -14t-27 -4q-26 0 -38 17t-12 44q0 23 7.5 49.5t20.5 54.5q13 27 29 53t39 48q17 17 30.5 24t24.5 7q14 0 21 -10t7 -24q0 -15 -7 -29q-14 -26 -40 -36.5t-55 -9.5
q-5 -9 -9.5 -18.5t-8.5 -18.5q-14 -32 -22 -58.5t-8 -44.5q0 -32 27 -32q9 0 21.5 3t28.5 11q25 12 64.5 39t81 58.5t79 61.5t57.5 48zM44 208q-18 -24 -30 -46q19 0 40 6.5t32 31.5q5 10 5 20.5t-5 15t-15.5 -1t-26.5 -26.5zM121 352q7 0 7 -7q1 -15 -9 -27
q-10 -11 -27 -13q-8 0 -15.5 2.5t-12.5 9.5t-6 14.5t0 14.5q2 8 10 6q6 0 6 -7v-1q1 -5 2 -9t3 -6q3 -5 12 -5q9 2 14 7q5 4 7 14q2 9 9 7z" />
    <glyph glyph-name="Edotaccent" unicode="&#x116;" horiz-adv-x="1856" 
d="M1874 200q6 5 10.5 -1t-1.5 -11q-55 -42 -105 -94.5t-94 -101.5l-183 -212q-32 -37 -70 -81t-80 -81t-88 -61.5t-95 -22.5q-38 2 -66.5 21t-48.5 52t-30 77.5t-10 98.5q0 83 24.5 181.5t75.5 202.5q29 60 71 120t94.5 109.5t114.5 84t130 43.5q-32 53 -32 109q0 27 8 57
q-79 -20 -161.5 -33t-168 -23t-174.5 -18t-181 -18q-120 -13 -237.5 -31.5t-232.5 -55.5q-39 -13 -81.5 -30.5t-82.5 -41t-73.5 -52t-55.5 -63.5q-27 -42 -34 -88q11 4 18.5 -5t7.5 -21q0 -11 -6 -18.5t-15 -7.5q-12 0 -17 8.5t-5 22.5q0 13 3.5 29.5t9.5 32.5t12.5 30.5
t12.5 24.5q23 36 58 65.5t75.5 53.5t84 42.5t84.5 31.5q115 38 233.5 56.5t238.5 31.5q93 10 183 18.5t176.5 18t169.5 23t162 33.5q13 38 36.5 70t52.5 58q51 45 107.5 67.5t104.5 22.5q45 0 73.5 -20t28.5 -62q0 -29 -16 -67q-18 -39 -47 -73.5t-61 -63.5
q-36 -32 -67 -45.5t-54 -13.5q-26 0 -41.5 14.5t-15.5 39.5q0 23 15 52.5t49 59.5q-35 -15 -71.5 -27t-73.5 -22q-12 -35 -12 -67q0 -29 8.5 -56t22.5 -51q2 -3 0.5 -6.5t-5.5 -4.5q-67 -14 -123 -49.5t-103.5 -85t-86.5 -109t-71 -120.5q-60 -116 -86.5 -214.5
t-26.5 -174.5q0 -95 35 -149t94 -59q45 -3 89.5 20.5t86.5 60.5t79.5 79.5t68.5 77.5l183 212q47 53 94 104t104 96zM1608 816q-25 -21 -45 -47.5t-33 -55.5q55 15 107.5 35t102.5 49q11 6 14 0.5t-3 -11.5q-72 -45 -103 -85.5t-31 -68.5q0 -18 12 -28.5t32 -10.5
q21 0 50 13t62 43q30 27 58 60t45 71q15 36 15 61q0 34 -22 50t-57 16q-43 0 -97.5 -23t-106.5 -68zM1833 1016q0 -9 -5.5 -14t-12.5 -5.5t-12.5 3t-5.5 12.5t5.5 14t12.5 6t12.5 -3t5.5 -13z" />
    <glyph glyph-name="edotaccent" unicode="&#x117;" 
d="M317 196q7 6 11.5 0.5t-0.5 -10.5q-27 -24 -65.5 -54.5t-79 -60t-78 -55t-64.5 -39.5q-20 -10 -35 -14t-27 -4q-26 0 -38 17t-12 44q0 23 7.5 49.5t20.5 54.5q13 27 29 53t39 48q17 17 30.5 24t24.5 7q14 0 21 -10t7 -24q0 -15 -7 -29q-14 -26 -40 -36.5t-55 -9.5
q-5 -9 -9.5 -18.5t-8.5 -18.5q-14 -32 -22 -58.5t-8 -44.5q0 -32 27 -32q9 0 21.5 3t28.5 11q25 12 64.5 39t81 58.5t79 61.5t57.5 48zM44 208q-18 -24 -30 -46q19 0 40 6.5t32 31.5q5 10 5 20.5t-5 15t-15.5 -1t-26.5 -26.5zM108 326q0 -9 -5.5 -14t-12.5 -5.5t-12.5 3
t-5.5 12.5t5.5 14t12.5 6t12.5 -3t5.5 -13z" />
    </font>
</defs>
</svg>
