<?xml version="1.0" standalone="no"?>
<!DOCTYPE svg PUBLIC "-//W3C//DTD SVG 1.1//EN" "http://www.w3.org/Graphics/SVG/1.1/DTD/svg11.dtd" >
<svg xmlns="http://www.w3.org/2000/svg" xmlns:xlink="http://www.w3.org/1999/xlink" version="1.1">
<metadata>
Created by FontForge 20200427 at Fri May 22 23:10:48 2015
 By www
Copyright (c) 2012 by Radko Hromatka, www.tygra.cz. All rights reserved.
</metadata>
<defs>
<font id="GalandaModernaW00-Light" horiz-adv-x="651" >
  <font-face 
    font-family="GalandaModernaW00-Light"
    font-weight="300"
    font-stretch="normal"
    units-per-em="1000"
    panose-1="2 0 5 5 8 0 0 2 0 4"
    ascent="800"
    descent="-200"
    x-height="761"
    cap-height="761"
    bbox="-95 -250 1238 964"
    underline-thickness="50"
    underline-position="-175"
    unicode-range="U+0020-FB02"
  />
<missing-glyph horiz-adv-x="1000" 
 />
    <glyph glyph-name="uniFB01" unicode="fi" horiz-adv-x="847" 
d="M157 325v-325h-57v761h450v-53h-393v-329h393v-54h-393zM777 761v-761h-57v761h57z" />
    <glyph glyph-name="uniFB02" unicode="fl" horiz-adv-x="1138" 
d="M157 325v-325h-57v761h450v-53h-393v-329h393v-54h-393zM1068 0h-348v761h57v-703h291v-58z" />
    <glyph glyph-name=".notdef" horiz-adv-x="1000" 
 />
    <glyph glyph-name=".null" horiz-adv-x="0" 
 />
    <glyph glyph-name="nonmarkingreturn" horiz-adv-x="333" 
 />
    <glyph glyph-name="space" unicode=" " horiz-adv-x="312" 
 />
    <glyph glyph-name="exclam" unicode="!" horiz-adv-x="227" 
d="M157 761v-446h-57v446h57zM76 43q0 23 15.5 39.5t38.5 16.5t39.5 -16.5t16.5 -39.5t-16.5 -38.5t-39.5 -15.5t-38.5 15.5t-15.5 38.5z" />
    <glyph glyph-name="quotedbl" unicode="&#x22;" horiz-adv-x="332" 
d="M76 518v243h49v-243h-49zM208 518v243h49v-243h-49z" />
    <glyph glyph-name="numbersign" unicode="#" horiz-adv-x="775" 
d="M100 410h189v231h54v-231h119v231h54v-231h189v-54h-189v-120h189v-54h-189v-182h-54v182h-119v-182h-54v182h-189v54h189v120h-189v54zM343 236h119v120h-119v-120z" />
    <glyph glyph-name="dollar" unicode="$" horiz-adv-x="776" 
d="M434 903v-142h272v-57h-337h-27t-42 -3t-48 -10.5t-46 -21.5t-34.5 -37t-14.5 -56q0 -25 6.5 -43.5t18 -32.5t27 -23t32.5 -15l338 -106q60 -17 93.5 -56.5t33.5 -114.5q0 -56 -24 -92t-61 -56.5t-82 -28.5t-86 -8h-19v-141h-57v141h-277v57h337h27t42 3t48 10.5t46 21.5
t34.5 36.5t14.5 56.5q1 50 -24 76.5t-59 38.5l-338 106q-60 17 -94 56t-34 114q0 56 24 92t61 56.5t82 28.5t86 8h24v142h57z" />
    <glyph glyph-name="ampersand" unicode="&#x26;" horiz-adv-x="821" 
d="M520 243q0 -8 0.5 -25t5 -37.5t16 -42.5t34 -40t57.5 -29.5t88 -11.5h30v-57h-19q-134 0 -200 62q-66 60 -69 157v168h-91q-15 0 -50 -5t-71.5 -20.5t-64 -46t-27.5 -81.5q0 -43 13.5 -72.5t35 -49t47.5 -30.5t50.5 -16.5t44.5 -7t29 -1.5l42 2v-57l-51 -2
q-134 0 -200 62q-35 32 -52 76.5t-17 95.5q0 68 42 122q20 24 47 36.5t62 23.5q-48 19 -74 61.5t-26 108.5q0 56 24 90.5t61 53t82 25t86 6.5l16 -2v-55q-8 0 -27 0.5t-42.5 -1.5t-48.5 -8t-45.5 -19t-34 -35t-14.5 -55q0 -7 2 -30t17.5 -48t49.5 -44.5t96 -19.5h89v88h57
v-88h231v-57h-231v-144z" />
    <glyph glyph-name="quotesingle" unicode="'" horiz-adv-x="189" 
d="M76 518v243h49v-243h-49z" />
    <glyph glyph-name="parenleft" unicode="(" horiz-adv-x="377" 
d="M281 -52q-54 20 -99.5 62.5t-78.5 101t-51 129.5t-18 148q0 76 18 147t51 129.5t78.5 101t99.5 62.5l27 -63q-48 -16 -88 -53t-68.5 -87.5t-44.5 -112t-16 -127.5t16 -126.5t44.5 -110.5t68.5 -85.5t88 -51.5z" />
    <glyph glyph-name="parenright" unicode=")" horiz-adv-x="377" 
d="M34 12q48 16 88 51.5t68.5 85.5t44.5 110.5t16 126.5t-16 127.5t-44.5 112t-68.5 87.5t-88 53l27 63q54 -20 99.5 -62.5t78.5 -101t51 -129.5t18 -147q0 -77 -18 -148t-51 -129.5t-78.5 -101t-99.5 -62.5z" />
    <glyph glyph-name="asterisk" unicode="*" horiz-adv-x="411" 
d="M381 659l-118 -82l118 -83l-33 -46l-106 74v-130h-57v130l-106 -74l-33 46l118 83l-118 82l33 47l106 -74v129h57v-129l106 74l33 -47v0z" />
    <glyph glyph-name="plus" unicode="+" horiz-adv-x="735" 
d="M634 444v-57h-238v-238h-57v238h-239v57h239v239h57v-239h238v0z" />
    <glyph glyph-name="comma" unicode="," horiz-adv-x="248" 
d="M61 -109l58 234l54 -24l-68 -234z" />
    <glyph glyph-name="hyphen" unicode="-" horiz-adv-x="558" 
d="M100 444h358v-57h-358v57z" />
    <glyph glyph-name="period" unicode="." horiz-adv-x="248" 
d="M69 43q0 23 15.5 39.5t38.5 16.5t39.5 -16.5t16.5 -39.5t-16.5 -38.5t-39.5 -15.5t-38.5 15.5t-15.5 38.5z" />
    <glyph glyph-name="slash" unicode="/" horiz-adv-x="482" 
d="M480 761l-402 -761h-62l402 761h62z" />
    <glyph glyph-name="zero" unicode="0" horiz-adv-x="792" 
d="M415 771q76 0 138 -31t106 -85t68.5 -127.5t24.5 -158.5t-24.5 -155t-68.5 -120t-106 -77.5t-138 -27.5q-75 0 -137 27.5t-106.5 77.5t-68.5 120t-24 155t24 158.5t68.5 127.5t106.5 85t137 31zM415 52q65 0 116.5 24.5t87.5 68t55.5 103.5t19.5 130t-19.5 130.5
t-55.5 105t-87.5 70t-116.5 25.5t-116.5 -25.5t-87.5 -70t-55.5 -105t-19.5 -130.5t19.5 -130t55.5 -103.5t87.5 -68t116.5 -24.5z" />
    <glyph glyph-name="one" unicode="1" horiz-adv-x="438" 
d="M368 761v-761h-57v682l-238 -87v58z" />
    <glyph glyph-name="two" unicode="2" horiz-adv-x="655" 
d="M585 57v-57h-483l178 246l135 187q5 9 16 26t22.5 39.5t21 47.5t12 50.5t-5 48.5t-29.5 41q-26 21 -53 24t-52.5 -5.5t-48.5 -24.5t-41.5 -33.5t-31.5 -33t-18 -21.5l-14 -20l-41 41l18 25q24 33 59.5 64.5t77.5 49.5t87.5 16t90.5 -36q35 -27 49.5 -63.5t10.5 -79.5
t-25.5 -91t-57.5 -97l-144 -201l-104 -143h371z" />
    <glyph glyph-name="three" unicode="3" horiz-adv-x="574" 
d="M485 356q42 -54 42 -122q0 -51 -17 -95.5t-52 -76.5q-66 -62 -200 -62l-158 6v57l149 -6q9 0 29 1.5t44.5 7t50.5 16.5t47.5 30.5t35 49t13.5 72.5q0 51 -27.5 81.5t-64 46t-71.5 20.5t-50 5h-62v57h60q62 0 96 19.5t49.5 44.5t17.5 48t2 30q-1 33 -14.5 55t-34.5 35
t-46 19t-48 8t-42 1.5t-27 -0.5l-87 -10v57l103 10q41 0 86 -6.5t82 -25t61 -53t24 -90.5q0 -66 -26 -108.5t-74 -61.5q35 -11 62 -23.5t47 -36.5z" />
    <glyph glyph-name="four" unicode="4" horiz-adv-x="575" 
d="M381 761h124v-761h-57v227h-395zM448 284h-292l292 477v-477z" />
    <glyph glyph-name="five" unicode="5" horiz-adv-x="553" 
d="M201 444q47 -1 97 -6t91 -26t67.5 -63.5t26.5 -117.5q0 -54 -17 -97t-47 -72.5t-71.5 -45.5t-90.5 -16h-168v58h147q12 0 42.5 5t63 22t58 51t25.5 92q0 47 -14 77.5t-42.5 48.5t-71.5 25.5t-101 7.5h-96v374h383v-57h-326v-260h44v0z" />
    <glyph glyph-name="six" unicode="6" horiz-adv-x="677" 
d="M339 517q61 0 114 -21t92.5 -57t62.5 -84t23 -102t-23 -102t-62.5 -83t-92.5 -55.5t-114 -20.5q-62 0 -116 20.5t-94 55.5t-62.5 83t-22.5 102l200 507h60l-112 -277q66 34 147 34zM336 50q49 0 92.5 16t75.5 43.5t50.5 64.5t18.5 79t-18.5 79t-50.5 64.5t-75.5 43.5
t-92.5 16q-56 0 -103 -19t-80 -51l-58 -144q3 -40 22 -75t51.5 -61t75 -41t92.5 -15z" />
    <glyph glyph-name="seven" unicode="7" horiz-adv-x="455" 
d="M93 761h358l-293 -761h-63l271 704h-273v57z" />
    <glyph glyph-name="eight" unicode="8" horiz-adv-x="737" 
d="M544 408q35 -9 65 -26t51.5 -41t33.5 -53.5t12 -63.5q0 -57 -21.5 -99.5t-58.5 -70t-85.5 -41t-103.5 -13.5h-126q-51 0 -99.5 12.5t-86 39.5t-60.5 69.5t-23 102.5q0 30 10.5 59t31.5 53.5t51 43t69 28.5q-52 27 -78 69.5t-26 92.5q0 49 23 84.5t59.5 59t81.5 35
t89 12.5h42q41 0 85.5 -11t82 -34.5t61.5 -59.5t24 -86t-26 -92.5t-78 -69.5zM158 562q0 -38 18.5 -65t48 -44t65 -25.5t68.5 -9.5h33q31 0 66 7.5t65 25t49.5 45t19.5 66.5q0 38 -18.5 64.5t-48 44t-65 25.5t-68.5 9h-33q-32 0 -67 -7.5t-64 -25t-48.5 -44.5t-20.5 -66z
M479 57q31 1 61.5 13t54.5 32.5t39 48.5t15 60q0 30 -11.5 56t-31.5 45.5t-48.5 32.5t-62.5 16h-243q-33 -3 -61.5 -16t-48.5 -32.5t-31.5 -45.5t-11.5 -56q0 -32 15 -60t40 -49t55.5 -33t62.5 -12h207z" />
    <glyph glyph-name="nine" unicode="9" horiz-adv-x="700" 
d="M336 768q61 0 114.5 -20t93.5 -55t63 -82.5t23 -102.5v-508h-57v351q-41 -48 -102.5 -77.5t-134.5 -29.5q-61 0 -114.5 20.5t-93 56t-62.5 83.5t-23 103v1q0 55 23 102.5t62.5 82.5t93 55t114.5 20zM334 300q51 0 94.5 16.5t75.5 44.5t50.5 65.5t18.5 80.5t-18.5 80.5
t-50.5 65.5t-75.5 44.5t-94.5 16.5q-49 0 -92 -16.5t-74.5 -44.5t-50 -65.5t-18.5 -80.5t18.5 -80.5t50 -65.5t74.5 -44.5t92 -16.5z" />
    <glyph glyph-name="colon" unicode=":" horiz-adv-x="248" 
d="M69 504q0 23 15.5 39.5t38.5 16.5t39.5 -16.5t16.5 -39.5t-16.5 -38.5t-39.5 -15.5t-38.5 15.5t-15.5 38.5zM69 213q0 23 15.5 39.5t38.5 16.5t39.5 -16.5t16.5 -39.5t-16.5 -38.5t-39.5 -15.5t-38.5 15.5t-15.5 38.5z" />
    <glyph glyph-name="semicolon" unicode=";" horiz-adv-x="248" 
d="M69 351q0 23 15.5 39.5t38.5 16.5t39.5 -16.5t16.5 -39.5t-16.5 -38.5t-39.5 -15.5t-38.5 15.5t-15.5 38.5zM61 -109l58 234l54 -24l-68 -234z" />
    <glyph glyph-name="less" unicode="&#x3c;" horiz-adv-x="337" 
d="M243 761h66l-206 -381l206 -380h-66l-206 380z" />
    <glyph glyph-name="equal" unicode="=" horiz-adv-x="715" 
d="M99 325v54h516v-54h-516zM99 155v54h516v-54h-516z" />
    <glyph glyph-name="greater" unicode="&#x3e;" horiz-adv-x="337" 
d="M314 380l-206 -380h-66l206 380l-206 381h66z" />
    <glyph glyph-name="question" unicode="?" horiz-adv-x="580" 
d="M100 448h165q8 0 27 -0.5t43 2t49.5 9t46.5 21t34 37.5t12 59q-1 33 -14.5 56t-34.5 37t-46 21.5t-48 10.5t-42 3h-27h-165v57h181q41 0 86 -8t82 -28.5t61 -56.5t24 -92t-19 -91.5t-53.5 -56.5t-84 -29t-110.5 -8h-167v57zM151 43q0 23 15.5 39.5t38.5 16.5t39.5 -16.5
t16.5 -39.5t-16.5 -38.5t-39.5 -15.5t-38.5 15.5t-15.5 38.5z" />
    <glyph glyph-name="at" unicode="@" horiz-adv-x="642" 
d="M542 0h-255v419h57v-362h141v647h-328v-519h-57v576h442v-761z" />
    <glyph glyph-name="A" unicode="A" horiz-adv-x="872" 
d="M803 0l-358 642l-340 -642h-70l409 761l429 -761h-70z" />
    <glyph glyph-name="B" unicode="B" horiz-adv-x="785" 
d="M697 346q42 -54 42 -122q0 -99 -69 -162q-66 -62 -200 -62h-370v761h328q41 0 86 -8t82 -28.5t61 -56.5t24 -92q0 -50 -26 -90.5t-78 -67.5q78 -20 120 -72zM461 57q9 0 29 0.5t44.5 5t50.5 14.5t47.5 28.5t35 47t13.5 71.5q0 40 -17 67.5t-43.5 46.5t-58.5 29.5
t-61.5 15.5t-53 6.5t-33.5 1.5h-257v-334h304zM157 448h255q8 0 27 -0.5t43 2t49.5 9t46.5 21t34 37.5t12 59q-1 33 -14.5 56t-34.5 37t-46 21.5t-48 10.5t-42 3h-27h-255v-256z" />
    <glyph glyph-name="C" unicode="C" horiz-adv-x="432" 
d="M361 712q-56 -12 -104 -44t-83.5 -77t-56 -99.5t-20.5 -111.5q0 -59 20 -114t55.5 -100t83.5 -77t105 -44v-53q-68 12 -126 47t-101 87t-67.5 117.5t-24.5 136.5t24.5 136t67.5 117t101.5 87.5t125.5 47.5v-56z" />
    <glyph glyph-name="D" unicode="D" horiz-adv-x="728" 
d="M319 761q78 0 146 -30.5t119 -82.5t80.5 -121t29.5 -147t-29.5 -147t-80.5 -120.5t-119 -82t-146 -30.5h-219v761h219zM322 54q65 2 122.5 28t101 69.5t68.5 102t25 126.5q0 66 -26 125t-70 103t-103.5 69.5t-125.5 25.5h-157v-649h165z" />
    <glyph glyph-name="E" unicode="E" horiz-adv-x="620" 
d="M157 52h393v-52h-450v761h450v-52h-393v-330h393v-52h-393v-275z" />
    <glyph glyph-name="F" unicode="F" horiz-adv-x="620" 
d="M157 325v-325h-57v761h450v-53h-393v-329h393v-54h-393z" />
    <glyph glyph-name="G" unicode="G" horiz-adv-x="486" 
d="M361 712q-56 -12 -104 -44t-83.5 -77t-56 -99.5t-20.5 -111.5q0 -59 20 -114t55 -100t83 -77t105 -44v227h56v-283h-56q-68 12 -126 47.5t-100.5 88t-67 118.5t-24.5 137t24.5 136.5t67.5 118t101.5 88.5t125.5 48v-59z" />
    <glyph glyph-name="H" unicode="H" horiz-adv-x="773" 
d="M157 347l489 140v274h57v-761h-57v432l-489 -140v-292h-57v761h57v-414z" />
    <glyph glyph-name="I" unicode="I" horiz-adv-x="227" 
d="M157 761v-761h-57v761h57z" />
    <glyph glyph-name="J" unicode="J" horiz-adv-x="482" 
d="M100 52h3q58 0 99 14t69 36.5t44 52t24.5 60t11 59.5t2.5 52v435h59v-438q0 -8 -0.5 -36.5t-7.5 -66t-25 -78.5t-52.5 -74.5t-89.5 -53t-137 -14.5v52z" />
    <glyph glyph-name="K" unicode="K" horiz-adv-x="520" 
d="M450 -21l-293 357v-336h-57v761h57v-332l293 354v-82l-260 -320l260 -318v-84z" />
    <glyph glyph-name="L" unicode="L" horiz-adv-x="518" 
d="M448 0h-348v761h57v-703h291v-58z" />
    <glyph glyph-name="M" unicode="M" horiz-adv-x="906" 
d="M836 761v-761h-57v607q-27 -37 -67 -86t-83.5 -100.5t-86 -101.5t-75.5 -89l-310 374v-604h-57v761l366 -447z" />
    <glyph glyph-name="N" unicode="N" horiz-adv-x="817" 
d="M690 142v619h57v-761l-590 619v-619h-57v761z" />
    <glyph glyph-name="O" unicode="O" horiz-adv-x="835" 
d="M436 768q76 0 141.5 -29t114 -80.5t76 -123t27.5 -155.5q0 -85 -27.5 -156t-76 -122.5t-114 -80.5t-141.5 -29q-75 0 -140.5 29t-113.5 80.5t-75.5 122.5t-27.5 156q0 84 27.5 155.5t75.5 123t113.5 80.5t140.5 29zM436 52q65 0 120 24.5t95.5 68t63.5 103.5t23 130
t-23 130.5t-63.5 105t-95.5 70t-120 25.5t-119.5 -25.5t-95 -70t-63 -105t-22.5 -130.5t22.5 -130t63 -103.5t95 -68t119.5 -24.5z" />
    <glyph glyph-name="P" unicode="P" horiz-adv-x="726" 
d="M108 0v761h328q41 0 86 -8t82 -28.5t61 -56.5t24 -92t-19 -91.5t-53.5 -56.5t-84 -29t-110.5 -8h-257v-391h-57zM165 448h255q8 0 27 -0.5t43 2t49.5 9t46.5 21t34 37.5t12 59q-1 33 -14.5 56t-34.5 37t-46 21.5t-48 10.5t-42 3h-27h-255v-256z" />
    <glyph glyph-name="Q" unicode="Q" horiz-adv-x="855" 
d="M795 -194l-187 227q-75 -41 -172 -41q-75 0 -140.5 29t-113.5 80.5t-75.5 122.5t-27.5 156q0 84 27.5 155.5t75.5 123t113.5 80.5t140.5 29q76 0 141.5 -29t114 -80.5t76 -123t27.5 -155.5q0 -101 -38 -182.5t-104 -133.5l142 -174v-84zM436 52q65 0 120 24.5t95.5 68
t63.5 103.5t23 130t-23 130.5t-63.5 105t-95.5 70t-120 25.5t-119.5 -25.5t-95 -70t-63 -105t-22.5 -130.5t22.5 -130t63 -103.5t95 -68t119.5 -24.5z" />
    <glyph glyph-name="R" unicode="R" horiz-adv-x="718" 
d="M108 0v761h328q41 0 86 -8t82 -28.5t61 -56.5t24 -92t-19 -91.5t-53.5 -56.5t-84 -29t-110.5 -8h-19l209 -391h-66l-209 391h-172v-391h-57zM165 448h255q8 0 27 -0.5t43 2t49.5 9t46.5 21t34 37.5t12 59q-1 33 -14.5 56t-34.5 37t-46 21.5t-48 10.5t-42 3h-27h-255v-256
z" />
    <glyph glyph-name="S" unicode="S" horiz-adv-x="776" 
d="M579 356q60 -17 93.5 -56.5t33.5 -114.5q0 -56 -24 -92t-61 -56.5t-82 -28.5t-86 -8h-353v57h337h27t42 3t48 10.5t46 21.5t34.5 36.5t14.5 56.5q1 50 -24 76.5t-59 38.5l-338 106q-60 17 -94 56t-34 114q0 56 24 92t61 56.5t82 28.5t86 8h353v-57h-337h-27t-42 -3
t-48 -10.5t-46 -21.5t-34.5 -37t-14.5 -56q0 -25 6.5 -43.5t18 -32.5t27 -23t32.5 -15l338 -106v0z" />
    <glyph glyph-name="T" unicode="T" horiz-adv-x="729" 
d="M729 709h-336v-709h-57v709h-336v52h729v-52z" />
    <glyph glyph-name="U" unicode="U" 
d="M581 275q0 -1 -1 -23t-7.5 -53.5t-21 -68.5t-41.5 -68t-68.5 -52t-102.5 -21q-46 0 -81 12t-60.5 32.5t-42.5 46t-28 52.5q-26 62 -27 143v486h57v-433q-3 -77 15 -138q7 -26 20 -50.5t33 -44t48 -31.5t66 -12q50 0 83.5 20t54 50.5t30.5 66t14 66t3.5 51t-0.5 21.5v434
h57v-486v0z" />
    <glyph glyph-name="V" unicode="V" horiz-adv-x="848" 
d="M104 761l338 -642l334 642h72l-406 -761l-407 761h69z" />
    <glyph glyph-name="W" unicode="W" horiz-adv-x="1115" 
d="M706 119l334 642h72l-406 -761l-133 247l-131 -247l-407 761h69l338 -642l131 247z" />
    <glyph glyph-name="X" unicode="X" horiz-adv-x="714" 
d="M681 761l-277 -381l277 -380h-72l-249 333l-248 -333h-72l277 380l-277 381h72l248 -333l249 333h72v0z" />
    <glyph glyph-name="Y" unicode="Y" horiz-adv-x="837" 
d="M456 343v-343h-57v343l-357 418h72l314 -367l316 367h72z" />
    <glyph glyph-name="Z" unicode="Z" horiz-adv-x="777" 
d="M72 761h648l-538 -709h537v-52h-648l539 709h-538v52z" />
    <glyph glyph-name="bracketleft" unicode="[" horiz-adv-x="551" 
d="M157 52h324v-52h-381v761h381v-52h-324v-657z" />
    <glyph glyph-name="backslash" unicode="\" horiz-adv-x="482" 
d="M78 761l402 -761h-62l-402 761h62z" />
    <glyph glyph-name="bracketright" unicode="]" horiz-adv-x="551" 
d="M424 709h-324v52h381v-761h-381v52h324v657z" />
    <glyph glyph-name="asciicircum" unicode="^" horiz-adv-x="881" 
d="M811 427v-66l-356 192l-355 -192v66l355 192z" />
    <glyph glyph-name="underscore" unicode="_" horiz-adv-x="500" 
d="M0 0h500v-57h-500v57z" />
    <glyph glyph-name="grave" unicode="`" horiz-adv-x="310" 
d="M191 740l-119 223h62l119 -223h-62z" />
    <glyph glyph-name="a" unicode="a" horiz-adv-x="872" 
d="M803 0l-358 642l-340 -642h-70l409 761l429 -761h-70z" />
    <glyph glyph-name="b" unicode="b" horiz-adv-x="785" 
d="M697 346q42 -54 42 -122q0 -99 -69 -162q-66 -62 -200 -62h-370v761h328q41 0 86 -8t82 -28.5t61 -56.5t24 -92q0 -50 -26 -90.5t-78 -67.5q78 -20 120 -72zM461 57q9 0 29 0.5t44.5 5t50.5 14.5t47.5 28.5t35 47t13.5 71.5q0 40 -17 67.5t-43.5 46.5t-58.5 29.5
t-61.5 15.5t-53 6.5t-33.5 1.5h-257v-334h304zM157 448h255q8 0 27 -0.5t43 2t49.5 9t46.5 21t34 37.5t12 59q-1 33 -14.5 56t-34.5 37t-46 21.5t-48 10.5t-42 3h-27h-255v-256z" />
    <glyph glyph-name="c" unicode="c" horiz-adv-x="432" 
d="M361 712q-56 -12 -104 -44t-83.5 -77t-56 -99.5t-20.5 -111.5q0 -59 20 -114t55.5 -100t83.5 -77t105 -44v-53q-68 12 -126 47t-101 87t-67.5 117.5t-24.5 136.5t24.5 136t67.5 117t101.5 87.5t125.5 47.5v-56z" />
    <glyph glyph-name="d" unicode="d" horiz-adv-x="728" 
d="M319 761q78 0 146 -30.5t119 -82.5t80.5 -121t29.5 -147t-29.5 -147t-80.5 -120.5t-119 -82t-146 -30.5h-219v761h219zM322 54q65 2 122.5 28t101 69.5t68.5 102t25 126.5q0 66 -26 125t-70 103t-103.5 69.5t-125.5 25.5h-157v-649h165z" />
    <glyph glyph-name="e" unicode="e" horiz-adv-x="620" 
d="M157 52h393v-52h-450v761h450v-52h-393v-330h393v-52h-393v-275z" />
    <glyph glyph-name="f" unicode="f" horiz-adv-x="620" 
d="M157 325v-325h-57v761h450v-53h-393v-329h393v-54h-393z" />
    <glyph glyph-name="g" unicode="g" horiz-adv-x="486" 
d="M361 712q-56 -12 -104 -44t-83.5 -77t-56 -99.5t-20.5 -111.5q0 -59 20 -114t55 -100t83 -77t105 -44v227h56v-283h-56q-68 12 -126 47.5t-100.5 88t-67 118.5t-24.5 137t24.5 136.5t67.5 118t101.5 88.5t125.5 48v-59z" />
    <glyph glyph-name="h" unicode="h" horiz-adv-x="773" 
d="M157 347l489 140v274h57v-761h-57v432l-489 -140v-292h-57v761h57v-414z" />
    <glyph glyph-name="i" unicode="i" horiz-adv-x="227" 
d="M157 761v-761h-57v761h57z" />
    <glyph glyph-name="j" unicode="j" horiz-adv-x="482" 
d="M100 52h3q58 0 99 14t69 36.5t44 52t24.5 60t11 59.5t2.5 52v435h59v-438q0 -8 -0.5 -36.5t-7.5 -66t-25 -78.5t-52.5 -74.5t-89.5 -53t-137 -14.5v52z" />
    <glyph glyph-name="k" unicode="k" horiz-adv-x="520" 
d="M450 -21l-293 357v-336h-57v761h57v-332l293 354v-82l-260 -320l260 -318v-84z" />
    <glyph glyph-name="l" unicode="l" horiz-adv-x="518" 
d="M448 0h-348v761h57v-703h291v-58z" />
    <glyph glyph-name="m" unicode="m" horiz-adv-x="906" 
d="M836 761v-761h-57v607q-27 -37 -67 -86t-83.5 -100.5t-86 -101.5t-75.5 -89l-310 374v-604h-57v761l366 -447z" />
    <glyph glyph-name="n" unicode="n" horiz-adv-x="817" 
d="M690 142v619h57v-761l-590 619v-619h-57v761z" />
    <glyph glyph-name="o" unicode="o" horiz-adv-x="835" 
d="M436 768q76 0 141.5 -29t114 -80.5t76 -123t27.5 -155.5q0 -85 -27.5 -156t-76 -122.5t-114 -80.5t-141.5 -29q-75 0 -140.5 29t-113.5 80.5t-75.5 122.5t-27.5 156q0 84 27.5 155.5t75.5 123t113.5 80.5t140.5 29zM436 52q65 0 120 24.5t95.5 68t63.5 103.5t23 130
t-23 130.5t-63.5 105t-95.5 70t-120 25.5t-119.5 -25.5t-95 -70t-63 -105t-22.5 -130.5t22.5 -130t63 -103.5t95 -68t119.5 -24.5z" />
    <glyph glyph-name="p" unicode="p" horiz-adv-x="726" 
d="M108 0v761h328q41 0 86 -8t82 -28.5t61 -56.5t24 -92t-19 -91.5t-53.5 -56.5t-84 -29t-110.5 -8h-257v-391h-57zM165 448h255q8 0 27 -0.5t43 2t49.5 9t46.5 21t34 37.5t12 59q-1 33 -14.5 56t-34.5 37t-46 21.5t-48 10.5t-42 3h-27h-255v-256z" />
    <glyph glyph-name="q" unicode="q" horiz-adv-x="855" 
d="M795 -194l-187 227q-75 -41 -172 -41q-75 0 -140.5 29t-113.5 80.5t-75.5 122.5t-27.5 156q0 84 27.5 155.5t75.5 123t113.5 80.5t140.5 29q76 0 141.5 -29t114 -80.5t76 -123t27.5 -155.5q0 -101 -38 -182.5t-104 -133.5l142 -174v-84zM436 52q65 0 120 24.5t95.5 68
t63.5 103.5t23 130t-23 130.5t-63.5 105t-95.5 70t-120 25.5t-119.5 -25.5t-95 -70t-63 -105t-22.5 -130.5t22.5 -130t63 -103.5t95 -68t119.5 -24.5z" />
    <glyph glyph-name="r" unicode="r" horiz-adv-x="718" 
d="M108 0v761h328q41 0 86 -8t82 -28.5t61 -56.5t24 -92t-19 -91.5t-53.5 -56.5t-84 -29t-110.5 -8h-19l209 -391h-66l-209 391h-172v-391h-57zM165 448h255q8 0 27 -0.5t43 2t49.5 9t46.5 21t34 37.5t12 59q-1 33 -14.5 56t-34.5 37t-46 21.5t-48 10.5t-42 3h-27h-255v-256
z" />
    <glyph glyph-name="s" unicode="s" horiz-adv-x="776" 
d="M579 356q60 -17 93.5 -56.5t33.5 -114.5q0 -56 -24 -92t-61 -56.5t-82 -28.5t-86 -8h-353v57h337h27t42 3t48 10.5t46 21.5t34.5 36.5t14.5 56.5q1 50 -24 76.5t-59 38.5l-338 106q-60 17 -94 56t-34 114q0 56 24 92t61 56.5t82 28.5t86 8h353v-57h-337h-27t-42 -3
t-48 -10.5t-46 -21.5t-34.5 -37t-14.5 -56q0 -25 6.5 -43.5t18 -32.5t27 -23t32.5 -15l338 -106v0z" />
    <glyph glyph-name="t" unicode="t" horiz-adv-x="729" 
d="M729 709h-336v-709h-57v709h-336v52h729v-52z" />
    <glyph glyph-name="u" unicode="u" 
d="M581 275q0 -1 -1 -23t-7.5 -53.5t-21 -68.5t-41.5 -68t-68.5 -52t-102.5 -21q-46 0 -81 12t-60.5 32.5t-42.5 46t-28 52.5q-26 62 -27 143v486h57v-433q-3 -77 15 -138q7 -26 20 -50.5t33 -44t48 -31.5t66 -12q50 0 83.5 20t54 50.5t30.5 66t14 66t3.5 51t-0.5 21.5v434
h57v-486v0z" />
    <glyph glyph-name="v" unicode="v" horiz-adv-x="848" 
d="M104 761l338 -642l334 642h72l-406 -761l-407 761h69z" />
    <glyph glyph-name="w" unicode="w" horiz-adv-x="1115" 
d="M706 119l334 642h72l-406 -761l-133 247l-131 -247l-407 761h69l338 -642l131 247z" />
    <glyph glyph-name="x" unicode="x" horiz-adv-x="714" 
d="M681 761l-277 -381l277 -380h-72l-249 333l-248 -333h-72l277 380l-277 381h72l248 -333l249 333h72v0z" />
    <glyph glyph-name="y" unicode="y" horiz-adv-x="837" 
d="M456 343v-343h-57v343l-357 418h72l314 -367l316 367h72z" />
    <glyph glyph-name="z" unicode="z" horiz-adv-x="777" 
d="M72 761h648l-538 -709h537v-52h-648l539 709h-538v52z" />
    <glyph glyph-name="braceleft" unicode="{" horiz-adv-x="337" 
d="M243 761h66l-206 -381l206 -380h-66l-206 380z" />
    <glyph glyph-name="bar" unicode="|" horiz-adv-x="227" 
d="M157 750v-1000h-57v1000h57z" />
    <glyph glyph-name="braceright" unicode="}" horiz-adv-x="337" 
d="M314 380l-206 -380h-66l206 380l-206 381h66z" />
    <glyph glyph-name="asciitilde" unicode="~" horiz-adv-x="587" 
d="M546 431q0 -40 -9 -74.5t-27.5 -57.5t-46.5 -31.5t-65 3.5q-18 6 -53.5 21.5t-74 32t-73 29t-52.5 12.5t-27.5 -12.5t-14 -29t-5 -34t-0.5 -27.5h-67q0 40 9 74.5t27.5 57.5t46 31.5t65.5 -3.5q18 -6 53 -21.5t73.5 -32t73 -29t52.5 -12.5t27.5 12.5t14 29t5.5 34t1 27.5
h67z" />
    <glyph glyph-name="exclamdown" unicode="&#xa1;" horiz-adv-x="227" 
d="M100 0v446h57v-446h-57zM181 718q0 -23 -15.5 -39.5t-38.5 -16.5t-39.5 16.5t-16.5 39.5t16.5 38.5t39.5 15.5t38.5 -15.5t15.5 -38.5z" />
    <glyph glyph-name="cent" unicode="&#xa2;" horiz-adv-x="432" 
d="M361 712q-56 -12 -104 -44t-83.5 -77t-56 -99.5t-20.5 -111.5q0 -59 20 -114t55.5 -100t83.5 -77t105 -44v-53q-68 12 -126 47t-101 87t-67.5 117.5t-24.5 136.5t24.5 136t67.5 117t101.5 87.5t125.5 47.5v-56z" />
    <glyph glyph-name="sterling" unicode="&#xa3;" horiz-adv-x="518" 
d="M157 58h291v-58h-348v761h57v-382l203 133v-63l-203 -133v-258v0z" />
    <glyph glyph-name="currency" unicode="&#xa4;" horiz-adv-x="754" 
d="M674 44l-106 105q-38 -32 -87 -50t-104 -18q-53 0 -101 18t-86 50l-106 -105l-40 40l107 107q-29 37 -45.5 84.5t-16.5 103.5t16.5 103t45.5 85l-107 106l40 41l106 -106q38 33 86 50.5t101 17.5q55 0 104 -18t87 -50l106 106l40 -41l-107 -107q29 -37 45.5 -84
t16.5 -103t-16.5 -103.5t-45.5 -84.5l107 -107zM145 379q0 -54 18.5 -98t50.5 -76t74.5 -49.5t89.5 -17.5q48 0 91 17.5t75.5 49.5t51 76t18.5 98t-18.5 98t-51 75.5t-75.5 49t-91 17.5q-47 0 -89.5 -17.5t-74.5 -49t-50.5 -75.5t-18.5 -98z" />
    <glyph glyph-name="yen" unicode="&#xa5;" horiz-adv-x="837" 
d="M456 343v-343h-57v343l-357 418h72l314 -367l316 367h72zM160 236h516v-57h-516v57z" />
    <glyph glyph-name="brokenbar" unicode="&#xa6;" horiz-adv-x="227" 
d="M157 674v-350h-57v350h57zM157 174v-350h-57v350h57z" />
    <glyph glyph-name="section" unicode="&#xa7;" horiz-adv-x="655" 
d="M601 471q0 -63 -24 -100.5t-66 -57.5v-2q0 -66 -25 -125.5t-68 -104.5t-101 -71.5t-123 -26.5h-43v56h43q47 0 92.5 18t81.5 51t59.5 80t26.5 106q-28 -6 -58.5 -8.5t-64.5 -2.5q-56 0 -104.5 7.5t-85.5 28.5t-58 57.5t-21 94.5q0 61 24 98.5t65 57.5v8q0 66 25 125.5
t68 104.5t101 71.5t123 26.5h43v-56h-43q-48 0 -93 -18.5t-80.5 -52t-58 -81.5t-24.5 -108q29 7 57.5 9.5t61.5 2.5q56 0 105 -8t86 -29t58 -57.5t21 -93.5zM332 340q39 0 77 5.5t68 19.5t48.5 39.5t18.5 66.5q0 40 -18.5 65.5t-48.5 40t-68 20t-77 5.5t-77 -5.5t-68.5 -20
t-49 -40t-18.5 -65.5q0 -41 18.5 -66.5t49 -39.5t68.5 -19.5t77 -5.5z" />
    <glyph glyph-name="dieresis" unicode="&#xa8;" horiz-adv-x="902" 
d="M270 867q0 23 15.5 39.5t38.5 16.5t39.5 -16.5t16.5 -39.5t-16.5 -38.5t-39.5 -15.5t-38.5 15.5t-15.5 38.5zM528 867q0 23 15.5 39.5t38.5 16.5t39.5 -16.5t16.5 -39.5t-16.5 -38.5t-39.5 -15.5t-38.5 15.5t-15.5 38.5z" />
    <glyph glyph-name="copyright" unicode="&#xa9;" horiz-adv-x="787" 
d="M403 720q71 0 132 -27.5t106 -76.5t71 -116t26 -146t-26 -146t-71 -115.5t-106 -76t-132 -27.5t-132 27.5t-106 76t-70.5 115.5t-25.5 146t25.5 146t70.5 116t106 76.5t132 27.5zM402 43q63 0 114.5 24.5t88 67t56.5 99t20 119.5q0 64 -20 121t-56.5 99t-88 66.5
t-114.5 24.5q-62 0 -113 -24.5t-87 -66.5t-56 -99t-20 -121q0 -63 20 -119.5t56 -99t87 -67t113 -24.5zM406 571q-39 -9 -70 -28.5t-52 -48t-32.5 -64t-11.5 -75.5q0 -83 42.5 -141t122.5 -75v-57q-47 8 -87.5 33t-70.5 61.5t-47 82.5t-17 96t17.5 95.5t47.5 82.5t70.5 62
t87.5 33v-57z" />
    <glyph glyph-name="ordfeminine" unicode="&#xaa;" horiz-adv-x="500" 
d="M407 380l-158 280l-147 -280h-57l204 381l215 -381h-57z" />
    <glyph glyph-name="guillemotleft" unicode="&#xab;" horiz-adv-x="337" 
d="M243 761h66l-206 -381l206 -380h-66l-206 380z" />
    <glyph glyph-name="logicalnot" unicode="&#xac;" horiz-adv-x="686" 
d="M100 444h516v-334h-57v277h-459v57z" />
    <glyph glyph-name="registered" unicode="&#xae;" horiz-adv-x="787" 
d="M403 720q71 0 132 -27.5t106 -76.5t71 -116t26 -146t-26 -146t-71 -115.5t-106 -76t-132 -27.5t-132 27.5t-106 76t-70.5 115.5t-25.5 146t25.5 146t70.5 116t106 76.5t132 27.5zM402 43q63 0 114.5 24.5t88 67t56.5 99t20 119.5q0 64 -20 121t-56.5 99t-88 66.5
t-114.5 24.5q-62 0 -113 -24.5t-87 -66.5t-56 -99t-20 -121q0 -63 20 -119.5t56 -99t87 -67t113 -24.5zM283 69v281h98l150 -281h57l-150 281h13q44 0 79.5 6t60.5 21t38.5 40.5t13.5 65.5t-17.5 66t-44 41t-58.5 20.5t-62 5.5h-235v-547h57zM283 407h167q9 0 31.5 0.5
t45.5 7.5t41 22.5t18 45.5t-18 46t-41 22.5t-45.5 7t-31.5 0.5h-167v-152z" />
    <glyph glyph-name="macron" unicode="&#xaf;" horiz-adv-x="902" 
d="M672 906h-446v57h446v-57z" />
    <glyph glyph-name="degree" unicode="&#xb0;" horiz-adv-x="451" 
d="M224 761q38 0 71 -14.5t57 -41t38 -62t14 -77.5t-14 -78t-38 -62.5t-57 -41t-71 -14.5t-70.5 14.5t-56.5 41t-37.5 62.5t-13.5 78t13.5 77.5t37.5 62t56.5 41t70.5 14.5zM224 427q27 0 49.5 10.5t39 29t25.5 43.5t9 55t-9 55.5t-25.5 44t-39 29t-49.5 10.5t-49.5 -10.5
t-38 -29t-24.5 -44t-9 -55.5t9 -55t24.5 -43.5t38 -29t49.5 -10.5z" />
    <glyph glyph-name="plusminus" unicode="&#xb1;" horiz-adv-x="704" 
d="M634 387h-238v-238h-57v238h-239v57h239v239h57v-239h238v-57zM100 57h535v-57h-535v57z" />
    <glyph glyph-name="uni00B2" unicode="&#xb2;" horiz-adv-x="425" 
 />
    <glyph glyph-name="uni00B3" unicode="&#xb3;" horiz-adv-x="341" 
 />
    <glyph glyph-name="acute" unicode="&#xb4;" horiz-adv-x="310" 
d="M72 740l119 223h62l-119 -223h-62z" />
    <glyph glyph-name="mu" unicode="&#xb5;" 
d="M581 275q0 -1 -1 -22.5t-7.5 -53t-21 -68t-41.5 -67.5t-68.5 -51.5t-102.5 -20.5q-69 0 -112.5 25t-69.5 62v-281h-57v963h57v-433q-3 -77 15 -138q7 -26 20 -50.5t33 -44t48 -31.5t66 -12q50 0 83.5 20t54 50.5t30.5 66t14 66t3.5 51t-0.5 21.5v434h57v-486v0z" />
    <glyph glyph-name="paragraph" unicode="&#xb6;" horiz-adv-x="450" 
d="M28 502q0 37 14 69.5t38 56.5t56.5 38t69.5 14h174v-722h-57v665h-60v-665h-57v367q-37 0 -69.5 14t-56.5 38t-38 56.5t-14 68.5z" />
    <glyph glyph-name="periodcentered" unicode="&#xb7;" horiz-adv-x="310" 
d="M44 452q0 22 8.5 42t22.5 34.5t33.5 23t42.5 8.5q22 0 42 -8.5t34.5 -23t23 -34.5t8.5 -42q0 -23 -8.5 -42.5t-23 -33.5t-34.5 -22.5t-42 -8.5q-23 0 -42.5 8.5t-33.5 22.5t-22.5 33.5t-8.5 42.5z" />
    <glyph glyph-name="cedilla" unicode="&#xb8;" horiz-adv-x="359" 
d="M235 -94q0 26 -17.5 44t-37.5 29q-24 13 -54 21q13 0 40.5 -3t54.5 -13t47.5 -28.5t20.5 -49.5q0 -34 -18 -55.5t-45.5 -34t-61 -17.5t-64.5 -6v53q12 0 34.5 1t45 6.5t39 17.5t16.5 35z" />
    <glyph glyph-name="uni00B9" unicode="&#xb9;" horiz-adv-x="364" 
d="M220 761v-435h-57v366l-112 -49v57z" />
    <glyph glyph-name="ordmasculine" unicode="&#xba;" horiz-adv-x="451" 
d="M224 761q38 0 71 -14.5t57 -41t38 -62t14 -77.5t-14 -78t-38 -62.5t-57 -41t-71 -14.5t-70.5 14.5t-56.5 41t-37.5 62.5t-13.5 78t13.5 77.5t37.5 62t56.5 41t70.5 14.5zM224 427q27 0 49.5 10.5t39 29t25.5 43.5t9 55t-9 55.5t-25.5 44t-39 29t-49.5 10.5t-49.5 -10.5
t-38 -29t-24.5 -44t-9 -55.5t9 -55t24.5 -43.5t38 -29t49.5 -10.5z" />
    <glyph glyph-name="guillemotright" unicode="&#xbb;" horiz-adv-x="337" 
d="M314 380l-206 -380h-66l206 380l-206 381h66z" />
    <glyph glyph-name="onequarter" unicode="&#xbc;" horiz-adv-x="991" 
 />
    <glyph glyph-name="onehalf" unicode="&#xbd;" horiz-adv-x="991" 
 />
    <glyph glyph-name="threequarters" unicode="&#xbe;" horiz-adv-x="991" 
 />
    <glyph glyph-name="questiondown" unicode="&#xbf;" horiz-adv-x="604" 
d="M534 313h-165q-8 0 -27 0.5t-43 -2t-49.5 -9t-46.5 -21t-34 -38t-12 -58.5q1 -34 14.5 -56.5t34.5 -36.5t46 -21.5t48 -10.5t42 -3h27h165v-57h-181q-41 0 -86 8t-82 28.5t-61 56.5t-24 92q0 55 19 91t53.5 57t84 29t110.5 8h167v-57zM483 718q0 -23 -15.5 -39.5
t-38.5 -16.5t-39.5 16.5t-16.5 39.5t16.5 38.5t39.5 15.5t38.5 -15.5t15.5 -38.5z" />
    <glyph glyph-name="Agrave" unicode="&#xc0;" horiz-adv-x="872" 
d="M873 0h-70l-358 642l-340 -642h-70l257 478l-162 283h62l130 -227l122 227z" />
    <glyph glyph-name="Aacute" unicode="&#xc1;" horiz-adv-x="872" 
d="M873 0h-70l-358 642l-340 -642h-70l409 761l128 -227l127 227h61l-157 -283z" />
    <glyph glyph-name="Acircumflex" unicode="&#xc2;" horiz-adv-x="872" 
d="M315 740h-61l126 223h62zM569 740l-127 223h62l126 -223h-61v0zM803 0l-358 642l-340 -642h-70l409 761l429 -761h-70z" />
    <glyph glyph-name="Atilde" unicode="&#xc3;" horiz-adv-x="872" 
d="M710 963q0 -40 -9 -74.5t-27.5 -57.5t-46.5 -31.5t-65 3.5q-18 6 -53.5 21.5t-74 32t-73 29t-52.5 12.5t-27.5 -12.5t-14 -29t-5 -34t-0.5 -27.5h-67q0 40 9 74.5t27.5 57.5t46 31.5t65.5 -3.5q18 -6 53 -21.5t73.5 -32t73 -29t52.5 -12.5t27.5 12.5t14 29t5.5 34t1 27.5
h67zM803 0l-358 642l-340 -642h-70l409 761l429 -761h-70z" />
    <glyph glyph-name="Adieresis" unicode="&#xc4;" horiz-adv-x="872" 
d="M270 867q0 23 15.5 39.5t38.5 16.5t39.5 -16.5t16.5 -39.5t-16.5 -38.5t-39.5 -15.5t-38.5 15.5t-15.5 38.5zM528 867q0 23 15.5 39.5t38.5 16.5t39.5 -16.5t16.5 -39.5t-16.5 -38.5t-39.5 -15.5t-38.5 15.5t-15.5 38.5zM803 0l-358 642l-340 -642h-70l409 761l429 -761
h-70z" />
    <glyph glyph-name="Aring" unicode="&#xc5;" horiz-adv-x="872" 
d="M576 829q0 -28 -10.5 -52.5t-28.5 -42.5t-42.5 -28.5t-52.5 -10.5t-52.5 10.5t-42.5 28.5t-28.5 42.5t-10.5 52.5t10.5 52.5t28.5 42.5t42.5 28.5t52.5 10.5t52.5 -10.5t42.5 -28.5t28.5 -42.5t10.5 -52.5zM441 743q35 0 60 25.5t25 60.5t-24.5 60.5t-59.5 25.5
q-17 0 -31.5 -7t-26 -19t-18 -27.5t-6.5 -32.5t6.5 -32.5t18 -27.5t26 -19t31.5 -7h-1zM803 0l-358 642l-340 -642h-70l388 721l44 -1l406 -720h-70z" />
    <glyph glyph-name="AE" unicode="&#xc6;" horiz-adv-x="964" 
d="M894 709h-395v-330h395v-52h-395v-275h395v-52h-452l3 642l-340 -642h-70l409 761h450v-52v0z" />
    <glyph glyph-name="Ccedilla" unicode="&#xc7;" horiz-adv-x="432" 
d="M444 -94q0 18 -8.5 32t-21 24.5t-27 17.5t-26.5 12q-68 12 -126 47t-101 87t-67.5 117.5t-24.5 136.5t24.5 136t67.5 117t101.5 87.5t125.5 47.5v-56q-56 -12 -104 -44t-83.5 -77t-56 -99.5t-20.5 -111.5q0 -59 20 -114t55.5 -100t83.5 -77t105 -44v-46q19 -2 42.5 -7
t44.5 -15.5t35.5 -28t14.5 -42.5q0 -34 -18 -55.5t-45.5 -34t-61 -17.5t-64.5 -6v53q12 0 34.5 1t45 6.5t39 17.5t16.5 35z" />
    <glyph glyph-name="Egrave" unicode="&#xc8;" horiz-adv-x="620" 
d="M157 709v-330h393v-52h-393v-275h393v-52h-450v760l-108 203h62l108 -202h388v-52h-393z" />
    <glyph glyph-name="Eacute" unicode="&#xc9;" horiz-adv-x="620" 
d="M658 963l-108 -202v-52h-393v-330h393v-52h-393v-275h393v-52h-450v761h388l108 202h62v0z" />
    <glyph glyph-name="Ecircumflex" unicode="&#xca;" horiz-adv-x="620" 
d="M550 709h-393v-330h393v-52h-393v-275h393v-52h-450v761h49l114 202h62l-115 -202h230l-115 202h62l114 -202h49v-52v0z" />
    <glyph glyph-name="Edieresis" unicode="&#xcb;" horiz-adv-x="620" 
d="M141 867q0 23 15.5 39.5t38.5 16.5t39.5 -16.5t16.5 -39.5t-16.5 -38.5t-39.5 -15.5t-38.5 15.5t-15.5 38.5zM399 867q0 23 15.5 39.5t38.5 16.5t39.5 -16.5t16.5 -39.5t-16.5 -38.5t-39.5 -15.5t-38.5 15.5t-15.5 38.5zM157 52h393v-52h-450v761h450v-52h-393v-330h393
v-52h-393v-275z" />
    <glyph glyph-name="Igrave" unicode="&#xcc;" horiz-adv-x="227" 
d="M157 770v-770h-57v761l-107 201h63l101 -192v0z" />
    <glyph glyph-name="Iacute" unicode="&#xcd;" horiz-adv-x="227" 
d="M100 770l101 192h63l-107 -201v-761h-57v770v0z" />
    <glyph glyph-name="Icircumflex" unicode="&#xce;" horiz-adv-x="227" 
d="M1 740h-61l126 223h62zM255 740l-127 223h62l126 -223h-61v0zM100 761h57v-761h-57v761z" />
    <glyph glyph-name="Idieresis" unicode="&#xcf;" horiz-adv-x="227" 
d="M-56 867q0 23 15.5 39.5t38.5 16.5t39.5 -16.5t16.5 -39.5t-16.5 -38.5t-39.5 -15.5t-38.5 15.5t-15.5 38.5zM202 867q0 23 15.5 39.5t38.5 16.5t39.5 -16.5t16.5 -39.5t-16.5 -38.5t-39.5 -15.5t-38.5 15.5t-15.5 38.5zM157 761v-761h-57v761h57z" />
    <glyph glyph-name="Eth" unicode="&#xd0;" horiz-adv-x="733" 
d="M324 761q78 0 146 -30.5t119 -82.5t80.5 -121t29.5 -147t-29.5 -147t-80.5 -120.5t-119 -82t-146 -30.5h-219v761h219zM327 54q65 2 122.5 28t101 69.5t68.5 102t25 126.5q0 66 -26 125t-70 103t-103.5 69.5t-125.5 25.5h-157v-649h165zM0 409h335v-57h-335v57z" />
    <glyph glyph-name="Ntilde" unicode="&#xd1;" horiz-adv-x="817" 
d="M681 963q0 -40 -9 -74.5t-27.5 -57.5t-46.5 -31.5t-65 3.5q-18 6 -53.5 21.5t-74 32t-73 29t-52.5 12.5t-27.5 -12.5t-14 -29t-5 -34t-0.5 -27.5h-67q0 40 9 74.5t27.5 57.5t46 31.5t65.5 -3.5q18 -6 53 -21.5t73.5 -32t73 -29t52.5 -12.5t27.5 12.5t14 29t5.5 34t1 27.5
h67zM690 142v619h57v-761l-590 619v-619h-57v761z" />
    <glyph glyph-name="Ograve" unicode="&#xd2;" horiz-adv-x="835" 
d="M436 768q76 0 141.5 -29t114 -80.5t76 -123t27.5 -155.5q0 -85 -27.5 -156t-76 -122.5t-114 -80.5t-141.5 -29q-75 0 -140.5 29t-113.5 80.5t-75.5 122.5t-27.5 156q0 64 16 120t45 102.5t69 81.5t89 56l-119 223h62l109 -205q21 5 42 7.5t44 2.5zM436 52q65 0 120 24.5
t95.5 68t63.5 103.5t23 130t-23 130.5t-63.5 105t-95.5 70t-120 25.5t-119.5 -25.5t-95 -70t-63 -105t-22.5 -130.5t22.5 -130t63 -103.5t95 -68t119.5 -24.5z" />
    <glyph glyph-name="Oacute" unicode="&#xd3;" horiz-adv-x="835" 
d="M436 768q23 0 44 -2.5t42 -7.5l109 205h62l-119 -223q49 -21 89 -56t69 -81.5t45 -102.5t16 -120q0 -85 -27.5 -156t-75.5 -122.5t-113.5 -80.5t-140.5 -29q-76 0 -141.5 29t-114 80.5t-76 122.5t-27.5 156q0 84 27.5 155.5t76 123t114 80.5t141.5 29zM436 52
q64 0 119 24.5t95.5 68t63 103.5t22.5 130t-22.5 130.5t-63 105t-95.5 70t-119 25.5q-65 0 -120 -25.5t-95.5 -70t-63.5 -105t-23 -130.5t23 -130t63.5 -103.5t95.5 -68t120 -24.5z" />
    <glyph glyph-name="Ocircumflex" unicode="&#xd4;" horiz-adv-x="835" 
d="M436 52q65 0 120 24.5t95.5 68t63.5 103.5t23 130t-23 130.5t-63.5 105t-95.5 70t-120 25.5t-119.5 -25.5t-95 -70t-63 -105t-22.5 -130.5t22.5 -130t63 -103.5t95 -68t119.5 -24.5zM575 740q49 -21 89.5 -56t69.5 -81.5t45 -102.5t16 -120q0 -85 -27.5 -156t-76 -122.5
t-114 -80.5t-141.5 -29q-75 0 -140.5 29t-113.5 80.5t-75.5 122.5t-27.5 156q0 64 16 120t45 102.5t69 81.5t89 56h-49l126 223h62l-123 -217q29 11 59.5 16.5t62.5 5.5q64 0 125 -22l-124 217h62l126 -223h-50z" />
    <glyph glyph-name="Otilde" unicode="&#xd5;" horiz-adv-x="835" 
d="M436 768q76 0 141.5 -29t114 -80.5t76 -123t27.5 -155.5q0 -85 -27.5 -156t-76 -122.5t-114 -80.5t-141.5 -29q-75 0 -140.5 29t-113.5 80.5t-75.5 122.5t-27.5 156q0 84 27.5 155.5t75.5 123t113.5 80.5t140.5 29zM436 52q65 0 120 24.5t95.5 68t63.5 103.5t23 130
t-23 130.5t-63.5 105t-95.5 70t-120 25.5t-119.5 -25.5t-95 -70t-63 -105t-22.5 -130.5t22.5 -130t63 -103.5t95 -68t119.5 -24.5zM695 963q0 -40 -9 -74.5t-27.5 -57.5t-46.5 -31.5t-65 3.5q-18 6 -53.5 21.5t-74 32t-73 29t-52.5 12.5t-27.5 -12.5t-14 -29t-5 -34
t-0.5 -27.5h-67q0 40 9 74.5t27.5 57.5t46 31.5t65.5 -3.5q18 -6 53 -21.5t73.5 -32t73 -29t52.5 -12.5t27.5 12.5t14 29t5.5 34t1 27.5h67z" />
    <glyph glyph-name="Odieresis" unicode="&#xd6;" horiz-adv-x="835" 
d="M436 768q76 0 141.5 -29t114 -80.5t76 -123t27.5 -155.5q0 -85 -27.5 -156t-76 -122.5t-114 -80.5t-141.5 -29q-75 0 -140.5 29t-113.5 80.5t-75.5 122.5t-27.5 156q0 84 27.5 155.5t75.5 123t113.5 80.5t140.5 29zM436 52q65 0 120 24.5t95.5 68t63.5 103.5t23 130
t-23 130.5t-63.5 105t-95.5 70t-120 25.5t-119.5 -25.5t-95 -70t-63 -105t-22.5 -130.5t22.5 -130t63 -103.5t95 -68t119.5 -24.5zM253 867q0 23 15.5 39.5t38.5 16.5t39.5 -16.5t16.5 -39.5t-16.5 -38.5t-39.5 -15.5t-38.5 15.5t-15.5 38.5zM511 867q0 23 15.5 39.5
t38.5 16.5t39.5 -16.5t16.5 -39.5t-16.5 -38.5t-39.5 -15.5t-38.5 15.5t-15.5 38.5z" />
    <glyph glyph-name="multiply" unicode="&#xd7;" horiz-adv-x="590" 
d="M520 190l-40 -40l-170 168l-168 -169l-41 40l169 169l-169 169l40 40l169 -168l168 169l41 -40l-169 -170l170 -168v0z" />
    <glyph glyph-name="Oslash" unicode="&#xd8;" horiz-adv-x="792" 
d="M415 771q76 0 138 -31t106 -85t68.5 -127.5t24.5 -158.5t-24.5 -155t-68.5 -120t-106 -77.5t-138 -27.5q-75 0 -137 27.5t-106.5 77.5t-68.5 120t-24 155t24 158.5t68.5 127.5t106.5 85t137 31zM415 52q65 0 116.5 24.5t87.5 68t55.5 103.5t19.5 130t-19.5 130.5
t-55.5 105t-87.5 70t-116.5 25.5t-116.5 -25.5t-87.5 -70t-55.5 -105t-19.5 -130.5t19.5 -130t55.5 -103.5t87.5 -68t116.5 -24.5z" />
    <glyph glyph-name="Ugrave" unicode="&#xd9;" 
d="M581 275q0 -1 -1 -23t-7.5 -53.5t-21 -68.5t-41.5 -68t-68.5 -52t-102.5 -21q-46 0 -81 12t-60.5 32.5t-42.5 46t-28 52.5q-26 62 -27 143v486l-108 202h62l103 -193v-442q-3 -77 15 -138q7 -26 20 -50.5t33 -44t48 -31.5t66 -12q50 0 83.5 20t54 50.5t30.5 66t14 66
t3.5 51t-0.5 21.5v434h57v-486v0z" />
    <glyph glyph-name="Uacute" unicode="&#xda;" 
d="M581 275q0 -1 -1 -23t-7.5 -53.5t-21 -68.5t-41.5 -68t-68.5 -52t-102.5 -21q-46 0 -81 12t-60.5 32.5t-42.5 46t-28 52.5q-26 62 -27 143v486h57v-433q-3 -77 15 -138q7 -26 20 -50.5t33 -44t48 -31.5t66 -12q50 0 83.5 20t54 50.5t30.5 66t14 66t3.5 51t-0.5 21.5v443
l103 193h62l-108 -202v-486z" />
    <glyph glyph-name="Ucircumflex" unicode="&#xdb;" 
d="M581 275q0 -1 -1 -23t-7.5 -53.5t-21 -68.5t-41.5 -68t-68.5 -52t-102.5 -21q-46 0 -81 12t-60.5 32.5t-42.5 46t-28 52.5q-26 62 -27 143v486h57v-13l122 215h62l-127 -223h-57v-412q-3 -77 15 -138q7 -26 20 -50.5t33 -44t48 -31.5t66 -12q50 0 83.5 20t54 50.5
t30.5 66t14 66t3.5 51t-0.5 21.5v413h-56l-127 223h62l121 -215v13h57v-486v0z" />
    <glyph glyph-name="Udieresis" unicode="&#xdc;" 
d="M581 275q0 -1 -1 -23t-7.5 -53.5t-21 -68.5t-41.5 -68t-68.5 -52t-102.5 -21q-46 0 -81 12t-60.5 32.5t-42.5 46t-28 52.5q-26 62 -27 143v486h57v-433q-3 -77 15 -138q7 -26 20 -50.5t33 -44t48 -31.5t66 -12q50 0 83.5 20t54 50.5t30.5 66t14 66t3.5 51t-0.5 21.5v434
h57v-486zM156 867q0 23 15.5 39.5t38.5 16.5t39.5 -16.5t16.5 -39.5t-16.5 -38.5t-39.5 -15.5t-38.5 15.5t-15.5 38.5zM414 867q0 23 15.5 39.5t38.5 16.5t39.5 -16.5t16.5 -39.5t-16.5 -38.5t-39.5 -15.5t-38.5 15.5t-15.5 38.5z" />
    <glyph glyph-name="Yacute" unicode="&#xdd;" horiz-adv-x="837" 
d="M456 343v-343h-57v343l-357 418h72l314 -367l316 367h72zM399 740l119 223h62l-119 -223h-62z" />
    <glyph glyph-name="Thorn" unicode="&#xde;" horiz-adv-x="644" 
d="M351 566q41 0 86 -8t82 -28.5t61 -56.5t24 -92t-19 -91.5t-53.5 -56.5t-84 -29t-110.5 -8h-172v-196h-57v761h57v-195h186zM335 253q8 0 27 -0.5t43 2t49.5 9t46.5 21t34 37.5t12 59q-1 34 -14.5 56.5t-34.5 36.5t-46 21.5t-48 10.5t-42 3h-27h-170v-256h170z" />
    <glyph glyph-name="germandbls" unicode="&#xdf;" horiz-adv-x="788" 
d="M290 57h171q9 0 29 0.5t44.5 5t50.5 14.5t47.5 28.5t35 47t13.5 71.5q0 40 -17 67.5t-43.5 46.5t-58.5 29.5t-61.5 15.5t-53 6.5t-33.5 1.5h-68v57h66q8 0 27 -0.5t43 2t49.5 9t46.5 21t34 37.5t12 59q-1 33 -14.5 56t-34.5 37t-46 21.5t-48 10.5t-42 3h-27h-255v-954
h-57v1011h328q41 0 86 -8t82 -28.5t61 -56.5t24 -92q0 -50 -26 -90.5t-78 -67.5q78 -20 120 -72q42 -54 42 -122q0 -99 -69 -162q-66 -62 -200 -62h-180v57z" />
    <glyph glyph-name="agrave" unicode="&#xe0;" horiz-adv-x="872" 
d="M873 0h-70l-358 642l-340 -642h-70l257 478l-162 283h62l130 -227l122 227z" />
    <glyph glyph-name="aacute" unicode="&#xe1;" horiz-adv-x="872" 
d="M873 0h-70l-358 642l-340 -642h-70l409 761l128 -227l127 227h61l-157 -283z" />
    <glyph glyph-name="acircumflex" unicode="&#xe2;" horiz-adv-x="872" 
d="M315 740h-61l126 223h62zM569 740l-127 223h62l126 -223h-61v0zM803 0l-358 642l-340 -642h-70l409 761l429 -761h-70z" />
    <glyph glyph-name="atilde" unicode="&#xe3;" horiz-adv-x="872" 
d="M710 963q0 -40 -9 -74.5t-27.5 -57.5t-46.5 -31.5t-65 3.5q-18 6 -53.5 21.5t-74 32t-73 29t-52.5 12.5t-27.5 -12.5t-14 -29t-5 -34t-0.5 -27.5h-67q0 40 9 74.5t27.5 57.5t46 31.5t65.5 -3.5q18 -6 53 -21.5t73.5 -32t73 -29t52.5 -12.5t27.5 12.5t14 29t5.5 34t1 27.5
h67zM803 0l-358 642l-340 -642h-70l409 761l429 -761h-70z" />
    <glyph glyph-name="adieresis" unicode="&#xe4;" horiz-adv-x="872" 
d="M270 867q0 23 15.5 39.5t38.5 16.5t39.5 -16.5t16.5 -39.5t-16.5 -38.5t-39.5 -15.5t-38.5 15.5t-15.5 38.5zM528 867q0 23 15.5 39.5t38.5 16.5t39.5 -16.5t16.5 -39.5t-16.5 -38.5t-39.5 -15.5t-38.5 15.5t-15.5 38.5zM803 0l-358 642l-340 -642h-70l409 761l429 -761
h-70z" />
    <glyph glyph-name="aring" unicode="&#xe5;" horiz-adv-x="872" 
d="M576 829q0 -28 -10.5 -52.5t-28.5 -42.5t-42.5 -28.5t-52.5 -10.5t-52.5 10.5t-42.5 28.5t-28.5 42.5t-10.5 52.5t10.5 52.5t28.5 42.5t42.5 28.5t52.5 10.5t52.5 -10.5t42.5 -28.5t28.5 -42.5t10.5 -52.5zM441 743q35 0 60 25.5t25 60.5t-24.5 60.5t-59.5 25.5
q-17 0 -31.5 -7t-26 -19t-18 -27.5t-6.5 -32.5t6.5 -32.5t18 -27.5t26 -19t31.5 -7h-1zM803 0l-358 642l-340 -642h-70l388 721l44 -1l406 -720h-70z" />
    <glyph glyph-name="ae" unicode="&#xe6;" horiz-adv-x="964" 
d="M894 709h-395v-330h395v-52h-395v-275h395v-52h-452l3 642l-340 -642h-70l409 761h450v-52v0z" />
    <glyph glyph-name="ccedilla" unicode="&#xe7;" horiz-adv-x="432" 
d="M444 -94q0 18 -8.5 32t-21 24.5t-27 17.5t-26.5 12q-68 12 -126 47t-101 87t-67.5 117.5t-24.5 136.5t24.5 136t67.5 117t101.5 87.5t125.5 47.5v-56q-56 -12 -104 -44t-83.5 -77t-56 -99.5t-20.5 -111.5q0 -59 20 -114t55.5 -100t83.5 -77t105 -44v-46q19 -2 42.5 -7
t44.5 -15.5t35.5 -28t14.5 -42.5q0 -34 -18 -55.5t-45.5 -34t-61 -17.5t-64.5 -6v53q12 0 34.5 1t45 6.5t39 17.5t16.5 35z" />
    <glyph glyph-name="egrave" unicode="&#xe8;" horiz-adv-x="620" 
d="M157 709v-330h393v-52h-393v-275h393v-52h-450v760l-108 203h62l108 -202h388v-52h-393z" />
    <glyph glyph-name="eacute" unicode="&#xe9;" horiz-adv-x="620" 
d="M658 963l-108 -202v-52h-393v-330h393v-52h-393v-275h393v-52h-450v761h388l108 202h62v0z" />
    <glyph glyph-name="ecircumflex" unicode="&#xea;" horiz-adv-x="620" 
d="M550 709h-393v-330h393v-52h-393v-275h393v-52h-450v761h49l114 202h62l-115 -202h230l-115 202h62l114 -202h49v-52v0z" />
    <glyph glyph-name="edieresis" unicode="&#xeb;" horiz-adv-x="620" 
d="M141 867q0 23 15.5 39.5t38.5 16.5t39.5 -16.5t16.5 -39.5t-16.5 -38.5t-39.5 -15.5t-38.5 15.5t-15.5 38.5zM399 867q0 23 15.5 39.5t38.5 16.5t39.5 -16.5t16.5 -39.5t-16.5 -38.5t-39.5 -15.5t-38.5 15.5t-15.5 38.5zM157 52h393v-52h-450v761h450v-52h-393v-330h393
v-52h-393v-275z" />
    <glyph glyph-name="igrave" unicode="&#xec;" horiz-adv-x="227" 
d="M157 770v-770h-57v761l-107 201h63l101 -192v0z" />
    <glyph glyph-name="iacute" unicode="&#xed;" horiz-adv-x="227" 
d="M100 770l101 192h63l-107 -201v-761h-57v770v0z" />
    <glyph glyph-name="icircumflex" unicode="&#xee;" horiz-adv-x="227" 
d="M1 740h-61l126 223h62zM255 740l-127 223h62l126 -223h-61v0zM100 761h57v-761h-57v761z" />
    <glyph glyph-name="idieresis" unicode="&#xef;" horiz-adv-x="227" 
d="M-56 867q0 23 15.5 39.5t38.5 16.5t39.5 -16.5t16.5 -39.5t-16.5 -38.5t-39.5 -15.5t-38.5 15.5t-15.5 38.5zM202 867q0 23 15.5 39.5t38.5 16.5t39.5 -16.5t16.5 -39.5t-16.5 -38.5t-39.5 -15.5t-38.5 15.5t-15.5 38.5zM157 761v-761h-57v761h57z" />
    <glyph glyph-name="eth" unicode="&#xf0;" horiz-adv-x="733" 
d="M324 761q78 0 146 -30.5t119 -82.5t80.5 -121t29.5 -147t-29.5 -147t-80.5 -120.5t-119 -82t-146 -30.5h-219v761h219zM327 54q65 2 122.5 28t101 69.5t68.5 102t25 126.5q0 66 -26 125t-70 103t-103.5 69.5t-125.5 25.5h-157v-649h165zM0 409h335v-57h-335v57z" />
    <glyph glyph-name="ntilde" unicode="&#xf1;" horiz-adv-x="817" 
d="M681 963q0 -40 -9 -74.5t-27.5 -57.5t-46.5 -31.5t-65 3.5q-18 6 -53.5 21.5t-74 32t-73 29t-52.5 12.5t-27.5 -12.5t-14 -29t-5 -34t-0.5 -27.5h-67q0 40 9 74.5t27.5 57.5t46 31.5t65.5 -3.5q18 -6 53 -21.5t73.5 -32t73 -29t52.5 -12.5t27.5 12.5t14 29t5.5 34t1 27.5
h67zM690 142v619h57v-761l-590 619v-619h-57v761z" />
    <glyph glyph-name="ograve" unicode="&#xf2;" horiz-adv-x="835" 
d="M436 768q76 0 141.5 -29t114 -80.5t76 -123t27.5 -155.5q0 -85 -27.5 -156t-76 -122.5t-114 -80.5t-141.5 -29q-75 0 -140.5 29t-113.5 80.5t-75.5 122.5t-27.5 156q0 64 16 120t45 102.5t69 81.5t89 56l-119 223h62l109 -205q21 5 42 7.5t44 2.5zM436 52q65 0 120 24.5
t95.5 68t63.5 103.5t23 130t-23 130.5t-63.5 105t-95.5 70t-120 25.5t-119.5 -25.5t-95 -70t-63 -105t-22.5 -130.5t22.5 -130t63 -103.5t95 -68t119.5 -24.5z" />
    <glyph glyph-name="oacute" unicode="&#xf3;" horiz-adv-x="835" 
d="M436 768q23 0 44 -2.5t42 -7.5l109 205h62l-119 -223q49 -21 89 -56t69 -81.5t45 -102.5t16 -120q0 -85 -27.5 -156t-75.5 -122.5t-113.5 -80.5t-140.5 -29q-76 0 -141.5 29t-114 80.5t-76 122.5t-27.5 156q0 84 27.5 155.5t76 123t114 80.5t141.5 29zM436 52
q64 0 119 24.5t95.5 68t63 103.5t22.5 130t-22.5 130.5t-63 105t-95.5 70t-119 25.5q-65 0 -120 -25.5t-95.5 -70t-63.5 -105t-23 -130.5t23 -130t63.5 -103.5t95.5 -68t120 -24.5z" />
    <glyph glyph-name="ocircumflex" unicode="&#xf4;" horiz-adv-x="835" 
d="M436 52q65 0 120 24.5t95.5 68t63.5 103.5t23 130t-23 130.5t-63.5 105t-95.5 70t-120 25.5t-119.5 -25.5t-95 -70t-63 -105t-22.5 -130.5t22.5 -130t63 -103.5t95 -68t119.5 -24.5zM575 740q49 -21 89.5 -56t69.5 -81.5t45 -102.5t16 -120q0 -85 -27.5 -156t-76 -122.5
t-114 -80.5t-141.5 -29q-75 0 -140.5 29t-113.5 80.5t-75.5 122.5t-27.5 156q0 64 16 120t45 102.5t69 81.5t89 56h-49l126 223h62l-123 -217q29 11 59.5 16.5t62.5 5.5q64 0 125 -22l-124 217h62l126 -223h-50z" />
    <glyph glyph-name="otilde" unicode="&#xf5;" horiz-adv-x="835" 
d="M436 768q76 0 141.5 -29t114 -80.5t76 -123t27.5 -155.5q0 -85 -27.5 -156t-76 -122.5t-114 -80.5t-141.5 -29q-75 0 -140.5 29t-113.5 80.5t-75.5 122.5t-27.5 156q0 84 27.5 155.5t75.5 123t113.5 80.5t140.5 29zM436 52q65 0 120 24.5t95.5 68t63.5 103.5t23 130
t-23 130.5t-63.5 105t-95.5 70t-120 25.5t-119.5 -25.5t-95 -70t-63 -105t-22.5 -130.5t22.5 -130t63 -103.5t95 -68t119.5 -24.5zM695 963q0 -40 -9 -74.5t-27.5 -57.5t-46.5 -31.5t-65 3.5q-18 6 -53.5 21.5t-74 32t-73 29t-52.5 12.5t-27.5 -12.5t-14 -29t-5 -34
t-0.5 -27.5h-67q0 40 9 74.5t27.5 57.5t46 31.5t65.5 -3.5q18 -6 53 -21.5t73.5 -32t73 -29t52.5 -12.5t27.5 12.5t14 29t5.5 34t1 27.5h67z" />
    <glyph glyph-name="odieresis" unicode="&#xf6;" horiz-adv-x="835" 
d="M436 768q76 0 141.5 -29t114 -80.5t76 -123t27.5 -155.5q0 -85 -27.5 -156t-76 -122.5t-114 -80.5t-141.5 -29q-75 0 -140.5 29t-113.5 80.5t-75.5 122.5t-27.5 156q0 84 27.5 155.5t75.5 123t113.5 80.5t140.5 29zM436 52q65 0 120 24.5t95.5 68t63.5 103.5t23 130
t-23 130.5t-63.5 105t-95.5 70t-120 25.5t-119.5 -25.5t-95 -70t-63 -105t-22.5 -130.5t22.5 -130t63 -103.5t95 -68t119.5 -24.5zM253 867q0 23 15.5 39.5t38.5 16.5t39.5 -16.5t16.5 -39.5t-16.5 -38.5t-39.5 -15.5t-38.5 15.5t-15.5 38.5zM511 867q0 23 15.5 39.5
t38.5 16.5t39.5 -16.5t16.5 -39.5t-16.5 -38.5t-39.5 -15.5t-38.5 15.5t-15.5 38.5z" />
    <glyph glyph-name="divide" unicode="&#xf7;" horiz-adv-x="578" 
d="M100 444h408v-57h-408v57zM251 598q0 23 15.5 39.5t38.5 16.5t39.5 -16.5t16.5 -39.5t-16.5 -38.5t-39.5 -15.5t-38.5 15.5t-15.5 38.5zM251 231q0 23 15.5 39.5t38.5 16.5t39.5 -16.5t16.5 -39.5t-16.5 -38.5t-39.5 -15.5t-38.5 15.5t-15.5 38.5z" />
    <glyph glyph-name="oslash" unicode="&#xf8;" horiz-adv-x="792" 
d="M415 771q76 0 138 -31t106 -85t68.5 -127.5t24.5 -158.5t-24.5 -155t-68.5 -120t-106 -77.5t-138 -27.5q-75 0 -137 27.5t-106.5 77.5t-68.5 120t-24 155t24 158.5t68.5 127.5t106.5 85t137 31zM415 52q65 0 116.5 24.5t87.5 68t55.5 103.5t19.5 130t-19.5 130.5
t-55.5 105t-87.5 70t-116.5 25.5t-116.5 -25.5t-87.5 -70t-55.5 -105t-19.5 -130.5t19.5 -130t55.5 -103.5t87.5 -68t116.5 -24.5z" />
    <glyph glyph-name="ugrave" unicode="&#xf9;" 
d="M581 275q0 -1 -1 -23t-7.5 -53.5t-21 -68.5t-41.5 -68t-68.5 -52t-102.5 -21q-46 0 -81 12t-60.5 32.5t-42.5 46t-28 52.5q-26 62 -27 143v486l-108 202h62l103 -193v-442q-3 -77 15 -138q7 -26 20 -50.5t33 -44t48 -31.5t66 -12q50 0 83.5 20t54 50.5t30.5 66t14 66
t3.5 51t-0.5 21.5v434h57v-486v0z" />
    <glyph glyph-name="uacute" unicode="&#xfa;" 
d="M581 275q0 -1 -1 -23t-7.5 -53.5t-21 -68.5t-41.5 -68t-68.5 -52t-102.5 -21q-46 0 -81 12t-60.5 32.5t-42.5 46t-28 52.5q-26 62 -27 143v486h57v-433q-3 -77 15 -138q7 -26 20 -50.5t33 -44t48 -31.5t66 -12q50 0 83.5 20t54 50.5t30.5 66t14 66t3.5 51t-0.5 21.5v443
l103 193h62l-108 -202v-486z" />
    <glyph glyph-name="ucircumflex" unicode="&#xfb;" 
d="M581 275q0 -1 -1 -23t-7.5 -53.5t-21 -68.5t-41.5 -68t-68.5 -52t-102.5 -21q-46 0 -81 12t-60.5 32.5t-42.5 46t-28 52.5q-26 62 -27 143v486h57v-13l122 215h62l-127 -223h-57v-412q-3 -77 15 -138q7 -26 20 -50.5t33 -44t48 -31.5t66 -12q50 0 83.5 20t54 50.5
t30.5 66t14 66t3.5 51t-0.5 21.5v413h-56l-127 223h62l121 -215v13h57v-486v0z" />
    <glyph glyph-name="udieresis" unicode="&#xfc;" 
d="M581 275q0 -1 -1 -23t-7.5 -53.5t-21 -68.5t-41.5 -68t-68.5 -52t-102.5 -21q-46 0 -81 12t-60.5 32.5t-42.5 46t-28 52.5q-26 62 -27 143v486h57v-433q-3 -77 15 -138q7 -26 20 -50.5t33 -44t48 -31.5t66 -12q50 0 83.5 20t54 50.5t30.5 66t14 66t3.5 51t-0.5 21.5v434
h57v-486zM156 867q0 23 15.5 39.5t38.5 16.5t39.5 -16.5t16.5 -39.5t-16.5 -38.5t-39.5 -15.5t-38.5 15.5t-15.5 38.5zM414 867q0 23 15.5 39.5t38.5 16.5t39.5 -16.5t16.5 -39.5t-16.5 -38.5t-39.5 -15.5t-38.5 15.5t-15.5 38.5z" />
    <glyph glyph-name="yacute" unicode="&#xfd;" horiz-adv-x="837" 
d="M456 343v-343h-57v343l-357 418h72l314 -367l316 367h72zM399 740l119 223h62l-119 -223h-62z" />
    <glyph glyph-name="thorn" unicode="&#xfe;" horiz-adv-x="644" 
d="M351 566q41 0 86 -8t82 -28.5t61 -56.5t24 -92t-19 -91.5t-53.5 -56.5t-84 -29t-110.5 -8h-172v-196h-57v761h57v-195h186zM335 253q8 0 27 -0.5t43 2t49.5 9t46.5 21t34 37.5t12 59q-1 34 -14.5 56.5t-34.5 36.5t-46 21.5t-48 10.5t-42 3h-27h-170v-256h170z" />
    <glyph glyph-name="ydieresis" unicode="&#xff;" horiz-adv-x="837" 
d="M456 343v-343h-57v343l-357 418h62l324 -373l326 373h62zM245 867q0 23 15.5 39.5t38.5 16.5t39.5 -16.5t16.5 -39.5t-16.5 -38.5t-39.5 -15.5t-38.5 15.5t-15.5 38.5zM503 867q0 23 15.5 39.5t38.5 16.5t39.5 -16.5t16.5 -39.5t-16.5 -38.5t-39.5 -15.5t-38.5 15.5
t-15.5 38.5z" />
    <glyph glyph-name="Amacron" unicode="&#x100;" horiz-adv-x="872" 
d="M873 0h-70l-358 642l-340 -642h-70l409 761zM677 906h-446v57h446v-57z" />
    <glyph glyph-name="amacron" unicode="&#x101;" horiz-adv-x="872" 
d="M873 0h-70l-358 642l-340 -642h-70l409 761zM677 906h-446v57h446v-57z" />
    <glyph glyph-name="Abreve" unicode="&#x102;" horiz-adv-x="872" 
d="M803 0l-358 642l-340 -642h-70l409 761l429 -761h-70zM705 963q-12 -43 -37 -79t-59 -62.5t-76.5 -41t-88.5 -14.5q-47 0 -89 14.5t-76 41t-59 62.5t-37 79h57q6 -16 19 -40t36.5 -46t59.5 -38t89 -16q56 0 92.5 16t59 38t34.5 46t18 40h57z" />
    <glyph glyph-name="abreve" unicode="&#x103;" horiz-adv-x="872" 
d="M803 0l-358 642l-340 -642h-70l409 761l429 -761h-70zM705 963q-12 -43 -37 -79t-59 -62.5t-76.5 -41t-88.5 -14.5q-47 0 -89 14.5t-76 41t-59 62.5t-37 79h57q6 -16 19 -40t36.5 -46t59.5 -38t89 -16q56 0 92.5 16t59 38t34.5 46t18 40h57z" />
    <glyph glyph-name="Aogonek" unicode="&#x104;" horiz-adv-x="872" 
d="M877 -7q18 -4 35.5 -11t31.5 -17.5t23 -25t9 -33.5q0 -34 -18 -55.5t-45.5 -34t-61 -17.5t-64.5 -6v53q12 0 34.5 1t45 6.5t39 17.5t16.5 35q0 26 -18.5 44t-41.5 29q-26 13 -59 21l-358 642l-340 -642h-70l409 761l433 -768v0z" />
    <glyph glyph-name="aogonek" unicode="&#x105;" horiz-adv-x="872" 
d="M877 -7q18 -4 35.5 -11t31.5 -17.5t23 -25t9 -33.5q0 -34 -18 -55.5t-45.5 -34t-61 -17.5t-64.5 -6v53q12 0 34.5 1t45 6.5t39 17.5t16.5 35q0 26 -18.5 44t-41.5 29q-26 13 -59 21l-358 642l-340 -642h-70l409 761l433 -768v0z" />
    <glyph glyph-name="Cacute" unicode="&#x106;" horiz-adv-x="432" 
d="M361 768v-56q-56 -12 -104 -44t-83.5 -77t-56 -99.5t-20.5 -111.5q0 -59 20 -114t55.5 -100t83.5 -77t105 -44v-53q-68 12 -126 47t-101 87t-67.5 117.5t-24.5 136.5q0 61 18.5 117.5t51 104.5t77.5 85.5t98 59.5l116 216h62z" />
    <glyph glyph-name="cacute" unicode="&#x107;" horiz-adv-x="432" 
d="M361 768v-56q-56 -12 -104 -44t-83.5 -77t-56 -99.5t-20.5 -111.5q0 -59 20 -114t55.5 -100t83.5 -77t105 -44v-53q-68 12 -126 47t-101 87t-67.5 117.5t-24.5 136.5q0 61 18.5 117.5t51 104.5t77.5 85.5t98 59.5l116 216h62z" />
    <glyph glyph-name="Ccircumflex" unicode="&#x108;" horiz-adv-x="432" 
d="M361 712q-56 -12 -104 -44t-83.5 -77t-56 -99.5t-20.5 -111.5q0 -59 20 -114t55.5 -100t83.5 -77t105 -44v-53q-68 12 -126 47t-101 87t-67.5 117.5t-24.5 136.5t24.5 136t67.5 117t101.5 87.5t125.5 47.5v-56zM108 740l126 223h62l-127 -223h-61zM423 740l-127 223h62
l126 -223h-61z" />
    <glyph glyph-name="ccircumflex" unicode="&#x109;" horiz-adv-x="432" 
d="M361 712q-56 -12 -104 -44t-83.5 -77t-56 -99.5t-20.5 -111.5q0 -59 20 -114t55.5 -100t83.5 -77t105 -44v-53q-68 12 -126 47t-101 87t-67.5 117.5t-24.5 136.5t24.5 136t67.5 117t101.5 87.5t125.5 47.5v-56zM108 740l126 223h62l-127 -223h-61zM423 740l-127 223h62
l126 -223h-61z" />
    <glyph glyph-name="Cdotaccent" unicode="&#x10a;" horiz-adv-x="432" 
d="M361 712q-56 -12 -104 -44t-83.5 -77t-56 -99.5t-20.5 -111.5q0 -59 20 -114t55.5 -100t83.5 -77t105 -44v-53q-68 12 -126 47t-101 87t-67.5 117.5t-24.5 136.5t24.5 136t67.5 117t101.5 87.5t125.5 47.5v-56zM251 907q0 23 15.5 39.5t38.5 16.5t39.5 -16.5t16.5 -39.5
t-16.5 -38.5t-39.5 -15.5t-38.5 15.5t-15.5 38.5z" />
    <glyph glyph-name="cdotaccent" unicode="&#x10b;" horiz-adv-x="432" 
d="M361 712q-56 -12 -104 -44t-83.5 -77t-56 -99.5t-20.5 -111.5q0 -59 20 -114t55.5 -100t83.5 -77t105 -44v-53q-68 12 -126 47t-101 87t-67.5 117.5t-24.5 136.5t24.5 136t67.5 117t101.5 87.5t125.5 47.5v-56zM251 907q0 23 15.5 39.5t38.5 16.5t39.5 -16.5t16.5 -39.5
t-16.5 -38.5t-39.5 -15.5t-38.5 15.5t-15.5 38.5z" />
    <glyph glyph-name="Ccaron" unicode="&#x10c;" horiz-adv-x="432" 
d="M487 963l-126 -223v-28q-56 -12 -104 -44t-83.5 -77t-56 -99.5t-20.5 -111.5q0 -59 20 -114t55.5 -100t83.5 -77t105 -44v-53q-68 12 -126 47t-101 87t-67.5 117.5t-24.5 136.5q0 55 15 106t41.5 96t64 81.5t82.5 62.5l-134 237h61l122 -214q3 2 6 2.5t7 2.5l119 209h61z
" />
    <glyph glyph-name="ccaron" unicode="&#x10d;" horiz-adv-x="432" 
d="M487 963l-126 -223v-28q-56 -12 -104 -44t-83.5 -77t-56 -99.5t-20.5 -111.5q0 -59 20 -114t55.5 -100t83.5 -77t105 -44v-53q-68 12 -126 47t-101 87t-67.5 117.5t-24.5 136.5q0 55 15 106t41.5 96t64 81.5t82.5 62.5l-134 237h61l122 -214q3 2 6 2.5t7 2.5l119 209h61z
" />
    <glyph glyph-name="Dcaron" unicode="&#x10e;" horiz-adv-x="728" 
d="M322 54q65 2 122.5 28t101 69.5t68.5 102t25 126.5q0 66 -26 125t-70 103t-103.5 69.5t-125.5 25.5h-157v-649h165zM361 758q70 -8 131 -40.5t106 -83.5t70.5 -116t25.5 -138q0 -78 -29.5 -147t-80.5 -120.5t-119 -82t-146 -30.5h-219v761h115l-115 202h61l115 -202h24
l115 202h61z" />
    <glyph glyph-name="dcaron" unicode="&#x10f;" horiz-adv-x="728" 
d="M322 54q65 2 122.5 28t101 69.5t68.5 102t25 126.5q0 66 -26 125t-70 103t-103.5 69.5t-125.5 25.5h-157v-649h165zM361 758q70 -8 131 -40.5t106 -83.5t70.5 -116t25.5 -138q0 -78 -29.5 -147t-80.5 -120.5t-119 -82t-146 -30.5h-219v761h115l-115 202h61l115 -202h24
l115 202h61z" />
    <glyph glyph-name="Dcroat" unicode="&#x110;" horiz-adv-x="733" 
d="M324 761q78 0 146 -30.5t119 -82.5t80.5 -121t29.5 -147t-29.5 -147t-80.5 -120.5t-119 -82t-146 -30.5h-219v761h219zM327 54q65 2 122.5 28t101 69.5t68.5 102t25 126.5q0 66 -26 125t-70 103t-103.5 69.5t-125.5 25.5h-157v-649h165zM0 409h335v-57h-335v57z" />
    <glyph glyph-name="Emacron" unicode="&#x112;" horiz-adv-x="620" 
d="M157 52h393v-52h-450v761h450v-52h-393v-330h393v-52h-393v-275zM548 906h-446v57h446v-57z" />
    <glyph glyph-name="emacron" unicode="&#x113;" horiz-adv-x="620" 
d="M157 52h393v-52h-450v761h450v-52h-393v-330h393v-52h-393v-275zM548 906h-446v57h446v-57z" />
    <glyph glyph-name="Ebreve" unicode="&#x114;" horiz-adv-x="620" 
d="M157 709v-330h393v-52h-393v-275h393v-52h-450v761h110q-19 32 -19 68q0 28 10.5 52.5t28.5 42.5t42.5 28.5t52.5 10.5t52.5 -10.5t42.5 -28.5t28.5 -42.5t10.5 -52.5q0 -38 -18 -68h109v-52h-393zM243 829q0 -20 9 -38t24 -30h99q16 12 25 30t9 38q0 35 -24.5 60.5
t-59.5 25.5q-17 0 -31.5 -7t-26 -19t-18 -27.5t-6.5 -32.5z" />
    <glyph glyph-name="ebreve" unicode="&#x115;" horiz-adv-x="620" 
d="M157 709v-330h393v-52h-393v-275h393v-52h-450v761h110q-19 32 -19 68q0 28 10.5 52.5t28.5 42.5t42.5 28.5t52.5 10.5t52.5 -10.5t42.5 -28.5t28.5 -42.5t10.5 -52.5q0 -38 -18 -68h109v-52h-393zM243 829q0 -20 9 -38t24 -30h99q16 12 25 30t9 38q0 35 -24.5 60.5
t-59.5 25.5q-17 0 -31.5 -7t-26 -19t-18 -27.5t-6.5 -32.5z" />
    <glyph glyph-name="Edotaccent" unicode="&#x116;" horiz-adv-x="620" 
d="M157 52h393v-52h-450v761h450v-52h-393v-330h393v-52h-393v-275zM270 907q0 23 15.5 39.5t38.5 16.5t39.5 -16.5t16.5 -39.5t-16.5 -38.5t-39.5 -15.5t-38.5 15.5t-15.5 38.5z" />
    <glyph glyph-name="edotaccent" unicode="&#x117;" horiz-adv-x="620" 
d="M157 52h393v-52h-450v761h450v-52h-393v-330h393v-52h-393v-275zM270 907q0 23 15.5 39.5t38.5 16.5t39.5 -16.5t16.5 -39.5t-16.5 -38.5t-39.5 -15.5t-38.5 15.5t-15.5 38.5z" />
    <glyph glyph-name="Eogonek" unicode="&#x118;" horiz-adv-x="620" 
d="M157 52h393v-52h-450v761h450v-52h-393v-330h393v-52h-393v-275zM441 -94q0 -23 16.5 -35t39 -17.5t45 -6.5t34.5 -1v-53q-31 1 -64.5 6t-61 17.5t-45.5 34t-18 55.5q0 31 20.5 49.5t47.5 28.5t54 13t41 3q-31 -8 -55 -21q-20 -11 -37 -29t-17 -44z" />
    <glyph glyph-name="eogonek" unicode="&#x119;" horiz-adv-x="620" 
d="M157 52h393v-52h-450v761h450v-52h-393v-330h393v-52h-393v-275zM441 -94q0 -23 16.5 -35t39 -17.5t45 -6.5t34.5 -1v-53q-31 1 -64.5 6t-61 17.5t-45.5 34t-18 55.5q0 31 20.5 49.5t47.5 28.5t54 13t41 3q-31 -8 -55 -21q-20 -11 -37 -29t-17 -44z" />
    <glyph glyph-name="Ecaron" unicode="&#x11a;" horiz-adv-x="620" 
d="M550 709h-393v-330h393v-52h-393v-275h393v-52h-450v761h152l-115 202h61l115 -202h24l115 202h61l-114 -202h151v-52v0z" />
    <glyph glyph-name="ecaron" unicode="&#x11b;" horiz-adv-x="620" 
d="M550 709h-393v-330h393v-52h-393v-275h393v-52h-450v761h152l-115 202h61l115 -202h24l115 202h61l-114 -202h151v-52v0z" />
    <glyph glyph-name="Gcircumflex" unicode="&#x11c;" horiz-adv-x="486" 
d="M361 712q-56 -12 -104 -44t-83.5 -77t-56 -99.5t-20.5 -111.5q0 -59 20 -114t55 -100t83 -77t105 -44v227h56v-283h-56q-68 12 -126 47.5t-100.5 88t-67 118.5t-24.5 137t24.5 136.5t67.5 118t101.5 88.5t125.5 48v-59zM114 740l126 223h62l-127 -223h-61zM429 740
l-127 223h62l126 -223h-61z" />
    <glyph glyph-name="gcircumflex" unicode="&#x11d;" horiz-adv-x="486" 
d="M361 712q-56 -12 -104 -44t-83.5 -77t-56 -99.5t-20.5 -111.5q0 -59 20 -114t55 -100t83 -77t105 -44v227h56v-283h-56q-68 12 -126 47.5t-100.5 88t-67 118.5t-24.5 137t24.5 136.5t67.5 118t101.5 88.5t125.5 48v-59zM114 740l126 223h62l-127 -223h-61zM429 740
l-127 223h62l126 -223h-61z" />
    <glyph glyph-name="Gbreve" unicode="&#x11e;" horiz-adv-x="486" 
d="M361 712q-56 -12 -104 -44t-83.5 -77t-56 -99.5t-20.5 -111.5q0 -59 20 -114t55 -100t83 -77t105 -44v227h56v-283h-56q-68 12 -126 47.5t-100.5 88t-67 118.5t-24.5 137q0 68 23 131t62.5 114.5t94 88.5t117.5 52q-45 2 -85 17.5t-72.5 41.5t-56 61.5t-35.5 76.5h57
q6 -16 19 -40t36.5 -46t59.5 -38t89 -16q56 0 92.5 16t59 38t34.5 46t18 40h57q-12 -42 -35.5 -77t-56.5 -61.5t-73.5 -42t-85.5 -16.5v-54v0z" />
    <glyph glyph-name="gbreve" unicode="&#x11f;" horiz-adv-x="486" 
d="M361 712q-56 -12 -104 -44t-83.5 -77t-56 -99.5t-20.5 -111.5q0 -59 20 -114t55 -100t83 -77t105 -44v227h56v-283h-56q-68 12 -126 47.5t-100.5 88t-67 118.5t-24.5 137q0 68 23 131t62.5 114.5t94 88.5t117.5 52q-45 2 -85 17.5t-72.5 41.5t-56 61.5t-35.5 76.5h57
q6 -16 19 -40t36.5 -46t59.5 -38t89 -16q56 0 92.5 16t59 38t34.5 46t18 40h57q-12 -42 -35.5 -77t-56.5 -61.5t-73.5 -42t-85.5 -16.5v-54v0z" />
    <glyph glyph-name="Gdotaccent" unicode="&#x120;" horiz-adv-x="486" 
d="M361 712q-56 -12 -104 -44t-83.5 -77t-56 -99.5t-20.5 -111.5q0 -59 20 -114t55 -100t83 -77t105 -44v227h56v-283h-56q-68 12 -126 47.5t-100.5 88t-67 118.5t-24.5 137t24.5 136.5t67.5 118t101.5 88.5t125.5 48v-59zM278 907q0 23 15.5 39.5t38.5 16.5t39.5 -16.5
t16.5 -39.5t-16.5 -38.5t-39.5 -15.5t-38.5 15.5t-15.5 38.5z" />
    <glyph glyph-name="gdotaccent" unicode="&#x121;" horiz-adv-x="486" 
d="M361 712q-56 -12 -104 -44t-83.5 -77t-56 -99.5t-20.5 -111.5q0 -59 20 -114t55 -100t83 -77t105 -44v227h56v-283h-56q-68 12 -126 47.5t-100.5 88t-67 118.5t-24.5 137t24.5 136.5t67.5 118t101.5 88.5t125.5 48v-59zM278 907q0 23 15.5 39.5t38.5 16.5t39.5 -16.5
t16.5 -39.5t-16.5 -38.5t-39.5 -15.5t-38.5 15.5t-15.5 38.5z" />
    <glyph glyph-name="uni0122" unicode="&#x122;" horiz-adv-x="486" 
d="M303 -223h-62l114 213q-67 12 -124 48t-99 88.5t-66 117.5t-24 136t24.5 136.5t67.5 118t101.5 88.5t125.5 48v-59q-56 -12 -104 -44t-83.5 -77t-56 -99.5t-20.5 -111.5q0 -59 20 -114t55 -100t83 -77t105 -44v227h56v-283z" />
    <glyph glyph-name="uni0123" unicode="&#x123;" horiz-adv-x="486" 
d="M303 -223h-62l114 213q-67 12 -124 48t-99 88.5t-66 117.5t-24 136t24.5 136.5t67.5 118t101.5 88.5t125.5 48v-59q-56 -12 -104 -44t-83.5 -77t-56 -99.5t-20.5 -111.5q0 -59 20 -114t55 -100t83 -77t105 -44v227h56v-283z" />
    <glyph glyph-name="Hcircumflex" unicode="&#x124;" horiz-adv-x="773" 
d="M157 347l489 140v274h57v-761h-57v432l-489 -140v-292h-57v761h57v-414zM274 740h-61l126 223h62zM528 740l-127 223h62l126 -223h-61v0z" />
    <glyph glyph-name="hcircumflex" unicode="&#x125;" horiz-adv-x="773" 
d="M157 347l489 140v274h57v-761h-57v432l-489 -140v-292h-57v761h57v-414zM274 740h-61l126 223h62zM528 740l-127 223h62l126 -223h-61v0z" />
    <glyph glyph-name="Hbar" unicode="&#x126;" horiz-adv-x="773" 
d="M646 761h57v-761h-57v432l-489 -140v-292h-57v605h-100v57h100v99h57v-414l489 140v274v0z" />
    <glyph glyph-name="hbar" unicode="&#x127;" horiz-adv-x="773" 
d="M646 761h57v-761h-57v432l-489 -140v-292h-57v605h-100v57h100v99h57v-414l489 140v274v0z" />
    <glyph glyph-name="imacron" unicode="&#x12b;" horiz-adv-x="227" 
d="M157 761v-761h-57v761h57zM-95 906v57h446v-57h-446z" />
    <glyph glyph-name="Iogonek" unicode="&#x12e;" horiz-adv-x="227" 
d="M48 -94q0 -23 16.5 -35t39 -17.5t45 -6.5t34.5 -1v-53q-31 1 -64.5 6t-61 17.5t-45.5 34t-18 55.5q0 21 9.5 36t25 25.5t34.5 17t37 9.5v767h57v-761q-31 -8 -55 -21q-20 -11 -37 -29t-17 -44z" />
    <glyph glyph-name="iogonek" unicode="&#x12f;" horiz-adv-x="227" 
d="M48 -94q0 -23 16.5 -35t39 -17.5t45 -6.5t34.5 -1v-53q-31 1 -64.5 6t-61 17.5t-45.5 34t-18 55.5q0 21 9.5 36t25 25.5t34.5 17t37 9.5v767h57v-761q-31 -8 -55 -21q-20 -11 -37 -29t-17 -44z" />
    <glyph glyph-name="dotlessi" unicode="&#x131;" horiz-adv-x="227" 
d="M157 761v-761h-57v761h57zM74 907q0 23 15.5 39.5t38.5 16.5t39.5 -16.5t16.5 -39.5t-16.5 -38.5t-39.5 -15.5t-38.5 15.5t-15.5 38.5z" />
    <glyph glyph-name="Jcircumflex" unicode="&#x134;" horiz-adv-x="482" 
d="M100 52h3q58 0 99 14t69 36.5t44 52t24.5 60t11 59.5t2.5 52v435h59v-438q0 -8 -0.5 -36.5t-7.5 -66t-25 -78.5t-52.5 -74.5t-89.5 -53t-137 -14.5v52zM163 740l126 223h62l-127 -223h-61zM478 740l-127 223h62l126 -223h-61z" />
    <glyph glyph-name="jcircumflex" unicode="&#x135;" horiz-adv-x="482" 
d="M100 52h3q58 0 99 14t69 36.5t44 52t24.5 60t11 59.5t2.5 52v435h59v-438q0 -8 -0.5 -36.5t-7.5 -66t-25 -78.5t-52.5 -74.5t-89.5 -53t-137 -14.5v52zM163 740l126 223h62l-127 -223h-61zM478 740l-127 223h62l126 -223h-61z" />
    <glyph glyph-name="uni0136" unicode="&#x136;" horiz-adv-x="520" 
d="M450 783v-82l-260 -320l260 -318v-84l-293 357v-336l-119 -223h-62l124 232v752h57v-332l293 354v0z" />
    <glyph glyph-name="uni0137" unicode="&#x137;" horiz-adv-x="520" 
d="M450 783v-82l-260 -320l260 -318v-84l-293 357v-336l-119 -223h-62l124 232v752h57v-332l293 354v0z" />
    <glyph glyph-name="Lacute" unicode="&#x139;" horiz-adv-x="518" 
d="M157 58h291v-58h-348v761l108 202h62l-113 -211v-694v0z" />
    <glyph glyph-name="lacute" unicode="&#x13a;" horiz-adv-x="518" 
d="M157 58h291v-58h-348v761l108 202h62l-113 -211v-694v0z" />
    <glyph glyph-name="uni013B" unicode="&#x13b;" horiz-adv-x="518" 
d="M157 58h291v-58h-84l-119 -223h-62l119 223h-202v761h57v-703v0z" />
    <glyph glyph-name="uni013C" unicode="&#x13c;" horiz-adv-x="518" 
d="M157 58h291v-58h-84l-119 -223h-62l119 223h-202v761h57v-703v0z" />
    <glyph glyph-name="Lcaron" unicode="&#x13d;" horiz-adv-x="518" 
d="M157 58h291v-58h-348v761h45l-114 202h61l127 -223h-62v-682zM407 963l-126 -223h-62l127 223h61z" />
    <glyph glyph-name="lcaron" unicode="&#x13e;" horiz-adv-x="518" 
d="M157 58h291v-58h-348v761h45l-114 202h61l127 -223h-62v-682zM407 963l-126 -223h-62l127 223h61z" />
    <glyph glyph-name="Lslash" unicode="&#x141;" horiz-adv-x="518" 
d="M157 58h291v-58h-348v761h57v-382l203 133v-63l-203 -133v-258v0z" />
    <glyph glyph-name="lslash" unicode="&#x142;" horiz-adv-x="518" 
d="M157 58h291v-58h-348v761h57v-382l203 133v-63l-203 -133v-258v0z" />
    <glyph glyph-name="Nacute" unicode="&#x143;" horiz-adv-x="817" 
d="M690 142v619h57v-761l-590 619v-619h-57v761zM391 740l119 223h62l-119 -223h-62z" />
    <glyph glyph-name="nacute" unicode="&#x144;" horiz-adv-x="817" 
d="M690 142v619h57v-761l-590 619v-619h-57v761zM391 740l119 223h62l-119 -223h-62z" />
    <glyph glyph-name="uni0145" unicode="&#x145;" horiz-adv-x="817" 
d="M690 761h57v-761l-590 619v-619l-119 -223h-62l124 232v752l590 -619v619v0z" />
    <glyph glyph-name="uni0146" unicode="&#x146;" horiz-adv-x="817" 
d="M690 761h57v-761l-590 619v-619l-119 -223h-62l124 232v752l590 -619v619v0z" />
    <glyph glyph-name="Ncaron" unicode="&#x147;" horiz-adv-x="817" 
d="M100 761l590 -619v619h57v-761l-590 619v-619h-57v761zM550 963h61l-126 -223h-62zM296 963l127 -223h-62l-126 223h61v0z" />
    <glyph glyph-name="ncaron" unicode="&#x148;" horiz-adv-x="817" 
d="M100 761l590 -619v619h57v-761l-590 619v-619h-57v761zM550 963h61l-126 -223h-62zM296 963l127 -223h-62l-126 223h61v0z" />
    <glyph glyph-name="Omacron" unicode="&#x14c;" horiz-adv-x="835" 
d="M436 768q76 0 141.5 -29t114 -80.5t76 -123t27.5 -155.5q0 -85 -27.5 -156t-76 -122.5t-114 -80.5t-141.5 -29q-75 0 -140.5 29t-113.5 80.5t-75.5 122.5t-27.5 156q0 84 27.5 155.5t75.5 123t113.5 80.5t140.5 29zM436 52q65 0 120 24.5t95.5 68t63.5 103.5t23 130
t-23 130.5t-63.5 105t-95.5 70t-120 25.5t-119.5 -25.5t-95 -70t-63 -105t-22.5 -130.5t22.5 -130t63 -103.5t95 -68t119.5 -24.5zM214 906v57h446v-57h-446z" />
    <glyph glyph-name="omacron" unicode="&#x14d;" horiz-adv-x="835" 
d="M436 768q76 0 141.5 -29t114 -80.5t76 -123t27.5 -155.5q0 -85 -27.5 -156t-76 -122.5t-114 -80.5t-141.5 -29q-75 0 -140.5 29t-113.5 80.5t-75.5 122.5t-27.5 156q0 84 27.5 155.5t75.5 123t113.5 80.5t140.5 29zM436 52q65 0 120 24.5t95.5 68t63.5 103.5t23 130
t-23 130.5t-63.5 105t-95.5 70t-120 25.5t-119.5 -25.5t-95 -70t-63 -105t-22.5 -130.5t22.5 -130t63 -103.5t95 -68t119.5 -24.5zM214 906v57h446v-57h-446z" />
    <glyph glyph-name="Obreve" unicode="&#x14e;" horiz-adv-x="835" 
d="M697 963q-11 -40 -33.5 -74.5t-53.5 -60t-69.5 -41.5t-80.5 -20q72 -5 133 -35.5t106 -81.5t70.5 -120t25.5 -150q0 -85 -27.5 -156t-76 -122.5t-114 -80.5t-141.5 -29q-75 0 -140.5 29t-113.5 80.5t-75.5 122.5t-27.5 156q0 81 25.5 150t70 120t105 81.5t131.5 35.5
q-42 4 -80 20t-69 41.5t-53.5 60t-33.5 74.5h57q6 -16 19 -40t36.5 -46t59.5 -38t89 -16q56 0 92.5 16t59 38t34.5 46t18 40h57zM436 52q65 0 120 24.5t95.5 68t63.5 103.5t23 130t-23 130.5t-63.5 105t-95.5 70t-120 25.5t-119.5 -25.5t-95 -70t-63 -105t-22.5 -130.5
t22.5 -130t63 -103.5t95 -68t119.5 -24.5z" />
    <glyph glyph-name="obreve" unicode="&#x14f;" horiz-adv-x="835" 
d="M697 963q-11 -40 -33.5 -74.5t-53.5 -60t-69.5 -41.5t-80.5 -20q72 -5 133 -35.5t106 -81.5t70.5 -120t25.5 -150q0 -85 -27.5 -156t-76 -122.5t-114 -80.5t-141.5 -29q-75 0 -140.5 29t-113.5 80.5t-75.5 122.5t-27.5 156q0 81 25.5 150t70 120t105 81.5t131.5 35.5
q-42 4 -80 20t-69 41.5t-53.5 60t-33.5 74.5h57q6 -16 19 -40t36.5 -46t59.5 -38t89 -16q56 0 92.5 16t59 38t34.5 46t18 40h57zM436 52q65 0 120 24.5t95.5 68t63.5 103.5t23 130t-23 130.5t-63.5 105t-95.5 70t-120 25.5t-119.5 -25.5t-95 -70t-63 -105t-22.5 -130.5
t22.5 -130t63 -103.5t95 -68t119.5 -24.5z" />
    <glyph glyph-name="Ohungarumlaut" unicode="&#x150;" horiz-adv-x="835" 
d="M436 52q65 0 120 24.5t95.5 68t63.5 103.5t23 130t-23 130.5t-63.5 105t-95.5 70t-120 25.5t-119.5 -25.5t-95 -70t-63 -105t-22.5 -130.5t22.5 -130t63 -103.5t95 -68t119.5 -24.5zM501 762q64 -12 118 -45t93 -83t61 -114.5t22 -139.5q0 -85 -27.5 -156t-76 -122.5
t-114 -80.5t-141.5 -29q-75 0 -140.5 29t-113.5 80.5t-75.5 122.5t-27.5 156q0 64 16 120t44.5 102.5t68.5 81.5t89 56h-32l119 223h62l-112 -210q48 15 102 15h6l104 195h62z" />
    <glyph glyph-name="ohungarumlaut" unicode="&#x151;" horiz-adv-x="835" 
d="M436 52q65 0 120 24.5t95.5 68t63.5 103.5t23 130t-23 130.5t-63.5 105t-95.5 70t-120 25.5t-119.5 -25.5t-95 -70t-63 -105t-22.5 -130.5t22.5 -130t63 -103.5t95 -68t119.5 -24.5zM501 762q64 -12 118 -45t93 -83t61 -114.5t22 -139.5q0 -85 -27.5 -156t-76 -122.5
t-114 -80.5t-141.5 -29q-75 0 -140.5 29t-113.5 80.5t-75.5 122.5t-27.5 156q0 64 16 120t44.5 102.5t68.5 81.5t89 56h-32l119 223h62l-112 -210q48 15 102 15h6l104 195h62z" />
    <glyph glyph-name="OE" unicode="&#x152;" horiz-adv-x="881" 
d="M418 709v-330h393v-52h-393v-275h393v-52h-450q-68 12 -126 46t-101 85t-67.5 115t-24.5 135t24.5 135t67.5 114.5t101.5 84.5t125.5 46h450v-52h-393zM97 381q0 -59 20 -113t55.5 -98t83.5 -74.5t105 -42.5v652q-56 -12 -104 -43t-83.5 -74t-56 -96.5t-20.5 -110.5z" />
    <glyph glyph-name="oe" unicode="&#x153;" horiz-adv-x="881" 
d="M418 709v-330h393v-52h-393v-275h393v-52h-450q-68 12 -126 46t-101 85t-67.5 115t-24.5 135t24.5 135t67.5 114.5t101.5 84.5t125.5 46h450v-52h-393zM97 381q0 -59 20 -113t55.5 -98t83.5 -74.5t105 -42.5v652q-56 -12 -104 -43t-83.5 -74t-56 -96.5t-20.5 -110.5z" />
    <glyph glyph-name="Racute" unicode="&#x154;" horiz-adv-x="718" 
d="M689 576q0 -56 -19 -91.5t-53.5 -56.5t-84 -29t-110.5 -8h-19l209 -391h-66l-209 391h-172v-391h-57v761h211l108 202h62l-108 -202h55q41 0 86 -8t82 -28.5t61 -56.5t24 -92zM420 448q8 0 27 -0.5t43 2t49.5 9t46.5 21t34 37.5t12 59q-1 33 -14.5 56t-34.5 37t-46 21.5
t-48 10.5t-42 3h-27h-255v-256h255z" />
    <glyph glyph-name="racute" unicode="&#x155;" horiz-adv-x="718" 
d="M689 576q0 -56 -19 -91.5t-53.5 -56.5t-84 -29t-110.5 -8h-19l209 -391h-66l-209 391h-172v-391h-57v761h211l108 202h62l-108 -202h55q41 0 86 -8t82 -28.5t61 -56.5t24 -92zM420 448q8 0 27 -0.5t43 2t49.5 9t46.5 21t34 37.5t12 59q-1 33 -14.5 56t-34.5 37t-46 21.5
t-48 10.5t-42 3h-27h-255v-256h255z" />
    <glyph glyph-name="uni0156" unicode="&#x156;" horiz-adv-x="718" 
d="M689 576q0 -56 -19 -91.5t-53.5 -56.5t-84 -29t-110.5 -8h-19l209 -391h-66l-209 391h-172v-391l-119 -223h-62l124 232v752h328q41 0 86 -8t82 -28.5t61 -56.5t24 -92zM420 448q8 0 27 -0.5t43 2t49.5 9t46.5 21t34 37.5t12 59q-1 33 -14.5 56t-34.5 37t-46 21.5
t-48 10.5t-42 3h-27h-255v-256h255z" />
    <glyph glyph-name="uni0157" unicode="&#x157;" horiz-adv-x="718" 
d="M689 576q0 -56 -19 -91.5t-53.5 -56.5t-84 -29t-110.5 -8h-19l209 -391h-66l-209 391h-172v-391l-119 -223h-62l124 232v752h328q41 0 86 -8t82 -28.5t61 -56.5t24 -92zM420 448q8 0 27 -0.5t43 2t49.5 9t46.5 21t34 37.5t12 59q-1 33 -14.5 56t-34.5 37t-46 21.5
t-48 10.5t-42 3h-27h-255v-256h255z" />
    <glyph glyph-name="Rcaron" unicode="&#x158;" horiz-adv-x="718" 
d="M689 576q0 -56 -19 -91.5t-53.5 -56.5t-84 -29t-110.5 -8h-19l209 -391h-66l-209 391h-172v-391h-57v761h133l-114 202h61l115 -202h24l115 202h61l-114 -202h47q41 0 86 -8t82 -28.5t61 -56.5t24 -92zM420 448q8 0 27 -0.5t43 2t49.5 9t46.5 21t34 37.5t12 59
q-1 33 -14.5 56t-34.5 37t-46 21.5t-48 10.5t-42 3h-27h-255v-256h255z" />
    <glyph glyph-name="rcaron" unicode="&#x159;" horiz-adv-x="718" 
d="M689 576q0 -56 -19 -91.5t-53.5 -56.5t-84 -29t-110.5 -8h-19l209 -391h-66l-209 391h-172v-391h-57v761h133l-114 202h61l115 -202h24l115 202h61l-114 -202h47q41 0 86 -8t82 -28.5t61 -56.5t24 -92zM420 448q8 0 27 -0.5t43 2t49.5 9t46.5 21t34 37.5t12 59
q-1 33 -14.5 56t-34.5 37t-46 21.5t-48 10.5t-42 3h-27h-255v-256h255z" />
    <glyph glyph-name="Sacute" unicode="&#x15a;" horiz-adv-x="776" 
d="M369 704h-27t-42 -3t-48 -10.5t-46 -21.5t-34.5 -37t-14.5 -56q0 -25 6.5 -43.5t18 -32.5t27 -23t32.5 -15l338 -106q60 -17 93.5 -56.5t33.5 -114.5q0 -56 -24 -92t-61 -56.5t-82 -28.5t-86 -8h-353v57h337h27t42 3t48 10.5t46 21.5t34.5 36.5t14.5 56.5q1 50 -24 76.5
t-59 38.5l-338 106q-60 17 -94 56t-34 114q0 56 24 92t61 56.5t82 28.5t86 8h291l108 202h62l-108 -202v-57h-337v0z" />
    <glyph glyph-name="sacute" unicode="&#x15b;" horiz-adv-x="776" 
d="M369 704h-27t-42 -3t-48 -10.5t-46 -21.5t-34.5 -37t-14.5 -56q0 -25 6.5 -43.5t18 -32.5t27 -23t32.5 -15l338 -106q60 -17 93.5 -56.5t33.5 -114.5q0 -56 -24 -92t-61 -56.5t-82 -28.5t-86 -8h-353v57h337h27t42 3t48 10.5t46 21.5t34.5 36.5t14.5 56.5q1 50 -24 76.5
t-59 38.5l-338 106q-60 17 -94 56t-34 114q0 56 24 92t61 56.5t82 28.5t86 8h291l108 202h62l-108 -202v-57h-337v0z" />
    <glyph glyph-name="Scircumflex" unicode="&#x15c;" horiz-adv-x="776" 
d="M369 704h-27t-42 -3t-48 -10.5t-46 -21.5t-34.5 -37t-14.5 -56q0 -25 6.5 -43.5t18 -32.5t27 -23t32.5 -15l338 -106q60 -17 93.5 -56.5t33.5 -114.5q0 -56 -24 -92t-61 -56.5t-82 -28.5t-86 -8h-353v57h337h27t42 3t48 10.5t46 21.5t34.5 36.5t14.5 56.5q1 50 -24 76.5
t-59 38.5l-338 106q-60 17 -94 56t-34 114q0 66 33 104.5t81 57.5l127 225h62l-118 -207q17 3 34 4t34 1h165l-115 202h62l114 -202h127v-57h-337v0z" />
    <glyph glyph-name="scircumflex" unicode="&#x15d;" horiz-adv-x="776" 
d="M369 704h-27t-42 -3t-48 -10.5t-46 -21.5t-34.5 -37t-14.5 -56q0 -25 6.5 -43.5t18 -32.5t27 -23t32.5 -15l338 -106q60 -17 93.5 -56.5t33.5 -114.5q0 -56 -24 -92t-61 -56.5t-82 -28.5t-86 -8h-353v57h337h27t42 3t48 10.5t46 21.5t34.5 36.5t14.5 56.5q1 50 -24 76.5
t-59 38.5l-338 106q-60 17 -94 56t-34 114q0 66 33 104.5t81 57.5l127 225h62l-118 -207q17 3 34 4t34 1h165l-115 202h62l114 -202h127v-57h-337v0z" />
    <glyph glyph-name="Scedilla" unicode="&#x15e;" horiz-adv-x="776" 
d="M579 356q60 -17 93.5 -56.5t33.5 -114.5q0 -56 -24 -92t-61 -56.5t-82 -28.5t-86 -8h-353v57h337h27t42 3t48 10.5t46 21.5t34.5 36.5t14.5 56.5q1 50 -24 76.5t-59 38.5l-338 106q-60 17 -94 56t-34 114q0 56 24 92t61 56.5t82 28.5t86 8h353v-57h-337h-27t-42 -3
t-48 -10.5t-46 -21.5t-34.5 -37t-14.5 -56q0 -25 6.5 -43.5t18 -32.5t27 -23t32.5 -15zM443 -94q0 26 -17.5 44t-37.5 29q-24 13 -54 21q13 0 40.5 -3t54.5 -13t47.5 -28.5t20.5 -49.5q0 -34 -18 -55.5t-45.5 -34t-61 -17.5t-64.5 -6v53q12 0 34.5 1t45 6.5t39 17.5t16.5 35
z" />
    <glyph glyph-name="scedilla" unicode="&#x15f;" horiz-adv-x="776" 
d="M579 356q60 -17 93.5 -56.5t33.5 -114.5q0 -56 -24 -92t-61 -56.5t-82 -28.5t-86 -8h-353v57h337h27t42 3t48 10.5t46 21.5t34.5 36.5t14.5 56.5q1 50 -24 76.5t-59 38.5l-338 106q-60 17 -94 56t-34 114q0 56 24 92t61 56.5t82 28.5t86 8h353v-57h-337h-27t-42 -3
t-48 -10.5t-46 -21.5t-34.5 -37t-14.5 -56q0 -25 6.5 -43.5t18 -32.5t27 -23t32.5 -15zM443 -94q0 26 -17.5 44t-37.5 29q-24 13 -54 21q13 0 40.5 -3t54.5 -13t47.5 -28.5t20.5 -49.5q0 -34 -18 -55.5t-45.5 -34t-61 -17.5t-64.5 -6v53q12 0 34.5 1t45 6.5t39 17.5t16.5 35
z" />
    <glyph glyph-name="Scaron" unicode="&#x160;" horiz-adv-x="776" 
d="M706 704h-337h-18t-27 -1t-32.5 -3.5t-35.5 -7.5q-38 -11 -67.5 -37.5t-31.5 -78.5q0 -25 6.5 -43.5t18 -32.5t27 -23t32.5 -15l338 -106q60 -17 93.5 -56.5t33.5 -114.5q0 -56 -24 -92t-61 -56.5t-82 -28.5t-86 -8h-353v57h337h27t42 3t48 10.5t46 21.5t34.5 36.5
t14.5 56.5q1 50 -24 76.5t-59 38.5l-338 106q-60 17 -94 56t-34 114q0 37 11.5 65.5t30.5 49t44.5 34.5t53.5 22q27 8 54.5 11t53.5 3l-114 202h61l115 -202h24l115 202h61l-114 -202h210v-57z" />
    <glyph glyph-name="scaron" unicode="&#x161;" horiz-adv-x="776" 
d="M706 704h-337h-18t-27 -1t-32.5 -3.5t-35.5 -7.5q-38 -11 -67.5 -37.5t-31.5 -78.5q0 -25 6.5 -43.5t18 -32.5t27 -23t32.5 -15l338 -106q60 -17 93.5 -56.5t33.5 -114.5q0 -56 -24 -92t-61 -56.5t-82 -28.5t-86 -8h-353v57h337h27t42 3t48 10.5t46 21.5t34.5 36.5
t14.5 56.5q1 50 -24 76.5t-59 38.5l-338 106q-60 17 -94 56t-34 114q0 37 11.5 65.5t30.5 49t44.5 34.5t53.5 22q27 8 54.5 11t53.5 3l-114 202h61l115 -202h24l115 202h61l-114 -202h210v-57z" />
    <glyph glyph-name="uni0162" unicode="&#x162;" horiz-adv-x="729" 
d="M0 761h729v-52h-336v-709l-119 -223h-62l124 232v700h-336v52v0z" />
    <glyph glyph-name="uni0163" unicode="&#x163;" horiz-adv-x="729" 
d="M0 761h729v-52h-336v-709l-119 -223h-62l124 232v700h-336v52v0z" />
    <glyph glyph-name="Tcaron" unicode="&#x164;" horiz-adv-x="729" 
d="M439 761h290v-52h-336v-709h-57v709h-336v52h291l-114 202h61l115 -202h24l115 202h61l-114 -202v0z" />
    <glyph glyph-name="tcaron" unicode="&#x165;" horiz-adv-x="729" 
d="M439 761h290v-52h-336v-709h-57v709h-336v52h291l-114 202h61l115 -202h24l115 202h61l-114 -202v0z" />
    <glyph glyph-name="Tbar" unicode="&#x166;" horiz-adv-x="729" 
d="M729 709h-336v-345h195v-52h-195v-312h-57v312h-194v52h194v345h-336v52h729v-52v0z" />
    <glyph glyph-name="tbar" unicode="&#x167;" horiz-adv-x="729" 
d="M729 709h-336v-345h195v-52h-195v-312h-57v312h-194v52h194v345h-336v52h729v-52v0z" />
    <glyph glyph-name="Utilde" unicode="&#x168;" 
d="M581 275q0 -1 -1 -23t-7.5 -53.5t-21 -68.5t-41.5 -68t-68.5 -52t-102.5 -21q-46 0 -81 12t-60.5 32.5t-42.5 46t-28 52.5q-26 62 -27 143v486h57v-433q-3 -77 15 -138q7 -26 20 -50.5t33 -44t48 -31.5t66 -12q50 0 83.5 20t54 50.5t30.5 66t14 66t3.5 51t-0.5 21.5v434
h57v-486zM598 963q0 -40 -9 -74.5t-27.5 -57.5t-46.5 -31.5t-65 3.5q-18 6 -53.5 21.5t-74 32t-73 29t-52.5 12.5t-27.5 -12.5t-14 -29t-5 -34t-0.5 -27.5h-67q0 40 9 74.5t27.5 57.5t46 31.5t65.5 -3.5q18 -6 53 -21.5t73.5 -32t73 -29t52.5 -12.5t27.5 12.5t14 29t5.5 34
t1 27.5h67z" />
    <glyph glyph-name="utilde" unicode="&#x169;" 
d="M581 275q0 -1 -1 -23t-7.5 -53.5t-21 -68.5t-41.5 -68t-68.5 -52t-102.5 -21q-46 0 -81 12t-60.5 32.5t-42.5 46t-28 52.5q-26 62 -27 143v486h57v-433q-3 -77 15 -138q7 -26 20 -50.5t33 -44t48 -31.5t66 -12q50 0 83.5 20t54 50.5t30.5 66t14 66t3.5 51t-0.5 21.5v434
h57v-486zM598 963q0 -40 -9 -74.5t-27.5 -57.5t-46.5 -31.5t-65 3.5q-18 6 -53.5 21.5t-74 32t-73 29t-52.5 12.5t-27.5 -12.5t-14 -29t-5 -34t-0.5 -27.5h-67q0 40 9 74.5t27.5 57.5t46 31.5t65.5 -3.5q18 -6 53 -21.5t73.5 -32t73 -29t52.5 -12.5t27.5 12.5t14 29t5.5 34
t1 27.5h67z" />
    <glyph glyph-name="Umacron" unicode="&#x16a;" 
d="M581 275q0 -1 -1 -23t-7.5 -53.5t-21 -68.5t-41.5 -68t-68.5 -52t-102.5 -21q-46 0 -81 12t-60.5 32.5t-42.5 46t-28 52.5q-26 62 -27 143v486h57v-433q-3 -77 15 -138q7 -26 20 -50.5t33 -44t48 -31.5t66 -12q50 0 83.5 20t54 50.5t30.5 66t14 66t3.5 51t-0.5 21.5v434
h57v-486zM118 906v57h446v-57h-446z" />
    <glyph glyph-name="umacron" unicode="&#x16b;" 
d="M581 275q0 -1 -1 -23t-7.5 -53.5t-21 -68.5t-41.5 -68t-68.5 -52t-102.5 -21q-46 0 -81 12t-60.5 32.5t-42.5 46t-28 52.5q-26 62 -27 143v486h57v-433q-3 -77 15 -138q7 -26 20 -50.5t33 -44t48 -31.5t66 -12q50 0 83.5 20t54 50.5t30.5 66t14 66t3.5 51t-0.5 21.5v434
h57v-486zM118 906v57h446v-57h-446z" />
    <glyph glyph-name="Ubreve" unicode="&#x16c;" 
d="M581 275q0 -1 -1 -23t-7.5 -53.5t-21 -68.5t-41.5 -68t-68.5 -52t-102.5 -21q-46 0 -81 12t-60.5 32.5t-42.5 46t-28 52.5q-26 62 -27 143v486h57v-433q-3 -77 15 -138q7 -26 20 -50.5t33 -44t48 -31.5t66 -12q50 0 83.5 20t54 50.5t30.5 66t14 66t3.5 51t-0.5 21.5v434
h57v-486zM600 963q-12 -43 -37 -79t-59 -62.5t-76.5 -41t-88.5 -14.5q-47 0 -89 14.5t-76 41t-59 62.5t-37 79h57q6 -16 19 -40t36.5 -46t59.5 -38t89 -16q56 0 92.5 16t59 38t34.5 46t18 40h57z" />
    <glyph glyph-name="ubreve" unicode="&#x16d;" 
d="M581 275q0 -1 -1 -23t-7.5 -53.5t-21 -68.5t-41.5 -68t-68.5 -52t-102.5 -21q-46 0 -81 12t-60.5 32.5t-42.5 46t-28 52.5q-26 62 -27 143v486h57v-433q-3 -77 15 -138q7 -26 20 -50.5t33 -44t48 -31.5t66 -12q50 0 83.5 20t54 50.5t30.5 66t14 66t3.5 51t-0.5 21.5v434
h57v-486zM600 963q-12 -43 -37 -79t-59 -62.5t-76.5 -41t-88.5 -14.5q-47 0 -89 14.5t-76 41t-59 62.5t-37 79h57q6 -16 19 -40t36.5 -46t59.5 -38t89 -16q56 0 92.5 16t59 38t34.5 46t18 40h57z" />
    <glyph glyph-name="Uring" unicode="&#x16e;" 
d="M581 275q0 -1 -1 -23t-7.5 -53.5t-21 -68.5t-41.5 -68t-68.5 -52t-102.5 -21q-46 0 -81 12t-60.5 32.5t-42.5 46t-28 52.5q-26 62 -27 143v486h57v-433q-3 -77 15 -138q7 -26 20 -50.5t33 -44t48 -31.5t66 -12q50 0 83.5 20t54 50.5t30.5 66t14 66t3.5 51t-0.5 21.5v434
h57v-486zM341 963q28 0 52.5 -10.5t42.5 -28.5t28.5 -42.5t10.5 -52.5t-10.5 -52.5t-28.5 -42.5t-42.5 -28.5t-52.5 -10.5t-52.5 10.5t-42.5 28.5t-28.5 42.5t-10.5 52.5t10.5 52.5t28.5 42.5t42.5 28.5t52.5 10.5zM340 743q35 0 60 25.5t25 60.5t-24.5 60.5t-59.5 25.5
q-17 0 -31.5 -7t-26 -19t-18 -27.5t-6.5 -32.5t6.5 -32.5t17.5 -27.5t25.5 -19t31.5 -7h1h-1z" />
    <glyph glyph-name="uring" unicode="&#x16f;" 
d="M581 275q0 -1 -1 -23t-7.5 -53.5t-21 -68.5t-41.5 -68t-68.5 -52t-102.5 -21q-46 0 -81 12t-60.5 32.5t-42.5 46t-28 52.5q-26 62 -27 143v486h57v-433q-3 -77 15 -138q7 -26 20 -50.5t33 -44t48 -31.5t66 -12q50 0 83.5 20t54 50.5t30.5 66t14 66t3.5 51t-0.5 21.5v434
h57v-486zM341 963q28 0 52.5 -10.5t42.5 -28.5t28.5 -42.5t10.5 -52.5t-10.5 -52.5t-28.5 -42.5t-42.5 -28.5t-52.5 -10.5t-52.5 10.5t-42.5 28.5t-28.5 42.5t-10.5 52.5t10.5 52.5t28.5 42.5t42.5 28.5t52.5 10.5zM340 743q35 0 60 25.5t25 60.5t-24.5 60.5t-59.5 25.5
q-17 0 -31.5 -7t-26 -19t-18 -27.5t-6.5 -32.5t6.5 -32.5t17.5 -27.5t25.5 -19t31.5 -7h1h-1z" />
    <glyph glyph-name="Uhungarumlaut" unicode="&#x170;" 
d="M581 275q0 -1 -1 -23t-7.5 -53.5t-21 -68.5t-41.5 -68t-68.5 -52t-102.5 -21q-46 0 -81 12t-60.5 32.5t-42.5 46t-28 52.5q-26 62 -27 143v486h57v-433q-3 -77 15 -138q7 -26 20 -50.5t33 -44t48 -31.5t66 -12q50 0 83.5 20t54 50.5t30.5 66t14 66t3.5 51t-0.5 21.5v434
h57v-486zM212 740l119 223h62l-119 -223h-62zM374 740l119 223h62l-119 -223h-62z" />
    <glyph glyph-name="uhungarumlaut" unicode="&#x171;" 
d="M581 275q0 -1 -1 -23t-7.5 -53.5t-21 -68.5t-41.5 -68t-68.5 -52t-102.5 -21q-46 0 -81 12t-60.5 32.5t-42.5 46t-28 52.5q-26 62 -27 143v486h57v-433q-3 -77 15 -138q7 -26 20 -50.5t33 -44t48 -31.5t66 -12q50 0 83.5 20t54 50.5t30.5 66t14 66t3.5 51t-0.5 21.5v434
h57v-486zM212 740l119 223h62l-119 -223h-62zM374 740l119 223h62l-119 -223h-62z" />
    <glyph glyph-name="Uogonek" unicode="&#x172;" 
d="M385 -7q-12 -5 -27 -12t-27.5 -17.5t-21.5 -25t-9 -32.5q0 -23 16.5 -35t39 -17.5t45 -6.5t34.5 -1v-53q-31 1 -64.5 6t-61 17.5t-45.5 34t-18 55.5q0 18 7.5 31.5t19.5 23.5t27 16.5t31 11.5q-45 1 -78.5 14t-58 33t-41 45.5t-26.5 52.5q-25 62 -27 141v486h57v-433
q-3 -77 15 -138q7 -26 20 -50.5t33 -44t48 -31.5t66 -12q50 0 83.5 20t54 50.5t30.5 66t14 66t3.5 51t-0.5 21.5v434h57v-486q0 -1 -1 -20.5t-6 -48t-17 -62.5t-33.5 -65t-55.5 -54.5t-83 -31.5z" />
    <glyph glyph-name="uogonek" unicode="&#x173;" 
d="M385 -7q-12 -5 -27 -12t-27.5 -17.5t-21.5 -25t-9 -32.5q0 -23 16.5 -35t39 -17.5t45 -6.5t34.5 -1v-53q-31 1 -64.5 6t-61 17.5t-45.5 34t-18 55.5q0 18 7.5 31.5t19.5 23.5t27 16.5t31 11.5q-45 1 -78.5 14t-58 33t-41 45.5t-26.5 52.5q-25 62 -27 141v486h57v-433
q-3 -77 15 -138q7 -26 20 -50.5t33 -44t48 -31.5t66 -12q50 0 83.5 20t54 50.5t30.5 66t14 66t3.5 51t-0.5 21.5v434h57v-486q0 -1 -1 -20.5t-6 -48t-17 -62.5t-33.5 -65t-55.5 -54.5t-83 -31.5z" />
    <glyph glyph-name="Wcircumflex" unicode="&#x174;" horiz-adv-x="1115" 
d="M706 119l334 642h72l-406 -761l-133 247l-131 -247l-407 761h69l338 -642l131 247zM385 740l126 223h62l-127 -223h-61zM700 740l-127 223h62l126 -223h-61z" />
    <glyph glyph-name="wcircumflex" unicode="&#x175;" horiz-adv-x="1115" 
d="M706 119l334 642h72l-406 -761l-133 247l-131 -247l-407 761h69l338 -642l131 247zM385 740l126 223h62l-127 -223h-61zM700 740l-127 223h62l126 -223h-61z" />
    <glyph glyph-name="Ycircumflex" unicode="&#x176;" horiz-adv-x="837" 
d="M456 343v-343h-57v343l-357 418h72l314 -367l316 367h72zM240 740l126 223h62l-127 -223h-61zM555 740l-127 223h62l126 -223h-61z" />
    <glyph glyph-name="ycircumflex" unicode="&#x177;" horiz-adv-x="837" 
d="M456 343v-343h-57v343l-357 418h72l314 -367l316 367h72zM240 740l126 223h62l-127 -223h-61zM555 740l-127 223h62l126 -223h-61z" />
    <glyph glyph-name="Ydieresis" unicode="&#x178;" horiz-adv-x="837" 
d="M456 343v-343h-57v343l-357 418h62l324 -373l326 373h62zM245 867q0 23 15.5 39.5t38.5 16.5t39.5 -16.5t16.5 -39.5t-16.5 -38.5t-39.5 -15.5t-38.5 15.5t-15.5 38.5zM503 867q0 23 15.5 39.5t38.5 16.5t39.5 -16.5t16.5 -39.5t-16.5 -38.5t-39.5 -15.5t-38.5 15.5
t-15.5 38.5z" />
    <glyph glyph-name="Zacute" unicode="&#x179;" horiz-adv-x="777" 
d="M720 761l-538 -709h537v-52h-648l539 709h-538v52h245l107 202h62l-107 -202h341v0z" />
    <glyph glyph-name="zacute" unicode="&#x17a;" horiz-adv-x="777" 
d="M720 761l-538 -709h537v-52h-648l539 709h-538v52h245l107 202h62l-107 -202h341v0z" />
    <glyph glyph-name="Zdotaccent" unicode="&#x17b;" horiz-adv-x="777" 
d="M72 761h648l-538 -709h537v-52h-648l539 709h-538v52zM340 907q0 23 15.5 39.5t38.5 16.5t39.5 -16.5t16.5 -39.5t-16.5 -38.5t-39.5 -15.5t-38.5 15.5t-15.5 38.5z" />
    <glyph glyph-name="zdotaccent" unicode="&#x17c;" horiz-adv-x="777" 
d="M72 761h648l-538 -709h537v-52h-648l539 709h-538v52zM340 907q0 23 15.5 39.5t38.5 16.5t39.5 -16.5t16.5 -39.5t-16.5 -38.5t-39.5 -15.5t-38.5 15.5t-15.5 38.5z" />
    <glyph glyph-name="Zcaron" unicode="&#x17d;" horiz-adv-x="777" 
d="M720 761l-538 -709h537v-52h-648l539 709h-538v52h250l-114 202h61l115 -202h24l115 202h61l-114 -202h250v0z" />
    <glyph glyph-name="zcaron" unicode="&#x17e;" horiz-adv-x="777" 
d="M720 761l-538 -709h537v-52h-648l539 709h-538v52h250l-114 202h61l115 -202h24l115 202h61l-114 -202h250v0z" />
    <glyph glyph-name="florin" unicode="&#x192;" horiz-adv-x="620" 
d="M157 325v-325h-57v761h450v-53h-393v-329h393v-54h-393z" />
    <glyph glyph-name="uni0218" unicode="&#x218;" horiz-adv-x="776" 
d="M579 356q60 -17 93.5 -56.5t33.5 -114.5q0 -56 -24 -92t-61 -56.5t-82 -28.5t-86 -8h-353v57h337h27t42 3t48 10.5t46 21.5t34.5 36.5t14.5 56.5q1 50 -24 76.5t-59 38.5l-338 106q-60 17 -94 56t-34 114q0 56 24 92t61 56.5t82 28.5t86 8h353v-57h-337h-27t-42 -3
t-48 -10.5t-46 -21.5t-34.5 -37t-14.5 -56q0 -25 6.5 -43.5t18 -32.5t27 -23t32.5 -15zM-19 -223l119 223h62l-119 -223h-62z" />
    <glyph glyph-name="uni0219" unicode="&#x219;" horiz-adv-x="776" 
d="M579 356q60 -17 93.5 -56.5t33.5 -114.5q0 -56 -24 -92t-61 -56.5t-82 -28.5t-86 -8h-353v57h337h27t42 3t48 10.5t46 21.5t34.5 36.5t14.5 56.5q1 50 -24 76.5t-59 38.5l-338 106q-60 17 -94 56t-34 114q0 56 24 92t61 56.5t82 28.5t86 8h353v-57h-337h-27t-42 -3
t-48 -10.5t-46 -21.5t-34.5 -37t-14.5 -56q0 -25 6.5 -43.5t18 -32.5t27 -23t32.5 -15zM-19 -223l119 223h62l-119 -223h-62z" />
    <glyph glyph-name="circumflex" unicode="&#x2c6;" horiz-adv-x="902" 
d="M269 740l126 223h62l-127 -223h-61zM584 740l-127 223h62l126 -223h-61z" />
    <glyph glyph-name="caron" unicode="&#x2c7;" horiz-adv-x="902" 
d="M645 963l-126 -223h-62l127 223h61zM330 963l127 -223h-62l-126 223h61z" />
    <glyph glyph-name="breve" unicode="&#x2d8;" horiz-adv-x="902" 
d="M718 963q-12 -43 -37 -79t-59 -62.5t-76.5 -41t-88.5 -14.5q-47 0 -89 14.5t-76 41t-59 62.5t-37 79h57q6 -16 19 -40t36.5 -46t59.5 -38t89 -16q56 0 92.5 16t59 38t34.5 46t18 40h57z" />
    <glyph glyph-name="dotaccent" unicode="&#x2d9;" horiz-adv-x="902" 
d="M397 907q0 23 15.5 39.5t38.5 16.5t39.5 -16.5t16.5 -39.5t-16.5 -38.5t-39.5 -15.5t-38.5 15.5t-15.5 38.5z" />
    <glyph glyph-name="ring" unicode="&#x2da;" horiz-adv-x="902" 
d="M584 829q0 -28 -10.5 -52.5t-28.5 -42.5t-42.5 -28.5t-52.5 -10.5t-52.5 10.5t-42.5 28.5t-28.5 42.5t-10.5 52.5t10.5 52.5t28.5 42.5t42.5 28.5t52.5 10.5t52.5 -10.5t42.5 -28.5t28.5 -42.5t10.5 -52.5zM449 743q35 0 60 25.5t25 60.5t-24.5 60.5t-59.5 25.5
q-17 0 -31.5 -7t-26 -19t-18 -27.5t-6.5 -32.5t6.5 -32.5t18 -27.5t26 -19t31.5 -7h-1z" />
    <glyph glyph-name="ogonek" unicode="&#x2db;" horiz-adv-x="359" 
d="M154 -94q0 -23 16.5 -35t39 -17.5t45 -6.5t34.5 -1v-53q-31 1 -64.5 6t-61 17.5t-45.5 34t-18 55.5q0 31 20.5 49.5t47.5 28.5t54 13t41 3q-31 -8 -55 -21q-20 -11 -37 -29t-17 -44z" />
    <glyph glyph-name="tilde" unicode="&#x2dc;" horiz-adv-x="587" 
d="M546 963q0 -40 -9 -74.5t-27.5 -57.5t-46.5 -31.5t-65 3.5q-18 6 -53.5 21.5t-74 32t-73 29t-52.5 12.5t-27.5 -12.5t-14 -29t-5 -34t-0.5 -27.5h-67q0 40 9 74.5t27.5 57.5t46 31.5t65.5 -3.5q18 -6 53 -21.5t73.5 -32t73 -29t52.5 -12.5t27.5 12.5t14 29t5.5 34t1 27.5
h67z" />
    <glyph glyph-name="hungarumlaut" unicode="&#x2dd;" horiz-adv-x="543" 
d="M104 740l119 223h62l-119 -223h-62zM266 740l119 223h62l-119 -223h-62z" />
    <glyph glyph-name="endash" unicode="&#x2013;" horiz-adv-x="578" 
d="M100 444h408v-57h-408v57z" />
    <glyph glyph-name="emdash" unicode="&#x2014;" horiz-adv-x="829" 
d="M100 444h659v-57h-659v57z" />
    <glyph glyph-name="quoteleft" unicode="&#x2018;" horiz-adv-x="248" 
d="M129 706l-68 234l54 24l58 -234z" />
    <glyph glyph-name="quoteright" unicode="&#x2019;" horiz-adv-x="248" 
d="M61 730l58 234l54 -24l-68 -234z" />
    <glyph glyph-name="quotesinglbase" unicode="&#x201a;" horiz-adv-x="248" 
d="M36 -223l119 223h62l-119 -223h-62z" />
    <glyph glyph-name="quotedblleft" unicode="&#x201c;" horiz-adv-x="286" 
d="M87 706l-68 234l54 24l58 -234zM212 706l-68 234l54 24l58 -234z" />
    <glyph glyph-name="quotedblright" unicode="&#x201d;" horiz-adv-x="286" 
d="M144 730l58 234l54 -24l-68 -234zM19 730l58 234l54 -24l-68 -234z" />
    <glyph glyph-name="quotedblbase" unicode="&#x201e;" horiz-adv-x="286" 
d="M144 -93l58 234l54 -24l-68 -234zM19 -93l58 234l54 -24l-68 -234z" />
    <glyph glyph-name="dagger" unicode="&#x2020;" horiz-adv-x="660" 
d="M373 761v-761h-57v761h57zM100 550h490v-57h-490v57z" />
    <glyph glyph-name="daggerdbl" unicode="&#x2021;" horiz-adv-x="633" 
d="M361 761v-761h-57v761h57zM100 550h463v-57h-463v57zM100 296h463v-57h-463v57z" />
    <glyph glyph-name="bullet" unicode="&#x2022;" horiz-adv-x="248" 
d="M69 504q0 23 15.5 39.5t38.5 16.5t39.5 -16.5t16.5 -39.5t-16.5 -38.5t-39.5 -15.5t-38.5 15.5t-15.5 38.5z" />
    <glyph glyph-name="ellipsis" unicode="&#x2026;" horiz-adv-x="833" 
d="M126 -11q-23 0 -39.5 15.5t-16.5 38.5t16.5 39.5t39.5 16.5t38.5 -16.5t15.5 -39.5t-15.5 -38.5t-38.5 -15.5zM417 -11q-23 0 -39.5 15.5t-16.5 38.5t16.5 39.5t39.5 16.5t38.5 -16.5t15.5 -39.5t-15.5 -38.5t-38.5 -15.5zM708 -11q-23 0 -39.5 15.5t-16.5 38.5
t16.5 39.5t39.5 16.5t38.5 -16.5t15.5 -39.5t-15.5 -38.5t-38.5 -15.5z" />
    <glyph glyph-name="perthousand" unicode="&#x2030;" horiz-adv-x="1269" 
d="M218 758q36 0 67.5 -14t55 -39t36.5 -59.5t13 -74.5t-13 -74t-36.5 -59t-55 -39t-67.5 -14t-67 14t-54 39t-36 59t-13 74t13 74.5t36 59.5t54 39t67 14zM686 373q36 0 67.5 -14t55 -39t36.5 -59.5t13 -74.5t-13 -74t-36.5 -59t-55 -39t-67.5 -14t-67 14t-54 39t-36 59
t-13 74t13 74.5t36 59.5t54 39t67 14zM1066 373q36 0 67.5 -14t55 -39t36.5 -59.5t13 -74.5t-13 -74t-36.5 -59t-55 -39t-67.5 -14t-67 14t-54 39t-36 59t-13 74t13 74.5t36 59.5t54 39t67 14zM675 741l-400 -741l-51 20l400 741zM217 440q25 0 47.5 10t39.5 27.5t26.5 41.5
t9.5 52t-9.5 52t-26.5 41t-39.5 27t-47.5 10t-46.5 -10t-37.5 -27t-25 -41t-9 -52t9 -52t25 -41.5t37.5 -27.5t46.5 -10zM685 55q25 0 47.5 10t39.5 27.5t26.5 41.5t9.5 52t-9.5 52t-26.5 41t-39.5 27t-47.5 10t-46.5 -10t-37.5 -27t-25 -41t-9 -52t9 -52t25 -41.5
t37.5 -27.5t46.5 -10zM1065 55q25 0 47.5 10t39.5 27.5t26.5 41.5t9.5 52t-9.5 52t-26.5 41t-39.5 27t-47.5 10t-46.5 -10t-37.5 -27t-25 -41t-9 -52t9 -52t25 -41.5t37.5 -27.5t46.5 -10z" />
    <glyph glyph-name="guilsinglleft" unicode="&#x2039;" horiz-adv-x="393" 
d="M323 153l-223 126v62l223 -127v-61zM323 468l-223 -127v62l223 126v-61z" />
    <glyph glyph-name="guilsinglright" unicode="&#x203a;" horiz-adv-x="393" 
d="M100 214l223 127v-62l-223 -126v61zM100 529l223 -126v-62l-223 127v61z" />
    <glyph glyph-name="fraction" unicode="&#x2044;" horiz-adv-x="482" 
d="M480 761l-402 -761h-62l402 761h62z" />
    <glyph glyph-name="Euro" unicode="&#x20ac;" horiz-adv-x="472" 
d="M40 410h43q5 66 31.5 126t69 107.5t98 80t119.5 44.5v-56q-52 -12 -97.5 -40.5t-80.5 -69t-57.5 -90t-27.5 -102.5h263v-57h-263q4 -55 26 -106t56.5 -92t80.5 -70t100 -40v-53q-65 11 -121 43.5t-98 80.5t-68.5 109t-30.5 128h-43v57z" />
    <glyph glyph-name="trademark" unicode="&#x2122;" horiz-adv-x="590" 
d="M520 762v-269h-40v164q-5 -7 -19.5 -24.5t-30.5 -37.5q-18 -23 -40 -50l-89 111v-163h-40v230h-91v-230h-40v230h-118v39h249l129 -158z" />
    <glyph glyph-name="partialdiff" unicode="&#x2202;" horiz-adv-x="677" 
d="M336 517q81 0 147 -34l-112 277h60l200 -507q0 -54 -23 -102t-62.5 -83t-93.5 -55.5t-116 -20.5q-61 0 -114 20.5t-92.5 55.5t-62.5 83t-23 102t23 102t62.5 84t92.5 57t114 21zM339 50q49 0 92 15t75.5 41t51.5 61t22 75l-58 144q-33 32 -80 51t-103 19q-50 0 -93 -16
t-75 -43.5t-50.5 -64.5t-18.5 -79t18.5 -79t50.5 -64.5t75 -43.5t93 -16z" />
    <glyph glyph-name="glyph15" horiz-adv-x="888" 
d="M218 758q36 0 67.5 -14t55 -39t36.5 -59.5t13 -74.5t-13 -74t-36.5 -59t-55 -39t-67.5 -14t-67 14t-54 39t-36 59t-13 74t13 74.5t36 59.5t54 39t67 14zM686 373q36 0 67.5 -14t55 -39t36.5 -59.5t13 -74.5t-13 -74t-36.5 -59t-55 -39t-67.5 -14t-67 14t-54 39t-36 59
t-13 74t13 74.5t36 59.5t54 39t67 14zM675 741l-400 -741l-51 20l400 741zM217 440q25 0 47.5 10t39.5 27.5t26.5 41.5t9.5 52t-9.5 52t-26.5 41t-39.5 27t-47.5 10t-46.5 -10t-37.5 -27t-25 -41t-9 -52t9 -52t25 -41.5t37.5 -27.5t46.5 -10zM685 55q25 0 47.5 10t39.5 27.5
t26.5 41.5t9.5 52t-9.5 52t-26.5 41t-39.5 27t-47.5 10t-46.5 -10t-37.5 -27t-25 -41t-9 -52t9 -52t25 -41.5t37.5 -27.5t46.5 -10z" />
    <glyph glyph-name="glyph223" horiz-adv-x="432" 
d="M361 768v-56q-56 -12 -104 -44t-83.5 -77t-56 -99.5t-20.5 -111.5q0 -59 20 -114t55.5 -100t83.5 -77t105 -44v-53q-68 12 -126 47t-101 87t-67.5 117.5t-24.5 136.5q0 61 18.5 117.5t51 104.5t77.5 85.5t98 59.5l116 216h62z" />
    <glyph glyph-name="glyph242" horiz-adv-x="227" 
d="M157 761v-761h-57v761h57zM-95 906v57h446v-57h-446z" />
    </font>
</defs>
</svg>
