<?xml version="1.0" standalone="no"?>
<!DOCTYPE svg PUBLIC "-//W3C//DTD SVG 1.1//EN" "http://www.w3.org/Graphics/SVG/1.1/DTD/svg11.dtd" >
<svg>
<metadata>
Created by FontForge 20120731 at Fri Feb 26 16:53:05 2021
 By ffonts
Gardenia Summer (c) Balpirick 2020. All Rights Reserved
</metadata>
<defs>
<font id="GardeniaSummer" horiz-adv-x="355" >
  <font-face 
    font-family="Gardenia Summer"
    font-weight="400"
    font-stretch="normal"
    units-per-em="2048"
    panose-1="2 0 6 0 0 0 0 0 0 0"
    ascent="1881"
    descent="-167"
    x-height="712"
    cap-height="1414"
    bbox="-660 -132 1809 1572"
    underline-thickness="150"
    underline-position="-142"
    unicode-range="U+001D-E102"
  />
<missing-glyph horiz-adv-x="1024" 
 />
    <glyph glyph-name="tt" unicode="tt" horiz-adv-x="630" 
d="M8 107l-3 4.5t-1 4.5q0 9 11 21q3 3 13.5 16t24.5 31q28 35 71 91q44 55 72 91q260 328 415 517q13 15 22 26l8 10q-1 1 -6 1h-13l-18 -1l-21 -20q-59 -54 -120.5 -109t-104.5 -93q-228 -200 -319 -242q-27 -12 -45 -12q-11 0 -18 5q-16 12 -16 38v6q1 32 14 67
q11 30 32 71q38 76 96 158q19 27 43 57.5t45 53.5q5 6 8 10l3 4h-62q-26 -1 -53.5 -1h-42.5h-36l-4 4q-4 4 -4 9v2q0 6 6 10q1 0 2 0.5t3.5 1t7 0.5t13 0.5t21 0.5t31 0.5t43.5 0.5l102 1l15 17q29 30 69 69t71 65q14 13 17 18t8 8t11 3q5 0 9 -3.5t4 -8.5q0 -2 -1 -4.5
t-2 -4.5t-8 -8.5t-16 -15.5q-27 -23 -49 -44.5t-51 -50.5l-37 -38h19q9 0 51.5 0.5t98.5 1.5q56 0 97.5 0.5t46.5 0.5h12l26 25q148 136 234 220l94 94q9 10 14 14.5t7 5.5t6 1q7 0 10.5 -4.5t3.5 -9.5q0 -2 -1 -4q-1 -4 -9.5 -15.5t-29.5 -36.5t-60 -70q-44 -51 -86 -100.5
l-70 -82.5t-28 -34h64q47 1 129 2t155 2t93 1l27 1l4 -4q3 -3 3.5 -5t0.5 -5q0 -4 -0.5 -6t-3.5 -4q-1 -2 -3.5 -3t-4.5 -1q-4 0 -66 -1t-153 -3q-91 -1 -159.5 -2t-82.5 -1l-28 -1l-19 -23q-59 -72 -140 -171.5t-154 -190.5q-50 -64 -116 -147t-117 -148
q-23 -29 -43.5 -55.5t-33.5 -42.5q-5 -7 -8 -11q-8 -10 -14.5 -17.5t-8.5 -8.5q-4 -3 -8 -3t-9 5zM671 955q1 1 3 4q6 7 18.5 21.5t27.5 32.5q19 22 29.5 35t13.5 17t3 5l-5 -5q-5 -5 -24 -23t-41.5 -39t-38.5 -36q-8 -7 -13 -12t-6 -5q0 -1 4 -1h10h14zM36 484
q113 60 409 329q29 26 49.5 44.5t33.5 30.5t20 18.5t10 9.5l3 3q-2 0 -47.5 -0.5t-112.5 -1.5q-63 -1 -98 -2t-49 -1l-15 -1q-4 -5 -14 -17t-21 -24.5t-17 -20.5q-135 -167 -187 -304q-10 -27 -12.5 -39.5t-2.5 -15.5q0 -13 8 -18q3 -2 8 -2q12 0 35 12z" />
    <glyph glyph-name="ll" unicode="ll" horiz-adv-x="624" 
d="M130 258q-8 4 -8 12q0 9 7 15q1 1 6 7t11 14q26 33 85 107t104 130q62 76 109.5 134t111.5 133l1 1q1 1 1 2l-1 -1q-1 -1 -4 -3t-8 -6.5t-13 -10.5q-5 -4 -10 -9q-188 -153 -289 -221q-151 -102 -220 -102q-16 0 -28 6q-25 12 -25 45q0 13 4 30q17 64 90 171.5t181 228.5
q29 32 56.5 60.5t79.5 81.5q29 28 45 44.5t22.5 23.5t6.5 9q2 5 9 10t14 6q7 0 10 -4t3 -9v-3q-1 -2 -3 -5.5t-8.5 -10t-18 -19t-31.5 -32.5q-93 -95 -146 -152t-94 -108q-150 -186 -186 -292q-5 -18 -5 -30q0 -11 5 -17q7 -6 20 -6q16 0 42 9q47 16 114 58q127 76 447 345
l65 54l28 31q219 240 321 310q17 12 27 12q6 0 10 -4q3 -2 4.5 -6t1.5 -8v-3q-2 -18 -90 -102q-106 -101 -250 -224q-21 -18 -32 -28t-25 -27q-165 -185 -394 -473q-34 -42 -71 -88.5t-54 -68.5q-4 -6 -8 -10.5t-6 -5.5q-4 -2 -8 -2q-3 0 -6 1z" />
    <glyph glyph-name=".notdef" horiz-adv-x="1024" 
 />
    <glyph glyph-name=".notdef" horiz-adv-x="1024" 
 />
    <glyph glyph-name="space" unicode=" " horiz-adv-x="300" 
 />
    <glyph glyph-name="space" unicode="&#xa0;" horiz-adv-x="300" 
 />
    <glyph glyph-name="exclam" unicode="!" horiz-adv-x="766" 
d="M0 272v2q0 2 2 6t6 9t6 8q1 3 3 4.5t5.5 2.5t10.5 2h3q19 0 19 -11q0 -13 -19 -24h-1q-10 -6 -15.5 -7.5t-7.5 -1.5q-8 0 -12 10zM86 380q-7 3 -7 11q0 21 72 112q56 70 154.5 181t206.5 225q37 39 90.5 93t82.5 82q8 6 12 10t6 6.5t2.5 4t0.5 3.5v2q0 2 1 4t5 5
q2 3 7 6.5t9 7.5q15 10 19 11t5 1q6 0 10 -4q4 -5 4 -10q0 -3 -2 -7q-2 -2 -15.5 -16t-32.5 -33q-87 -86 -149.5 -150.5t-132.5 -140.5q-257 -281 -319 -379q-5 -7 -8.5 -13t-4.5 -7q-5 -6 -11 -6q-2 0 -5 1z" />
    <glyph glyph-name="quotedbl" unicode="&#x22;" 
d="M107 1328q-2 1 -3 2.5t-2 2.5q-2 3 -2 6q0 2 1 4q3 6 11 15q9 10 26.5 27t33 31t20.5 17q3 1 6 1q5 0 9 -3t4 -8q0 -2 -1 -5q-1 -5 -5 -9t-8 -7q-3 -1 -14 -11.5t-26 -25.5q-15 -14 -25.5 -24.5t-12.5 -11.5q-3 -2 -6 -2t-6 1zM197 1347q-5 3 -5 9v4q2 5 11 16.5t19.5 22
t14.5 12.5q3 1 6 1q4 0 7 -2q5 -4 5 -11q0 -4 -2 -7.5t-5 -4.5l-12 -12q-12 -15 -19 -21.5t-9.5 -7.5t-3.5 -1q-3 0 -7 2z" />
    <glyph glyph-name="numbersign" unicode="#" horiz-adv-x="750" 
d="M271 270q-4 3 -6 8.5t-2 11.5q0 19 30 70q16 26 49 74t54 76l4 6l2 2q0 1 -2 1t-5 -1q-3 0 -15 -1t-28 -2q-55 -5 -98 -9.5t-46 -5.5q-2 -2 -7.5 -9.5t-12 -17t-11.5 -16.5q-10 -14 -11 -21q-3 -13 -12 -13q-7 0 -11.5 4.5t-4.5 11.5q0 13 24 47q3 4 5 7l1 3h-6
q-6 -1 -14 -2t-15 -2t-11 -2q-5 -1 -9 -1h-3q-5 1 -8 5q-2 4 -2 8v3q2 6 7 9q1 0 12 2t26 4q6 1 12 1q11 2 19 3t10 1t3.5 1t4 4l7.5 9t14 17q10 13 22.5 29t22.5 28t16 19.5t6 8.5q-2 0 -21 -1t-43.5 -3.5t-45.5 -4.5t-28 -3q-9 -2 -12.5 -2h-5.5h-3q-2 0 -3 2q-4 2 -5 8
q0 3 0.5 5t3.5 5l6 4t9.5 3t18.5 3q12 1 37.5 3.5t52.5 5t43 3.5q8 1 14 1.5t7 1.5q2 1 9.5 9.5t18.5 20.5q33 40 71.5 84.5t65.5 74.5l32 36q12 13 19 21q10 12 14.5 17t4.5 9q2 9 23 30q9 10 13.5 12t6.5 2q3 0 6 -2q7 -4 7 -11v-4q0 -2 -1 -5q-2 -4 -8.5 -12.5t-20 -24.5
t-36 -42t-56.5 -65q-71 -81 -120 -139q-3 -3 -4.5 -5t-1.5 -3h4.5t9.5 1q18 1 54 3.5t64 4.5h1q14 1 25 2t15 1l9 1l33 39q15 19 25 31t16 19t9 11t4 6l2 4q3 10 11 13q3 1 5 1q6 0 10 -4q3 -4 3 -9q0 -3 -1 -6q0 -2 -4.5 -8.5t-14.5 -19.5t-28 -36q-13 -16 -21.5 -27
t-8.5 -12l10 1q9 0 23 1q18 2 26 2q9 0 12 -1.5t5 -5.5q1 -3 1 -5t-2 -5q-1 -2 -2.5 -3.5t-3.5 -2.5q-13 -5 -71 -10l-24 -1l-4 -5q-2 -3 -15 -19.5t-28.5 -36.5t-25.5 -33l-10 -13h4q2 0 12.5 0.5t23.5 1.5q15 1 23.5 2t12.5 1t5.5 -0.5t3.5 -2.5q5 -4 4.5 -10.5t-6.5 -9.5
q-13 -7 -73 -11q-8 0 -15.5 -0.5t-10.5 -1.5l-7 -1l-13 -17q-45 -61 -82 -117t-49 -82q-3 -6 -3.5 -10t-0.5 -10q0 -15 -6 -16q-2 -1 -4 -1h-3q-5 0 -8 2zM267 534q67 8 127 13q12 1 20 1.5t10 1.5q1 0 8 9t17 22q15 19 30.5 39.5t26.5 34.5l1 1h-1q-1 1 -5 0.5t-12 -0.5
q-10 0 -35.5 -2t-54.5 -4t-50.5 -3.5t-23.5 -2.5q-1 0 -8 -7.5t-16 -18.5q-15 -18 -30.5 -37.5t-27 -34t-11.5 -15.5h1h2.5t3.5 0.5t4.5 0.5t5.5 0.5t7 1t10 0.5h1z" />
    <glyph glyph-name="dollar" unicode="$" horiz-adv-x="846" 
d="M155 194q-7 5 -7 13v4q1 4 8.5 19t19.5 36q4 7 7 13l3 5l-2 2q-2 1 -5 2q-19 10 -37.5 25.5t-28.5 29.5q-7 11 -10 19.5t-3 19.5q0 9 1 13t3 9q4 8 10 16.5t12 13.5q4 4 6 5t6 1t6 -1t4 -3q3 -4 3 -8v-2q-1 -6 -9 -17q-4 -6 -7 -11.5t-4 -8.5t-1 -6q0 -13 12 -28
q16 -20 46 -37q5 -3 8 -4.5t4 -1.5t5 6.5t10 16.5q72 128 131 227q7 12 12 21l5 8q0 1 -3.5 3t-8.5 5q-25 14 -44.5 30t-27.5 29q-7 11 -9 19t-2 22q0 7 0.5 11t1.5 7.5t3 9.5q29 77 196 173q22 13 53 28.5t50 22.5l18 8l12 19q4 9 10 19.5t10 18.5q3 7 5 11t2.5 5.5
t0.5 2.5l-1 1q-1 3 -1 6q0 4 1 7q3 7 10 11q5 2 9 2h3q6 -2 9 -8q2 -3 2 -8q0 -4 -2 -11q-4 -12 -16 -38l-8 -16t-3 -8l5 1q5 1 12 3q20 4 36 4q33 0 49 -17q11 -12 11 -31q0 -20 -14 -49q-30 -62 -104 -137q-17 -17 -24.5 -23t-13.5 -6q-7 0 -10 4.5t-3 7.5q0 4 2 7
q1 1 3.5 4t6.5 6q8 8 21.5 22t26.5 29q69 82 79 130v5q0 18 -27 18h-3q-25 0 -60 -12l-17 -6l-25 -42q-11 -18 -31.5 -51t-40.5 -65q-105 -169 -105 -172l3 -1q3 -2 8 -5l8 -4q83 -45 117 -81q25 -26 33 -53q2 -6 2.5 -11t0.5 -16t-1 -16t-3 -12q-26 -73 -133 -117
q-53 -21 -90 -23.5t-53 -2.5q-40 0 -74 9q-5 1 -7 1.5t-3 0t-2 -1.5q-1 -2 -6 -10.5t-10.5 -19t-9.5 -18.5t-4 -9l-1 -3q-1 -3 -3 -5q-6 -13 -16 -13q-4 0 -8 2zM387 631q19 30 47 75t55 89q16 26 27.5 44.5t19.5 31.5t13.5 21t8 12.5t3.5 6t1 2.5h-1l-8 -4q-9 -4 -21 -10
q-86 -43 -146.5 -89.5t-80.5 -83.5q-7 -14 -7 -27q0 -12 6 -23q13 -22 57 -48q7 -4 12 -6.5t6 -2.5l3 4q2 3 5 8zM359 296q98 17 155 69q35 35 35 68q0 7 -1 13q-8 48 -115 108q-17 10 -26 14.5l-12 6t-4 1.5t-2 -1q-2 -4 -56 -95q-11 -19 -28 -48t-34 -59t-28 -51l-12 -21
q0 -2 20 -6q9 -2 14.5 -2.5t14.5 -0.5h27q20 0 31 1t21 3z" />
    <glyph glyph-name="percent" unicode="%" horiz-adv-x="785" 
d="M369 381q-18 4 -25 20q-1 3 -1 9v6q0 9 2 18q8 25 32.5 59.5t55.5 66.5q28 27 47 36q12 6 21 6q4 0 7 -1q11 -3 14 -16q0 -3 1.5 -5t5.5 -5q20 -16 22 -47v-5q0 -40 -33 -73q-28 -28 -69 -48q-44 -22 -70 -22q-5 0 -10 1zM115 311q-9 5 -9 15q0 8 4 18q23 48 176 223
q49 56 110 118t163 160l24 24l10 9v1l-2 -1l-6 -2q-4 -2 -11.5 -5t-15.5 -6q-54 -20 -124 -41t-117 -30q-8 -2 -22 -4.5t-26 -4t-14 -1.5v-3q1 -3 3 -8q5 -16 5 -32q0 -46 -46 -94q-25 -23 -49.5 -34.5t-39.5 -11.5q-5 0 -9 1q-6 2 -11 6t-7 9q-1 3 -1 8v6q0 8 2 16
q7 21 27 51.5t48 60.5q28 31 61.5 58.5t52.5 35.5q10 4 17 4t12 -3q12 -5 12 -18q0 -8 2 -8q3 1 20.5 5.5t41.5 11.5q150 43 246 89q10 4 17.5 7.5t9.5 3.5q10 0 13 -5.5t3 -9.5q0 -5 -4 -10q-1 -2 -8.5 -9t-17.5 -16q-73 -69 -166.5 -161.5t-133.5 -136.5
q-60 -65 -116.5 -132.5t-83.5 -105.5l-10 -15l2 -4q3 -4 3 -8q0 -3 -4 -8q-6 -9 -12 -11.5t-11 -2.5q-4 0 -8 1zM302 822l1 1v3l-1 1q-1 0 -3.5 -1.5t-5.5 -3t-3 -2.5h5q3 1 6 1q0 1 1 1zM146 636q31 13 55 39t31 53q1 8 0.5 18.5t-3.5 16.5l-2 6l-15 -16
q-29 -30 -51.5 -62.5t-30.5 -55.5q0 -2 0.5 -2.5t2.5 -0.5q1 0 5 1t8 3zM400 415q35 10 67 32.5t45 43.5q8 17 8 31v6q-1 29 -35 30l-12 1l-19 -19q-8 -8 -16.5 -17.5t-13.5 -16.5q-19 -24 -33.5 -47.5t-17.5 -37.5q-1 -3 -1 -5t0.5 -2.5l1.5 -1.5t5 -1q7 0 21 4z" />
    <glyph glyph-name="ampersand" unicode="&#x26;" horiz-adv-x="854" 
d="M104 228q-4 4 -4 10q0 8 9 18q3 4 16 20t29 36l28 35t12 16l-6 2q-7 3 -14 8t-11 11q-11 17 -11 38q0 38 33 89q18 28 48 58q73 72 159 106q14 6 33.5 11.5t31.5 8.5q4 1 6 2t4 4l4 4l-8 5q-26 18 -26 43q0 30 39 70q68 66 159 96l11 4l42 52q17 22 30 37t14 16q3 2 8 2
t8 -2t4.5 -6.5t1.5 -7.5q-1 -2 -3.5 -6.5t-6.5 -8.5q-56 -70 -56 -71l2 -1q2 -1 4 -1q15 -4 20 -16q2 -4 2.5 -7t0.5 -9q-1 -14 -13 -33q-9 -16 -22.5 -31.5t-39.5 -39.5q-10 -10 -16 -15.5t-9 -7.5t-5 -2h-1q-3 0 -5 1q-3 2 -5 5t-2 6t2.5 7t9.5 11.5t21 20.5q26 27 37 40
q9 12 14.5 23t5.5 16q0 2 -0.5 2.5t-2.5 1t-5 0.5q-4 0 -7.5 -0.5t-6.5 -0.5q-2 -1 -3.5 -2t-4 -3.5t-6.5 -7.5t-11.5 -13.5t-18.5 -22.5q-13 -16 -29.5 -37t-31.5 -39q-6 -7 -11 -14l-34 -42l3 -2q2 0 6.5 -1t10.5 -2q5 -1 9.5 -2t6.5 -2q2 -2 4 -5.5t2 -6.5t-2 -6.5
t-6 -5.5q-2 -1 -12.5 -3t-24.5 -5q-14 -2 -24 -4t-11 -3t-12.5 -14.5t-27.5 -33.5q-45 -57 -80 -101q-13 -16 -27 -32q-15 -19 -31 -39l-28 -35t-14 -17v-1h4q6 2 23 7q27 10 76.5 30.5t97 42.5t69.5 34q9 5 12 5.5t4 0.5q3 0 6 -3q5 -4 5 -10v-2q-1 -7 -9 -13
q-10 -7 -56.5 -29t-98.5 -44q-56 -25 -90.5 -36.5t-58.5 -15.5q-5 -1 -9 -2t-4 -2q-1 0 -8 -8.5t-17 -20.5q-26 -33 -49 -61.5t-28 -34.5q-7 -9 -15 -9q-4 0 -9 3zM514 759q12 14 29 35t32 40q14 18 24 30.5t10 13.5q-1 0 -10.5 -4.5t-21.5 -11t-20 -11.5q-43 -28 -67 -54.5
t-24 -42.5q0 -3 1 -5q0 -2 2 -5t4 -5q4 -4 8.5 -7t6.5 -4q1 1 8.5 9.5t17.5 21.5zM232 409q7 8 21 26q15 19 31 38q18 22 35 44q13 16 21 26q4 4 7 9q15 18 26 32t20 24.5t15 18.5t10.5 13.5t7 9t4 5.5t1.5 2.5v1t-1 0.5v-1h-1q-7 -1 -21.5 -7t-27.5 -12q-110 -55 -171 -143
q-22 -34 -25 -51t-3 -22q0 -19 11 -28q3 -2 9 -4t11 -2q2 0 4 1t5.5 5.5z" />
    <glyph glyph-name="quotesingle" unicode="'" horiz-adv-x="311" 
d="M107 1328q-2 1 -3 2.5t-2 2.5q-2 3 -2 6q0 2 1 4q3 6 11 15q9 10 26.5 27t33 31t20.5 17q3 1 6 1q5 0 9 -3t4 -8q0 -2 -1 -5q-1 -5 -5 -9t-8 -7q-3 -1 -14 -11.5t-26 -25.5q-15 -14 -25.5 -24.5t-12.5 -11.5q-3 -2 -6 -2t-6 1z" />
    <glyph glyph-name="parenleft" unicode="(" horiz-adv-x="965" 
d="M36 3q-10 4 -19.5 14t-13.5 20q-3 10 -3 27v8q0 23 5 45q29 123 152 369q87 175 179 315q131 201 270 357q26 30 74 77.5t74 71.5q69 60 121 93.5t73 33.5h2q10 -3 12.5 -9t2.5 -10q0 -5 -3 -11q-2 -2 -8.5 -6.5t-15 -8.5t-15.5 -6q-17 -5 -59.5 -37t-90.5 -76
q-299 -278 -538 -723q-86 -162 -138 -288t-57 -184q-1 -5 -1 -9q0 -18 11 -25q18 -13 18 -22q0 -12 -9 -16q-4 -2 -10 -2t-13 2z" />
    <glyph glyph-name="parenright" unicode=")" horiz-adv-x="933" 
d="M7 0q-3 2 -5 5.5t-2 6.5v3q0 4 4 8.5t8 6.5q30 16 147 132.5t242 256.5q11 12 20 22t11 12q5 6 24.5 29t41.5 49.5t34 41.5q152 192 261 421q81 170 101 271q4 24 5 36t1 19q0 13 -1 28q-1 22 -4 34t-7 17q-2 2 -3 2.5t-3 0.5h-6h-8q-3 0 -6 3q-5 5 -5 11q0 4 3 9
q7 9 24 9q30 -1 39.5 -36.5t9.5 -67.5q0 -28 -5 -61q-16 -108 -108 -296q-116 -243 -280 -445q-97 -119 -250.5 -280.5t-232.5 -228.5q-26 -20 -42 -20q-4 0 -8 1z" />
    <glyph glyph-name="asterisk" unicode="*" horiz-adv-x="407" 
d="M137 1204q-5 2 -6.5 5.5t-1.5 7.5v3q1 5 5.5 14.5t11.5 19.5q2 5 3.5 7.5t1.5 3.5v1l-5 -2q-5 -2 -10.5 -5.5t-10.5 -6.5q-7 -4 -12 -4h-4q-7 1 -9 9v3q0 3 1 6q3 4 12 9.5t26 14.5l22 11h-18l-18 -1l-4 4q-4 5 -4 9q0 5 4 8q1 2 2.5 3t5 1t9.5 1q54 3 56 4v1q0 2 -2 7
q-2 7 -6 17.5t-8 20.5t-7 16t-3 11t3 8q4 5 9 5q3 0 6 -1q2 -1 4.5 -4t5.5 -10.5l9 -22.5q3 -8 5 -13t3 -7t2 -2l1 2q1 1 6.5 8.5t13.5 18.5t15.5 21t10.5 15q6 8 9.5 10.5t7.5 2.5h2q5 -1 7.5 -5t2.5 -7q0 -2 -1 -4q0 -2 -8.5 -14.5t-20.5 -29.5t-20 -28.5t-8 -12.5
q1 0 4 1t7 2q5 2 7.5 2.5t4 0t4.5 -0.5q2 -1 3.5 -1h3.5h3q3 0 10 1q8 2 13 2q6 0 8 -2q6 -2 6 -10q0 -11 -16 -15q-7 -2 -18 -4t-20 -2q-2 0 -5 -0.5t-4 -0.5l-4 -2l7 -10q6 -9 7 -15q1 -1 1 -3q0 -1 -1 -2t-3 -4q-4 -4 -8 -4q-10 0 -22 18q-4 6 -5 8l-1 1h-2q-2 -1 -5 -2
q-3 -2 -5.5 -3t-4.5 -4l-6 -9q-20 -31 -32 -53q-7 -13 -11 -16t-7 -3q-2 0 -5 1z" />
    <glyph glyph-name="plus" unicode="+" horiz-adv-x="407" 
d="M132 523q-4 4 -4 8q0 6 5 12q3 5 11 17.5t18 27.5t17 26.5t7 12.5t-9 1q-8 0 -26 -1h-9q-11 -1 -17.5 -1h-10.5t-5.5 0.5t-2.5 1t-2 1.5l-1 1q-3 4 -3 9v2q1 6 7 9q2 1 6 1.5t13 1t26 0.5t30.5 0.5t16.5 0.5l7 1l13 21q5 7 8 11.5t4 7t1.5 3.5t0.5 2t-1 2q0 4 0.5 6
t3.5 6q3 5 9 10.5t10 8.5q4 2 8 2h2q6 -1 9 -6q1 -3 1 -6v-4q-1 -5 -7 -16t-20 -32q-1 -1 -1 -3q-4 -5 -6.5 -8.5t-2.5 -4.5h6q6 0 15 -1q34 -1 42 -7q6 -5 5.5 -11t-6.5 -10q-3 -1 -5 -1h-5h-7q-5 1 -15.5 1.5t-21.5 0.5l-25 1l-10 -15q-4 -6 -11.5 -18t-15.5 -24
q-10 -16 -15.5 -24.5t-9 -13t-7.5 -8.5q-6 -6 -12 -6q-4 0 -8 4z" />
    <glyph glyph-name="comma" unicode="," horiz-adv-x="414" 
d="M105 453q-5 5 -5 10q0 3 1 5q2 4 20 19q37 28 54 48q7 7 9 10.5t2 5.5v1q-1 3 -6 7q-3 3 -4 5t-1.5 3.5t-0.5 3.5q1 9 10 12q2 1 4 1q7 0 16 -10q10 -11 10 -23q0 -13 -12 -27q-9 -11 -24.5 -26t-31 -28t-24.5 -17q-6 -3 -10 -3t-7 3z" />
    <glyph glyph-name="hyphen" unicode="-" horiz-adv-x="445" 
d="M106 610q-6 5 -6 11q0 3 1 6t3.5 5t10 3t24 2t44.5 2q53 2 81.5 3.5t41.5 2.5q6 1 12.5 2t9.5 1h4q9 0 12 -7q1 -2 1.5 -3.5t0.5 -2.5l-1 -3q-2 -4 -6.5 -7t-14.5 -5q-9 -2 -23.5 -3.5t-46.5 -2.5t-94 -2q-19 -1 -28 -1.5t-11 -1.5q-4 -2 -7 -2q-4 0 -8 3z" />
    <glyph glyph-name="hyphen" unicode="&#xad;" horiz-adv-x="445" 
d="M106 610q-6 5 -6 11q0 3 1 6t3.5 5t10 3t24 2t44.5 2q53 2 81.5 3.5t41.5 2.5q6 1 12.5 2t9.5 1h4q9 0 12 -7q1 -2 1.5 -3.5t0.5 -2.5l-1 -3q-2 -4 -6.5 -7t-14.5 -5q-9 -2 -23.5 -3.5t-46.5 -2.5t-94 -2q-19 -1 -28 -1.5t-11 -1.5q-4 -2 -7 -2q-4 0 -8 3z" />
    <glyph glyph-name="period" unicode="." horiz-adv-x="346" 
d="M107 538q-7 4 -7 13q0 14 9 19.5t17 5.5h3q11 -1 16 -10q1 -3 1 -5q0 -6 -4 -12q-3 -4 -9.5 -7.5t-11 -4t-6.5 -0.5q-5 0 -8 1z" />
    <glyph glyph-name="slash" unicode="/" horiz-adv-x="922" 
d="M20 0q-4 -2 -8 -2t-8 2q-4 4 -4 10v4q23 44 108.5 176.5t203.5 312.5q171 261 336.5 518.5t239.5 395.5q7 17 13 19t8 2q5 0 9 -4q5 -4 5 -11q0 -2 -1 -4q-90 -162 -304.5 -497t-401.5 -620q-151 -231 -187 -289q-2 -9 -9 -13z" />
    <glyph glyph-name="zero" unicode="0" horiz-adv-x="545" 
d="M86 327q-55 13 -71 70q-5 21 -5 44q0 50 23 111q34 90 103 178t156 147q57 38 113 50q10 2 16 2h18q15 -1 24.5 -3.5t18.5 -6.5q53 -30 53 -105q0 -34 -11 -77q-34 -115 -123.5 -224t-192.5 -162q-30 -15 -58 -22q-14 -3 -26 -3.5t-16 -0.5q-14 0 -22 2zM133 357
q28 5 64 22q104 54 200 178q59 80 83.5 147t24.5 108q0 18 -4 34q-5 22 -18 34q-17 18 -46 18h-9q-39 -2 -86 -27q-103 -56 -187.5 -166.5t-109.5 -218.5q-5 -26 -5 -46q0 -45 22 -67q18 -18 49 -18q10 0 22 2z" />
    <glyph glyph-name="one" unicode="1" horiz-adv-x="333" 
d="M-41 363q-7 3 -8 7.5t-1 6.5q0 6 4 11q8 11 47 57.5t93 110t107 124.5q80 93 112 134q14 18 19.5 25.5t5.5 9.5l-5 -2q-5 -2 -12 -5q-44 -20 -88 -37.5t-63 -23.5q-13 -4 -20.5 -4h-10.5q-7 0 -12 2q-9 6 -9 11v6q0 8 8 12q4 2 8 2h3q5 0 9 -3q2 -1 3.5 -1.5t3.5 -0.5
t6 1q40 12 174 75q13 6 20.5 9t11.5 3q5 0 8 -2q10 -5 10 -17q0 -7 -4 -17q-14 -28 -71 -98q-10 -13 -18.5 -23t-22 -25.5t-38.5 -44.5l-3 -3q-84 -97 -158.5 -185.5t-87.5 -105.5q-7 -10 -15 -10q-3 0 -6 1z" />
    <glyph glyph-name="two" unicode="2" horiz-adv-x="486" 
d="M17 372q-2 1 -3.5 3t-2.5 3q-1 3 -1 8q0 4 1 7q1 2 12 9.5t26 18.5q86 57 144 104t109 99q116 120 138 184q5 13 5 22q0 21 -26 23q-5 1 -11 1q-37 0 -99 -30q-73 -37 -124.5 -83.5t-62.5 -86.5q-1 -4 -1 -8q0 -13 15 -19q5 -3 7.5 -5t3.5 -4q1 -3 1 -6q0 -5 -4 -9
q-4 -3 -10 -3t-15 3q-8 4 -12.5 8.5t-8.5 11.5q-5 11 -5 24q0 22 16 50q25 43 83 90q96 74 185 94q15 3 25.5 3h14.5q11 0 18 -2q41 -13 41 -52q0 -5 -1 -10q-12 -79 -165 -231q-80 -81 -179 -149l-29 -22l11 2q10 1 28 1q17 0 42 -1q49 0 97 -3t66 -6q17 -3 21.5 -10
t4.5 -11q0 -5 -4 -10q-3 -4 -6 -4h-5q-4 0 -10 2q-5 2 -14 3.5t-26.5 2.5t-49.5 3q-60 3 -96 3q-22 0 -35 -1q-52 -4 -90 -17q-7 -2 -11 -2t-8 2z" />
    <glyph glyph-name="three" unicode="3" horiz-adv-x="493" 
d="M119 361q-10 1 -24 4t-24 6q-43 16 -56 45q-5 11 -5 23q0 26 24 58q8 11 12 14t8 3q2 0 4 -1t4 -2.5t2 -2.5q3 -3 3 -6q0 -2 -1 -4q-2 -6 -9 -19q-12 -19 -14 -27t-2 -13t1 -10q18 -33 93 -39h6q56 0 124 33q61 30 97.5 72.5t36.5 77.5v4q-2 24 -23 40q-22 17 -64 25
q-17 2 -52 2t-58 -3t-36 -4.5t-17.5 -1.5h-6.5q-4 0 -6 1q-3 1 -5 3q-5 6 -5 12q0 7 8 15q4 3 32 22.5t68 46.5q40 26 72 47.5t41 28.5q27 19 44 33.5t17 18.5q0 1 -10 1t-34 -1.5t-69 -5.5q-40 -3 -66 -3t-39 3q-19 8 -19 20q0 4 1 7q5 10 15 10q4 0 6 -1.5t5 -5.5l5 -5h28
q16 0 32 1t43 4q42 4 62 5.5t30 1.5h9q12 0 18 -3q18 -8 18 -23q0 -7 -3 -14q-8 -15 -39 -41q-12 -9 -24.5 -18.5t-35.5 -25t-67 -44.5q-34 -23 -56.5 -38t-22.5 -16q1 0 4.5 0.5t8.5 0.5q17 2 33 3t26 1q9 0 17 -1q69 -5 107 -31.5t38 -71.5q-3 -61 -66.5 -119.5
t-154.5 -83.5q-34 -9 -67 -9q-11 0 -22 1z" />
    <glyph glyph-name="four" unicode="4" horiz-adv-x="541" 
d="M72 342q-3 1 -5 4.5t-2 7.5q0 5 3.5 11.5t7.5 9.5q1 1 2.5 3t3.5 3q2 2 9 10.5t16 19.5q13 16 46 56t66 79.5t46 54.5q6 6 8.5 9.5t3.5 5t1 2.5t-2 1q-9 0 -54 -7.5t-101 -19.5q-29 -6 -44.5 -9t-23.5 -4t-15 -1q-6 0 -9 0.5t-7 3.5q-12 6 -12 19q0 7 4 16t15.5 23.5
t39 44.5t79.5 86q20 22 38 41t24 26l15 16l-1 5v2q0 8 11 20q4 5 11 11t13.5 11.5t10.5 7.5q5 2 9 2q8 0 12 -9q1 -2 1 -4t-1 -5q-3 -6 -11.5 -17t-25.5 -30q-13 -16 -35.5 -41t-35.5 -39q-9 -10 -26.5 -28.5t-34.5 -37t-24 -25.5q-27 -30 -42.5 -49.5t-15.5 -21.5h2
q9 0 63 11q50 10 79.5 16t55.5 9q16 3 35.5 5t25.5 2h5l30 34q145 168 168 201q5 7 8 9.5t7 2.5q8 0 11 -7q1 -2 1 -5q0 -4 -3 -9q-8 -11 -37 -47.5t-66 -81.5t-69 -81l-13 -16h8q32 -1 60.5 -3.5t34.5 -4.5q5 -4 5.5 -7.5t0.5 -4.5q0 -5 -3 -9q-2 -2 -3.5 -3t-3.5 -1h-5
q-4 0 -12 0.5t-17 1.5q-10 1 -25.5 2t-30.5 1l-33 1l-25 -30q-24 -27 -63 -74t-76 -91.5t-55 -67.5q-5 -6 -9.5 -11t-5.5 -5q-4 -2 -8 -2q-2 0 -5 1z" />
    <glyph glyph-name="five" unicode="5" horiz-adv-x="462" 
d="M52 355q-57 13 -79 73q-1 5 -2 8.5t-1 8v13.5v12.5t0.5 7.5t2.5 8q4 10 8.5 17t12.5 15q7 8 10 9t4 1q4 0 7 -1q4 -2 5 -5t1 -6v-3q0 -1 -2.5 -5t-5.5 -7q-6 -9 -9.5 -15.5t-5.5 -12.5q-2 -7 -2 -15q0 -17 10 -36q5 -10 15 -20t19 -14q9 -5 19 -6.5t27 -1.5q115 8 210 99
q56 56 66 109q2 9 2 16q0 34 -28 54q-29 21 -80 21q-9 0 -18 -1q-76 -5 -181 -43q-22 -7 -29 -8.5t-11 -1.5q-3 0 -6 1q-5 4 -6 8t-1 6q0 5 2 10q10 21 145 160q33 34 51 53q10 11 10 12q5 11 20.5 13t34.5 2q16 0 31 1q24 2 68.5 5t75.5 5q13 1 23 1q30 0 38 -5
q6 -3 7.5 -7t1.5 -6q0 -3 -2 -7q-5 -7 -12 -7q-3 0 -8 2q-3 1 -7 1.5t-9 0.5q-4 0 -11 -1q-17 0 -52.5 -1.5t-76.5 -3.5q-13 -1 -28.5 -2t-26.5 -2q-13 0 -23 -1q-15 -1 -22.5 -6t-14.5 -14q-4 -5 -10 -10q-14 -15 -88 -93q-16 -18 -32 -35t-26.5 -28.5t-10.5 -12.5
q1 0 5.5 1.5t12.5 3.5q114 38 188 38q9 0 17 -1q14 -2 24.5 -4t20.5 -5q53 -19 68 -66q3 -11 3 -27q0 -17 -3 -30q-15 -57 -71 -113q-9 -9 -18 -17t-14 -13q-81 -63 -174 -76q-13 -2 -31 -2q-19 0 -28 2z" />
    <glyph glyph-name="six" unicode="6" horiz-adv-x="501" 
d="M79 328q-6 1 -14.5 4t-13.5 7q-18 11 -29 31q-12 22 -12 55q0 61 45 160q4 8 6 12.5t2 6.5t-1 3q-1 2 -1 4q0 5 3 10q4 7 12 12q4 2 11 16q19 34 43 70t47 62q62 70 131 110q24 15 53 25t51 10h8q38 -4 54.5 -23t16.5 -38q0 -15 -8 -34q-14 -27 -25 -27q-4 0 -7.5 2
t-4.5 6q-1 2 -1 5q0 6 6 14q5 6 8.5 13t4.5 13v4q0 20 -17 27q-18 7 -40 7h-5q-25 -2 -41 -8q-97 -41 -187 -157q-11 -15 -23.5 -33.5t-21 -32.5t-8.5 -15h14q24 3 46 3q45 0 80 -11q54 -17 72 -52q5 -10 6.5 -18t1.5 -20q-2 -63 -71 -133q-74 -72 -149 -88q-8 -2 -18 -2
h-15h-9zM113 358q30 5 67.5 27.5t69.5 53.5q41 42 51 70.5t10 43.5q0 18 -9 31q-17 20 -51 29t-70 9q-11 0 -22 -1q-16 -1 -32 -3t-22 -4q-5 -1 -24 -45q-29 -65 -38 -107q-3 -17 -3 -27.5v-15.5q0 -12 2 -20q12 -42 55 -42q7 0 16 1z" />
    <glyph glyph-name="seven" unicode="7" horiz-adv-x="569" 
d="M20 337q-4 2 -7 6.5t-3 9.5q0 4 1.5 7.5t6.5 10.5t16.5 20.5t32.5 35.5q64 74 123 136l10.5 12t3.5 5l1 1l-2 -1q-5 -1 -19 -2.5t-29.5 -3.5t-25.5 -3q-9 0 -16 -1t-10 -2h-5q-2 0 -4 1q-8 4 -9 8.5t-1 5.5q0 6 4 10q1 2 3 2.5t6 1t13 1.5q14 0 32 2.5t58 8.5l39 6l61 59
q26 26 62.5 62t66.5 65q13 14 24 24t19 18l13.5 13.5l9.5 9.5l6 6l3 3v1q-45 -15 -102 -31t-99 -24q-63 -12 -102 -12q-46 0 -59 17q-2 5 -2 9q0 3 1 6q4 7 12 7q10 0 15 -7q3 -2 10 -2.5t14 -0.5h17q96 4 294 70q29 10 39 10q11 0 15 -11q2 -3 2 -4.5v-2.5t-1 -4
q0 -3 -2 -6.5t-3 -5.5q-16 -20 -181 -181q-35 -34 -58 -57l-24 -24q1 0 7.5 0.5t16.5 1.5q43 5 66 5h12q22 -3 26 -16q1 -3 1 -5q0 -6 -5 -10q-4 -3 -10 -3q-3 0 -7 1q-5 3 -17 3q-7 0 -15 -1q-26 -1 -79 -7l-30 -4l-6 -5q-4 -5 -20.5 -22t-35 -36.5t-29.5 -32.5
q-31 -33 -59.5 -65t-47 -54t-19.5 -25t-4.5 -6.5t-6.5 -4.5h-4t-4 1z" />
    <glyph glyph-name="eight" unicode="8" horiz-adv-x="432" 
d="M-94 329q-40 7 -53 31q-2 3 -2.5 6.5t-0.5 11.5v9t1.5 6l4.5 9q12 26 53.5 58t130.5 85q62 37 97.5 58t55.5 33.5t36 23.5l13 9l-2 6q-12 28 -35 70q-17 31 -23 46.5t-6 28.5q0 31 26 55q22 22 50 36.5t55 14.5h7q33 -4 59 -17q11 -5 16.5 -9t11.5 -9q21 -20 21 -52
q0 -38 -36 -80q-16 -19 -44 -46t-53 -47q-11 -8 -11 -10q6 -17 7.5 -35t1.5 -28q0 -14 -2 -26q-17 -88 -123 -160q-61 -39 -127 -59t-110 -20q-10 0 -19 1zM292 708q27 23 51.5 49t35.5 45q13 21 13 38q0 12 -7 23q-5 7 -16 14t-23 11q-9 4 -14 4t-12 -6q-5 -6 -9.5 -7.5
t-6.5 -1.5q-4 0 -10 5q-8 8 -16 8q-2 0 -5 -1q-11 -4 -25 -14q-1 -1 -2 -1q-26 -19 -35 -35q-2 -4 -3 -7.5t-1 -11.5q0 -9 4 -19.5t16 -32.5q10 -18 21.5 -40t15.5 -32l3 -8l3 3q2 1 6.5 4.5t10.5 8.5q2 2 5 4zM-34 362q42 7 88.5 25t83.5 41q25 15 48 35.5t37 39.5
q33 43 33 89v10q0 12 -1.5 22.5t-3.5 12.5q-1 0 -6.5 -3.5t-13.5 -8.5q-21 -14 -53 -33.5t-85 -50.5l-78 -46.5t-44 -28.5q-92 -62 -92 -89q0 -3 4.5 -7t10.5 -7q13 -5 33 -5q17 0 39 4z" />
    <glyph glyph-name="nine" unicode="9" horiz-adv-x="458" 
d="M99 321q-4 3 -6 6.5t-2 7.5v3q1 12 112 159q59 79 110.5 145.5t121.5 154.5q3 3 3 4q-1 0 -8 -5.5t-24 -19.5q-116 -95 -213 -160q-102 -69 -144 -69h-1q-27 0 -36 26q-2 5 -2 13v6q1 12 4 23q24 73 104 169q45 53 94.5 92t85.5 51q24 8 44 8q23 0 43 -10q30 -17 30 -41
q0 -3 -1 -7q-1 -8 -4.5 -16t-7.5 -10q-2 -2 -6 -2h-2q-5 0 -8 2q-4 3 -4 9q0 5 2 11q3 8 3 12v2q0 4 -6 8q-16 13 -39 13q-14 0 -31 -5q-47 -16 -118 -82q-59 -57 -103 -122.5t-50 -105.5v-7.5t2 -3.5q1 -2 2.5 -2h3.5h4q61 7 280 178q119 92 174 150q13 13 20 19.5
t10.5 7.5t5.5 1t4 -1q8 -3 10 -8t2 -8q0 -4 -2 -9q-3 -9 -25.5 -38.5t-76.5 -97.5q-79 -100 -126.5 -161t-107.5 -140q-85 -114 -98 -139q-7 -13 -16 -13q-3 0 -7 2z" />
    <glyph glyph-name="colon" unicode=":" horiz-adv-x="289" 
d="M150 797q-7 4 -7 12q0 15 9 20.5t17 5.5h3q11 -1 15 -10q2 -4 2 -7q0 -5 -4 -10q-3 -4 -9.5 -7.5t-11.5 -4t-7 -0.5q-4 0 -7 1zM107 538q-7 4 -7 13q0 14 9 19.5t18 5.5h3q10 -1 15 -10q1 -3 1 -6q0 -5 -3 -11q-3 -4 -9.5 -7.5t-11.5 -4t-7 -0.5q-5 0 -8 1z" />
    <glyph glyph-name="semicolon" unicode=";" horiz-adv-x="349" 
d="M210 797q-7 4 -7 12q0 15 8.5 20.5t17.5 5.5h3q11 -1 15 -10q2 -4 2 -7q0 -5 -4 -10q-3 -4 -9.5 -7.5t-11.5 -4t-7 -0.5q-4 0 -7 1zM105 453q-5 5 -5 10q0 3 1 5q2 4 20 19q37 28 54 48q7 7 9 10.5t2 5.5v1q-1 3 -5 7q-4 3 -5 5t-1 4v3q1 9 9 12q2 1 4 1q8 0 16 -10
q10 -11 10 -23q0 -13 -12 -27q-9 -11 -24.5 -26t-31 -28t-24.5 -17q-6 -3 -10 -3t-7 3z" />
    <glyph glyph-name="less" unicode="&#x3c;" horiz-adv-x="382" 
d="M151 518q-2 2 -3 5t-2 7q-1 15 -6.5 28t-22.5 38q-6 10 -10.5 18t-5.5 10q-1 3 -1 5q0 11 17 21q4 2 19 11t34 21q5 4 10 7q16 10 28.5 18t16.5 10q5 3 9 6t5 4q2 2 6 4.5t9 4.5q7 4 10 5t4 1l3 -1q4 -1 7.5 -5t3.5 -8q0 -3 -2 -6.5t-8.5 -8.5t-19.5 -13
q-12 -8 -32 -20.5t-38 -24.5q-18 -11 -30.5 -19.5t-13.5 -9.5q-2 0 -2 -1t1.5 -3.5t5.5 -8.5q17 -26 24 -41t9 -31q1 -6 1 -9v-4.5t-1 -4.5q-4 -7 -8.5 -8t-5.5 -1q-6 0 -11 4z" />
    <glyph glyph-name="equal" unicode="=" horiz-adv-x="407" 
d="M111 564q-6 3 -6.5 6.5t-0.5 4.5q0 5 4 9q1 2 2.5 2.5t3.5 1t6 0.5q42 3 80.5 7t52.5 7l12 1.5t6.5 0t4.5 -2.5q3 -2 3.5 -3.5t0.5 -5.5t-2 -7t-8 -6q-7 -4 -28 -7t-72 -6q-36 -3 -50 -3q-7 0 -9 1zM104 662q-4 4 -4 9q0 3 2 6q1 3 3 4.5t8 2t18 1t33 0.5q83 2 112 5
q13 2 18.5 1.5t8.5 -2.5q4 -4 4 -8q0 -3 -2 -6q-2 -6 -14.5 -9.5t-43.5 -4.5t-86 -2h-54z" />
    <glyph glyph-name="greater" unicode="&#x3e;" horiz-adv-x="330" 
d="M108 519q-5 2 -6.5 5t-1.5 7t1.5 8t7.5 10t18.5 16t32.5 27q13 10 23 18.5t12 10.5l4 4l-3 6q-1 3 -5 12.5t-9 20.5q-9 22 -14.5 31.5t-13.5 16.5q-7 5 -8.5 8.5t-1.5 5.5q0 3 1 5q3 7 7 7.5t5 0.5q6 0 13 -5q10 -6 19 -20t21 -41q3 -8 7 -16.5t7 -14.5q6 -11 5.5 -20
t-13 -21.5t-41.5 -35.5q-12 -11 -23.5 -20.5t-16.5 -14.5q-16 -13 -22 -13q-1 0 -2.5 0.5t-2.5 1.5z" />
    <glyph glyph-name="question" unicode="?" horiz-adv-x="668" 
d="M10 276q-4 2 -7 7.5t-3 9.5q0 5 4 12.5t9 12.5q7 6 13 6q3 0 5 -1q18 -10 18 -21q0 -6 -6 -14t-13 -12q-4 -3 -10 -3q-5 0 -10 3zM79 429q-16 6 -16 24q0 5 1 11q6 18 30.5 57t56.5 82.5t61 75.5q35 40 84 81.5t151 119.5q22 18 42.5 34t29.5 23q120 95 120 136v2
q0 16 -22 24q-21 7 -52 7q-19 0 -43 -3q-62 -8 -132 -32q-105 -36 -187 -91q-115 -77 -128 -144v-9t1 -9q7 -33 38 -39q4 0 7 -1t4 -2q5 -4 5 -11q0 -6 -6 -10q-3 -1 -8 -1t-11 1q-13 3 -24 10t-19.5 20.5t-11.5 26.5q-1 7 -1 15v8q1 13 3 22q16 47 68 95q78 71 198 122
q142 60 246 60q76 0 95 -31q9 -13 9 -28q0 -42 -63 -102q-20 -20 -48 -43t-77 -60q-98 -75 -128 -100q-57 -46 -95 -84.5t-74 -86.5q-31 -40 -58 -82t-33 -59v-5q0 -1 2 -5q2 -2 2.5 -4t0.5 -5q-1 -6 -5 -8.5t-8 -2.5q-2 0 -5 1z" />
    <glyph glyph-name="at" unicode="@" horiz-adv-x="576" 
d="M187 419q-65 14 -84 86q-3 12 -3 28v25v16q8 68 45 128q49 78 123 117q37 19 75 19h7q39 -1 70 -18q32 -16 47 -45q6 -12 7.5 -21.5t1.5 -25.5q0 -13 -0.5 -19t-2.5 -14q-14 -47 -52 -86q-27 -27 -51 -39.5t-41 -12.5q-4 0 -7 1q-23 6 -26 27v5l-1 2l-4 -2q-4 -3 -10 -6
q-43 -26 -66 -28h-8q-3 1 -7 3q-14 8 -14 24q0 21 24 54q8 10 19 21.5t20 18.5q28 21 54 21q6 0 12 -1q24 -6 30 -21q1 -2 2 -3.5t2 -1.5q5 0 9 -5t4 -9v-2q-1 -2 -4.5 -6.5t-9.5 -10.5q-20 -21 -25 -40q-1 -3 -1 -6q0 -7 7 -7q3 0 7 1q25 6 55 34t46 61q11 25 11 47
q0 18 -7 34q-3 7 -12 16.5t-18 14.5q-8 5 -20.5 9t-24.5 6q-10 2 -21 2q-64 0 -130 -65q-65 -64 -83 -154q-3 -17 -3.5 -30.5t-0.5 -19.5q0 -12 1 -21q6 -34 25 -53q20 -21 54 -21q19 0 40.5 9t52.5 30q23 17 39 30t16 16q0 1 1 2.5t3 3.5t4 3t6 1q5 0 7 -1t4 -4q5 -5 5 -10
q0 -6 -5 -12q-6 -8 -25.5 -23.5t-42.5 -31t-38 -24.5q-35 -18 -67 -18q-11 0 -21 2zM232 590q37 17 72 46l14 12l2 8q1 5 1 8v2q-4 4 -9.5 4.5t-8.5 0.5q-7 0 -14 -2q-15 -5 -31.5 -20t-29.5 -35q-5 -8 -9 -16t-4 -11q0 -1 2 -1h2q3 0 13 4z" />
    <glyph glyph-name="A" unicode="A" horiz-adv-x="726" 
d="M42 1q-8 4 -8 12q0 3 1 6q1 5 16 27t54.5 73.5t113.5 147.5q52 66 95.5 122.5t131.5 171.5l21 26q109 143 292 376q44 56 68 87t34 43l9 12h-3q-8 0 -45 -3q-46 -3 -119 -9q-13 -1 -28 -2q-42 -4 -70 -6q-19 -2 -46 -4t-50 -4q-23 -1 -39 -2.5t-17 -1.5
q-6 -3 -39.5 -34.5t-74.5 -72t-68 -70.5q-47 -51 -120.5 -145t-139 -191t-85.5 -158v-2q1 0 4 2q6 4 10 4q2 0 4 -1q7 -3 7 -10q0 -3 -1 -4.5t-4 -4.5q-15 -14 -31 -14q-15 0 -15 21v3q7 40 53 114.5t108 159.5t118.5 155.5t84.5 100.5q23 25 59.5 61.5t61.5 59.5
q10 9 17 16l6 6q-1 0 -10.5 -0.5t-23.5 -1.5q-60 -3 -96 -4.5t-49 -1.5h-9q-5 1 -7.5 4t-2.5 7q0 8 5.5 10t24.5 2q16 1 46.5 2.5t90.5 6.5q26 2 43.5 3.5t18.5 1.5t5 3t10 8q128 111 259 194.5t227 115.5q43 15 75 15q33 0 46 -16q7 -7 9 -13t2 -20v-11t-1 -8t-4 -11
q-17 -56 -120 -192l-15 -20l-6 -9h53q22 1 39 1h21q4 -1 11 -1q3 -1 6 -1q9 -1 13 -3t6 -7q1 -3 1 -4v-2.5t-1 -3.5q-2 -3 -7 -6q-1 -1 -3 -1h-4.5t-6.5 1q-12 2 -42 2q-31 0 -67 -1l-40 -1l-4 -5q-2 -3 -17 -21.5t-35 -44.5l-49 -63t-50 -64q-154 -195 -290 -372
q-73 -96 -124.5 -162.5t-122.5 -158.5q-100 -128 -126 -164q-5 -7 -8 -11t-4 -6t-1 -3v-2v-1q0 -5 -1 -8t-6 -8q-11 -13 -20 -13q-3 0 -5 1zM550 1106q23 2 55.5 4.5l58.5 4.5q145 13 190 15q10 1 18.5 1.5t12.5 0.5l7 1l30 40q106 140 121 190q2 7 3 11t1 11q0 9 -2 13
t-9 7q-3 2 -6.5 2.5t-10.5 0.5q-90 0 -288 -123q-113 -72 -222 -163q-4 -3 -7 -6q-7 -5 -11 -8.5t-5 -4.5v-2h3q1 1 2 1q4 0 22 1q17 2 37 3z" />
    <glyph glyph-name="B" unicode="B" horiz-adv-x="934" 
d="M51 2q-11 2 -22 7.5t-19 12.5q-22 22 -22 53q1 54 59 129t163 158q47 37 106 77q107 72 286 162q108 55 146 65q4 1 7 2q4 1 6 1l1 2v14q-3 54 -31 94q-17 27 -45 47t-78 41q-28 12 -41 20.5t-17 18.5q-3 7 -3 15q0 25 32 58q14 14 49 43.5t119 96.5q125 100 195 164
q23 20 51.5 48.5t39.5 43.5q9 10 13.5 17.5t4.5 8.5v1l-6 -1q-6 -2 -13 -4t-13 -5q-116 -48 -340 -230q-15 -12 -27.5 -22.5t-15.5 -14.5q-8 -8 -21 -30q-30 -49 -89.5 -135.5t-127.5 -180.5q-174 -238 -307 -393q-67 -78 -104.5 -112t-57.5 -34h-1q-28 1 -28 32q0 7 2 16
q13 59 77 162.5t161 222.5q191 232 445 452q9 8 16 14t8 8q2 3 11.5 18.5t21 34.5t18.5 32t15 29l14 28t6 14q0 4 2 8.5t6 7.5q5 4 9 4q3 0 5 -1q7 -2 9 -10q1 -3 1 -6q0 -2 -2 -8q-3 -10 -12.5 -30.5t-20.5 -39.5q-4 -9 -7 -14.5t-3 -6.5l7 5q7 5 18 14q38 30 84 63.5
t82 57.5q105 70 162 84q12 3 21 3q12 0 19 -5q11 -7 11 -20t-11 -31q-31 -49 -145 -149q-37 -33 -80.5 -69t-135.5 -109q-48 -39 -74 -61.5t-39 -35.5q-21 -22 -21 -31q0 -5 6 -9.5t24 -11.5q53 -23 80 -39.5t46 -37.5q46 -49 56 -117q2 -15 2 -30q0 -39 -13 -82
q-26 -84 -100 -178q-98 -123 -239 -233.5t-262 -161.5q-58 -23 -103 -23q-14 0 -26 2zM-54 282q17 13 52 49t75 83q160 189 359 468q45 64 77.5 112t32.5 49q-3 0 -36 -31t-75 -72.5t-76 -75.5q-148 -152 -257.5 -297.5t-151.5 -248.5q-7 -18 -10 -28t-3 -13q0 -2 1 -2l4 2
q3 2 8 5zM94 33q54 7 130 46q112 60 231 157q214 180 282 333q5 12 9.5 26.5t7 24t2.5 12.5v1h-1q-5 0 -20 -6q-19 -7 -47 -20q-48 -22 -115.5 -57t-119.5 -65q-155 -88 -265 -182t-151 -173q-8 -15 -11.5 -27t-4.5 -24q0 -8 0.5 -12.5t2.5 -9.5q11 -25 52 -25q9 0 18 1z
" />
    <glyph glyph-name="C" unicode="C" horiz-adv-x="961" 
d="M91 1q-119 15 -165 103q-26 50 -26 117q0 131 99 328q161 318 451 582q129 116 255.5 192.5t230.5 101.5q21 5 37 7t36 2q21 0 34 -2.5t26 -8.5q9 -5 19 -14.5t15 -18.5q8 -16 8 -36q0 -37 -29 -86q-49 -87 -190 -198q-10 -9 -18 -15.5t-10 -7.5q-3 -2 -7 -2q-3 0 -6 1
q-7 2 -9 8q-1 2 -1 4q0 3 2 6q2 5 12 13q5 4 13 10.5t15 13.5q67 56 105 97q91 100 91 155q0 5 -1 9q-5 34 -54 40q-7 1 -15 1q-49 0 -124 -27q-139 -51 -295 -170.5t-301 -284.5q-132 -153 -224 -316t-122 -296q-10 -43 -10 -86q0 -20 1.5 -34t5.5 -30q34 -127 191 -127
q135 0 339 99q70 35 158 87.5t142 90.5q10 7 14.5 11t8.5 9q6 8 13 8q5 0 11 -6q3 -2 4 -3.5t1 -2.5l-1 -4q0 -7 -4.5 -14t-18.5 -17.5t-41 -28.5q-65 -43 -141 -87t-139 -75q-153 -76 -279 -95q-13 -2 -26 -3t-34 -1q-16 0 -29 0.5t-18 0.5z" />
    <glyph glyph-name="D" unicode="D" horiz-adv-x="1328" 
d="M334 34q-33 4 -56.5 9t-48.5 14q-92 32 -172 100l-10 8l-12 -11q-57 -55 -92 -55q-4 0 -8 1q-21 2 -31 24q-3 8 -3.5 19.5t-0.5 15.5q0 13 2 26q9 50 39 118q4 11 6.5 16.5t3 9t0.5 8.5v6q0 13 3 29q3 19 8 32q4 8 8.5 9.5t6.5 1.5q6 0 10 -4q2 -2 4 -2h1q2 1 6 9
q17 31 48 80.5t59 90.5q251 360 548 603q6 4 9.5 8t8.5 13t14 28q12 24 18 37t7.5 17t1.5 5q0 2 -1 3q-2 4 -2 8q0 7 5 14q10 14 21 14q4 0 9 -2q8 -5 8 -17q0 -4 -1 -9q-2 -9 -8.5 -26t-12.5 -28l-1.5 -4.5t-0.5 -2.5v-1l5 3q5 3 12 8q122 84 229 119q69 22 128 22
q36 0 67 -8q83 -23 124 -97q33 -56 35 -141v-14q0 -214 -151 -493q-140 -252 -338 -412q-211 -166 -412 -198q-11 -1 -30.5 -2.5t-33 -1.5h-19.5h-10zM66 240q159 185 426 649q26 45 54.5 96.5t49 88.5t20.5 39q-1 0 -11 -9t-24.5 -22t-27.5 -25q-114 -108 -226 -237
q-211 -251 -325 -471l-13 -27l3 -13q3 -12 11.5 -30t18.5 -31q4 -7 9.5 -13.5t9.5 -11t5 -4.5t6.5 6t13.5 15zM-40 142q5 2 10.5 5.5t9.5 6.5q7 5 16 13.5t16.5 15.5t7.5 8l-2 4q-3 3 -7 8q-20 23 -34 48q-4 7 -7 12t-4 5t-4 -9q-4 -9 -8.5 -22.5t-8.5 -28t-6 -24.5
q-3 -14 -3 -29q0 -14 2 -18q1 -2 4 -2q6 0 18 7zM431 76q124 21 256 99q238 141 407 405q119 189 171 375q27 102 27 182q0 59 -15 107q-4 13 -13 30t-17 27q-45 56 -123 63h-12q-13 0 -30 -1q-25 -1 -43 -4q-123 -25 -274 -129q-27 -19 -47.5 -34t-25.5 -21
q-3 -3 -12 -19.5t-21 -39.5q-78 -149 -188 -335.5t-201 -324.5q-107 -161 -189 -253l-9 -10l14 -13q6 -5 15.5 -12.5t18.5 -14.5q102 -70 209 -82q8 -1 20 -1t28 1q32 1 54 5z" />
    <glyph glyph-name="E" unicode="E" horiz-adv-x="949" 
d="M-39 23q-61 11 -61 63q0 34 30.5 90t101.5 149q147 194 422 524q22 26 36 43.5t14 18.5q-1 1 -14.5 0.5t-33.5 -0.5q-37 -2 -61.5 -2.5t-35.5 -0.5h-16h-10q-8 1 -11 2t-5 3q-1 2 -2 4.5t-2 5.5q0 3 0.5 5.5t3.5 5.5q2 2 4.5 4t4.5 2t15.5 0.5t32.5 1.5q31 0 76 2t75 4
l13 1l40 48q19 22 56 66t77 89q3 4 6 7q14 17 25.5 30.5t20.5 24t16 18.5t12 14t8.5 10.5t5.5 7t3 4t1 2.5l1 1h-2q-6 3 -7.5 8t-1.5 8t1 6q1 1 1.5 2t0.5 2q-1 0 -13 -0.5t-30 -1.5l-47.5 -2.5t-53.5 -2.5l-62.5 -2.5t-69.5 -3.5h-10q-19 -1 -32.5 -1.5t-21.5 -1t-13 -0.5
h-7.5t-3.5 0.5t-1 1.5l-1 1q-5 5 -5 12v2q1 8 7 12q1 1 2 1.5t3.5 0.5t8 0.5t15 1.5t23.5 1.5t35 1.5t49 3q11 1 24 1q54 3 99.5 6t116.5 7h7q90 6 179 14q69 5 185 17.5t221.5 25t142.5 18.5q29 4 42 4h16q18 0 25 -4q17 -9 17 -21q0 -4 -1 -6.5t-5 -5.5l-5 -5t-5 -4
q-6 -6 -13 -6h-3q-9 1 -13 11q-2 4 -3.5 5.5t-4.5 1.5q-2 0 -14 -1.5t-27 -4.5q-54 -7 -189 -23t-242 -26q-57 -6 -97.5 -9.5t-88.5 -7.5q-16 -1 -26.5 -2t-17 -1.5t-10 -1t-5 -1.5t-2.5 -2l-2 -3q-6 -7 -15 -19q-16 -21 -59.5 -73t-87.5 -104q-55 -64 -90 -105.5t-36 -43.5
q2 0 43.5 2t96 4.5t95.5 4.5q21 1 43 2.5t35 2.5q16 2 25 2.5t14 0.5q4 0 6.5 -1.5t3.5 -3.5q5 -6 5 -11q0 -3 -1 -5q-4 -8 -17 -11q-25 -6 -64 -8q-16 -1 -64 -3.5t-105.5 -5.5t-99.5 -4l-47 -2l-9 -11q-27 -30 -96 -113.5t-146 -178t-126 -156.5q-118 -148 -171.5 -225
t-65.5 -117q-7 -17 -7 -28q0 -10 5 -16q10 -13 46 -14h13q24 0 64 5q51 8 154 28q293 57 463 69q21 1 45 1h25q37 -1 52 -4q25 -5 36 -15q14 -11 14 -27v-2q1 -3 1 -5t-1 -4t-5 -5q-5 -4 -10 -4h-4q-7 2 -11 11l-4 6t-4 4q-20 10 -76 10q-48 0 -121 -7q-155 -16 -392 -63
q-99 -19 -144.5 -26t-76.5 -7h-26.5t-16.5 2z" />
    <glyph glyph-name="F" unicode="F" horiz-adv-x="1008" 
d="M-92 8q-8 5 -8 16q0 19 22 56q51 84 173.5 254t241.5 319q42 52 92.5 113.5t82.5 99.5q6 6 16 18t19 24l23 27h-8q-5 0 -32 -1t-64 -3q-36 -1 -59.5 -2t-36.5 -1q-14 0 -20.5 0.5t-9 2.5t-4.5 5q-3 5 -3 9t2 7q5 8 12 10.5t12 2.5t11 -2q3 -2 5.5 -2.5t8.5 -0.5t18.5 1
t35.5 2q26 2 57 3.5t53 2.5t37 2.5t17 1.5q2 2 29.5 33.5t66.5 77.5t76 89t58 68q49 59 64 82l8 12l-8 6l-48 -4q-86 -8 -135 -12t-76 -6.5t-46 -4.5q-32 -4 -42.5 -4h-14.5q-8 0 -12 1q-5 1 -7 6q-2 4 -2 8q0 5 5 10q3 3 6 4.5t10 2.5t22 2q9 1 35.5 3.5t58.5 5.5
q153 16 422.5 38t438.5 33q108 6 178 6q49 0 80 -3q19 -2 26.5 -4t10.5 -7q2 -4 2 -8t-1 -7q-3 -8 -11 -10h-11q-9 0 -20 1q-25 3 -76 3q-50 0 -96 -2q-56 -3 -142 -8.5t-173 -12.5q-56 -4 -133.5 -10.5t-137 -11.5t-63.5 -5l-1.5 -1.5t-0.5 -2.5q0 -1 -1.5 -4.5t-4.5 -8.5
q-11 -24 -57.5 -82.5t-149.5 -179.5q-33 -38 -54.5 -63.5t-21.5 -27.5q1 0 24 1t57 3q35 2 86 4.5t94 4.5t77.5 3.5t46.5 2.5q10 1 18 1h10q10 -3 11.5 -8t1.5 -8q0 -5 -5 -10q-3 -3 -9 -5t-19.5 -3.5t-39.5 -3t-69 -3.5q-123 -6 -191.5 -9.5t-96.5 -4.5l-28 -2
q-1 -1 -8.5 -9t-17.5 -19q-6 -7 -11 -14q-32 -37 -50 -59t-40 -48q-77 -92 -138 -169t-128 -165q-98 -131 -176 -243t-104 -159q-4 -7 -5 -10t-1 -5v-6q0 -5 -3 -11q-3 -8 -8 -13q-5 -4 -12 -4t-11 4z" />
    <glyph glyph-name="G" unicode="G" horiz-adv-x="992" 
d="M299 112q140 112 306 178l10 13q148 199 199 356q7 22 7 34q0 9 -5 12q-2 1 -5 1q-12 0 -41 -22q-264 -195 -479 -323q-75 -44 -134 -71q-90 -40 -153 -40q-11 0 -22 1q-68 9 -75 51t-7 56q0 67 48 177q55 121 159.5 262t235.5 270q126 123 257.5 216.5t239.5 139.5
q60 26 90.5 29.5t38.5 3.5q40 0 60 -24q13 -14 13 -42q0 -27 -12 -66q-33 -102 -119 -228q-41 -60 -95.5 -126t-100.5 -112q-26 -25 -35 -25h-1q-6 0 -6 7q0 3 1 7q3 13 17 28q165 173 256 343q3 7 7 14q30 56 44 98q8 32 8 52q0 22 -9 32q-13 14 -36 14q-10 0 -22 -3
q-39 -9 -82 -29q-109 -48 -252 -154q-160 -120 -307 -279q-118 -130 -206.5 -263t-126.5 -237q-20 -59 -20 -97q0 -22 7 -37q19 -40 69 -40h3q53 1 122 30q57 23 130 68q197 125 380 256q49 34 98 69q48 33 72 33h1q23 -1 25.5 -16.5t2.5 -23.5q0 -19 -6 -43
q-14 -55 -41 -108.5t-56 -103.5q-4 -6 -7 -11q-56 -97 -124 -186q-130 -171 -256 -253q-79 -50 -125 -50h-5q-36 2 -36 30q0 8 3 17q11 45 97 115zM361 48q20 13 53.5 41t53.5 46q16 16 38.5 39.5t40.5 43.5t19 23q-76 -31 -151 -79.5t-131 -108.5q-32 -35 -36.5 -44.5
t-4.5 -13.5t6 -4h1q12 0 32.5 10t42 23.5t36.5 23.5z" />
    <glyph glyph-name="H" unicode="H" horiz-adv-x="859" 
d="M133 -33q-2 2 -4.5 5.5t-2.5 6.5t2.5 8t9.5 15q74 107 146 208t172 238q248 340 425 567q11 14 19 24l7 10q0 1 -2 1h-5q-6 -1 -50.5 -3t-107 -5.5t-122 -6.5t-94.5 -5q-105 -5 -168 -6l-29 -1l-30 -39q-65 -83 -142.5 -185.5t-139.5 -186.5t-79 -114q-4 -6 -5.5 -9.5
t-1.5 -5v-2.5v-5q0 -9 -8 -14q-4 -1 -8 -1q-6 0 -11 4q-2 2 -3 3.5t-1 3.5v6t0.5 7t2 6.5t4.5 9.5q13 25 73 108t140.5 189.5t154.5 202.5q7 8 11 14l4 6l-15 1q-16 0 -40 1q-53 0 -82 2t-40.5 6.5t-13.5 12.5v4q0 5 4 9q5 6 14 6q8 0 14 -7q1 -1 2.5 -2t5.5 -1.5t13 -0.5
q8 -1 33 -1.5t54 -0.5h51t24 1q1 1 16.5 20t37.5 47q128 161 210 253q5 7 8 10t3 5l1 1q0 1 -1 2q0 2 0.5 4.5t0.5 4.5q2 2 11.5 12.5t23.5 23.5l20.5 20.5t12 10.5t7 3.5t6.5 -0.5q3 0 6 -3.5t4 -7.5q0 -3 -1 -6.5t-6 -10t-16 -19.5t-30 -35q-63 -73 -102.5 -120t-81.5 -98
q-36 -45 -63 -79.5t-29 -36.5h3q35 0 443 21l133 7l5 5q6 8 34 43t63.5 80.5t64.5 83t38 48.5q7 10 14.5 20.5t13.5 19.5l5 8q0 1 -1 1t-2 -1q-3 -1 -6 -1q-5 0 -9 3t-4 9v4q1 1 2.5 3t6 5t11.5 8q9 6 15.5 9.5t7.5 3.5q2 1 4 1t4 -1q5 -2 7 -5q4 -3 4 -10q0 -21 -40 -78
q-13 -18 -28 -38.5t-42.5 -55.5t-77.5 -98q-22 -28 -36 -46t-15 -19h11t24 1q40 2 59.5 2h26.5q14 0 17 -1q4 -2 6 -5.5t2 -6.5t-2.5 -6.5t-5.5 -5.5q-1 0 -10.5 -0.5t-31 -2t-59.5 -2.5q-19 -1 -34 -2t-19 -1l-8 -1l-43 -54q-73 -95 -147.5 -193t-173.5 -233
q-241 -327 -402 -559q-3 -4 -5 -7q-7 -11 -12 -17.5t-7.5 -10.5t-4 -6t-2.5 -2.5t-2 -1.5h-1q-4 -2 -7 -2q-2 0 -6 2z" />
    <glyph glyph-name="I" unicode="I" horiz-adv-x="727" 
d="M-95 25q-3 3 -4 5t-1 6q0 19 32 19q4 0 18 1.5t31 3.5l41 6l3 5q2 3 6.5 8.5t10.5 12.5q9 10 27 33t54.5 70t99.5 130q433 565 688 883q47 59 80.5 102.5t38.5 51.5l1 1q0 1 -1 1q0 1 -2.5 1h-8.5q-13 0 -47.5 -1.5t-65.5 -4.5q-13 -1 -23.5 -1.5t-11.5 -0.5
q-2 0 -4.5 -1.5t-4.5 -2.5q-2 -2 -4 -3t-5.5 -1.5t-10.5 -0.5q-13 0 -18.5 2.5t-7.5 7.5q-1 3 -1 7v4q0 5 3 8q6 6 30.5 10t80.5 9q14 1 35 2t39 2q14 1 22.5 1.5t13 1t6 1t2.5 1.5q0 2 3 3.5t6 3.5q4 2 8 2q8 0 14 -7q1 -1 2.5 -2t4.5 -1t9.5 -0.5t18.5 -0.5q49 0 102 -3
t84 -8q16 -2 22 -6t6 -13q0 -10 -9 -14q-2 -1 -6 -1q-5 0 -15 0.5t-29 1.5q-41 3 -87 5t-78 2h-30l-3 -5q-17 -28 -62 -88t-138 -176q-70 -89 -132 -168t-155 -199q-70 -90 -129 -166.5t-170 -221.5q-66 -86 -103 -134t-55 -71t-28 -36q-13 -16 -16.5 -22t-3.5 -7
q3 0 22.5 2t47.5 6q130 14 171 14l25 1l4 -5q5 -5 5 -11t-4 -11q-4 -4 -18.5 -6.5t-50.5 -5.5q-49 -4 -123.5 -12t-140.5 -15q-31 -4 -56 -6.5t-33 -2.5h-1q-7 -1 -11 -1q-3 0 -5 1t-5 4z" />
    <glyph glyph-name="J" unicode="J" horiz-adv-x="1109" 
d="M40 41q-91 6 -125 74q-8 16 -11.5 35t-3.5 35q0 8 1 16q3 90 83 208q30 44 57 77t40 40q6 3 12 3q3 0 6 -1q9 -3 11 -12q1 -2 1 -4q0 -8 -12 -16q-25 -21 -68 -81.5t-67 -109.5q-16 -35 -24 -72q-4 -21 -4 -42q0 -22 3 -38q16 -60 78 -74q15 -3 36 -3t39 3
q148 23 361 187q175 138 357 349q43 50 93.5 115.5t91.5 123.5q139 198 235 386q21 42 29.5 61.5t8.5 25.5q0 3 0.5 6t1.5 4q1 2 0.5 2.5t-3.5 0.5t-10 -1q-14 -1 -66 -3t-115.5 -4.5t-108.5 -3.5q-167 -5 -310 -6h-78l-4 5q-5 6 -5 13v2q2 7 11 11q7 1 83 3q196 3 392 10
q29 1 65 2.5t107 4.5t208 9q108 4 163.5 6.5t82.5 3.5t51 1q27 1 41 0.5t20.5 -2t9.5 -4.5q5 -7 5 -13q0 -3 -1 -6q-4 -9 -19 -15q-8 -3 -14 -3q-8 0 -12 5l-5 4l-55 -1q-48 -2 -150.5 -6t-183.5 -8q-23 -1 -39.5 -2t-18.5 -1q-3 0 -4 -0.5t-1 -5.5q0 -11 -25.5 -66.5
t-61.5 -123.5q-171 -313 -427 -605q-279 -310 -530 -440q-112 -56 -198 -59h-24z" />
    <glyph glyph-name="K" unicode="K" horiz-adv-x="965" 
d="M886 3q-62 15 -167 134q-49 55 -104 128.5t-102 143.5q-30 46 -50.5 80.5t-39.5 73.5q-16 32 -27 56t-23 54q-4 12 -8 21t-5 10q-3 2 -4 2q-3 0 -4 -5t-5 -9.5t-9 -5.5q-1 0 -1 -1q-1 0 -2 -0.5t-3 -2t-5.5 -5.5t-9 -11t-14.5 -18t-21.5 -26.5t-30.5 -36.5q-6 -8 -13 -17
q-83 -104 -175 -219.5t-128 -163.5q-4 -5 -7.5 -9t-4.5 -5q-4 -2 -8 -2q-5 0 -9 3q-6 4 -6 13v3q0 4 2 6.5t7 7.5q4 5 15 19t25 31q52 68 154 196t182 226q20 25 27.5 35.5t7.5 12.5q2 8 11 13q1 0 2 1l3.5 3.5t7.5 8t12.5 15t19 23.5t27.5 34t37 47q233 288 289 384
q46 76 46 113v4q0 14 -6 21t-20 12q-10 3 -33 3t-42 -3q-84 -16 -191.5 -66.5t-210.5 -123.5q-149 -105 -236 -208q-9 -11 -17.5 -23.5t-11.5 -19.5q-2 -4 -2 -6q0 -1 1 -4q2 -4 2 -8t-3 -8q-2 -2 -3.5 -3t-5.5 -1q-5 0 -7 1t-4 4q-8 8 -8 19q0 5 2 11q11 30 61 86t118 112
q180 147 377 227q74 30 134 41q19 3 46 3t39 -3q41 -11 50 -46q1 -6 1 -15v-10q0 -15 -3 -27q-14 -52 -82 -151.5t-216 -284.5q-23 -28 -49 -60.5t-46.5 -58t-26.5 -31.5q-2 -3 -3 -5t-1 -3t1 -3q1 -4 2.5 -4.5t3.5 -0.5h5q99 11 476 213q300 160 490 287q84 56 118 89
q4 5 6 7t2 3t-1 2q-3 4 -3 8t5 9q1 1 2.5 2t4 1.5t6.5 0.5q5 0 7 -0.5t4 -1.5t4 -3q3 -3 4 -5.5t1 -4.5l-1 -6q-2 -17 -52 -58.5t-135 -96.5q-169 -108 -392.5 -230t-383.5 -194q-106 -46 -150 -51q-4 0 -6.5 -0.5t-2.5 -1.5t4 -10t8.5 -21t9.5 -22q13 -28 33 -67.5
t39 -70.5q49 -84 117 -177.5t135 -170.5q16 -19 41 -44.5t40 -38.5q36 -31 64 -43q7 -2 15 -4t27 -4q9 -3 10 -7.5t1 -5.5q0 -8 -7 -12q-6 -2 -19 -2q-14 0 -25 3z" />
    <glyph glyph-name="L" unicode="L" horiz-adv-x="1009" 
d="M-82 1q-16 2 -18 14v3q0 9 10 15q7 3 30 9t52.5 12.5t53.5 10.5q3 0 4.5 1.5t4 4.5t6.5 9q41 62 152.5 212t210.5 276q143 183 297 358q12 13 19.5 22.5t8.5 9.5q-1 0 -7.5 -3t-16.5 -8q-61 -29 -88 -29h-3q-12 2 -14.5 8t-2.5 9q0 5 4 11q2 2 4 3.5t5.5 1.5h10.5
q34 2 141 65q21 13 32.5 21t24 20t36.5 38q254 271 371 328q18 9 25 10t9 1q9 0 16 -3q13 -7 13 -21q0 -9 -5 -21q-10 -22 -52 -65q-98 -100 -254 -208q-18 -12 -46 -31t-53.5 -36t-35.5 -23q-7 -4 -15.5 -12.5t-28.5 -30.5q-253 -279 -512 -623q-49 -66 -96.5 -130.5
t-79 -108.5t-31.5 -46h7q7 1 16 2q181 26 512 39q209 8 342 8q115 0 173 -6q14 -2 27 -5t17 -5q4 -3 5 -6.5t1 -5.5q0 -4 -1 -7q-2 -4 -4 -6t-6 -2h-8h-11q-12 1 -34 3q-60 5 -159 5t-237 -5q-276 -8 -482 -27q-36 -3 -83 -8.5t-74 -9.5q-7 -1 -12 -2q-11 -1 -12 -1l-1 -2
q-2 -2 -3 -5q-5 -8 -9.5 -9t-5.5 -1q-7 0 -13 6l-5 5l-19 -4q-8 -1 -20.5 -3.5l-22.5 -4.5l-18 -4.5t-8 -3t-4 -4.5q-3 -3 -5.5 -4.5t-7.5 -1.5h-8.5t-8.5 1zM1024 1178q115 83 193 161q19 20 33 35.5t14 17.5l-10 -4q-84 -43 -252 -212l-43 -44l18 12q8 6 21 15.5t26 18.5z
" />
    <glyph glyph-name="M" unicode="M" horiz-adv-x="1209" 
d="M559 0q-4 2 -7.5 6t-5.5 9q-1 3 -1 6q0 16 19 53q23 44 87 141q8 13 30.5 47t45.5 68t33 48q113 166 242 343q21 29 33 45t25 34t38 50q37 50 65.5 87.5t86.5 113.5q94 121 133 173.5t59 83.5q35 54 35 72v1q0 1 -0.5 1.5t-2.5 1t-4 0.5q-1 0 -4 -1h-1q-34 0 -133 -50
q-169 -84 -398 -248q-15 -11 -40 -29.5t-49 -36.5t-35 -27q-6 -4 -16 -12q-7 -5 -12 -9l-95 -76q-38 -30 -58 -45t-29.5 -20.5t-16.5 -5.5h-4q-9 0 -15 7q-3 4 -3 10q0 3 1 6q1 11 12 33t35.5 63.5t66.5 109.5q30 49 43.5 71t20.5 34q14 25 27.5 48.5t18.5 32.5q3 5 5 9l2 3
q1 1 4.5 8.5t9 18t10 19.5l6.5 13q24 53 24 80v6.5t-0.5 3.5t-2.5 3q-1 1 -3.5 1.5t-8.5 -0.5q-39 -4 -119.5 -59t-185.5 -150q-57 -50 -122 -115.5t-118 -124.5q-115 -129 -206 -256q-35 -49 -69 -101t-54 -88q-8 -15 -14.5 -28.5t-9.5 -21.5t-3 -9v-1q1 0 2.5 0.5t2.5 0.5
q1 1 2 1q4 1 6 1t5 -2q6 -3 6.5 -7t0.5 -5q0 -6 -4 -10q-2 -1 -8 -3.5t-12 -4t-9 -1.5q-17 0 -22 18q-1 2 -1 5q0 18 21 59q72 140 222 330q159 199 352 376q137 124 240 188q65 39 101 39q21 0 32 -13q6 -6 8 -13.5t2 -19.5q0 -46 -61 -158q-16 -30 -43 -76t-76 -125
q-92 -150 -92 -158l16 12q15 11 52 40q133 107 230 177q319 229 507 301q36 13 59 13q9 0 16 -2q23 -9 23 -33q0 -25 -40.5 -87t-144.5 -197q-16 -20 -33.5 -43t-28.5 -37q-112 -146 -185 -245q-14 -18 -24 -32q-5 -6 -7 -9q-12 -16 -68 -95q-41 -57 -92.5 -129.5
t-81.5 -116.5q-3 -5 -8 -12.5t-10 -14.5q-25 -37 -67 -100t-66 -101q-6 -8 -17.5 -26.5t-22 -36.5t-14.5 -25q-7 -11 -13.5 -25t-7.5 -20q-1 -3 -1 -5q0 -3 1 -5l1 -5q0 -6 -5 -11q-4 -3 -9 -3q-3 0 -6 1z" />
    <glyph glyph-name="N" unicode="N" horiz-adv-x="1372" 
d="M-95 -1q-5 5 -5 11q0 12 16 28q9 9 14 12.5t10 3.5q2 0 3.5 1t4.5 4.5l9 10.5q43 51 146 187l18 24l12 15q4 6 12 16.5t16 21.5l22 28q5 7 8 11q5 7 14 18.5t16 21.5q179 235 360 456q24 30 48 59t66 79q36 43 79 93t66 76q35 39 52.5 53t27.5 14h2q11 -1 15 -10
q2 -4 2 -9v-3q0 -7 -4 -18q-3 -11 -10.5 -27.5t-23 -48t-43.5 -87.5q-34 -68 -53.5 -107.5t-33 -68t-28.5 -64.5q-66 -151 -96 -267q-11 -43 -16 -75t-6 -65q0 -19 0.5 -28t1.5 -19q11 -72 53 -85q10 -3 23 -3q14 0 26 3q77 21 191 125q110 101 217.5 243.5t183.5 287.5
q72 138 99 246q12 48 17 96t5 118v32l-4 4q-2 2 -3 3.5t-1 5.5t1 6t4 5q7 6 14 6h4q9 -2 13 -13q1 -6 1.5 -34t-0.5 -62t-2 -57q-8 -92 -43 -194q-74 -204 -239 -433q-123 -168 -240.5 -277t-203.5 -135q-22 -6 -41 -6q-70 0 -97 77q-11 34 -11 79q0 141 107 396
q23 54 53.5 119t85.5 174q33 64 45.5 90.5t12.5 28.5q-2 0 -25 -25t-52 -58q-272 -315 -578 -718q-8 -10 -15.5 -20t-12.5 -16q-21 -28 -67 -89q-4 -6 -9 -12q-77 -102 -119.5 -154.5t-67.5 -77.5q-20 -20 -27 -23.5t-11 -3.5q-5 0 -9 4z" />
    <glyph glyph-name="O" unicode="O" horiz-adv-x="1035" 
d="M66 -3q-56 8 -91 31q-9 6 -21 18.5t-20 21.5q-33 48 -34 120v43l5 45q28 147 134 353.5t257 406.5q52 68 101.5 125.5t114.5 127.5q10 11 10 13q-3 1 -11.5 2.5t-20.5 3.5t-22 4q-59 7 -100 7q-14 0 -25 -1q-11 0 -16.5 -1t-7.5 -2t-3 -3q-3 -9 -15 -9q-5 0 -7 0.5
t-5 4.5q-5 4 -6 6t-1 6q0 20 28 27q20 5 53 5q19 0 42 -2q63 -4 125 -17l21 -5l21 21q112 110 215 179q43 29 61.5 36.5t27.5 7.5q7 0 11 -3q11 -7 11.5 -19t-10.5 -15q-3 0 -5.5 0.5t-5.5 2t-3 2.5q0 2 -1 2q-4 0 -16 -7q-61 -33 -148 -105q-21 -18 -49.5 -43.5t-50 -46
t-21.5 -22.5l4 -2q4 -2 11 -4q16 -7 40 -18.5t41 -22.5q98 -59 161 -146q53 -77 76 -167q14 -52 14 -110v-11q0 -188 -146 -383q-48 -65 -116 -133q-136 -138 -284 -227q-38 -22 -83.5 -43t-81.5 -32q-35 -12 -63 -17t-59 -5h-36zM126 30q158 19 358 168q82 60 157 136
q222 223 255 430q3 22 5 38.5t2 39.5q0 137 -76 252q-91 132 -244 190q-9 4 -15 5.5t-7 1.5q-2 0 -33.5 -32.5t-68.5 -75.5q-108 -122 -205 -261q-119 -169 -202.5 -338.5t-109.5 -294.5q-11 -51 -11 -92q0 -18 2 -33q18 -119 132 -134q12 -1 29 -1q19 0 32 1z" />
    <glyph glyph-name="P" unicode="P" horiz-adv-x="1019" 
d="M-76 0q-12 5 -19 19q-4 9 -4.5 20t-0.5 16q0 13 2 27q18 108 107 276q98 184 247 377.5t324 363.5l24 24l16 35q65 153 73 220q1 7 1 14v10v3q0 9 5 14q4 4 9 4q3 0 6 -1q4 -1 7 -5t3 -9v-6q0 -7 -1 -20q-2 -19 -5 -36q-6 -29 -20 -72t-29 -81q-2 -6 -3.5 -10t-1.5 -5
l11 9q11 9 27 23q281 240 441 246h12q25 0 44 -7q44 -15 61 -59q2 -6 3.5 -13t3.5 -19t2 -25q0 -33 -11 -74q-29 -112 -110.5 -239t-191.5 -233q-104 -99 -193 -141q-54 -25 -106.5 -34t-88.5 -9q-20 0 -38 2q-56 8 -77 39q-4 5 -5 9.5t-2 13.5q-1 6 -1 10q0 3 0.5 6t2.5 8
q8 21 19 21q4 0 8 -3q6 -4 6 -12q0 -4 -2 -9q-2 -7 -2 -12q0 -27 42 -36q20 -5 46 -5q27 0 60 5q104 13 192 75q192 136 328 363q65 113 85 203q6 30 6 54q0 66 -48 84q-14 5 -34 5q-12 0 -26 -2q-19 -2 -35.5 -6t-38.5 -13q-161 -62 -391 -270q0 -1 -1 -1q-15 -14 -22 -21
t-10.5 -13t-8.5 -17q-1 -1 -1 -2q-89 -190 -218 -423.5t-239 -402.5q-140 -214 -201 -247q-9 -5 -16.5 -6t-10.5 -1q-6 0 -11 1zM-47 39q51 33 167 207q147 222 335 575q22 42 47.5 91.5t43.5 85.5t18 39q-2 -1 -20 -19.5t-42 -44.5q-159 -169 -288 -349t-207 -340
q-14 -30 -24.5 -55t-21.5 -54q-25 -71 -29 -113v-12t1 -12t2 -6t2 -1q4 0 16 8z" />
    <glyph glyph-name="Q" unicode="Q" horiz-adv-x="1016" 
d="M866 -80q-4 2 -10.5 5t-13.5 6q-30 16 -134 55.5t-320 117.5q-57 21 -95.5 34.5t-40.5 14.5q-1 0 -6.5 -2.5t-12.5 -6.5q-38 -17 -76 -28q-20 -5 -41.5 -7.5t-34.5 -2.5h-9q-75 8 -98 78q-4 11 -6.5 31.5t-2.5 34.5v9l-21 8q-9 4 -16.5 6t-10.5 3q-11 1 -14 6.5t-3 9.5
q0 5 4 10q4 7 12 7t28 -7q13 -5 20 -7l4 -2q1 0 1.5 0.5t0.5 1.5l-1 1q0 1 1.5 8t3.5 17q39 168 173 382q6 9 9.5 15t3.5 7q-1 1 -4.5 6t-9.5 13q-50 62 -61 126q-4 19 -4 39q0 47 21 101q33 89 117 190q95 113 217 190t251 105q22 5 52.5 8t51.5 3q109 -2 179 -58
q62 -51 85 -142q5 -20 8 -50t3 -53q-6 -171 -121 -371q-162 -270 -450 -513q-85 -70 -163 -119q-16 -11 -26.5 -17.5t-10.5 -7.5q1 0 28.5 -10t68.5 -25q417 -151 461 -175q30 -16 34 -27q1 -3 1 -5q0 -7 -7 -12q-3 -2 -4.5 -2.5t-2.5 -0.5h-2q-2 0 -6 2zM270 203
q129 74 273 204.5t257 274.5q176 226 217 419q13 62 13 115q0 97 -45 164q-52 73 -112.5 82t-84.5 9q-81 0 -180 -35q-109 -40 -209 -114t-174 -170q-93 -122 -107 -219q-1 -7 -1 -11v-7v-7q0 -7 1 -18q2 -17 3.5 -25.5t5.5 -18.5q15 -40 44 -78l10 -13l6 9
q71 105 165.5 216t182.5 192q32 29 46.5 39.5t22.5 10.5h1q15 -1 17 -16v-3q0 -11 -6 -18q-5 -6 -12 -6q-2 0 -5 1q-1 1 -3 1q-1 0 -3 -1.5t-5.5 -4.5t-10.5 -8q-71 -66 -160.5 -168t-160.5 -198q-11 -15 -22 -31t-19 -27.5t-8 -12.5t6 -6t14.5 -11.5t17 -12t13.5 -8.5
q41 -24 87 -29q9 -1 19 -1t20 1q21 2 38 8l10.5 3t5.5 1t5 -1q9 -2 10 -13v-2q0 -6 -5 -11q-6 -5 -24 -12q-15 -5 -34 -7t-31 -2q-8 0 -16 1q-75 8 -143 61q-6 4 -10 7l-4 3q-3 -5 -11.5 -18t-17.5 -28.5t-15 -25.5q-109 -189 -136 -325l-1.5 -13.5t-0.5 -5.5v-2
q1 -1 26.5 -10.5t63.5 -22.5q23 -9 46 -17q53 -19 75 -27q14 -5 23.5 -8.5t10.5 -3.5t7 3t14 8zM145 149q11 3 26.5 8.5t25.5 9.5l8 3l-88 33q-19 7 -33.5 12.5t-25.5 9.5t-19.5 7.5t-15 5.5t-10.5 3.5t-6.5 2.5t-3.5 1h-2h-1q0 -1 0.5 -7t0.5 -15q5 -47 31 -66
q22 -16 56 -16q25 0 57 8z" />
    <glyph glyph-name="R" unicode="R" horiz-adv-x="1112" 
d="M712 57q-1 0 -6.5 1t-12.5 3q-73 18 -123 75q-55 61 -92 167q-35 94 -51 226q-3 26 -5.5 41.5t-4.5 23.5t-5 13q-1 4 -2.5 7.5t-2.5 4.5q0 1 -1 1t-2 -2q-2 -2 -7 -9q-13 -20 -41.5 -60t-54.5 -76q-122 -170 -220 -281q-74 -84 -113 -111q-25 -18 -42 -18q-5 0 -10 2
q-16 7 -16 31q0 14 5 33q43 133 211 359q118 154 263 305q106 110 229 217l25 22l14 25q46 80 71 136l4.5 10.5t1.5 5.5t-1 3l-2 4t-1 3q0 5 3 12t8 12q3 3 5.5 4.5t5.5 1.5h2q8 0 12 -5t4 -13v-3q-3 -27 -44 -109l-8.5 -17t-4.5 -10l-1 -1h1l2 2q1 1 4 3t7 5t9 8q1 0 2 1
q226 180 407 270q132 64 216 64q27 0 49 -7q48 -16 60 -61q3 -13 3 -28q0 -92 -120 -247q-29 -37 -69.5 -82t-78.5 -82q-135 -130 -281 -225t-279 -139q-73 -22 -120 -22q-12 0 -22 1q-7 1 -18.5 5t-17.5 7v-10q1 -9 3 -23.5t4 -28.5t3 -23q14 -83 40 -161q56 -160 148 -209
q24 -11 52 -20q12 -4 17 -7t6 -7l1 -4q0 -5 -5 -10q-4 -4 -9 -4h-4zM565 588q113 24 255 105q147 83 283 203q123 110 208 217t111 187q8 27 8 48q0 64 -80 64h-4q-87 -3 -227 -75q-181 -96 -408 -281l-3 -3q-24 -20 -35.5 -29.5t-16.5 -16.5t-12 -19q-1 -1 -1 -2
q-42 -70 -103.5 -165t-108.5 -164l-10 -13l5 -2q11 -2 16 -16q3 -10 6 -14t10 -10q19 -15 42 -19h30q19 2 35 5zM-53 105q29 18 94 90q162 180 404 541q29 43 59 89t50.5 78.5t20.5 33.5q-1 0 -10 -8t-22 -20t-27 -25t-24 -23q-191 -185 -341 -379q-163 -218 -212 -351
q-3 -11 -5.5 -21t-2.5 -13q3 0 16 8z" />
    <glyph glyph-name="S" unicode="S" horiz-adv-x="1068" 
d="M201 -5q-156 16 -245 95q-39 35 -52 85q-2 5 -3 10t-1 11.5v19.5q0 17 0.5 25.5t2.5 17.5q17 76 84 166q52 68 136 150t164 146t118 75q9 3 14.5 2.5t12.5 -3.5q9 -5 11 -9.5t2 -6.5q0 -6 -4 -11q-2 -2 -3.5 -2.5t-4.5 -1t-8 -0.5q-8 0 -12.5 -1t-12.5 -6
q-59 -31 -163.5 -123.5t-184.5 -182.5q-79 -92 -107 -171q-12 -36 -12 -65q0 -12 2 -23q8 -42 43 -75q90 -82 256 -90h14q103 0 208 40q113 42 212 123q18 15 42.5 39.5t37.5 40.5q63 78 79 159q5 20 5 38v26q0 16 -1 31q-8 59 -39 120q-18 35 -45 74.5t-81 109.5
q-11 15 -22.5 30.5t-18.5 24.5q-63 88 -78 159q-3 19 -3 42q0 22 3 41q15 72 81 138q67 68 164 115q103 49 174 49q8 0 16 -1q15 -1 23.5 -3.5t19.5 -7.5q43 -22 43 -69q0 -6 -1 -12q-7 -54 -66 -125q-8 -9 -29.5 -32t-49.5 -50l-40 -40t-19.5 -21t-7.5 -10q-3 -7 -5.5 -10
t-8.5 -3h-5q-2 1 -6 4q-3 3 -4 5.5t-1 6.5q0 7 4.5 15t20 24.5t47.5 48.5q57 58 83.5 90.5t40.5 62.5q12 27 12 46q0 17 -9 28q-17 18 -58 18t-95 -18q-127 -45 -215 -131q-79 -77 -79 -160q0 -37 16 -75q13 -32 36.5 -69t70.5 -99q34 -44 51 -67t30 -43q64 -96 79 -175
q7 -28 7 -71q0 -69 -28 -130q-57 -132 -214 -239q-185 -122 -379 -122q-13 0 -25.5 0.5t-19.5 1.5z" />
    <glyph glyph-name="T" unicode="T" horiz-adv-x="570" 
d="M-92 35q-3 2 -5.5 6.5t-2.5 7.5q0 9 34 62q91 144 269 402.5t331 468.5q98 136 244 322q12 16 20.5 27.5t8.5 12.5h-2t-2.5 0.5t-2.5 0.5t-3 -1h-7.5h-10.5t-14 -0.5t-18 -0.5t-22 -0.5t-27 -0.5q-70 -3 -120 -4.5t-124 -4.5q-187 -7 -255 -7q-28 0 -36 1q-13 5 -13 16
q0 10 6 12.5t16 2.5h61q41 2 126 6q150 6 335 12q31 1 54 1.5t39 1t26 1t15 1t8 1.5h2q2 2 2 3q0 2 -4 2q-3 0 -7.5 4t-6.5 8v3q0 3 2 7q4 5 13 14q12 11 28 23.5t22 16.5q7 4 12 4q7 0 12 -6q6 -5 6 -13q0 -3 -1 -6q-4 -13 -22 -39q-6 -8 -9 -14l-4 -6h27q25 0 63 1
q196 6 302 9t150 3q45 0 58 -1q13 -2 20 -3.5t12 -5.5q7 -6 7 -14v-2q0 -9 -9 -14q-4 -1 -6 -1q-3 0 -7 1q-7 3 -22 4t-50 1t-102 -1.5t-177 -4.5q-65 -2 -112 -3.5t-79.5 -2.5t-53 -1.5t-31.5 -1t-15 -1t-4 -1.5q-1 -1 -6 -7.5t-12 -15.5l-2 -2q-7 -10 -18 -25
q-14 -17 -26 -33q-138 -177 -249 -330t-270 -383q-114 -165 -190 -278.5t-139 -214.5q-5 -6 -9 -11.5t-6 -7.5q-3 -2 -6.5 -2h-5.5q-3 0 -5 1z" />
    <glyph glyph-name="U" unicode="U" horiz-adv-x="1060" 
d="M384 5q-11 6 -11 15q0 6 4 13q8 13 49.5 73t130.5 186q5 7 13 18t15 22q64 89 158 219.5t156 214.5q21 28 47 63t47 62.5t25 32.5q3 4 3 5q-2 0 -15 -11q-325 -278 -515 -425t-316 -221q-104 -60 -170 -74q-13 -2 -28 -2q-16 0 -25 2q-52 16 -52 77q0 7 1 15q4 58 49 146
q130 257 383 546q68 77 123.5 128.5t77.5 59.5q5 1 9 1q6 0 10 -2q7 -5 7 -16q0 -13 -6 -18.5t-11 -5.5q-3 0 -7 2q-2 1 -4 1q-1 0 -3.5 -1.5t-7.5 -6.5q-60 -48 -160 -162t-186 -230q-89 -122 -151 -230q-83 -142 -89 -214q-1 -7 -1 -13q0 -16 6 -27q8 -18 34 -18h5
q41 0 123 42q166 83 476 334q3 2 5 4q24 19 41.5 33.5t51.5 42.5q85 70 205.5 171.5t214.5 183.5q17 15 26.5 23.5t17 17.5t19.5 24q127 158 214 247q82 84 113 84q15 0 21 -12q3 -4 3 -10q0 -10 -8 -25q-12 -24 -48 -64q-15 -17 -47 -49.5t-55 -53.5q-13 -12 -23 -21l-5 -5
q-15 -14 -51 -46.5t-69 -61.5q-18 -15 -31.5 -27.5t-16.5 -16.5q-4 -4 -20 -24.5t-37 -47.5t-39 -50q-10 -14 -38 -50.5t-56 -74.5t-40 -54q-42 -56 -79 -108q-29 -40 -56 -77.5t-35 -47.5q-2 -3 -7 -9q-8 -12 -18 -26q-12 -16 -38.5 -53.5t-53.5 -75t-38 -53.5
q-4 -6 -8.5 -12t-7.5 -11q-2 -2 -3 -4q-6 -8 -34 -47.5t-59 -84.5q-26 -36 -46.5 -66t-29.5 -44q-4 -7 -8 -12.5t-6 -6.5q-4 -3 -9 -3q-3 0 -6 2z" />
    <glyph glyph-name="V" unicode="V" horiz-adv-x="1047" 
d="M84 4q-11 1 -21.5 4t-22.5 10q-56 29 -73 121q-4 22 -4 46v32q0 27 2 49q9 92 46 201q83 243 274 516q8 12 8 13h-1q-153 -117 -229.5 -161t-118.5 -44h-9q-28 2 -31.5 12.5t-3.5 14.5q0 14 14 28q13 11 22 11h3q11 -2 12 -7.5t1 -7.5q0 -7 -5 -13q-4 -4 -4 -5h1
q2 0 9.5 2t15.5 4.5t14 3.5q74 26 326 223q36 28 53 41.5t25 21.5t16 18q74 90 154 169q121 123 159 123q10 0 16 -7t6 -15v-3q-3 -26 -74 -96q-78 -78 -191 -170q-3 -2 -5 -4q-27 -22 -40 -32.5t-20.5 -19t-17.5 -22.5q-2 -2 -3 -4q-103 -132 -187 -275
q-198 -340 -200 -573q0 -71 19.5 -113.5t56.5 -52.5q10 -2 22 -2q29 0 65 14q140 53 412 335q192 200 390.5 421t338.5 392q33 41 65 81.5t53.5 70t21.5 31.5v1l-2 -1q-2 0 -5 -1t-6.5 -1.5t-5.5 -0.5q-9 3 -10.5 8.5t-1.5 8.5q0 5 4 10q5 5 16 11t23 11t17 5q6 0 11.5 -3.5
t8.5 -7.5q4 -6 4 -13q0 -10 -7 -23q-39 -70 -210 -274.5t-402 -456.5q-187 -204 -299 -318t-187 -178q-186 -160 -293 -160q-8 0 -15 1z" />
    <glyph glyph-name="W" unicode="W" horiz-adv-x="1182" 
d="M350 4q-80 10 -96 114q-2 15 -2 40q0 26 2 46q16 148 123 385q13 30 36.5 77t41.5 82q8 14 13 24l4 9q-1 0 -3 -2q-4 -3 -9 -7q-15 -13 -98 -80q-90 -73 -231 -193q-64 -55 -99.5 -83t-55.5 -40q-16 -10 -24.5 -13t-19.5 -3h-9t-5 1t-4 3q-3 1 -6 4t-4 6q-2 3 -3 5.5
t-1 7v14.5q0 12 0.5 19t3.5 16q21 87 134 294q105 191 232.5 385.5t191.5 262.5q15 15 21.5 18t10.5 3t8 -3q8 -5 8 -13q0 -3 -1 -6q-1 -6 -5 -15.5t-8 -17.5t-6 -9q-4 -3 -8 -3t-9 5l-5 4l-11 -15q-31 -38 -84 -114.5t-102 -153.5q-165 -257 -267 -461q-72 -144 -73 -193
v-13h4q9 2 30.5 16t49.5 36q18 14 40 32.5t70 59.5q71 61 122.5 103.5t121.5 100.5q41 32 62 49t32.5 27.5t23.5 23.5q23 22 31.5 27.5t14.5 5.5q2 0 4 -1q11 -4 11 -14q0 -5 -4 -13q-2 -4 -7 -12.5t-11 -19.5q-77 -137 -137 -272q-80 -187 -101 -318q-3 -22 -3.5 -40.5
t-0.5 -25.5q0 -20 2 -34q12 -87 77 -87q21 0 47 9q142 52 331 287q104 131 202.5 291t151.5 282q37 88 65 189.5t38 187.5q2 16 3 31t1 25l-1 18q-1 17 -2 24q-3 10 -6.5 16t-10.5 13q-5 4 -7 6.5t-2.5 4t-0.5 4.5q0 4 1 6t3 3q4 4 8 4.5t12 -3.5q24 -11 33 -45
q2 -5 2.5 -10t0.5 -14v-27q0 -33 -1.5 -53.5t-8.5 -55.5q-31 -174 -100 -341q-54 -124 -155 -287t-207 -296q-151 -188 -284 -264q-46 -26 -84 -34q-9 -2 -18.5 -2h-14.5h-9z" />
    <glyph glyph-name="X" unicode="X" horiz-adv-x="917" 
d="M-91 4q-3 2 -6 5.5t-3 8.5v3q0 9 8 12q2 1 5 3.5t8.5 8t15 17t25 30.5t38.5 48q116 142 195.5 239t152.5 185q21 25 35.5 43t14.5 19t-1 5t-3 10q-26 107 -46 240q-8 55 -14 106.5t-11 122.5q-4 45 -6.5 70t-5 37.5t-6.5 19.5q-3 6 -3 11q0 10 12 13q5 2 9 2q6 0 10 -4
q2 -2 3 -3.5t1 -5.5q0 -2 -0.5 -4t-0.5 -3q-1 0 -1 -3t2 -10q6 -22 11 -85q13 -138 24.5 -223.5t26.5 -163.5q4 -17 9 -40t9 -41.5t5 -20.5q2 0 29 32q140 166 243 284.5t263 296.5q41 46 68.5 77t31.5 36q1 1 1 3q0 1 -3 4q-2 2 -2.5 4t-0.5 6q1 3 2.5 5.5t7.5 7.5
q9 8 20 15.5t16 8.5h3q4 0 7 -1q4 -1 7 -5q2 -3 2 -8q0 -7 -5 -16q-14 -25 -159 -186q-121 -135 -197 -222t-156 -180q-18 -22 -54 -64.5t-68.5 -81.5t-40.5 -49l-5 -6l7 -25q92 -312 239 -390q34 -16 87 -25q17 -3 30 -3h19q11 0 20 1q14 2 22.5 6t16.5 12q8 7 11.5 9
t5.5 2q3 0 5 -1q8 -3 8 -11v-2q-1 -10 -12 -22q-26 -24 -83 -24q-26 0 -59 5q-98 15 -162 85q-95 98 -160 295q-4 13 -8 25.5t-6 18.5q-1 6 -2 10l-2 4q-4 -2 -85 -99.5t-202 -245.5q-15 -19 -27 -33q-6 -8 -9 -11q-6 -8 -32 -40q-14 -17 -30 -37q-30 -37 -48.5 -59
t-28.5 -33.5t-15 -16.5t-9 -6q-5 -3 -9 -3q-3 0 -5 1z" />
    <glyph glyph-name="Y" unicode="Y" horiz-adv-x="455" 
d="M-92 5q-4 2 -6 6.5t-2 8.5q0 17 91 167.5t233 367.5q54 82 118 174.5t112 157.5q5 6 8 11l3 5l-7 -4q-7 -5 -17 -13q-194 -141 -310 -184q-38 -13 -67 -13q-24 0 -42 9q-24 12 -35 43q-2 5 -3 9t-1 10v19q0 12 0.5 19t1.5 12t3 12q23 87 109 200q17 21 30.5 36.5
t20.5 20.5q9 6 17 6q4 0 7 -1q10 -4 9.5 -13t-11.5 -13q-5 -1 -11.5 -7.5t-20.5 -23.5q-76 -96 -111 -181q-14 -39 -14 -69q0 -18 5 -32q3 -6 9 -12t12 -9q8 -3 16 -3.5t12 -0.5q8 0 16 1q115 23 370 212q77 58 85 67q2 3 11 14.5t21 26.5q82 106 162 195q25 28 67 70t64 61
q81 70 117 70q13 0 20 -9q5 -6 5 -14q0 -36 -86 -123q-60 -60 -149 -138.5t-181 -152.5q-10 -8 -18.5 -15t-10.5 -9q-9 -9 -46 -59t-86.5 -119t-93.5 -134q-65 -95 -152.5 -231t-154.5 -245q-39 -64 -65.5 -110.5t-26.5 -51.5t-4.5 -12t-9.5 -10q-4 -1 -6 -1q-3 0 -7 2z
M674 1110q80 67 149.5 131.5t104.5 103.5q11 13 21 26t15.5 21.5t5.5 10.5q-3 0 -13 -5.5t-22 -13.5q-45 -29 -112 -97q-76 -75 -158 -176q-20 -24 -20 -25l3 2l4 4q8 6 22 18z" />
    <glyph glyph-name="Z" unicode="Z" horiz-adv-x="690" 
d="M-69 5q-31 11 -31 41q0 7 2 15q11 40 60 88t126 95q110 66 201 96q44 15 72 15q19 0 30 -7l7 -4l12 15q45 52 65 94q19 38 19 65q0 7 -1 13q-3 11 -7 19t-12 16q-25 28 -100 49q-4 2 -17.5 5.5t-30.5 7.5q-47 11 -68 19.5t-32 19.5q-9 9 -12 16t-3 16v5q1 27 37 64
q15 16 40 37.5t74 59t136 102.5q71 54 107.5 82t66.5 52q239 191 239 260v1q0 35 -69 44q-11 1 -28 1h-19q-29 -1 -51 -4q-101 -15 -219 -63q-143 -60 -241 -131q-12 -10 -26 -23.5t-18 -19.5q-3 -4 -3 -7q0 -1 1 -2q4 -3 20 -5q13 -1 18 -4t5 -11q0 -13 -16 -13q-4 0 -10 1
q-32 3 -42 17q-2 3 -3 5.5t-2 7.5q0 7 2 13t7 15q27 38 103.5 87t174.5 91q130 55 244 72q11 1 19 2t18.5 1.5t28.5 0.5q35 0 50 -2t31 -8q37 -12 50 -39q2 -4 3 -7t1 -7v-12q0 -11 -0.5 -16t-2.5 -11q-24 -80 -234 -249q-33 -26 -76.5 -59.5t-122.5 -92.5
q-111 -84 -160 -122.5t-70 -59.5q-33 -34 -33 -51q0 -14 28 -25q16 -7 73 -21q107 -25 142 -56q40 -32 40 -80q0 -22 -8 -47q-43 -124 -262 -304q-163 -131 -266 -160q-16 -4 -26 -4h-15q-9 0 -16 1zM-25 37q34 8 73 28q119 62 264 193q4 4 14.5 14t22.5 22l2 2l18.5 18.5
t4.5 7.5l-1 1q-1 1 -9 1l-1 1q-42 0 -142 -45q-54 -25 -107 -56.5t-89 -59.5q-82 -67 -94 -112q-1 -3 -1 -6q0 -9 8 -11q3 -1 9 -1h7q12 0 21 3z" />
    <glyph glyph-name="bracketleft" unicode="[" horiz-adv-x="1108" 
d="M30 -4q-3 0 -8.5 3t-11 7t-7.5 7q-3 4 -3 10q0 4 1 8q2 4 17 28.5t36 59.5q154 247 240.5 387t152.5 250.5t161 270.5q123 210 173 306l18 35l-6 1q-9 1 -11.5 6t-2.5 8q0 5 3 10q1 2 3 3.5t3 2.5q1 0 5 1.5t9 3.5q12 7 20 7q9 0 14 -9q2 -3 4 -4t8 -1q9 0 47.5 4.5
t79 10t56.5 8.5q9 2 20 4.5t17 4.5q15 4 20 4.5t6 0.5q5 0 8 -2q5 -4 5.5 -8t0.5 -5q0 -5 -3 -9q-4 -4 -15.5 -9.5t-25.5 -10.5q-10 -2 -50 -7.5t-85 -10.5t-70 -7l-26 -2l-8 -17q-42 -94 -205 -370q-127 -215 -231.5 -386t-287.5 -464q-20 -33 -34 -55.5t-14 -23.5h3
q2 0 4.5 -1.5t5.5 -4.5l7 -5l36 10q66 20 137 45q15 5 26.5 8.5t14.5 4.5h2q8 0 12 -5t3.5 -12t-7.5 -12q-32 -18 -147 -52q-94 -27 -116 -27h-4z" />
    <glyph glyph-name="backslash" unicode="\" horiz-adv-x="922" 
d="M902 0q-8 4 -9 13q-36 58 -187 289q-187 285 -402 620t-304 497v4q0 7 4 11q3 4 8 4q3 0 8.5 -2t12.5 -19q75 -138 240.5 -396t337.5 -519q117 -180 202.5 -312t108.5 -176v-4q0 -6 -5 -10q-3 -2 -7 -2q-3 0 -8 2z" />
    <glyph glyph-name="bracketright" unicode="]" horiz-adv-x="1071" 
d="M12 -2q-9 4 -10.5 9.5t-1.5 7.5q0 5 4 9q2 3 6 4.5t11 2.5q6 2 24.5 6t42.5 9l8 2q26 5 53 11t42 10l34 7l24 39q11 18 29 48.5t35 59.5q246 412 528 855q61 96 93.5 147.5t48.5 78.5t28 49q19 36 19 43v1q-1 2 -15 2h-11q-25 -1 -59 -4.5t-61.5 -7.5t-35.5 -8
q-5 -2 -9 -2q-7 0 -13 7q-4 5 -4 10q0 4 2 8q1 6 10.5 10t34.5 7.5t74 8.5q43 4 59 5t23 1q8 0 12 -1q9 -1 17 -6q10 -5 13.5 -9.5t3.5 -9.5q0 -2 -1 -5q-3 -13 -19.5 -48t-35.5 -67q-21 -37 -39 -66t-42.5 -68.5t-68.5 -107.5q-199 -312 -405 -652q-41 -68 -64.5 -107
t-66.5 -111q-21 -36 -36 -60l-9 -16l-9 -14l10 2q13 4 19 4t10 -4q3 -2 4.5 -4.5t1.5 -6.5v-2q0 -19 -51 -28q-8 -2 -15.5 -4t-10.5 -3q-6 -3 -16 -3q-4 0 -9.5 -0.5t-18.5 -3t-36 -7.5t-61 -13q-3 0 -6 -1q-23 -4 -37.5 -7t-23 -5t-12 -2h-4.5h-7z" />
    <glyph glyph-name="underscore" unicode="_" horiz-adv-x="626" 
d="M107 537q-7 4 -7 8v5q0 7 5 10q1 0 3 0.5t6 0.5t11.5 0.5t20.5 0.5t32.5 0.5t46.5 0.5t63 1q52 0 78 1.5t38 3.5q5 1 8 1q4 0 6 -1q5 -1 7 -7q1 -3 1 -4q0 -2 -1 -5q-1 -2 -3 -4t-4 -3q-5 -3 -16 -5.5t-25 -3.5q-10 0 -50.5 -0.5t-90.5 -0.5t-87.5 0.5t-41.5 0.5z" />
    <glyph glyph-name="a" unicode="a" horiz-adv-x="298" 
d="M-25 538q-20 7 -20 26q0 9 5 21q10 24 42 58.5t69 62.5q56 41 91 41q14 0 25 -7q9 -8 10 -22q0 -3 0.5 -5t1.5 -3.5t3 -3.5q6 -5 6 -10v-3q-3 -6 -8 -12q-22 -28 -33 -59q-5 -12 -5 -20q0 -15 17 -15h6q16 2 38.5 11t43.5 23q29 19 48 36q14 11 21 11q2 0 4 -1q3 -2 3 -6
q0 -6 -7 -16q-23 -29 -55 -47q-22 -15 -51 -27.5t-50 -12.5q-9 0 -17 2q-29 11 -29 42q0 5 1 11q1 4 1 7l1 2q0 1 -1 1l-7 -5q-8 -6 -19 -15q-63 -47 -99 -60q-10 -4 -17.5 -5t-11.5 -1t-7 1zM5 571q33 13 90 56q13 10 34 29t31 34q10 16 10 24v2q-2 5 -8 5h-4
q-9 -2 -21 -7.5t-21 -10.5q-36 -22 -75.5 -61t-53.5 -66q-3 -7 -3 -9q0 -1 2 -1h3q3 1 7.5 2t8.5 3z" />
    <glyph glyph-name="b" unicode="b" horiz-adv-x="327" 
d="M-15 565v3q0 41 26 95q27 57 63.5 112t64.5 92q148 195 352 349q127 96 198 108q7 2 12 2t11 -1q9 -1 14 -3t10 -6q11 -10 11 -25q0 -14 -8 -31q-17 -35 -74 -95.5t-133 -124.5q-100 -83 -215 -157.5t-192 -106.5q-8 -3 -13 -5l-6 -3q-2 -2 -7.5 -11t-13.5 -22t-16 -27
q-44 -75 -52 -122q-2 -9 -2 -17q0 -13 6 -23q6 -9 20 -9q7 0 17 3q19 7 42.5 26t37.5 38q3 5 6 11t4 10t1 6v1l-2 1q-3 1 -7 2q-30 9 -32.5 20t-2.5 15q0 13 11 24q8 8 19 8q7 0 15 -4q15 -7 25 -28l5 -10q38 -14 80 -14t81 18q15 6 23 6q9 0 9 -7q0 -14 -32 -29
q-9 -3 -33.5 -7.5t-41.5 -5t-22 -0.5q-26 0 -48 5q-5 1 -8 2q-3 2 -5 2t-3 -3l-3 -9q-15 -46 -74 -88q-25 -16 -41.5 -19t-23.5 -3q-17 0 -31 9q-19 12 -22 48zM180 834q218 124 387 276q136 127 150 178v2q0 3 -2 4t-11 1q-49 0 -160.5 -77.5t-229.5 -194.5
q-63 -63 -117 -130q-7 -9 -17 -22l-20 -26t-17 -22.5t-7 -10.5q2 0 13 6q13 6 31 16zM141 669q-2 2 -4 2q-1 0 -1 -2q0 -1 1.5 -1.5t2.5 -1t2 -0.5h1l-1 1q0 1 -1 2z" />
    <glyph glyph-name="c" unicode="c" horiz-adv-x="269" 
d="M1 575q-1 7 -1 15v9q0 14 3 26q20 71 95 115q33 18 54 18q9 0 16 -3q16 -9 15.5 -29t-9.5 -32q-8 -11 -12 -11h-5q-6 0 -8 4t-2 7q0 5 4 12q8 11 8 18q0 3 -3 5q-2 2 -6 2q-7 0 -18 -5q-19 -8 -40 -23q-59 -46 -64 -103v-4q0 -15 6 -21q6 -8 17 -9q28 0 74.5 18.5
t71.5 31.5q47 24 76 41q24 14 36 14q4 0 7 -2t3 -5q0 -8 -17 -22q-7 -5 -21 -14q-45 -28 -86 -46q-31 -15 -72.5 -29t-70.5 -14h-11q-29 3 -40 36z" />
    <glyph glyph-name="d" unicode="d" horiz-adv-x="409" 
d="M9 245q-9 4 -9 13q0 3 1 6q4 12 28 51t56 84q94 134 211.5 289.5t196.5 252.5q6 7 10 12t4 6q-1 0 -31.5 -27.5t-82.5 -74.5q-83 -76 -125.5 -115t-71.5 -63q-126 -106 -187 -133q-16 -7 -28 -7q-6 0 -11 2q-15 7 -15 23q0 11 7 26q19 34 57 70t70 51q20 9 42 9h5
q25 0 31 -27l20 17q50 43 160 144q50 46 77 70.5t61 54.5q60 54 102 90t48 40q6 3 10 3q5 0 8 -3q6 -4 6 -13v-3q0 -2 -9 -12.5t-30 -35.5q-122 -138 -272 -337q-69 -91 -147 -198t-110 -153q-53 -80 -57 -95q-2 -11 -8 -14.5t-10 -3.5t-7 1zM3 575q30 14 83 53
q11 9 24.5 19.5t23 18.5t10.5 9l-3 3q-2 2 -2 8q0 7 -4.5 7h-6.5q-5 0 -10 -1q-8 -2 -12 -4q-39 -16 -85 -67q-8 -10 -16 -20.5t-13.5 -19t-5.5 -11.5h1q3 0 16 5z" />
    <glyph glyph-name="e" unicode="e" horiz-adv-x="253" 
d="M24 543q-28 10 -31 25.5t-2 26.5q1 12 7 26q18 39 52 70t64 46q12 6 25 8q8 2 16 2q14 0 23 -6q17 -8 16 -17v-8q-2 -16 -24 -32q-43 -29 -89 -29q-14 0 -28 2q-19 -17 -26 -35t-7 -24q-2 -17 11 -27q10 -5 26 -5h10q22 1 37 5q47 10 111 38q20 9 29 15q17 9 25 9h3
q6 -2 5 -8q0 -2 -1 -4q-4 -9 -18 -19q-14 -8 -39 -19q-76 -34 -127 -41q-19 -3 -35 -3q-19 0 -33 4zM95 680q18 2 38 11l14 8q16 10 16 15q1 1 0 2q-3 4 -11 4q-4 0 -10 -1q-15 -3 -37 -18q-7 -4 -14 -10q-12 -9 -13 -12q0 -1 3 -1q4 0 14 2z" />
    <glyph glyph-name="f" unicode="f" horiz-adv-x="239" 
d="M-176 351q67 142 181 294l23 31l-2 3q-8 11 -8 21t6 14q4 2 8 2q7 0 14 -8l5 -4l19 23q8 10 20 24.5t23 26.5q57 67 112.5 123.5t73.5 67.5q4 2 8 2q3 0 6 -2q6 -3 6 -11q0 -4 -1.5 -6.5t-6.5 -5.5q-14 -10 -47.5 -44t-74.5 -80q-27 -30 -54 -61.5t-46 -54.5t-19 -25
q0 -1 11.5 -4t25.5 -5q8 -1 19 -1.5t30 -0.5q35 0 60 3.5t55 12.5q11 4 19 4q5 0 8 -2q5 -2 5 -7v-3q-2 -7 -12 -13q-22 -12 -56 -18t-57 -6h-29q-32 0 -58 4q-5 1 -8 2h-3v-1q0 -1 1 -3q1 -3 3 -8q20 -42 20 -92q0 -47 -18 -101q-44 -129 -149 -236q-20 -21 -47 -41
t-47 -28t-33 -8q-10 0 -18 4q-21 12 -21.5 27.5t-0.5 17.5q0 26 9 58q10 35 23 65.5t21 47.5q0 1 1 2zM-78 231q91 97 133 208q20 57 20 105q0 32 -9 59q-2 7 -6.5 17t-9 18.5t-5.5 9.5q-1 0 -7.5 -8t-15.5 -21q-119 -159 -187 -314q-6 -12 -18 -43.5t-16 -51.5t-4 -28
q0 -16 9 -23q4 -2 9 -2q12 0 28 10q24 14 46 33.5t33 30.5z" />
    <glyph glyph-name="g" unicode="g" horiz-adv-x="347" 
d="M-354 -34q-7 1 -14 5t-11 9q-2 2 -4 5.5t-4 6.5l-2 6t-1 6.5v10.5q0 14 3.5 26t11.5 28q32 63 106 127.5t167 110.5q84 42 158 55q7 1 12 2t6 2q0 1 5 7t11 15q144 197 146 299q0 10 -0.5 12t-2.5 2q-1 0 -4 -1q-2 -1 -15 -10t-32 -22q-113 -82 -173 -112
q-25 -13 -39 -13q-13 0 -18 11q-3 4 -3 9q0 26 59 85q48 50 86 68q24 13 39 13.5t16 0.5q27 0 48 -17l9 6q18 12 31 12q10 0 17 -7q11 -12 11 -38t-12 -67q-29 -93 -128 -232l-15 -20l14 -1q75 -6 135 -55q9 -7 14.5 -13t11.5 -14q12 -19 12 -32v-2q-2 -12 -7.5 -15t-8.5 -3
q-5 0 -9 4q-2 2 -2.5 4.5l-1.5 7.5v3q0 6 -3 12q-4 7 -16 19q-38 37 -99 52q-9 2 -22.5 3t-25.5 1t-14 -2q-1 -1 -5.5 -6.5t-11.5 -13.5q-80 -102 -160 -182q-28 -28 -49.5 -47.5t-44.5 -38.5q-104 -83 -158 -83q-7 0 -13 1zM-2 583q41 21 105 64q16 11 32.5 22.5t27.5 19.5
t11 9q-1 3 -17 4q-4 1 -9 1q-50 0 -119 -73q-11 -11 -21.5 -23.5t-16.5 -20.5t-6 -9q1 0 4.5 1.5t8.5 4.5zM-321 -3q31 9 82 44q120 86 261 259q6 7 10 12t6.5 8.5t4 5.5t2.5 3v1h-1q-1 0 -11 -2.5t-21.5 -5.5t-18.5 -6q-107 -37 -203 -109q-28 -20 -56 -46t-46 -48
q-49 -62 -49 -99v-7q3 -14 19 -14q9 0 21 4z" />
    <glyph glyph-name="h" unicode="h" horiz-adv-x="370" 
d="M174 526q5 13 11 22q1 4 2 6q17 34 48 90q23 41 29 54.5t6 18.5q0 3 -2 3h-3q-9 0 -35 -10q-30 -12 -64 -30q-112 -62 -201 -148q-7 -8 -13 -12q-9 -7 -15 -7h-2q-7 1 -9 6t-2 8q0 4 1 7q1 2 5 8t10 12q5 7 13.5 18.5t15.5 22.5q20 28 36.5 51t39.5 53l18 24q26 34 52 67
q4 6 9 12q7 8 14 17q240 300 437 481q93 85 152 113q22 10 41 10q10 0 19 -3q17 -6 17 -28q0 -10 -4 -24q-27 -80 -220 -268q-146 -144 -283 -245q-97 -73 -163 -100l-15 -6l-11 -14l-22.5 -30l-33 -44t-23.5 -31q-3 -5 -4 -7l-2 -2q1 0 5.5 3.5t10.5 7.5q61 45 122.5 77.5
t95.5 38.5q5 1 10 1q19 0 28 -14q2 -4 2.5 -7t0.5 -9q0 -8 -3 -18t-11.5 -27t-24.5 -46q-9 -16 -19 -35t-18 -33q-4 -8 -6 -13q-2 -3 -4 -7q-5 -10 -12 -22q-14 -21 -23 -21h-2q-5 2 -5 10q0 7 4 19zM180 809q82 50 203 151q101 83 204 187q168 168 187 234q1 5 1 8
q0 4 -2 6q-1 1 -5 1q-3 0 -9 -1q-55 -15 -175 -124q-14 -14 -43.5 -42.5t-59.5 -59.5t-47 -49q-98 -105 -206 -236q-15 -18 -31 -37.5t-28 -34t-13 -16.5h1l3 1q2 1 7 4t13 8z" />
    <glyph glyph-name="i" unicode="i" horiz-adv-x="243" 
d="M150 789q-6 3 -8 7.5t-2 7.5q0 4 3 9q3 4 10.5 8.5t12.5 4.5q3 0 5.5 0.5t4.5 1.5q4 2 7 2q6 0 9 -6q2 -4 2 -7v-2q-2 -4 -7 -10q-9 -10 -17.5 -13.5t-13.5 -3.5q-3 0 -6 1zM1 635q17 26 42 53q14 16 25.5 26.5t16.5 12.5q3 1 5 1q7 0 12 -8q1 -3 1 -6v-3q-1 -5 -7 -14
q-6 -12 -13 -12h-3q-1 0 -3 -1t-5 -4.5l-9 -10.5q-29 -33 -41 -54q-13 -22 -13 -33q0 -14 17 -14q10 0 24 4q22 4 53 17q37 14 81.5 36t68.5 37q17 9 25 9q7 0 9 -5q1 -2 1 -4q0 -10 -19 -24q-14 -9 -53 -29q-100 -52 -157 -66q-18 -4 -32 -4q-34 0 -43 21q-4 8 -4 19
q0 23 21 56z" />
    <glyph glyph-name="j" unicode="j" horiz-adv-x="151" 
d="M81 815q-7 4 -7 13v2q1 5 4 8.5t11 7.5q10 5 17 5q8 0 13 -6q2 -3 2 -7q0 -2 -1 -5q-3 -7 -9 -7q-3 0 -5 -1.5t-4 -3.5q-3 -4 -7 -6.5t-8 -2.5q-1 0 -2.5 1t-3.5 2zM-638 1q-22 9 -22 32q0 9 3 19q13 40 74 96q69 61 169.5 121.5t182.5 89.5q16 6 20 6h3q2 0 4 2.5t6 7
t12 12.5q73 86 134.5 170t85.5 131q3 5 4.5 8t1.5 5v5v6q0 2 1 5q3 3 7.5 7t8.5 5h2q5 0 9 -4t4 -10v-3q-9 -42 -95 -164q-70 -98 -163 -204t-176 -182q-134 -121 -224 -156q-11 -4 -16.5 -5t-15.5 -1h-9q-8 0 -11 1zM-595 33q13 5 34.5 16.5t40.5 23.5q89 59 188 157
q11 11 26 26.5t29.5 30.5t24 25.5t9.5 11.5q-1 0 -15 -5.5t-33 -15t-36 -18.5q-139 -74 -232 -154q-14 -12 -30.5 -29.5t-24.5 -28.5q-11 -16 -14.5 -25t-3.5 -13t2 -6q3 -1 8 -1h5q10 1 22 5z" />
    <glyph glyph-name="k" unicode="k" horiz-adv-x="305" 
d="M-176 377q-4 3 -4 9v4q0 2 2 6t6 11.5t11 19.5q32 54 109 150q101 126 211 246q108 117 224 221q155 139 234 172q22 8 34 8h4q20 -6 20 -25v-2q-1 -7 -6.5 -17.5t-13.5 -21.5q-14 -17 -48 -51t-72 -68q-32 -28 -76 -65t-74 -61q-124 -98 -244 -165l-23 -13l-15 -17
q-2 -3 -4 -5q-7 -8 -9.5 -11.5t-2.5 -4.5q2 0 6 2q2 0 3 1q8 2 25 7q8 3 15 5q51 15 84 27q13 6 16.5 6h4.5q4 0 7 -3q4 -4 4 -9q0 -3 -2 -6t-7 -6t-18 -8q-2 0 -5 -2q-9 -3 -19 -7q-7 -2 -19.5 -6t-23.5 -8q-12 -4 -31.5 -10t-36.5 -12q-6 -2 -11 -4q-18 -4 -31 -11.5
t-22 -24.5q-1 -3 -1 -6q0 -5 2 -8q3 -7 11 -12q25 -17 55 -19t44 -2q30 0 60 4q45 6 70 16q12 6 18 6q5 0 8 -4t3 -8q0 -11 -23 -20q-32 -14 -70.5 -18t-62.5 -4q-28 0 -55 4q-51 7 -77 31l-8 9l-29 -37q-35 -44 -53 -68t-32 -44q-8 -13 -19.5 -31.5t-17.5 -29.5
q-3 -7 -7 -10t-9 -3t-9 3zM225 832q95 62 192 144q67 56 115 99q16 14 36 33.5t37 37t23 24.5l8 10t6.5 9t2.5 5t-2 1t-6 -2q-7 -2 -17.5 -7t-19.5 -10q-158 -95 -402 -355q-2 -1 -3 -2q-9 -10 -9 -11h1q3 1 32 20z" />
    <glyph glyph-name="l" unicode="l" horiz-adv-x="177" 
d="M-191 349q-9 4 -9 14q0 5 3 11t12 18q16 25 62.5 85.5t95.5 121.5q80 100 164 195q113 130 217 236q167 169 234 192q7 2 13 2q10 0 17 -5q9 -5 9 -18q0 -3 -1 -7q-8 -36 -89 -121t-216 -200q-117 -99 -197 -148l-20 -12l-22 -26q-94 -112 -196 -246q-31 -40 -43.5 -58
t-15.5 -25q-5 -10 -13 -10q-2 0 -5 1zM211 820q104 82 204 174.5t152 156.5q7 8 13.5 17t10.5 15.5t4 8.5q0 1 -1 1t-3 -1l-8 -4q-106 -57 -369 -349q-31 -35 -38 -43l-1 -1v-1q1 0 6 4q7 5 30 22z" />
    <glyph glyph-name="m" unicode="m" horiz-adv-x="491" 
d="M-63 576q8 9 25 25l46 46l37.5 37.5l22.5 22.5t12 11t6 3l4 1q5 0 8 -5q4 -4 4 -8q0 -2 -1 -4v-1l-1 -2l2 1q1 0 4 2t9 7l4 2q23 16 47 30.5t37 20.5q17 8 29 8q17 0 22 -16q1 -3 1 -6q0 -10 -10 -28q-13 -24 -48 -71q-8 -12 -14 -19.5t-6 -8.5l8 4q7 4 17 10
q39 23 71 39.5t46 22.5q14 4 23 4t13 -4q8 -8 8 -23v-4q-2 -18 -7 -36q-4 -13 -5.5 -20.5l-2.5 -12.5q-1 -7 -1 -12q0 -22 16 -22q8 0 21 6q26 13 64 38.5t61 43.5q11 9 18 9h2q7 -2 7 -9v-2q-1 -9 -16 -21q-9 -7 -31.5 -23t-48.5 -32.5t-44 -26.5q-19 -9 -34 -9
q-11 0 -20 4q-23 10 -23 48q0 7 1 12.5t2.5 13t5.5 20.5q2 8 4 14q3 11 3 15q0 3 -1 3h-1q-5 0 -24 -10h-1q-39 -19 -100 -55q-19 -12 -30 -18t-17 -8.5t-10 -3.5h-3q-10 0 -14 7q-4 4 -4 11q0 4 2 9q2 6 12 21t32 44q46 63 46 71q-4 0 -25 -13q-23 -13 -51 -31
q-64 -44 -144 -111q-20 -17 -37 -30q-6 -5 -9 -8q-17 -12 -26 -12q-5 0 -8 3q-2 2 -2 6q0 10 17 30z" />
    <glyph glyph-name="n" unicode="n" horiz-adv-x="392" 
d="M195 574v5q0 11 4 27q6 18 21 53q8 18 12.5 32t4.5 18q0 1 -1 1h-5q-19 -2 -79 -33q-73 -37 -163 -103q-3 -1 -6 -4q-8 -6 -17 -12.5t-16.5 -11.5t-9.5 -6q-4 -2 -8 -2q-6 0 -10 6q-2 3 -2 7q0 7 5 15q9 10 39 39q21 20 45 45q14 14 25 25.5t14 15.5t6.5 7.5t6.5 5.5l8 4
l3 -1q11 -2 11 -11t-9 -18q-2 -1 -6.5 -6l-9 -10t-7 -8t-2.5 -4q87 55 143 78q27 11 44 11q18 0 25 -13q2 -3 2.5 -5t1 -4.5t0.5 -7.5q0 -11 -3.5 -23t-13.5 -34q-1 -3 -3 -6q-12 -26 -17 -42.5t-5 -23.5q0 -10 7 -15q3 -2 9 -2q13 0 42 13q22 10 41 23t30 20
q17 12 30.5 22.5t18.5 14.5q22 16 30 16h1q5 -1 5 -7q0 -3 -1 -7q-5 -12 -20 -24q-4 -4 -10 -8q-15 -13 -39 -30q-3 -3 -7 -5q-33 -25 -71 -43q-17 -8 -31 -10t-20 -2q-13 0 -24 5q-16 8 -19 33z" />
    <glyph glyph-name="o" unicode="o" horiz-adv-x="205" 
d="M-15 539q-4 1 -7.5 4.5t-5.5 6.5q-2 6 -2 13q0 17 12 42q18 36 47.5 73.5t55.5 60.5q18 16 34 16q3 0 6 -1q18 -3 24 -34q1 -7 1 -14q0 -24 -10 -46l-6 -10q10 -2 20 -2q39 0 76 25q7 3 14 3h3q7 -2 8 -6v-3q0 -6 -7 -12q-30 -24 -59 -29t-45 -5t-28 3l-6 -7
q-21 -23 -48 -44.5t-47 -30.5q-8 -3 -14 -3.5t-8 -0.5q-5 0 -8 1zM124 712q0 9 -3.5 11.5t-5.5 2.5q-4 0 -10 -4q-9 -7 -19.5 -18.5t-14.5 -19.5q0 -2 4.5 -6.5t10.5 -9.5t10 -7l8 -4l5 8q15 23 15 47zM9 571q31 16 66 51l11 12l-6 3q-7 4 -14.5 10t-10.5 9l-2 4l-10 -13
q-12 -17 -23.5 -35.5t-16.5 -29t-5 -13.5q0 -2 2 -2q1 0 3.5 1t5.5 3z" />
    <glyph glyph-name="p" unicode="p" horiz-adv-x="329" 
d="M-496 11q-2 2 -3 4t-1 6q0 3 0.5 5t2 5t5.5 8q11 17 39 53.5t64 82.5q34 42 60 73t63 72q12 15 29.5 35.5t31.5 37.5q80 98 196 232q54 62 80 95t38 53q5 8 8.5 8.5t4.5 0.5q6 0 10 -4q3 -3 3 -7v-2q-1 -6 -7 -15q-4 -7 -14.5 -21t-22 -29.5t-18.5 -24.5
q-14 -17 -41.5 -50t-44.5 -52q-6 -8 -12 -14q-8 -10 -9 -12l1 1q95 82 184 141q72 49 107 61q9 3 15.5 3.5t9.5 0.5q6 0 10 -1q16 -6 16 -24q0 -15 -12 -38q-14 -25 -39.5 -54t-52.5 -51q-22 -18 -49 -33.5t-50 -23.5q-26 -9 -44.5 -10.5t-22.5 -1.5q-28 0 -50 12l-19 -17
q-51 -46 -108.5 -103t-86.5 -90q-8 -10 -36.5 -45.5t-64 -80.5t-63.5 -80q-44 -55 -62.5 -77.5t-23.5 -26.5q-3 -4 -5.5 -5t-6.5 -1q-3 0 -5 1t-4 3zM111 565q40 18 78 49q24 19 48.5 46.5t37.5 54.5q4 9 4.5 11t0.5 3t-1 1q-6 0 -26 -9t-40 -21q-22 -14 -54 -36t-60 -42
q-20 -15 -39 -30.5t-32 -26t-13 -12.5q14 -3 29 -3q11 0 22 2q25 5 45 13z" />
    <glyph glyph-name="q" unicode="q" horiz-adv-x="409" 
d="M-262 -131q-29 10 -36 41q-2 8 -2 23t3 28q10 45 40 105q79 150 239 336l19 22l-14 17q-6 7 -11 13.5t-8 8.5q-4 4 -5 6t-1 6q0 6 3 10t8 4q2 1 4 1t4 -1q3 -1 8 -5q6 -6 19 -10t26 -5h6l22 24q31 34 60.5 64.5t79.5 80.5q31 30 67 67q-47 -34 -106.5 -73t-100.5 -62
q-51 -28 -75 -28h-8q-3 0 -5 0.5t-5 1.5q-12 6 -12 22q0 5 1 9t4 10q11 23 45 58q37 38 74 65.5t63 35.5q8 3 17 3t14 -2t9 -6t6 -8q4 -8 4 -18t-4 -23l-2 -7l14 10q18 12 35.5 24.5t40.5 30.5q66 50 79 50q7 0 11.5 -4.5t4.5 -11.5q0 -2 -1 -5t-3 -7t-5.5 -9t-11 -13
t-23 -24t-41.5 -42t-67 -66q-27 -27 -57.5 -58.5t-54 -56t-29.5 -31.5l-2 -3q84 7 181.5 56.5t150.5 115.5q10 11 18 11h1q7 -1 8.5 -6.5t1.5 -7.5q0 -6 -4 -12q-54 -70 -159 -123t-224 -62l-7 -7q-5 -7 -5 -9q1 -1 3.5 -4t5.5 -8q2 -3 4 -5q40 -51 44 -110q1 -9 1 -19
q0 -82 -70 -188q-52 -76 -119 -136t-122 -80q-9 -3 -14.5 -4t-14.5 -1h-9q-8 0 -11 1zM-1 573q45 15 158 89l24 16l-5 1q-2 0 -4 1t-4 3q-1 1 -1.5 2t-0.5 2.5v3.5v5q1 6 1 10.5t0.5 7t0.5 3.5t-0.5 1.5l-1.5 1.5t-4 1q-5 0 -13 -3q-13 -5 -29 -16q-34 -22 -71.5 -57.5
t-55.5 -61.5q-6 -9 -6 -12q0 -1 1 -1l4 1q3 1 7 2zM-221 -100q58 20 137 99q80 80 123 167q30 59 30 109v3q0 56 -30 98q-7 11 -12.5 18t-7.5 7q-172 -197 -252 -353q-39 -76 -39 -116q0 -27 15 -34q5 -2 13 -2q10 0 23 4z" />
    <glyph glyph-name="r" unicode="r" horiz-adv-x="189" 
d="M-45 576q7 9 20.5 27t25.5 31q6 7 18.5 22t25.5 31q19 25 28 36.5t13 17t8 11.5q9 13 13 13.5t5 0.5q6 0 9 -6q1 -2 1 -5q0 -5 -3 -12q-2 -4 -7 -11.5t-10 -14.5t-8 -11l-2 -2q4 1 7 1q10 0 17 -6q11 -7 16 -20q10 -25 29 -25h3q20 2 44 16q10 6 17 6h3q6 -1 6 -8t-7 -14
q-11 -11 -30 -18q-21 -8 -38 -8q-5 0 -10 1q-22 4 -37 27q-3 4 -5 8q-4 9 -7.5 9.5t-4.5 0.5q-6 0 -17 -7q-18 -12 -39.5 -36t-35.5 -42q-4 -5 -9 -12q-4 -5 -8 -10.5t-6 -7.5q-11 -12 -19 -12h-1q-8 0 -9 5.5t-1 7.5q0 7 5 16z" />
    <glyph glyph-name="s" unicode="s" horiz-adv-x="262" 
d="M-288 301q12 17 30 37q81 87 247 182l16 9v15q0 73 11 104q24 69 116 125q30 18 44 18q9 0 12 -8q2 -3 2 -6q0 -4 -3 -8q-4 -7 -20 -17q-9 -6 -12.5 -7t-5.5 -1q-3 0 -5 2h-2.5t-4.5 -2.5t-9 -6.5q-53 -37 -76 -77q-9 -16 -12.5 -34t-4.5 -49q-1 -13 -1 -22v-9q1 0 12 6
t28 15q11 6 42.5 22.5t69.5 35.5t69 33q29 13 42 13q8 0 10 -5v-2q0 -11 -42 -33q-39 -18 -95.5 -46.5t-109.5 -57.5q-3 -2 -6 -3q-9 -5 -15 -8l-6 -4l-1 -2q-1 -5 -2 -15q-12 -68 -55.5 -134.5t-107.5 -114.5q-51 -38 -100 -49q-14 -2 -25 -2q-36 0 -47 24q-5 11 -5 23
q0 26 22 59zM-233 226q47 13 95.5 52.5t87.5 96.5q37 58 50 114l1 4l-9 -5q-25 -13 -62 -37.5t-65 -43.5q-109 -80 -140 -139q-7 -16 -7 -26q0 -9 6 -14q7 -5 20 -5q9 0 23 3z" />
    <glyph glyph-name="t" unicode="t" horiz-adv-x="169" 
d="M-266 235q-4 3 -4 9q0 7 6 19q43 85 261 364q44 57 102 129.5t98 120.5l15 18l-18 -1q-7 -1 -21 -1.5t-28 -1.5q-47 -3 -101.5 -5t-78.5 -3q-12 0 -18.5 0.5t-9 1t-4.5 0.5q-6 4 -6 8v5q0 6 4 9t11.5 4t10.5 1q4 0 7 -1h20q17 0 58.5 2t115.5 7q22 1 36.5 2t24 1.5
t14.5 1.5t7 2h2q2 2 15.5 18t32.5 39t35.5 42.5t21.5 26.5q76 90 103 126q7 10 11 15t5 8t1 6q0 9 7 14q4 2 8 2q3 0 6 -1q7 -3 8 -12q0 -3 -0.5 -6t-2.5 -7q-7 -17 -44.5 -65.5t-122.5 -148.5q-19 -24 -32 -39.5t-13 -16.5q1 0 21.5 1t51.5 3q213 13 370 21q35 1 52.5 2
t26 1.5t17.5 2.5q5 1 9 1q3 0 5 -1q5 -1 7 -5t2 -8q0 -2 -1 -5q-4 -6 -14 -9q-6 -1 -14 -2.5t-24.5 -2.5t-47.5 -2q-152 -7 -429 -24q-22 -1 -38 -2t-18 -2q-1 0 -2.5 -1.5t-5 -5.5t-10 -12t-17.5 -21t-27 -32q-172 -212 -290 -369q-51 -69 -82 -114t-51 -81
q-6 -9 -10.5 -16.5t-6.5 -9.5q-4 -3 -6.5 -3h-3.5q-4 0 -7 3z" />
    <glyph glyph-name="u" unicode="u" horiz-adv-x="353" 
d="M164 583q0 16 8 35q1 4 2 7l1 3q-1 0 -4 -2t-7 -5q-51 -36 -102 -62q-39 -20 -59 -20h-4q-19 0 -25 10q-4 7 -4 16q0 5 1 11q3 16 11 31q14 28 38 58q6 7 8 11t2 6q0 13 23 26q8 4 14 4q8 0 11 -9q1 -2 1 -4q0 -3 -2 -5q-2 -5 -9 -13q-27 -29 -47 -60.5t-24 -49.5
q0 -3 0.5 -3.5t2.5 -0.5q7 0 24 6t35 16q34 18 70.5 43t60.5 46q29 25 37 26h2q6 0 10 -4t4 -10v-3q-1 -2 -3.5 -6.5t-5.5 -9.5q-40 -58 -41 -88q0 -20 7 -20.5t9 -0.5q11 0 25 7q16 9 26 16q2 1 3 1q55 36 103 73q18 12 26 12q2 0 4 -1t2 -4q0 -7 -18 -24q-50 -42 -106 -79
q-19 -13 -38.5 -20t-31.5 -7q-11 0 -20 4q-19 7 -20 43z" />
    <glyph glyph-name="v" unicode="v" horiz-adv-x="319" 
d="M-48 474q-5 2 -7 4.5t-4 7.5q-1 4 -1 10q0 10 4 25q8 22 35 68.5t61 96.5q5 7 7 10t2 5v5v6q1 3 3 6q2 2 6 5.5t9 6.5q6 5 9 6.5t6 1.5q13 -1 13 -13q0 -2 -1 -4l-3 -6t-6.5 -10.5t-11.5 -17.5q-82 -124 -101 -173q-1 -4 -2 -6.5t-1 -3.5q2 0 16 9q16 10 41 30
q56 44 84.5 66t53.5 41q73 54 122 88.5t59 37.5q3 1 6 1q4 0 8 -2q5 -4 5 -11v-2q0 -4 -3 -7t-13 -9q-33 -20 -113.5 -79t-162.5 -124q-36 -29 -56.5 -44t-32 -21t-19.5 -6h-4q-6 0 -8 2z" />
    <glyph glyph-name="w" unicode="w" horiz-adv-x="445" 
d="M150 453q-19 8 -19 37q0 16 5.5 36.5t20.5 62.5q20 54 20 62q0 1 -0.5 1h-1.5t-4 -1q-11 -4 -36 -19t-56 -35q-20 -14 -37 -26.5t-42 -31.5q-8 -7 -15.5 -12.5t-9.5 -6.5q-6 -3 -10 -3t-8 2q-7 4 -7 13q0 2 1 6t3 8q6 13 31 55.5t52 86.5q7 11 11.5 19.5t5.5 10.5
q0 3 2.5 8t6.5 8q5 4 9 4q3 0 6 -2q8 -3 8 -12q0 -3 -1.5 -7t-6.5 -12t-14 -23q-11 -20 -25 -43.5t-23.5 -40t-9.5 -18.5l4 3q4 3 11 7q40 30 81.5 55.5t61.5 32.5q11 3 19 3q13 0 18 -9q4 -9 4 -20q0 -9 -3 -21q-5 -15 -15 -43q-16 -43 -22 -64.5t-6 -32.5q0 -9 1.5 -10
t3.5 -1q3 0 6 1q13 5 35 23.5t43 44.5q51 61 123 170q14 20 21.5 32.5t11.5 18.5t5 9.5t1 5.5q0 7 3.5 12.5t9.5 8.5q4 2 6 2t5 -1q5 -2 8 -7q3 -3 3 -8q0 -3 -1 -7q-3 -10 -16 -31.5t-41 -62.5q-105 -157 -158 -204q-40 -36 -67 -36q-6 0 -12 2z" />
    <glyph glyph-name="x" unicode="x" horiz-adv-x="269" 
d="M-130 434q2 4 8 12q23 30 85 89q16 15 28 26.5t15 14.5l6 6q4 60 18 98q6 21 13 35.5t12 18.5q4 4 9 4l3 -1q6 -2 8 -10v-3q0 -3 -1 -6q-1 -6 -4 -9q-2 -3 -6 -12t-8 -22q-1 -2 -4 -12.5t-6.5 -23t-5 -19.5t-1.5 -9q0 -3 1 -3l7 6q7 6 17 15q18 17 49.5 45.5t60.5 54.5
t39 35q17 13 23.5 13.5t8.5 0.5q8 0 11 -6q1 -3 1 -5q0 -4 -3 -7q-5 -5 -12 -8q-5 -2 -8 -5q-6 -5 -22.5 -20t-49.5 -46q-65 -59 -89 -82t-24 -24l2 -1q1 -2 4 -3q4 -2 7 -2.5t5 -0.5h10q38 0 130 53q69 38 88 50q6 4 9.5 5.5t6.5 1.5t5 -1t4 -3q4 -5 4 -10q0 -3 -2 -7
q-1 -3 -15 -12t-47 -28q-62 -35 -93.5 -50.5t-56.5 -22.5q-20 -5 -36 -5q-24 0 -40 11q-3 2 -5 3.5t-3 1.5q-2 -1 -16.5 -14.5t-32.5 -31t-31 -30.5q-10 -11 -21 -23t-17 -19t-11.5 -12.5t-7.5 -6.5q-6 -4 -11 -4q-3 0 -6 2q-4 4 -4 9q0 4 2 9z" />
    <glyph glyph-name="y" unicode="y" horiz-adv-x="324" 
d="M-247 5q-8 5 -8 14q0 19 97 153q208 293 379 487q7 9 12 15l5 6q-1 0 -13.5 -7.5t-28.5 -16.5t-28 -16q-10 -6 -27.5 -17t-34.5 -22q-53 -34 -76.5 -46.5t-37.5 -14.5q-4 -1 -8 -1q-10 0 -17 7q-8 6 -8 17q0 3 1 7q7 36 77 108q13 13 20 19t12 6q4 0 8 -4q5 -4 5 -9
t-5 -11q-2 -2 -4 -5t-3 -5q-5 -11 -13 -12q-2 0 -4 -1.5t-5.5 -5t-10.5 -11.5q-6 -7 -13.5 -16.5t-12.5 -16.5q-6 -7 -11.5 -15.5t-8 -14t-2.5 -7.5v-1l3 1q2 1 6 2q11 4 29.5 15t51.5 32q56 36 94 58.5t78 41.5q17 9 24.5 12.5t12.5 3.5q7 0 11.5 -4.5t4.5 -10.5
q0 -3 -1 -6t-5 -8t-11.5 -14t-20.5 -24q-104 -117 -199 -239q-73 -95 -149 -199.5t-119 -168.5q-11 -17 -16 -26t-7 -15q-1 -7 -5 -11t-9 -4h-4q-3 0 -5 1z" />
    <glyph glyph-name="z" unicode="z" horiz-adv-x="305" 
d="M59 466q-22 5 -32 21q-7 13 -7 28q0 24 21 52q43 51 179 135q9 5 15 9l6 4q-1 0 -13 -2t-28 -5t-28 -6q-42 -9 -63 -9q-16 0 -20 5q-5 6 -5 11q0 3 1 5q4 8 15 8q2 0 4.5 -0.5t4.5 -1.5t5 -1t9 1t17.5 3t29.5 6q85 19 112 19q9 0 12 -2q11 -5 11 -14t-9 -17q-3 -2 -14 -9
t-26 -16q-176 -106 -203 -155q-5 -12 -5 -21q0 -21 30 -22q20 0 66 19q6 2 9.5 3t5.5 1q7 -2 8.5 -6.5t1.5 -5.5q0 -5 -4 -9q-5 -4 -18.5 -11t-25.5 -11q-25 -8 -45 -8q-9 0 -17 2z" />
    <glyph glyph-name="braceleft" unicode="{" horiz-adv-x="992" 
d="M109 1q-78 15 -104 103q-3 9 -3.5 17.5t-1.5 24.5q0 12 0.5 18.5t1.5 12.5t3 13q18 72 83 161q128 169 325 304l20 13l-9 2q-30 5 -36 20q-1 4 -1 7q0 4 1 8q2 8 10 15q2 2 9.5 8t17.5 13q22 17 40.5 35.5t28.5 33.5q17 25 26.5 53.5t16.5 79.5q7 53 14.5 87.5t17.5 62.5
q52 156 193 268q81 64 145 72q9 1 17 1q46 0 63 -34q3 -7 4 -11.5t1 -14.5q0 -9 -1 -14.5t-4 -13.5q-5 -15 -15.5 -34t-20.5 -34.5t-15 -18.5q-3 -1 -6 -1q-6 0 -10 3q-6 4 -6 13q0 7 8 19q36 59 36 81q0 14 -14 21q-7 3 -20 3h-6q-16 -1 -32 -6q-75 -27 -162 -115
q-73 -74 -112 -172q-12 -32 -21 -69t-17 -93q-7 -46 -13.5 -72.5t-17.5 -49.5q-26 -53 -85 -100q-7 -6 -12.5 -10.5t-5.5 -5.5l4 -1q4 -1 11 -2q7 0 13.5 -1.5t9.5 -3.5q9 -4 11.5 -10t2.5 -10t-2 -9q-2 -4 -6.5 -8t-14.5 -11t-28 -20q-116 -76 -218 -180
q-149 -149 -182 -265q-4 -16 -4 -28v-15q0 -15 3 -27q12 -41 42 -64q20 -13 47 -13q29 0 65 14q13 5 33 15t36 19q13 8 22 8q6 0 9 -4q4 -4 4.5 -9.5t-1.5 -10.5q-2 -3 -12.5 -10t-24.5 -15.5t-26 -14.5q-37 -18 -68 -25q-13 -3 -25.5 -3h-19.5h-12z" />
    <glyph glyph-name="bar" unicode="|" horiz-adv-x="282" 
d="M102 9q-2 4 -2 7q0 4 2 8q3 70 8 317q5 284 15 611.5t29 502.5q4 9 12 11h2q7 0 11 -6q3 -4 3 -11t-2 -15q-17 -153 -25 -414t-12 -521q-4 -178 -7.5 -310t-8.5 -180q-4 -9 -12 -9t-13 9z" />
    <glyph glyph-name="braceright" unicode="}" horiz-adv-x="876" 
d="M154 3q-56 8 -96.5 33t-53.5 60q-3 11 -3.5 20t-0.5 12q0 11 2 19q10 34 24 34q6 0 12 -5q4 -3 4 -9t-3 -19q-3 -12 -3 -22q0 -9 2 -16q8 -23 38.5 -42.5t73.5 -27.5q16 -3 40 -3t37 2q72 15 143 73t126 148q10 18 22.5 43t18.5 43q20 54 20 107v4q0 49 -24 120
q-7 22 -10.5 34.5t-4.5 20.5t-1 18v12.5t1 7.5t3 7q13 31 63 40l14 3l-5 2q-70 29 -81 63q-2 5 -2.5 11t-0.5 18q0 9 0.5 14.5t1.5 10t3 10.5q11 31 39 72q19 29 45 62.5t86 104.5q21 25 41.5 50.5t30.5 38.5q84 108 84 160q0 13 -5 22q-16 32 -89 39q-10 1 -21 1
q-37 0 -84 -8q-60 -10 -113 -30q-6 -2 -9.5 -3.5t-5 -3.5t-3.5 -4q-6 -11 -16 -11q-5 0 -10 2q-8 4 -10 9t-2 9t2 9q8 14 75 36q98 30 176 30q33 0 62 -5q89 -22 89 -92q0 -20 -7 -44q-12 -36 -46 -86t-105 -134q-77 -92 -111 -138t-49 -76q-14 -28 -14 -46q0 -9 3 -16
q9 -21 56 -39q11 -5 20 -9t11 -5q8 -6 11 -12.5t3 -11.5q0 -4 -1 -7q-5 -22 -51 -31q-18 -3 -25.5 -6t-11.5 -8q-6 -6 -6 -17v-6q1 -15 14 -53q17 -54 21.5 -82.5t4.5 -50.5q0 -13 -1 -27q-9 -127 -118 -267q-14 -17 -41 -43.5t-44 -40.5q-83 -66 -162 -78q-15 -3 -35 -3
q-21 0 -38 3z" />
    <glyph glyph-name="exclamdown" unicode="&#xa1;" horiz-adv-x="766" 
d="M766 1135v-2q0 -3 -1 -6q-2 -4 -6 -8q-5 -6 -7 -9q-1 -3 -2.5 -4.5t-5.5 -2.5t-11 -2q-21 0 -21 11v1q0 12 18 23q1 0 1 1q10 6 15.5 7t7.5 1q8 0 12 -10zM680 1027q8 -3 8 -11q0 -21 -72 -112q-57 -70 -155.5 -180.5t-206.5 -225.5q-37 -39 -90.5 -93t-82.5 -81
q-7 -7 -11.5 -11t-6 -6.5t-2 -4t-0.5 -3.5q0 -3 -1 -5.5t-5 -5.5q-3 -3 -7.5 -6.5t-9.5 -6.5q-14 -11 -18 -12t-5 -1q-6 0 -10 4q-5 5 -5 9t3 8q1 3 14.5 16.5t33.5 32.5q86 86 149 151t132 141q257 280 319 378q5 7 8.5 13t5.5 7q4 6 10 6q2 0 5 -1z" />
    <glyph glyph-name="cent" unicode="&#xa2;" horiz-adv-x="769" 
d="M109 264q-6 3 -7.5 7.5t-1.5 7.5t1 6q1 1 4 5t7 9q5 5 22 27t39 50q11 14 19 24.5t13.5 17.5t9 12t5 7.5t2 4t0.5 2t-1 0.5q-25 17 -25 53q0 6 1 13q3 38 30 90q32 68 92 127q78 79 136 91q7 1 15 1h9q13 -1 21 -4q4 -1 7 -2t4 -1q3 1 38 45q50 63 70.5 90t22.5 34
q3 8 7.5 9.5t5.5 1.5q5 0 9 -4q5 -4 5 -10v-2q0 -7 -10 -22t-32 -44q-11 -15 -27.5 -36t-30.5 -40l-34 -43l4 -5q7 -12 7 -25v-3q-1 -15 -11 -40q-2 -5 -3.5 -7.5t-3 -3.5t-3.5 -2q-3 -1 -5 -1t-5 1q-5 2 -7 7q-1 3 -1 6q0 2 1.5 7t5.5 15q3 9 3.5 13.5t0.5 6.5q0 4 -1 6
q-1 0 -22 -26q-23 -28 -76 -97q-23 -29 -52.5 -67t-52 -67t-24.5 -32v-1q1 0 5 2q5 2 21 9q33 15 75.5 39.5t77 48t44.5 34.5q8 9 12 9.5t5 0.5q6 0 10 -7q2 -3 2 -7q0 -8 -9 -18q-13 -15 -51 -40q-53 -35 -116 -69q-58 -31 -93 -39q-7 -1 -11 -2l-4 -1q-3 -3 -19 -24
t-36.5 -47.5t-37.5 -48t-21 -26.5q-15 -18 -20.5 -22.5t-9.5 -4.5q-3 0 -5 1zM253 479q13 17 51 66t79 101t63 80q20 26 34 44l13 17q0 1 -3 1.5t-7.5 1.5t-8.5 1q-35 0 -89 -45q-17 -14 -42 -38.5t-39 -41.5q-34 -44 -55.5 -90.5t-21.5 -77.5q0 -11 1.5 -16t5.5 -9
q5 -4 8 -4h1q4 1 10 10z" />
    <glyph glyph-name="sterling" unicode="&#xa3;" horiz-adv-x="959" 
d="M13 187q-9 3 -11 8.5t-2 7.5q0 6 4 11q18 25 207 74q13 4 26.5 10.5t36.5 20.5q144 85 195 231q3 8 6 18t5.5 18t2.5 10v1q-1 0 -3 0.5t-5.5 0t-9.5 -0.5q-8 0 -30.5 -0.5t-48.5 -1.5l-62 -1l-5 -4q-6 -3 -11 -3q-3 0 -6 1q-8 3 -10 8t-2 7q0 5 4 10q1 1 4 2.5l5 2.5
q9 3 111 6q27 1 47 2t24 2h6l3 16q2 6 4.5 23t5.5 36q8 48 14 75.5t14 50.5q26 79 83 136q40 42 84.5 69.5t80.5 32.5h10q56 0 68 -53q1 -5 1 -10q0 -48 -55 -131q-24 -36 -59 -74l-11 -11l-6 -6t-3.5 -2.5t-3.5 -0.5q-8 0 -11 4.5t-3 8.5q0 2 1 4q0 2 4 7t9 11
q78 87 103 165q4 13 4 24q0 28 -28 34h-5q-38 0 -95 -39q-62 -43 -103 -103q-26 -41 -41 -93q-7 -22 -12 -46.5t-10 -61.5q-2 -12 -4.5 -25.5t-4 -24t-2.5 -12.5q0 -1 0.5 -1.5t2.5 -0.5h6h11h17.5h25.5q33 0 50.5 -0.5t26 -2t15.5 -3.5q14 -6 16.5 -13.5t2.5 -10.5
q0 -6 -4 -12q-2 -2 -4 -3t-5 -1q-5 0 -7.5 1.5t-4.5 5.5t-8.5 5.5t-22.5 2.5q-8 1 -27 1h-40.5t-37.5 -0.5t-18 -1.5q-2 0 -4 -5t-5 -17q-37 -127 -122 -209q-11 -11 -26 -23.5t-26 -19.5q-3 -3 -5 -4.5t-2 -2.5l8 2q7 1 17 2q25 5 46.5 9t53 8.5t87.5 11.5q28 4 48.5 7
t24.5 3t6 -1t4 -4q4 -5 4 -9q0 -6 -5 -11q-1 -2 -3 -3t-5 -1.5t-10 -1.5t-18.5 -3t-29.5 -4q-3 -1 -7 -1q-102 -14 -156.5 -23.5t-113.5 -23.5q-16 -3 -25 -5.5t-16 -5.5t-19 -9q-89 -43 -157 -59q-22 -6 -30.5 -7t-12.5 -1h-6z" />
    <glyph glyph-name="yen" unicode="&#xa5;" horiz-adv-x="911" 
d="M220 209q-4 3 -5.5 6.5t-1.5 5.5q0 3 1 5l3 6t5 9q8 11 33.5 47.5t54.5 78t48 68.5q14 21 24 35t10 15q-1 0 -14.5 -0.5t-34.5 -1.5q-21 0 -46 -0.5t-42 -0.5q-18 0 -27 0.5t-12.5 1t-5.5 1.5q-8 5 -8 13q0 14 15 14q4 0 8 -1q7 -1 27 -1h22q20 0 48 1t52 2.5t33 2.5h8
l18 26q48 68 115 161t130 179q35 47 58 79t26 37v1q-1 0 -6 -4q-14 -10 -49 -36.5t-74 -57.5q-161 -125 -233 -179t-112 -80q-93 -63 -141 -63q-23 0 -35 15q-2 3 -4.5 7t-4.5 8l-2 6t-1 8v14q0 18 2.5 30t9.5 34q36 112 132 242q46 62 55 62h3q6 0 10 -3q4 -4 4 -10v-2
q-1 -4 -4 -8t-11 -13q-15 -16 -42 -55t-48 -73q-64 -109 -79 -182q-2 -13 -2 -23q0 -12 3 -19q5 -8 17 -8q34 0 127 61q39 26 112 81t211 163q83 64 123 94t52.5 34.5t17.5 4.5q11 0 16 -9q2 -3 2 -8q0 -4 -1 -8q-2 -9 -12 -25q-7 -12 -26.5 -39.5t-66.5 -90.5
q-56 -76 -114 -156t-97 -135t-40 -58q1 0 12.5 0.5t28.5 1.5q138 6 198 6q36 0 43 -2q12 -2 17 -7.5t5 -10.5q0 -2 -1 -4q-4 -11 -14 -11q-5 0 -10 2q-2 1 -4.5 1.5t-7 1t-12.5 0.5h-22q-26 0 -69.5 -1.5t-131.5 -5.5q-31 -1 -43 -2t-13 -2q-2 -3 -27 -38.5t-58.5 -83.5
t-61.5 -88.5t-37 -53.5q-3 -4 -5 -7t-4 -4q-3 -3 -8 -3t-9 2z" />
    <glyph glyph-name="copyright" unicode="&#xa9;" horiz-adv-x="564" 
d="M202 417q-36 3 -63 29q-39 39 -39 101q0 14 2 28q10 82 72 162q34 42 80 71q49 30 72.5 30h24.5q44 0 74 -28q37 -33 39 -95v-10q0 -58 -31 -121q-42 -83 -113 -131q-53 -37 -105 -37q-7 0 -13 1zM249 553q-37 7 -49 36q-2 4 -2.5 8.5t-0.5 14.5t0.5 14.5t2.5 11.5
q13 35 46 61q35 26 66 26q16 0 31 -7q7 -4 15 -12.5t12 -15.5q2 -4 2.5 -6.5t1 -5.5t0.5 -9q0 -12 -1.5 -17t-5.5 -7t-7 -2q-4 0 -7 4q-4 4 -4 12v8q0 16 -18 27q-8 4 -18 4q-16 0 -35 -11q-31 -17 -47 -49q-6 -16 -6 -27q0 -30 42 -30h10q17 2 24.5 4t10.5 6l4.5 3t4.5 1
q7 0 12 -5t5 -11v-2q-1 -8 -8 -12.5t-23 -7.5q-26 -5 -44 -5q-8 0 -14 1zM240 448q53 11 103 60q70 69 89 159q4 22 4 40q0 60 -39 89q-21 13 -47 13q-17 0 -36 -5q-49 -14 -96 -61q-65 -67 -85 -155q-2 -8 -2.5 -15.5t-0.5 -24.5q0 -22 2 -33.5t10 -25.5q16 -32 49 -41
q10 -3 24 -3q13 0 25 3z" />
    <glyph glyph-name="guillemotleft" unicode="&#xab;" horiz-adv-x="534" 
d="M152 518q-3 2 -4 5t-1 7q-2 15 -7.5 28t-21.5 38q-7 10 -11.5 18t-5.5 10t-1 4q0 12 18 22q4 2 18.5 11t33.5 21t35 22t21 13l8 6t6 4q1 2 5.5 4.5t9.5 4.5q6 4 9 5t5 1l2 -1q4 -1 8 -5t4 -8q0 -3 -2 -6.5t-9 -8.5t-20 -13q-12 -8 -31.5 -20.5t-37.5 -24.5
q-18 -11 -30.5 -19.5t-14.5 -9.5q-1 0 -1 -1t1.5 -3.5t4.5 -8.5q18 -26 24.5 -41t9.5 -31q0 -6 0.5 -9t0 -4.5l-1.5 -4.5q-4 -7 -8 -8t-6 -1q-6 0 -10 4zM302 518q-2 2 -3 5t-2 7q-1 15 -6.5 28t-21.5 38q-7 10 -11.5 18t-5.5 10t-1 4q0 12 18 22q3 2 18 11t34 21t35 22
t21 13l8 6t5 4q2 2 6.5 4.5t9.5 4.5q6 4 9 5t4 1l3 -1q4 -1 8 -5t4 -8q0 -3 -2 -6.5t-9 -8.5t-20 -13q-12 -8 -31.5 -20.5t-37.5 -24.5q-18 -11 -31 -19.5t-14 -9.5q-1 0 -1 -1t1.5 -3.5t4.5 -8.5q18 -26 24.5 -41t9.5 -31q0 -6 0.5 -9t0 -4.5l-1.5 -4.5q-4 -7 -8 -8t-6 -1
q-6 0 -11 4z" />
    <glyph glyph-name="registered" unicode="&#xae;" horiz-adv-x="426" 
d="M162 1204q-35 6 -48.5 28t-13.5 46q0 12 3 25q13 53 59 93q40 34 83 38h12t13 -2q36 -8 50 -42q6 -14 6 -31q0 -13 -4 -28q-11 -43 -47 -79q-38 -37 -83 -46q-6 -1 -15 -1.5t-15 -0.5zM145 1274q-1 1 -2 1.5t-2 1.5q-3 2 -3 5t2 6q3 7 16 20q6 7 16.5 20t19.5 24.5
t11 15.5q5 11 10 13q2 1 3 1q3 0 6 -3q2 -2 2 -6v-2q-1 -4 -7 -12l-4 -6l3 1q2 1 5 3q16 7 27 7q8 0 14 -4q5 -5 5 -11q0 -7 -8 -16q-13 -15 -46 -24l-10 -2l3 -2q2 0 5 -1.5l7 -3.5q14 -5 15 -11q1 -2 1 -4q0 -3 -2 -5q-3 -4 -7 -4q-3 0 -5 1.5t-3 3.5q-1 1 -3 2t-7 3
q-10 4 -16 8t-11 8l-3 3l-2 -3l-4.5 -4.5t-6.5 -8.5q-6 -7 -9 -10t-5.5 -4t-4.5 -1zM211 1327q16 5 26 10q3 2 5.5 4t3.5 4l2 2q-2 0 -7 -1t-10 -4q-3 -1 -8 -4l-10 -6t-8 -5l-3 -2q1 0 3.5 0.5t5.5 1.5zM191 1223q67 18 104 86q13 26 13 50q0 9 -1.5 15.5t-4.5 14.5
q-10 20 -34 26q-6 1 -16 1t-17 -1q-68 -18 -104 -86q-13 -28 -13 -51q0 -15 5 -28q15 -29 50 -29q8 0 18 2z" />
    <glyph glyph-name="degree" unicode="&#xb0;" horiz-adv-x="337" 
d="M122 1279q-22 7 -22 30q0 16 13 42q12 24 32 45.5t40 32.5q8 5 16 5q6 0 11 -3q14 -8 19.5 -24t5.5 -28q0 -8 -2 -17q-2 -8 -7 -18.5t-11 -18.5q-27 -36 -70 -46q-9 -2 -14 -2t-11 2zM142 1307q3 0 8 2.5t11 4.5q8 4 12.5 7.5t10.5 8.5q11 11 18 25t7 24q0 4 -1.5 9
t-3 9.5t-3.5 5.5q-1 2 -3 2q-8 0 -29 -22q-28 -29 -38 -57q-2 -6 -2 -10.5v-6.5v-3q1 -1 4 -1q4 0 9 2z" />
    <glyph glyph-name="guillemotright" unicode="&#xbb;" horiz-adv-x="451" 
d="M108 519q-5 2 -6.5 5t-1.5 7t1.5 8t7.5 10t18.5 16t32.5 27q13 10 23 18.5t12 10.5l4 4l-3 6q-1 3 -5 12.5t-9 20.5q-9 22 -14.5 31.5t-13.5 16.5q-7 5 -8.5 8.5t-1.5 5.5q0 3 1 5q2 7 6.5 7.5t5.5 0.5q6 0 13 -5q10 -6 19 -20t20 -41q4 -8 8 -16.5t7 -14.5q5 -9 5 -17
v-3q0 -9 -12.5 -21.5t-41.5 -35.5q-13 -11 -24.5 -20.5t-15.5 -14.5q-16 -13 -22 -13q-1 0 -2.5 0.5t-2.5 1.5zM229 519q-4 2 -5.5 5t-1.5 7t1.5 8t7.5 10t18 16t33 27q13 10 23 18.5t12 10.5l4 4l-3 6q-2 3 -5.5 12.5t-8.5 20.5q-9 22 -14.5 31.5t-14.5 16.5q-6 5 -7.5 8.5
t-1.5 5.5q0 3 1 5q2 7 6.5 7.5t5.5 0.5q6 0 13 -5q10 -6 19 -20t20 -41q4 -8 8 -16.5t6 -14.5q6 -10 6 -18v-2q0 -9 -12.5 -21.5t-41.5 -35.5q-13 -11 -24.5 -20.5t-16.5 -14.5q-16 -13 -21 -13q-1 0 -2.5 0.5t-3.5 1.5z" />
    <glyph glyph-name="questiondown" unicode="&#xbf;" horiz-adv-x="668" 
d="M657 1131q4 -2 7.5 -7t3.5 -10t-4 -12.5t-10 -12.5q-7 -6 -12 -6q-3 0 -5 1q-18 10 -18 21q0 6 5.5 14t12.5 13q4 2 10 2t10 -3zM588 979q16 -6 16 -25q0 -5 -1 -11q-5 -18 -29.5 -57t-57 -82.5t-60.5 -75.5q-36 -39 -85 -81t-150 -120q-23 -17 -43.5 -33t-29.5 -23
q-119 -95 -119 -137v-2q0 -16 22 -23q20 -7 50 -7q20 0 45 3q61 7 131 31q105 36 188 91q114 78 127 144q1 5 0.5 9t-1.5 9q-7 33 -38 39q-3 0 -6 1t-5 2q-4 3 -4 9v2q0 6 5 10q4 2 9 2t11 -2q12 -2 23 -10q11 -7 20 -20.5t11 -26.5q1 -7 1 -15v-8q0 -13 -3 -22
q-16 -47 -67 -95q-79 -71 -199 -122q-142 -60 -246 -60q-76 0 -95 32q-8 13 -8 28q0 41 62 101q21 20 49 43t76 60q98 76 129 100q56 46 94 85t74 86q31 41 58 82.5t33 58.5q1 3 0.5 5t-2.5 5t-2.5 5t-0.5 4q2 6 6.5 8.5t8.5 2.5h3z" />
    <glyph glyph-name="multiply" unicode="&#xd7;" horiz-adv-x="424" 
d="M104 519q-4 3 -4 8q0 3 1 6q3 8 17.5 24.5t44.5 47.5l22 22l8 9q0 1 -4 7.5t-10 16.5q-26 38 -29 48v5q0 2 1 5q4 8 9 8.5t6 0.5q6 0 11 -3q5 -4 5 -10q0 -2 -1 -4t-1 -3q0 -2 1.5 -4t3.5 -6q5 -7 11 -16l11 -16.5t6 -8.5q1 0 7 5t13 12q61 58 71 64q4 2 7 2q5 0 9 -3
q2 -2 3 -3.5t1 -5.5t-1 -6t-5 -5q-19 -17 -32.5 -29.5t-29.5 -28.5l-25 -25l5 -6q2 -3 8 -9t12 -13q10 -10 15.5 -14t13.5 -8q5 -3 9.5 -6t5.5 -4q2 -3 2 -6q0 -5 -3 -9q-2 -2 -4 -3t-7 -1q-27 0 -66 47l-11 13l-28 -29q-12 -12 -24.5 -25.5t-19.5 -21.5t-12 -13.5t-7 -6.5
q-3 -2 -6 -2h-2q-5 0 -8 3z" />
    <glyph glyph-name="divide" unicode="&#xf7;" horiz-adv-x="289" 
d="M150 797q-7 4 -7 12q0 15 9 20.5t17 5.5h3q11 -1 15 -10q2 -4 2 -7q0 -5 -4 -10q-3 -4 -9.5 -7.5t-11.5 -4t-7 -0.5q-4 0 -7 1zM107 538q-7 4 -7 13q0 14 9 19.5t18 5.5h3q10 -1 15 -10q1 -3 1 -6q0 -5 -3 -11q-3 -4 -9.5 -7.5t-11.5 -4t-7 -0.5q-5 0 -8 1z" />
    <glyph glyph-name="quoteleft" unicode="&#x2018;" horiz-adv-x="311" 
d="M107 1328l-5 5q-2 3 -2 6q0 2 1 4q3 6 11 15q9 10 26.5 27t33 31t20.5 17q3 1 6 1q5 0 9 -3q5 -4 5 -9l-1 -4q-2 -5 -6 -9t-8 -7q-3 -1 -14 -11.5t-26 -25.5q-15 -14 -25.5 -24.5t-12.5 -11.5q-3 -2 -6 -2t-6 1z" />
    <glyph glyph-name="quoteright" unicode="&#x2019;" horiz-adv-x="310" 
d="M106 1328l-5 5q-1 3 -1 5q0 3 1 5q2 6 10 15q9 10 26.5 27t33 31t21.5 17q3 1 6 1q4 0 8 -3q5 -4 5 -9l-1 -4q-2 -5 -6 -9t-8 -7q-2 -1 -13.5 -11.5t-26.5 -25.5q-15 -14 -25.5 -24.5t-12.5 -11.5q-3 -2 -6 -2t-6 1z" />
    <glyph glyph-name="quotesinglbase" unicode="&#x201a;" horiz-adv-x="311" 
d="M107 0q-2 1 -3 2.5t-2 3.5q-2 2 -2 6q0 2 1 4q3 5 11 14q9 11 26.5 27.5t33 30.5t20.5 17q4 2 7 2q4 0 8 -4q4 -3 4 -8q0 -2 -1 -5q-1 -5 -5 -9t-8 -6q-3 -2 -14 -12.5t-26 -24.5q-15 -15 -25.5 -25t-12.5 -12q-3 -2 -7 -2q-2 0 -5 1z" />
    <glyph glyph-name="quotedblleft" unicode="&#x201c;" 
d="M106 1328l-5 5q-1 3 -1 5q0 3 1 5q2 6 10 15l27 27t33 31t21 17q3 1 6 1q4 0 8 -3q5 -4 5 -9l-1 -4q-2 -5 -5.5 -9t-8.5 -7q-2 -1 -13.5 -11.5t-25.5 -25.5q-15 -14 -26 -24.5t-12 -11.5q-3 -2 -7 -2q-3 0 -6 1zM197 1347q-6 3 -6 8q0 3 1 5q2 5 11 16.5t19 22t15 12.5
q3 1 6 1t6 -2q6 -4 6 -11q0 -4 -2.5 -7.5t-5.5 -4.5q-1 -1 -4 -4.5t-8 -7.5q-12 -15 -18.5 -21.5t-9.5 -7.5t-4 -1q-3 0 -6 2z" />
    <glyph glyph-name="quotedblright" unicode="&#x201d;" 
d="M249 1433q1 0 2.5 -1.5t2.5 -3.5t1 -5q0 -2 -1 -5q-2 -5 -10 -15q-10 -10 -27 -26.5t-33 -31t-21 -17.5q-3 -1 -6 -1q-4 0 -8 3q-4 4 -4 10v4q2 4 5.5 8.5t8.5 6.5q2 1 13.5 11.5t26.5 25.5q14 14 25 24.5t12 11.5q3 2 7 2q3 0 6 -1zM158 1415q6 -4 6 -9q0 -3 -1 -5
q-1 -5 -10.5 -16.5t-19.5 -22t-14 -12.5q-3 -1 -6 -1q-4 0 -7 2q-6 4 -6 11q0 4 2.5 8t5.5 5q1 0 4.5 3.5t7.5 8.5q12 14 18.5 20.5t9.5 7.5t5 1t5 -1z" />
    <glyph glyph-name="quotedblbase" unicode="&#x201e;" 
d="M249 104l2.5 -2.5t2.5 -3.5t1 -4q0 -3 -1 -6q-2 -5 -10 -14q-10 -11 -27 -27.5t-33 -30.5t-21 -17q-3 -2 -6 -2q-4 0 -8 4t-4 9v4q2 5 5.5 9t8.5 6q2 2 13.5 12.5t26.5 24.5q14 15 25 25t12 12q4 2 8 2q2 0 5 -1zM158 85q6 -3 6 -8q0 -3 -1 -5q-1 -5 -10.5 -16.5
t-19.5 -22t-14 -13.5q-2 -1 -5 -1q-4 0 -8 3q-6 4 -6 11q0 4 2.5 7.5t5.5 4.5q1 1 4.5 4t7.5 8q12 14 18.5 21t10 8t4.5 1q3 0 5 -2z" />
    <glyph glyph-name="guilsinglleft" unicode="&#x2039;" horiz-adv-x="382" 
d="M151 518q-2 2 -3 5t-2 7q-1 15 -6.5 28t-22.5 38q-6 10 -10.5 18t-5.5 10q-1 3 -1 5q0 11 17 21q4 2 19 11t34 21q5 4 10 7q16 10 28.5 18t16.5 10q5 3 9 6t5 4q2 2 6 4.5t9 4.5q7 4 10 5t4 1l3 -1q4 -1 7.5 -5t3.5 -8q0 -3 -2 -6.5t-8.5 -8.5t-19.5 -13
q-12 -8 -32 -20.5t-38 -24.5q-18 -11 -30.5 -19.5t-13.5 -9.5q-2 0 -2 -1t1.5 -3.5t5.5 -8.5q17 -26 24 -41t9 -31q1 -6 1 -9v-4.5t-1 -4.5q-4 -7 -8.5 -8t-5.5 -1q-6 0 -11 4z" />
    <glyph glyph-name="guilsinglright" unicode="&#x203a;" horiz-adv-x="330" 
d="M108 519q-5 2 -6.5 5t-1.5 7t1.5 8t7.5 10t18.5 16t32.5 27q13 10 23 18.5t12 10.5l4 4l-3 6q-1 3 -5 12.5t-9 20.5q-9 22 -14.5 31.5t-13.5 16.5q-7 5 -8.5 8.5t-1.5 5.5q0 3 1 5q3 7 7 7.5t5 0.5q6 0 13 -5q10 -6 19 -20t21 -41q3 -8 7 -16.5t7 -14.5q6 -11 5.5 -20
t-13 -21.5t-41.5 -35.5q-12 -11 -23.5 -20.5t-16.5 -14.5q-16 -13 -22 -13q-1 0 -2.5 0.5t-2.5 1.5z" />
    <glyph glyph-name="Euro" unicode="&#x20ac;" horiz-adv-x="907" 
d="M297 227q-50 7 -76 50q-20 34 -20 88q0 81 48 193q4 9 6 15t2 7q-1 0 -18.5 -1.5t-41.5 -4.5t-45 -6t-30 -5q-5 -1 -8 -1t-5 1q-9 3 -9 12t10 13q12 5 113 18q21 2 36 4l14 2l3 5q3 5 6 12q13 24 28.5 50.5t29.5 46.5q3 4 5 7l1 3h-56q-24 -1 -40.5 -1h-17.5
q-14 4 -14 14q0 4 2.5 7.5t5.5 4.5t10.5 1.5t17.5 0.5q18 0 51 1t52 2l12 1l12 16q72 91 165 162q71 53 130 73q30 9 54 9q17 0 32 -4q36 -10 44 -44q1 -6 1 -13q0 -17 -7 -40q-9 -32 -25 -51q-4 -4 -6 -5t-6 -1q-11 0 -13 11q0 3 1 5.5t4 6.5q14 23 18.5 42.5t4.5 29.5
q0 9 -2 15q-9 19 -43 19q-31 0 -70 -17q-102 -47 -209 -160q-18 -19 -30.5 -34t-13.5 -16h9q9 0 21 1q13 1 35.5 2t43.5 3q49 2 71 3.5t32 1.5q11 0 18 -1q15 0 21 -2t10 -6q5 -5 5 -12v-2q-2 -7 -9 -11q-2 -1 -3 -1q-2 0 -4 0.5l-6 1.5q-3 1 -9.5 2t-13.5 1t-17 -1
q-20 -1 -58.5 -3t-101.5 -5q-22 -2 -35.5 -2.5t-20.5 -1.5t-10 -1.5t-4 -1.5q-3 -3 -14.5 -20.5t-25 -39.5t-23.5 -39.5t-10 -19.5q0 -1 1 -1h3q8 1 42.5 5t75.5 7q50 5 73.5 7t35.5 2h6q12 0 17 -3q8 -4 9 -8t1 -5q0 -7 -5 -12q-4 -4 -11 -4q-3 0 -7 1q-1 1 -8 1
q-6 0 -18 -1q-22 -1 -75 -6q-150 -14 -157 -17q-2 -2 -6 -11.5t-9.5 -22.5t-10.5 -25q-25 -64 -34 -120q-2 -15 -2 -32v-12q0 -24 4 -39q11 -41 40 -56q9 -5 18 -6.5t22 -1.5q96 9 224 129q23 22 45 45.5t35 40.5l6 9l-2 5q-2 4 -2 6t2 5q5 9 12 11.5t12 2.5q4 0 7 -1
q10 -6 10 -16q0 -2 -1 -5q-8 -28 -78 -101q-84 -86 -167 -129q-63 -33 -110 -33q-6 0 -12 1z" />
    <glyph glyph-name="minus" unicode="&#x2212;" horiz-adv-x="445" 
d="M106 610q-6 5 -6 11q0 3 1 6t3.5 5t10 3t24 2t44.5 2q53 2 81.5 3.5t41.5 2.5q6 1 12.5 2t9.5 1h4q9 0 12 -7q1 -2 1.5 -3.5t0.5 -2.5l-1 -3q-2 -4 -6.5 -7t-14.5 -5q-9 -2 -23.5 -3.5t-46.5 -2.5t-94 -2q-19 -1 -28 -1.5t-11 -1.5q-4 -2 -7 -2q-4 0 -8 3z" />
  </font>
</defs>
</svg>
