<svg xmlns="http://www.w3.org/2000/svg">
<defs>
<font id="LTWave" horiz-adv-x="899" >
  <font-face 
    font-family="LT Wave"
    font-weight="400"
    font-stretch="normal"
    units-per-em="2048"
    panose-1="2 0 5 0 0 0 0 0 0 0"
    ascent="1638"
    descent="-410"
    x-height="1000"
    cap-height="1380"
    bbox="-790 -529 2070 1839"
    underline-thickness="150"
    underline-position="-592"
    unicode-range="U+001D-FB04"
  />
<missing-glyph horiz-adv-x="1599" 
d="M831 307q0 2 -2 4t-4 2h-17q-2 0 -2 -2q-2 -2 -2 -4v-8q0 -6 4 -12q2 -4 9 -4q6 0 10 4q4 6 4 12v8zM821 870q-11 9 -23 9t-22 -9q-9 -8 -9 -22t9 -23q10 -8 22 -8t23 8q10 9 10 23t-10 22zM1441 1364h-1278q-10 0 -18 -6q-6 -8 -6 -19v-229q0 -10 6 -16q8 -9 18 -9h305
q39 0 66 -26q29 -27 29 -68v-82q0 -14 -11 -24q-10 -11 -24 -11q-15 0 -25 11q-10 10 -10 24v82q0 10 -8 19q-6 6 -17 6h-305q-39 0 -67 28q-27 27 -27 66v229q0 39 27 68q28 27 67 27h1278q39 0 66 -27q28 -29 28 -68v-229q0 -39 -28 -66q-27 -28 -66 -28h-305
q-10 0 -18 -6q-7 -9 -7 -19v-897q0 -39 -28 -65q-27 -29 -66 -29h-30q-13 0 -23 10q-12 10 -12 25q0 14 12 24q10 11 23 11h30q10 0 17 8q8 6 8 16v897q0 41 26 68q29 26 68 26h305q10 0 17 9q8 6 8 16v229q0 11 -8 19q-7 6 -17 6zM857 1049q0 -2 -2 -2h-84q-2 0 -4 -3v-2
v-47q0 -2 -2 -2q-2 -2 -4 -2h-20q-2 0 -2 2q-2 0 -2 2v76q0 2 2 4q0 2 2 2h114q2 0 2 -2q3 -2 3 -4v-18q0 -2 -3 -4zM857 899h-2l-75 39q-2 2 -6 2h-33q-2 0 -2 2q-2 2 -2 4v21q0 2 2 2q0 2 2 2h33q4 0 6 2l75 39h2v0q3 -2 3 -4v-25q0 -2 -3 -2q0 -2 -2 -2l-43 -21l-2 -2
q0 -2 2 -2l43 -20q2 0 2 -2q3 -2 3 -4v-25q0 -2 -3 -4zM751 805q-16 16 -16 43q0 26 16 45q16 16 47 16t47 -16q17 -19 17 -45q0 -27 -17 -43q-16 -19 -47 -19t-47 19zM855 674h-114q-2 0 -2 2q-2 2 -2 4v18q0 2 2 4q0 3 4 5l51 32q4 2 4 6q-2 3 -4 3h-53q-2 0 -2 2
q-2 0 -2 2v20q0 2 2 4h2h114h2q3 -2 3 -4v-20q0 -2 -3 -2q0 -2 -4 -5l-18 -12l-31 -20q-4 -2 -4 -6q0 -2 4 -2h51q2 0 2 -3q3 -2 3 -4v-18q0 -2 -3 -4q0 -2 -2 -2zM851 649q11 -10 11 -31q0 -14 -5 -28l-4 -4h-2h-2l-16 2q-2 0 -4 2v4q2 14 2 24q0 9 -2 13q-2 2 -6 2t-9 -17

<glyph glyph-name="uniFB01" unicode="fi" horiz-adv-x="1102" 
d="M800 826h-414v-826h-205v826h-144v174h144v120q0 330 350 330q110 0 330 -20v-154h-317q-158 0 -158 -183v-93h619v-1000h-205v826z" />
    <glyph glyph-name="uniFB02" unicode="fl" horiz-adv-x="1201" 
d="M800 1276h-296q-118 0 -118 -143v-133h261v-174h-261v-826h-205v826h-144v174h144v160q0 290 290 290q99 0 534 -21v-1172q0 -93 88 -93h77v-154q-70 -20 -140 -20q-230 0 -230 210v1076z" />
    <glyph glyph-name="uniFB00" unicode="ff" horiz-adv-x="1402" 
d="M386 826v-826h-205v826h-144v174h144v160q0 290 290 290q110 0 280 -20v-154h-247q-118 0 -118 -143v-133h496v160q0 290 290 290q110 0 280 -20v-154h-247q-118 0 -118 -143v-133h291v-174h-291v-826h-205v826h-496z" />
    <glyph glyph-name="uniFB03" unicode="ffi" horiz-adv-x="1803" 
d="M386 826v-826h-205v826h-144v174h144v160q0 290 290 290q110 0 280 -20v-154h-247q-118 0 -118 -143v-133h496v120q0 330 350 330q110 0 330 -20v-154h-317q-158 0 -158 -183v-93h619v-1000h-205v826h-414v-826h-205v826h-496z" />
    <glyph glyph-name="uniFB04" unicode="ffl" horiz-adv-x="1902" 
d="M386 826v-826h-205v826h-144v174h144v160q0 290 290 290q110 0 280 -20v-154h-247q-118 0 -118 -143v-133h496v160q0 290 290 290q99 0 534 -21v-1172q0 -93 88 -93h77v-154q-70 -20 -140 -20q-230 0 -230 210v1076h-296q-118 0 -118 -143v-133h261v-174h-261v-826h-205
v826h-496z" />
    <glyph glyph-name=".notdef" horiz-adv-x="1599" 
d="M831 307q0 2 -2 4t-4 2h-17q-2 0 -2 -2q-2 -2 -2 -4v-8q0 -6 4 -12q2 -4 9 -4q6 0 10 4q4 6 4 12v8zM821 870q-11 9 -23 9t-22 -9q-9 -8 -9 -22t9 -23q10 -8 22 -8t23 8q10 9 10 23t-10 22zM1441 1364h-1278q-10 0 -18 -6q-6 -8 -6 -19v-229q0 -10 6 -16q8 -9 18 -9h305
q39 0 66 -26q29 -27 29 -68v-82q0 -14 -11 -24q-10 -11 -24 -11q-15 0 -25 11q-10 10 -10 24v82q0 10 -8 19q-6 6 -17 6h-305q-39 0 -67 28q-27 27 -27 66v229q0 39 27 68q28 27 67 27h1278q39 0 66 -27q28 -29 28 -68v-229q0 -39 -28 -66q-27 -28 -66 -28h-305
q-10 0 -18 -6q-7 -9 -7 -19v-897q0 -39 -28 -65q-27 -29 -66 -29h-30q-13 0 -23 10q-12 10 -12 25q0 14 12 24q10 11 23 11h30q10 0 17 8q8 6 8 16v897q0 41 26 68q29 26 68 26h305q10 0 17 9q8 6 8 16v229q0 11 -8 19q-7 6 -17 6zM857 1049q0 -2 -2 -2h-84q-2 0 -4 -3v-2
v-47q0 -2 -2 -2q-2 -2 -4 -2h-20q-2 0 -2 2q-2 0 -2 2v76q0 2 2 4q0 2 2 2h114q2 0 2 -2q3 -2 3 -4v-18q0 -2 -3 -4zM857 899h-2l-75 39q-2 2 -6 2h-33q-2 0 -2 2q-2 2 -2 4v21q0 2 2 2q0 2 2 2h33q4 0 6 2l75 39h2v0q3 -2 3 -4v-25q0 -2 -3 -2q0 -2 -2 -2l-43 -21l-2 -2
q0 -2 2 -2l43 -20q2 0 2 -2q3 -2 3 -4v-25q0 -2 -3 -4zM751 805q-16 16 -16 43q0 26 16 45q16 16 47 16t47 -16q17 -19 17 -45q0 -27 -17 -43q-16 -19 -47 -19t-47 19zM855 674h-114q-2 0 -2 2q-2 2 -2 4v18q0 2 2 4q0 3 4 5l51 32q4 2 4 6q-2 3 -4 3h-53q-2 0 -2 2
q-2 0 -2 2v20q0 2 2 4h2h114h2q3 -2 3 -4v-20q0 -2 -3 -2q0 -2 -4 -5l-18 -12l-31 -20q-4 -2 -4 -6q0 -2 4 -2h51q2 0 2 -3q3 -2 3 -4v-18q0 -2 -3 -4q0 -2 -2 -2zM851 649q11 -10 11 -31q0 -14 -5 -28l-4 -4h-2h-2l-16 2q-2 0 -4 2v4q2 14 2 24q0 9 -2 13q-2 2 -6 2t-9 -17
q-4 -16 -12 -26t-26 -10q-17 0 -29 14q-12 12 -12 35q0 14 6 30q0 3 2 5h4h2l16 -2q2 -3 2 -5q2 0 2 -4q-4 -14 -4 -22q0 -10 2 -17q2 -4 7 -4q6 0 10 15q4 16 12 26q10 13 27 13q18 0 28 -15zM857 469h-2h-20h-4v4v27q0 2 -2 4h-4h-84q-2 0 -2 2q-2 2 -2 4v18q0 2 2 4
q0 3 2 3h84q2 0 4 2q2 0 2 4v24v4q2 2 4 2h20q2 0 2 -2q3 -2 3 -4v-92q0 -2 -3 -4zM855 350l-75 39q-2 2 -6 2h-33q-2 0 -2 2q-2 0 -2 2v21q0 2 2 4q0 2 2 2h33q4 0 6 2l75 39q2 0 2 -2q3 0 3 -2v-25q0 -4 -3 -4q0 -2 -2 -2l-43 -20q-2 0 -2 -2l2 -3l43 -20h2q3 -2 3 -4v-25
q0 -2 -3 -4h-2zM849 266q-12 -12 -32 -12q-19 0 -31 12q-12 13 -12 35v6q0 2 -3 4q-2 2 -4 2h-26h-2q-2 2 -2 4v21q0 2 2 4h2h114h2q3 -2 3 -4v-39q0 -20 -11 -33zM808 164h-20q-2 0 -2 2q-2 2 -2 4v39q0 2 -2 4h-4h-7h-4v-4v-41q0 -2 -2 -2q-2 -2 -4 -2h-20q-2 0 -2 2
q-2 0 -2 2v70q0 4 2 4q0 2 2 2h114q2 0 2 -2q3 0 3 -4v-70q0 -2 -3 -2q0 -2 -2 -2h-20q-2 0 -4 2v2v41q0 2 -2 4h-4h-6h-5q-2 -2 -2 -4v-39q0 -2 -2 -4q0 -2 -2 -2zM870 35q0 -15 -10 -25q-11 -10 -25 -10h-248q-39 0 -67 29q-27 26 -27 65v664q0 12 10 22q10 13 25 13
q14 0 24 -13q11 -10 11 -22v-664q0 -10 6 -16q8 -8 18 -8h248q14 0 25 -11q10 -10 10 -24z" />
    <glyph glyph-name="uni0000" horiz-adv-x="0" 
 />
    <glyph glyph-name="uni0000" horiz-adv-x="0" 
 />
    <glyph glyph-name="nonmarkingreturn" horiz-adv-x="682" 
 />
    <glyph glyph-name="space" unicode=" " horiz-adv-x="439" 
 />
    <glyph glyph-name="space" unicode="&#xa0;" horiz-adv-x="439" 
 />
    <glyph glyph-name="exclam" unicode="!" horiz-adv-x="401" 
d="M99 404v976h205v-976h-205zM331 115q0 63 -30 96.5t-99 33.5q-70 0 -100 -33.5t-30 -96.5q0 -62 30 -93.5t100 -31.5q69 0 99 31.5t30 93.5z" />
    <glyph glyph-name="quotedbl" unicode="&#x22;" horiz-adv-x="700" 
d="M99 904v476h205v-476h-205zM419 904v476h205v-476h-205z" />
    <glyph glyph-name="numbersign" unicode="#" horiz-adv-x="1300" 
d="M281 552l30 275h-181v185h201l39 368h205l-39 -368h295l39 368h205l-39 -368h195v-185h-215l-30 -275h175v-185h-195l-39 -367h-205l39 367h-295l-39 -367h-205l39 367h-201v185h221zM516 827l-30 -275h295l30 275h-295z" />
    <glyph glyph-name="dollar" unicode="$" horiz-adv-x="1199" 
d="M265 740q-114 90 -114 260q0 180 129 285t342 105q154 0 360 -44v-182q-226 42 -361 42q-125 0 -195 -53t-70 -152q0 -80 73.5 -131t240 -95t280.5 -129t114 -255q0 -180 -129 -290t-362 -110q-204 0 -410 44v182q226 -42 411 -42q145 0 215 58t70 158q0 79 -78.5 125
t-240 90t-275.5 134zM710 1580v-1780h-205v1780h205z" />
    <glyph glyph-name="percent" unicode="%" horiz-adv-x="1610" 
d="M417 0h-231l993 1380h231zM1324 485q-34 47 -110 47q-78 0 -112 -47t-34 -140t34 -143t112 -50q76 0 110 50t34 143t-34 140zM983 607.5q88 86.5 230 86.5q143 0 230.5 -86.5t87.5 -262.5t-87.5 -265.5t-230.5 -89.5q-142 0 -230 89.5t-88 265.5t88 262.5zM494 1181
q-34 47 -110 47q-78 0 -112 -47t-34 -140t34 -143t112 -50q76 0 110 50t34 143t-34 140zM153 1303.5q88 86.5 230 86.5q143 0 230.5 -86.5t87.5 -262.5t-87.5 -265.5t-230.5 -89.5q-142 0 -230 89.5t-88 265.5t88 262.5z" />
    <glyph glyph-name="ampersand" unicode="&#x26;" horiz-adv-x="1347" 
d="M664 -9q-273 0 -412 110t-139 300q0 220 226 309q-194 90 -194 300q0 180 134 280t377 100q184 0 380 -44v-172q-216 32 -381 32q-155 0 -230 -48t-75 -147q0 -90 69.5 -153t203.5 -63h646v-186h-123v-216q0 -202 -144 -302t-338 -100zM941 609h-323q-158 0 -229 -64.5
t-71 -143.5q0 -110 80 -168t265 -58q130 0 204 54.5t74 163.5v216z" />
    <glyph glyph-name="quotesingle" unicode="'" horiz-adv-x="401" 
d="M99 904v476h205v-476h-205z" />
    <glyph glyph-name="parenleft" unicode="(" horiz-adv-x="701" 
d="M654 1194q-187 -73 -277.5 -243.5t-90.5 -424.5q0 -255 90.5 -430.5t277.5 -249.5v-195q-257 63 -415 291t-158 583t158 578t415 286v-195z" />
    <glyph glyph-name="parenright" unicode=")" horiz-adv-x="701" 
d="M61 1389q257 -63 415 -286t158 -578t-158 -583t-415 -291v195q187 74 277.5 249.5t90.5 430.5q0 254 -90.5 424.5t-277.5 243.5v195z" />
    <glyph glyph-name="asterisk" unicode="*" horiz-adv-x="900" 
d="M450 913l-154 -234l-160 128l165 176l-226 55l66 194l225 -106l-29 254h226l-29 -254l225 106l66 -194l-226 -55l165 -176l-160 -128z" />
    <glyph glyph-name="plus" unicode="+" horiz-adv-x="1199" 
d="M508 515h-415v185h415v415h185v-415h415v-185h-415v-415h-185v415z" />
    <glyph glyph-name="comma" unicode="," horiz-adv-x="401" 
d="M35 -261h145q151 234 151 376q0 63 -30 96.5t-99 33.5q-70 0 -100 -33.5t-30 -96.5q0 -62 30 -93q16 -15 16 -59q0 -61 -83 -224z" />
    <glyph glyph-name="hyphen" unicode="-" 
d="M80 415v185h748v-185h-748z" />
    <glyph glyph-name="hyphen" unicode="&#xad;" 
d="M80 415v185h748v-185h-748z" />
    <glyph glyph-name="period" unicode="." horiz-adv-x="401" 
d="M331 115q0 63 -30 96.5t-99 33.5q-70 0 -100 -33.5t-30 -96.5q0 -62 30 -93.5t100 -31.5q69 0 99 31.5t30 93.5z" />
    <glyph glyph-name="slash" unicode="/" horiz-adv-x="731" 
d="M216 -349h-205l500 1738h205z" />
    <glyph glyph-name="zero" unicode="0" horiz-adv-x="1199" 
d="M846 1083q-80 133 -245 133t-245 -133t-80 -387q0 -255 80 -393.5t245 -138.5t245 138.5t80 393.5q0 254 -80 387zM220 1220q149 170 381.5 170t381 -170t148.5 -525t-148.5 -530t-381 -175t-381.5 175t-149 530t149 525z" />
    <glyph glyph-name="one" unicode="1" horiz-adv-x="1199" 
d="M512 185v969l-374 -152v199l414 179h165v-1195h362v-185h-941v185h374z" />
    <glyph glyph-name="two" unicode="2" horiz-adv-x="1199" 
d="M140 156l586 575q151 134 151 270q0 109 -75 162t-230 53q-165 0 -391 -32v162q206 44 390 44q243 0 377 -100t134 -290q0 -211 -263 -445l-399 -370h661v-185h-941v156z" />
    <glyph glyph-name="three" unicode="3" horiz-adv-x="1199" 
d="M888 710q226 -89 226 -309q0 -190 -139 -300t-412 -110q-214 0 -420 44v162q226 -32 421 -32q185 0 265 63t80 173q0 79 -71 143.5t-229 64.5h-198v186h194q133 0 202.5 73t69.5 153q0 99 -75 147t-230 48q-165 0 -391 -32v162q206 44 390 44q243 0 377 -95t134 -275
q0 -200 -194 -310z" />
    <glyph glyph-name="four" unicode="4" horiz-adv-x="1199" 
d="M773 290h-703v145l521 945h235l-500 -905h447v366h205v-366h160v-185h-160v-290h-205v290z" />
    <glyph glyph-name="five" unicode="5" horiz-adv-x="1199" 
d="M406 880h165q253 0 398 -115t145 -324.5t-134 -329.5t-417 -120q-214 0 -420 44v162q226 -32 421 -32t270 73t75 202.5t-91 192.5t-256 63h-381l70 684h763v-185h-578z" />
    <glyph glyph-name="six" unicode="6" horiz-adv-x="1199" 
d="M601 164q155 0 230 78t75 208q0 129 -75 212.5t-230 83.5t-225 -73.5t-70 -202.5q0 -120 80 -213t215 -93zM313 800q113 120 288 120q252 0 381 -130t129 -330t-129 -335t-381 -135q-233 0 -371.5 160t-138.5 470q0 382 174.5 576t455.5 194q130 0 249 -20v-154h-206
q-201 0 -319.5 -109t-131.5 -307z" />
    <glyph glyph-name="seven" unicode="7" horiz-adv-x="1199" 
d="M407 0h-245l710 1195h-752v185h988v-145z" />
    <glyph glyph-name="eight" unicode="8" horiz-adv-x="1199" 
d="M962 1295q130 -95 130 -275q0 -210 -194 -310q226 -89 226 -309q0 -190 -133.5 -300.5t-386 -110.5t-386 110.5t-133.5 300.5q0 220 226 309q-194 100 -194 310q0 180 130 275t357.5 95t357.5 -95zM841.5 224.5q77.5 56.5 77.5 176.5q0 99 -76 158.5t-204 59.5h-69
q-128 0 -204 -59.5t-76 -158.5q0 -120 77.5 -176.5t237 -56.5t237 56.5zM635 785q93 0 172.5 58t79.5 158q0 109 -73.5 161t-209 52t-209 -52t-73.5 -161q0 -100 79.5 -158t173.5 -58h60z" />
    <glyph glyph-name="nine" unicode="9" horiz-adv-x="1199" 
d="M601 1216q-155 0 -230 -78t-75 -207q0 -130 75 -213.5t230 -83.5t225 73.5t70 203.5q0 119 -80 212t-215 93zM889 580q-113 -120 -287 -120q-253 0 -382 130t-129 330t129 335t382 135q232 0 370.5 -160t138.5 -470q0 -382 -174.5 -576t-455.5 -194q-130 0 -249 20v154
h206q201 0 319.5 109t131.5 307z" />
    <glyph glyph-name="colon" unicode=":" horiz-adv-x="401" 
d="M331 115q0 63 -30 96.5t-99 33.5q-70 0 -100 -33.5t-30 -96.5q0 -62 30 -93.5t100 -31.5q69 0 99 31.5t30 93.5zM331 870q0 63 -30 96.5t-99 33.5q-70 0 -100 -33.5t-30 -96.5q0 -62 30 -93.5t100 -31.5q69 0 99 31.5t30 93.5z" />
    <glyph glyph-name="semicolon" unicode=";" horiz-adv-x="401" 
d="M35 -261h145q151 234 151 376q0 63 -30 96.5t-99 33.5q-70 0 -100 -33.5t-30 -96.5q0 -62 30 -93q16 -15 16 -59q0 -61 -83 -224zM331 870q0 63 -30 96.5t-99 33.5q-70 0 -100 -33.5t-30 -96.5q0 -62 30 -93.5t100 -31.5q69 0 99 31.5t30 93.5z" />
    <glyph glyph-name="less" unicode="&#x3c;" horiz-adv-x="1101" 
d="M996 151l-792 268q-94 33 -94 150q0 129 86 158l800 271v-206l-662 -202q-13 -5 -13 -16q0 -10 13 -15l662 -202v-206z" />
    <glyph glyph-name="equal" unicode="=" horiz-adv-x="1101" 
d="M93 655v185h915v-185h-915zM93 335v185h915v-185h-915z" />
    <glyph glyph-name="greater" unicode="&#x3e;" horiz-adv-x="1101" 
d="M110 357l662 202q13 5 13 15q0 11 -13 16l-662 202v206l800 -271q86 -29 86 -158q0 -117 -94 -150l-792 -268v206z" />
    <glyph glyph-name="question" unicode="?" horiz-adv-x="900" 
d="M498 115q0 63 -30 96.5t-99 33.5q-70 0 -100 -33.5t-30 -96.5q0 -62 30 -93.5t100 -31.5q69 0 99 31.5t30 93.5zM470 500v-96h-205v96q0 140 109 230t194.5 151t85.5 160q0 90 -70 133t-191 43q-129 0 -348 -22v153q186 43 349 43q217 0 341 -85t124 -265
q0 -170 -125 -265.5t-194.5 -156t-69.5 -119.5z" />
    <glyph glyph-name="at" unicode="@" horiz-adv-x="2019" 
d="M957 836q-151 0 -216 -83t-65 -247q0 -165 65 -253.5t216 -88.5q149 0 214 73.5t65 268.5q0 164 -65 247t-214 83zM1286 143q-96 -153 -360 -153q-207 0 -331 130t-124 385t134 380t351 125q218 0 351.5 -125t133.5 -380v-194q0 -72 30.5 -113t101.5 -41t121 83t50 293
q0 359 -190.5 536.5t-545.5 177.5q-356 0 -546.5 -192.5t-190.5 -561.5q0 -370 215.5 -570.5t591.5 -200.5q272 0 521 59v-163q-262 -64 -520 -64q-430 0 -721.5 246t-291.5 691t266.5 684.5t676.5 239.5q408 0 674 -224.5t266 -659.5q0 -252 -107.5 -391.5t-306.5 -139.5
q-179 0 -249 143z" />
    <glyph glyph-name="A" unicode="A" horiz-adv-x="1373" 
d="M944 517l-234 627q-5 15 -15 15q-11 0 -16 -15l-234 -627h499zM381 343l-130 -343h-222l513 1304q39 86 158 86q107 0 150 -94l509 -1296h-222l-129 343h-627z" />
    <glyph glyph-name="B" unicode="B" horiz-adv-x="1219" 
d="M327 802h333q100 0 161.5 44t61.5 148.5t-62 152.5t-161 48h-333v-393zM327 185h354q125 0 190 57.5t65 162t-65 157.5t-190 53h-354v-430zM122 1380h549q191 0 303.5 -98.5t112.5 -262.5q0 -106 -42 -178.5t-125 -118.5q111 -43 166 -130.5t55 -203.5
q0 -182 -118.5 -285t-320.5 -103h-580v1380z" />
    <glyph glyph-name="C" unicode="C" horiz-adv-x="1261" 
d="M1192 1154q-216 52 -391 52q-245 0 -385 -133t-140 -377q0 -245 140 -383.5t375 -138.5q185 0 401 51v-188q-196 -47 -400 -47q-333 0 -527 190t-194 515t194 510t537 185q194 0 390 -44v-192z" />
    <glyph glyph-name="D" unicode="D" horiz-adv-x="1401" 
d="M682 1380q282 0 465.5 -175t183.5 -510t-183.5 -515t-465.5 -180h-560v1380h560zM327 1195v-1010h354q215 0 330 133t115 378q0 244 -115 371.5t-330 127.5h-354z" />
    <glyph glyph-name="E" unicode="E" horiz-adv-x="1101" 
d="M327 783h668v-185h-668v-318q0 -42 31.5 -68.5t94.5 -26.5h572v-185h-612q-132 0 -211.5 70t-79.5 210v1100h903v-185h-698v-412z" />
    <glyph glyph-name="F" unicode="F" horiz-adv-x="1101" 
d="M327 783h668v-185h-668v-598h-205v1380h903v-185h-698v-412z" />
    <glyph glyph-name="G" unicode="G" horiz-adv-x="1410" 
d="M1110 451v108h-278v185h483v-283q0 -217 -139.5 -344t-413.5 -127q-303 0 -497 185t-194 520t179 515t542 180q214 0 450 -54v-192q-256 62 -451 62q-265 0 -390 -128t-125 -382q0 -255 140 -388.5t345 -133.5q168 0 258.5 76.5t90.5 200.5z" />
    <glyph glyph-name="H" unicode="H" horiz-adv-x="1356" 
d="M327 603v-603h-205v1380h205v-603h705v603h205v-1380h-205v603h-705z" />
    <glyph glyph-name="I" unicode="I" horiz-adv-x="450" 
d="M327 1380v-1380h-205v1380h205z" />
    <glyph glyph-name="J" unicode="J" horiz-adv-x="878" 
d="M783 1380v-940q0 -470 -510 -470q-70 0 -200 20v154h187q318 0 318 313v738h-404v185h609z" />
    <glyph glyph-name="K" unicode="K" horiz-adv-x="1190" 
d="M327 597v-597h-205v1380h205v-601h84l491 601h251l-564 -688l584 -692h-251l-511 597h-84z" />
    <glyph glyph-name="L" unicode="L" horiz-adv-x="1101" 
d="M122 280v1100h205v-1100q0 -42 31.5 -68.5t94.5 -26.5h572v-185h-612q-132 0 -211.5 70t-79.5 210z" />
    <glyph glyph-name="M" unicode="M" horiz-adv-x="1721" 
d="M688 381l-361 622v-1003h-205v1380h215l508 -899q4 -11 14 -11t14 11l508 899h215v-1380h-205v1003l-361 -622q-55 -109 -133 -109h-76q-78 0 -133 109z" />
    <glyph glyph-name="N" unicode="N" horiz-adv-x="1356" 
d="M327 1013v-1013h-205v1380h205l705 -1013v1013h205v-1380h-205z" />
    <glyph glyph-name="O" unicode="O" horiz-adv-x="1439" 
d="M1051 1083q-115 133 -330 133t-330 -133t-115 -387q0 -255 115 -393.5t330 -138.5t330 138.5t115 393.5q0 254 -115 387zM240 1210q169 180 482 180q312 0 480.5 -180t168.5 -515t-168.5 -520t-480.5 -185q-313 0 -482 185t-169 520t169 515z" />
    <glyph glyph-name="P" unicode="P" horiz-adv-x="1199" 
d="M327 695h284q155 0 230 68t75 178q0 109 -65 181.5t-240 72.5h-284v-500zM327 510v-510h-205v1380h490q242 0 375.5 -120t133.5 -320t-143.5 -315t-365.5 -115h-285z" />
    <glyph glyph-name="Q" unicode="Q" horiz-adv-x="1439" 
d="M843 111q0 -213 248 -213h237v-154q-180 -20 -250 -20q-440 0 -440 370zM1051 1083q-115 133 -330 133t-330 -133t-115 -387q0 -255 115 -393.5t330 -138.5t330 138.5t115 393.5q0 254 -115 387zM240 1210q169 180 482 180q312 0 480.5 -180t168.5 -515t-168.5 -520
t-480.5 -185q-313 0 -482 185t-169 520t169 515z" />
    <glyph glyph-name="R" unicode="R" horiz-adv-x="1199" 
d="M327 715h264q145 0 220 58t75 178q0 119 -65 181.5t-230 62.5h-264v-480zM625 530h-298v-530h-205v1380h470q232 0 365.5 -110t133.5 -320q0 -270 -253 -376l368 -574h-251z" />
    <glyph glyph-name="S" unicode="S" horiz-adv-x="1199" 
d="M205 760q-114 90 -114 250q0 170 134 275t397 105q194 0 420 -44v-182q-246 42 -421 42t-250 -53t-75 -142q0 -70 73.5 -121t300 -115t340.5 -149t114 -245q0 -170 -139 -280t-412 -110q-244 0 -470 44v182q246 -42 471 -42q185 0 265 58t80 148q0 69 -78.5 115t-300 110
t-335.5 154z" />
    <glyph glyph-name="T" unicode="T" horiz-adv-x="1246" 
d="M727 1195v-1195h-205v1195h-472v185h1148v-185h-471z" />
    <glyph glyph-name="U" unicode="U" horiz-adv-x="1335" 
d="M286 1379v-843q0 -175 100 -273.5t285 -98.5t285 98.5t100 273.5v843h205v-844q0 -265 -168.5 -405t-421 -140t-421.5 140t-169 405v844h205z" />
    <glyph glyph-name="V" unicode="V" horiz-adv-x="1373" 
d="M710 236l427 1144h222l-509 -1296q-43 -94 -150 -94q-119 0 -158 86l-513 1304h222l428 -1144q5 -15 16 -15q10 0 15 15z" />
    <glyph glyph-name="W" unicode="W" horiz-adv-x="2100" 
d="M1034 972l-284 -888q-33 -94 -150 -94q-129 0 -158 86l-413 1304h222l328 -1144q5 -15 16 -15q10 0 15 15l313 1029l17 58q17 57 84 57h52q66 0 83 -57l17 -58l314 -1029q5 -15 16 -15q10 0 15 15l327 1144h222l-409 -1296q-33 -94 -150 -94q-129 0 -158 86l-287 896
q-5 16 -16 16t-16 -16z" />
    <glyph glyph-name="X" unicode="X" horiz-adv-x="1327" 
d="M784 725l516 -725h-241l-396 556l-396 -556h-241l517 725l-467 655h241l346 -486l346 486h241z" />
    <glyph glyph-name="Y" unicode="Y" horiz-adv-x="1327" 
d="M561 510l-535 870h241l396 -676l396 676h241l-534 -870v-510h-205v510z" />
    <glyph glyph-name="Z" unicode="Z" horiz-adv-x="1202" 
d="M1128 1380v-155l-781 -1040h781v-185h-1058v155l782 1040h-782v185h1058z" />
    <glyph glyph-name="bracketleft" unicode="[" horiz-adv-x="601" 
d="M554 1194h-268v-1348h268v-195h-473v1738h473v-195z" />
    <glyph glyph-name="backslash" unicode="\" horiz-adv-x="731" 
d="M11 1389h205l500 -1738h-205z" />
    <glyph glyph-name="bracketright" unicode="]" horiz-adv-x="601" 
d="M41 1389h473v-1738h-473v195h268v1348h-268v195z" />
    <glyph glyph-name="asciicircum" unicode="^" horiz-adv-x="1101" 
d="M553 1165l-288 -539h-216l412 755h184l412 -755h-216z" />
    <glyph glyph-name="underscore" unicode="_" horiz-adv-x="1101" 
d="M-10 -405v185h1128v-185h-1128z" />
    <glyph glyph-name="grave" unicode="`" horiz-adv-x="700" 
d="M298 1136l-249 244h235l249 -244h-235z" />
    <glyph glyph-name="a" unicode="a" horiz-adv-x="1038" 
d="M740 460h-199q-154 0 -219.5 -41t-65.5 -110q0 -60 50 -103t141 -43q140 0 216.5 48t76.5 133v116zM740 69q-109 -80 -284 -80q-187 0 -296 80t-109 220q0 160 125 240.5t364 81.5h200v40q0 79 -60 132t-201 53q-129 0 -328 -12v153q166 33 329 33q237 0 351 -95
t114 -275v-640h-205v69z" />
    <glyph glyph-name="b" unicode="b" horiz-adv-x="1131" 
d="M575 165q151 0 216 83t65 247q0 165 -65 253.5t-216 88.5q-149 0 -214 -73.5t-65 -268.5q0 -164 65 -247t214 -83zM296 908q96 103 310 103q207 0 331 -130t124 -385t-134 -380t-351 -125q-218 0 -351.5 125t-133.5 380v944h205v-532z" />
    <glyph glyph-name="c" unicode="c" horiz-adv-x="957" 
d="M885 794q-179 42 -298 42q-171 0 -241 -83t-70 -247q0 -165 70 -253.5t241 -88.5q119 0 298 31v-159q-186 -46 -299 -46q-237 0 -376 130t-139 385t139 380t376 125q113 0 299 -43v-173z" />
    <glyph glyph-name="d" unicode="d" horiz-adv-x="1131" 
d="M836 495q0 195 -65 268.5t-214 73.5q-151 0 -216 -88.5t-65 -253.5q0 -164 65 -247t216 -83q149 0 214 83t65 247zM836 1440h205v-944q0 -255 -133.5 -380t-351.5 -125q-217 0 -351 125t-134 380t124 385t331 130q214 0 310 -103v532z" />
    <glyph glyph-name="e" unicode="e" horiz-adv-x="1099" 
d="M835 578q-11 111 -73.5 184.5t-203.5 73.5q-142 0 -210 -78.5t-68 -179.5h555zM280 414q0 -90 78 -170t279 -80q129 0 328 21v-159q-236 -36 -359 -36q-247 0 -391 130t-144 385t139 380t353 125t347.5 -130t133.5 -375v-35q0 -56 -52 -56h-712z" />
    <glyph glyph-name="f" unicode="f" horiz-adv-x="701" 
d="M181 1000v160q0 290 290 290q110 0 280 -20v-154h-247q-118 0 -118 -143v-133h291v-174h-291v-826h-205v826h-144v174h144z" />
    <glyph glyph-name="g" unicode="g" horiz-adv-x="1131" 
d="M557 836q-151 0 -216 -83t-65 -247q0 -165 65 -253.5t216 -88.5q149 0 214 73.5t65 268.5q0 164 -65 247t-214 83zM836 93q-96 -103 -310 -103q-207 0 -331 130t-124 385t134 380t351 125q218 0 351.5 -125t133.5 -380v-504q0 -430 -490 -430q-130 0 -299 20v154h296
q288 0 288 243v105z" />
    <glyph glyph-name="h" unicode="h" horiz-adv-x="1108" 
d="M306 928q102 82 300 82q208 0 306.5 -90t98.5 -310v-610h-205v603q0 117 -45 175t-194 58q-131 0 -196 -58t-65 -175v-603h-205v1440h205v-512z" />
    <glyph glyph-name="i" unicode="i" horiz-adv-x="401" 
d="M304 1000v-1000h-205v1000h205zM301 1382.5q-30 31.5 -99 31.5q-70 0 -100 -31.5t-30 -93.5q0 -63 30 -96.5t100 -33.5q69 0 99 33.5t30 96.5q0 62 -30 93.5z" />
    <glyph glyph-name="j" unicode="j" horiz-adv-x="401" 
d="M301 1382.5q-30 31.5 -99 31.5q-70 0 -100 -31.5t-30 -93.5q0 -63 30 -96.5t100 -33.5q69 0 99 33.5t30 96.5q0 62 -30 93.5zM304 -140q0 -270 -290 -270q-70 0 -170 20v154h137q118 0 118 153v1083h205v-1140z" />
    <glyph glyph-name="k" unicode="k" horiz-adv-x="1026" 
d="M306 447v-447h-205v1440h205v-811h99l297 371h241l-375 -448l443 -552h-251l-362 447h-92z" />
    <glyph glyph-name="l" unicode="l" horiz-adv-x="500" 
d="M99 1439h205v-1182q0 -93 88 -93h77v-154q-70 -20 -140 -20q-230 0 -230 210v1239z" />
    <glyph glyph-name="m" unicode="m" horiz-adv-x="1600" 
d="M696 633q0 117 -50 160t-145 43t-145 -38t-50 -165v-633h-205v640q0 220 109 295t277 75q227 0 312 -140q85 140 313 140q167 0 275.5 -75t108.5 -295v-640h-205v633q0 127 -50 165t-145 38t-145 -43t-50 -160v-633h-205v633z" />
    <glyph glyph-name="n" unicode="n" horiz-adv-x="1108" 
d="M356 778q-50 -58 -50 -175v-603h-205v610q0 220 119 310t336 90q218 0 336.5 -90t118.5 -310v-610h-205v603q0 117 -50 175t-199 58q-151 0 -201 -58z" />
    <glyph glyph-name="o" unicode="o" horiz-adv-x="1108" 
d="M771 753q-65 83 -214 83q-151 0 -216 -83t-65 -247q0 -165 65 -253.5t216 -88.5q149 0 214 88.5t65 253.5q0 164 -65 247zM205 885q134 125 351 125q218 0 351.5 -125t133.5 -380t-133.5 -385t-351.5 -130q-217 0 -351 130t-134 385t134 380z" />
    <glyph glyph-name="p" unicode="p" horiz-adv-x="1131" 
d="M296 506q0 -195 65 -268.5t214 -73.5q151 0 216 88.5t65 253.5q0 164 -65 247t-216 83q-149 0 -214 -83t-65 -247zM296 -418h-205v923q0 255 133.5 380t351.5 125q217 0 351 -125t134 -380t-124 -385t-331 -130q-214 0 -310 103v-511z" />
    <glyph glyph-name="q" unicode="q" horiz-adv-x="1131" 
d="M557 836q-151 0 -216 -83t-65 -247q0 -165 65 -253.5t216 -88.5q149 0 214 73.5t65 268.5q0 164 -65 247t-214 83zM836 93q-96 -103 -310 -103q-207 0 -331 130t-124 385t134 380t351 125q218 0 351.5 -125t133.5 -380v-923h-205v511z" />
    <glyph glyph-name="r" unicode="r" horiz-adv-x="689" 
d="M306 743v-743h-205v800q0 200 260 200q140 0 310 -20v-154h-277q-88 0 -88 -83z" />
    <glyph glyph-name="s" unicode="s" horiz-adv-x="964" 
d="M175 510q-104 70 -104 210q0 150 104 220t321 70q163 0 369 -43v-153q-239 22 -368 22q-121 0 -171 -28t-50 -87q0 -50 64.5 -80.5t210.5 -56t250 -95.5t104 -210q0 -150 -104 -220t-321 -70q-163 0 -389 43v153q259 -22 388 -22q121 0 171 28t50 88q0 49 -65 79.5
t-210.5 56t-249.5 95.5z" />
    <glyph glyph-name="t" unicode="t" horiz-adv-x="794" 
d="M37 826v174h144v280h205v-280h351v-174h-351v-509q0 -153 118 -153h247v-154q-170 -20 -280 -20q-290 0 -290 270v566h-144z" />
    <glyph glyph-name="u" unicode="u" horiz-adv-x="1108" 
d="M557 164q149 0 199 58.5t50 174.5v603h205v-610q0 -220 -118.5 -310t-336.5 -90q-217 0 -336 90t-119 310v610h205v-603q0 -116 50 -174.5t201 -58.5z" />
    <glyph glyph-name="v" unicode="v" horiz-adv-x="1060" 
d="M550 216l267 784h222l-349 -906q-33 -94 -150 -94q-129 0 -158 86l-353 914h222l268 -784q5 -15 16 -15q10 0 15 15z" />
    <glyph glyph-name="w" unicode="w" horiz-adv-x="1657" 
d="M825 653l-179 -539q-34 -114 -151 -114q-129 0 -157 106l-309 894h222l224 -764q5 -15 16 -15q10 0 15 15l213 687q23 77 91 77h47q66 0 88 -77l216 -687q5 -15 16 -15q10 0 15 15l221 764h222l-303 -886q-34 -114 -151 -114q-129 0 -157 106l-182 547q-4 12 -8 12
q-5 0 -9 -12z" />
    <glyph glyph-name="x" unicode="x" horiz-adv-x="1071" 
d="M662 520l389 -520h-251l-263 372l-264 -372h-251l389 520l-359 480h251l234 -332l233 332h251z" />
    <glyph glyph-name="y" unicode="y" horiz-adv-x="1108" 
d="M806 61q-122 -71 -290 -71q-197 0 -306 90t-109 310v610h205v-603q0 -116 50 -174.5t201 -58.5q149 0 199 58.5t50 174.5v603h205v-999q0 -430 -490 -430q-130 0 -299 20v154h296q288 0 288 243v73z" />
    <glyph glyph-name="z" unicode="z" horiz-adv-x="1000" 
d="M680 826h-632v174h903v-174l-632 -651h632v-174h-903v174z" />
    <glyph glyph-name="braceleft" unicode="{" horiz-adv-x="701" 
d="M201 761v307q0 321 338 321h115v-195h-115q-133 0 -133 -126v-312q0 -206 -170 -232q170 -27 170 -233v-312q0 -133 133 -133h115v-195h-115q-338 0 -338 328v305q0 144 -157 144v185q157 0 157 148z" />
    <glyph glyph-name="bar" unicode="|" horiz-adv-x="700" 
d="M452 -349h-205v1738h205v-1738z" />
    <glyph glyph-name="braceright" unicode="}" horiz-adv-x="701" 
d="M654 613v-185q-157 0 -157 -144v-305q0 -328 -338 -328h-115v195h115q133 0 133 133v312q0 206 170 233q-170 26 -170 232v312q0 126 -133 126h-115v195h115q338 0 338 -321v-307q0 -148 157 -148z" />
    <glyph glyph-name="asciitilde" unicode="~" horiz-adv-x="1144" 
d="M335 502q-60 0 -88 -40t-28 -80v-20h-174v28q0 129 70 223t220 94q140 0 271 -69.5t201 -69.5q59 0 87 40t28 85v26h174v-34q0 -134 -70 -228t-220 -94q-140 0 -271 69.5t-200 69.5z" />
    <glyph glyph-name="exclamdown" unicode="&#xa1;" horiz-adv-x="401" 
d="M304 586v-976h-205v976h205zM72 875q0 -63 30 -96.5t99 -33.5q70 0 100 33.5t30 96.5q0 62 -30 93.5t-100 31.5q-69 0 -99 -31.5t-30 -93.5z" />
    <glyph glyph-name="cent" unicode="&#xa2;" horiz-adv-x="968" 
d="M690 1233v-1433h-205v1433h205zM885 794q-179 42 -298 42q-171 0 -241 -83t-70 -247q0 -165 70 -253.5t241 -88.5q119 0 298 31v-159q-186 -46 -299 -46q-237 0 -376 130t-139 385t139 380t376 125q113 0 299 -43v-173z" />
    <glyph glyph-name="sterling" unicode="&#xa3;" horiz-adv-x="1136" 
d="M434 561v-376h664v-185h-869v561h-166v185h166v224q0 440 520 440q70 0 340 -20v-154h-327q-328 0 -328 -283v-207h381v-185h-381z" />
    <glyph glyph-name="yen" unicode="&#xa5;" horiz-adv-x="1327" 
d="M561 625v55l-535 700h241l396 -506l396 506h241l-534 -700v-55h355v-185h-355v-135h355v-185h-355v-120h-205v120h-355v185h355v135h-355v185h355z" />
    <glyph glyph-name="brokenbar" unicode="&#xa6;" horiz-adv-x="700" 
d="M452 402v-751h-205v751h205zM247 638v751h205v-751h-205z" />
    <glyph glyph-name="section" unicode="&#xa7;" horiz-adv-x="1014" 
d="M217 845q-146 87 -146 257q0 150 104 220t321 70q163 0 369 -43v-153q-239 22 -368 22q-121 0 -171 -28t-50 -87q0 -50 64.5 -95.5t240.5 -111t280 -150.5t104 -225q0 -170 -176 -253q146 -77 146 -257q0 -150 -104 -220t-321 -70q-163 0 -389 53v153q259 -32 388 -32
q121 0 171 28t50 87q0 50 -64.5 95.5t-240.5 111t-280 150.5t-104 225q0 180 176 253zM634 352q126 49 126 169q0 49 -65 94.5t-314 139.5q-135 -43 -135 -163q0 -49 65 -94.5t323 -145.5z" />
    <glyph glyph-name="dieresis" unicode="&#xa8;" horiz-adv-x="1024" 
d="M712 1380q-63 0 -96.5 -30t-33.5 -99q0 -70 33.5 -100t96.5 -30q62 0 93.5 30t31.5 100q0 69 -31.5 99t-93.5 30zM317 1380q-63 0 -96.5 -30t-33.5 -99q0 -70 33.5 -100t96.5 -30q62 0 93.5 30t31.5 100q0 69 -31.5 99t-93.5 30z" />
    <glyph glyph-name="copyright" unicode="&#xa9;" horiz-adv-x="1528" 
d="M248.5 1200q187.5 190 526.5 190q337 0 524 -190t187 -505t-187 -510t-524 -195q-339 0 -526.5 195t-187.5 510t187.5 505zM180 694q0 -262 156.5 -424t437.5 -162t437.5 162t156.5 424t-156.5 420t-437.5 158t-437.5 -158t-156.5 -420zM1083 931q-160 39 -261 39
q-135 0 -212 -73.5t-77 -212.5q0 -141 77 -217.5t206 -76.5q107 0 267 38v-154q-140 -34 -266 -34q-213 0 -336 120.5t-123 322.5t123.5 319.5t341.5 117.5q120 0 260 -31v-158z" />
    <glyph glyph-name="ordfeminine" unicode="&#xaa;" horiz-adv-x="649" 
d="M461 1050h-119q-93 0 -132 -24.5t-39 -66.5q0 -36 30 -61.5t84 -25.5q84 0 130 28.5t46 79.5v70zM461 815q-65 -48 -170 -48q-113 0 -178 48t-65 132q0 96 75 144.5t218 49.5h120v24q0 47 -36 79t-121 32q-77 0 -196 -8v92q99 20 197 20q142 0 210.5 -57t68.5 -165v-384
h-123v41z" />
    <glyph glyph-name="guillemotleft" unicode="&#xab;" horiz-adv-x="1126" 
d="M110 151zM596 151l-392 268q-94 63 -94 150q0 99 86 158l400 271v-206l-252 -192q-23 -15 -23 -26q0 -10 23 -25l252 -192v-206zM1024 151l-392 268q-94 63 -94 150q0 99 86 158l400 271v-206l-252 -192q-23 -15 -23 -26q0 -10 23 -25l252 -192v-206z" />
    <glyph glyph-name="logicalnot" unicode="&#xac;" horiz-adv-x="1101" 
d="M1045 380h-205v295h-798v185h1003v-480z" />
    <glyph glyph-name="registered" unicode="&#xae;" horiz-adv-x="1528" 
d="M248.5 1200q187.5 190 526.5 190q337 0 524 -190t187 -505t-187 -510t-524 -195q-339 0 -526.5 195t-187.5 510t187.5 505zM180 694q0 -262 156.5 -424t437.5 -162t437.5 162t156.5 424t-156.5 420t-437.5 158t-437.5 -158t-156.5 -420zM624 721h132q77 0 114 29t37 93
t-32 95t-119 31h-132v-248zM761 570h-137v-318h-175v868h308q150 0 237.5 -72t87.5 -206q0 -174 -143 -234l228 -356h-208z" />
    <glyph glyph-name="macron" unicode="&#xaf;" 
d="M80 1128v185h748v-185h-748z" />
    <glyph glyph-name="degree" unicode="&#xb0;" horiz-adv-x="781" 
d="M500.5 1163.5q-31.5 43.5 -104.5 43.5t-105 -43.5t-32 -109.5q0 -67 32 -113t105 -46t104.5 46t31.5 113q0 66 -31.5 109.5zM163 1294.5q96 85.5 233 85.5t232.5 -85.5t95.5 -240.5t-95.5 -243.5t-232.5 -88.5t-233 88.5t-96 243.5t96 240.5z" />
    <glyph glyph-name="plusminus" unicode="&#xb1;" horiz-adv-x="1199" 
d="M93 0v185h1015v-185h-1015zM508 715h-415v185h415v415h185v-415h415v-185h-415v-415h-185v415z" />
    <glyph glyph-name="uni00B2" unicode="&#xb2;" 
d="M123 637l388 351q91 75 91 149q0 56 -40.5 82.5t-131.5 26.5q-105 0 -280 -23v136q156 31 279 31q168 0 263 -65.5t95 -188.5q0 -134 -178 -280l-220 -189h398v-151h-664v121z" />
    <glyph glyph-name="uni00B3" unicode="&#xb3;" 
d="M663 965q141 -44 141 -188q0 -123 -98 -194.5t-286 -71.5q-142 0 -299 31v136q175 -23 300 -23q110 0 154 32t44 90q0 39 -39 71.5t-130 32.5h-155v152h152q74 0 112.5 37t38.5 79q0 49 -40 73t-132 24q-105 0 -280 -23v136q156 31 279 31q167 0 262.5 -62.5t95.5 -179.5
q0 -130 -120 -183z" />
    <glyph glyph-name="acute" unicode="&#xb4;" horiz-adv-x="700" 
d="M242 1136l249 244h235l-249 -244h-235z" />
    <glyph glyph-name="mu" unicode="&#xb5;" horiz-adv-x="1108" 
d="M306 396q0 -115 50 -173.5t201 -58.5q149 0 199 58.5t50 174.5v603h205v-610q0 -220 -118.5 -310t-336.5 -90q-158 0 -250 72v-480h-205v1418h205v-604z" />
    <glyph glyph-name="paragraph" unicode="&#xb6;" horiz-adv-x="1423" 
d="M921 1190v-1608h-205v928h-85q-222 0 -365.5 115t-143.5 315t133.5 320t375.5 120h650v-1798h-205v1608h-155z" />
    <glyph glyph-name="periodcentered" unicode="&#xb7;" horiz-adv-x="378" 
d="M292 688q0 53 -25.5 81.5t-83.5 28.5q-60 0 -85.5 -28.5t-25.5 -81.5t25.5 -79.5t85.5 -26.5q58 0 83.5 26.5t25.5 79.5z" />
    <glyph glyph-name="periodcentered" unicode="&#x2219;" horiz-adv-x="378" 
d="M292 688q0 53 -25.5 81.5t-83.5 28.5q-60 0 -85.5 -28.5t-25.5 -81.5t25.5 -79.5t85.5 -26.5q58 0 83.5 26.5t25.5 79.5z" />
    <glyph glyph-name="cedilla" unicode="&#xb8;" horiz-adv-x="769" 
d="M346 -70h45q273 0 273 -229.5t-321 -229.5q-104 0 -230 24v142q146 -12 231 -12q125 0 125 75.5t-87 75.5h-211v249h175v-95z" />
    <glyph glyph-name="uni00B9" unicode="&#xb9;" 
d="M367 663v529l-243 -91v164l289 115h139v-717h236v-151h-664v151h243z" />
    <glyph glyph-name="ordmasculine" unicode="&#xba;" horiz-adv-x="725" 
d="M487 1226q-39 50 -129 50t-129 -50t-39 -148q0 -99 39 -152.5t129 -53.5t129 53.5t39 152.5q0 98 -39 148zM147 1305q80 75 211 75q130 0 210.5 -75t80.5 -228t-80.5 -231t-210.5 -78q-131 0 -211 78t-80 231t80 228z" />
    <glyph glyph-name="guillemotright" unicode="&#xbb;" horiz-adv-x="1126" 
d="M110 151zM110 357l252 192q23 15 23 25q0 11 -23 26l-252 192v206l400 -271q86 -59 86 -158q0 -87 -94 -150l-392 -268v206zM538 357l252 192q23 15 23 25q0 11 -23 26l-252 192v206l400 -271q86 -59 86 -158q0 -87 -94 -150l-392 -268v206z" />
    <glyph glyph-name="onequarter" unicode="&#xbc;" horiz-adv-x="2140" 
d="M124 0zM367 663v529l-243 -91v164l289 115h139v-717h236v-151h-664v151h243zM756 0h-241l1083 1380h241zM1778 174h-457v111l348 583h210l-325 -543h224v220h185v-220h104v-151h-104v-174h-185v174z" />
    <glyph glyph-name="onehalf" unicode="&#xbd;" horiz-adv-x="2140" 
d="M124 0zM367 663v529l-243 -91v164l289 115h139v-717h236v-151h-664v151h243zM676 0h-241l1083 1380h241zM1364 121l388 351q91 75 91 149q0 56 -40.5 82.5t-131.5 26.5q-105 0 -280 -23v136q156 31 279 31q168 0 263 -65.5t95 -188.5q0 -134 -178 -280l-220 -189h398
v-151h-664v121z" />
    <glyph glyph-name="threequarters" unicode="&#xbe;" horiz-adv-x="2140" 
d="M121 0zM663 965q141 -44 141 -188q0 -123 -98 -194.5t-286 -71.5q-142 0 -299 31v136q175 -23 300 -23q110 0 154 32t44 90q0 39 -39 71.5t-130 32.5h-155v152h152q74 0 112.5 37t38.5 79q0 49 -40 73t-132 24q-105 0 -280 -23v136q156 31 279 31q167 0 262.5 -62.5
t95.5 -179.5q0 -130 -120 -183zM706 0h-241l1083 1380h241zM1778 174h-457v111l348 583h210l-325 -543h224v220h185v-220h104v-151h-104v-174h-185v174z" />
    <glyph glyph-name="questiondown" unicode="&#xbf;" horiz-adv-x="900" 
d="M406 875q0 -63 30 -96.5t99 -33.5q70 0 100 33.5t30 96.5q0 62 -30 93.5t-100 31.5q-69 0 -99 -31.5t-30 -93.5zM434 490v96h205v-96q0 -140 -109 -230t-194.5 -151t-85.5 -160q0 -90 70 -133t191 -43q129 0 348 22v-153q-186 -43 -349 -43q-217 0 -341 85t-124 265
q0 170 125 265.5t194.5 156t69.5 119.5z" />
    <glyph glyph-name="Agrave" unicode="&#xc0;" horiz-adv-x="1373" 
d="M29 0zM944 517l-234 627q-5 15 -15 15q-11 0 -16 -15l-234 -627h499zM381 343l-130 -343h-222l513 1304q39 86 158 86q107 0 150 -94l509 -1296h-222l-129 343h-627zM620 1516l-249 244h235l249 -244h-235z" />
    <glyph glyph-name="Aacute" unicode="&#xc1;" horiz-adv-x="1373" 
d="M29 0zM944 517l-234 627q-5 15 -15 15q-11 0 -16 -15l-234 -627h499zM381 343l-130 -343h-222l513 1304q39 86 158 86q107 0 150 -94l509 -1296h-222l-129 343h-627zM533 1516l249 244h235l-249 -244h-235z" />
    <glyph glyph-name="Acircumflex" unicode="&#xc2;" horiz-adv-x="1373" 
d="M29 0zM944 517l-234 627q-5 15 -15 15q-11 0 -16 -15l-234 -627h499zM381 343l-130 -343h-222l513 1304q39 86 158 86q107 0 150 -94l509 -1296h-222l-129 343h-627zM694 1613l-109 -97h-225l254 244h160l254 -244h-225z" />
    <glyph glyph-name="Atilde" unicode="&#xc3;" horiz-adv-x="1373" 
d="M29 0zM944 517l-234 627q-5 15 -15 15q-11 0 -16 -15l-234 -627h499zM381 343l-130 -343h-222l513 1304q39 86 158 86q107 0 150 -94l509 -1296h-222l-129 343h-627zM560 1592q-41 0 -60.5 -26.5t-19.5 -57.5h-151q0 107 48.5 170.5t152.5 63.5q88 0 169 -41.5t129 -41.5
q41 0 60.5 26.5t19.5 62.5h151q0 -112 -48.5 -175.5t-152.5 -63.5q-88 0 -169 41.5t-129 41.5z" />
    <glyph glyph-name="Adieresis" unicode="&#xc4;" horiz-adv-x="1373" 
d="M29 0zM944 517l-234 627q-5 15 -15 15q-11 0 -16 -15l-234 -627h499zM381 343l-130 -343h-222l513 1304q39 86 158 86q107 0 150 -94l509 -1296h-222l-129 343h-627zM894 1760q-63 0 -96.5 -30t-33.5 -99q0 -70 33.5 -100t96.5 -30q62 0 93.5 30t31.5 100q0 69 -31.5 99
t-93.5 30zM499 1760q-63 0 -96.5 -30t-33.5 -99q0 -70 33.5 -100t96.5 -30q62 0 93.5 30t31.5 100q0 69 -31.5 99t-93.5 30z" />
    <glyph glyph-name="Aring" unicode="&#xc5;" horiz-adv-x="1373" 
d="M29 0zM944 517l-234 627q-5 15 -15 15q-11 0 -16 -15l-234 -627h499zM381 343l-130 -343h-222l513 1304q39 86 158 86q107 0 150 -94l509 -1296h-222l-129 343h-627zM697 1839q-74 0 -134 -49.5t-60 -142.5q0 -95 60 -145t134 -50q73 0 130 50t57 145q0 93 -57 142.5
t-130 49.5zM752.5 1701.5q19.5 -23.5 19.5 -55.5q0 -33 -19.5 -56t-57.5 -23q-39 0 -59 23t-20 56q0 32 20 55.5t59 23.5q38 0 57.5 -23.5z" />
    <glyph glyph-name="AE" unicode="&#xc6;" horiz-adv-x="1797" 
d="M1724 1380v-185h-648v-412h618v-185h-618v-318q0 -42 31.5 -68.5t94.5 -26.5h522v-185h-562q-132 0 -211.5 70t-79.5 210v63h-490l-130 -343h-222l501 1255q51 125 180 125h1014zM871 517v678h-136q-51 0 -68 -50l-222 -628h426z" />
    <glyph glyph-name="Ccedilla" unicode="&#xc7;" horiz-adv-x="1261" 
d="M71 0zM1192 1154q-216 52 -391 52q-245 0 -385 -133t-140 -377q0 -245 140 -383.5t375 -138.5q185 0 401 51v-188q-196 -47 -400 -47q-333 0 -527 190t-194 515t194 510t537 185q194 0 390 -44v-192zM829 -70h45q273 0 273 -229.5t-321 -229.5q-104 0 -230 24v142
q146 -12 231 -12q125 0 125 75.5t-87 75.5h-211v249h175v-95z" />
    <glyph glyph-name="Egrave" unicode="&#xc8;" horiz-adv-x="1101" 
d="M122 0zM327 783h668v-185h-668v-318q0 -42 31.5 -68.5t94.5 -26.5h572v-185h-612q-132 0 -211.5 70t-79.5 210v1100h903v-185h-698v-412zM500 1516l-249 244h235l249 -244h-235z" />
    <glyph glyph-name="Eacute" unicode="&#xc9;" horiz-adv-x="1101" 
d="M122 0zM327 783h668v-185h-668v-318q0 -42 31.5 -68.5t94.5 -26.5h572v-185h-612q-132 0 -211.5 70t-79.5 210v1100h903v-185h-698v-412zM412 1516l249 244h235l-249 -244h-235z" />
    <glyph glyph-name="Ecircumflex" unicode="&#xca;" horiz-adv-x="1101" 
d="M122 0zM327 783h668v-185h-668v-318q0 -42 31.5 -68.5t94.5 -26.5h572v-185h-612q-132 0 -211.5 70t-79.5 210v1100h903v-185h-698v-412zM574 1613l-109 -97h-225l254 244h160l254 -244h-225z" />
    <glyph glyph-name="Edieresis" unicode="&#xcb;" horiz-adv-x="1101" 
d="M122 0zM327 783h668v-185h-668v-318q0 -42 31.5 -68.5t94.5 -26.5h572v-185h-612q-132 0 -211.5 70t-79.5 210v1100h903v-185h-698v-412zM774 1760q-63 0 -96.5 -30t-33.5 -99q0 -70 33.5 -100t96.5 -30q62 0 93.5 30t31.5 100q0 69 -31.5 99t-93.5 30zM379 1760
q-63 0 -96.5 -30t-33.5 -99q0 -70 33.5 -100t96.5 -30q62 0 93.5 30t31.5 100q0 69 -31.5 99t-93.5 30z" />
    <glyph glyph-name="Igrave" unicode="&#xcc;" horiz-adv-x="450" 
d="M0 0zM327 1380v-1380h-205v1380h205zM151 1516l-249 244h235l249 -244h-235z" />
    <glyph glyph-name="Iacute" unicode="&#xcd;" horiz-adv-x="450" 
d="M63 0zM327 1380v-1380h-205v1380h205zM63 1516l249 244h235l-249 -244h-235z" />
    <glyph glyph-name="Icircumflex" unicode="&#xce;" horiz-adv-x="450" 
d="M0 0zM328 1380v-1380h-205v1380h205zM225 1613l-109 -97h-225l254 244h160l254 -244h-225z" />
    <glyph glyph-name="Idieresis" unicode="&#xcf;" horiz-adv-x="450" 
d="M0 0zM328 1380v-1380h-205v1380h205zM425 1760q-63 0 -96.5 -30t-33.5 -99q0 -70 33.5 -100t96.5 -30q62 0 93.5 30t31.5 100q0 69 -31.5 99t-93.5 30zM30 1760q-63 0 -96.5 -30t-33.5 -99q0 -70 33.5 -100t96.5 -30q62 0 93.5 30t31.5 100q0 69 -31.5 99t-93.5 30z" />
    <glyph glyph-name="Eth" unicode="&#xd0;" horiz-adv-x="1463" 
d="M407 598v-413h354q215 0 330 133t115 378q0 244 -115 371.5t-330 127.5h-354v-412h328v-185h-328zM202 783v597h560q282 0 465.5 -175t183.5 -510t-183.5 -515t-465.5 -180h-560v598h-140v185h140z" />
    <glyph glyph-name="Ntilde" unicode="&#xd1;" horiz-adv-x="1356" 
d="M122 0zM327 1013v-1013h-205v1380h205l705 -1013v1013h205v-1380h-205zM546 1592q-41 0 -60.5 -26.5t-19.5 -57.5h-151q0 107 48.5 170.5t152.5 63.5q88 0 169 -41.5t129 -41.5q41 0 60.5 26.5t19.5 62.5h151q0 -112 -48.5 -175.5t-152.5 -63.5q-88 0 -169 41.5
t-129 41.5z" />
    <glyph glyph-name="Ograve" unicode="&#xd2;" horiz-adv-x="1439" 
d="M71 0zM1051 1083q-115 133 -330 133t-330 -133t-115 -387q0 -255 115 -393.5t330 -138.5t330 138.5t115 393.5q0 254 -115 387zM240 1210q169 180 482 180q312 0 480.5 -180t168.5 -515t-168.5 -520t-480.5 -185q-313 0 -482 185t-169 520t169 515zM647 1516l-249 244
h235l249 -244h-235z" />
    <glyph glyph-name="Oacute" unicode="&#xd3;" horiz-adv-x="1439" 
d="M71 0zM1051 1083q-115 133 -330 133t-330 -133t-115 -387q0 -255 115 -393.5t330 -138.5t330 138.5t115 393.5q0 254 -115 387zM240 1210q169 180 482 180q312 0 480.5 -180t168.5 -515t-168.5 -520t-480.5 -185q-313 0 -482 185t-169 520t169 515zM560 1516l249 244h235
l-249 -244h-235z" />
    <glyph glyph-name="Ocircumflex" unicode="&#xd4;" horiz-adv-x="1439" 
d="M71 0zM1051 1083q-115 133 -330 133t-330 -133t-115 -387q0 -255 115 -393.5t330 -138.5t330 138.5t115 393.5q0 254 -115 387zM240 1210q169 180 482 180q312 0 480.5 -180t168.5 -515t-168.5 -520t-480.5 -185q-313 0 -482 185t-169 520t169 515zM721 1613l-109 -97
h-225l254 244h160l254 -244h-225z" />
    <glyph glyph-name="Otilde" unicode="&#xd5;" horiz-adv-x="1439" 
d="M71 0zM1051 1083q-115 133 -330 133t-330 -133t-115 -387q0 -255 115 -393.5t330 -138.5t330 138.5t115 393.5q0 254 -115 387zM240 1210q169 180 482 180q312 0 480.5 -180t168.5 -515t-168.5 -520t-480.5 -185q-313 0 -482 185t-169 520t169 515zM587 1592
q-41 0 -60.5 -26.5t-19.5 -57.5h-151q0 107 48.5 170.5t152.5 63.5q88 0 169 -41.5t129 -41.5q41 0 60.5 26.5t19.5 62.5h151q0 -112 -48.5 -175.5t-152.5 -63.5q-88 0 -169 41.5t-129 41.5z" />
    <glyph glyph-name="Odieresis" unicode="&#xd6;" horiz-adv-x="1439" 
d="M71 0zM1051 1083q-115 133 -330 133t-330 -133t-115 -387q0 -255 115 -393.5t330 -138.5t330 138.5t115 393.5q0 254 -115 387zM240 1210q169 180 482 180q312 0 480.5 -180t168.5 -515t-168.5 -520t-480.5 -185q-313 0 -482 185t-169 520t169 515zM921 1760
q-63 0 -96.5 -30t-33.5 -99q0 -70 33.5 -100t96.5 -30q62 0 93.5 30t31.5 100q0 69 -31.5 99t-93.5 30zM526 1760q-63 0 -96.5 -30t-33.5 -99q0 -70 33.5 -100t96.5 -30q62 0 93.5 30t31.5 100q0 69 -31.5 99t-93.5 30z" />
    <glyph glyph-name="multiply" unicode="&#xd7;" horiz-adv-x="999" 
d="M497 530l-293 -293l-131 131l293 293l-293 294l131 130l293 -293l293 293l131 -130l-293 -294l293 -293l-131 -131z" />
    <glyph glyph-name="Oslash" unicode="&#xd8;" horiz-adv-x="1439" 
d="M1051 1083q-115 133 -330 133t-330 -133t-115 -387q0 -255 115 -393.5t330 -138.5t330 138.5t115 393.5q0 254 -115 387zM240 1210q169 180 482 180q312 0 480.5 -180t168.5 -515t-168.5 -520t-480.5 -185q-313 0 -482 185t-169 520t169 515zM313 0h-205l1021 1380h205z
" />
    <glyph glyph-name="Ugrave" unicode="&#xd9;" horiz-adv-x="1335" 
d="M81 0zM286 1379v-843q0 -175 100 -273.5t285 -98.5t285 98.5t100 273.5v843h205v-844q0 -265 -168.5 -405t-421 -140t-421.5 140t-169 405v844h205zM597 1516l-249 244h235l249 -244h-235z" />
    <glyph glyph-name="Uacute" unicode="&#xda;" horiz-adv-x="1335" 
d="M81 0zM286 1379v-843q0 -175 100 -273.5t285 -98.5t285 98.5t100 273.5v843h205v-844q0 -265 -168.5 -405t-421 -140t-421.5 140t-169 405v844h205zM510 1516l249 244h235l-249 -244h-235z" />
    <glyph glyph-name="Ucircumflex" unicode="&#xdb;" horiz-adv-x="1335" 
d="M81 0zM286 1379v-843q0 -175 100 -273.5t285 -98.5t285 98.5t100 273.5v843h205v-844q0 -265 -168.5 -405t-421 -140t-421.5 140t-169 405v844h205zM671 1613l-109 -97h-225l254 244h160l254 -244h-225z" />
    <glyph glyph-name="Udieresis" unicode="&#xdc;" horiz-adv-x="1335" 
d="M81 0zM286 1379v-843q0 -175 100 -273.5t285 -98.5t285 98.5t100 273.5v843h205v-844q0 -265 -168.5 -405t-421 -140t-421.5 140t-169 405v844h205zM871 1760q-63 0 -96.5 -30t-33.5 -99q0 -70 33.5 -100t96.5 -30q62 0 93.5 30t31.5 100q0 69 -31.5 99t-93.5 30z
M476 1760q-63 0 -96.5 -30t-33.5 -99q0 -70 33.5 -100t96.5 -30q62 0 93.5 30t31.5 100q0 69 -31.5 99t-93.5 30z" />
    <glyph glyph-name="Yacute" unicode="&#xdd;" horiz-adv-x="1327" 
d="M26 0zM561 510l-535 870h241l396 -676l396 676h241l-534 -870v-510h-205v510zM502 1516l249 244h235l-249 -244h-235z" />
    <glyph glyph-name="Thorn" unicode="&#xde;" horiz-adv-x="1199" 
d="M327 1180h285q242 0 375.5 -120t133.5 -320t-143.5 -315t-365.5 -115h-285v-310h-205v1380h205v-200zM327 995v-500h284q155 0 230 68t75 178q0 109 -65 181.5t-240 72.5h-284z" />
    <glyph glyph-name="germandbls" unicode="&#xdf;" horiz-adv-x="1161" 
d="M368.5 1198q-62.5 -78 -62.5 -215v-983h-205v983q0 217 120 342t360 125q213 0 332 -100t119 -280q0 -200 -194 -310q246 -89 246 -359q0 -190 -129 -300t-322 -110q-114 0 -180 24v162q86 -12 171 -12q115 0 185 63t70 173q0 129 -76 193.5t-214 64.5h-78v186h74
q113 0 177.5 63t64.5 163q0 99 -65 152t-190 53q-141 0 -203.5 -78z" />
    <glyph glyph-name="agrave" unicode="&#xe0;" horiz-adv-x="1038" 
d="M51 0zM740 460h-199q-154 0 -219.5 -41t-65.5 -110q0 -60 50 -103t141 -43q140 0 216.5 48t76.5 133v116zM740 69q-109 -80 -284 -80q-187 0 -296 80t-109 220q0 160 125 240.5t364 81.5h200v40q0 79 -60 132t-201 53q-129 0 -328 -12v153q166 33 329 33q237 0 351 -95
t114 -275v-640h-205v69zM424 1136l-249 244h235l249 -244h-235z" />
    <glyph glyph-name="aacute" unicode="&#xe1;" horiz-adv-x="1038" 
d="M51 0zM740 460h-199q-154 0 -219.5 -41t-65.5 -110q0 -60 50 -103t141 -43q140 0 216.5 48t76.5 133v116zM740 69q-109 -80 -284 -80q-187 0 -296 80t-109 220q0 160 125 240.5t364 81.5h200v40q0 79 -60 132t-201 53q-129 0 -328 -12v153q166 33 329 33q237 0 351 -95
t114 -275v-640h-205v69zM337 1136l249 244h235l-249 -244h-235z" />
    <glyph glyph-name="acircumflex" unicode="&#xe2;" horiz-adv-x="1038" 
d="M51 0zM740 460h-199q-154 0 -219.5 -41t-65.5 -110q0 -60 50 -103t141 -43q140 0 216.5 48t76.5 133v116zM740 69q-109 -80 -284 -80q-187 0 -296 80t-109 220q0 160 125 240.5t364 81.5h200v40q0 79 -60 132t-201 53q-129 0 -328 -12v153q166 33 329 33q237 0 351 -95
t114 -275v-640h-205v69zM498 1233l-109 -97h-225l254 244h160l254 -244h-225z" />
    <glyph glyph-name="atilde" unicode="&#xe3;" horiz-adv-x="1038" 
d="M51 0zM740 460h-199q-154 0 -219.5 -41t-65.5 -110q0 -60 50 -103t141 -43q140 0 216.5 48t76.5 133v116zM740 69q-109 -80 -284 -80q-187 0 -296 80t-109 220q0 160 125 240.5t364 81.5h200v40q0 79 -60 132t-201 53q-129 0 -328 -12v153q166 33 329 33q237 0 351 -95
t114 -275v-640h-205v69zM364 1212q-41 0 -60.5 -26.5t-19.5 -57.5h-151q0 107 48.5 170.5t152.5 63.5q88 0 169 -41.5t129 -41.5q41 0 60.5 26.5t19.5 62.5h151q0 -112 -48.5 -175.5t-152.5 -63.5q-88 0 -169 41.5t-129 41.5z" />
    <glyph glyph-name="adieresis" unicode="&#xe4;" horiz-adv-x="1038" 
d="M51 0zM740 460h-199q-154 0 -219.5 -41t-65.5 -110q0 -60 50 -103t141 -43q140 0 216.5 48t76.5 133v116zM740 69q-109 -80 -284 -80q-187 0 -296 80t-109 220q0 160 125 240.5t364 81.5h200v40q0 79 -60 132t-201 53q-129 0 -328 -12v153q166 33 329 33q237 0 351 -95
t114 -275v-640h-205v69zM698 1380q-63 0 -96.5 -30t-33.5 -99q0 -70 33.5 -100t96.5 -30q62 0 93.5 30t31.5 100q0 69 -31.5 99t-93.5 30zM303 1380q-63 0 -96.5 -30t-33.5 -99q0 -70 33.5 -100t96.5 -30q62 0 93.5 30t31.5 100q0 69 -31.5 99t-93.5 30z" />
    <glyph glyph-name="aring" unicode="&#xe5;" horiz-adv-x="1038" 
d="M51 0zM740 460h-199q-154 0 -219.5 -41t-65.5 -110q0 -60 50 -103t141 -43q140 0 216.5 48t76.5 133v116zM740 69q-109 -80 -284 -80q-187 0 -296 80t-109 220q0 160 125 240.5t364 81.5h200v40q0 79 -60 132t-201 53q-129 0 -328 -12v153q166 33 329 33q237 0 351 -95
t114 -275v-640h-205v69zM501 1479q-74 0 -134 -49.5t-60 -142.5q0 -95 60 -145t134 -50q73 0 130 50t57 145q0 93 -57 142.5t-130 49.5zM556.5 1341.5q19.5 -23.5 19.5 -55.5q0 -33 -19.5 -56t-57.5 -23q-39 0 -59 23t-20 56q0 32 20 55.5t59 23.5q38 0 57.5 -23.5z" />
    <glyph glyph-name="ae" unicode="&#xe6;" horiz-adv-x="1755" 
d="M740 460h-199q-154 0 -219.5 -41t-65.5 -110q0 -60 50 -103t141 -43q140 0 216.5 48t76.5 133v116zM1504 578q-11 111 -73.5 184.5t-203.5 73.5q-142 0 -210 -78.5t-68 -179.5h555zM860 149q-159 -160 -404 -160q-187 0 -296 80t-109 220q0 160 125 240.5t364 81.5h200
v40q0 79 -60 132t-201 53q-129 0 -328 -12v153q166 33 329 33q267 0 390 -144q128 144 362 144q214 0 347.5 -130t133.5 -375v-35q0 -56 -52 -56h-712q0 -90 78 -170t279 -80q129 0 328 21v-159q-236 -36 -359 -36q-258 0 -415 159z" />
    <glyph glyph-name="ccedilla" unicode="&#xe7;" horiz-adv-x="957" 
d="M71 0zM885 794q-179 42 -298 42q-171 0 -241 -83t-70 -247q0 -165 70 -253.5t241 -88.5q119 0 298 31v-159q-186 -46 -299 -46q-237 0 -376 130t-139 385t139 380t376 125q113 0 299 -43v-173zM634 -70h45q273 0 273 -229.5t-321 -229.5q-104 0 -230 24v142
q146 -12 231 -12q125 0 125 75.5t-87 75.5h-211v249h175v-95z" />
    <glyph glyph-name="egrave" unicode="&#xe8;" horiz-adv-x="1099" 
d="M71 0zM835 578q-11 111 -73.5 184.5t-203.5 73.5q-142 0 -210 -78.5t-68 -179.5h555zM280 414q0 -90 78 -170t279 -80q129 0 328 21v-159q-236 -36 -359 -36q-247 0 -391 130t-144 385t139 380t353 125t347.5 -130t133.5 -375v-35q0 -56 -52 -56h-712zM484 1136l-249 244
h235l249 -244h-235z" />
    <glyph glyph-name="eacute" unicode="&#xe9;" horiz-adv-x="1099" 
d="M71 0zM835 578q-11 111 -73.5 184.5t-203.5 73.5q-142 0 -210 -78.5t-68 -179.5h555zM280 414q0 -90 78 -170t279 -80q129 0 328 21v-159q-236 -36 -359 -36q-247 0 -391 130t-144 385t139 380t353 125t347.5 -130t133.5 -375v-35q0 -56 -52 -56h-712zM396 1136l249 244
h235l-249 -244h-235z" />
    <glyph glyph-name="ecircumflex" unicode="&#xea;" horiz-adv-x="1099" 
d="M71 0zM835 578q-11 111 -73.5 184.5t-203.5 73.5q-142 0 -210 -78.5t-68 -179.5h555zM280 414q0 -90 78 -170t279 -80q129 0 328 21v-159q-236 -36 -359 -36q-247 0 -391 130t-144 385t139 380t353 125t347.5 -130t133.5 -375v-35q0 -56 -52 -56h-712zM558 1233l-109 -97
h-225l254 244h160l254 -244h-225z" />
    <glyph glyph-name="edieresis" unicode="&#xeb;" horiz-adv-x="1099" 
d="M71 0zM835 578q-11 111 -73.5 184.5t-203.5 73.5q-142 0 -210 -78.5t-68 -179.5h555zM280 414q0 -90 78 -170t279 -80q129 0 328 21v-159q-236 -36 -359 -36q-247 0 -391 130t-144 385t139 380t353 125t347.5 -130t133.5 -375v-35q0 -56 -52 -56h-712zM758 1380
q-63 0 -96.5 -30t-33.5 -99q0 -70 33.5 -100t96.5 -30q62 0 93.5 30t31.5 100q0 69 -31.5 99t-93.5 30zM363 1380q-63 0 -96.5 -30t-33.5 -99q0 -70 33.5 -100t96.5 -30q62 0 93.5 30t31.5 100q0 69 -31.5 99t-93.5 30z" />
    <glyph glyph-name="igrave" unicode="&#xec;" horiz-adv-x="401" 
d="M0 0zM304 1000v-1000h-205v1000h205zM128 1136l-249 244h235l249 -244h-235z" />
    <glyph glyph-name="iacute" unicode="&#xed;" horiz-adv-x="401" 
d="M40 0zM304 1000v-1000h-205v1000h205zM40 1136l249 244h235l-249 -244h-235z" />
    <glyph glyph-name="icircumflex" unicode="&#xee;" horiz-adv-x="401" 
d="M0 0zM305 1000v-1000h-205v1000h205zM202 1233l-109 -97h-225l254 244h160l254 -244h-225z" />
    <glyph glyph-name="idieresis" unicode="&#xef;" horiz-adv-x="401" 
d="M0 0zM305 1000v-1000h-205v1000h205zM402 1380q-63 0 -96.5 -30t-33.5 -99q0 -70 33.5 -100t96.5 -30q62 0 93.5 30t31.5 100q0 69 -31.5 99t-93.5 30zM7 1380q-63 0 -96.5 -30t-33.5 -99q0 -70 33.5 -100t96.5 -30q62 0 93.5 30t31.5 100q0 69 -31.5 99t-93.5 30z" />
    <glyph glyph-name="eth" unicode="&#xf0;" horiz-adv-x="1199" 
d="M634 975l-137 125l321 352l137 -125zM896 470q0 129 -70 202.5t-225 73.5t-230 -83.5t-75 -212.5q0 -130 75 -208t230 -78q135 0 215 93t80 213zM757.5 1107q-118.5 109 -319.5 109h-206v154q119 20 249 20q281 0 455.5 -194t174.5 -576q0 -310 -138.5 -470t-371.5 -160
q-252 0 -381 135t-129 335t129 330t381 130q175 0 288 -120q-13 198 -131.5 307z" />
    <glyph glyph-name="ntilde" unicode="&#xf1;" horiz-adv-x="1108" 
d="M101 0zM356 778q-50 -58 -50 -175v-603h-205v610q0 220 119 310t336 90q218 0 336.5 -90t118.5 -310v-610h-205v603q0 117 -50 175t-199 58q-151 0 -201 -58zM422 1212q-41 0 -60.5 -26.5t-19.5 -57.5h-151q0 107 48.5 170.5t152.5 63.5q88 0 169 -41.5t129 -41.5
q41 0 60.5 26.5t19.5 62.5h151q0 -112 -48.5 -175.5t-152.5 -63.5q-88 0 -169 41.5t-129 41.5z" />
    <glyph glyph-name="ograve" unicode="&#xf2;" horiz-adv-x="1108" 
d="M71 0zM771 753q-65 83 -214 83q-151 0 -216 -83t-65 -247q0 -165 65 -253.5t216 -88.5q149 0 214 88.5t65 253.5q0 164 -65 247zM205 885q134 125 351 125q218 0 351.5 -125t133.5 -380t-133.5 -385t-351.5 -130q-217 0 -351 130t-134 385t134 380zM482 1136l-249 244
h235l249 -244h-235z" />
    <glyph glyph-name="oacute" unicode="&#xf3;" horiz-adv-x="1108" 
d="M71 0zM771 753q-65 83 -214 83q-151 0 -216 -83t-65 -247q0 -165 65 -253.5t216 -88.5q149 0 214 88.5t65 253.5q0 164 -65 247zM205 885q134 125 351 125q218 0 351.5 -125t133.5 -380t-133.5 -385t-351.5 -130q-217 0 -351 130t-134 385t134 380zM395 1136l249 244h235
l-249 -244h-235z" />
    <glyph glyph-name="ocircumflex" unicode="&#xf4;" horiz-adv-x="1108" 
d="M71 0zM771 753q-65 83 -214 83q-151 0 -216 -83t-65 -247q0 -165 65 -253.5t216 -88.5q149 0 214 88.5t65 253.5q0 164 -65 247zM205 885q134 125 351 125q218 0 351.5 -125t133.5 -380t-133.5 -385t-351.5 -130q-217 0 -351 130t-134 385t134 380zM556 1233l-109 -97
h-225l254 244h160l254 -244h-225z" />
    <glyph glyph-name="otilde" unicode="&#xf5;" horiz-adv-x="1108" 
d="M71 0zM771 753q-65 83 -214 83q-151 0 -216 -83t-65 -247q0 -165 65 -253.5t216 -88.5q149 0 214 88.5t65 253.5q0 164 -65 247zM205 885q134 125 351 125q218 0 351.5 -125t133.5 -380t-133.5 -385t-351.5 -130q-217 0 -351 130t-134 385t134 380zM422 1212
q-41 0 -60.5 -26.5t-19.5 -57.5h-151q0 107 48.5 170.5t152.5 63.5q88 0 169 -41.5t129 -41.5q41 0 60.5 26.5t19.5 62.5h151q0 -112 -48.5 -175.5t-152.5 -63.5q-88 0 -169 41.5t-129 41.5z" />
    <glyph glyph-name="odieresis" unicode="&#xf6;" horiz-adv-x="1108" 
d="M71 0zM771 753q-65 83 -214 83q-151 0 -216 -83t-65 -247q0 -165 65 -253.5t216 -88.5q149 0 214 88.5t65 253.5q0 164 -65 247zM205 885q134 125 351 125q218 0 351.5 -125t133.5 -380t-133.5 -385t-351.5 -130q-217 0 -351 130t-134 385t134 380zM756 1380
q-63 0 -96.5 -30t-33.5 -99q0 -70 33.5 -100t96.5 -30q62 0 93.5 30t31.5 100q0 69 -31.5 99t-93.5 30zM361 1380q-63 0 -96.5 -30t-33.5 -99q0 -70 33.5 -100t96.5 -30q62 0 93.5 30t31.5 100q0 69 -31.5 99t-93.5 30z" />
    <glyph glyph-name="divide" unicode="&#xf7;" horiz-adv-x="1199" 
d="M93 515v185h1015v-185h-1015zM730 228q0 63 -30 96.5t-99 33.5q-70 0 -100 -33.5t-30 -96.5q0 -62 30 -93.5t100 -31.5q69 0 99 31.5t30 93.5zM730 983q0 63 -30 96.5t-99 33.5q-70 0 -100 -33.5t-30 -96.5q0 -62 30 -93.5t100 -31.5q69 0 99 31.5t30 93.5z" />
    <glyph glyph-name="oslash" unicode="&#xf8;" horiz-adv-x="1108" 
d="M772 753q-65 83 -214 83q-151 0 -216 -83t-65 -247q0 -165 65 -253.5t216 -88.5q149 0 214 88.5t65 253.5q0 164 -65 247zM206 885q134 125 351 125q218 0 351.5 -125t133.5 -380t-133.5 -385t-351.5 -130q-217 0 -351 130t-134 385t134 380zM269 0h-205l780 1000h205z
" />
    <glyph glyph-name="ugrave" unicode="&#xf9;" horiz-adv-x="1108" 
d="M101 0zM557 164q149 0 199 58.5t50 174.5v603h205v-610q0 -220 -118.5 -310t-336.5 -90q-217 0 -336 90t-119 310v610h205v-603q0 -116 50 -174.5t201 -58.5zM482 1136l-249 244h235l249 -244h-235z" />
    <glyph glyph-name="uacute" unicode="&#xfa;" horiz-adv-x="1108" 
d="M101 0zM557 164q149 0 199 58.5t50 174.5v603h205v-610q0 -220 -118.5 -310t-336.5 -90q-217 0 -336 90t-119 310v610h205v-603q0 -116 50 -174.5t201 -58.5zM395 1136l249 244h235l-249 -244h-235z" />
    <glyph glyph-name="ucircumflex" unicode="&#xfb;" horiz-adv-x="1108" 
d="M101 0zM557 164q149 0 199 58.5t50 174.5v603h205v-610q0 -220 -118.5 -310t-336.5 -90q-217 0 -336 90t-119 310v610h205v-603q0 -116 50 -174.5t201 -58.5zM556 1233l-109 -97h-225l254 244h160l254 -244h-225z" />
    <glyph glyph-name="udieresis" unicode="&#xfc;" horiz-adv-x="1108" 
d="M101 0zM557 164q149 0 199 58.5t50 174.5v603h205v-610q0 -220 -118.5 -310t-336.5 -90q-217 0 -336 90t-119 310v610h205v-603q0 -116 50 -174.5t201 -58.5zM756 1380q-63 0 -96.5 -30t-33.5 -99q0 -70 33.5 -100t96.5 -30q62 0 93.5 30t31.5 100q0 69 -31.5 99
t-93.5 30zM361 1380q-63 0 -96.5 -30t-33.5 -99q0 -70 33.5 -100t96.5 -30q62 0 93.5 30t31.5 100q0 69 -31.5 99t-93.5 30z" />
    <glyph glyph-name="yacute" unicode="&#xfd;" horiz-adv-x="1108" 
d="M101 0zM806 61q-122 -71 -290 -71q-197 0 -306 90t-109 310v610h205v-603q0 -116 50 -174.5t201 -58.5q149 0 199 58.5t50 174.5v603h205v-999q0 -430 -490 -430q-130 0 -299 20v154h296q288 0 288 243v73zM395 1136l249 244h235l-249 -244h-235z" />
    <glyph glyph-name="thorn" unicode="&#xfe;" horiz-adv-x="1131" 
d="M296 506q0 -195 65 -268.5t214 -73.5q151 0 216 88.5t65 253.5q0 164 -65 247t-216 83q-149 0 -214 -83t-65 -247zM296 919q106 91 280 91q217 0 351 -125t134 -380t-124 -385t-331 -130q-214 0 -310 103v-511h-205v1857h205v-520z" />
    <glyph glyph-name="ydieresis" unicode="&#xff;" horiz-adv-x="1108" 
d="M101 0zM806 61q-122 -71 -290 -71q-197 0 -306 90t-109 310v610h205v-603q0 -116 50 -174.5t201 -58.5q149 0 199 58.5t50 174.5v603h205v-999q0 -430 -490 -430q-130 0 -299 20v154h296q288 0 288 243v73zM756 1380q-63 0 -96.5 -30t-33.5 -99q0 -70 33.5 -100t96.5 -30
q62 0 93.5 30t31.5 100q0 69 -31.5 99t-93.5 30zM361 1380q-63 0 -96.5 -30t-33.5 -99q0 -70 33.5 -100t96.5 -30q62 0 93.5 30t31.5 100q0 69 -31.5 99t-93.5 30z" />
    <glyph glyph-name="dotlessi" unicode="&#x131;" horiz-adv-x="401" 
d="M304 1000v-1000h-205v1000h205z" />
    <glyph glyph-name="Lslash" unicode="&#x141;" horiz-adv-x="1235" 
d="M461 693v-413q0 -42 31.5 -68.5t94.5 -26.5h572v-185h-612q-132 0 -211.5 70t-79.5 210v249l-109 -87l-115 144l224 179v615h205v-452l156 125l115 -144z" />
    <glyph glyph-name="lslash" unicode="&#x142;" horiz-adv-x="747" 
d="M251 766v673h205v-510l155 124l115 -144l-270 -216v-436q0 -93 88 -93h77v-154q-70 -20 -140 -20q-230 0 -230 210v330l-110 -88l-115 144z" />
    <glyph glyph-name="OE" unicode="&#x152;" horiz-adv-x="1899" 
d="M703 1195q-215 0 -330 -127.5t-115 -371.5q0 -245 115 -378t330 -133h254v1010h-254zM1823 1380v-185h-658v-412h628v-185h-628v-413h658v-185h-1121q-282 0 -465.5 180t-183.5 515t183.5 510t465.5 175h1121z" />
    <glyph glyph-name="oe" unicode="&#x153;" horiz-adv-x="1874" 
d="M557 836q-151 0 -216 -83t-65 -247q0 -165 65 -253.5t216 -88.5q149 0 214 88.5t65 253.5q0 164 -65 247t-214 83zM1601 578q-11 111 -73.5 184.5t-203.5 73.5q-142 0 -210 -78.5t-68 -179.5h555zM943 170q-139 -180 -387 -180q-217 0 -351 130t-134 385t134 380t351 125
q248 0 385 -171q144 171 388 171q214 0 347.5 -130t133.5 -375v-35q0 -56 -52 -56h-712q0 -90 78 -170t279 -80q129 0 328 21v-159q-236 -36 -359 -36q-277 0 -429 180z" />
    <glyph glyph-name="Scaron" unicode="&#x160;" horiz-adv-x="1199" 
d="M91 0zM205 760q-114 90 -114 250q0 170 134 275t397 105q194 0 420 -44v-182q-246 42 -421 42t-250 -53t-75 -142q0 -70 73.5 -121t300 -115t340.5 -149t114 -245q0 -170 -139 -280t-412 -110q-244 0 -470 44v182q246 -42 471 -42q185 0 265 58t80 148q0 69 -78.5 115
t-300 110t-335.5 154zM717 1760h225l-254 -244h-160l-254 244h225l109 -97z" />
    <glyph glyph-name="scaron" unicode="&#x161;" horiz-adv-x="964" 
d="M71 0zM175 510q-104 70 -104 210q0 150 104 220t321 70q163 0 369 -43v-153q-239 22 -368 22q-121 0 -171 -28t-50 -87q0 -50 64.5 -80.5t210.5 -56t250 -95.5t104 -210q0 -150 -104 -220t-321 -70q-163 0 -389 43v153q259 -22 388 -22q121 0 171 28t50 88q0 49 -65 79.5
t-210.5 56t-249.5 95.5zM597 1380h225l-254 -244h-160l-254 244h225l109 -97z" />
    <glyph glyph-name="Ydieresis" unicode="&#x178;" horiz-adv-x="1327" 
d="M26 0zM561 510l-535 870h241l396 -676l396 676h241l-534 -870v-510h-205v510zM863 1760q-63 0 -96.5 -30t-33.5 -99q0 -70 33.5 -100t96.5 -30q62 0 93.5 30t31.5 100q0 69 -31.5 99t-93.5 30zM468 1760q-63 0 -96.5 -30t-33.5 -99q0 -70 33.5 -100t96.5 -30
q62 0 93.5 30t31.5 100q0 69 -31.5 99t-93.5 30z" />
    <glyph glyph-name="Zcaron" unicode="&#x17d;" horiz-adv-x="1202" 
d="M70 0zM1128 1380v-155l-781 -1040h781v-185h-1058v155l782 1040h-782v185h1058zM708 1760h225l-254 -244h-160l-254 244h225l109 -97z" />
    <glyph glyph-name="zcaron" unicode="&#x17e;" horiz-adv-x="1000" 
d="M48 1zM680 826h-632v174h903v-174l-632 -651h632v-174h-903v174zM609 1380h225l-254 -244h-160l-254 244h225l109 -97z" />
    <glyph glyph-name="florin" unicode="&#x192;" horiz-adv-x="851" 
d="M321 840v320q0 290 290 290q90 0 200 -20v-154h-167q-118 0 -118 -143v-293h285v-185h-285v-805q0 -290 -290 -290q-90 0 -200 20v154h167q118 0 118 143v778h-228v185h228z" />
    <glyph glyph-name="circumflex" unicode="&#x2c6;" horiz-adv-x="734" 
d="M360 1233l-109 -97h-225l254 244h160l254 -244h-225z" />
    <glyph glyph-name="caron" unicode="&#x2c7;" horiz-adv-x="734" 
d="M469 1380h225l-254 -244h-160l-254 244h225l109 -97z" />
    <glyph glyph-name="uni02C9" unicode="&#x2c9;" horiz-adv-x="781" 
d="M93 1132v185h605v-185h-605z" />
    <glyph glyph-name="breve" unicode="&#x2d8;" horiz-adv-x="1024" 
d="M574.5 1300.5q29.5 21.5 39.5 67.5h141q0 -112 -68.5 -175.5t-189 -63.5t-189 63.5t-68.5 175.5h141q10 -46 39.5 -67.5t77 -21.5t77 21.5z" />
    <glyph glyph-name="dotaccent" unicode="&#x2d9;" horiz-adv-x="599" 
d="M302 1380q-63 0 -96.5 -30t-33.5 -99q0 -70 33.5 -100t96.5 -30q62 0 93.5 30t31.5 100q0 69 -31.5 99t-93.5 30z" />
    <glyph glyph-name="ring" unicode="&#x2da;" horiz-adv-x="599" 
d="M297 1479q-74 0 -134 -49.5t-60 -142.5q0 -95 60 -145t134 -50q73 0 130 50t57 145q0 93 -57 142.5t-130 49.5zM352.5 1341.5q19.5 -23.5 19.5 -55.5q0 -33 -19.5 -56t-57.5 -23q-39 0 -59 23t-20 56q0 32 20 55.5t59 23.5q38 0 57.5 -23.5z" />
    <glyph glyph-name="ogonek" unicode="&#x2db;" horiz-adv-x="769" 
d="M371 5h175q-198 -199 -198 -294q0 -86 125 -86q55 0 171 12v-142q-116 -24 -190 -24q-301 0 -301 220q0 169 218 314z" />
    <glyph glyph-name="tilde" unicode="&#x2dc;" horiz-adv-x="1024" 
d="M376 1212q-41 0 -60.5 -26.5t-19.5 -57.5h-151q0 107 48.5 170.5t152.5 63.5q88 0 169 -41.5t129 -41.5q41 0 60.5 26.5t19.5 62.5h151q0 -112 -48.5 -175.5t-152.5 -63.5q-88 0 -169 41.5t-129 41.5z" />
    <glyph glyph-name="hungarumlaut" unicode="&#x2dd;" horiz-adv-x="1024" 
d="M150 1136l249 244h235l-249 -244h-235zM482 1136l249 244h235l-249 -244h-235z" />
    <glyph glyph-name="gravecomb" unicode="&#x300;" horiz-adv-x="0" 
d="M-216 1136zM-451 1136l-249 244h235l249 -244h-235z" />
    <glyph glyph-name="acutecomb" unicode="&#x301;" horiz-adv-x="0" 
d="M-186 1136zM-670 1136l249 244h235l-249 -244h-235z" />
    <glyph glyph-name="uni0302" unicode="&#x302;" horiz-adv-x="0" 
d="M-122 1136zM-456 1233l-109 -97h-225l254 244h160l254 -244h-225z" />
    <glyph glyph-name="tildecomb" unicode="&#x303;" horiz-adv-x="0" 
d="M-30 1128zM-529 1212q-41 0 -60.5 -26.5t-19.5 -57.5h-151q0 107 48.5 170.5t152.5 63.5q88 0 169 -41.5t129 -41.5q41 0 60.5 26.5t19.5 62.5h151q0 -112 -48.5 -175.5t-152.5 -63.5q-88 0 -169 41.5t-129 41.5z" />
    <glyph glyph-name="uni0304" unicode="&#x304;" horiz-adv-x="0" 
d="M-135 1132zM-740 1132v185h605v-185h-605z" />
    <glyph glyph-name="uni0306" unicode="&#x306;" horiz-adv-x="0" 
d="M-245 1129zM-425.5 1300.5q29.5 21.5 39.5 67.5h141q0 -112 -68.5 -175.5t-189 -63.5t-189 63.5t-68.5 175.5h141q10 -46 39.5 -67.5t77 -21.5t77 21.5z" />
    <glyph glyph-name="uni0307" unicode="&#x307;" horiz-adv-x="0" 
d="M-355 1121zM-480 1380q-63 0 -96.5 -30t-33.5 -99q0 -70 33.5 -100t96.5 -30q62 0 93.5 30t31.5 100q0 69 -31.5 99t-93.5 30z" />
    <glyph glyph-name="uni0308" unicode="&#x308;" horiz-adv-x="0" 
d="M-120 1121zM-245 1380q-63 0 -96.5 -30t-33.5 -99q0 -70 33.5 -100t96.5 -30q62 0 93.5 30t31.5 100q0 69 -31.5 99t-93.5 30zM-640 1380q-63 0 -96.5 -30t-33.5 -99q0 -70 33.5 -100t96.5 -30q62 0 93.5 30t31.5 100q0 69 -31.5 99t-93.5 30z" />
    <glyph glyph-name="uni030A" unicode="&#x30a;" horiz-adv-x="0" 
d="M-299 1092zM-486 1479q-74 0 -134 -49.5t-60 -142.5q0 -95 60 -145t134 -50q73 0 130 50t57 145q0 93 -57 142.5t-130 49.5zM-430.5 1341.5q19.5 -23.5 19.5 -55.5q0 -33 -19.5 -56t-57.5 -23q-39 0 -59 23t-20 56q0 32 20 55.5t59 23.5q38 0 57.5 -23.5z" />
    <glyph glyph-name="uni030B" unicode="&#x30b;" horiz-adv-x="0" 
d="M0 1136zM-760 1136l249 244h235l-249 -244h-235zM-428 1136l249 244h235l-249 -244h-235z" />
    <glyph glyph-name="uni030C" unicode="&#x30c;" horiz-adv-x="0" 
d="M-122 1136zM-347 1380h225l-254 -244h-160l-254 244h225l109 -97z" />
    <glyph glyph-name="uni0327" unicode="&#x327;" horiz-adv-x="0" 
d="M-49 0zM-367 -70h45q273 0 273 -229.5t-321 -229.5q-104 0 -230 24v142q146 -12 231 -12q125 0 125 75.5t-87 75.5h-211v249h175v-95z" />
    <glyph glyph-name="uni0328" unicode="&#x328;" horiz-adv-x="0" 
d="M0 0zM-102 5h175q-198 -199 -198 -294q0 -86 125 -86q55 0 171 12v-142q-116 -24 -190 -24q-301 0 -301 220q0 169 218 314z" />
    <glyph glyph-name="pi" unicode="&#x3c0;" horiz-adv-x="1383" 
d="M464 826v-826h-205v826h-193v174h1206v-174h-191v-509q0 -153 118 -153h127v-154q-90 -20 -160 -20q-290 0 -290 270v566h-412z" />
    <glyph glyph-name="endash" unicode="&#x2013;" horiz-adv-x="1399" 
d="M80 415v185h1248v-185h-1248z" />
    <glyph glyph-name="emdash" unicode="&#x2014;" horiz-adv-x="2100" 
d="M80 415v185h1948v-185h-1948z" />
    <glyph glyph-name="quoteleft" unicode="&#x2018;" horiz-adv-x="401" 
d="M344 1380h-145q-151 -234 -151 -376q0 -63 30 -96.5t99 -33.5q70 0 100 33.5t30 96.5q0 62 -30 93q-16 15 -16 59q0 61 83 224z" />
    <glyph glyph-name="quoteright" unicode="&#x2019;" horiz-adv-x="401" 
d="M35 883h145q151 234 151 376q0 63 -30 96.5t-99 33.5q-70 0 -100 -33.5t-30 -96.5q0 -62 30 -93q16 -15 16 -59q0 -61 -83 -224z" />
    <glyph glyph-name="quotesinglbase" unicode="&#x201a;" horiz-adv-x="401" 
d="M35 -261h145q151 234 151 376q0 63 -30 96.5t-99 33.5q-70 0 -100 -33.5t-30 -96.5q0 -62 30 -93q16 -15 16 -59q0 -61 -83 -224z" />
    <glyph glyph-name="quotedblleft" unicode="&#x201c;" horiz-adv-x="679" 
d="M48 874zM344 1380h-145q-151 -234 -151 -376q0 -63 30 -96.5t99 -33.5q70 0 100 33.5t30 96.5q0 62 -30 93q-16 15 -16 59q0 61 83 224zM658 1380h-145q-151 -234 -151 -376q0 -63 30 -96.5t99 -33.5q70 0 100 33.5t30 96.5q0 62 -30 93q-16 15 -16 59q0 61 83 224z" />
    <glyph glyph-name="quotedblright" unicode="&#x201d;" horiz-adv-x="701" 
d="M35 883zM35 883h145q151 234 151 376q0 63 -30 96.5t-99 33.5q-70 0 -100 -33.5t-30 -96.5q0 -62 30 -93q16 -15 16 -59q0 -61 -83 -224zM349 883h145q151 234 151 376q0 63 -30 96.5t-99 33.5q-70 0 -100 -33.5t-30 -96.5q0 -62 30 -93q16 -15 16 -59q0 -61 -83 -224z
" />
    <glyph glyph-name="quotedblbase" unicode="&#x201e;" horiz-adv-x="701" 
d="M35 -261h145q151 234 151 376q0 63 -30 96.5t-99 33.5q-70 0 -100 -33.5t-30 -96.5q0 -62 30 -93q16 -15 16 -59q0 -61 -83 -224zM349 -261h145q151 234 151 376q0 63 -30 96.5t-99 33.5q-70 0 -100 -33.5t-30 -96.5q0 -62 30 -93q16 -15 16 -59q0 -61 -83 -224z" />
    <glyph glyph-name="dagger" unicode="&#x2020;" horiz-adv-x="995" 
d="M408 779h-315v185h315v415h185v-415h315v-185h-315v-1205h-185v1205z" />
    <glyph glyph-name="daggerdbl" unicode="&#x2021;" horiz-adv-x="995" 
d="M593 964h315v-185h-315v-605h315v-185h-315v-415h-185v415h-315v185h315v605h-315v185h315v415h185v-415z" />
    <glyph glyph-name="bullet" unicode="&#x2022;" horiz-adv-x="621" 
d="M545 686q0 111 -53 170t-175 59q-123 0 -176 -59t-53 -170q0 -109 53 -164.5t176 -55.5q122 0 175 55.5t53 164.5z" />
    <glyph glyph-name="ellipsis" unicode="&#x2026;" horiz-adv-x="1184" 
d="M331 115q0 63 -30 96.5t-99 33.5q-70 0 -100 -33.5t-30 -96.5q0 -62 30 -93.5t100 -31.5q69 0 99 31.5t30 93.5zM1116 115q0 63 -30 96.5t-99 33.5q-70 0 -100 -33.5t-30 -96.5q0 -62 30 -93.5t100 -31.5q69 0 99 31.5t30 93.5zM724 115q0 63 -30 96.5t-99 33.5
q-70 0 -100 -33.5t-30 -96.5q0 -62 30 -93.5t100 -31.5q69 0 99 31.5t30 93.5z" />
    <glyph glyph-name="perthousand" unicode="&#x2030;" horiz-adv-x="2046" 
d="M1214 532q-78 0 -112 -47t-34 -140t34 -143t112 -50q76 0 110 50t34 143t-34 140t-110 47zM1678 532q-78 0 -112 -47t-34 -140t34 -143t112 -50q76 0 110 50t34 143t-34 140t-110 47zM384 1228q-78 0 -112 -47t-34 -140t34 -143t112 -50q76 0 110 50t34 143t-34 140
t-110 47zM417 0h-231l993 1380h231zM1445 81q-89 -91 -232 -91q-142 0 -230 89.5t-88 265.5t88 262.5t230 86.5q143 0 232 -88q90 88 232 88q143 0 230.5 -86.5t87.5 -262.5t-87.5 -265.5t-230.5 -89.5q-142 0 -232 91zM383 1390q143 0 230.5 -86.5t87.5 -262.5
t-87.5 -265.5t-230.5 -89.5q-142 0 -230 89.5t-88 265.5t88 262.5t230 86.5z" />
    <glyph glyph-name="guilsinglleft" unicode="&#x2039;" horiz-adv-x="698" 
d="M596 151l-392 268q-94 63 -94 150q0 99 86 158l400 271v-206l-252 -192q-23 -15 -23 -26q0 -10 23 -25l252 -192v-206z" />
    <glyph glyph-name="guilsinglright" unicode="&#x203a;" horiz-adv-x="698" 
d="M110 357l252 192q23 15 23 25q0 11 -23 26l-252 192v206l400 -271q86 -59 86 -158q0 -87 -94 -150l-392 -268v206z" />
    <glyph glyph-name="fraction" unicode="&#x2044;" horiz-adv-x="342" 
d="M-223 0h-241l1083 1380h241z" />
    <glyph glyph-name="fraction" unicode="&#x2215;" horiz-adv-x="342" 
d="M-223 0h-241l1083 1380h241z" />
    <glyph glyph-name="uni2070" unicode="&#x2070;" 
d="M591.5 1173.5q-47.5 72.5 -140.5 72.5t-141 -72.5t-48 -219.5q0 -149 48 -224.5t141 -75.5t140.5 75.5t47.5 224.5q0 147 -47.5 219.5zM180 1281q105 109 271 109t271 -109t105 -328t-104.5 -331t-271 -112t-271.5 112t-105 331t105 328z" />
    <glyph glyph-name="uni2074" unicode="&#x2074;" 
d="M537 686h-457v111l348 583h210l-325 -543h224v220h185v-220h104v-151h-104v-174h-185v174z" />
    <glyph glyph-name="uni2075" unicode="&#x2075;" 
d="M350 1080h80q177 0 281 -75t104 -208.5t-96 -211.5t-294 -78q-144 0 -303 30v137q177 -23 304 -23q117 0 159.5 37.5t42.5 107t-52 102t-151 32.5h-280l50 450h554v-151h-384z" />
    <glyph glyph-name="uni2076" unicode="&#x2076;" 
d="M451 654q90 0 132.5 40.5t42.5 111.5t-43 114.5t-132 43.5q-91 0 -130 -37.5t-39 -108.5q0 -66 46 -115t123 -49zM291 1047q62 61 160 61q178 0 270 -84.5t92 -211.5t-92 -214.5t-270 -87.5q-167 0 -265 103t-98 295q0 236 122 359t320 123q88 0 190 -16v-128h-162
q-131 0 -197 -49.5t-70 -149.5z" />
    <glyph glyph-name="uni2077" unicode="&#x2077;" 
d="M339 512h-220l468 717h-480v151h704v-111z" />
    <glyph glyph-name="uni2078" unicode="&#x2078;" 
d="M706.5 1327.5q94.5 -62.5 94.5 -179.5q0 -137 -120 -184q141 -43 141 -187q0 -123 -96 -195t-273 -72t-273 72t-96 195q0 144 140 187q-119 47 -119 184q0 117 94 179.5t253.5 62.5t254 -62.5zM591.5 685.5q42.5 28.5 42.5 91.5q0 50 -42 80t-116 30h-46q-75 0 -117 -30
t-42 -80q0 -63 43 -91.5t139 -28.5t138.5 28.5zM473 1027q52 0 96 29.5t44 80.5q0 56 -40 81.5t-120 25.5t-120.5 -25.5t-40.5 -81.5q0 -51 44.5 -80.5t96.5 -29.5h40z" />
    <glyph glyph-name="uni2079" unicode="&#x2079;" 
d="M451 1246q-91 0 -133.5 -40.5t-42.5 -110.5q0 -72 43 -115.5t133 -43.5t129 37.5t39 109.5q0 65 -46 114t-122 49zM610 863q-62 -71 -169 -71q-169 0 -261 84.5t-92 211.5t92 214.5t271 87.5q166 0 264 -103t98 -295q0 -236 -122 -359t-320 -123q-88 0 -190 16v128h162
q122 0 193 59.5t74 149.5z" />
    <glyph glyph-name="uni207A" unicode="&#x207a;" 
d="M363 915h-274v151h274v249h174v-249h274v-151h-274v-249h-174v249z" />
    <glyph glyph-name="uni207B" unicode="&#x207b;" 
d="M89 919v151h722v-151h-722z" />
    <glyph glyph-name="uni2080" unicode="&#x2080;" 
d="M75 0zM591.5 653.5q-47.5 72.5 -140.5 72.5t-141 -72.5t-48 -219.5q0 -149 48 -224.5t141 -75.5t140.5 75.5t47.5 224.5q0 147 -47.5 219.5zM180 761q105 109 271 109t271 -109t105 -328t-104.5 -331t-271 -112t-271.5 112t-105 331t105 328z" />
    <glyph glyph-name="uni2081" unicode="&#x2081;" 
d="M124 0zM367 142v529l-243 -91v164l289 115h139v-717h236v-151h-664v151h243z" />
    <glyph glyph-name="uni2082" unicode="&#x2082;" 
d="M123 0zM123 112l388 351q91 75 91 149q0 56 -40.5 82.5t-131.5 26.5q-105 0 -280 -23v136q156 31 279 31q168 0 263 -65.5t95 -188.5q0 -134 -178 -280l-220 -189h398v-151h-664v121z" />
    <glyph glyph-name="uni2083" unicode="&#x2083;" 
d="M121 0zM663 445q141 -44 141 -188q0 -123 -98 -194.5t-286 -71.5q-142 0 -299 31v136q175 -23 300 -23q110 0 154 32t44 90q0 39 -39 71.5t-130 32.5h-155v152h152q74 0 112.5 37t38.5 79q0 49 -40 73t-132 24q-105 0 -280 -23v136q156 31 279 31q167 0 262.5 -62.5
t95.5 -179.5q0 -130 -120 -183z" />
    <glyph glyph-name="uni2084" unicode="&#x2084;" 
d="M80 1zM537 175h-457v111l348 583h210l-325 -543h224v220h185v-220h104v-151h-104v-174h-185v174z" />
    <glyph glyph-name="uni2085" unicode="&#x2085;" 
d="M122 0zM350 564h80q177 0 281 -75t104 -208.5t-96 -211.5t-294 -78q-144 0 -303 30v137q177 -23 304 -23q117 0 159.5 37.5t42.5 107t-52 102t-151 32.5h-280l50 450h554v-151h-384z" />
    <glyph glyph-name="uni2086" unicode="&#x2086;" 
d="M88 0zM451 134q90 0 132.5 40.5t42.5 111.5t-43 114.5t-132 43.5q-91 0 -130 -37.5t-39 -108.5q0 -66 46 -115t123 -49zM291 527q62 61 160 61q178 0 270 -84.5t92 -211.5t-92 -214.5t-270 -87.5q-167 0 -265 103t-98 295q0 236 122 359t320 123q88 0 190 -16v-128h-162
q-131 0 -197 -49.5t-70 -149.5z" />
    <glyph glyph-name="uni2087" unicode="&#x2087;" 
d="M107 0zM339 -9h-220l468 717h-480v151h704v-111z" />
    <glyph glyph-name="uni2088" unicode="&#x2088;" 
d="M84 0zM706.5 807.5q94.5 -62.5 94.5 -179.5q0 -137 -120 -184q141 -43 141 -187q0 -123 -96 -195t-273 -72t-273 72t-96 195q0 144 140 187q-119 47 -119 184q0 117 94 179.5t253.5 62.5t254 -62.5zM591.5 165.5q42.5 28.5 42.5 91.5q0 50 -42 80t-116 30h-46
q-75 0 -117 -30t-42 -80q0 -63 43 -91.5t139 -28.5t138.5 28.5zM473 507q52 0 96 29.5t44 80.5q0 56 -40 81.5t-120 25.5t-120.5 -25.5t-40.5 -81.5q0 -51 44.5 -80.5t96.5 -29.5h40z" />
    <glyph glyph-name="uni2089" unicode="&#x2089;" 
d="M88 0zM451 726q-91 0 -133.5 -40.5t-42.5 -110.5q0 -72 43 -115.5t133 -43.5t129 37.5t39 109.5q0 65 -46 114t-122 49zM610 343q-62 -71 -169 -71q-169 0 -261 84.5t-92 211.5t92 214.5t271 87.5q166 0 264 -103t98 -295q0 -236 -122 -359t-320 -123q-88 0 -190 16v128
h162q122 0 193 59.5t74 149.5z" />
    <glyph glyph-name="Euro" unicode="&#x20ac;" horiz-adv-x="1251" 
d="M79 758v185h915v-185h-915zM79 438v185h915v-185h-915zM1182 1174q-176 32 -321 32q-225 0 -335 -133t-110 -377q0 -245 110 -383.5t325 -138.5q155 0 331 31v-168q-156 -47 -330 -47q-313 0 -477 190t-164 515t164 510t487 185q164 0 320 -44v-172z" />
    <glyph glyph-name="uni2116" unicode="&#x2116;" horiz-adv-x="2081" 
d="M122 0zM327 1013v-1013h-205v1380h205l705 -1013v1013h205v-1380h-205zM1813 1226q-39 50 -129 50t-129 -50t-39 -148q0 -99 39 -152.5t129 -53.5t129 53.5t39 152.5q0 98 -39 148zM1473 1305q80 75 211 75q130 0 210.5 -75t80.5 -228t-80.5 -231t-210.5 -78
q-131 0 -211 78t-80 231t80 228z" />
    <glyph glyph-name="trademark" unicode="&#x2122;" horiz-adv-x="1208" 
d="M318 1306v-478h-81v478h-187v74h454v-74h-186zM785 980l-143 249v-401h-81v552h85l201 -360q1 -4 5 -4t6 4l201 360h85v-552h-81v401l-143 -249q-22 -43 -53 -43h-30q-31 0 -52 43z" />
    <glyph glyph-name="partialdiff" unicode="&#x2202;" horiz-adv-x="1199" 
d="M896 470q0 129 -70 202.5t-225 73.5t-230 -83.5t-75 -212.5q0 -130 75 -208t230 -78q135 0 215 93t80 213zM757.5 1107q-118.5 109 -319.5 109h-206v154q119 20 249 20q281 0 455.5 -194t174.5 -576q0 -310 -138.5 -470t-371.5 -160q-252 0 -381 135t-129 335t129 330
t381 130q175 0 288 -120q-13 198 -131.5 307z" />
    <glyph glyph-name="Delta" unicode="&#x2206;" horiz-adv-x="1373" 
d="M1068 185l-358 959q-5 15 -15 15q-11 0 -16 -15l-359 -959h748zM29 0l513 1304q39 86 158 86q107 0 150 -94l509 -1296h-1330z" />
    <glyph glyph-name="product" unicode="&#x220f;" horiz-adv-x="1356" 
d="M327 1205v-1623h-205v1798h1115v-1798h-205v1623h-705z" />
    <glyph glyph-name="summation" unicode="&#x2211;" horiz-adv-x="1202" 
d="M999 487l-632 -720h761v-185h-1058v155l655 750l-655 738v155h1058v-185h-762z" />
    <glyph glyph-name="minus" unicode="&#x2212;" horiz-adv-x="1199" 
d="M93 515v185h1015v-185h-1015z" />
    <glyph glyph-name="radical" unicode="&#x221a;" horiz-adv-x="1306" 
d="M431 673l157 -457q5 -15 16 -15q10 0 15 15l442 1224h222l-524 -1346q-33 -94 -150 -94q-129 0 -158 86l-165 402h-227v185h372z" />
    <glyph glyph-name="infinity" unicode="&#x221e;" horiz-adv-x="1112" 
d="M91.5 940q56.5 66 177.5 66q140 0 286 -150q146 150 286 150q121 0 177.5 -66t56.5 -170.5t-56.5 -170.5t-177.5 -66q-140 0 -286 150q-146 -150 -286 -150q-121 0 -177.5 66t-56.5 170.5t56.5 170.5zM650 770q87 -93 172 -93q52 0 77 28t25 64.5t-25 64.5t-78 28
q-84 0 -171 -92zM460 770q-87 92 -171 92q-53 0 -78 -28t-25 -64.5t25 -64.5t77 -28q85 0 172 93z" />
    <glyph glyph-name="integral" unicode="&#x222b;" horiz-adv-x="833" 
d="M321 1160q0 290 290 290q90 0 200 -20v-154h-167q-118 0 -118 -143v-1283q0 -290 -290 -290q-90 0 -200 20v154h167q118 0 118 143v1283z" />
    <glyph glyph-name="approxequal" unicode="&#x2248;" horiz-adv-x="1144" 
d="M335 830q-60 0 -88 -25t-28 -65l-174 8q0 129 70 208t220 79q140 0 271 -44.5t201 -44.5q59 0 87 25t28 70l174 -8q0 -134 -70 -213t-220 -79q-140 0 -271 44.5t-200 44.5zM335 453q-60 0 -88 -25t-28 -65l-174 8q0 129 70 208t220 79q140 0 271 -44.5t201 -44.5
q59 0 87 25t28 70l174 -8q0 -134 -70 -213t-220 -79q-140 0 -271 44.5t-200 44.5z" />
    <glyph glyph-name="lessequal" unicode="&#x2264;" horiz-adv-x="1101" 
d="M979 251l-792 268q-94 33 -94 150q0 129 86 158l800 271v-206l-662 -202q-13 -5 -13 -16q0 -10 13 -15l662 -202v-206zM93 0v185h886v-185h-886z" />
    <glyph glyph-name="greaterequal" unicode="&#x2265;" horiz-adv-x="1101" 
d="M93 457l662 202q13 5 13 15q0 11 -13 16l-662 202v206l800 -271q86 -29 86 -158q0 -117 -94 -150l-792 -268v206zM93 0v185h886v-185h-886z" />
    <glyph glyph-name="uni0009" horiz-adv-x="508" 
 />
    <glyph glyph-name="G.ss01" horiz-adv-x="1410" 
d="M802 -10q-323 0 -527 185t-204 520t179 515t532 180q214 0 460 -54v-192q-266 62 -461 62q-255 0 -380 -128t-125 -382q0 -255 140 -388.5t385 -133.5q148 0 309 33v352h-278v185h483v-680q-259 -74 -513 -74z" />
    <glyph glyph-name="G.ss02" horiz-adv-x="1410" 
d="M1110 117q-70 -73 -160.5 -100t-217.5 -27q-273 0 -467 185t-194 520t179 515t532 180q214 0 460 -54v-192q-266 62 -461 62q-255 0 -380 -128t-125 -382q0 -255 130 -388.5t345 -133.5q168 0 263.5 66.5t95.5 217.5v101h-278v185h483v-744h-205v117z" />
    <glyph glyph-name="J.ss01" horiz-adv-x="878" 
d="M783 1380v-940q0 -470 -510 -470q-70 0 -200 20v154h187q318 0 318 313v923h205z" />
    <glyph glyph-name="K.ss01" horiz-adv-x="1190" 
d="M606 774l567 -774h-251l-448 621l-147 -169v-452h-205v1380h205v-653l555 653h251z" />
    <glyph glyph-name="j.ss01" horiz-adv-x="401" 
d="M301 1382.5q-30 31.5 -99 31.5q-70 0 -100 -31.5t-30 -93.5q0 -63 30 -96.5t100 -33.5q69 0 99 33.5t30 96.5q0 62 -30 93.5zM304 -410h-205v0v0v0v0v1410h205v-1410z" />
    <glyph glyph-name="k.ss01" horiz-adv-x="1026" 
d="M306 306v-306h-205v1440h205v-896l396 456h241l-365 -398l433 -602h-251l-324 447z" />
    <glyph glyph-name="l.ss03" horiz-adv-x="401" 
d="M304 0h-205v1439h205v-1439z" />
    <glyph glyph-name="y.ss04" horiz-adv-x="1060" 
d="M470 8q-60 5 -88 78l-353 914h222l268 -784q5 -15 16 -15q10 0 15 15l267 784h222l-516 -1418h-222z" />
    <glyph glyph-name=".ttfautohint" horiz-adv-x="1060" 
d="M0 0z" />
    </font>
</defs>
</svg>
