<?xml version="1.0" standalone="no"?>
<!DOCTYPE svg PUBLIC "-//W3C//DTD SVG 1.1//EN" "http://www.w3.org/Graphics/SVG/1.1/DTD/svg11.dtd" >
<svg xmlns="http://www.w3.org/2000/svg" xmlns:xlink="http://www.w3.org/1999/xlink" version="1.1">
<metadata>
Created by FontForge 20170731 at Tue Feb  9 16:30:48 2021
 By Aleksey,,,
Photograph Signature (c) Lettersiro 2018. All Rights Reserved
</metadata>
<defs>
<font id="PhotographSignature" horiz-adv-x="534" >
  <font-face 
    font-family="Photograph Signature"
    font-weight="400"
    font-stretch="normal"
    units-per-em="2048"
    panose-1="2 0 5 0 0 0 0 0 0 0"
    ascent="1638"
    descent="-410"
    x-height="780"
    cap-height="1904.5"
    bbox="-975.174 -813 4248.75 2642.17"
    underline-thickness="102"
    underline-position="-867"
    unicode-range="U+000D-25FC"
  />
<missing-glyph horiz-adv-x="748" 
d="M68 0v1365h544v-1365h-544zM136 68h408v1229h-408v-1229z" />
    <glyph glyph-name=".notdef" horiz-adv-x="748" 
d="M68 0v1365h544v-1365h-544zM136 68h408v1229h-408v-1229z" />
    <glyph glyph-name=".null" horiz-adv-x="0" 
 />
    <glyph glyph-name="uni000D" unicode="&#xd;" horiz-adv-x="1040" 
 />
    <glyph glyph-name="uni001D" horiz-adv-x="0" 
 />
    <glyph glyph-name="uni001D" horiz-adv-x="0" 
 />
    <glyph glyph-name="space" unicode=" " horiz-adv-x="667" 
 />
    <glyph glyph-name="exclam" unicode="!" horiz-adv-x="927" 
d="M137 406q0 -21 14 -35.5t35 -14.5q20 0 35 15t15 35t-15 34.5t-35 14.5q-21 0 -35 -14t-14 -35zM209 563q-10 -20 22 -49q12 -12 24 -15.5t17 5.5l443 856q4 7 -2.5 22t-18.5 27q-13 12 -26 15t-17 -5z" />
    <glyph glyph-name="quotedbl" unicode="&#x22;" horiz-adv-x="466" 
d="M104 1296q-13 -16 17 -49q12 -12 25.5 -16.5t19.5 2.5q37 42 37 98q0 21 -8 45q-9 30 -31 49q-1 1 -3 3.5t-3 3.5q-19 16 -37 16q-11 0 -12 -10t8 -25q4 -8 16 -20q2 -6 2 -19q0 -42 -31 -78zM252 1296q-13 -16 16 -49q12 -12 25.5 -16.5t19.5 2.5q37 42 37 98
q0 29 -8 45q-9 29 -29 49q-1 1 -3 3.5t-3 3.5q-22 16 -37 16q-10 0 -12 -10t6 -25q3 -6 17 -20q2 -6 2 -19q0 -42 -31 -78z" />
    <glyph glyph-name="numbersign" unicode="#" horiz-adv-x="884" 
d="M10 629q-3 -10 6 -25q11 -14 23 -24q15 -11 24 -11h95l-64 -118q-4 -8 2 -23q8 -16 19 -27q14 -11 26 -14q13 -3 17 4l94 178h117l-64 -118q-4 -8 2 -23q9 -17 21 -27q11 -11 24 -14t17 4l94 178h188q11 0 15 11q0 12 -9 24q-11 18 -22 25q-13 10 -25 10h-110l80 149h149
q8 0 12 11q0 13 -8 24q-10 19 -20 27q-12 10 -27 10h-68l37 70q4 11 -2 22q-6 16 -20 27q-13 13 -25 16q-13 3 -16 -6l-70 -129h-116l36 70q3 9 0 22q-6 16 -20 27q-16 13 -25 16q-12 3 -18 -6l-68 -129h-213q-12 0 -12 -10q-3 -9 6 -27q7 -10 25 -24q15 -11 22 -11h133
l-77 -149h-175q-10 0 -10 -10zM289 639l80 149h116l-79 -149h-117z" />
    <glyph glyph-name="dollar" unicode="$" horiz-adv-x="827" 
d="M143 879q12 -58 52 -111q22 -27 53 -55l-82 -133q-5 -8 1 -23t19 -27q12 -12 25 -15.5t18 3.5l93 152q42 -11 65 -11q78 0 148 39q58 33 86 82q35 53 32 129q0 91 -59 203l305 496q1 0 2 -1t2 -1q13 -12 23 -37q10 -29 10 -70q1 -37 -7.5 -70.5t-19.5 -46.5q-6 -6 -1 -20
t18 -27q12 -13 25.5 -17.5t17.5 1.5q15 16 25.5 55t9.5 82q0 46 -15 90q-23 60 -67 99l59 96q5 8 -1 22.5t-19 26.5q-12 12 -25 15.5t-18 -3.5l-68 -112q-46 18 -107 18q-91 -3 -159 -41q-67 -39 -101 -106q-37 -64 -34 -156q0 -120 69 -252l-246 -401q-19 11 -34 32
q-18 21 -29 62q-7 47 6 84q30 79 141 119q9 3 8 15t-12 26q-10 15 -24 23t-23 5q-121 -43 -155 -133q-19 -52 -7 -106zM358 731l205 332q22 -56 25 -109q0 -64 -31 -112q-25 -45 -78 -76q-59 -32 -121 -35zM514 1362q0 75 33 139q30 62 94 98q63 37 145 37h29l-266 -434
q-32 76 -35 160z" />
    <glyph glyph-name="percent" unicode="%" horiz-adv-x="958" 
d="M145 223q-4 -7 2.5 -22t20.5 -27q12 -12 24 -14.5t17 6.5l625 1266q4 7 -2.5 22t-20.5 27q-12 12 -25 15t-16 -5zM416 334q0 -25 17 -42.5t42 -17.5t42.5 17.5t17.5 42.5t-17.5 42t-42.5 17t-42 -17t-17 -42zM479 1380q0 -25 17.5 -42t42.5 -17t42 17t17 42t-17 42.5
t-42 17.5t-42.5 -17.5t-17.5 -42.5z" />
    <glyph glyph-name="ampersand" unicode="&#x26;" horiz-adv-x="1265" 
d="M55 84q22 -66 90 -102q47 -24 105 -21q125 7 239 121q53 51 80.5 99t29 86t-7 64.5t-26.5 49.5q125 50 203 77.5t78 16.5q2 -12 12 -27t23 -22q13 -9 22.5 -7t9.5 13q-1 33 -28 50t-73.5 16.5t-100 -8t-117.5 -26.5t-115.5 -35.5t-106 -37.5t-76.5 -29.5t-38 -15.5h-2
q-8 -4 -6 -17t12 -26q11 -15 24.5 -23t22.5 -4l223 80q7 -11 9 -26t-4.5 -40t-33.5 -62.5t-73 -82.5q-106 -104 -225 -114q-51 0 -70 12q-11 5 -18 20q-21 60 16 150q20 52 54 99t70 80t80.5 62t78.5 46t71 31t51.5 18.5t26.5 7.5q10 0 10 14q-2 12 -12.5 27.5t-23.5 22.5
l-7 5q-6 5 -15.5 13.5t-20.5 20.5t-19 29.5t-12.5 37t-1 45.5t15.5 53q24 52 74 95t111 67q46 18 90 21q41 3 65 -9q15 -6 21 -22q14 -41 6.5 -78.5t-30.5 -69.5t-47 -55.5t-43 -37.5l-19 -13q-15 -11 6 -39q9 -14 23.5 -23.5t23.5 -7.5l141 33q9 3 8 15t-10 26
q-13 19 -33 29q75 98 35 202q-29 74 -98 105q-46 19 -94 16t-97 -22q-65 -25 -117.5 -70.5t-78.5 -101.5q-66 -146 61 -269q-46 -15 -93 -37.5t-111.5 -63.5t-119.5 -104.5t-85 -140.5q-42 -110 -13 -186z" />
    <glyph glyph-name="quotesingle" unicode="'" horiz-adv-x="368" 
d="M104 1296q-13 -16 17 -49q12 -12 25.5 -16.5t19.5 2.5q37 42 37 98q0 21 -8 45q-9 30 -31 49q-1 1 -3 3.5t-3 3.5q-19 16 -37 16q-11 0 -12 -10t8 -25q4 -8 16 -20q2 -6 2 -19q0 -42 -31 -78z" />
    <glyph glyph-name="parenleft" unicode="(" horiz-adv-x="772" 
d="M94.5 632q2.5 -70 11.5 -120.5t22 -98t20.5 -68t12.5 -32.5l1 -2q6 -13 19.5 -25.5t25.5 -15.5t16 5.5t-2 23.5l-1 2q-61 149 -60 327q2 366 296 629q35 31 74 60q7 6 3.5 19.5t-15.5 27.5q-12 12 -25.5 18t-19.5 0q-93 -70 -163 -150t-111.5 -155.5t-66.5 -156.5
t-32.5 -149.5t-5 -138.5z" />
    <glyph glyph-name="parenright" unicode=")" horiz-adv-x="618" 
d="M83 287q3 -14 15 -27q31 -31 47 -18q118 89 198.5 194.5t118 200t51.5 197t9 176.5t-21 148.5t-26.5 103.5t-18.5 49l-1 1v1q-6 13 -19.5 25.5t-25.5 15.5t-16.5 -5.5t1.5 -23.5l1 -2q62 -148 62 -326q-1 -365 -296 -628q-36 -32 -76 -62q-6 -6 -3 -20z" />
    <glyph glyph-name="asterisk" unicode="*" horiz-adv-x="675" 
d="M67 1336q3 -14 15 -27q30 -33 47 -23l64 41l-23 -57q-7 -22 25 -51q12 -11 24 -13.5t17 6.5l51 134l41 -72q9 -14 23 -24.5t24 -10.5q10 -1 12 9.5t-6 25.5l-55 92l149 -29q12 -2 16 7t-2 24q-8 14 -21.5 26t-25.5 15l-92 16l142 91q8 4 4.5 18t-15.5 27q-12 14 -26 20
t-21 2l-72 -45l31 76q3 8 -4 22.5t-20 26.5t-25.5 13.5t-15.5 -7.5l-72 -180l-55 94q-7 14 -21.5 24.5t-25.5 12.5q-10 0 -12.5 -11t5.5 -26l78 -133l-141 27q-12 3 -16 -5.5t2 -23.5q8 -14 21.5 -26t25.5 -15l28 -6l-73 -47q-8 -4 -5 -18z" />
    <glyph glyph-name="plus" unicode="+" horiz-adv-x="1036" 
d="M98 891q-4 -11 6 -27q8 -14 25 -24q15 -11 23 -11h233v-229q0 -10 10 -27q10 -16 23 -24q15 -9 24 -6q11 0 11 12v274h274q8 0 12 11q3 9 -6 24q-11 19 -22 27q-17 10 -27 10h-231v229q0 9 -11 27q-8 13 -24 23q-17 10 -23 8q-10 -3 -10 -12v-275h-274q-13 -3 -13 -10z
" />
    <glyph glyph-name="comma" unicode="," horiz-adv-x="894" 
d="M260 381q4 -21 45 -25q69 -4 107 37q34 37 28 107q-2 8 -15.5 15.5t-31.5 8.5q-18 0 -30 -5.5t-11 -12.5q3 -32 -1 -54.5t-12 -32t-16 -15t-14 -5.5h-6q-19 1 -31 -4t-12 -14z" />
    <glyph glyph-name="hyphen" unicode="-" horiz-adv-x="993" 
d="M105 890q-1 -11 8 -26q7 -13 21.5 -24t25.5 -11h573q12 0 13.5 10.5t-7.5 24.5q-9 15 -23 26t-24 11h-575q-11 0 -12 -11z" />
    <glyph glyph-name="period" unicode="." horiz-adv-x="393" 
d="M129 428q0 -20 14.5 -34.5t36.5 -14.5q20 0 34.5 14.5t14.5 34.5q0 21 -14 35t-35 14q-22 0 -36.5 -13.5t-14.5 -35.5z" />
    <glyph glyph-name="slash" unicode="/" horiz-adv-x="835" 
d="M18 189.5q6 -14.5 19 -27.5q33 -29 43 -12l717 1079q4 7 -2.5 22t-18.5 27q-33 29 -43 12l-715 -1079q-6 -7 0 -21.5z" />
    <glyph glyph-name="zero" unicode="0" horiz-adv-x="1386" 
d="M59 350q-14 -177 70 -268q78 -81 201 -62q104 15 237 97q231 141 457 418t336 591q48 141 66 261t8.5 204t-41.5 146q-49 95 -144 135q-69 29 -157 10q-96 -21 -191 -102t-162 -209q-3 -6 -20.5 -40.5t-24.5 -51.5q-82 -86 -157 -173.5t-160.5 -207t-149 -235
t-110.5 -251.5t-58 -262zM127 303q36 429 481 950q-17 -64 -18.5 -112.5t8 -72.5t22 -38t22.5 -17l11 -3q12 -1 15.5 7.5t-2.5 22.5q-8 15 -22 27.5t-26 13.5l-2 7q1 51 138 325q58 59 115.5 114t85.5 80l28 25q7 5 3.5 18t-15.5 27q-18 18 -29 21q95 92 199 114
q72 15 129 -6q45 -20 67 -63q91 -172 -43 -561q-109 -311 -331.5 -585t-452.5 -413q-128 -79 -227 -94q-88 -12 -125 25q-43 46 -31 188z" />
    <glyph glyph-name="one" unicode="1" horiz-adv-x="835" 
d="M76 186q-21 -33 6 -56t53 -19q11 1 249 427t470 852l233 425q-1 1 0 6t-2.5 13.5t-8.5 16.5t-19.5 15.5t-34.5 9.5q-31 4 -156.5 -76.5t-235.5 -163.5l-110 -82q-6 -14 -4.5 -24.5t14 -20t21.5 -14.5t18 -8q8 -3 102.5 63t185.5 134l91 67q-841 -1516 -872 -1565z" />
    <glyph glyph-name="two" unicode="2" horiz-adv-x="1345" 
d="M-14 219q5 -19 16.5 -31t34.5 -16.5t42 -5.5t58 4.5t63.5 10t75.5 14.5q70 14 112 22t117 21t124.5 18.5t115 11t109.5 1.5t86 -12.5t66.5 -28t31.5 -48.5q5 -14 16.5 -27.5t24.5 -19.5q14 -6 21.5 -1t3.5 18q-11 44 -38 77.5t-61.5 54.5t-87 32.5t-99 16.5t-114.5 1.5
t-117.5 -8.5t-122.5 -17t-116 -20t-111 -21q-7 -1 -10 -2q-49 -9 -91 -28q-14 -7 -18.5 -5.5t-8.5 17.5q-2 6 28.5 31t129.5 99.5t184 141.5q144 113 242.5 192t234 191.5t244.5 213.5t188 188q159 176 156 319q0 88 -66 164q-59 66 -150.5 95.5t-185 20.5t-172.5 -49
q-61 -31 -109.5 -68.5t-78 -71.5t-51.5 -68.5t-31.5 -62t-14.5 -49.5t-5 -34l-1 -12q0 -26 35 -49q14 -9 23.5 -7.5t9.5 13.5q0 8 1 22t15.5 55.5t40 81t83.5 90t138 91.5q58 30 136.5 42.5t159.5 -3.5t124 -64q30 -39 33 -92q0 -135 -152 -301q-102 -113 -279 -268.5
t-298 -252.5t-330 -261q-218 -170 -315 -254.5t-90 -112.5z" />
    <glyph glyph-name="three" unicode="3" horiz-adv-x="1245" 
d="M-37 287q0 -87 62 -152q60 -60 153 -63q17 -2 53 2q113 15 258 103t277 218q136 135 222.5 283.5t92.5 279.5q2 22 -2 64q-36 275 -329 283q18 10 64.5 34.5t74.5 40.5q225 126 291 269q29 69 20 129q-12 72 -76 127q-74 61 -182 61q-174 0 -346 -117
q-86 -61 -140 -131.5t-55 -128.5q0 -11 10 -25.5t23 -23.5q9 -7 16.5 -9t12.5 1.5t6 11.5q2 51 53 117t133 121q162 114 328 114q81 0 127 -34q20 -20 25 -50q6 -45 -21 -104q-62 -137 -280 -260q-136 -74 -236 -154q-43 -7 -84.5 -18t-61.5 -18t-22 -9q-4 0 -4 -4
q-2 -3 -4 -7.5t-4.5 -15t0.5 -18t17 -12t40 -0.5q8 -10 37 -2t75 16.5t98.5 20.5t107 10t100 -14.5t78.5 -54t41 -107.5q5 -24 2 -57q-4 -123 -88.5 -267t-218.5 -278q-132 -128 -272.5 -214.5t-250.5 -99.5q-31 -4 -45 -2q-64 0 -88 27q-20 20 -20 74q0 65 35 143
q45 97 131 186t198 144q9 5 7 17t-13 26q-12 15 -25.5 22t-21.5 2q-116 -55 -205.5 -147t-134.5 -193q-39 -86 -39 -157z" />
    <glyph glyph-name="four" unicode="4" horiz-adv-x="958" 
d="M24 1111q-25 -115 66 -124q151 -16 549 0l-453 -827q-9 -19 21 -49q33 -29 43 -13l489 891q205 10 215 10q9 2 10 12.5t-8 24.5q-9 15 -23 25.5t-24 9.5q-51 -2 -129 -6l387 709q5 9 -1 23t-19 26q-33 29 -43 12l-424 -774q-427 -18 -580 0q-68 6 186.5 366.5
t305.5 411.5q13 17 -19 49q-12 12 -25.5 16.5t-17.5 -1.5q-19 -19 -127 -160q-338 -439 -379 -632z" />
    <glyph glyph-name="five" unicode="5" horiz-adv-x="1202" 
d="M-41 371q-19 -67 2 -131q44 -125 201 -179q77 -24 164 -6q104 21 221 96t227 185q106 106 188 229.5t121 239.5q41 122 23 225q-15 73 -49.5 124.5t-83 76.5t-101.5 36.5t-114 7t-110.5 -13.5t-100.5 -24q210 335 319 463q38 46 122 69t171.5 24t184.5 -7.5t149.5 -17.5
t78.5 -14l3 -1q12 -3 16 5.5t-2 23.5q-8 14 -21.5 26t-25.5 15q-24 5 -64 12t-149 18.5t-200 10.5t-186 -25.5t-138 -75.5q-68 -78 -165 -222t-160 -249l-64 -104q-4 -7 2 -22t18 -27q25 -25 39 -15q1 1 8 3q26 11 49.5 19.5t79.5 25.5t102 25.5t104 10.5t100.5 -10.5
t76.5 -46t45 -88.5q16 -89 -22 -203q-37 -112 -118.5 -233t-186.5 -228t-220 -180t-217 -94q-75 -15 -139 4q-93 31 -112 88q-13 41 0 100q15 57 53 111q41 55 91 90.5t89 34.5q11 -2 13 9t-7 26q-7 13 -21.5 24t-25.5 11q-45 3 -102 -35.5t-99 -98.5q-43 -59 -57 -118z" />
    <glyph glyph-name="six" unicode="6" horiz-adv-x="897" 
d="M2 207q43 -93 133 -135q74 -31 158 -19q92 14 187 74t173 158q85 107 125 231t31 232q-9 103 -57 174q-60 88 -154 112q-119 30 -281 -63q84 123 190 255.5t198 234t172 186t126.5 129.5t47.5 45q6 6 1.5 20.5t-16.5 26.5q-12 13 -25.5 18.5t-19.5 -0.5l-1 -1
q-214 -205 -435 -464q-428 -503 -541 -843q-76 -234 -12 -371zM61 195q-51 111 19 327q65 192 223 426q0 -10 14 -28q11 -14 24.5 -20.5t20.5 -2.5q161 94 267 68q50 -11 76 -52q30 -46 36 -125q8 -104 -29.5 -221t-119.5 -219q-76 -95 -167.5 -153t-178.5 -70
q-73 -12 -127 12q-39 16 -58 58z" />
    <glyph glyph-name="seven" unicode="7" horiz-adv-x="856" 
d="M-57 113q-3 -8 6 -23q6 -15 18 -27q13 -11 27 -14q10 -3 14 8q124 291 449 746q61 86 159 221q33 4 92.5 10.5t84.5 9.5q80 9 84 9q3 -14 16 -27q7 -11 25 -22q12 -6 20 -3q9 3 6 19q-15 41 -121 53q-65 8 -166 8q190 261 351 471q125 162 145 195q21 46 -53 63
q-90 18 -203 15q-108 -3 -262 -13q-71 -5 -225 -20q-92 -12 -99 -12q-8 -3 -8 -13q-2 -9 8 -26q9 -16 25 -25q11 -8 22 -8l15 2q5 1 57.5 9t97.5 14q23 3 107 14t133 18q50 6 129.5 16.5t93.5 12.5q95 12 99 12q-16 -23 -144 -190q-139 -178 -399 -537q-118 -6 -211 -12
q-108 -9 -117 -12q-10 -3 -10 -13q-3 -8 8 -26q8 -13 25 -23q13 -10 22 -10l10 2q3 0 45.5 5t79.5 9q18 2 53 6t46 5q-18 -24 -105 -146q-318 -445 -450 -751z" />
    <glyph glyph-name="eight" unicode="8" horiz-adv-x="1325" 
d="M-135 426q-49 -193 106 -305q75 -55 189 -64q97 -9 211 23q98 27 180 80t141 140t70 192q12 122 -9.5 230.5t-66.5 227.5q68 23 133 50t148 72.5t152 97t135 124.5t108 154q80 153 33 266q-36 84 -125 133q-72 35 -164 35q-117 -2 -248.5 -63.5t-241.5 -180.5
q-30 -32 -51.5 -65t-35.5 -61.5t-19.5 -64t-8 -61t4 -63.5t11.5 -62t20 -66t23.5 -65t27.5 -69l18 -43q-29 -6 -66 -16t-102.5 -34t-128 -54.5t-135 -79t-130.5 -105t-107 -135.5t-72 -168zM-68 373q23 91 75 172t112.5 136.5t137 103t138.5 75t127 49.5q4 -2 15 -2
q39 9 100 27q74 -208 57 -393q-14 -146 -120.5 -247.5t-254.5 -143.5q-111 -30 -198 -21q-93 6 -146 45q-81 60 -43 199zM570.5 1349q0.5 42 12.5 76t35 73t58 77q108 115 234 175t239 60q82 0 133 -26q39 -19 51 -53q36 -84 -35 -224q-49 -95 -128 -176.5t-173 -139.5
t-174 -95.5t-166 -67.5l-8 16q-21 52 -32 81t-25.5 75t-18 76.5t-3 72.5z" />
    <glyph glyph-name="nine" unicode="9" horiz-adv-x="999" 
d="M-37 115q3 -13 14 -27q12 -14 26.5 -20t21.5 0q118 86 263.5 247.5t293.5 360.5q219 297 362 557q0 2 2 4q71 128 88 197q40 142 37 245q-3 95 -51 160q-61 80 -162 86q-65 3 -160 -24q-101 -32 -199.5 -120t-174.5 -204q-78 -121 -107 -234q-32 -128 -6 -219
q28 -88 108 -139q1 -1 3 -2t3.5 -2t2.5 -1.5t2 -0.5q155 -90 389 61l16 13q-81 -131 -217 -316q-322 -435 -551 -604q-7 -5 -4 -18zM276 1100q-23 72 7 190q29 108 104 226q72 113 168 198.5t195 116.5q83 25 147 22q61 -3 80 -28q24 -34 27 -103q3 -103 -35 -235
q-18 -64 -86 -191l-2 -2v-2q-16 -23 -80 -80t-139 -104q-219 -140 -338 -70l-7 2q-28 20 -41 60z" />
    <glyph glyph-name="colon" unicode=":" horiz-adv-x="509" 
d="M127 412q0 -20 14.5 -35t36.5 -15q20 0 34.5 15t14.5 35q0 22 -14.5 36.5t-34.5 14.5q-22 0 -36.5 -14.5t-14.5 -36.5zM311 846q0 -22 14.5 -36.5t34.5 -14.5q22 0 37 14.5t15 36.5q0 20 -15 34.5t-37 14.5q-20 0 -34.5 -14.5t-14.5 -34.5z" />
    <glyph glyph-name="semicolon" unicode=";" horiz-adv-x="526" 
d="M99.5 379q3.5 -14 15.5 -27q10 -13 23.5 -20t21.5 -2q38 22 56 50.5t17.5 51t-9.5 45t-16 32t-11 13.5q-10 13 -23.5 19.5t-21.5 1.5q-8 -4 -5 -18t15 -27q2 -2 4 -5t3 -14t-3 -22t-19.5 -27.5t-42.5 -32.5q-8 -4 -4.5 -18zM238 850q0 -21 14 -35t35 -14q20 0 34.5 14.5
t14.5 34.5t-14.5 34.5t-34.5 14.5q-21 0 -35 -14t-14 -35z" />
    <glyph glyph-name="less" unicode="&#x3c;" horiz-adv-x="976" 
d="M57 723q-89 -80 17 -141q96 -56 181 -96t122 -52l37 -12q13 -3 24.5 3t14.5 19q3 12 -3.5 23.5t-19.5 15.5q-13 3 -38.5 11.5t-110 47t-177.5 93.5q-76 45 129 130q168 70 409 131l5 1q12 3 19 14.5t4 24.5q-3 12 -14.5 18.5t-24.5 3.5l-13 -4q-438 -121 -561 -231z" />
    <glyph glyph-name="equal" unicode="=" horiz-adv-x="976" 
d="M248 763q-1 -11 8 -26q7 -13 21.5 -24t25.5 -11h576q11 0 12 11t-8 24q-9 15 -23 26t-24 11h-576q-11 0 -12 -11zM248 970q-1 -11 8 -26q7 -13 21.5 -24t25.5 -11h576q7 0 10 5t1.5 13t-7.5 17q-9 15 -23 26t-24 11h-576q-11 0 -12 -11z" />
    <glyph glyph-name="greater" unicode="&#x3e;" horiz-adv-x="819" 
d="M-16 422q3 -12 15 -19t24 -4l13 4q436 121 560 232q89 81 -16 143q-96 56 -181 95.5t-122 50.5l-37 12q-12 3 -24 -3t-15 -18q-3 -14 3 -24.5t19 -13.5l13 -5q14 -4 42.5 -15t65 -27t92 -44.5t113.5 -62.5q76 -45 -129 -130q-168 -70 -409 -131l-5 -1q-12 -3 -18.5 -14.5
t-3.5 -24.5z" />
    <glyph glyph-name="question" unicode="?" horiz-adv-x="667" 
d="M193 365q0 -21 14.5 -35.5t36.5 -14.5q20 0 34.5 15t14.5 35q0 22 -14.5 36.5t-34.5 14.5q-22 0 -36.5 -14.5t-14.5 -36.5zM225 508q0 -12 9.5 -27t23.5 -24q9 -6 17 -8t13 0.5t5 9.5q2 31 7 56.5t17.5 52t21.5 45t34.5 46.5t40.5 44t55 50t62.5 52.5t76.5 62.5l41 33
q135 111 164 225q18 63 2 117q-22 70 -84 111q-54 36 -131 30q-42 -4 -77.5 -16.5t-59.5 -29t-43.5 -36t-30.5 -38t-18 -33.5t-10 -24l-3 -9q-2 -9 7 -24t22 -27q13 -10 24.5 -10.5t14.5 8.5q1 6 4.5 16.5t19 37t37.5 48t64 41.5t94 25q55 6 86 -15q13 -10 19 -28
q13 -40 -2 -88q-30 -110 -158 -215l-41 -33q-62 -51 -88.5 -73t-69.5 -59.5t-60 -57.5t-41.5 -51.5t-34 -57t-18.5 -58t-12 -69.5z" />
    <glyph glyph-name="at" unicode="@" horiz-adv-x="1177" 
d="M41 444q16 -81 65 -139q61 -77 150 -98q125 -28 270 22q80 26 146 69t96 83q6 6 1 20.5t-17 26.5q-31 31 -45 14q-28 -36 -92.5 -77t-139.5 -66q-134 -48 -250 -20q-52 9 -82 47q-29 36 -37 86q-13 61 5 133q40 166 202 299q148 120 301 137q89 9 162 -16q57 -20 90 -62
q29 -37 35 -82q7 -65 -15 -124t-61 -101q-25 -28 -51 -41q-16 -8 -26 -8q-4 31 19.5 75.5t48.5 73.5l26 29q14 14 -15 47q-12 13 -25.5 17.5t-19.5 -1.5q-1 -1 -6.5 -6t-17.5 -16t-25 -23q-81 145 -268 60q-72 -33 -119.5 -91.5t-60.5 -115.5q-9 -38 0 -68q15 -53 63 -79
q55 -30 135 14q105 57 201 129q0 -24 10 -51q28 -58 76 -64l2 -2q30 -3 57 12q35 19 58 45q42 45 65 111t15 139q-6 73 -62 142q-62 74 -151 108q-90 29 -185 21q-159 -20 -313 -144q-170 -138 -213 -311q-18 -79 -2 -154zM348 506q-2 9 2 39q11 52 55.5 105t112.5 83
q43 19 76 24t51.5 -4t29 -19.5t15.5 -24.5q-132 -111 -262 -179q-56 -27 -80 -24z" />
    <glyph glyph-name="A" unicode="A" horiz-adv-x="2537" 
d="M35 932q-11 -26 -11 -51q0 -53 52 -99q114 -101 697 -101q206 0 470 13q-645 -658 -917 -884q3 16 -17 40q-12 14 -25.5 19.5t-19.5 -0.5q-3 0 -39.5 -35.5t-70.5 -83.5q-29 -40 -30 -64q0 -4 1 -8q15 -60 59 -60q10 0 21 3q148 38 1169 1081q238 13 764 60
q-124 -260 -336 -637q-80 -141 -110 -205q-26 -55 -26 -79q0 -4 1 -7q15 -55 53 -55q7 0 15 2q34 7 143 158q185 260 291 532q64 160 86 303q55 5 105.5 10.5t73.5 7.5l24 3q9 2 9.5 13.5t-9.5 25.5q-9 15 -23 24.5t-25 7.5q-51 -6 -139 -14q47 99 90 207q215 520 277 739
q23 94 23 148q1 28 -5 44q-16 45 -71 45q-6 0 -13 -1q-18 -1 -155.5 -138.5t-425.5 -435.5q-109 72 -257 100q-107 21 -219 21q-43 0 -86 -3q-156 -11 -325.5 -51t-322.5 -99t-294 -132q-168 -85 -299 -188q-125 -101 -153 -176zM92 825q-9 9 6 49q29 71 150 168
q138 108 295 187q169 88 354.5 153.5t377.5 103.5q142 28 277 28q48 0 96 -4q180 -14 308 -85l-82 -84q-340 -352 -559 -573q-378 -23 -641 -24q-490 1 -582 81zM1448 778q74 75 157.5 161t180 185.5t147.5 151.5l97 100q112 -92 151 -237q18 -74 18 -164q0 -43 -4 -90
l-20 -43q-488 -49 -727 -64zM1905 133q100 182 143 264q-67 -143 -143 -264zM2060 1407q539 553 557 555q4 1 1 -5l-5 -10q-28 -48 -43 -96q-60 -220 -274 -735q-8 -23 -35 -84q-8 52 -16 78q-47 178 -185 297z" />
    <glyph glyph-name="B" unicode="B" horiz-adv-x="2498" 
d="M-330 825q0 -11 8 -24q10 -17 23 -27t25 -10q9 0 12 10q50 281 227 504q173 222 428 383q303 192 631 274q232 58 432 58q88 0 170 -11q331 -50 496 -163q112 -75 151 -170q19 -48 19 -98q0 -53 -21 -109q-33 -86 -121 -164q-144 -123 -333 -188q-190 45 -390 45
q-67 0 -98 -2l213 358q3 9 0 20q-7 14 -18 25q-12 15 -25 18q-12 3 -20 -2l-158 -170q-5 -5 -2 -18q3 -14 18 -29l9 -8l-121 -203q-4 0 -11.5 -1t-11.5 -1q-102 -15 -151 -35q-48 -19 -48 -48q0 -3 1 -7h2q3 -16 20 -37q31 -31 92 -49l-82 -139q-127 44 -252 44
q-73 0 -145 -15q-252 -52 -428 -205q-166 -143 -166 -305v-17q12 -180 281 -286q248 -88 540 -91h24q267 0 544 64q316 76 551 215q231 136 303 315q18 52 19 106q0 36 -9 73q-36 133 -127 213q-98 85 -225 133q153 64 264 161q89 80 127 172q22 57 22 117q0 63 -24 129
q-52 135 -213 244q-187 128 -531 180q-84 11 -174 11q-204 0 -440 -58q-337 -86 -639 -278q-259 -164 -436 -390q-179 -228 -232 -514zM113 268v11q0 147 157 286q169 146 418 199q74 14 144 14q89 0 174 -22l-99 -166q-6 -9 0 -23q5 -14 21 -26q15 -15 24 -17q14 -4 19 4
l119 201q186 -72 323 -295q8 -14 25 -24q14 -10 24 -13q10 3 13 13q2 6 -9 24q-148 246 -348 342l90 154q43 -6 95 -6h19q192 0 421 57q56 14 121 37q134 -33 239 -103q102 -71 129 -180q6 -30 6 -58q0 -48 -16 -93q-68 -171 -295 -305q-228 -138 -543 -211
q-271 -64 -532 -64h-23q-282 0 -526 86q-184 70 -190 178zM1081 1010q3 1 10.5 4.5t12.5 5.5q48 19 145 31q95 12 221 12q106 0 220 -12q-215 -56 -408 -56h-20q-119 0 -181 15z" />
    <glyph glyph-name="C" unicode="C" horiz-adv-x="1785" 
d="M29 109q53 -169 204 -246q97 -49 221 -49q57 0 119 10q244 41 570.5 235t718.5 557q6 6 1.5 20t-16.5 28q-12 12 -25.5 17.5t-19.5 0.5q-389 -360 -713 -553.5t-563 -232.5q-63 -10 -118 -9q-109 0 -187 37q-92 50 -127 160q-22 69 -22 149q0 156 82 357q77 188 237 405
q95 127 198.5 236.5t190 183.5t188 143t171.5 108.5t161 86.5q186 95 348 129q78 17 139 17q66 0 114 -19q21 -7 32 -18q18 -15 27 -39q4 -17 4 -36q0 -71 -63 -165q-75 -118 -230 -238q-158 -124 -346 -205.5t-358 -88.5q-11 0 -12 -11t8 -24q9 -15 23 -25.5t24 -9.5
q174 6 366 89t355 210q149 116 233 242q66 101 66 183q0 27 -7 52q-19 66 -79 115q-34 24 -62 35q-59 23 -136 23q-62 0 -138 -15q-168 -34 -363 -133q-91 -46 -162 -86.5t-172.5 -109.5t-189 -143.5t-191.5 -184.5t-200 -238q-171 -234 -242 -412q-83 -206 -83 -372
q0 -89 24 -166z" />
    <glyph glyph-name="D" unicode="D" horiz-adv-x="2320" 
d="M-598 977q-3 -9 4.5 -24t20.5 -25q13 -12 25.5 -14t15.5 6v1q57 143 180 301q273 353 700 518q265 103 576 124q90 6 175 6q437 0 728 -168q222 -130 311 -332q60 -135 60 -281q0 -83 -19 -169q-69 -304 -342 -551q-144 -130 -319.5 -215.5t-345.5 -119.5
q-156 -32 -315 -32h-28q-261 3 -485 94q-195 83 -258 199q-30 51 -30 108q0 32 10 66q50 177 231 260q99 47 238 53q19 1 38 1q113 0 220 -31q33 -9 86 -31q-255 -348 -255 -440q0 -24 17 -31q6 -2 13 -2q20 0 55 14q9 3 7 15.5t-14 25.5q-11 15 -24.5 23t-22.5 4
q150 182 293 358q184 -98 264 -268q6 -13 19.5 -25.5t25.5 -15.5t16 6.5t-3 22.5q-86 194 -289 319l236 287q5 6 0.5 19.5t-15.5 25.5q-12 13 -25.5 19t-21.5 1l-149 -112q-7 -5 -4 -18t14 -27q2 -1 5 -5l3 -4q-83 -107 -113 -149q-67 34 -147 57q-121 34 -237 34
q-18 0 -35 -1q-143 -6 -250 -57q-189 -87 -242 -273q-11 -38 -11 -76q0 -74 42 -149q87 -163 331 -268q230 -95 508 -101h28q164 0 322 32q172 36 351 122.5t325 218.5q280 251 349 563q20 91 20 179q0 161 -67 311q-113 251 -377 405q-312 180 -768 180q-84 0 -172 -6
q-179 -12 -343.5 -51.5t-290.5 -93.5t-239.5 -125.5t-194.5 -141.5t-151.5 -148.5t-113.5 -140t-77.5 -122t-47.5 -88t-20 -44.5z" />
    <glyph glyph-name="E" unicode="E" horiz-adv-x="1415" 
d="M27 1618q27 -19 190 -41q3 0 102 -4q125 -2 208.5 -29.5t117.5 -70t46 -92.5q6 -24 6 -48q0 -26 -7 -52q-13 -50 -29 -91t-33 -66l-16 -26q-4 -6 0 -23q-15 -23 -44.5 -69t-43.5 -68q-77 -4 -156.5 -11t-119.5 -11l-41 -5q-10 -1 -10.5 -13.5t8.5 -25.5q9 -15 23.5 -24.5
t23.5 -7.5l28 4q29 3 85 9t112 11q-307 -500 -307 -696q0 -87 61 -114q22 -10 52 -11q64 -4 154 -4q162 0 409 12q91 3 186.5 9t141 9.5t45.5 2.5q16 -35 45 -45q12 -4 17.5 2t0.5 20q-6 17 -19 30t-35.5 21.5t-44.5 14.5t-59.5 9t-66.5 4h-27h-52q-50 -2 -83.5 -3t-93.5 -4
q-15 -1 -85 -3.5t-96.5 -3t-89 -2t-100.5 -1.5t-90 1t-96 3q-50 2 -50 56t50 160q100 212 323 541q291 28 424 28q110 0 113 -19q2 -12 14 -26.5t25 -20.5q13 -7 21 -3.5t5 15.5q-8 45 -95 70q-86 26 -206 28q-46 1 -95 0q-77 0 -159 -2q215 311 488 668q252 2 459 2
q956 0 960 -49q2 -12 13 -27.5t24 -22.5q13 -9 23 -6t8 15q-4 43 -131 75t-343 48.5t-452 24.5t-508 9l12 17q6 6 0.5 20.5t-18.5 26.5q-12 13 -25.5 17.5t-17.5 -3.5q-1 0 -7 -8t-23 -29.5t-32 -40.5q-100 0 -272 -4q-191 -2 -463 -12q-15 -1 -76 -4.5t-86 -5.5
q-56 4 -57 -1q-1 -2 4 -5q-72 -10 -72 -22q0 -4 5 -7zM571 1599q22 1 107.5 3.5t136.5 3.5q27 0 86 1t90 1q-191 -261 -213 -293q1 10 1 20q0 191 -208 264z" />
    <glyph glyph-name="F" unicode="F" horiz-adv-x="1347" 
d="M41 1485q3 -28 68 -37l-3 2q7 2 17 4q-6 -6 -8 -6q25 -3 55 -3q72 0 176 17q45 10 60 13q238 0 342 -74q65 -47 65 -133q0 -142 -178 -391q-105 -3 -186 -9q-44 21 -104 21q-27 0 -58 -4q-66 -9 -96.5 -18.5t-28.5 -20.5q8 -51 207 -51q39 0 86 2q21 -18 24 -47
q2 -17 2 -37q0 -54 -18 -123q-5 -8 -26 -43q-301 -486 -301 -588q0 -20 11 -25q4 -2 8 -2q33 0 112 96q89 110 163 259q58 117 92 225q13 44 23 94l137 199q4 0 12 4q182 10 314 14q66 2 99.5 2t33.5 -2q1 -5 4 -9t9.5 -9t10.5 -7.5t14 -7.5t11 -6q13 -9 23 -6t8 15
q-2 27 -41.5 45.5t-111 27t-148.5 11.5q-58 2 -130 2h-49q3 5 25 40t31 52q80 117 222.5 323.5t188.5 274.5q364 27 716 27q75 0 149 -1q272 -6 426 -30q32 -5 63 -9t43 -5.5t12 -2.5v-2q-2 -9 7 -24t22 -25q14 -11 25.5 -11.5t13.5 9.5v10v2q-6 90 -221 127
q-187 28 -432 31q-73 2 -155 2q-264 0 -613 -20l28 43q6 6 0.5 20.5t-18.5 26.5q-12 13 -25.5 17.5t-17.5 -3.5q0 -1 -9 -13.5t-29 -41t-40 -58.5q-444 -33 -795 -94h-45q-70 -4 -136.5 -16t-101.5 -24.5t-34 -18.5zM520 799q50 4 78 4l-53 -82q-6 41 -25 78zM637 1509
q259 34 463 50q-84 -120 -228 -336q0 145 -120 231q-47 33 -115 55z" />
    <glyph glyph-name="G" unicode="G" horiz-adv-x="1585" 
d="M70 510l4 -10q23 -86 82 -148q94 -98 253 -98q38 0 80 6q181 26 406 146q173 92 328 215q-64 -101 -179 -273q-29 3 -63 -6q-79 -21 -170 -102.5t-172 -192.5q-77 -104 -123 -201q-37 -79 -37 -119q0 -9 2 -16q17 -66 69 -66q11 0 23 3q126 32 521 620q43 -22 63 -100
q3 -12 15.5 -26.5t25.5 -20.5q12 -6 19.5 -0.5t3.5 18.5q-29 126 -95 176q55 83 113 172.5t102.5 160t80 128.5t57 92.5t22.5 36.5q5 8 -1 21.5t-19 25.5q-12 13 -25.5 18t-17.5 -3q-85 -125 -248.5 -259.5t-349.5 -232.5q-222 -120 -398 -143q-45 -6 -84 -6q-117 0 -174 59
q-29 29 -47 88l-2 8q-16 64 -16 133q0 115 45 244q74 206 233 404q158 195 362.5 341.5t407.5 204.5l19 4q85 23 148 23q71 0 114 -29q32 -22 41 -69q8 -32 8 -69q0 -33 -6 -69q-17 -100 -67 -190.5t-107 -122.5q-9 -5 -6.5 -18t14.5 -27q10 -13 24.5 -20t22.5 -2
q60 34 114 129.5t73 199.5q5 37 5 71q0 47 -10 89q-22 94 -104 152q-65 45 -161 45q-69 0 -154 -23l-19 -4q-206 -59 -413 -207.5t-367 -345.5q-164 -205 -239 -419q-46 -130 -46 -249q0 -76 19 -147zM553 -268q34 103 147 254q151 203 281 268q-302 -442 -428 -522z" />
    <glyph glyph-name="H" unicode="H" horiz-adv-x="2752" 
d="M-4 1075q-2 -15 -2 -29q0 -87 67 -161q74 -85 231 -133q154 -48 381 -47h9q278 0 524 6l-221 -351q-5 -8 1 -21.5t20 -27.5q12 -12 25.5 -15t17.5 3l260 414q333 5 700 20q-3 -371 -223 -809q-22 -40 -66 -119.5t-67 -119.5q-10 -16 20 -50q33 -26 43 -10q78 128 133 240
l496 883l266 14q11 2 12 13t-8 26q-9 14 -23.5 24t-23.5 9l-20 -2q-19 -1 -63.5 -3.5t-96.5 -5.5l608 1086q13 -21 25 -31q13 -10 25 -10t14 10l32 203q2 11 -7.5 25.5t-22.5 23.5q-12 10 -23 11t-14 -7l-737 -1317q-34 -1 -217 -10q-18 182 -95 326q-88 164 -233 268
l270 424q4 7 -2 22t-18 27q-33 29 -43 12l-279 -438q-239 136 -591 136q-29 0 -58 -1q-326 -11 -571.5 -105t-366.5 -229q-75 -81 -88 -174zM63 1026q9 78 82 160q116 131 357.5 222.5t562.5 102.5q32 1 64 1q309 0 516 -107l-394 -623q-196 -4 -610 -8q-427 0 -547 137
q-33 38 -33 89q0 13 2 26zM1354 784l364 578q128 -86 201 -223q76 -143 88 -334q-574 -19 -653 -21zM2038 373q38 166 38 319q0 21 -1 43q104 3 170 6z" />
    <glyph glyph-name="I" unicode="I" horiz-adv-x="950" 
d="M-170 280q-1 -11 8 -26q10 -14 23.5 -24t23.5 -9l20 1q20 1 56 2t80 3t101.5 3.5t111.5 2.5q-2 -3 -5 -11t-5 -11q12 18 14 22q78 1 144 1q345 0 350 -35q3 -13 14.5 -27t24.5 -20q14 -8 21.5 -3.5t4.5 17.5q-20 109 -516 129q227 323 1077 1450l416 -6q10 0 12 10.5
t-6 24.5q-22 36 -49 36l-319 5l18 24q5 8 0 22t-18 27q-12 12 -25.5 16.5t-17.5 -1.5q-3 -3 -64 -86l-506 8q-23 0 -6 -35q9 -15 23 -26t24 -11l412 -6q-163 -217 -330.5 -448.5t-371.5 -535.5t-287 -468q-100 3 -187 2q-14 1 -28 1q-98 0 -162 -4l-64 -3q-11 0 -12 -11z
" />
    <glyph glyph-name="J" unicode="J" horiz-adv-x="1499" 
d="M28 188v-15q0 -88 17 -191q21 -176 23 -279q0 -67 36 -106q33 -37 79 -37q49 0 114 41q93 57 254 215q192 193 419 483t419 586q195 67 202 67q8 3 6 16.5t-12 26.5q-11 14 -24.5 22t-22.5 5l-78 -27q190 311 269 502q53 121 53 220q0 93 -47 167q-72 112 -224 148
q-73 17 -159 17q-63 0 -133 -9q-181 -24 -368 -98.5t-351.5 -197.5t-249.5 -267q-59 -100 -74 -199q-6 -38 -6 -75q0 -64 20 -124q42 -109 136 -164q46 -27 102 -36q25 -3 12 30q-8 14 -21.5 26t-25.5 13q-44 9 -71 27q-50 27 -68 84q-18 46 -18 101q0 32 6 67q15 90 71 190
q83 141 244 261.5t345.5 193.5t361.5 96q70 9 131 9q80 0 147 -15q106 -25 144 -84q30 -45 30 -112q0 -87 -51 -212q-112 -255 -336 -604q-461 -157 -899 -319q-160 -60 -250.5 -128t-120 -144.5t-31.5 -170.5zM100 194q13 137 117 226q90 76 266 141q412 152 770 277
q-183 -272 -387 -528t-377 -429q-161 -161 -249 -215q-73 -45 -95 -45q-6 0 -8 2q-1 1 -4 37q-2 91 -20 283q-15 132 -15 206q0 26 2 45z" />
    <glyph glyph-name="K" unicode="K" horiz-adv-x="2334" 
d="M-242 1397q-14 -14 15 -47q33 -29 45 -17q99 102 286.5 190t387.5 126q114 25 221 25q45 0 89 -4q148 -14 228 -85q52 -45 52 -129q0 -180 -240 -536q-60 -86 -86 -121q-45 -35 -91 -83.5t-78 -92.5t-59.5 -87t-40.5 -66.5t-16 -31.5q-195 -228 -459 -506q-6 -6 -1 -20.5
t18 -26.5q12 -14 25 -18.5t18 2.5q246 255 460 506v2q18 21 53 59.5t153.5 152.5t248.5 222q116 -3 203 -139q147 -222 250.5 -333.5t220.5 -145.5q40 -12 82 -12q43 1 89 13q90 24 232 122t346 286q6 6 3 20t-15 27q-31 31 -47 19q-199 -184 -337 -282q-137 -98 -222 -122
q-45 -13 -87 -13q-38 0 -73 11q-89 26 -175 122t-218 294q-87 136 -195 180q549 438 1156 682q521 209 695 209q69 0 83 -33q3 -9 3 -20q0 -28 -18 -74l-4 -6q-3 -9 4.5 -23.5t20.5 -27.5q14 -11 26 -13t15 7l4 6q0 1 4 12t5.5 16t4.5 17.5t3.5 21t0.5 20.5t-2.5 23.5
t-7.5 22.5q-14 34 -44 57t-96 33q-30 5 -66 5q-43 0 -95 -7q-94 -12 -246 -56.5t-344 -121.5q-651 -260 -1220 -736h-13q224 339 225 547q0 130 -89 209q-66 58 -166 88q-94 28 -195 27h-14q-109 -2 -230 -23q-204 -40 -394.5 -129.5t-291.5 -193.5z" />
    <glyph glyph-name="L" unicode="L" horiz-adv-x="1480" 
d="M-77.5 1019q-4.5 -9 1.5 -24q8 -14 21.5 -26t25.5 -15q215 -44 407 -44q225 0 417 61q-340 -424 -701 -776q-54 -51 -54 -97q0 -34 30 -65q16 -17 43 -28.5t71 -18t82 -10.5q28 -3 72 -3q17 1 35 1q69 2 114 2.5t133.5 7t135 10.5t147.5 12q176 15 271 22q96 8 254 18
q125 8 209 7q22 -1 41 -1q92 -2 193.5 -9.5t154 -31t65.5 -60.5q4 -14 17 -27t26 -18q12 -5 18 2t2 20q-62 172 -501 188q-41 2 -91 2q-232 0 -644 -35h-1h-1h-1h-1h-1h-1l-1 -1h-1h-1h-1h-1h-1h-1h-1h-1h-1h-1h-1l-1 -1h-1h-1h-1h-1h-1h-1h-1h-1h-1h-1h-1l-1 -1h-1h-1h-1
h-1h-1h-1h-1h-1h-1h-1l-1 -1h-1h-1h-1h-1h-1h-1h-1h-1h-1h-1h-1l-1 -1h-2h-1h-1h-2q-180 -16 -278 -24q-99 -6 -220 -12q-58 -3 -102 -3q-48 0 -81 3q-62 6 -79 24q-3 1 10 15.5t48 49.5q182 177 395.5 416t406.5 491q286 147 453 443q115 205 148 409q12 64 12 111
q0 62 -20 98q-14 25 -32 25q-11 0 -24 -10q-9 -6 -18 -31q-119 -353 -488 -860q-78 -106 -88 -119q-246 -123 -559 -123q-189 0 -403 45q-12 2 -16.5 -7zM1114 1249q243 343 359 604q-38 -154 -125 -313q-97 -171 -234 -291zM1544 2032q5 13 8 16q5 4 3 1q-1 -3 -11 -17z
" />
    <glyph glyph-name="M" unicode="M" horiz-adv-x="2048" 
d="M49 1133q-1 -12 -1 -24q0 -58 24 -105q19 -33 47 -37q11 -2 13 7.5t-5 24.5q-12 20 -12 55q0 13 2 29q12 118 123 258t245 213q92 50 169 50q14 0 28 -2q9 0 12 -3q13 -11 13 -57q0 -42 -11 -115q-23 -157 -106 -393q-81 -232 -199 -475q-129 -167 -217 -295
q-79 -114 -119 -182q-38 -64 -38 -98q0 -36 44 -36q13 0 29 3q17 4 37 22q61 53 148.5 194t179.5 331q213 276 414 500.5t315 295.5q57 37 73 37q4 0 5 -2q16 -24 16 -92q0 -71 -10 -141q-8 -66 -25 -174q-9 -59 -12.5 -86.5t-8.5 -76.5q-4 -41 -4 -66v-10q1 -27 4.5 -60
t15 -54t28.5 -34q20 -13 34 -13q44 3 181 156q116 130 303 377q27 37 57 75q-57 -184 -90 -348t-40 -322q-1 -32 -1 -62q0 -120 22 -218q28 -122 100 -215.5t189 -136.5q13 -4 19.5 2t1.5 20t-17.5 28t-25.5 18q-76 28 -126.5 87.5t-74.5 141t-28 187.5q-1 23 0 46
q0 84 10 174q14 116 45 248t71 262t91 269l16 45q284 404 482 747q194 336 194 452q0 45 -19 68q-18 21 -51 19t-112.5 -110.5t-176.5 -286.5q-216 -391 -383 -830q-113 -163 -217 -299q-183 -243 -301 -375q-107 -120 -145 -141q2 36 37 272q17 118 25 186q5 49 6 106
q0 23 -1 47q-3 84 -28 124q-38 60 -94 59q-41 0 -93 -32q-166 -106 -534 -551q37 88 63 168q86 239 109 397q7 50 8 92q0 128 -67 181q-27 21 -60 24q-15 2 -30 2q-87 0 -185 -53q-143 -74 -252 -219q-114 -143 -129 -270zM2165 1749q103 226 219 436q129 235 213 338
q-70 -232 -432 -774z" />
    <glyph glyph-name="N" unicode="N" horiz-adv-x="1691" 
d="M-561 1585q-5 -8 1 -22.5t19 -26.5q12 -12 25.5 -16t17.5 2q2 5 9 12.5t8 9.5q57 69 156.5 140t213.5 112q125 44 233 44q148 0 265 -83q16 -10 29 -20q50 -41 68 -117q13 -54 13 -114q-1 -24 -3 -50q-8 -88 -39 -205t-67.5 -218t-90.5 -224.5t-93 -204.5t-89.5 -177
t-65 -122.5t-34.5 -60.5l-1 -2q-5 -8 1.5 -22.5t19.5 -26.5q14 -12 26 -15t17 4q367 514 727 919q596 672 865 672h5q42 -1 76 -20q17 -9 17 -44q0 -64 -59 -217q-36 -91 -155 -362q-45 -101 -70 -157.5t-65.5 -155.5t-61 -160.5t-46 -150t-31 -147t-5.5 -129t18.5 -119.5
t53.5 -95t89 -77q14 -8 21.5 -5t6.5 15q-2 12 -13 27t-24 22q-51 29 -73 81q-18 42 -18 96q0 13 2 27q6 72 24.5 150.5t57 177.5t77 187.5t88.5 197.5q42 91 62 136q64 144 104.5 256t63.5 220q13 61 13 112q0 37 -8 69q-18 74 -77 107q-44 24 -99 24q-59 0 -130 -27
q-139 -52 -286 -166.5t-316.5 -285.5t-307.5 -333t-272 -335q219 490 219 777q0 215 -123 315q-6 4 -18.5 13t-18.5 13q-143 101 -313 101q-114 0 -240 -45q-119 -43 -221.5 -115.5t-159.5 -142.5q-15 -20 -18 -23z" />
    <glyph glyph-name="O" unicode="O" horiz-adv-x="1929" 
d="M-625 1133q-6 -7 3.5 -35.5t21.5 -40.5q12 -13 25.5 -18t19.5 1q130 154 331.5 282t428.5 210t469 124q212 37 406 37q28 0 55 -1q158 -6 284 -35q-247 -47 -454 -141q-582 -256 -824 -828q-73 -169 -73 -304q0 -118 55 -210q80 -131 246 -184q92 -30 208 -30q57 0 119 7
q138 16 284 64.5t289.5 127t273.5 195.5t220 256q97 149 141 292q41 133 41 237q-1 8 -1 16q-4 110 -41 205q-66 159 -232 258q142 16 285 16t245 -10t177 -27q12 -1 16 7t-2 22q-6 15 -19.5 27.5t-25.5 15.5q-87 17 -201 27q-91 8 -213 8h-64q-164 -2 -323 -25
q-100 40 -231.5 67.5t-253.5 31.5q-33 1 -66 1q-192 -1 -396 -35q-240 -40 -466 -120.5t-426.5 -207.5t-331.5 -283zM176 176q-42 70 -41 164q0 124 70 291q240 560 813 817q255 112 563 158q12 -3 21 -9q178 -79 239 -221q31 -75 31 -163q0 -223 -197 -529
q-117 -182 -294.5 -324.5t-363 -221.5t-366.5 -101q-60 -6 -114 -6q-110 0 -193 26q-120 40 -168 119z" />
    <glyph glyph-name="P" unicode="P" horiz-adv-x="1587" 
d="M-731 1012q0 -103 57 -199q83 -128 248 -205q14 -6 22 0t5 19q-3 12 -15.5 26.5t-25.5 20.5q-131 60 -183 143q-41 64 -41 150q0 82 43 176q45 97 130.5 187t193.5 157q224 142 519.5 222t592.5 91q50 2 98 2q240 0 435 -46q234 -55 333 -169q73 -85 82 -186q2 -19 2 -37
q0 -101 -55 -203q-65 -124 -190 -231q-143 -125 -342.5 -211.5t-417.5 -112.5q115 173 278 432q17 -24 31 -49q25 -37 47 -37q12 -1 14 8.5t-6 24.5q-27 55 -61 92q121 198 121 201q10 18 -19 47q-12 12 -25 16.5t-18 -2.5l-104 -129q-7 -10 6 -32l-25 -39q-63 49 -138 49
q-70 0 -150 -43q-111 -60 -228 -196t-223 -312q-29 12 -57 29q-62 33 -90 75l-2 2q-30 49 -33 95q-1 12 -1 24q0 54 23 96q4 7 -2 22.5t-18 27.5q-13 12 -26 15t-17 -5q-28 -56 -28 -114q0 -13 1 -27q10 -75 53 -144h3q55 -81 145 -129q4 -2 11 -6t11 -6q-3 -5 -8 -15.5
t-8 -15.5q-103 -185 -163 -353q-53 -147 -53 -224q0 -11 1 -21q6 -55 30 -81q21 -22 58 -22q6 0 12 1q159 18 603 663q50 4 77 8q226 23 435.5 112t361.5 220q133 117 195 238q59 110 59 221q0 19 -2 39q-16 135 -117 250q-119 136 -373 203q-215 57 -475 57q-46 0 -94 -2
q-302 -11 -600 -92t-524 -224q-110 -68 -197.5 -161t-134.5 -193q-47 -99 -47 -188zM68 -66v7q0 75 56 227q60 158 157 334q5 10 16 29.5t16 29.5q119 -39 285 -39q-385 -554 -530 -588zM346 612q99 161 208 284t212 179q72 40 131 40q41 0 76 -19q-161 -260 -324 -500
q-49 -3 -94 -3q-113 0 -209 19z" />
    <glyph glyph-name="Q" unicode="Q" horiz-adv-x="1853" 
d="M-654 1128.5q5 -14.5 17 -26.5q12 -13 25.5 -18t19.5 1q130 154 331.5 282t428.5 209.5t468 123.5q211 38 405 38q28 0 55 -1q160 -6 286 -35q-247 -47 -454 -141q-581 -256 -824 -828q-73 -169 -73 -304q0 -117 55 -210q80 -131 246 -184q69 -22 162 -29
q-65 -20 -123 -41t-85.5 -32.5t-27.5 -12.5q-9 -3 -7.5 -15.5t13.5 -27.5q27 -34 47 -24l4 2q299 121 621 179q209 37 386 37q315 0 529 -118q14 -8 22 -5t7 15q-1 13 -12 27t-25 22q-231 128 -569 128q-100 0 -209 -11q190 87 355.5 224.5t281.5 316.5q199 308 199 547
q0 100 -35 188q-66 159 -232 258q142 16 285 16t245 -10t177 -27q12 -1 16 7t-2 22q-6 15 -19.5 27.5t-25.5 15.5q-89 17 -202 27q-90 8 -212 8q-31 0 -64 -1q-164 -2 -323 -24q-192 76 -452 82q-31 1 -63 1q-194 0 -404 -37q-244 -42 -473.5 -124t-434 -211t-335.5 -286
q-6 -6 -1 -20.5zM139 221q-42 70 -42 164q0 124 71 291q241 562 813 817q255 112 563 158q12 -3 21 -9q178 -79 239 -221q30 -74 30 -161q0 -223 -196 -531q-89 -138 -213 -254.5t-260 -196t-277 -130t-274 -66.5q-60 -6 -114 -6q-110 0 -193 26q-120 38 -168 119z" />
    <glyph glyph-name="R" unicode="R" horiz-adv-x="2048" 
d="M-678 1103q-3 -27 -4 -54q0 -65 18 -125q26 -86 103.5 -167t200.5 -139q13 -6 20 -0.5t4 19.5q-3 12 -15.5 26.5t-25.5 20.5q-91 43 -145 100q-56 58 -70 120q-8 35 -8 72q0 28 5 58q11 68 46.5 133t85.5 127t109.5 113.5t122.5 91.5q105 66 267.5 126.5t351.5 106.5
q189 48 393 68q147 15 282 14q53 0 105 -2q182 -8 337 -62.5t240 -152.5q64 -75 88 -165q15 -58 15 -115q0 -33 -4 -65q-14 -90 -60 -177q-77 -147 -219 -251q-143 -104 -305 -150q-153 -44 -311 -43h-21h-8q-12 4 -19 4q-10 0 -10.5 -11.5t8.5 -25.5q0 -2 14.5 -21.5
t55 -59t101 -88.5t165 -113.5t234 -130t321 -142t412.5 -145.5q12 -3 17 4t-1 20q-4 14 -17 27t-26 18q-231 72 -427 150t-319 140.5t-221.5 126t-145.5 103t-79 74.5h20q120 1 239 23q129 24 251 74t223 135.5t160 197.5q57 116 56 239q0 44 -6 88q-28 168 -146 304
q-93 108 -260 172q-168 65 -362 81q-102 8 -210 8q-98 -1 -202 -7q-218 -14 -419 -56.5t-375 -103.5t-286 -131q-94 -59 -167.5 -137t-120 -165t-56.5 -180zM66 -27q6 -55 32 -81q22 -22 58 -22q6 0 12 1q40 5 100.5 52.5t126.5 120.5t145.5 175.5t152 205t152 221.5
t139.5 212.5t120 190.5q14 -20 31 -50q18 -32 47 -36q10 -1 13 9t-5 23q-23 42 -62 95q32 51 62.5 101.5t44 73t14.5 23.5q5 8 -0.5 21.5t-17.5 25.5q-33 30 -45 15l-103 -129q-9 -9 4 -33l-22 -39q-65 49 -141 49q-71 0 -150 -43q-122 -67 -252 -226t-241 -358
q-103 -187 -163 -354q-53 -145 -53 -223q0 -11 1 -21zM131 -55v7q0 76 57 227q60 158 158 333q108 197 235.5 353.5t247.5 221.5q73 38 132 38q42 0 77 -19q-110 -177 -220.5 -345t-247.5 -359.5t-254 -315.5t-185 -141z" />
    <glyph glyph-name="S" unicode="S" horiz-adv-x="1572" 
d="M18 -148q42 -60 108 -95.5t144 -52.5q64 -14 128 -14q15 0 30 1q231 4 476 144q216 123 342 294q109 149 109 282q0 40 -10 80q-36 141 -204 236q-19 11 -43 22.5t-40 18.5t-50 20t-42.5 16.5t-51.5 19t-46 16.5q-65 22 -102 35.5t-91.5 36.5t-87.5 43.5t-63.5 48.5
t-44.5 59q-17 37 -18 75q0 3 -1 5q0 35 13 67q13 34 37.5 70t55.5 67t69 61.5t75 55t77 48t71 39.5t60 30q103 48 232.5 91t282.5 75t297 44q56 5 112 5q86 0 172 -12q140 -19 237 -74q71 -44 94 -86q20 -31 20 -64q0 -9 -2 -18q-4 -26 -16 -35q-6 -6 -2 -20.5t16 -26.5
q12 -13 25.5 -18.5t19.5 0.5q19 16 25 51q1 9 1 18q0 55 -36 113q-48 84 -153 145q-128 73 -318 93q-83 9 -167 10q-108 0 -217 -16q-194 -26 -373.5 -75.5t-317.5 -113.5q-46 -21 -92.5 -47.5t-100 -63.5t-99 -77t-83.5 -89t-59 -98q-22 -50 -22 -107v-2q0 -56 26 -110
q16 -35 41.5 -66t50.5 -54t66.5 -47.5t68.5 -38.5t80.5 -35t79 -30t84.5 -30q188 -66 258 -104q131 -74 131 -195q0 -36 -11 -75q-42 -148 -225 -304q-188 -159 -417 -240q-142 -50 -265 -53q-13 -1 -26 -1q-30 0 -62 4q-48 4 -103 17t-91 44.5t-37 77.5v3q0 141 244 337
q7 5 3 19t-16 26q-12 14 -25.5 20t-19.5 0q-254 -203 -254 -358q0 -77 43 -138z" />
    <glyph glyph-name="T" unicode="T" horiz-adv-x="1097" 
d="M-454.5 1560.5q0.5 -11.5 10.5 -26.5q9 -13 23.5 -23t23.5 -8q480 95 1419 123q-985 -1556 -985 -1683q0 -6 2 -9q20 -23 47.5 -25t52.5 11.5t47.5 30t35.5 31.5l14 14q6 6 0.5 20.5t-17.5 26.5q-12 13 -25.5 17.5t-19.5 -1.5q-6 -7 -16 -17.5t-30 -33.5q-21 -24 -36 -38
q-16 -16 -16 -12q0 34 1050 1672q105 2 301.5 6.5t258.5 5.5q676 18 905 27q-6 -12 12 -37q10 -13 24 -20t23 -4l168 73q8 1 8 12t-8 23q-9 15 -23 25.5t-24 9.5q-455 -23 -1129 -37q-78 -2 -234 -5.5t-234 -4.5l36 55q9 16 -20 49q-33 29 -43 13l-78 -121
q-1004 -28 -1515 -125q-9 -3 -8.5 -14.5z" />
    <glyph glyph-name="U" unicode="U" horiz-adv-x="1349" 
d="M-758 1331q-3 -9 4.5 -24t20.5 -25q13 -12 25.5 -13.5t15.5 7.5q47 132 285 254q224 115 492 165q126 24 217 24q93 0 149 -25q59 -26 59 -78q-1 -44 -19.5 -100t-64 -140t-79 -141t-105.5 -174q-10 -18 -31 -52t-31 -51q-160 -263 -180 -479q-2 -22 -2 -42
q0 -91 33 -156q43 -91 123 -123q44 -18 93 -18q40 0 85 12q242 62 747 596q-200 -367 -200 -589q0 -138 77 -220q12 -12 25.5 -17.5t19.5 0.5t1 20.5t-17 26.5q-55 58 -55 161t40.5 219t115.5 258t154.5 265.5t174.5 255.5q188 229 338 439q6 7 0.5 22t-18.5 27
q-29 28 -43 14l-20 -20q-20 -20 -56 -57.5t-79 -85t-96.5 -114t-99.5 -132.5q-70 -86 -112 -136.5t-137 -160.5t-164 -184t-167.5 -172.5t-174.5 -162t-158.5 -116t-144.5 -68.5q-46 -11 -82 -11q-84 0 -113 60q-22 48 -22 116q0 21 2 44q16 209 176 467q13 24 61 102
q62 103 86.5 143.5t69.5 121t63.5 123t34.5 94.5t16 92q0 150 -175 202q-85 26 -193 26q-116 0 -259 -30q-273 -56 -475 -183q-191 -120 -231 -257z" />
    <glyph glyph-name="V" unicode="V" horiz-adv-x="1275" 
d="M-719 1305q-5 -9 5.5 -32.5t23.5 -35.5q14 -12 26 -14.5t15 6.5q53 113 183 217.5t285.5 173.5t309.5 98q57 12 117 16q18 1 38 1q45 1 97 -7q74 -10 104 -45q23 -26 23 -72q0 -42 -19 -100q-36 -110 -165 -458q-52 -139 -73 -197t-65 -180.5t-63 -188t-42.5 -153
t-29.5 -145.5q-3 -29 -3 -54t3 -45q17 -130 118 -130q10 0 21 1q4 1 13.5 3t13.5 3q127 41 378.5 256t463.5 492q156 204 269 421q112 216 170 442q40 157 39 294q0 59 -7 115q-8 53 -27 114q-10 29 -41 45q-13 4 -19.5 -2t-2.5 -20q17 -55 22 -101q6 -48 6 -98
q0 -90 -20 -191q-32 -157 -105 -317.5t-167.5 -315t-212.5 -308.5q-217 -285 -448.5 -501.5t-348.5 -254.5q-16 -4 -23 -4q-23 -3 -26 20q-2 13 -2 29q0 40 11 98q15 81 36 159t66.5 211t74.5 212t86 233q133 361 166 461q18 56 19 105q0 85 -56 149q-72 84 -204 110
q-71 14 -138 14q-58 0 -113 -11q-154 -30 -312 -105.5t-286.5 -185.5t-183.5 -227z" />
    <glyph glyph-name="W" unicode="W" horiz-adv-x="1853" 
d="M-395 1174q-3 -9 5 -24.5t21 -25.5q13 -12 24.5 -12.5t14.5 8.5q29 110 116.5 213.5t190.5 153.5q39 19 79 29q24 6 51 5q16 0 33 -2q44 -6 75 -34q17 -15 23 -45q3 -14 3 -32q-1 -22 -5 -52q-8 -53 -16 -96t-31.5 -124t-36.5 -123t-43 -134q-21 -67 -30 -95t-26.5 -87
t-23 -88t-15.5 -76q-8 -41 -8 -66v-8q2 -27 5.5 -59t16 -53t31.5 -36q20 -15 46 -15.5t55.5 13.5t61.5 36.5t67 55.5t68.5 69t69.5 79t67 82.5t63 83.5q-38 -121 -68 -235t-53.5 -248t-25.5 -238q0 -9 -1 -17q-1 -94 25 -170q28 -83 88 -112q40 -20 80 -20q10 0 19 1
q150 17 364 291q142 185 289 457q59 -44 131 -56q35 -6 69 -6q35 0 69 7q66 13 132 45q78 40 144.5 99t103.5 103q5 6 0 20.5t-18 27.5q-12 13 -25.5 17.5t-17.5 -1.5q-29 -33 -98 -85.5t-146 -92.5q-37 -19 -76 -32.5t-83 -22.5q-30 -6 -60 -7q-13 0 -27 2q-43 4 -76 23
q70 136 70 137q211 428 340 850q108 354 108 565q0 41 -4 76q-17 133 -86 180q-21 13 -43 13q-44 0 -94 -50q-65 -68 -137 -200q-102 -186 -190 -432t-132 -502q-25 -145 -25 -258q0 -86 15 -152q29 -123 86 -198l6 -9q-137 -255 -286 -454q-206 -266 -349 -283
q-9 -1 -19 -1q-24 0 -48 9q-30 14 -44 58q-13 41 -13 98v8q1 62 12.5 140.5t31 162t43.5 172t50 169.5t50.5 154t43.5 126t31 86l12 33q3 9 -2.5 23t-17.5 24q-12 13 -25.5 16.5t-17.5 -4.5l-14 -22q-14 -21 -37 -56.5t-55 -83t-69 -99t-77.5 -105.5t-80.5 -103t-79.5 -90.5
t-73.5 -68t-62 -36.5t-46 4q-8 6 -9 25.5t6.5 56.5t16 71.5t26.5 95t30.5 100.5t35.5 112q19 59 27.5 86.5t25.5 83.5t24 86t19 80t16 80t8 71q2 22 2 40q0 16 -2 28q-4 28 -10 58t-20 52.5t-33 39.5q-69 62 -156 76q-23 4 -45 3q-63 0 -124 -28q-103 -50 -186.5 -167
t-114.5 -238zM1186 662q-15 65 -15 149q1 109 25 249q44 250 130 491.5t187 424.5q77 138 134 195q47 47 69 47q5 0 8 -2q10 -3 19 -84q4 -35 4 -75q0 -206 -108 -556q-129 -418 -339 -839q-33 -74 -65 -134q-32 53 -49 134z" />
    <glyph glyph-name="X" unicode="X" horiz-adv-x="1161" 
d="M-973 -647q-5 -8 1.5 -22.5t19.5 -26.5q12 -12 25 -16t18 3q292 459 991 1008q264 204 545 399q-20 -194 -20 -346q0 -352 110 -475q69 -79 163 -113q73 -26 147 -25q22 0 44 2q97 10 197 42t187 80t154.5 93.5t105.5 80t34 41.5q7 5 3.5 18t-15.5 27t-25.5 20t-19.5 0
q-3 -3 -39.5 -29t-104.5 -68.5t-149 -87t-175 -80.5q-92 -36 -178 -52q-41 -8 -81 -7q-43 0 -85 9q-80 18 -130 76q-88 98 -88 385q0 189 38 459q491 333 1012 626q12 -18 14 -20q13 -13 26.5 -18t19.5 1l6 7q101 130 101 172q0 19 -22 19h-3q-34 -2 -107 -42
q-519 -286 -1030 -629q31 196 76.5 409t74.5 329t31 118q2 9 -7 24.5t-22 27.5q-12 11 -24 11.5t-15 -9.5l-7 -28q-7 -28 -19.5 -79.5t-28.5 -119t-34 -154.5t-35.5 -178t-35 -197t-30.5 -205q-313 -209 -616 -448q-703 -550 -998 -1012z" />
    <glyph glyph-name="Y" unicode="Y" horiz-adv-x="1810" 
d="M-481 1329q-5 -8 1 -22.5t19 -26.5q13 -13 44.5 -26.5t37.5 -6.5q74 108 210 194.5t291 136.5t314 72q111 16 210 16q43 0 85 -3q132 -10 156 -37q1 -1 0 -1t-1.5 -1t-0.5 -2q-2 -28 -17 -65.5t-51.5 -101t-57 -96t-75.5 -120.5q-60 -93 -93 -147t-77 -132.5t-65.5 -138
t-24.5 -106.5v-17q0 -158 182 -168q8 -1 16 -1q39 0 83 12q53 14 115 47.5t116 66.5t128 92.5t122 98.5t127 112t115 107t112 106q172 164 209 195q-25 -74 -88 -219q-91 -209 -170 -367q-356 -148 -678.5 -344t-521.5 -399q-50 -51 -96 -110.5t-89 -137.5t-66 -153
q-18 -59 -18 -121q0 -16 1 -33q6 -80 49 -144q57 -81 164 -129l2 -2q4 -1 13 -4t13 -4q36 -12 75 -12q53 0 111 23q101 38 206 133.5t206.5 221t208.5 288.5q249 380 481 862q113 45 189 69q9 3 8 16t-12 27q-10 13 -24.5 21.5t-22.5 5.5q-13 -4 -26.5 -8.5t-30.5 -11
t-27 -9.5q60 129 118 265q82 187 109 272q8 25 8 45q0 52 -55 70q-2 1 -4 1q-47 0 -283 -226q-12 -11 -18 -17q-258 -247 -368 -342q-363 -313 -544 -313h-12q-65 5 -65 79v9q3 44 23.5 100.5t65 136.5t73.5 127t91 146q71 111 103 162.5t66.5 123t37.5 111.5v6q0 37 -34 74
q-62 69 -226 78q-41 3 -85 3q-99 0 -217 -16q-170 -22 -338 -70.5t-314.5 -133t-218.5 -187.5zM90 -556q-1 3 -1 7q0 52 22 107q23 58 54.5 114.5t76 113t78 95t67.5 74.5q192 195 468 382t579 325q-213 -425 -426 -748q-105 -160 -203.5 -283t-198.5 -217t-194 -133
q-58 -24 -110 -24q-33 0 -64 10q-15 5 -19 6l-2 2q-70 30 -98 72t-29 97zM1808 1407q4 4 4 0l6 -1q-2 0 -10 1z" />
    <glyph glyph-name="Z" unicode="Z" horiz-adv-x="1609" 
d="M-8 0q-12 -12 22 -47q30 -26 47 -23q50 5 147.5 13t329.5 23q234 14 458 22q163 6 349 6q70 0 143 -1q268 -3 475 -22.5t366 -67.5t202 -122q7 -13 23.5 -26.5t30.5 -18.5q15 -4 19.5 1t-3.5 19q-46 81 -178.5 140t-304 91t-398.5 49q-226 17 -432 19q-48 0 -99 1
q-162 0 -339 -6q-232 -6 -383 -14.5t-297 -19.5q366 287 793 658l393 26q16 0 6 19q-4 8 -12 16q-12 15 -29 25.5t-27 9.5l-245 -18q165 146 296.5 272.5t239 244t157.5 201.5q34 58 34 94q0 16 -7 27q-16 27 -38 48.5t-54 37.5t-61.5 28t-77 19t-84 12t-98.5 6t-104 1
t-117.5 -3.5t-122 -6t-133.5 -7.5q-447 -24 -684 -24h-64q-7 0 -9.5 -5t0.5 -13t11 -17q12 -15 29 -26t28 -11h36q250 0 714 25q193 12 293 16q80 3 171 3h46q118 -1 176 -16.5t76 -45.5q5 -8 5 -19q0 -26 -26 -70q-37 -63 -111 -146t-184 -190.5t-229 -215t-258 -226.5
l-567 -20q-17 0 -5 -23l9 -14q35 -35 57 -35l416 17q-84 -72 -175 -148t-168 -139.5t-151 -123.5t-131.5 -106t-101 -81t-66.5 -54z" />
    <glyph glyph-name="bracketleft" unicode="[" horiz-adv-x="694" 
d="M39 297q-4 -7 2 -22t18 -27q20 -17 35 -17l166 9q11 2 12 12t-8 24q-9 15 -22.5 25t-24.5 10l-76 -4l430 770h177q11 0 12 11t-8 26q-9 14 -23 24.5t-24 10.5h-183q-10 0 -10 -6z" />
    <glyph glyph-name="backslash" unicode="\" horiz-adv-x="727" 
d="M28 1233.5q-3 -9.5 5 -23.5l489 -989q8 -14 21.5 -26t23.5 -13q12 -2 15.5 8t-4.5 25l-490 989q-6 13 -20 25t-25 14q-12 0 -15 -9.5z" />
    <glyph glyph-name="bracketright" unicode="]" horiz-adv-x="743" 
d="M-172 275q-1 -10 8 -25t22.5 -25t24.5 -10h183q10 0 10 6l473 846q10 16 -21 47q-19 19 -34 16l-166 -8q-11 0 -12 -11t8 -26q24 -35 47 -32l75 4l-430 -772h-176q-11 0 -12 -10z" />
    <glyph glyph-name="asciicircum" unicode="^" horiz-adv-x="651" 
d="M35.5 1086q4.5 -14 17.5 -27q12 -12 25 -17.5t18 0.5l295 310l55 -234q3 -12 15 -26.5t24 -20.5q13 -6 21.5 -1t5.5 17l-78 326q-3 16 -18 31q-12 13 -25.5 17.5t-19.5 -1.5l-334 -354q-6 -6 -1.5 -20z" />
    <glyph glyph-name="underscore" unicode="_" horiz-adv-x="759" 
d="M37.5 293q1.5 -8 7.5 -17q7 -15 21.5 -25.5t25.5 -10.5h430q10 0 12 10.5t-6 25.5q-9 14 -23 24.5t-24 10.5h-432q-7 0 -10 -5t-1.5 -13z" />
    <glyph glyph-name="grave" unicode="`" horiz-adv-x="368" 
d="M104 1296q-13 -16 17 -49q12 -12 25.5 -16.5t19.5 2.5q37 42 37 98q0 21 -8 45q-9 30 -31 49q-1 1 -3 3.5t-3 3.5q-19 16 -37 16q-11 0 -12 -10t8 -25q4 -8 16 -20q2 -6 2 -19q0 -42 -31 -78z" />
    <glyph glyph-name="a" unicode="a" 
d="M-106 465q-1 -8 -1 -15q0 -38 25 -71q25 -25 41 -31q9 -4 20 -4q25 0 59 22q48 32 116 95q0 -74 46 -96q17 -8 37 -8q35 0 80 24q38 20 96.5 68.5t174.5 152.5q17 17 -6 43q-20 19 -41 -2q-1 0 -14 -11q-214 -172 -255 -172q-9 0 -10 7q-3 14 -3 30q0 40 20 91
q9 15 -17 45q-13 13 -26 17.5t-19 -1.5q-8 -9 -21 -23.5t-48.5 -53t-67 -69t-66.5 -58t-55 -33.5q35 144 141 229q21 17 54 32.5t68.5 20.5t56.5 -14q6 -13 19.5 -25.5t25.5 -15.5t16 5.5t-2 23.5q-16 58 -70 80q-34 14 -73 14q-21 0 -43 -4q-62 -12 -109 -51
q-80 -65 -127 -164q-19 -43 -22 -78z" />
    <glyph glyph-name="b" unicode="b" horiz-adv-x="526" 
d="M-225 303q-5 -8 1 -22.5t19 -26.5q12 -12 24.5 -16t16.5 2q1 0 22.5 24t65 70.5t86.5 89.5q34 -115 137 -115q27 0 58 8q63 14 121 93.5t86 167.5q12 48 12 76v8q0 58 -45 94l-2 2q-21 15 -46 15q-21 0 -46 -11q-84 -37 -236 -178l459 741q10 17 -21 49q-33 29 -43 12z
M63 477q180 172 277 217q3 1 9 4t9 4q-4 -37 -14 -69q-24 -82 -77.5 -157t-110.5 -89q-26 -8 -43 -0.5t-27 17t-15 26t-6.5 27t-1.5 20.5zM367 705l4 2v-2h-4z" />
    <glyph glyph-name="c" unicode="c" horiz-adv-x="509" 
d="M-98 469v-6q0 -68 61 -125q22 -20 56 -24q9 -1 18 0q27 0 55 7q38 10 82 29t87.5 44.5t85 52.5t77.5 53.5t62.5 47t42.5 33.5l16 13q14 14 -15 47q-8 2 -23.5 -10.5t-17.5 -12.5l-24 -17q-24 -17 -62 -43.5t-87 -57.5t-99 -59t-97.5 -48t-82.5 -24.5t-55 10.5
q-15 15 -15 45q3 38 25 80q25 45 61 84q47 53 102 90q52 35 82 35h3q4 0 -2.5 -18t-15 -36t-9.5 -18q-3 -8 4.5 -22.5t20.5 -26.5q12 -12 24 -14.5t17 6.5q2 4 5 11t9.5 27.5t9 39t0.5 41t-12 39.5t-33 29t-59 13h-3q-34 0 -92 -37q-60 -39 -112 -96q-46 -54 -64 -88
q-26 -50 -26 -94z" />
    <glyph glyph-name="d" unicode="d" horiz-adv-x="636" 
d="M-100 455v-9q0 -48 28 -68q24 -17 55 -18q9 0 18 2q41 6 79 29q67 44 190 148l2 4q25 -14 29 4l1 3q0 4 0.5 9.5t0.5 11.5q52 47 117 115q-511 -844 -511 -947q0 -6 1 -9q4 -15 17.5 -27.5t25.5 -15.5t17 4t-1 22q-1 2 0 5q0 35 98 215q108 196 288.5 489t304 490.5
t241.5 381.5l49 76q10 19 -20 49q-13 13 -26 17t-17 -4l-43 -66q-132 -207 -338 -453q-116 -137 -227 -243q-14 22 -24 34t-37 24q-25 12 -59 11h-5h-6q-54 -1 -110 -53q-58 -56 -99 -123q-36 -61 -39 -108zM-31 428q5 25 33 76q34 56 88 106q50 47 97 47h6q31 0 40 -30
l-22 -23q-115 -101 -188 -145q-37 -22 -54 -31z" />
    <glyph glyph-name="e" unicode="e" horiz-adv-x="493" 
d="M-72 553q-4 -18 -4 -35q0 -41 20 -80q28 -56 81 -86q32 -18 74 -18q27 0 58 8q79 19 158.5 63.5t142.5 97.5t85 91q9 17 -11 37q-14 10 -27 5.5t-18 -15.5q-28 -51 -152 -120q-148 -81 -252 -90q-10 -1 -19 -1q-77 0 -77 60q0 3 1 6q1 31 22 75q8 0 35.5 4.5t80 19.5
t95.5 37q72 37 113 113q18 35 20 57q1 6 1 13q0 32 -25 61q-22 25 -49 31q-4 1 -8 1q-40 0 -130 -63q-71 -52 -133 -120q-67 -77 -82 -152zM76 645q46 53 125 113q46 34 80 49q-2 -4 -5.5 -11.5t-5.5 -11.5q-43 -72 -102 -104q-65 -28 -92 -35z" />
    <glyph glyph-name="f" unicode="f" horiz-adv-x="395" 
d="M-418 -2q-17 -36 -17 -62q0 -43 42 -63l4 -2q4 -2 10 -2l2 -2h7q35 0 84 24q56 27 106 78q91 94 117 221q28 122 28 215q0 24 -2 46l14 18q37 -7 79 -9h14q39 0 90 7q62 8 134.5 39t143.5 84q7 5 3.5 18t-15.5 27q-5 6 -10.5 7t-8 0t-8.5 -6l-6 -5q-51 -38 -107.5 -62
t-102 -30.5t-91.5 -8.5q-20 -2 -37 -2q-21 0 -37 2q201 292 256 369q97 136 138 199q54 66 98.5 132t50.5 89q3 11 3 20q0 38 -48 52h-2q-15 3 -18 -9q-17 -17 -58 -84q-19 -31 -88 -139l-16 -16q-42 -54 -79 -89.5t-52 -35.5q-11 -2 -12 -12.5t8 -24.5q9 -13 16 -18l-2 -2
q-167 -236 -289 -416l-12 4h-2q-12 4 -18 -3.5t-1 -21.5q3 -6 5 -20q-148 -219 -232 -359q-58 -98 -82 -147zM-344 -43q27 56 72 127q82 135 161 254q-5 -35 -18 -96q-26 -117 -111 -209q-55 -55 -104 -76z" />
    <glyph glyph-name="g" unicode="g" horiz-adv-x="514" 
d="M-467 -43q-8 -24 -8 -48q0 -43 24 -85q31 -55 90 -89.5t128 -35.5q90 0 360 455q200 29 458 29q239 0 527 -25q12 0 14 9t-6 23q-18 35 -47 39q-292 25 -530 25q-203 0 -367 -18q56 99 113 202.5t87 160.5t30 58l2 2l22 39q3 8 -3 23.5t-19 26.5q-12 11 -24 14t-17 -4
q-31 -41 -76 -94q-37 46 -87 58q-19 6 -39 6q-29 0 -57 -12q-47 -18 -89.5 -52t-71.5 -79t-37 -87q-3 -18 -3 -33q0 -27 10 -43q16 -27 69 -39q6 -1 13 -1q35 0 101 31q79 38 125 87q-144 -258 -155 -277q-296 -46 -437 -145q-77 -55 -100 -121zM-401 -98q20 59 92 108
q108 78 327 125q-220 -364 -294 -364q-91 3 -121 51q-10 20 -10 43q0 17 6 37zM-10 485q32 63 103 120q66 52 112 52q20 0 36 -9q12 -7 21 -19q-36 -75 -126 -141q-85 -62 -130 -62h-4q-24 1 -24 21q0 15 12 38z" />
    <glyph glyph-name="h" unicode="h" horiz-adv-x="569" 
d="M-172 381q-5 -8 1 -22.5t19 -26.5q12 -12 24 -16.5t17 1.5l4 4q276 308 322 319q7 1 8 -5q1 -13 1 -71t8 -92t30 -58q17 -17 44 -17q30 0 73 22q81 42 231 181q15 15 -8 41q-4 4 -8 5.5t-7 1t-7 -3t-5.5 -3.5t-5.5 -5l-4 -5q-82 -77 -142.5 -120.5t-83.5 -51.5t-28 -2
q-2 133 -4 151q-7 84 -67 84t-172 -86l448 727q5 8 -1 22.5t-19 26.5q-12 12 -25 16t-18 -3z" />
    <glyph glyph-name="i" unicode="i" horiz-adv-x="337" 
d="M-57 383q16 -28 43.5 -35t60.5 3.5t70.5 32t73 49.5t69 56.5t58 53t40.5 39.5l15 16q5 5 7 8t0 10t-9 15q-16 17 -39 -6q0 -3 -59.5 -57t-137.5 -106q-71 -48 -108 -48h-7q-16 8 -16 29q0 26 23 71q32 61 79 121t84 92q7 6 3.5 19.5t-15.5 27.5t-25.5 19.5t-21.5 -0.5
q-38 -31 -87 -94t-81 -126q-36 -72 -36 -126q0 -36 16 -64zM197 915q-13 -16 16 -49q12 -12 25.5 -16.5t19.5 2.5l115 131q11 18 -17 49q-33 30 -45 15z" />
    <glyph glyph-name="j" unicode="j" horiz-adv-x="309" 
d="M-780 -43q-8 -24 -8 -48q0 -43 24 -85q31 -55 89.5 -89.5t127.5 -35.5q87 0 365 455q200 29 457 29q238 0 524 -25q12 0 14 9t-6 23q-18 35 -47 39q-294 25 -536 25q-195 0 -357 -16q58 98 118 205.5t91 166.5l30 58q10 19 -20 49q-14 12 -26 15.5t-17 -5.5
q-136 -256 -283 -504q-294 -42 -440 -145q-77 -55 -100 -121zM-715 -98q20 59 92 108q114 82 330 125q-224 -364 -297 -364q-91 3 -121 51q-10 20 -10 43q0 17 6 37zM94 913q-5 -8 1.5 -22.5t19.5 -26.5q12 -12 25 -15.5t18 3.5l75 133q4 7 -2 22t-18 27q-14 12 -26 15.5
t-17 -5.5z" />
    <glyph glyph-name="k" unicode="k" horiz-adv-x="634" 
d="M-242 315q-5 -8 1.5 -21.5t19.5 -25.5q11 -13 25 -17t18 3q0 3 30 46t93.5 122.5t132.5 150.5q0 -184 119 -237q17 -7 38 -7q29 0 67 13q66 23 124.5 62t123 92t90.5 77.5t38 36.5q13 13 -8 37q-16 17 -49 -16l-19 -15q-19 -16 -49.5 -39.5t-70.5 -51.5t-82 -54t-84 -46
t-76.5 -27t-59.5 3q-39 17 -39 102q0 59 19 150q179 161 332 219q8 3 5.5 16.5t-12.5 26.5q-11 14 -24.5 22t-22.5 5q-142 -53 -295 -186l392 610q4 7 -1.5 22t-17.5 27q-32 28 -45 12l-709 -1105z" />
    <glyph glyph-name="l" unicode="l" horiz-adv-x="569" 
d="M-205 123q24 -37 71 -45q18 -3 36 -3q28 0 54 7q44 12 87 35q92 46 319.5 231.5t264.5 249.5q3 5 -4 15.5t-19 17.5q-17 13 -29 -6q-37 -62 -256.5 -238t-312.5 -225q-14 -7 -37.5 -15t-53 -12t-36.5 10q-5 11 -5 28q0 53 48 169q64 154 184 360h9l4 3q312 242 507 452
q122 132 169 225q39 74 39 124q0 14 -3 26q-15 50 -69 65q-13 5 -29.5 5t-36.5 -5q-49 -14 -108 -61t-107 -115q-5 -1 -65.5 -86t-147.5 -214.5t-182 -286.5t-171 -300q-77 -142 -113 -256q-20 -64 -20 -105q0 -32 13 -50zM207 866q74 120 157 248t129 196l46 68
q48 67 104 112.5t102 59.5q20 4 27 4q2 -8 2 -17q0 -42 -37 -114q-102 -202 -530 -557z" />
    <glyph glyph-name="m" unicode="m" horiz-adv-x="694" 
d="M-162 393q-4 -7 2.5 -22t18.5 -27q30 -26 41 -12l4 4q235 284 357 371q37 26 46 26q2 0 -27 -65q-30 -66 -61 -133t-31 -68q-3 -8 3.5 -22.5t19.5 -26.5q14 -12 26 -14.5t17 6.5v2q11 19 55.5 55t85.5 57l8 4q-1 -4 -3 -11t-3 -11q-30 -83 -30 -124q0 -42 30 -42
q4 0 10 1q81 14 293 225q16 16 35 36q16 16 -8 37q-15 16 -43 -12q-1 0 -56.5 -45.5t-110.5 -89.5q-53 -43 -54 -43l13 67q0 21 -7 37q-25 53 -73 53h-5q-17 0 -49 -14q-10 -3 -20 -10q11 33 18 62.5t11 60t1 51t-13 37t-31 18t-52 -7.5q-52 -19 -164 -127l37 63
q10 20 -23 49q-12 12 -24.5 16t-15.5 -3z" />
    <glyph glyph-name="n" unicode="n" horiz-adv-x="612" 
d="M-125 418q-9 -15 21 -49q12 -11 24 -15t17 2q20 20 81 76.5t162.5 141.5t153.5 112q-4 -12 -23 -49q-14 -28 -20 -41.5t-15.5 -39.5t-10 -42.5t2 -37t16 -37.5t35.5 -31q20 -12 44 -12q15 0 31 5q42 12 87 45t82.5 67.5t61.5 61.5l24 27q1 1 6 6.5t5 7t-1.5 6.5t-7.5 11
q-17 20 -45 -17l-13 -10q-13 -11 -33.5 -27.5t-47.5 -35.5t-54.5 -36.5t-55 -30.5t-49 -16.5t-36.5 5.5q31 60 58 113q5 10 13.5 27.5t13.5 29.5t8 22q5 19 5 35q0 56 -63 74h-4q-4 1 -8 1q-61 0 -268 -171l51 92q5 8 -1.5 22.5t-19.5 26.5q-12 12 -25.5 15.5t-17.5 -4.5z
" />
    <glyph glyph-name="o" unicode="o" horiz-adv-x="473" 
d="M-55 543q-18 -57 -18 -103q0 -55 26 -92l12 -12q16 -19 41 -33q24 -13 50 -13q15 0 30 5q24 6 70 43q43 37 84 115q26 45 39 102q31 -11 66 -11q74 0 165 50q19 12 -2 39q-15 17 -37 4q-54 -31 -122 -30q-30 0 -62 5q3 24 3 46t-3 42q-6 42 -23 74q-22 49 -63 70
q-26 13 -51 10q-34 -6 -41 -53v-11q0 -42 20 -90q25 -58 80 -104q-12 -44 -33 -84q-39 -74 -80 -109q-26 -27 -61 -38q-24 -6 -39 0q-5 9 -4 26q0 33 18 96q41 111 101 166q7 7 16 13q6 6 3 20t-15 27t-25.5 19t-19.5 1q-3 -2 -9.5 -7t-9.5 -7q-67 -61 -106 -176zM176 752
q3 30 21 30q10 4 14 0h-2q7 -17 10 -45q3 -20 3 -43.5t-3 -48.5q-22 19 -31 43q-12 29 -12 54v10zM211 782z" />
    <glyph glyph-name="p" unicode="p" horiz-adv-x="550" 
d="M-313 0q-7 -38 -7 -73q0 -50 14 -92q14 -44 35 -44q6 0 13 4q28 17 47 86l16 29q185 342 289 512q54 -78 133 -78q40 0 102.5 70t92.5 151q20 41 24 87q1 12 1 22q0 33 -9 62q-12 37 -45 59q-26 17 -62 17q-9 0 -20 -1q-26 -3 -58 -28.5t-68 -72.5t-67.5 -93.5
t-71.5 -117t-65.5 -117t-62.5 -116.5q-9 -18 -26 -47.5t-23 -40.5q-45 -87 -125 -221l498 963q4 6 -16 20t-40 21t-28 0q-44 -76 -251 -485t-220 -476zM121 467q166 264 237 272q4 -1 2 17q8 -12 5 -45q-3 -21 -27 -82q-31 -80 -76.5 -146.5t-75.5 -66.5q-40 0 -65 51z" />
    <glyph glyph-name="q" unicode="q" horiz-adv-x="587" 
d="M-274 -242q-10 -17 18 -49q32 -28 45 -12l854 905q12 16 -8 39q-3 4 -7 5.5t-8 0t-7.5 -2.5t-8 -5t-6.5 -6l-6 -6l-4 -4l-457 -443l416 586q10 16 -17 47q-32 29 -45 16q-41 -43 -100 -98q-14 64 -54 98q-26 22 -64 22q-22 0 -48 -7q-60 -16 -130 -83.5t-112 -142.5
q-26 -54 -30 -77q-2 -12 -2 -24q0 -34 20 -62q30 -43 84 -43q74 0 209 98zM10 481q2 2 2 8q6 27 29 68q41 73 106 138t121 79q6 2 12 2q44 0 48 -98q-217 -192 -318 -197z" />
    <glyph glyph-name="r" unicode="r" horiz-adv-x="518" 
d="M-170 377q-5 -8 1 -22.5t19 -26.5q12 -12 25.5 -16t18.5 3q12 21 64.5 110.5t55.5 90.5l72 60q93 71 126 71q10 0 15 -6q36 -42 56.5 -55.5t58.5 -16.5q8 -1 18 -1q65 0 183 36q24 4 6 29q-3 5 -7 7.5t-8 2.5t-7 -0.5t-8 -2.5t-7 -3q-81 -23 -139 -24q-7 0 -13 1
q-15 1 -23 32t-15 38q-22 27 -66 28q-55 0 -145 -44l75 120q5 8 -1 23t-19 27q-12 12 -25 15.5t-18 -3.5z" />
    <glyph glyph-name="s" unicode="s" horiz-adv-x="327" 
d="M-123.5 408.5q0.5 -12.5 5 -26t12 -26t21 -24.5t32.5 -21q24 -13 53 -13q13 0 27 3q23 6 47 23q27 23 39 45q17 36 16 81q0 28 -6 60q-6 23 -6 46q0 90 84 185l49 47q6 6 0.5 21t-17.5 27q-10 13 -23.5 18.5t-19.5 -0.5q-20 -16 -47 -45l-153 -186q-38 -38 -38 -56
q0 -5 3 -8q14 -10 27.5 -7t21.5 11l84 96q-17 -32 -25 -53t-9 -29t1 -19.5t2 -16.5q5 -24 5 -45q0 -37 -15 -68q-10 -23 -31 -37q-18 -15 -41 -18q-27 -7 -41 0q-2 1 4.5 14t13.5 26.5t7 14.5q3 8 -3 23t-19 26q-13 12 -26 15t-17 -5l-2 -5q-2 -4 -4.5 -11t-5.5 -17
t-4.5 -21.5t-1 -24z" />
    <glyph glyph-name="t" unicode="t" horiz-adv-x="421" 
d="M-476.5 1023q1.5 -8 7.5 -17q7 -15 21.5 -26t25.5 -11q7 0 18.5 0.5t47 0.5t70.5 -1t82 -5t87.5 -9.5t81.5 -16t69.5 -24.5t46.5 -34.5t17 -45.5q-1 -1 -2.5 -3.5l-4.5 -7.5t-4.5 -8.5t-0.5 -3.5q-201 -334 -201 -440q0 -19 6 -31q23 -43 75 -44h3q50 0 114 34
q65 35 127.5 77.5t124 96t87.5 77.5t37 35q21 16 4 35q-19 21 -37 8q0 -1 -43 -35t-106 -79.5t-128 -87.5t-115 -62q-25 -10 -40.5 -10t-20.5 10q-5 8 -4 20q0 31 28 88q40 80 146 253q9 0 9 12v2q54 88 127 199h612q11 0 12 11t-8 26q-7 13 -21.5 23.5t-25.5 10.5h-522
q70 105 148 218t119.5 171.5t41.5 59.5q5 6 -1 20.5t-18 26.5q-11 13 -25 17t-18 -3q-2 -2 -49.5 -69t-133.5 -194t-163 -247h-692q-7 0 -10 -4.5t-1.5 -12.5zM-74 979l256 -10q-10 -16 -30.5 -49t-30.5 -50q-33 42 -195 109z" />
    <glyph glyph-name="u" unicode="u" horiz-adv-x="563" 
d="M-74 404q16 -40 66 -40q18 0 38 4q82 18 181 105q7 -42 35 -65q27 -22 61 -22h3q36 1 75 17q89 42 215 207q20 20 2 37q-5 5 -9.5 7t-8.5 -0.5t-6 -4.5t-6 -7.5t-5 -6.5q-39 -52 -102.5 -103t-124.5 -81q-32 -15 -49 -15q-19 0 -19 19q0 4 1 8q9 50 85 152q5 7 9 12
l14 14q6 6 1 20.5t-17 26.5q-12 13 -26 18t-20 -1l-6 -9q-51 -86 -118 -154t-115 -96q-34 -20 -50 -19q-7 0 -10 3t-4 12t1.5 24.5t8 35.5t18 47t29.5 56t43 65t58 73q11 19 -16 50q-12 12 -25.5 17t-19.5 -1q-108 -116 -158 -227q-36 -87 -36 -139q0 -23 7 -39z" />
    <glyph glyph-name="v" unicode="v" horiz-adv-x="505" 
d="M-111 385q3 -20 19 -39q25 -29 59 -29q14 0 29 5q32 13 78 47q92 64 209 190l2 -4q17 -36 50 -44q13 -3 25 -3q20 0 42 8q34 13 67 31.5t53 35.5l21 17q14 14 -8 39q-3 4 -7 5.5t-8.5 1t-8 -1.5t-8.5 -4l-7.5 -4.5t-6.5 -5.5l-4 -3q-30 -24 -63 -39.5t-51.5 -20
t-18.5 -2.5q0 12 8.5 31.5t20.5 39.5t24 37.5t21 29.5l8 12q6 6 -5.5 27t-25.5 34q-21 24 -34 8l-13 -18q-88 -118 -182 -218t-164 -151q-23 -23 -36 -18q-7 3 -1 18q18 45 63.5 118t80 122.5t37.5 52.5q10 14 -15 43q-12 14 -33.5 24.5t-27.5 4.5l-109 -107q-6 -4 -2.5 -18
t15.5 -27l4 -4q-98 -151 -98 -209q0 -7 1 -12z" />
    <glyph glyph-name="w" unicode="w" horiz-adv-x="790" 
d="M-25 395q-7 4 -7 15q0 24 36 84q51 86 111 164.5t63 78.5q5 6 -0.5 20.5t-17.5 26.5q-12 13 -25.5 18t-17.5 -1q-18 -16 -39 -40t-56 -68.5t-36 -45.5q-5 -4 -3 -14t9 -19q-62 -113 -62 -184q0 -62 47 -92q19 -12 40 -12q70 0 173 127q10 -63 56 -95q28 -18 57 -18
q60 0 131 74q45 48 103 131q19 -23 38 -37q22 -13 44.5 -18t39.5 -5t38.5 10.5t33.5 17t34 27.5t29 28t28 31q8 9 12 13q14 14 -5 35q-19 19 -34 4q-37 -36 -113 -71q-47 -21 -78 -21q-20 0 -33 8q-7 5 0 29q18 27 54 83t47 73v2q5 8 -1.5 22.5t-19.5 26.5q-12 12 -24.5 15
t-18.5 -3q-26 -35 -51 -82q-120 -189 -184 -256q-64 -69 -104 -69q-12 0 -21 6t-9 23q1 17 9 44q16 55 42 103l25 49q4 7 -2 22t-18 27q-13 12 -26 15t-17 -5l-2 -4q-181 -298 -257 -298h-6q-6 1 -12 5z" />
    <glyph glyph-name="x" unicode="x" horiz-adv-x="524" 
d="M-307 90q-2 -9 6.5 -24t21.5 -27q13 -10 24.5 -10.5t14.5 8.5q26 116 267 346q6 -33 32 -59q1 -1 4 -3.5t4.5 -4t2.5 -3.5q33 -26 72 -31q11 -1 22 -1q28 0 54 9q38 13 78.5 39t75.5 58t70 69.5t61 68.5t49 60q3 5 5 7t5 5.5t5 6.5q0 1 1.5 3t2 3l1.5 3t1 3v3t-1 3.5
t-2.5 4t-3.5 5t-5 5.5q-18 18 -33 0q-18 -23 -77.5 -74t-132.5 -105q-72 -54 -141 -86q-42 -19 -68 -19q-17 0 -27 7q-5 6 -5 18q0 22 15 66q82 75 176 153t148 119l53 40q16 13 -10 47q-12 13 -25.5 19t-21.5 1q0 -1 -31 -24t-93 -72t-120 -98q16 32 11.5 58.5t-40.5 43.5
q-15 6 -57 -11t-76 -38l-35 -20q-7 -5 -4.5 -18.5t13.5 -27.5q12 -14 26 -20t21 -2q22 15 49 31q-33 -83 -41 -115q-308 -279 -342 -420z" />
    <glyph glyph-name="y" unicode="y" horiz-adv-x="499" 
d="M-457 -43q-7 -23 -7 -47q0 -43 24 -86q31 -55 89.5 -89.5t127.5 -35.5q90 0 360 455q200 29 458 29q239 0 527 -25q12 0 14 9t-6 23q-18 35 -47 39q-292 25 -530 25q-203 0 -367 -18q56 99 113 202.5t87 160.5t30 58l2 2l45 80q10 16 -21 47q-31 28 -43 13v2
q5 -4 -18 -42t-64 -89t-89 -99.5t-102 -78.5q-41 -23 -74 -23q-10 0 -19 2q-8 5 -8 29t4 32q45 105 143 218q13 16 -16 49q-12 12 -25.5 16.5t-19.5 -2.5q-106 -125 -146 -223q-20 -48 -20 -80v-8q0 -66 63 -101q19 -11 47 -14h6q57 0 166 94q-72 -131 -147 -258
q-295 -46 -436 -145q-79 -56 -101 -121zM-391 -98q20 59 92 108q108 78 328 125q-98 -161 -177 -262.5t-118 -101.5q-91 3 -121 51q-10 20 -10 43q0 17 6 37z" />
    <glyph glyph-name="z" unicode="z" horiz-adv-x="407" 
d="M-373 74q18 -51 68 -74q20 -11 50 -11q7 0 15 1q96 7 191 102q95 93 95 225q0 16 -1 33q28 1 72.5 14t105 41t124.5 86t110 136q2 3 2 4.5t-1 3t-3.5 2.5t-7 4.5t-9.5 7.5q-7 7 -13 7t-8.5 -3t-6.5 -10q-113 -192 -379 -219l-2 4q101 43 162.5 96.5t84.5 104.5
q16 29 13 53q0 39 -33 72q-26 26 -58 26q-9 0 -18 -2q-44 -9 -99.5 -41.5t-89.5 -60.5l-34 -29q-7 -6 -3.5 -19.5t15.5 -27.5q12 -12 25.5 -18t19.5 0l13 10q13 11 34.5 27t46.5 33t55.5 32.5t55.5 22.5q0 -3 -2.5 -11t-3.5 -10q-23 -48 -85 -99.5t-163 -92.5q-15 -6 -4 -29
q12 -37 14 -47q-29 -13 -66 -31.5t-95.5 -52.5t-107 -78.5t-68.5 -87.5q-16 -36 -16 -65q0 -15 5 -29zM-311 61q0 20 14 48q47 104 274 217q-11 -95 -86 -170q-93 -90 -176 -97q-18 0 -26 2z" />
    <glyph glyph-name="braceleft" unicode="{" horiz-adv-x="634" 
d="M74 708q-1 -11 6 -26q23 -34 45 -31q7 1 21.5 3t21.5 3q17 1 29.5 -1.5t24 -11t10.5 -26t-11 -45.5q-39 -83 -65 -139q-21 -46 -28 -61.5t-19 -45.5t-14 -44t-2 -33.5t5 -36.5q10 -30 31 -49t38 -25.5t44 -6.5t33 1t20 4h2q9 3 9 15t-9 26t-22.5 23t-22.5 6l-63 -8
q-8 23 4.5 57.5t54.5 120.5q9 21 31 68t33 73q59 129 8 184q44 29 78 66q46 49 90.5 124.5t109.5 207.5q41 83 85.5 134t79 66t63 15.5t44 -6.5t15.5 -9q12 -7 21.5 -4.5t11.5 13.5q0 12 -9.5 27t-21.5 24q-4 3 -11 6.5t-29.5 10t-45.5 7t-56.5 -9.5t-65.5 -33t-69.5 -70
t-70.5 -114q-116 -239 -197 -326q-69 -75 -166 -98q-56 -7 -61 -12q-9 -2 -10 -13z" />
    <glyph glyph-name="bar" unicode="|" horiz-adv-x="2048" 
 />
    <glyph glyph-name="braceright" unicode="}" horiz-adv-x="743" 
d="M-207 199q0 -12 10.5 -26.5t24.5 -22.5q4 -3 11.5 -6.5t31 -10.5t46.5 -8t56 9t62.5 32.5t62.5 69.5t60 114l22 58q30 77 44 111.5t36.5 77t37 57t43 32.5t57.5 24t77 13q10 1 10.5 12.5t-8.5 26.5q-9 14 -23 23.5t-24 9.5q-4 0 -9.5 0.5t-18.5 7.5t-20 20t-7 42t14 69
q11 32 29.5 82t21.5 57q20 53 28 75.5t16 53.5t5.5 51t-12.5 41q-12 30 -34.5 49t-40 25.5t-44.5 6.5t-33 -1t-20 -4h-2q-9 -2 -8 -14t12 -27q11 -14 24.5 -22t22.5 -7l64 9q10 -21 0 -57t-43 -122q-5 -13 -22.5 -60t-28.5 -79q-50 -142 12 -215q-76 -21 -112.5 -75.5
t-103.5 -222.5q-3 -9 -5 -13l-23 -57q-24 -61 -52 -104.5t-53 -65.5t-50 -34t-45 -12t-35.5 3t-24.5 7l-8 5q-14 8 -23 6t-8 -14z" />
    <glyph glyph-name="uni00A0" unicode="&#xa0;" horiz-adv-x="667" 
 />
    <glyph glyph-name="exclamdown" unicode="&#xa1;" horiz-adv-x="927" 
d="M139 422q-9 -19 21 -49q34 -30 43 -11l442 857q5 8 -2 22.5t-20 26.5q-12 12 -24.5 15t-16.5 -5zM618 1376q0 -22 15 -36.5t35 -14.5t34.5 14.5t14.5 36.5q0 20 -14.5 34.5t-34.5 14.5t-35 -14.5t-15 -34.5z" />
    <glyph glyph-name="cent" unicode="&#xa2;" horiz-adv-x="2048" 
 />
    <glyph glyph-name="sterling" unicode="&#xa3;" horiz-adv-x="1302" 
d="M25 61q5 -11 22 -24q16 -19 31 -25q15 -9 20 -6q2 0 133 25q122 21 293 39q160 17 316 4q140 -15 188 -84q7 -14 23 -27q15 -15 30 -24q26 -13 25 -2l-2 8q-60 99 -197 143q-130 42 -297 45q-161 3 -305 -12q110 110 137 262q29 164 29 332v39h369q6 0 4 10q-2 7 -19 24
q-15 15 -30 27q-17 10 -25 10h-295q6 100 21 203q21 159 102 297q100 149 203 203q101 53 198 47q50 -5 107 -27q34 -17 41 -24q25 -25 12 -54q-3 -6 6 -18q10 -14 27 -27q13 -13 31 -20q13 -6 16 0q18 48 -55 121q-47 47 -127 88q-68 28 -127 33q-98 6 -203 -48
q-108 -55 -207 -206q-86 -147 -106 -299q-20 -153 -23 -269h-301q-9 0 -2 -10q3 -12 18 -27q13 -13 31 -24q13 -10 25 -10h227q-3 -148 -20 -269q-21 -139 -97 -243q-76 -108 -245 -166h-2q-6 -3 0 -15z" />
    <glyph glyph-name="yen" unicode="&#xa5;" horiz-adv-x="1220" 
d="M29 412q-15 0 4 -24q5 -6 10 -11q37 -37 55 -37h248q-51 -367 25 -407q23 -10 43 6q10 6 -27 43q-41 32 -51 26q2 1 5 4.5t13.5 25t21.5 53.5t27.5 98t32.5 151h342q12 0 -3 22l-13 15q-35 35 -55 35h-258q13 64 40 155h289q14 0 -7 25l-9 10q-33 37 -55 37h-189
q75 181 236 410q175 187 391 464q3 2 0 9t-11.5 16t-19.5 18q-15 14 -29.5 21.5t-17.5 3.5q-3 0 -57.5 -57t-152 -172.5t-181.5 -233.5q-46 -48 -103 -102q-167 -156 -249 -156q-19 0 -27 -2q-105 -5 -137 16q-128 86 332 787q3 5 -6.5 18.5t-26.5 26.5q-15 13 -29.5 20.5
t-17.5 2.5q-484 -738 -232 -906q30 -20 67.5 -29.5t65.5 -8.5t56 1q5 0 13 1t11 1q42 0 101 33q-41 -73 -82 -182h-383q-17 0 10 -32q2 -3 4 -5q35 -35 55 -35h291q-19 -78 -22 -94q-1 -12 -4.5 -32t-4.5 -29h-329z" />
    <glyph glyph-name="copyright" unicode="&#xa9;" horiz-adv-x="1103" 
d="M76 1167q0 -164 129 -290q137 -134 311 -134q168 0 283 115q116 113 116 272q0 168 -129 291q-133 133 -311 133q-167 0 -282 -112q-55 -53 -86 -125t-31 -150zM123 1130q0 160 117 271q112 112 276 112q153 0 248 -92q102 -99 102 -254q0 -159 -114 -270
q-116 -113 -277 -113q-153 0 -248 95q-104 101 -104 251zM219 1063q-3 -72 62 -131q22 -20 56 -23.5t72.5 6.5t82.5 29t87 44.5t84.5 52.5t77.5 53.5t62.5 47t42.5 33.5l16 13q6 6 2 20t-16 27q-8 2 -23 -10t-18 -13q-5 -4 -14.5 -10.5t-40 -28t-58 -40t-70.5 -46t-77.5 -46
t-77 -40.5t-70.5 -28.5t-58.5 -11t-39.5 11.5q-14 12 -14 45q0 34 24 80q19 40 60 84q47 53 101.5 90t84.5 35q4 0 -2.5 -18t-14.5 -36l-8 -18q-10 -20 23 -49q14 -12 26 -14.5t15 6.5q2 4 5 11t9.5 27.5t9 39t0.5 41t-12 39.5t-33 29t-59 13q-34 2 -94.5 -37t-112.5 -96
q-45 -52 -61 -88q-29 -56 -29 -94z" />
    <glyph glyph-name="uni00AD" unicode="&#xad;" horiz-adv-x="993" 
d="M105 890q-1 -11 8 -26q7 -13 21.5 -24t25.5 -11h573q12 0 13.5 10.5t-7.5 24.5q-9 15 -23 26t-24 11h-575q-11 0 -12 -11z" />
    <glyph glyph-name="registered" unicode="&#xae;" horiz-adv-x="1103" 
d="M76 1167q0 -164 129 -290q137 -134 311 -134q168 0 283 115q116 113 116 272q0 168 -129 291q-133 133 -311 133q-167 0 -282 -112q-55 -53 -86 -125t-31 -150zM123 1130q0 160 117 271q112 112 276 112q153 0 248 -92q102 -99 102 -254q0 -159 -114 -270
q-116 -113 -277 -113q-153 0 -248 95q-104 101 -104 251zM319 1049l48 -39l67 106l2 -2l95 76q47 36 51 31q47 -56 100 -62q32 -2 92 17l-45 41q-60 -17 -86 -15q-22 0 -27 8q-38 43 -114 13l43 69l-45 39z" />
    <glyph glyph-name="questiondown" unicode="&#xbf;" horiz-adv-x="667" 
d="M201 457q19 -70 84 -111q57 -38 131 -29q57 6 102.5 27t70 47t40.5 51.5t21 42.5l5 17q1 10 -6.5 25t-19.5 26q-14 11 -25.5 11.5t-13.5 -9.5q-1 -6 -4.5 -16.5t-19 -37t-37.5 -48t-64 -41.5t-94 -25q-61 -3 -88 16q-12 6 -19 27q-10 40 2 90q30 111 158 213l41 33
q61 50 88.5 73t69.5 60t59.5 57.5t41.5 51.5t34 57t18.5 58.5t11.5 70.5q0 11 -8.5 25.5t-21.5 23.5q-15 10 -25 9.5t-12 -11.5q-3 -41 -11 -73.5t-29 -67t-38.5 -57.5t-62 -63t-74.5 -65t-100 -81l-39 -33q-136 -113 -166 -228q-15 -63 0 -116zM721 1335q0 -20 14.5 -34.5
t36.5 -14.5q20 0 34.5 14.5t14.5 34.5t-14.5 34.5t-34.5 14.5q-22 0 -36.5 -14.5t-14.5 -34.5z" />
    <glyph glyph-name="Agrave" unicode="&#xc0;" horiz-adv-x="2537" 
d="M35 932q-36 -82 41 -150q154 -136 1167 -88q-645 -658 -917 -884q3 16 -17 40q-12 14 -25.5 19.5t-19.5 -0.5q-3 0 -39.5 -35.5t-71 -83t-28.5 -72.5q18 -73 80 -57q148 38 1169 1081q238 13 764 60q-124 -260 -336 -637q-79 -141 -109.5 -204.5t-25.5 -86.5
q18 -65 68 -53q34 7 143 158q185 260 291 532q64 160 86 303q55 5 105.5 10.5t73.5 7.5l24 3q9 2 9.5 13.5t-9.5 25.5q-9 15 -23 24.5t-25 7.5q-51 -6 -139 -14q47 99 90 207q215 520 277 739q35 141 17.5 191.5t-83.5 44.5q-18 -1 -155.5 -138.5t-425.5 -435.5
q-109 72 -257.5 100.5t-304.5 17.5t-325.5 -51t-322.5 -99t-294 -132q-168 -85 -299 -188q-125 -101 -153 -176zM92 825q-9 9 6 49q29 71 150 168q138 108 295 187q169 88 354.5 153.5t377.5 103.5t372.5 24.5t308.5 -85.5l-82 -84q-340 -352 -559 -573q-1082 -66 -1223 57z
M1448 778q74 75 157.5 161t180 185.5t147.5 151.5l97 100q112 -92 151 -237q27 -109 14 -254l-20 -43q-488 -49 -727 -64zM1905 133q100 182 143 264q-67 -143 -143 -264zM2060 1407q539 553 557 555q4 1 1 -5l-5 -10q-28 -48 -43 -96q-60 -220 -274 -735q-8 -23 -35 -84
q-8 52 -16 78q-47 178 -185 297zM2435 2372q0 -42 56 -122t110 -71q4 0 8 2q11 11 -10 39q-15 18 -33 18q-5 8 -12 25q-33 64 -33 94q0 9 -8 21t-19 20q-10 7 -33.5 -4.5t-25.5 -21.5z" />
    <glyph glyph-name="Aacute" unicode="&#xc1;" horiz-adv-x="2537" 
d="M35 932q-36 -82 41 -150q154 -136 1167 -88q-645 -658 -917 -884q3 16 -17 40q-12 14 -25.5 19.5t-19.5 -0.5q-3 0 -39.5 -35.5t-71 -83t-28.5 -72.5q18 -73 80 -57q148 38 1169 1081q238 13 764 60q-124 -260 -336 -637q-79 -141 -109.5 -204.5t-25.5 -86.5
q18 -65 68 -53q34 7 143 158q185 260 291 532q64 160 86 303q55 5 105.5 10.5t73.5 7.5l24 3q9 2 9.5 13.5t-9.5 25.5q-9 15 -23 24.5t-25 7.5q-51 -6 -139 -14q47 99 90 207q215 520 277 739q35 141 17.5 191.5t-83.5 44.5q-18 -1 -155.5 -138.5t-425.5 -435.5
q-109 72 -257.5 100.5t-304.5 17.5t-325.5 -51t-322.5 -99t-294 -132q-168 -85 -299 -188q-125 -101 -153 -176zM92 825q-9 9 6 49q29 71 150 168q138 108 295 187q169 88 354.5 153.5t377.5 103.5t372.5 24.5t308.5 -85.5l-82 -84q-340 -352 -559 -573q-1082 -66 -1223 57z
M1448 778q74 75 157.5 161t180 185.5t147.5 151.5l97 100q112 -92 151 -237q27 -109 14 -254l-20 -43q-488 -49 -727 -64zM1905 133q100 182 143 264q-67 -143 -143 -264zM2060 1407q539 553 557 555q4 1 1 -5l-5 -10q-28 -48 -43 -96q-60 -220 -274 -735q-8 -23 -35 -84
q-8 52 -16 78q-47 178 -185 297zM2638 2210q-5 6 1 16t19 17q20 14 35 10q3 2 10 8.5t11 9.5q44 47 57 82q1 9 12 18.5t25 14.5q11 4 30.5 -14.5t16.5 -28.5q-6 -22 -41.5 -61t-85.5 -66.5t-84 -11.5z" />
    <glyph glyph-name="Acircumflex" unicode="&#xc2;" horiz-adv-x="2537" 
d="M35 932q-36 -82 41 -150q154 -136 1167 -88q-645 -658 -917 -884q3 16 -17 40q-12 14 -25.5 19.5t-19.5 -0.5q-3 0 -39.5 -35.5t-71 -83t-28.5 -72.5q18 -73 80 -57q148 38 1169 1081q238 13 764 60q-124 -260 -336 -637q-79 -141 -109.5 -204.5t-25.5 -86.5
q18 -65 68 -53q34 7 143 158q185 260 291 532q64 160 86 303q55 5 105.5 10.5t73.5 7.5l24 3q9 2 9.5 13.5t-9.5 25.5q-9 15 -23 24.5t-25 7.5q-51 -6 -139 -14q47 99 90 207q215 520 277 739q35 141 17.5 191.5t-83.5 44.5q-18 -1 -155.5 -138.5t-425.5 -435.5
q-109 72 -257.5 100.5t-304.5 17.5t-325.5 -51t-322.5 -99t-294 -132q-168 -85 -299 -188q-125 -101 -153 -176zM92 825q-9 9 6 49q29 71 150 168q138 108 295 187q169 88 354.5 153.5t377.5 103.5t372.5 24.5t308.5 -85.5l-82 -84q-340 -352 -559 -573q-1082 -66 -1223 57z
M1448 778q74 75 157.5 161t180 185.5t147.5 151.5l97 100q112 -92 151 -237q27 -109 14 -254l-20 -43q-488 -49 -727 -64zM1905 133q100 182 143 264q-67 -143 -143 -264zM2060 1407q539 553 557 555q4 1 1 -5l-5 -10q-28 -48 -43 -96q-60 -220 -274 -735q-8 -23 -35 -84
q-8 52 -16 78q-47 178 -185 297zM2484 2252q5 -12 15 -22q25 -25 34 -12t79.5 61.5t129.5 77.5q22 11 37 17l-12 -105q0 -21 26 -43q7 -5 13 -6.5t10 0.5t4 8q5 45 19 135q3 20 -11 41q-25 40 -71 31q-13 -2 -60 -22q-60 -30 -132 -80t-81 -64q-5 -5 0 -17zM2787 2402
q2 0 2 -2l1 -1z" />
    <glyph glyph-name="Atilde" unicode="&#xc3;" horiz-adv-x="2537" 
d="M35 932q-36 -82 41 -150q154 -136 1167 -88q-645 -658 -917 -884q3 16 -17 40q-12 14 -25.5 19.5t-19.5 -0.5q-3 0 -39.5 -35.5t-71 -83t-28.5 -72.5q18 -73 80 -57q148 38 1169 1081q238 13 764 60q-124 -260 -336 -637q-79 -141 -109.5 -204.5t-25.5 -86.5
q18 -65 68 -53q34 7 143 158q185 260 291 532q64 160 86 303q55 5 105.5 10.5t73.5 7.5l24 3q9 2 9.5 13.5t-9.5 25.5q-9 15 -23 24.5t-25 7.5q-51 -6 -139 -14q47 99 90 207q215 520 277 739q35 141 17.5 191.5t-83.5 44.5q-18 -1 -155.5 -138.5t-425.5 -435.5
q-109 72 -257.5 100.5t-304.5 17.5t-325.5 -51t-322.5 -99t-294 -132q-168 -85 -299 -188q-125 -101 -153 -176zM92 825q-9 9 6 49q29 71 150 168q138 108 295 187q169 88 354.5 153.5t377.5 103.5t372.5 24.5t308.5 -85.5l-82 -84q-340 -352 -559 -573q-1082 -66 -1223 57z
M1448 778q74 75 157.5 161t180 185.5t147.5 151.5l97 100q112 -92 151 -237q27 -109 14 -254l-20 -43q-488 -49 -727 -64zM1905 133q100 182 143 264q-67 -143 -143 -264zM2060 1407q539 553 557 555q4 1 1 -5l-5 -10q-28 -48 -43 -96q-60 -220 -274 -735q-8 -23 -35 -84
q-8 52 -16 78q-47 178 -185 297zM2446 2250q5 -15 18 -30q12 -14 26.5 -20t20.5 0q3 3 8.5 7.5t21.5 14.5t31.5 15.5t36.5 3.5t39 -15q76 -56 135 -53q50 6 90 57q5 8 -1 23t-19 28q-12 15 -25.5 20t-19.5 -1q-34 -46 -74 -49q-36 -3 -84 33q-31 22 -63.5 29t-56.5 1
t-43.5 -15.5t-29.5 -18.5l-10 -9q-6 -6 -1 -21z" />
    <glyph glyph-name="Adieresis" unicode="&#xc4;" horiz-adv-x="2537" 
d="M35 932q-36 -82 41 -150q154 -136 1167 -88q-645 -658 -917 -884q3 16 -17 40q-12 14 -25.5 19.5t-19.5 -0.5q-3 0 -39.5 -35.5t-71 -83t-28.5 -72.5q18 -73 80 -57q148 38 1169 1081q238 13 764 60q-124 -260 -336 -637q-79 -141 -109.5 -204.5t-25.5 -86.5
q18 -65 68 -53q34 7 143 158q185 260 291 532q64 160 86 303q55 5 105.5 10.5t73.5 7.5l24 3q9 2 9.5 13.5t-9.5 25.5q-9 15 -23 24.5t-25 7.5q-51 -6 -139 -14q47 99 90 207q215 520 277 739q35 141 17.5 191.5t-83.5 44.5q-18 -1 -155.5 -138.5t-425.5 -435.5
q-109 72 -257.5 100.5t-304.5 17.5t-325.5 -51t-322.5 -99t-294 -132q-168 -85 -299 -188q-125 -101 -153 -176zM92 825q-9 9 6 49q29 71 150 168q138 108 295 187q169 88 354.5 153.5t377.5 103.5t372.5 24.5t308.5 -85.5l-82 -84q-340 -352 -559 -573q-1082 -66 -1223 57z
M1448 778q74 75 157.5 161t180 185.5t147.5 151.5l97 100q112 -92 151 -237q27 -109 14 -254l-20 -43q-488 -49 -727 -64zM1905 133q100 182 143 264q-67 -143 -143 -264zM2060 1407q539 553 557 555q4 1 1 -5l-5 -10q-28 -48 -43 -96q-60 -220 -274 -735q-8 -23 -35 -84
q-8 52 -16 78q-47 178 -185 297zM2511 2337q0 -34 26 -60q27 -24 56 -24q25 0 41 16q18 18 18 43q0 34 -26 60q-24 24 -56 24q-25 0 -41 -16q-18 -15 -18 -43zM2720 2337q0 -34 26 -60q24 -24 54 -24q27 0 43 16q16 19 16 43q0 33 -27 60q-24 24 -55 24q-25 0 -41 -16
t-16 -43z" />
    <glyph glyph-name="Aring" unicode="&#xc5;" horiz-adv-x="2537" 
d="M35 932q-36 -82 41 -150q154 -136 1167 -88q-645 -658 -917 -884q3 16 -17 40q-12 14 -25.5 19.5t-19.5 -0.5q-3 0 -39.5 -35.5t-71 -83t-28.5 -72.5q18 -73 80 -57q148 38 1169 1081q238 13 764 60q-124 -260 -336 -637q-79 -141 -109.5 -204.5t-25.5 -86.5
q18 -65 68 -53q34 7 143 158q185 260 291 532q64 160 86 303q55 5 105.5 10.5t73.5 7.5l24 3q9 2 9.5 13.5t-9.5 25.5q-9 15 -23 24.5t-25 7.5q-51 -6 -139 -14q47 99 90 207q215 520 277 739q35 141 17.5 191.5t-83.5 44.5q-18 -1 -155.5 -138.5t-425.5 -435.5
q-109 72 -257.5 100.5t-304.5 17.5t-325.5 -51t-322.5 -99t-294 -132q-168 -85 -299 -188q-125 -101 -153 -176zM92 825q-9 9 6 49q29 71 150 168q138 108 295 187q169 88 354.5 153.5t377.5 103.5t372.5 24.5t308.5 -85.5l-82 -84q-340 -352 -559 -573q-1082 -66 -1223 57z
M1448 778q74 75 157.5 161t180 185.5t147.5 151.5l97 100q112 -92 151 -237q27 -109 14 -254l-20 -43q-488 -49 -727 -64zM1905 133q100 182 143 264q-67 -143 -143 -264zM2060 1407q539 553 557 555q4 1 1 -5l-5 -10q-28 -48 -43 -96q-60 -220 -274 -735q-8 -23 -35 -84
q-8 52 -16 78q-47 178 -185 297zM2548 2349q0 -54 45 -102q43 -43 94 -43q46 0 76 30t30 76q0 56 -47 103q-41 41 -92 41q-47 0 -76 -29q-30 -33 -30 -76zM2601 2310q0 36 27 60q23 26 59 26q29 0 43 -14q10 -10 10 -33q0 -35 -26 -61q-22 -25 -60 -25q-31 0 -43 12
q-10 10 -10 35z" />
    <glyph glyph-name="AE" unicode="&#xc6;" horiz-adv-x="3094" 
d="M23 928q-36 -83 40 -150q154 -136 1168 -88q-666 -675 -918 -885q4 18 -16 41q-12 14 -25.5 19.5t-19.5 -0.5q-3 0 -39.5 -35.5t-71 -83t-28.5 -72.5q18 -73 80 -57q148 38 1169 1081q238 13 764 60q-124 -260 -336 -637q-79 -141 -109.5 -204.5t-25.5 -86.5
q18 -65 67 -53q16 5 55.5 47.5t88.5 109.5q58 79 125 191q22 -78 114 -72q216 11 559 66q90 13 185 29t140 23.5t46 6.5q6 -13 20.5 -25.5t26.5 -15.5q14 -3 19 5t-2 20q-8 17 -21.5 28.5t-37 18t-46 10.5t-60.5 2.5t-66.5 -3.5t-79 -8.5t-83 -11.5t-92.5 -14
q-376 -55 -555 -63q-39 -3 -49 37q90 160 148 309q62 161 84 295q17 3 49 9t49 9q102 9 106 13q8 0 11 8q358 61 368 24q5 -14 20.5 -29.5t32.5 -21.5q17 -7 26.5 -0.5t4.5 21.5q-34 115 -502 67h-8q-47 -6 -125 -14q16 32 31 59l41 76q4 7 45 82q138 249 369 631
q571 66 991.5 99t427.5 -1q1 -12 13 -24.5t28 -20.5q14 -6 23 -3t6 15q-8 43 -138 61.5t-346.5 13t-451.5 -22t-506 -44.5l10 19q4 7 -2.5 20.5t-20.5 24.5q-13 12 -27 15t-18 -5q-20 -31 -53 -84l-205 -352q95 246 136 387q35 141 17.5 192.5t-83.5 43.5
q-18 -1 -159 -141.5t-423 -432.5q-109 72 -257.5 100.5t-304 17.5t-325 -51t-322.5 -99t-294 -132q-168 -85 -299 -188q-125 -101 -153 -176zM80 821q-9 9 6 49q29 71 150 168q139 109 294 187q169 88 354.5 153.5t378 103.5t373 24.5t308.5 -85.5l-82 -84
q-340 -352 -559 -573q-1082 -66 -1223 57zM1436 774q74 75 157.5 161t180 185.5t147.5 151.5l96 100q113 -93 152 -237q27 -109 14 -254l-20 -43q-488 -49 -727 -64zM1892 129q52 92 103 186q-2 -4 -2 -10q-45 -87 -101 -176zM2048 1403q539 553 557 555q4 1 1 -5l-5 -10
q-28 -48 -43 -96q-60 -220 -274 -735q-8 -23 -35 -84q-7 46 -17 78q-47 179 -184 297z" />
    <glyph glyph-name="Ccedilla" unicode="&#xc7;" horiz-adv-x="1785" 
d="M29 106q51 -168 202 -245q24 -12 39 -17l-45 -61q-8 -12 15 -39q18 -13 20 -14q3 -1 8.5 -3.5t20 -11t21 -18.5t12.5 -26t-5 -33q-19 -40 -59 -54q-18 -6 -39 -6q-22 4 -31 8q-12 8 -14 15q-3 11 -14 22.5t-21 14.5q-9 5 -13.5 -1t-0.5 -16q16 -56 78 -88q32 -12 49 -12
q26 -3 47 6q47 13 70 61q46 97 -74 170l49 66q100 -21 227 0q244 41 570.5 235t718.5 555q6 6 1.5 20t-16.5 28q-12 13 -25.5 18.5t-19.5 -0.5q-389 -360 -712 -552.5t-564 -233.5q-189 -30 -305 30q-91 46 -127 158q-64 201 60 508q84 208 237 403q150 190 341 343.5
t388 252.5q188 96 347 130t253 -3q19 -5 33 -16q17 -14 27 -41q21 -80 -60 -201q-79 -121 -229 -237q-160 -124 -348 -205.5t-357 -87.5q-11 0 -12 -11t8 -26t22.5 -25t24.5 -10q174 7 366.5 90t354.5 209q156 124 234 242q88 134 59 235q-19 68 -80 115q-23 21 -61 37
q-105 41 -273.5 7.5t-363.5 -132.5q-202 -104 -394 -258.5t-341 -343.5q-159 -202 -242 -410q-127 -320 -57 -541z" />
    <glyph glyph-name="Egrave" unicode="&#xc8;" horiz-adv-x="1415" 
d="M27 1618q27 -19 190 -41q3 0 102 -4q125 -2 208.5 -29.5t117.5 -70t46 -92.5t-1 -100t-29 -91t-33 -66l-16 -26q-4 -6 0 -23q-15 -23 -44.5 -69t-43.5 -68q-77 -4 -156.5 -11t-119.5 -11l-41 -5q-10 -1 -10.5 -13.5t8.5 -25.5q9 -15 23.5 -24.5t23.5 -7.5l28 4q29 3 85 9
t112 11q-445 -724 -246 -810q22 -10 52 -11q180 -10 563 8q91 3 186.5 9t141 9.5t45.5 2.5q16 -35 45 -45q12 -4 17.5 2t0.5 20q-6 17 -19 30t-35.5 21.5t-44.5 14.5t-59.5 9t-66.5 4t-79.5 -0.5t-83.5 -2.5t-93 -4q-15 -1 -85 -3.5t-96.5 -3t-89 -2t-100.5 -1.5t-90 1
t-96 3q-100 4 0 216t323 541q530 51 537 9q2 -12 14 -26.5t25 -20.5q13 -7 21 -3.5t5 15.5q-8 45 -95 70t-206.5 27.5t-253.5 -1.5q215 311 488 668q1414 13 1419 -47q2 -12 13 -27.5t24 -22.5q13 -9 23 -6t8 15q-4 43 -131 75t-343 48.5t-452 24.5t-508 9l12 17
q6 6 0.5 20.5t-18.5 26.5q-12 13 -25.5 17.5t-17.5 -3.5q-1 0 -7 -8t-23 -29.5t-32 -40.5q-100 0 -272 -4q-191 -2 -463 -12q-15 -1 -76 -4.5t-86 -5.5q-56 4 -57 -1q-1 -2 4 -5q-90 -12 -67 -29zM571 1599q22 1 107.5 3.5t136.5 3.5q27 0 86 1t90 1q-191 -261 -213 -293
q11 207 -207 284zM1092 2120q-1 -22 22 -70t63.5 -88.5t77.5 -34.5q5 0 9 4q5 3 1.5 15t-12.5 22q-16 19 -30 19q-12 18 -15 24q-32 62 -32 94q0 23 -27 43q-10 7 -33.5 -5.5t-23.5 -22.5z" />
    <glyph glyph-name="Eacute" unicode="&#xc9;" horiz-adv-x="1415" 
d="M27 1618q27 -19 190 -41q3 0 102 -4q125 -2 208.5 -29.5t117.5 -70t46 -92.5t-1 -100t-29 -91t-33 -66l-16 -26q-4 -6 0 -23q-15 -23 -44.5 -69t-43.5 -68q-77 -4 -156.5 -11t-119.5 -11l-41 -5q-10 -1 -10.5 -13.5t8.5 -25.5q9 -15 23.5 -24.5t23.5 -7.5l28 4q29 3 85 9
t112 11q-445 -724 -246 -810q22 -10 52 -11q180 -10 563 8q91 3 186.5 9t141 9.5t45.5 2.5q16 -35 45 -45q12 -4 17.5 2t0.5 20q-6 17 -19 30t-35.5 21.5t-44.5 14.5t-59.5 9t-66.5 4t-79.5 -0.5t-83.5 -2.5t-93 -4q-15 -1 -85 -3.5t-96.5 -3t-89 -2t-100.5 -1.5t-90 1
t-96 3q-100 4 0 216t323 541q530 51 537 9q2 -12 14 -26.5t25 -20.5q13 -7 21 -3.5t5 15.5q-8 45 -95 70t-206.5 27.5t-253.5 -1.5q215 311 488 668q1414 13 1419 -47q2 -12 13 -27.5t24 -22.5q13 -9 23 -6t8 15q-4 43 -131 75t-343 48.5t-452 24.5t-508 9l12 17
q6 6 0.5 20.5t-18.5 26.5q-12 13 -25.5 17.5t-17.5 -3.5q-1 0 -7 -8t-23 -29.5t-32 -40.5q-100 0 -272 -4q-191 -2 -463 -12q-15 -1 -76 -4.5t-86 -5.5q-56 4 -57 -1q-1 -2 4 -5q-90 -12 -67 -29zM571 1599q22 1 107.5 3.5t136.5 3.5q27 0 86 1t90 1q-191 -261 -213 -293
q11 207 -207 284zM1171 1923q-3 5 3 15.5t18 17.5q23 13 37 10q3 2 20 19q49 52 56 81q7 22 36 33q13 4 33 -14.5t17 -28.5q-6 -22 -41.5 -61t-85.5 -66.5t-84 -11.5q-6 3 -9 6z" />
    <glyph glyph-name="Ecircumflex" unicode="&#xca;" horiz-adv-x="1415" 
d="M27 1618q27 -19 190 -41q3 0 102 -4q125 -2 208.5 -29.5t117.5 -70t46 -92.5t-1 -100t-29 -91t-33 -66l-16 -26q-4 -6 0 -23q-15 -23 -44.5 -69t-43.5 -68q-77 -4 -156.5 -11t-119.5 -11l-41 -5q-10 -1 -10.5 -13.5t8.5 -25.5q9 -15 23.5 -24.5t23.5 -7.5l28 4q29 3 85 9
t112 11q-445 -724 -246 -810q22 -10 52 -11q180 -10 563 8q91 3 186.5 9t141 9.5t45.5 2.5q16 -35 45 -45q12 -4 17.5 2t0.5 20q-6 17 -19 30t-35.5 21.5t-44.5 14.5t-59.5 9t-66.5 4t-79.5 -0.5t-83.5 -2.5t-93 -4q-15 -1 -85 -3.5t-96.5 -3t-89 -2t-100.5 -1.5t-90 1
t-96 3q-100 4 0 216t323 541q530 51 537 9q2 -12 14 -26.5t25 -20.5q13 -7 21 -3.5t5 15.5q-8 45 -95 70t-206.5 27.5t-253.5 -1.5q215 311 488 668q1414 13 1419 -47q2 -12 13 -27.5t24 -22.5q13 -9 23 -6t8 15q-4 43 -131 75t-343 48.5t-452 24.5t-508 9l12 17
q6 6 0.5 20.5t-18.5 26.5q-12 13 -25.5 17.5t-17.5 -3.5q-1 0 -7 -8t-23 -29.5t-32 -40.5q-100 0 -272 -4q-191 -2 -463 -12q-15 -1 -76 -4.5t-86 -5.5q-56 4 -57 -1q-1 -2 4 -5q-90 -12 -67 -29zM571 1599q22 1 107.5 3.5t136.5 3.5q27 0 86 1t90 1q-191 -261 -213 -293
q11 207 -207 284zM1079 1956q-10 -14 15 -39t34 -12t80.5 61t128.5 76q7 4 37 16l-12 -104q0 -18 27 -41q25 -18 28 2q3 45 17 135q2 17 -11 41q-25 40 -71 31q-17 -4 -60 -23q-60 -30 -132.5 -79.5t-80.5 -63.5z" />
    <glyph glyph-name="Edieresis" unicode="&#xcb;" horiz-adv-x="1415" 
d="M27 1618q27 -19 190 -41q3 0 102 -4q125 -2 208.5 -29.5t117.5 -70t46 -92.5t-1 -100t-29 -91t-33 -66l-16 -26q-4 -6 0 -23q-15 -23 -44.5 -69t-43.5 -68q-77 -4 -156.5 -11t-119.5 -11l-41 -5q-10 -1 -10.5 -13.5t8.5 -25.5q9 -15 23.5 -24.5t23.5 -7.5l28 4q29 3 85 9
t112 11q-445 -724 -246 -810q22 -10 52 -11q180 -10 563 8q91 3 186.5 9t141 9.5t45.5 2.5q16 -35 45 -45q12 -4 17.5 2t0.5 20q-6 17 -19 30t-35.5 21.5t-44.5 14.5t-59.5 9t-66.5 4t-79.5 -0.5t-83.5 -2.5t-93 -4q-15 -1 -85 -3.5t-96.5 -3t-89 -2t-100.5 -1.5t-90 1
t-96 3q-100 4 0 216t323 541q530 51 537 9q2 -12 14 -26.5t25 -20.5q13 -7 21 -3.5t5 15.5q-8 45 -95 70t-206.5 27.5t-253.5 -1.5q215 311 488 668q1414 13 1419 -47q2 -12 13 -27.5t24 -22.5q13 -9 23 -6t8 15q-4 43 -131 75t-343 48.5t-452 24.5t-508 9l12 17
q6 6 0.5 20.5t-18.5 26.5q-12 13 -25.5 17.5t-17.5 -3.5q-1 0 -7 -8t-23 -29.5t-32 -40.5q-100 0 -272 -4q-191 -2 -463 -12q-15 -1 -76 -4.5t-86 -5.5q-56 4 -57 -1q-1 -2 4 -5q-90 -12 -67 -29zM571 1599q22 1 107.5 3.5t136.5 3.5q27 0 86 1t90 1q-191 -261 -213 -293
q11 207 -207 284zM1040 2028q0 -33 27 -60q24 -24 55 -24q25 0 41 16q17 17 17 43q0 32 -27 59q-25 25 -53 25q-27 0 -43 -16q-17 -20 -17 -43zM1247 2028q0 -34 29 -60q21 -24 53 -24q24 0 43 16q17 17 17 43q0 32 -27 59q-29 25 -55 25q-25 0 -41 -16q-19 -23 -19 -43z
" />
    <glyph glyph-name="Igrave" unicode="&#xcc;" horiz-adv-x="950" 
d="M-170 280q-1 -11 8 -26q10 -14 23.5 -24t23.5 -9l20 1q20 1 56 2t80 3t101.5 3.5t111.5 2.5q-2 -3 -5 -11t-5 -11q12 18 14 22q487 8 494 -34q3 -13 14.5 -27t24.5 -20q14 -8 21.5 -3.5t4.5 17.5q-20 109 -516 129q227 323 1077 1450l416 -6q10 0 12 10.5t-6 24.5
q-22 36 -49 36l-319 5l18 24q5 8 0 22t-18 27q-12 12 -25.5 16.5t-17.5 -1.5q-3 -3 -64 -86l-506 8q-23 0 -6 -35q9 -15 23 -26t24 -11l412 -6q-163 -217 -330.5 -448.5t-371.5 -535.5t-287 -468q-117 3 -215 2.5t-162 -3.5l-64 -3q-11 0 -12 -11zM1331 2189
q0 -22 23.5 -69.5t64 -88t76.5 -34.5q4 0 8 4q6 3 3 15t-13 22q-18 21 -31 18q-2 2 -6.5 11t-7.5 14q-34 73 -31 94q0 21 -26 43q-10 7 -35 -6t-25 -23z" />
    <glyph glyph-name="Iacute" unicode="&#xcd;" horiz-adv-x="950" 
d="M-170 280q-1 -11 8 -26q10 -14 23.5 -24t23.5 -9l20 1q20 1 56 2t80 3t101.5 3.5t111.5 2.5q-2 -3 -5 -11t-5 -11q12 18 14 22q487 8 494 -34q3 -13 14.5 -27t24.5 -20q14 -8 21.5 -3.5t4.5 17.5q-20 109 -516 129q227 323 1077 1450l416 -6q10 0 12 10.5t-6 24.5
q-22 36 -49 36l-319 5l18 24q5 8 0 22t-18 27q-12 12 -25.5 16.5t-17.5 -1.5q-3 -3 -64 -86l-506 8q-23 0 -6 -35q9 -15 23 -26t24 -11l412 -6q-163 -217 -330.5 -448.5t-371.5 -535.5t-287 -468q-117 3 -215 2.5t-162 -3.5l-64 -3q-11 0 -12 -11zM1417 2003q-3 6 3 16
t18 17q23 13 37 10q6 4 20 18q47 51 55 82q3 9 14 18.5t23 14.5q13 4 32.5 -14.5t16.5 -28.5q-6 -22 -41.5 -61t-85.5 -66.5t-84 -11.5q-4 2 -8 6z" />
    <glyph glyph-name="Icircumflex" unicode="&#xce;" horiz-adv-x="950" 
d="M-170 280q-1 -11 8 -26q10 -14 23.5 -24t23.5 -9l20 1q20 1 56 2t80 3t101.5 3.5t111.5 2.5q-2 -3 -5 -11t-5 -11q12 18 14 22q487 8 494 -34q3 -13 14.5 -27t24.5 -20q14 -8 21.5 -3.5t4.5 17.5q-20 109 -516 129q227 323 1077 1450l416 -6q10 0 12 10.5t-6 24.5
q-22 36 -49 36l-319 5l18 24q5 8 0 22t-18 27q-12 12 -25.5 16.5t-17.5 -1.5q-3 -3 -64 -86l-506 8q-23 0 -6 -35q9 -15 23 -26t24 -11l412 -6q-163 -217 -330.5 -448.5t-371.5 -535.5t-287 -468q-117 3 -215 2.5t-162 -3.5l-64 -3q-11 0 -12 -11zM1266 2052q-8 -15 16 -39
q9 -11 19.5 -14.5t15.5 2.5q9 13 79.5 61t127.5 76q14 6 39 16l-13 -104q0 -23 25 -41q8 -5 14.5 -6.5t10.5 0.5t4 8q4 45 16 135q3 22 -8 39q-25 43 -72 33q-14 -4 -59 -23q-59 -30 -131.5 -79.5t-83.5 -63.5z" />
    <glyph glyph-name="Idieresis" unicode="&#xcf;" horiz-adv-x="950" 
d="M-170 280q-1 -11 8 -26q10 -14 23.5 -24t23.5 -9l20 1q20 1 56 2t80 3t101.5 3.5t111.5 2.5q-2 -3 -5 -11t-5 -11q12 18 14 22q487 8 494 -34q3 -13 14.5 -27t24.5 -20q14 -8 21.5 -3.5t4.5 17.5q-20 109 -516 129q227 323 1077 1450l416 -6q10 0 12 10.5t-6 24.5
q-22 36 -49 36l-319 5l18 24q5 8 0 22t-18 27q-12 12 -25.5 16.5t-17.5 -1.5q-3 -3 -64 -86l-506 8q-23 0 -6 -35q9 -15 23 -26t24 -11l412 -6q-163 -217 -330.5 -448.5t-371.5 -535.5t-287 -468q-117 3 -215 2.5t-162 -3.5l-64 -3q-11 0 -12 -11zM1284 2120q0 -33 27 -60
q23 -26 53 -26q25 0 43 18q16 16 16 43q0 31 -26 57q-27 27 -56 27q-23 0 -41 -18q-16 -16 -16 -41zM1491 2120q0 -33 27 -60q26 -26 55 -26q23 0 41 18t18 43q0 32 -28 57q-24 27 -54 27q-21 0 -43 -18q-16 -16 -16 -41z" />
    <glyph glyph-name="Eth" unicode="&#xd0;" horiz-adv-x="2320" 
d="M-590 979q-10 -17 25 -49q12 -12 24.5 -13.5t16.5 7.5q0 4 20 48.5t71 125.5t124 173.5t192.5 192t262.5 182.5t348.5 143.5t437.5 76.5q554 39 901 -162q220 -126 311 -332q95 -206 41 -450q-65 -300 -340 -551q-144 -130 -320 -215.5t-345.5 -120t-343.5 -31.5
q-270 6 -486 94q-192 83 -258 199q-45 82 -18 176q51 176 229 258q109 50 238 53q136 6 258 -30q30 -8 86 -29q-343 -478 -221 -475q20 1 53 14q8 3 6 15.5t-12 27.5q-11 14 -25.5 21.5t-21.5 3.5q147 182 292 358q187 -101 263 -268q6 -13 19.5 -25.5t25.5 -15.5t16 6
t-2 23q-91 199 -291 319l82 100l158 -4q10 0 12 8.5t-6 20.5q-25 29 -47 29l-72 2l109 131q5 6 1 19.5t-16 25.5q-12 14 -25.5 20t-19.5 0l-151 -110q-7 -6 -3.5 -19.5t15.5 -27.5q3 -3 6 -9q-16 -21 -20 -28l-273 8q-10 0 -12 -8.5t6 -20.5q21 -28 47 -28l189 -7
q-8 -10 -24.5 -31.5t-24.5 -31.5q-67 33 -148 55q-140 39 -272 33q-141 -6 -248 -57q-189 -83 -244 -273q-30 -113 31 -225q89 -163 332 -268q230 -95 508 -101q272 -5 541 86t487 287q280 257 348 563q57 260 -49 490q-110 250 -377 405q-366 213 -940 174
q-235 -16 -443 -78t-353.5 -146t-266.5 -185t-195.5 -195t-126 -176t-72 -127.5t-20.5 -50.5z" />
    <glyph glyph-name="Ntilde" unicode="&#xd1;" horiz-adv-x="1691" 
d="M-561 1585q-5 -8 1 -22.5t19 -26.5q12 -12 25.5 -16t17.5 2q2 5 9 12.5t8 9.5q57 69 156.5 140t213.5 112q296 104 498 -39q16 -10 29 -20q49 -40 67.5 -116.5t11 -164.5t-39 -205t-68 -218t-90.5 -224.5t-93 -204.5t-89.5 -177t-65 -122.5t-34.5 -60.5l-1 -2
q-5 -8 1.5 -22.5t19.5 -26.5q14 -12 26 -15t17 4q367 514 727 919q601 678 870 672q42 -1 76 -20q49 -26 -42 -261q-36 -91 -155 -362q-45 -101 -70 -157.5t-65.5 -155.5t-61 -160.5t-46 -150t-31 -147t-5.5 -129t18.5 -119.5t53.5 -95t89 -77q14 -8 21.5 -5t6.5 15
q-2 12 -13 27t-24 22q-50 29 -72.5 81t-17 123.5t24.5 150t57.5 177.5t77 187.5t88.5 197.5q42 91 62 136q64 144 104.5 256t63.5 220t5.5 181.5t-77.5 106.5q-90 49 -229 -3t-286 -166.5t-316.5 -285.5t-307.5 -333t-272 -335q383 858 96 1092q-6 4 -18.5 13t-18.5 13
q-238 168 -553 56q-119 -43 -221.5 -115.5t-159.5 -142.5q-15 -20 -18 -23zM759.5 2033.5q4.5 -14.5 16.5 -28.5q13 -15 27 -20.5t20 0.5q3 3 8.5 7.5t22 14.5t32 15.5t36.5 3.5t39 -15q76 -56 135 -53q48 3 90 57q12 16 -19 51q-14 14 -27.5 19t-19.5 -2q-37 -46 -71 -49
q-38 0 -86 34q-31 22 -62.5 29t-55.5 0.5t-43.5 -16t-29.5 -18.5l-10 -9q-7 -6 -2.5 -20.5z" />
    <glyph glyph-name="Ograve" unicode="&#xd2;" horiz-adv-x="1929" 
d="M-625 1133q-6 -7 3.5 -35.5t21.5 -40.5q12 -13 25.5 -18t19.5 1q130 154 331.5 282t428.5 209.5t468.5 124t461.5 36.5q158 -6 284 -35q-247 -47 -454 -141q-582 -256 -824 -828q-137 -315 -18 -514q80 -131 246 -184q137 -45 327 -23q138 16 284 64.5t289.5 127
t273.5 195.5t220 256q96 149 140.5 292t41 253t-41.5 205q-66 159 -232 258q142 16 285 16t245 -10t177 -27q12 -1 16 7t-2 22q-6 15 -19.5 27.5t-25.5 15.5q-87 17 -200.5 27t-277.5 7.5t-323 -24.5q-100 40 -231.5 67.5t-253.5 31.5q-222 7 -462 -33.5t-466 -121
t-426.5 -207.5t-331.5 -283zM176 176q-96 160 29 455q240 560 813 817q255 112 563 158q12 -3 21 -9q178 -79 239 -221q108 -266 -166 -692q-117 -182 -294.5 -324.5t-363 -221.5t-366.5 -101q-183 -19 -307 20q-120 40 -168 119zM1257 2111q0 -22 23.5 -69.5t64.5 -88
t78 -34.5q3 0 7 4q14 7 -9 37q-18 18 -32 18q-1 2 -6.5 11t-8.5 14q-31 68 -31 94q0 22 -26 41q-10 8 -35 -4.5t-25 -22.5z" />
    <glyph glyph-name="Oacute" unicode="&#xd3;" horiz-adv-x="1929" 
d="M-625 1133q-6 -7 3.5 -35.5t21.5 -40.5q12 -13 25.5 -18t19.5 1q130 154 331.5 282t428.5 209.5t468.5 124t461.5 36.5q158 -6 284 -35q-247 -47 -454 -141q-582 -256 -824 -828q-137 -315 -18 -514q80 -131 246 -184q137 -45 327 -23q138 16 284 64.5t289.5 127
t273.5 195.5t220 256q96 149 140.5 292t41 253t-41.5 205q-66 159 -232 258q142 16 285 16t245 -10t177 -27q12 -1 16 7t-2 22q-6 15 -19.5 27.5t-25.5 15.5q-87 17 -200.5 27t-277.5 7.5t-323 -24.5q-100 40 -231.5 67.5t-253.5 31.5q-222 7 -462 -33.5t-466 -121
t-426.5 -207.5t-331.5 -283zM176 176q-96 160 29 455q240 560 813 817q255 112 563 158q12 -3 21 -9q178 -79 239 -221q108 -266 -166 -692q-117 -182 -294.5 -324.5t-363 -221.5t-366.5 -101q-183 -19 -307 20q-120 40 -168 119zM1417 2003q-3 6 3 16t18 17q23 13 37 10
q6 4 20 18q47 51 55 82q3 9 14 18.5t23 14.5q13 4 32.5 -14.5t16.5 -28.5q-6 -22 -41.5 -61t-85.5 -66.5t-84 -11.5q-4 2 -8 6z" />
    <glyph glyph-name="Ocircumflex" unicode="&#xd4;" horiz-adv-x="1929" 
d="M-625 1133q-6 -7 3.5 -35.5t21.5 -40.5q12 -13 25.5 -18t19.5 1q130 154 331.5 282t428.5 209.5t468.5 124t461.5 36.5q158 -6 284 -35q-247 -47 -454 -141q-582 -256 -824 -828q-137 -315 -18 -514q80 -131 246 -184q137 -45 327 -23q138 16 284 64.5t289.5 127
t273.5 195.5t220 256q96 149 140.5 292t41 253t-41.5 205q-66 159 -232 258q142 16 285 16t245 -10t177 -27q12 -1 16 7t-2 22q-6 15 -19.5 27.5t-25.5 15.5q-87 17 -200.5 27t-277.5 7.5t-323 -24.5q-100 40 -231.5 67.5t-253.5 31.5q-222 7 -462 -33.5t-466 -121
t-426.5 -207.5t-331.5 -283zM176 176q-96 160 29 455q240 560 813 817q255 112 563 158q12 -3 21 -9q178 -79 239 -221q108 -266 -166 -692q-117 -182 -294.5 -324.5t-363 -221.5t-366.5 -101q-183 -19 -307 20q-120 40 -168 119zM1257 1993q-10 -10 15 -39q10 -10 21 -13.5
t14 1.5q9 12 80 60.5t129 78.5q35 15 38 16l-12 -104q-3 -19 25 -43q25 -18 28 2q3 45 17 137q3 19 -10 39q-25 41 -70 31q-9 -1 -59 -23q-60 -30 -134 -80t-82 -63z" />
    <glyph glyph-name="Otilde" unicode="&#xd5;" horiz-adv-x="1929" 
d="M-625 1133q-6 -7 3.5 -35.5t21.5 -40.5q12 -13 25.5 -18t19.5 1q130 154 331.5 282t428.5 209.5t468.5 124t461.5 36.5q158 -6 284 -35q-247 -47 -454 -141q-582 -256 -824 -828q-137 -315 -18 -514q80 -131 246 -184q137 -45 327 -23q138 16 284 64.5t289.5 127
t273.5 195.5t220 256q96 149 140.5 292t41 253t-41.5 205q-66 159 -232 258q142 16 285 16t245 -10t177 -27q12 -1 16 7t-2 22q-6 15 -19.5 27.5t-25.5 15.5q-87 17 -200.5 27t-277.5 7.5t-323 -24.5q-100 40 -231.5 67.5t-253.5 31.5q-222 7 -462 -33.5t-466 -121
t-426.5 -207.5t-331.5 -283zM176 176q-96 160 29 455q240 560 813 817q255 112 563 158q12 -3 21 -9q178 -79 239 -221q108 -266 -166 -692q-117 -182 -294.5 -324.5t-363 -221.5t-366.5 -101q-183 -19 -307 20q-120 40 -168 119zM1302 2066.5q5 -14.5 17 -28.5
q13 -15 27 -21t20 0q3 3 8.5 7.5t21.5 14.5t31.5 15.5t36.5 4t39 -14.5q76 -56 135 -53q49 3 91 57q5 8 -1.5 23t-19.5 28q-12 14 -25.5 19t-19.5 -2q-35 -47 -74 -50q-34 -3 -84 35q-31 22 -63.5 28.5t-56 0.5t-43 -15.5t-29.5 -18.5l-10 -9q-6 -6 -1 -20.5z" />
    <glyph glyph-name="Odieresis" unicode="&#xd6;" horiz-adv-x="1929" 
d="M-625 1133q-6 -7 3.5 -35.5t21.5 -40.5q12 -13 25.5 -18t19.5 1q130 154 331.5 282t428.5 209.5t468.5 124t461.5 36.5q158 -6 284 -35q-247 -47 -454 -141q-582 -256 -824 -828q-137 -315 -18 -514q80 -131 246 -184q137 -45 327 -23q138 16 284 64.5t289.5 127
t273.5 195.5t220 256q96 149 140.5 292t41 253t-41.5 205q-66 159 -232 258q142 16 285 16t245 -10t177 -27q12 -1 16 7t-2 22q-6 15 -19.5 27.5t-25.5 15.5q-87 17 -200.5 27t-277.5 7.5t-323 -24.5q-100 40 -231.5 67.5t-253.5 31.5q-222 7 -462 -33.5t-466 -121
t-426.5 -207.5t-331.5 -283zM176 176q-96 160 29 455q240 560 813 817q255 112 563 158q12 -3 21 -9q178 -79 239 -221q108 -266 -166 -692q-117 -182 -294.5 -324.5t-363 -221.5t-366.5 -101q-183 -19 -307 20q-120 40 -168 119zM1284 2120q0 -33 27 -60q23 -26 53 -26
q25 0 43 18q16 16 16 43q0 31 -26 57q-27 27 -56 27q-23 0 -41 -18q-16 -16 -16 -41zM1491 2120q0 -33 27 -60q26 -26 55 -26q23 0 41 18t18 43q0 32 -28 57q-24 27 -54 27q-21 0 -43 -18q-16 -16 -16 -41z" />
    <glyph glyph-name="multiply" unicode="&#xd7;" horiz-adv-x="2048" 
 />
    <glyph glyph-name="Oslash" unicode="&#xd8;" horiz-adv-x="1929" 
d="M-625 1133q-6 -7 3.5 -34.5t21.5 -41.5q12 -13 25.5 -18t19.5 1q130 155 331.5 283.5t428.5 210t468 123.5t460 35q160 -6 286 -35q-244 -47 -454 -139q-584 -262 -824 -830q-137 -315 -18 -512q42 -71 110 -121q-119 -151 -114 -184q6 -59 57 -53q8 2 8 11t-8 19
q0 5 -2 5q17 43 119 167q41 -20 76 -30q137 -45 327 -23q138 16 284 64.5t289.5 127t273.5 195.5t220 256q96 150 140.5 293t41 252.5t-41.5 204.5q-61 142 -201 237q4 4 11 13.5t11 13.5q223 16 382.5 7t271.5 -34q12 -2 16 7t-2 24q-6 13 -19.5 25.5t-25.5 15.5
q-235 49 -559 33q92 122 84 143q-16 58 -62 43q-6 -2 -4.5 -12t9.5 -21q2 -2 2 -4q-10 -19 -119 -155q-25 -2 -152 -17q-100 40 -231.5 67.5t-253.5 31.5q-223 7 -463 -33.5t-465.5 -120.5t-426 -207t-331.5 -284zM176 176q-96 160 29 455q241 562 813 817q250 110 563 160
q12 -6 21 -9q4 -4 8 -4q-143 -164 -584 -647q-561 -607 -764 -856q-61 38 -86 84zM328 63q184 222 745 834q464 507 598 666q125 -77 170 -187q107 -263 -166 -692q-89 -138 -213 -254.5t-260 -196t-277 -130t-274 -66.5q-183 -19 -307 20q-12 4 -16 6z" />
    <glyph glyph-name="Ugrave" unicode="&#xd9;" horiz-adv-x="1349" 
d="M-758 1331q-3 -9 4.5 -24t20.5 -25q13 -12 25.5 -13.5t15.5 7.5q47 132 285 254q224 115 492 165q255 48 366 -1q59 -26 59 -78q-1 -44 -19.5 -100t-64 -140t-79 -141t-105.5 -174q-10 -18 -31 -52t-31 -51q-160 -263 -180 -479q-9 -119 31 -198q43 -91 122.5 -123
t178.5 -6q242 62 747 596q-324 -595 -123 -809q12 -12 25.5 -17.5t19.5 0.5t1 20.5t-17 26.5q-55 58 -55 161t40.5 219t115.5 258t154.5 265.5t174.5 255.5q188 229 338 439q6 7 0.5 22t-18.5 27q-29 28 -43 14l-20 -20q-20 -20 -56 -57.5t-79 -85t-96.5 -114t-99.5 -132.5
q-70 -86 -112 -136.5t-137 -160.5t-164 -184t-167.5 -172.5t-174.5 -162t-158.5 -116t-144.5 -68.5q-153 -37 -195 49q-29 63 -20 160q16 209 176 467q13 24 61 102q62 103 86.5 143.5t69.5 121t63.5 123t34.5 94.5t16 90q1 151 -175 204t-452 -4q-273 -56 -475 -183
q-191 -120 -231 -257zM1092 2120q-1 -22 22 -70t63.5 -88.5t77.5 -34.5q5 0 9 4q5 3 1.5 15t-12.5 22q-16 19 -30 19q-12 18 -15 24q-32 62 -32 94q0 23 -27 43q-10 7 -33.5 -5.5t-23.5 -22.5z" />
    <glyph glyph-name="Uacute" unicode="&#xda;" horiz-adv-x="1349" 
d="M-758 1331q-3 -9 4.5 -24t20.5 -25q13 -12 25.5 -13.5t15.5 7.5q47 132 285 254q224 115 492 165q255 48 366 -1q59 -26 59 -78q-1 -44 -19.5 -100t-64 -140t-79 -141t-105.5 -174q-10 -18 -31 -52t-31 -51q-160 -263 -180 -479q-9 -119 31 -198q43 -91 122.5 -123
t178.5 -6q242 62 747 596q-324 -595 -123 -809q12 -12 25.5 -17.5t19.5 0.5t1 20.5t-17 26.5q-55 58 -55 161t40.5 219t115.5 258t154.5 265.5t174.5 255.5q188 229 338 439q6 7 0.5 22t-18.5 27q-29 28 -43 14l-20 -20q-20 -20 -56 -57.5t-79 -85t-96.5 -114t-99.5 -132.5
q-70 -86 -112 -136.5t-137 -160.5t-164 -184t-167.5 -172.5t-174.5 -162t-158.5 -116t-144.5 -68.5q-153 -37 -195 49q-29 63 -20 160q16 209 176 467q13 24 61 102q62 103 86.5 143.5t69.5 121t63.5 123t34.5 94.5t16 90q1 151 -175 204t-452 -4q-273 -56 -475 -183
q-191 -120 -231 -257zM1001 1794q-9 12 21 35q22 15 35 8q3 3 9.5 10t10.5 11q53 56 58 81q1 7 12.5 16.5t23.5 14.5q11 4 31.5 -13.5t18.5 -27.5q-7 -22 -43 -61.5t-86 -67t-84 -10.5q-3 0 -7 4z" />
    <glyph glyph-name="Ucircumflex" unicode="&#xdb;" horiz-adv-x="1349" 
d="M-758 1331q-3 -9 4.5 -24t20.5 -25q13 -12 25.5 -13.5t15.5 7.5q47 132 285 254q224 115 492 165q255 48 366 -1q59 -26 59 -78q-1 -44 -19.5 -100t-64 -140t-79 -141t-105.5 -174q-10 -18 -31 -52t-31 -51q-160 -263 -180 -479q-9 -119 31 -198q43 -91 122.5 -123
t178.5 -6q242 62 747 596q-324 -595 -123 -809q12 -12 25.5 -17.5t19.5 0.5t1 20.5t-17 26.5q-55 58 -55 161t40.5 219t115.5 258t154.5 265.5t174.5 255.5q188 229 338 439q6 7 0.5 22t-18.5 27q-29 28 -43 14l-20 -20q-20 -20 -56 -57.5t-79 -85t-96.5 -114t-99.5 -132.5
q-70 -86 -112 -136.5t-137 -160.5t-164 -184t-167.5 -172.5t-174.5 -162t-158.5 -116t-144.5 -68.5q-153 -37 -195 49q-29 63 -20 160q16 209 176 467q13 24 61 102q62 103 86.5 143.5t69.5 121t63.5 123t34.5 94.5t16 90q1 151 -175 204t-452 -4q-273 -56 -475 -183
q-191 -120 -231 -257zM965 1835q-10 -13 14 -41q11 -9 21.5 -12.5t13.5 2.5q9 13 80.5 61t128.5 76q32 13 39 16l-13 -104q0 -23 25 -41q7 -6 13.5 -7.5t11 0.5t4.5 7q0 34 16 137q3 22 -8 39q-28 43 -72 33q-21 -5 -59 -25q-58 -28 -132 -78t-83 -63z" />
    <glyph glyph-name="Udieresis" unicode="&#xdc;" horiz-adv-x="1349" 
d="M-758 1331q-3 -9 4.5 -24t20.5 -25q13 -12 25.5 -13.5t15.5 7.5q47 132 285 254q224 115 492 165q255 48 366 -1q59 -26 59 -78q-1 -44 -19.5 -100t-64 -140t-79 -141t-105.5 -174q-10 -18 -31 -52t-31 -51q-160 -263 -180 -479q-9 -119 31 -198q43 -91 122.5 -123
t178.5 -6q242 62 747 596q-324 -595 -123 -809q12 -12 25.5 -17.5t19.5 0.5t1 20.5t-17 26.5q-55 58 -55 161t40.5 219t115.5 258t154.5 265.5t174.5 255.5q188 229 338 439q6 7 0.5 22t-18.5 27q-29 28 -43 14l-20 -20q-20 -20 -56 -57.5t-79 -85t-96.5 -114t-99.5 -132.5
q-70 -86 -112 -136.5t-137 -160.5t-164 -184t-167.5 -172.5t-174.5 -162t-158.5 -116t-144.5 -68.5q-153 -37 -195 49q-29 63 -20 160q16 209 176 467q13 24 61 102q62 103 86.5 143.5t69.5 121t63.5 123t34.5 94.5t16 90q1 151 -175 204t-452 -4q-273 -56 -475 -183
q-191 -120 -231 -257zM942 1927q0 -32 27 -59q22 -25 53 -25q26 0 43 17q16 16 16 43q0 30 -26 59q-25 25 -56 25q-25 0 -41 -19q-16 -16 -16 -41zM1149 1927q0 -32 27 -59q25 -25 55 -25q24 0 41 17q18 15 18 43q0 30 -26 59q-29 25 -56 25q-25 0 -41 -19q-18 -15 -18 -41z
" />
    <glyph glyph-name="Yacute" unicode="&#xdd;" horiz-adv-x="1810" 
d="M-481 1329q-5 -8 1 -22.5t19 -26.5q13 -13 44.5 -26.5t37.5 -6.5q74 108 210 194.5t291 136.5t314.5 72.5t294.5 12.5q132 -10 156 -37q1 -1 0 -1t-1.5 -1t-0.5 -2q-2 -28 -17 -65.5t-51.5 -101t-57 -96t-75.5 -120.5q-60 -93 -93 -147t-77 -132.5t-65.5 -138
t-24.5 -106.5q-10 -174 182 -185q46 -3 99 11t115 47.5t116 66.5t128 92.5t122 98.5t127 112t115 107t112 106q172 164 209 195q-25 -74 -88 -219q-91 -209 -170 -367q-356 -148 -678.5 -344t-521.5 -399q-50 -51 -96 -110.5t-89 -137.5t-66 -152.5t-17 -154.5t49 -144
q57 -81 164 -129l2 -2q4 -1 13 -4t13 -4q86 -28 186.5 10.5t205.5 134t206.5 221t208.5 288.5q249 380 481 862q113 45 189 69q9 3 8 16t-12 27q-10 13 -24.5 21.5t-22.5 5.5q-13 -4 -26.5 -8.5t-30.5 -11t-27 -9.5q60 129 118 265q82 187 109 272q29 90 -47 115
q-39 12 -287 -225q-12 -11 -18 -17q-258 -247 -368 -342q-375 -324 -556 -313q-69 5 -65 88q3 44 23.5 100.5t65 136.5t73.5 127t91 146q71 111 103 162.5t66.5 123t37.5 111.5t-34 80q-62 69 -226 78q-132 10 -302 -12.5t-338 -71t-314.5 -133t-218.5 -187.5zM89.5 -556
q-1.5 55 21.5 113.5t54.5 115t76 113t78 95t67.5 74.5q192 195 468 382t579 325q-213 -425 -426 -748q-105 -160 -203.5 -283t-198.5 -217t-194.5 -133t-173.5 -14q-15 5 -19 6l-2 2q-70 30 -98 72t-29.5 97zM1257 1616q-3 6 3 16t18 17q21 15 35 10l20 20q52 56 58 82
q3 8 13.5 17.5t22.5 13.5q13 4 33 -14.5t17 -26.5q-6 -22 -41.5 -61.5t-86 -67t-85.5 -10.5q-3 0 -7 4zM1808 1407q4 4 4 0l6 -1q-2 0 -10 1z" />
    <glyph glyph-name="Thorn" unicode="&#xde;" horiz-adv-x="1402" 
d="M39 31q-7 -14 35 -47q39 -30 45 -21l129 348q214 -30 373 4q230 43 378 201q128 134 158 309q13 90 -2 162q-34 170 -231 270q-125 61 -297 70l121 328q7 14 -35 47q-11 9 -21.5 14.5t-16 7t-7.5 -1.5l-498 -1337l-14 2q-7 1 -6 -5q1 -9 12 -22zM270 373l330 882h4
q51 7 161 -4t202 -57q87 -44 108 -147q15 -74 0 -158q-27 -170 -153 -305q-146 -153 -375 -199q-123 -24 -277 -12z" />
    <glyph glyph-name="germandbls" unicode="&#xdf;" horiz-adv-x="1671" 
d="M18 135q-14 -3 11 -31l6 -6q38 -38 55 -35q18 1 37 20.5t41 64t40.5 88.5t45 122.5t45 134.5t49.5 156q146 457 232 662q190 452 372 491q7 1 15 2q143 14 184 -43q30 -50 39 -116q6 -70 -16 -150q-31 -106 -112 -188.5t-200 -110.5q-116 -25 -106 -68q8 -38 54.5 -74
t139.5 -91q48 -30 71.5 -45.5t72.5 -51t76.5 -62.5t63.5 -70.5t54 -84.5t29 -94.5t6 -110.5q-7 -74 -41 -140t-86 -115.5t-116 -86t-136 -57.5q-115 -33 -235 -20q-107 13 -162 59q-59 48 -73 140.5t24 244.5q2 6 -9 20t-28 27q-10 9 -19.5 15t-15.5 7t-8 -3
q-32 -108 -24 -199t43.5 -158.5t97.5 -118.5q102 -87 241 -106q129 -13 244 22q153 44 261.5 151.5t121.5 254.5q5 53 -2.5 103.5t-22 92.5t-43 86t-54 76t-67.5 69.5t-71 60.5t-77 55.5t-73 48t-71 43.5q-84 53 -86 55q-7 31 102 53q120 28 202 112t115 194q21 77 15 153
t-51 143q-122 173 -326 150q-55 -6 -109.5 -48.5t-101 -105t-95.5 -158t-87.5 -186.5t-82.5 -214.5t-75 -218t-71 -218.5q-2 -7 -3 -10q-23 -72 -37.5 -117.5t-34.5 -107t-34 -100t-31.5 -84.5t-31 -73t-28.5 -52t-28 -36.5t-25 -11.5z" />
    <glyph glyph-name="agrave" unicode="&#xe0;" 
d="M-106 465q-6 -46 24 -86q25 -25 41 -31q31 -14 79.5 18t115.5 95q-1 -74 45.5 -96t117.5 16q38 20 96.5 68.5t174.5 152.5q17 17 -6 43q-20 19 -41 -2q-1 0 -14 -11q-258 -208 -265 -165q-11 51 17 121q9 15 -17 45q-13 13 -26 17.5t-19 -1.5q-8 -9 -21 -23.5t-48.5 -53
t-67 -69t-66.5 -58t-55 -33.5q35 144 141 229q21 17 54 32.5t68.5 20.5t56.5 -14q6 -13 19.5 -25.5t25.5 -15.5t16 5.5t-2 23.5q-17 57 -70.5 79.5t-116 10t-108.5 -50.5q-80 -65 -127 -164q-19 -43 -22 -78zM121 975q0 -30 41.5 -89t81.5 -52q4 0 4 2q10 6 -6 26
q-14 18 -23 15q-8 12 -10 18q-25 48 -25 70q0 16 -18 30q-8 6 -25.5 -3t-19.5 -17z" />
    <glyph glyph-name="aacute" unicode="&#xe1;" 
d="M-106 465q-6 -46 24 -86q25 -25 41 -31q31 -14 79.5 18t115.5 95q-1 -74 45.5 -96t117.5 16q38 20 96.5 68.5t174.5 152.5q17 17 -6 43q-20 19 -41 -2q-1 0 -14 -11q-258 -208 -265 -165q-11 51 17 121q9 15 -17 45q-13 13 -26 17.5t-19 -1.5q-8 -9 -21 -23.5t-48.5 -53
t-67 -69t-66.5 -58t-55 -33.5q35 144 141 229q21 17 54 32.5t68.5 20.5t56.5 -14q6 -13 19.5 -25.5t25.5 -15.5t16 5.5t-2 23.5q-17 57 -70.5 79.5t-116 10t-108.5 -50.5q-80 -65 -127 -164q-19 -43 -22 -78zM193 844q1 -1 3 -2t3 -2q38 -11 85.5 43.5t49.5 83.5q2 8 -15 19
t-24 5q-21 -11 -25 -26q0 -21 -30 -68q-6 -9 -13 -16q-10 3 -24 -11q-18 -18 -10 -26z" />
    <glyph glyph-name="acircumflex" unicode="&#xe2;" 
d="M-106 465q-6 -46 24 -86q25 -25 41 -31q31 -14 79.5 18t115.5 95q-1 -74 45.5 -96t117.5 16q38 20 96.5 68.5t174.5 152.5q17 17 -6 43q-20 19 -41 -2q-1 0 -14 -11q-258 -208 -265 -165q-11 51 17 121q9 15 -17 45q-13 13 -26 17.5t-19 -1.5q-8 -9 -21 -23.5t-48.5 -53
t-67 -69t-66.5 -58t-55 -33.5q35 144 141 229q21 17 54 32.5t68.5 20.5t56.5 -14q6 -13 19.5 -25.5t25.5 -15.5t16 5.5t-2 23.5q-17 57 -70.5 79.5t-116 10t-108.5 -50.5q-80 -65 -127 -164q-19 -43 -22 -78zM59 868q-3 -3 0.5 -12t10.5 -16q19 -19 26 -9q7 9 60 45.5
t94 57.5q25 10 29 12l-9 -78q-1 -6 4.5 -15t14.5 -15q8 -6 14 -6t6 6q3 34 13 102q3 13 -7 29q-20 32 -53 22q-19 -3 -45 -16q-43 -21 -97 -58.5t-61 -48.5z" />
    <glyph glyph-name="atilde" unicode="&#xe3;" 
d="M-106 465q-6 -46 24 -86q25 -25 41 -31q31 -14 79.5 18t115.5 95q-1 -74 45.5 -96t117.5 16q38 20 96.5 68.5t174.5 152.5q17 17 -6 43q-20 19 -41 -2q-1 0 -14 -11q-258 -208 -265 -165q-11 51 17 121q9 15 -17 45q-13 13 -26 17.5t-19 -1.5q-8 -9 -21 -23.5t-48.5 -53
t-67 -69t-66.5 -58t-55 -33.5q35 144 141 229q21 17 54 32.5t68.5 20.5t56.5 -14q6 -13 19.5 -25.5t25.5 -15.5t16 5.5t-2 23.5q-17 57 -70.5 79.5t-116 10t-108.5 -50.5q-80 -65 -127 -164q-19 -43 -22 -78zM127 878.5q3 -9.5 10 -16.5q7 -9 15.5 -12t11.5 0q2 2 5 4.5
t12.5 8.5t18.5 9t21.5 1.5t22.5 -9.5q40 -30 78 -30q28 3 53 34q3 3 -1 12t-12 17q-7 9 -15 12t-11 -2q-16 -25 -43 -28q-20 0 -49 20q-32 20 -58 18t-42 -14l-17 -12q-3 -3 0 -12.5z" />
    <glyph glyph-name="adieresis" unicode="&#xe4;" 
d="M-106 465q-6 -46 24 -86q25 -25 41 -31q31 -14 79.5 18t115.5 95q-1 -74 45.5 -96t117.5 16q38 20 96.5 68.5t174.5 152.5q17 17 -6 43q-20 19 -41 -2q-1 0 -14 -11q-258 -208 -265 -165q-11 51 17 121q9 15 -17 45q-13 13 -26 17.5t-19 -1.5q-8 -9 -21 -23.5t-48.5 -53
t-67 -69t-66.5 -58t-55 -33.5q35 144 141 229q21 17 54 32.5t68.5 20.5t56.5 -14q6 -13 19.5 -25.5t25.5 -15.5t16 5.5t-2 23.5q-17 57 -70.5 79.5t-116 10t-108.5 -50.5q-80 -65 -127 -164q-19 -43 -22 -78zM139 881q0 -18 13 -31q14 -14 28 -14t21 10q10 7 10 20
q0 17 -14 31q-12 12 -29 12q-16 0 -21 -8q-8 -5 -8 -20zM246 881q0 -20 14 -31q10 -14 27 -14q12 0 22 10q8 8 8 20q0 17 -14 31q-12 12 -27 12q-14 0 -22 -8q-8 -5 -8 -20z" />
    <glyph glyph-name="aring" unicode="&#xe5;" 
d="M-106 465q-6 -46 24 -86q25 -25 41 -31q31 -14 79.5 18t115.5 95q-1 -74 45.5 -96t117.5 16q38 20 96.5 68.5t174.5 152.5q17 17 -6 43q-20 19 -41 -2q-1 0 -14 -11q-258 -208 -265 -165q-11 51 17 121q9 15 -17 45q-13 13 -26 17.5t-19 -1.5q-8 -9 -21 -23.5t-48.5 -53
t-67 -69t-66.5 -58t-55 -33.5q35 144 141 229q21 17 54 32.5t68.5 20.5t56.5 -14q6 -13 19.5 -25.5t25.5 -15.5t16 5.5t-2 23.5q-17 57 -70.5 79.5t-116 10t-108.5 -50.5q-80 -65 -127 -164q-19 -43 -22 -78zM141 905q0 -32 29 -61q25 -25 55 -25q26 0 45 19t19 45
q0 31 -27 61q-29 25 -57 25q-26 0 -45 -19t-19 -45zM174 883q0 19 14 37q17 14 37 14t25 -8q6 -6 6 -21q0 -24 -14 -35q-16 -16 -37 -16q-17 0 -25 8q-6 6 -6 21z" />
    <glyph glyph-name="ae" unicode="&#xe6;" 
d="M-106 465q-6 -46 24 -86q25 -25 41 -31q31 -14 79.5 18t115.5 95q-1 -74 45.5 -96t117.5 16q38 20 96.5 68.5t174.5 152.5q17 17 -6 43q-20 19 -41 -2q-1 0 -14 -11q-258 -208 -265 -165q-11 51 17 121q9 15 -17 45q-13 13 -26 17.5t-19 -1.5q-8 -9 -21 -23.5t-48.5 -53
t-67 -69t-66.5 -58t-55 -33.5q35 144 141 229q21 17 54 32.5t68.5 20.5t56.5 -14q6 -13 19.5 -25.5t25.5 -15.5t16 5.5t-2 23.5q-17 57 -70.5 79.5t-116 10t-108.5 -50.5q-80 -65 -127 -164q-19 -43 -22 -78z" />
    <glyph glyph-name="ccedilla" unicode="&#xe7;" horiz-adv-x="509" 
d="M-98 469q-3 -72 61 -131q22 -20 56 -23.5t72.5 6.5t82.5 29t87.5 44.5t85 52.5t77.5 53.5t62.5 47t42.5 33.5l16 13q14 14 -15 47q-8 2 -23.5 -10.5t-17.5 -12.5l-24 -17q-24 -17 -62 -43.5t-87 -57.5t-99 -59t-97.5 -48t-82.5 -24.5t-55 10.5q-15 15 -15 45q3 38 25 80
q25 45 61 84q47 53 102 90t85 35q4 0 -2.5 -18t-15 -36t-9.5 -18q-3 -8 4.5 -22.5t20.5 -26.5q12 -12 24 -14.5t17 6.5q2 4 5 11t9.5 27.5t9 39t0.5 41t-12 39.5t-33 29t-59 13q-35 2 -95.5 -37t-111.5 -96q-46 -54 -64 -88q-26 -50 -26 -94z" />
    <glyph glyph-name="egrave" unicode="&#xe8;" horiz-adv-x="493" 
d="M-72 553q-12 -59 16 -115t81 -86q53 -29 132 -10t158.5 63.5t142.5 97.5t85 91q9 17 -11 37q-14 10 -27 5.5t-18 -15.5q-28 -51 -152 -120q-148 -81 -252 -90q-99 -8 -95 65q1 31 22 75q8 0 35.5 4.5t80 19.5t95.5 37q72 37 113 113q18 35 20 57q6 39 -24 74
q-22 25 -49 31q-39 7 -138 -62q-71 -52 -133 -120q-67 -77 -82 -152zM76 645q46 53 125 113q46 34 80 49q-2 -4 -5.5 -11.5t-5.5 -11.5q-43 -72 -102 -104q-65 -28 -92 -35zM172 1079q0 -30 41 -89t80 -52q4 0 6 2q9 10 -8 27q-11 14 -23 14q-2 3 -5 9t-5 9q-25 56 -25 70
q3 14 -18 31q-7 6 -25 -3.5t-18 -17.5z" />
    <glyph glyph-name="eacute" unicode="&#xe9;" horiz-adv-x="493" 
d="M-72 553q-12 -59 16 -115t81 -86q53 -29 132 -10t158.5 63.5t142.5 97.5t85 91q9 17 -11 37q-14 10 -27 5.5t-18 -15.5q-28 -51 -152 -120q-148 -81 -252 -90q-99 -8 -95 65q1 31 22 75q8 0 35.5 4.5t80 19.5t95.5 37q72 37 113 113q18 35 20 57q6 39 -24 74
q-22 25 -49 31q-39 7 -138 -62q-71 -52 -133 -120q-67 -77 -82 -152zM76 645q46 53 125 113q46 34 80 49q-2 -4 -5.5 -11.5t-5.5 -11.5q-43 -72 -102 -104q-65 -28 -92 -35zM256 938l4 -4q39 -11 87 43.5t50 85.5q2 6 -15 17t-26 7q-19 -15 -22 -28q0 -21 -31 -66
q-6 -12 -12 -18q-11 4 -25 -10q-20 -20 -10 -27z" />
    <glyph glyph-name="ecircumflex" unicode="&#xea;" horiz-adv-x="493" 
d="M-72 553q-12 -59 16 -115t81 -86q53 -29 132 -10t158.5 63.5t142.5 97.5t85 91q9 17 -11 37q-14 10 -27 5.5t-18 -15.5q-28 -51 -152 -120q-148 -81 -252 -90q-99 -8 -95 65q1 31 22 75q8 0 35.5 4.5t80 19.5t95.5 37q72 37 113 113q18 35 20 57q6 39 -24 74
q-22 25 -49 31q-39 7 -138 -62q-71 -52 -133 -120q-67 -77 -82 -152zM76 645q46 53 125 113q46 34 80 49q-2 -4 -5.5 -11.5t-5.5 -11.5q-43 -72 -102 -104q-65 -28 -92 -35zM170 944q3 -9 10 -16q19 -19 27 -8q5 8 58 44t95 58q25 10 29 12l-10 -78q0 -17 20 -30
q8 -6 14.5 -6t6.5 6q2 34 12 102q3 11 -8 29q-19 32 -51 22q-19 -3 -45 -16q-43 -21 -97 -58.5t-61 -48.5q-3 -3 0 -12z" />
    <glyph glyph-name="edieresis" unicode="&#xeb;" horiz-adv-x="493" 
d="M-72 553q-12 -59 16 -115t81 -86q53 -29 132 -10t158.5 63.5t142.5 97.5t85 91q9 17 -11 37q-14 10 -27 5.5t-18 -15.5q-28 -51 -152 -120q-148 -81 -252 -90q-99 -8 -95 65q1 31 22 75q8 0 35.5 4.5t80 19.5t95.5 37q72 37 113 113q18 35 20 57q6 39 -24 74
q-22 25 -49 31q-39 7 -138 -62q-71 -52 -133 -120q-67 -77 -82 -152zM76 645q46 53 125 113q46 34 80 49q-2 -4 -5.5 -11.5t-5.5 -11.5q-43 -72 -102 -104q-65 -28 -92 -35zM223 989q0 -16 15 -31q12 -12 28 -12q13 0 21 8t8 23q0 19 -12 31t-29 12q-13 0 -21 -8
q-10 -10 -10 -23zM330 989q0 -17 14 -31q12 -12 29 -12q12 0 20 8q10 10 10 23q0 17 -14 31q-12 12 -29 12q-12 0 -20 -8q-10 -10 -10 -23z" />
    <glyph glyph-name="igrave" unicode="&#xec;" horiz-adv-x="337" 
d="M-57 383q16 -28 43.5 -35t60.5 3.5t70.5 32t73 49.5t69 56.5t58 53t40.5 39.5l15 16q5 5 7 8t0.5 10t-9.5 15q-16 17 -39 -6q0 -3 -59.5 -57t-137.5 -106.5t-115 -47.5q-35 17 7 100q32 61 79 121t84 92q7 6 3.5 19.5t-15.5 27.5t-25.5 19.5t-21.5 -0.5q-38 -31 -87 -94
t-81 -126q-60 -120 -20 -190zM72 1012q-1 -17 16 -53t47 -66t58 -25q1 0 3 1t3 1q8 8 -9 29q-14 14 -22 14q-6 6 -10 17q-25 48 -25 69q0 17 -18 31q-8 6 -25.5 -2.5t-17.5 -15.5z" />
    <glyph glyph-name="iacute" unicode="&#xed;" horiz-adv-x="337" 
d="M-57 383q16 -28 43.5 -35t60.5 3.5t70.5 32t73 49.5t69 56.5t58 53t40.5 39.5l15 16q5 5 7 8t0.5 10t-9.5 15q-16 17 -39 -6q0 -3 -59.5 -57t-137.5 -106.5t-115 -47.5q-35 17 7 100q32 61 79 121t84 92q7 6 3.5 19.5t-15.5 27.5t-25.5 19.5t-21.5 -0.5q-38 -31 -87 -94
t-81 -126q-60 -120 -20 -190zM176 870l4 -4q39 -11 87 43.5t50 83.5q2 8 -15 19.5t-26 5.5q-18 -11 -22 -27q0 -19 -31 -67q-10 -15 -12 -17q-11 4 -25 -10q-20 -20 -10 -27z" />
    <glyph glyph-name="icircumflex" unicode="&#xee;" horiz-adv-x="337" 
d="M-57 383q16 -28 43.5 -35t60.5 3.5t70.5 32t73 49.5t69 56.5t58 53t40.5 39.5l15 16q5 5 7 8t0.5 10t-9.5 15q-16 17 -39 -6q0 -3 -59.5 -57t-137.5 -106.5t-115 -47.5q-35 17 7 100q32 61 79 121t84 92q7 6 3.5 19.5t-15.5 27.5t-25.5 19.5t-21.5 -0.5q-38 -31 -87 -94
t-81 -126q-60 -120 -20 -190zM41 901q-7 -10 12 -29q17 -18 25 -10q7 10 59 46t96 57q15 9 29 12l-10 -76q0 -17 18 -31q21 -14 21 0q2 35 14 101q0 17 -8 30q-21 29 -53 23q-16 -3 -43 -16q-45 -23 -99.5 -60t-60.5 -47z" />
    <glyph glyph-name="idieresis" unicode="&#xef;" horiz-adv-x="337" 
d="M-57 383q16 -28 43.5 -35t60.5 3.5t70.5 32t73 49.5t69 56.5t58 53t40.5 39.5l15 16q5 5 7 8t0.5 10t-9.5 15q-16 17 -39 -6q0 -3 -59.5 -57t-137.5 -106.5t-115 -47.5q-35 17 7 100q32 61 79 121t84 92q7 6 3.5 19.5t-15.5 27.5t-25.5 19.5t-21.5 -0.5q-38 -31 -87 -94
t-81 -126q-60 -120 -20 -190zM139 926q0 -18 13 -31q12 -12 28 -12q15 0 23 8q8 12 8 22q0 13 -14 31q-16 12 -29 12q-11 0 -21 -10q-8 -5 -8 -20zM246 926q0 -20 14 -31q12 -12 27 -12q14 0 22 8q8 12 8 22q0 17 -14 31q-16 12 -27 12q-12 0 -22 -10q-8 -8 -8 -20z" />
    <glyph glyph-name="eth" unicode="&#xf0;" horiz-adv-x="473" 
d="M-55 543q-40 -126 8 -195l12 -12q16 -19 41 -33q39 -20 80 -8q24 6 70 43q43 37 84 115q26 45 39 102q97 -35 231 39q19 12 -2 39q-15 17 -37 4q-77 -44 -184 -25q6 47 0 88q-6 42 -23 74q-22 49 -63 70q-26 13 -51 10q-34 -6 -41 -53q-3 -47 20 -101q25 -58 80 -104
q-12 -44 -33 -84q-39 -74 -80 -109q-26 -27 -61 -38q-24 -6 -39 0q-14 28 14 122q41 111 101 166q7 7 16 13q6 6 3 20t-15 27t-25.5 19t-19.5 1q-3 -2 -9.5 -7t-9.5 -7q-67 -61 -106 -176zM176 752q3 30 21 30q10 4 14 0h-2q7 -17 10 -45q6 -41 0 -92q-22 19 -31 43
q-15 35 -12 64zM211 782z" />
    <glyph glyph-name="ntilde" unicode="&#xf1;" horiz-adv-x="612" 
d="M-125 418q-9 -15 21 -49q12 -11 24 -15t17 2q20 20 81 76.5t162.5 141.5t153.5 112q-4 -12 -23 -49q-14 -28 -20 -41.5t-15.5 -39.5t-10 -42.5t2 -37t16 -37.5t35.5 -31q33 -19 75 -7t87 45t82.5 67.5t61.5 61.5l24 27q1 1 6 6.5t5 7t-1.5 6.5t-7.5 11q-17 20 -45 -17
l-13 -10q-13 -11 -33.5 -27.5t-47.5 -35.5t-54.5 -36.5t-55 -30.5t-49 -16.5t-36.5 5.5q31 60 58 113q5 10 13.5 27.5t13.5 29.5t8 22q23 85 -58 109h-4q-54 14 -276 -170l51 92q5 8 -1.5 22.5t-19.5 26.5q-12 12 -25.5 15.5t-17.5 -4.5zM127 878.5q3 -9.5 10 -16.5
q7 -9 15.5 -12t11.5 0q2 2 5 4.5t12.5 8.5t18.5 9t21.5 1.5t22.5 -9.5q40 -30 78 -30q28 3 53 34q3 3 -1 12t-12 17q-7 9 -15 12t-11 -2q-16 -25 -43 -28q-20 0 -49 20q-32 20 -58 18t-42 -14l-17 -12q-3 -3 0 -12.5z" />
    <glyph glyph-name="ograve" unicode="&#xf2;" horiz-adv-x="473" 
d="M-55 543q-40 -126 8 -195l12 -12q16 -19 41 -33q39 -20 80 -8q24 6 70 43q43 37 84 115q26 45 39 102q97 -35 231 39q19 12 -2 39q-15 17 -37 4q-77 -44 -184 -25q6 47 0 88q-6 42 -23 74q-22 49 -63 70q-26 13 -51 10q-34 -6 -41 -53q-3 -47 20 -101q25 -58 80 -104
q-12 -44 -33 -84q-39 -74 -80 -109q-26 -27 -61 -38q-24 -6 -39 0q-14 28 14 122q41 111 101 166q7 7 16 13q6 6 3 20t-15 27t-25.5 19t-19.5 1q-3 -2 -9.5 -7t-9.5 -7q-67 -61 -106 -176zM92 1053q0 -31 41 -90t80 -52q4 0 6 2q11 8 -8 27q-8 14 -23 14q-8 16 -10 19
q-22 46 -22 69q0 14 -21 31q-7 6 -25 -3.5t-18 -16.5zM176 752q3 30 21 30q10 4 14 0h-2q7 -17 10 -45q6 -41 0 -92q-22 19 -31 43q-15 35 -12 64z" />
    <glyph glyph-name="oacute" unicode="&#xf3;" horiz-adv-x="473" 
d="M-55 543q-40 -126 8 -195l12 -12q16 -19 41 -33q39 -20 80 -8q24 6 70 43q43 37 84 115q26 45 39 102q97 -35 231 39q19 12 -2 39q-15 17 -37 4q-77 -44 -184 -25q6 47 0 88q-6 42 -23 74q-22 49 -63 70q-26 13 -51 10q-34 -6 -41 -53q-3 -47 20 -101q25 -58 80 -104
q-12 -44 -33 -84q-39 -74 -80 -109q-26 -27 -61 -38q-24 -6 -39 0q-14 28 14 122q41 111 101 166q7 7 16 13q6 6 3 20t-15 27t-25.5 19t-19.5 1q-3 -2 -9.5 -7t-9.5 -7q-67 -61 -106 -176zM137 899q4 -4 6 -4q38 -11 86 43t52 84q0 8 -16 18.5t-25 6.5t-16 -12.5t-7 -14.5
q-3 -21 -33 -68q-8 -12 -12 -16q-8 3 -25 -10q-7 -7 -10 -15.5t0 -11.5zM176 752q3 30 21 30q10 4 14 0h-2q7 -17 10 -45q6 -41 0 -92q-22 19 -31 43q-15 35 -12 64z" />
    <glyph glyph-name="ocircumflex" unicode="&#xf4;" horiz-adv-x="473" 
d="M-55 543q-40 -126 8 -195l12 -12q16 -19 41 -33q39 -20 80 -8q24 6 70 43q43 37 84 115q26 45 39 102q97 -35 231 39q19 12 -2 39q-15 17 -37 4q-77 -44 -184 -25q6 47 0 88q-6 42 -23 74q-22 49 -63 70q-26 13 -51 10q-34 -6 -41 -53q-3 -47 20 -101q25 -58 80 -104
q-12 -44 -33 -84q-39 -74 -80 -109q-26 -27 -61 -38q-24 -6 -39 0q-14 28 14 122q41 111 101 166q7 7 16 13q6 6 3 20t-15 27t-25.5 19t-19.5 1q-3 -2 -9.5 -7t-9.5 -7q-67 -61 -106 -176zM76 899q3 -9 10 -16q20 -20 27 -9q8 9 60 45.5t93 57.5q25 10 29 12l-8 -78
q-4 -15 18 -30q7 -6 14 -6t7 6q2 34 12 102q3 14 -6 29q-20 32 -53 22q-21 -4 -46 -16q-43 -21 -96.5 -58.5t-60.5 -48.5q-3 -3 0 -12zM176 752q3 30 21 30q10 4 14 0h-2q7 -17 10 -45q6 -41 0 -92q-22 19 -31 43q-15 35 -12 64z" />
    <glyph glyph-name="otilde" unicode="&#xf5;" horiz-adv-x="473" 
d="M-55 543q-40 -126 8 -195l12 -12q16 -19 41 -33q39 -20 80 -8q24 6 70 43q43 37 84 115q26 45 39 102q97 -35 231 39q19 12 -2 39q-15 17 -37 4q-77 -44 -184 -25q6 47 0 88q-6 42 -23 74q-22 49 -63 70q-26 13 -51 10q-34 -6 -41 -53q-3 -47 20 -101q25 -58 80 -104
q-12 -44 -33 -84q-39 -74 -80 -109q-26 -27 -61 -38q-24 -6 -39 0q-14 28 14 122q41 111 101 166q7 7 16 13q6 6 3 20t-15 27t-25.5 19t-19.5 1q-3 -2 -9.5 -7t-9.5 -7q-67 -61 -106 -176zM176 752q3 30 21 30q10 4 14 0h-2q7 -17 10 -45q6 -41 0 -92q-22 19 -31 43
q-15 35 -12 64zM211 782z" />
    <glyph glyph-name="odieresis" unicode="&#xf6;" horiz-adv-x="473" 
d="M-55 543q-40 -126 8 -195l12 -12q16 -19 41 -33q39 -20 80 -8q24 6 70 43q43 37 84 115q26 45 39 102q97 -35 231 39q19 12 -2 39q-15 17 -37 4q-77 -44 -184 -25q6 47 0 88q-6 42 -23 74q-22 49 -63 70q-26 13 -51 10q-34 -6 -41 -53q-3 -47 20 -101q25 -58 80 -104
q-12 -44 -33 -84q-39 -74 -80 -109q-26 -27 -61 -38q-24 -6 -39 0q-14 28 14 122q41 111 101 166q7 7 16 13q6 6 3 20t-15 27t-25.5 19t-19.5 1q-3 -2 -9.5 -7t-9.5 -7q-67 -61 -106 -176zM98 989q0 -12 15 -31q12 -12 28 -12q13 0 21 8q10 10 10 23q0 17 -14 31
q-12 12 -29 12q-15 0 -20 -8q-11 -11 -11 -23zM176 752q3 30 21 30q10 4 14 0h-2q7 -17 10 -45q6 -41 0 -92q-22 19 -31 43q-15 35 -12 64zM207 989q0 -16 12 -31q12 -12 29 -12q10 0 22 8q9 14 9 23q0 16 -15 31q-12 12 -28 12q-13 0 -21 -8t-8 -23z" />
    <glyph glyph-name="divide" unicode="&#xf7;" horiz-adv-x="2048" 
 />
    <glyph glyph-name="oslash" unicode="&#xf8;" horiz-adv-x="473" 
d="M-55 543q-40 -126 8 -195l12 -12q16 -19 41 -33q39 -20 80 -8q24 6 70 43q43 37 84 115q26 45 39 102q97 -35 231 39q19 12 -2 39q-15 17 -37 4q-77 -44 -184 -25q6 47 0 88q-6 42 -23 74q-22 49 -63 70q-26 13 -51 10q-34 -6 -41 -53q-3 -47 20 -101q25 -58 80 -104
q-12 -44 -33 -84q-39 -74 -80 -109q-26 -27 -61 -38q-24 -6 -39 0q-14 28 14 122q41 111 101 166q7 7 16 13q6 6 3 20t-15 27t-25.5 19t-19.5 1q-3 -2 -9.5 -7t-9.5 -7q-67 -61 -106 -176zM176 752q3 30 21 30q10 4 14 0h-2q7 -17 10 -45q6 -41 0 -92q-22 19 -31 43
q-15 35 -12 64zM211 782z" />
    <glyph glyph-name="ugrave" unicode="&#xf9;" horiz-adv-x="563" 
d="M-74 404q22 -54 103.5 -35.5t181.5 104.5q6 -42 34.5 -65t65 -22t74.5 17q89 42 215 207q20 20 2 37q-5 5 -9.5 7t-8.5 -0.5t-6 -4.5t-6 -7.5t-5 -6.5q-39 -52 -102.5 -103t-124.5 -81q-75 -36 -67 12q9 50 85 152q5 7 9 12l14 14q6 6 1 20.5t-17 26.5q-12 13 -26 18
t-20 -1l-6 -9q-51 -86 -118 -154t-114.5 -95.5t-60.5 -16.5q-3 3 -4 12t1.5 24.5t8 35.5t18 47t29.5 56t43 65t58 73q11 19 -16 50q-12 12 -25.5 17t-19.5 -1q-108 -116 -158 -227q-51 -124 -29 -178zM158 977q0 -31 41 -89.5t80 -51.5q4 0 6 2q9 8 -9 26q-12 15 -22 15
q-2 2 -10 18q-25 45 -25 70q0 16 -18 30q-7 6 -25 -3.5t-18 -16.5z" />
    <glyph glyph-name="uacute" unicode="&#xfa;" horiz-adv-x="563" 
d="M-74 404q22 -54 103.5 -35.5t181.5 104.5q6 -42 34.5 -65t65 -22t74.5 17q89 42 215 207q20 20 2 37q-5 5 -9.5 7t-8.5 -0.5t-6 -4.5t-6 -7.5t-5 -6.5q-39 -52 -102.5 -103t-124.5 -81q-75 -36 -67 12q9 50 85 152q5 7 9 12l14 14q6 6 1 20.5t-17 26.5q-12 13 -26 18
t-20 -1l-6 -9q-51 -86 -118 -154t-114.5 -95.5t-60.5 -16.5q-3 3 -4 12t1.5 24.5t8 35.5t18 47t29.5 56t43 65t58 73q11 19 -16 50q-12 12 -25.5 17t-19.5 -1q-108 -116 -158 -227q-51 -124 -29 -178zM221 864q1 -1 3 -2t3 -2q39 -11 87.5 43.5t50.5 85.5q0 7 -16.5 18
t-24.5 7q-9 -4 -16 -13.5t-7 -15.5q-3 -19 -31 -65q-2 -4 -6.5 -10t-5.5 -9q-11 4 -25 -10q-9 -7 -12 -15.5t0 -11.5z" />
    <glyph glyph-name="ucircumflex" unicode="&#xfb;" horiz-adv-x="563" 
d="M-74 404q22 -54 103.5 -35.5t181.5 104.5q6 -42 34.5 -65t65 -22t74.5 17q89 42 215 207q20 20 2 37q-5 5 -9.5 7t-8.5 -0.5t-6 -4.5t-6 -7.5t-5 -6.5q-39 -52 -102.5 -103t-124.5 -81q-75 -36 -67 12q9 50 85 152q5 7 9 12l14 14q6 6 1 20.5t-17 26.5q-12 13 -26 18
t-20 -1l-6 -9q-51 -86 -118 -154t-114.5 -95.5t-60.5 -16.5q-3 3 -4 12t1.5 24.5t8 35.5t18 47t29.5 56t43 65t58 73q11 19 -16 50q-12 12 -25.5 17t-19.5 -1q-108 -116 -158 -227q-51 -124 -29 -178zM158 913q-6 -9 12 -30q19 -19 25 -9q8 10 60.5 46t94.5 57q15 6 27 12
l-8 -78q0 -16 18 -30q5 -4 10 -5.5t8 0.5t3 7q2 32 12 100q3 17 -6 29q-19 31 -54 24q-21 -7 -43 -18q-44 -21 -97.5 -58t-61.5 -47z" />
    <glyph glyph-name="udieresis" unicode="&#xfc;" horiz-adv-x="563" 
d="M-74 404q22 -54 103.5 -35.5t181.5 104.5q6 -42 34.5 -65t65 -22t74.5 17q89 42 215 207q20 20 2 37q-5 5 -9.5 7t-8.5 -0.5t-6 -4.5t-6 -7.5t-5 -6.5q-39 -52 -102.5 -103t-124.5 -81q-75 -36 -67 12q9 50 85 152q5 7 9 12l14 14q6 6 1 20.5t-17 26.5q-12 13 -26 18
t-20 -1l-6 -9q-51 -86 -118 -154t-114.5 -95.5t-60.5 -16.5q-3 3 -4 12t1.5 24.5t8 35.5t18 47t29.5 56t43 65t58 73q11 19 -16 50q-12 12 -25.5 17t-19.5 -1q-108 -116 -158 -227q-51 -124 -29 -178zM172 899q0 -17 14 -31q12 -12 27 -12t23 8t8 23q0 16 -15 31
q-12 12 -26 12q-11 0 -23 -8q-8 -12 -8 -23zM279 899q0 -17 14 -31q12 -12 29 -12q12 0 20 8t8 23q0 16 -12 31q-16 12 -29 12q-10 0 -22 -8q-8 -12 -8 -23z" />
    <glyph glyph-name="yacute" unicode="&#xfd;" horiz-adv-x="499" 
d="M-457 -43q-21 -66 17 -133q31 -55 89.5 -89.5t127.5 -35.5q90 0 360 455q386 55 985 4q12 0 14 9t-6 23q-18 35 -47 39q-540 47 -897 7q56 99 113 202.5t87 160.5t30 58l2 2l45 80q10 16 -21 47q-31 28 -43 13v2q5 -4 -18 -42t-64 -89t-89 -99.5t-101.5 -78.5t-93.5 -21
q-8 5 -8 29t4 32q45 105 143 218q13 16 -16 49q-12 12 -25.5 16.5t-19.5 -2.5q-106 -125 -146 -223q-23 -54 -20 -88q0 -66 63 -101q19 -11 47 -14q58 -5 172 94q-72 -131 -147 -258q-295 -46 -436 -145q-79 -56 -101 -121zM-391 -98q20 59 92 108q108 78 328 125
q-98 -161 -177 -262.5t-118 -101.5q-91 3 -121 51q-18 35 -4 80zM152 946q-7 -11 10 -28q17 -20 26 -11q7 10 59 45.5t95 57.5q14 8 29 12l-9 -78q-3 -13 19 -31q7 -6 13.5 -5t6.5 7q3 33 13 101q3 16 -6 28q-19 32 -54 25q-14 -2 -45 -16q-44 -23 -97 -60t-60 -47z" />
    <glyph glyph-name="thorn" unicode="&#xfe;" horiz-adv-x="2048" 
 />
    <glyph glyph-name="ydieresis" unicode="&#xff;" horiz-adv-x="499" 
d="M-457 -43q-21 -66 17 -133q31 -55 89.5 -89.5t127.5 -35.5q90 0 360 455q386 55 985 4q12 0 14 9t-6 23q-18 35 -47 39q-540 47 -897 7q56 99 113 202.5t87 160.5t30 58l2 2l45 80q10 16 -21 47q-31 28 -43 13v2q5 -4 -18 -42t-64 -89t-89 -99.5t-101.5 -78.5t-93.5 -21
q-8 5 -8 29t4 32q45 105 143 218q13 16 -16 49q-12 12 -25.5 16.5t-19.5 -2.5q-106 -125 -146 -223q-23 -54 -20 -88q0 -66 63 -101q19 -11 47 -14q58 -5 172 94q-72 -131 -147 -258q-295 -46 -436 -145q-79 -56 -101 -121zM-391 -98q20 59 92 108q108 78 328 125
q-98 -161 -177 -262.5t-118 -101.5q-91 3 -121 51q-18 35 -4 80zM215 946q0 -20 14 -31q10 -14 27 -14q13 0 23 10q8 8 8 21q0 16 -15 31q-14 14 -26 14q-13 0 -23 -10q-8 -5 -8 -21zM322 946q0 -17 14 -31t26 -14q13 0 23 10q8 5 8 21q0 20 -14 31q-11 14 -27 14
q-12 0 -22 -10q-8 -8 -8 -21z" />
    <glyph glyph-name="uni2000" unicode="&#x2000;" horiz-adv-x="1321" 
 />
    <glyph glyph-name="uni2001" unicode="&#x2001;" horiz-adv-x="2642" 
 />
    <glyph glyph-name="uni2002" unicode="&#x2002;" horiz-adv-x="1321" 
 />
    <glyph glyph-name="uni2003" unicode="&#x2003;" horiz-adv-x="2642" 
 />
    <glyph glyph-name="uni2004" unicode="&#x2004;" horiz-adv-x="880" 
 />
    <glyph glyph-name="uni2005" unicode="&#x2005;" horiz-adv-x="660" 
 />
    <glyph glyph-name="uni2006" unicode="&#x2006;" horiz-adv-x="440" 
 />
    <glyph glyph-name="uni2007" unicode="&#x2007;" horiz-adv-x="440" 
 />
    <glyph glyph-name="uni2008" unicode="&#x2008;" horiz-adv-x="330" 
 />
    <glyph glyph-name="uni2009" unicode="&#x2009;" horiz-adv-x="528" 
 />
    <glyph glyph-name="uni200A" unicode="&#x200a;" horiz-adv-x="146" 
 />
    <glyph glyph-name="uni2010" unicode="&#x2010;" horiz-adv-x="993" 
d="M105 890q-1 -11 8 -26q7 -13 21.5 -24t25.5 -11h573q12 0 13.5 10.5t-7.5 24.5q-9 15 -23 26t-24 11h-575q-11 0 -12 -11z" />
    <glyph glyph-name="uni2011" unicode="&#x2011;" horiz-adv-x="993" 
d="M105 890q-1 -11 8 -26q7 -13 21.5 -24t25.5 -11h573q12 0 13.5 10.5t-7.5 24.5q-9 15 -23 26t-24 11h-575q-11 0 -12 -11z" />
    <glyph glyph-name="figuredash" unicode="&#x2012;" horiz-adv-x="993" 
d="M105 890q-1 -11 8 -26q7 -13 21.5 -24t25.5 -11h573q12 0 13.5 10.5t-7.5 24.5q-9 15 -23 26t-24 11h-575q-11 0 -12 -11z" />
    <glyph glyph-name="endash" unicode="&#x2013;" horiz-adv-x="1373" 
d="M104.5 890q-1.5 -11 12.5 -26q11 -13 34 -24t41 -11h914q19 0 21.5 10.5t-11.5 24.5q-15 15 -37 26t-38 11h-918q-17 0 -18.5 -11z" />
    <glyph glyph-name="emdash" unicode="&#x2014;" horiz-adv-x="2398" 
d="M104.5 890q-3.5 -11 25.5 -26q22 -13 68.5 -24t81.5 -11h1828q39 0 43.5 10.5t-24.5 24.5q-28 15 -73 26t-77 11h-1834q-35 0 -38.5 -11z" />
    <glyph glyph-name="quoteleft" unicode="&#x2018;" horiz-adv-x="409" 
d="M100 1331q0 -56 37 -98q6 -7 19.5 -2.5t25.5 16.5q30 33 17 49q-31 36 -31 78q0 13 2 19q12 12 16 20q9 15 7 25t-13 10q-15 0 -37 -16q-4 -4 -4 -7q-21 -18 -30 -49q-9 -18 -9 -45z" />
    <glyph glyph-name="quoteright" unicode="&#x2019;" horiz-adv-x="376" 
d="M104 1380q31 -36 31 -77q0 -13 -2 -19q-12 -12 -16 -20q-6 -10 -7.5 -18t1.5 -12.5t10 -4.5q18 0 37 16l6 6q22 19 31 49q8 24 8 46q0 56 -37 98q-6 7 -19.5 2.5t-25.5 -16.5q-30 -34 -17 -50z" />
    <glyph glyph-name="quotesinglbase" unicode="&#x201a;" horiz-adv-x="894" 
d="M260 381q4 -21 45 -25q69 -4 107 37q34 37 28 107q-2 8 -15.5 15.5t-31.5 8.5q-18 0 -30 -5.5t-11 -12.5q3 -32 -1 -54.5t-12 -32t-16 -15t-14 -5.5h-6q-19 1 -31 -4t-12 -14z" />
    <glyph glyph-name="quotedblleft" unicode="&#x201c;" horiz-adv-x="466" 
d="M100 1331q0 -56 37 -98q6 -7 19.5 -2.5t25.5 16.5q30 33 17 49q-31 36 -31 78q0 13 2 19q12 12 16 20q6 10 7.5 18t-1.5 12.5t-10 4.5q-18 0 -37 -16q-1 -1 -3 -3.5t-3 -3.5q-21 -18 -30 -49q-9 -27 -9 -45zM250 1331q0 -58 37 -98q5 -7 18 -2.5t25 16.5q13 13 18 27
t0 22q-33 36 -33 78q0 4 1 10t1 9q14 14 17 20q6 10 7.5 18t-1.5 12.5t-10 4.5q-18 0 -37 -16q-1 -1 -3 -3.5t-3 -3.5q-23 -23 -31 -49q-6 -18 -6 -45z" />
    <glyph glyph-name="quotedblright" unicode="&#x201d;" horiz-adv-x="2048" 
d="M100 1331q0 -56 37 -98q6 -7 19.5 -2.5t25.5 16.5q30 33 17 49q-31 36 -31 78q0 13 2 19q12 12 16 20q6 10 7.5 18t-1.5 12.5t-10 4.5q-18 0 -37 -16q-1 -1 -3 -3.5t-3 -3.5q-21 -18 -30 -49q-9 -27 -9 -45zM250 1331q0 -58 37 -98q5 -7 18 -2.5t25 16.5q13 13 18 27
t0 22q-33 36 -33 78q0 4 1 10t1 9q14 14 17 20q6 10 7.5 18t-1.5 12.5t-10 4.5q-18 0 -37 -16q-1 -1 -3 -3.5t-3 -3.5q-23 -23 -31 -49q-6 -18 -6 -45z" />
    <glyph glyph-name="quotedblbase" unicode="&#x201e;" horiz-adv-x="894" 
d="M240 383q0 -9 13.5 -17t31.5 -8q0 -1 8 -1.5t21 1t28 5.5t29.5 14t26 25t17.5 40.5t3 57.5q0 20 -45 24q-19 1 -31 -4t-12 -14q3 -32 -1 -54.5t-11.5 -32t-15 -15t-13.5 -5.5h-6q-19 1 -32 -3.5t-11 -12.5zM399 381q4 -22 45 -25q3 0 8.5 -0.5t20.5 1.5t28.5 6t29.5 14
t27.5 25t17.5 40.5t4 57.5q-2 8 -16 15.5t-32 8.5q-17 0 -29 -5.5t-11 -12.5q3 -32 -1 -54.5t-12 -32t-16.5 -15t-14.5 -5.5h-6q-19 1 -31 -4t-12 -14z" />
    <glyph glyph-name="uni202F" unicode="&#x202f;" horiz-adv-x="528" 
 />
    <glyph glyph-name="uni205F" unicode="&#x205f;" horiz-adv-x="660" 
 />
    <glyph glyph-name="uni25FC" unicode="&#x25fc;" horiz-adv-x="829" 
d="M0 0v829h829v-829h-829z" />
  </font>
</defs>
</svg>
